<svg width="550" height="340" id="ngplotSvg"><g transform="translate(100,0)" class="group1"><g transform="translate(0,240)" class="bSlN2axis1"><g transform="translate(0,0)" class="bSlN2axis1_1"><line x1="0" y1="0" x2="300" y2="0" stroke="black" stroke-width="1" stroke-dasharray="1,0" class="bSlN2axis1_2"></line><g class="bSlN2axis1_3" transform="translate(26.470560000000003,0)"><line x1="0" y1="0" x2="0" y2="5" stroke="black" stroke-width="1" stroke-dasharray="1,0" class="bSlN2axis1_4"></line><g class="bSlN2axis1_5_g"><text x="2" y="13" style="text-anchor: end; font-size: 12px; font-weight: normal; font-family: Arial; font-style: normal;" transform="rotate(-45,2,13)" dominant-baseline="auto" fill="black" class="bSlN2axis1_5">name1</text></g></g><g class="bSlN2axis1_3" transform="translate(88.23528,0)"><line x1="0" y1="0" x2="0" y2="5" stroke="black" stroke-width="1" stroke-dasharray="1,0" class="bSlN2axis1_4"></line><g class="bSlN2axis1_5_g"><text x="2" y="13" style="text-anchor: end; font-size: 12px; font-weight: normal; font-family: Arial; font-style: normal;" transform="rotate(-45,2,13)" dominant-baseline="auto" fill="black" class="bSlN2axis1_5">name2</text></g></g><g class="bSlN2axis1_3" transform="translate(150,0)"><line x1="0" y1="0" x2="0" y2="5" stroke="black" stroke-width="1" stroke-dasharray="1,0" class="bSlN2axis1_4"></line><g class="bSlN2axis1_5_g"><text x="2" y="13" style="text-anchor: end; font-size: 12px; font-weight: normal; font-family: Arial; font-style: normal;" transform="rotate(-45,2,13)" dominant-baseline="auto" fill="black" class="bSlN2axis1_5">name3</text></g></g><g class="bSlN2axis1_3" transform="translate(211.76472,0)"><line x1="0" y1="0" x2="0" y2="5" stroke="black" stroke-width="1" stroke-dasharray="1,0" class="bSlN2axis1_4"></line><g class="bSlN2axis1_5_g"><text x="2" y="13" style="text-anchor: end; font-size: 12px; font-weight: normal; font-family: Arial; font-style: normal;" transform="rotate(-45,2,13)" dominant-baseline="auto" fill="black" class="bSlN2axis1_5">name4</text></g></g><g class="bSlN2axis1_3" transform="translate(273.52944,0)"><line x1="0" y1="0" x2="0" y2="5" stroke="black" stroke-width="1" stroke-dasharray="1,0" class="bSlN2axis1_4"></line><g class="bSlN2axis1_5_g"><text x="2" y="13" style="text-anchor: end; font-size: 12px; font-weight: normal; font-family: Arial; font-style: normal;" transform="rotate(-45,2,13)" dominant-baseline="auto" fill="black" class="bSlN2axis1_5">name5</text></g></g></g><g transform="translate(0,0)" class="bSlN2axis1_6"><line x1="0" y1="0" x2="0" y2="-160" stroke="black" stroke-width="1" stroke-dasharray="1,0" class="bSlN2axis1_7"></line><g class="bSlN2axis1_8" transform="translate(0,0)"><line x1="0" y1="0" x2="-5" y2="0" stroke="black" stroke-width="1" stroke-dasharray="1,0" class="bSlN2axis1_9"></line><g class="bSlN2axis1_10_g"><text x="-10" y="0" style="text-anchor: end; font-size: 12px; font-weight: normal; font-family: Arial; font-style: normal;" transform="rotate(0,-10,0)" dominant-baseline="middle" fill="black" class="bSlN2axis1_10">0</text></g></g><g class="bSlN2axis1_8" transform="translate(0,-32)"><line x1="0" y1="0" x2="-5" y2="0" stroke="black" stroke-width="1" stroke-dasharray="1,0" class="bSlN2axis1_9"></line><g class="bSlN2axis1_10_g"><text x="-10" y="0" style="text-anchor: end; font-size: 12px; font-weight: normal; font-family: Arial; font-style: normal;" transform="rotate(0,-10,0)" dominant-baseline="middle" fill="black" class="bSlN2axis1_10">20</text></g></g><g class="bSlN2axis1_8" transform="translate(0,-64)"><line x1="0" y1="0" x2="-5" y2="0" stroke="black" stroke-width="1" stroke-dasharray="1,0" class="bSlN2axis1_9"></line><g class="bSlN2axis1_10_g"><text x="-10" y="0" style="text-anchor: end; font-size: 12px; font-weight: normal; font-family: Arial; font-style: normal;" transform="rotate(0,-10,0)" dominant-baseline="middle" fill="black" class="bSlN2axis1_10">40</text></g></g><g class="bSlN2axis1_8" transform="translate(0,-96)"><line x1="0" y1="0" x2="-5" y2="0" stroke="black" stroke-width="1" stroke-dasharray="1,0" class="bSlN2axis1_9"></line><g class="bSlN2axis1_10_g"><text x="-10" y="0" style="text-anchor: end; font-size: 12px; font-weight: normal; font-family: Arial; font-style: normal;" transform="rotate(0,-10,0)" dominant-baseline="middle" fill="black" class="bSlN2axis1_10">60</text></g></g><g class="bSlN2axis1_8" transform="translate(0,-128)"><line x1="0" y1="0" x2="-5" y2="0" stroke="black" stroke-width="1" stroke-dasharray="1,0" class="bSlN2axis1_9"></line><g class="bSlN2axis1_10_g"><text x="-10" y="0" style="text-anchor: end; font-size: 12px; font-weight: normal; font-family: Arial; font-style: normal;" transform="rotate(0,-10,0)" dominant-baseline="middle" fill="black" class="bSlN2axis1_10">80</text></g></g><g class="bSlN2axis1_8" transform="translate(0,-160)"><line x1="0" y1="0" x2="-5" y2="0" stroke="black" stroke-width="1" stroke-dasharray="1,0" class="bSlN2axis1_9"></line><g class="bSlN2axis1_10_g"><text x="-10" y="0" style="text-anchor: end; font-size: 12px; font-weight: normal; font-family: Arial; font-style: normal;" transform="rotate(0,-10,0)" dominant-baseline="middle" fill="black" class="bSlN2axis1_10">100</text></g></g></g><g transform="translate(0,0)" class="group4"><g class="varsBarV1" transform="translate(26.470560000000003,0)"><g class="varsBarV1_1" transform="translate(0,0)"><rect x="-22.0588" y="-121.6" width="44.1176" height="121.6" rx="0" ry="0" fill="#0073c2" stroke="black" stroke-width="0" fill-opacity="1" class="varsBarV1_2"></rect></g><g class="varsBarV1_1" transform="translate(0,0)"><rect x="-16.5441" y="-59.2" width="33.0882" height="59.2" rx="0" ry="0" fill="#efc000" stroke="black" stroke-width="0" fill-opacity="1" class="varsBarV1_2"></rect></g><g class="varsBarV1_1" transform="translate(0,0)"><rect x="-11.0294" y="-27.200000000000003" width="22.0588" height="27.200000000000003" rx="0" ry="0" fill="#868686" stroke="black" stroke-width="0" fill-opacity="1" class="varsBarV1_2"></rect></g><g class="varsBarV1_1" transform="translate(0,0)"><rect x="-5.514700000000001" y="-9.6" width="11.029400000000003" height="9.6" rx="0" ry="0" fill="#cd534c" stroke="black" stroke-width="0" fill-opacity="1" class="varsBarV1_2"></rect></g></g><g class="varsBarV1" transform="translate(88.23528,0)"><g class="varsBarV1_1" transform="translate(0,0)"><rect x="-22.0588" y="-110.39999999999999" width="44.1176" height="110.39999999999999" rx="0" ry="0" fill="#0073c2" stroke="black" stroke-width="0" fill-opacity="1" class="varsBarV1_2"></rect></g><g class="varsBarV1_1" transform="translate(0,0)"><rect x="-16.5441" y="-54.400000000000006" width="33.0882" height="54.400000000000006" rx="0" ry="0" fill="#efc000" stroke="black" stroke-width="0" fill-opacity="1" class="varsBarV1_2"></rect></g><g class="varsBarV1_1" transform="translate(0,0)"><rect x="-11.0294" y="-22.400000000000002" width="22.0588" height="22.400000000000002" rx="0" ry="0" fill="#868686" stroke="black" stroke-width="0" fill-opacity="1" class="varsBarV1_2"></rect></g><g class="varsBarV1_1" transform="translate(0,0)"><rect x="-5.514700000000001" y="-14.399999999999999" width="11.029400000000003" height="14.399999999999999" rx="0" ry="0" fill="#cd534c" stroke="black" stroke-width="0" fill-opacity="1" class="varsBarV1_2"></rect></g></g><g class="varsBarV1" transform="translate(150,0)"><g class="varsBarV1_1" transform="translate(0,0)"><rect x="-22.0588" y="-144" width="44.1176" height="144" rx="0" ry="0" fill="#0073c2" stroke="black" stroke-width="0" fill-opacity="1" class="varsBarV1_2"></rect></g><g class="varsBarV1_1" transform="translate(0,0)"><rect x="-16.5441" y="-60.8" width="33.0882" height="60.8" rx="0" ry="0" fill="#efc000" stroke="black" stroke-width="0" fill-opacity="1" class="varsBarV1_2"></rect></g><g class="varsBarV1_1" transform="translate(0,0)"><rect x="-11.0294" y="-20.8" width="22.0588" height="20.8" rx="0" ry="0" fill="#868686" stroke="black" stroke-width="0" fill-opacity="1" class="varsBarV1_2"></rect></g><g class="varsBarV1_1" transform="translate(0,0)"><rect x="-5.514700000000001" y="-12.8" width="11.029400000000003" height="12.8" rx="0" ry="0" fill="#cd534c" stroke="black" stroke-width="0" fill-opacity="1" class="varsBarV1_2"></rect></g></g><g class="varsBarV1" transform="translate(211.76472,0)"><g class="varsBarV1_1" transform="translate(0,0)"><rect x="-22.0588" y="-89.60000000000001" width="44.1176" height="89.60000000000001" rx="0" ry="0" fill="#0073c2" stroke="black" stroke-width="0" fill-opacity="1" class="varsBarV1_2"></rect></g><g class="varsBarV1_1" transform="translate(0,0)"><rect x="-16.5441" y="-43.2" width="33.0882" height="43.2" rx="0" ry="0" fill="#efc000" stroke="black" stroke-width="0" fill-opacity="1" class="varsBarV1_2"></rect></g><g class="varsBarV1_1" transform="translate(0,0)"><rect x="-11.0294" y="-22.400000000000002" width="22.0588" height="22.400000000000002" rx="0" ry="0" fill="#868686" stroke="black" stroke-width="0" fill-opacity="1" class="varsBarV1_2"></rect></g><g class="varsBarV1_1" transform="translate(0,0)"><rect x="-5.514700000000001" y="-1.6" width="11.029400000000003" height="1.6" rx="0" ry="0" fill="#cd534c" stroke="black" stroke-width="0" fill-opacity="1" class="varsBarV1_2"></rect></g></g><g class="varsBarV1" transform="translate(273.52944,0)"><g class="varsBarV1_1" transform="translate(0,0)"><rect x="-22.0588" y="-137.6" width="44.1176" height="137.6" rx="0" ry="0" fill="#0073c2" stroke="black" stroke-width="0" fill-opacity="1" class="varsBarV1_2"></rect></g><g class="varsBarV1_1" transform="translate(0,0)"><rect x="-16.5441" y="-36.800000000000004" width="33.0882" height="36.800000000000004" rx="0" ry="0" fill="#efc000" stroke="black" stroke-width="0" fill-opacity="1" class="varsBarV1_2"></rect></g><g class="varsBarV1_1" transform="translate(0,0)"><rect x="-11.0294" y="-25.6" width="22.0588" height="25.6" rx="0" ry="0" fill="#868686" stroke="black" stroke-width="0" fill-opacity="1" class="varsBarV1_2"></rect></g><g class="varsBarV1_1" transform="translate(0,0)"><rect x="-5.514700000000001" y="-8" width="11.029400000000003" height="8" rx="0" ry="0" fill="#cd534c" stroke="black" stroke-width="0" fill-opacity="1" class="varsBarV1_2"></rect></g></g></g></g></g></svg>
