<svg width="450" height="450" id="ngplotSvg"><g transform="translate(100,0)" class="group1"><g transform="translate(33,242)" class="bSlN2axis1"><g transform="translate(0,0)" class="bSlN2axis1_1"><line x1="0" y1="0" x2="200" y2="0" stroke="black" stroke-width="1" stroke-dasharray="1,0" class="bSlN2axis1_2"></line><g class="bSlN2axis1_3" transform="translate(17.64708,0)"><line x1="0" y1="0" x2="0" y2="5" stroke="black" stroke-width="1" stroke-dasharray="1,0" class="bSlN2axis1_4"></line><g class="bSlN2axis1_5_g"><text x="0" y="10" style="text-anchor: end; font-size: 12px; font-weight: bold; font-family: Arial;" transform="rotate(-45,0,10)" dominant-baseline="middle" fill="black" class="bSlN2axis1_5">A11</text></g></g><g class="bSlN2axis1_3" transform="translate(58.82354000000001,0)"><line x1="0" y1="0" x2="0" y2="5" stroke="black" stroke-width="1" stroke-dasharray="1,0" class="bSlN2axis1_4"></line><g class="bSlN2axis1_5_g"><text x="0" y="10" style="text-anchor: end; font-size: 12px; font-weight: bold; font-family: Arial;" transform="rotate(-45,0,10)" dominant-baseline="middle" fill="black" class="bSlN2axis1_5">B11</text></g></g><g class="bSlN2axis1_3" transform="translate(100.00000000000001,0)"><line x1="0" y1="0" x2="0" y2="5" stroke="black" stroke-width="1" stroke-dasharray="1,0" class="bSlN2axis1_4"></line><g class="bSlN2axis1_5_g"><text x="0" y="10" style="text-anchor: end; font-size: 12px; font-weight: bold; font-family: Arial;" transform="rotate(-45,0,10)" dominant-baseline="middle" fill="black" class="bSlN2axis1_5">C11</text></g></g><g class="bSlN2axis1_3" transform="translate(141.17646000000002,0)"><line x1="0" y1="0" x2="0" y2="5" stroke="black" stroke-width="1" stroke-dasharray="1,0" class="bSlN2axis1_4"></line><g class="bSlN2axis1_5_g"><text x="0" y="10" style="text-anchor: end; font-size: 12px; font-weight: bold; font-family: Arial;" transform="rotate(-45,0,10)" dominant-baseline="middle" fill="black" class="bSlN2axis1_5">D11</text></g></g><g class="bSlN2axis1_3" transform="translate(182.35292000000004,0)"><line x1="0" y1="0" x2="0" y2="5" stroke="black" stroke-width="1" stroke-dasharray="1,0" class="bSlN2axis1_4"></line><g class="bSlN2axis1_5_g"><text x="0" y="10" style="text-anchor: end; font-size: 12px; font-weight: bold; font-family: Arial;" transform="rotate(-45,0,10)" dominant-baseline="middle" fill="black" class="bSlN2axis1_5">E11</text></g></g></g><g transform="translate(0,0)" class="bSlN2axis1_6"><line x1="0" y1="0" x2="0" y2="-160" stroke="black" stroke-width="1" stroke-dasharray="1,0" class="bSlN2axis1_7"></line><g class="bSlN2axis1_8" transform="translate(0,0)"><line x1="0" y1="0" x2="-5" y2="0" stroke="black" stroke-width="1" stroke-dasharray="1,0" class="bSlN2axis1_9"></line><g class="bSlN2axis1_10_g"><text x="-10" y="3" style="text-anchor: end; font-size: 12px; font-weight: bold; font-family: Arial;" transform="rotate(0,-10,3)" dominant-baseline="auto" fill="black" class="bSlN2axis1_10">0</text></g></g><g class="bSlN2axis1_8" transform="translate(0,-40)"><line x1="0" y1="0" x2="-5" y2="0" stroke="black" stroke-width="1" stroke-dasharray="1,0" class="bSlN2axis1_9"></line><g class="bSlN2axis1_10_g"><text x="-10" y="3" style="text-anchor: end; font-size: 12px; font-weight: bold; font-family: Arial;" transform="rotate(0,-10,3)" dominant-baseline="auto" fill="black" class="bSlN2axis1_10">3</text></g></g><g class="bSlN2axis1_8" transform="translate(0,-80)"><line x1="0" y1="0" x2="-5" y2="0" stroke="black" stroke-width="1" stroke-dasharray="1,0" class="bSlN2axis1_9"></line><g class="bSlN2axis1_10_g"><text x="-10" y="3" style="text-anchor: end; font-size: 12px; font-weight: bold; font-family: Arial;" transform="rotate(0,-10,3)" dominant-baseline="auto" fill="black" class="bSlN2axis1_10">6</text></g></g><g class="bSlN2axis1_8" transform="translate(0,-120)"><line x1="0" y1="0" x2="-5" y2="0" stroke="black" stroke-width="1" stroke-dasharray="1,0" class="bSlN2axis1_9"></line><g class="bSlN2axis1_10_g"><text x="-10" y="3" style="text-anchor: end; font-size: 12px; font-weight: bold; font-family: Arial;" transform="rotate(0,-10,3)" dominant-baseline="auto" fill="black" class="bSlN2axis1_10">9</text></g></g><g class="bSlN2axis1_8" transform="translate(0,-160)"><line x1="0" y1="0" x2="-5" y2="0" stroke="black" stroke-width="1" stroke-dasharray="1,0" class="bSlN2axis1_9"></line><g class="bSlN2axis1_10_g"><text x="-10" y="3" style="text-anchor: end; font-size: 12px; font-weight: bold; font-family: Arial;" transform="rotate(0,-10,3)" dominant-baseline="auto" fill="black" class="bSlN2axis1_10">12</text></g></g><g class="text1_g"><text x="-40" y="-80" style="text-anchor: middle; font-size: 12px; font-weight: bold; font-family: Arial;" transform="rotate(-90,-40,-80)" dominant-baseline="auto" fill="black" class="text1">aaaa</text></g></g><g class="group2" transform="translate(17.64708,0)"><rect x="-13.5135" y="-88.29333333333332" width="27.0270" height="88.29333333333332" fill="#f8766d" stroke="black" stroke-width="1" fill-opacity="1" class="rect1"></rect><g transform="translate(0,-88.29333333333332)" class="gong1"><line x1="-10.5135" y1="-17.016146666666664" x2="10.5135" y2="-17.016146666666664" stroke="black" stroke-width="1" stroke-dasharray="1,0" class="gong1_1"></line><line x1="0" y1="-17.016146666666664" x2="0" y2="0" stroke="black" stroke-width="1" stroke-dasharray="1,0" class="gong1_2"></line></g></g><g class="group2" transform="translate(58.82354000000001,0)"><rect x="-13.5135" y="-114.26666666666668" width="27.0270" height="114.26666666666668" fill="#bb9d00" stroke="black" stroke-width="1" fill-opacity="1" class="rect1"></rect><g transform="translate(0,-114.26666666666668)" class="gong1"><line x1="-10.5135" y1="-8.739239999999999" x2="10.5135" y2="-8.739239999999999" stroke="black" stroke-width="1" stroke-dasharray="1,0" class="gong1_1"></line><line x1="0" y1="-8.739239999999999" x2="0" y2="0" stroke="black" stroke-width="1" stroke-dasharray="1,0" class="gong1_2"></line></g></g><g class="group2" transform="translate(100.00000000000001,0)"><rect x="-13.5135" y="-73.30666666666667" width="27.0270" height="73.30666666666667" fill="#00b81f" stroke="black" stroke-width="1" fill-opacity="1" class="rect1"></rect><g transform="translate(0,-73.30666666666667)" class="gong1"><line x1="-10.5135" y1="-25.456719999999997" x2="10.5135" y2="-25.456719999999997" stroke="black" stroke-width="1" stroke-dasharray="1,0" class="gong1_1"></line><line x1="0" y1="-25.456719999999997" x2="0" y2="0" stroke="black" stroke-width="1" stroke-dasharray="1,0" class="gong1_2"></line></g></g><g class="group2" transform="translate(141.17646000000002,0)"><rect x="-13.5135" y="-32.266666666666666" width="27.0270" height="32.266666666666666" fill="#00c0b8" stroke="black" stroke-width="1" fill-opacity="1" class="rect1"></rect><g transform="translate(0,-32.266666666666666)" class="gong1"><line x1="-10.5135" y1="-18.615066666666667" x2="10.5135" y2="-18.615066666666667" stroke="black" stroke-width="1" stroke-dasharray="1,0" class="gong1_1"></line><line x1="0" y1="-18.615066666666667" x2="0" y2="0" stroke="black" stroke-width="1" stroke-dasharray="1,0" class="gong1_2"></line></g></g><g class="group2" transform="translate(182.35292000000004,0)"><rect x="-13.5135" y="-68.2" width="27.0270" height="68.2" fill="#e76bf3" stroke="black" stroke-width="1" fill-opacity="1" class="rect1"></rect><g transform="translate(0,-68.2)" class="gong1"><line x1="-10.5135" y1="-25.477439999999998" x2="10.5135" y2="-25.477439999999998" stroke="black" stroke-width="1" stroke-dasharray="1,0" class="gong1_1"></line><line x1="0" y1="-25.477439999999998" x2="0" y2="0" stroke="black" stroke-width="1" stroke-dasharray="1,0" class="gong1_2"></line></g></g></g></g></svg>
