<svg width="450" height="450" id="ngplotSvg"><g class="group11" transform="translate(240,240)"><g transform="translate(0,0)" class="pathtext1"><g class="pathtext1_1_g"><text x="0" y="0" style="text-anchor: middle; font-size: 12px; font-weight: normal; font-family: Arial; font-style: normal;" transform="rotate(0,0,0)" dominant-baseline="middle" fill="black" class="pathtext1_1_t"><textPath href="#e_pathtext1_2_0" dy="0" startOffset="50%" class="pathtext1_1">group1</textPath></text></g><path d=" M -21.531620331600706 33.71037415834774 A 40 40 0 1 1 33.5898276019592 -21.71919615618082" id="e_pathtext1_2_0" fill="none" stroke="black" stroke-width="0" stroke-dasharray="1,0" fill-opacity="1" transform="rotate(0,0,0)" class="pathtext1_2"></path></g><g transform="translate(0,-20)" class="group3"><g class="group4" transform="translate(0,-30)"><line x1="-10" y1="0" x2="10" y2="0" stroke="black" stroke-width="0.5" stroke-dasharray="1,1" class="line_h1"></line><rect x="-5" y="-5" width="10" height="10" rx="0" ry="0" fill="#ded9d9" stroke="black" stroke-width="0" fill-opacity="1" transform="rotate(0,-5,-5)" class="rect1"></rect><g class="text1_g"><text x="0" y="0" style="text-anchor: middle; font-size: 10px; font-weight: normal; font-family: Arial; font-style: normal;" transform="rotate(0,0,0)" dominant-baseline="middle" fill="black" class="text1">0</text></g></g><g class="group4" transform="translate(0,-46)"><line x1="-10" y1="0" x2="10" y2="0" stroke="black" stroke-width="0.5" stroke-dasharray="1,1" class="line_h1"></line><rect x="-5" y="-5" width="10" height="10" rx="0" ry="0" fill="#ded9d9" stroke="black" stroke-width="0" fill-opacity="1" transform="rotate(0,-5,-5)" class="rect1"></rect><g class="text1_g"><text x="0" y="0" style="text-anchor: middle; font-size: 10px; font-weight: normal; font-family: Arial; font-style: normal;" transform="rotate(0,0,0)" dominant-baseline="middle" fill="black" class="text1">2</text></g></g><g class="group4" transform="translate(0,-62)"><line x1="-10" y1="0" x2="10" y2="0" stroke="black" stroke-width="0.5" stroke-dasharray="1,1" class="line_h1"></line><rect x="-5" y="-5" width="10" height="10" rx="0" ry="0" fill="#ded9d9" stroke="black" stroke-width="0" fill-opacity="1" transform="rotate(0,-5,-5)" class="rect1"></rect><g class="text1_g"><text x="0" y="0" style="text-anchor: middle; font-size: 10px; font-weight: normal; font-family: Arial; font-style: normal;" transform="rotate(0,0,0)" dominant-baseline="middle" fill="black" class="text1">4</text></g></g><g class="group4" transform="translate(0,-78)"><line x1="-10" y1="0" x2="10" y2="0" stroke="black" stroke-width="0.5" stroke-dasharray="1,1" class="line_h1"></line><rect x="-5" y="-5" width="10" height="10" rx="0" ry="0" fill="#ded9d9" stroke="black" stroke-width="0" fill-opacity="1" transform="rotate(0,-5,-5)" class="rect1"></rect><g class="text1_g"><text x="0" y="0" style="text-anchor: middle; font-size: 10px; font-weight: normal; font-family: Arial; font-style: normal;" transform="rotate(0,0,0)" dominant-baseline="middle" fill="black" class="text1">6</text></g></g><g class="group4" transform="translate(0,-94)"><line x1="-10" y1="0" x2="10" y2="0" stroke="black" stroke-width="0.5" stroke-dasharray="1,1" class="line_h1"></line><rect x="-5" y="-5" width="10" height="10" rx="0" ry="0" fill="#ded9d9" stroke="black" stroke-width="0" fill-opacity="1" transform="rotate(0,-5,-5)" class="rect1"></rect><g class="text1_g"><text x="0" y="0" style="text-anchor: middle; font-size: 10px; font-weight: normal; font-family: Arial; font-style: normal;" transform="rotate(0,0,0)" dominant-baseline="middle" fill="black" class="text1">8</text></g></g><g class="group4" transform="translate(0,-110)"><line x1="-10" y1="0" x2="10" y2="0" stroke="black" stroke-width="0.5" stroke-dasharray="1,1" class="line_h1"></line><rect x="-5" y="-5" width="10" height="10" rx="0" ry="0" fill="#ded9d9" stroke="black" stroke-width="0" fill-opacity="1" transform="rotate(0,-5,-5)" class="rect1"></rect><g class="text1_g"><text x="0" y="0" style="text-anchor: middle; font-size: 10px; font-weight: normal; font-family: Arial; font-style: normal;" transform="rotate(0,0,0)" dominant-baseline="middle" fill="black" class="text1">10</text></g></g></g></g><g class="group11" transform="translate(240,240)"><g transform="translate(0,0)" class="pathtext1"><g class="pathtext1_1_g"><text x="0" y="0" style="text-anchor: middle; font-size: 12px; font-weight: normal; font-family: Arial; font-style: normal;" transform="rotate(0,0,0)" dominant-baseline="middle" fill="black" class="pathtext1_1_t"><textPath href="#e_pathtext1_2_1" dy="0" startOffset="50%" class="pathtext1_1">group2</textPath></text></g><path d=" M -33.65883939231586 -21.61209223472559 A 40 40 0 1 1 21.638888815079525 33.64161843384807" id="e_pathtext1_2_1" fill="none" stroke="black" stroke-width="0" stroke-dasharray="1,0" fill-opacity="1" transform="rotate(0,0,0)" class="pathtext1_2"></path></g><g transform="translate(20,0)" class="group3"><g class="group4" transform="translate(30,0)"><line x1="0" y1="-10" x2="0" y2="10" stroke="black" stroke-width="0.5" stroke-dasharray="1,1" class="line_h1"></line></g></g></g></svg>
