<svg width="500" height="450" id="ngplotSvg"><defs class="gradient1_defs"><linearGradient id="gradient1_0" x1="0%" y1="0%" x2="100%" y2="0%" class="gradient1_0"><stop offset="0%" style="stop-color:#c42121;stop-opacity:1" class="gradient1_0s1"></stop><stop offset="100%" style="stop-color:#224cc9;stop-opacity:1" class="gradient1_0s2"></stop></linearGradient></defs><g transform="translate(96,84)" class="group4"><g class="group8" transform="translate(0,0)"><path d="M200,250L0,200L100,125L300,175" id="e_path1_0" fill="#eae6e6" stroke="red" stroke-width="0" datum="0,0,0,0,6,0,6,6,0,6,0,0" stroke-dasharray="1,0" fill-opacity="0.7" class="path1"></path></g><g class="group8" transform="translate(0,0)"><path d="M300,175L100,125L105,-25L305,25" id="e_path1_1" fill="#eae6e6" stroke="red" stroke-width="0" datum="6,0,0,6,6,0,6,6,70,6,0,70" stroke-dasharray="1,0" fill-opacity="0.7" class="path1"></path></g><g class="group8" transform="translate(0,0)"><path d="M0,200L5,50L105,-25L100,125" id="e_path1_2" fill="#eae6e6" stroke="red" stroke-width="0" datum="0,6,0,0,6,70,6,6,70,6,6,0" stroke-dasharray="1,0" fill-opacity="0.7" class="path1"></path></g><g class="group1" transform="translate(0,0)"><g class="group2" transform="translate(0,0)"><line x1="266.6666666666667" y1="166.66666666666697" x2="271.6666666666667" y2="16.66666666666697" stroke="black" stroke-width="0.1" stroke-dasharray="1,0" class="line1"></line></g><g class="group2" transform="translate(0,0)"><line x1="233.33333333333334" y1="158.33333333333394" x2="238.33333333333334" y2="8.33333333333394" stroke="black" stroke-width="0.1" stroke-dasharray="1,0" class="line1"></line></g><g class="group2" transform="translate(0,0)"><line x1="200" y1="150" x2="205" y2="0" stroke="black" stroke-width="0.1" stroke-dasharray="1,0" class="line1"></line></g><g class="group2" transform="translate(0,0)"><line x1="166.66666666666666" y1="141.66666666666606" x2="171.66666666666666" y2="-8.33333333333394" stroke="black" stroke-width="0.1" stroke-dasharray="1,0" class="line1"></line></g><g class="group2" transform="translate(0,0)"><line x1="133.33333333333334" y1="133.33333333333348" x2="138.33333333333334" y2="-16.66666666666606" stroke="black" stroke-width="0.1" stroke-dasharray="1,0" class="line1"></line></g></g><g class="group1" transform="translate(0,0)"><g class="group2" transform="translate(0,0)"><line x1="300.7142857142857" y1="153.57142857142753" x2="100.71428571428575" y2="103.57142857142753" stroke="black" stroke-width="0.1" stroke-dasharray="1,0" class="line1"></line></g><g class="group2" transform="translate(0,0)"><line x1="301.42857142857144" y1="132.14285714285688" x2="101.42857142857143" y2="82.14285714285688" stroke="black" stroke-width="0.1" stroke-dasharray="1,0" class="line1"></line></g><g class="group2" transform="translate(0,0)"><line x1="302.14285714285717" y1="110.71428571428442" x2="102.14285714285718" y2="60.714285714284415" stroke="black" stroke-width="0.1" stroke-dasharray="1,0" class="line1"></line></g><g class="group2" transform="translate(0,0)"><line x1="302.85714285714283" y1="89.28571428571558" x2="102.85714285714282" y2="39.285714285715585" stroke="black" stroke-width="0.1" stroke-dasharray="1,0" class="line1"></line></g><g class="group2" transform="translate(0,0)"><line x1="303.57142857142856" y1="67.85714285714312" x2="103.57142857142857" y2="17.857142857143117" stroke="black" stroke-width="0.1" stroke-dasharray="1,0" class="line1"></line></g><g class="group2" transform="translate(0,0)"><line x1="304.2857142857143" y1="46.42857142857247" x2="104.28571428571425" y2="-3.571428571427532" stroke="black" stroke-width="0.1" stroke-dasharray="1,0" class="line1"></line></g></g><g class="group1" transform="translate(0,0)"><g class="group2" transform="translate(0,0)"><line x1="16.666666666666657" y1="187.50000000000006" x2="21.666666666666657" y2="37.5" stroke="black" stroke-width="0.1" stroke-dasharray="1,0" class="line1"></line></g><g class="group2" transform="translate(0,0)"><line x1="33.33333333333332" y1="174.9999999999999" x2="38.33333333333332" y2="25" stroke="black" stroke-width="0.1" stroke-dasharray="1,0" class="line1"></line></g><g class="group2" transform="translate(0,0)"><line x1="50" y1="162.5" x2="55" y2="12.5" stroke="black" stroke-width="0.1" stroke-dasharray="1,0" class="line1"></line></g><g class="group2" transform="translate(0,0)"><line x1="66.66666666666669" y1="150" x2="71.66666666666669" y2="0" stroke="black" stroke-width="0.1" stroke-dasharray="1,0" class="line1"></line></g><g class="group2" transform="translate(0,0)"><line x1="83.33333333333334" y1="137.49999999999955" x2="88.33333333333333" y2="-12.5" stroke="black" stroke-width="0.1" stroke-dasharray="1,0" class="line1"></line></g></g><g class="group1" transform="translate(0,0)"><g class="group2" transform="translate(0,0)"><line x1="0.7142857142857495" y1="178.5714285714275" x2="100.71428571428575" y2="103.57142857142753" stroke="black" stroke-width="0.1" stroke-dasharray="1,0" class="line1"></line></g><g class="group2" transform="translate(0,0)"><line x1="1.4285714285714373" y1="157.14285714285688" x2="101.42857142857143" y2="82.14285714285688" stroke="black" stroke-width="0.1" stroke-dasharray="1,0" class="line1"></line></g><g class="group2" transform="translate(0,0)"><line x1="2.142857142857186" y1="135.71428571428442" x2="102.14285714285718" y2="60.714285714284415" stroke="black" stroke-width="0.1" stroke-dasharray="1,0" class="line1"></line></g><g class="group2" transform="translate(0,0)"><line x1="2.8571428571428137" y1="114.28571428571558" x2="102.85714285714282" y2="39.285714285715585" stroke="black" stroke-width="0.1" stroke-dasharray="1,0" class="line1"></line></g><g class="group2" transform="translate(0,0)"><line x1="3.571428571428563" y1="92.8571428571431" x2="103.57142857142857" y2="17.857142857143117" stroke="black" stroke-width="0.1" stroke-dasharray="1,0" class="line1"></line></g><g class="group2" transform="translate(0,0)"><line x1="4.285714285714251" y1="71.42857142857247" x2="104.28571428571425" y2="-3.571428571427532" stroke="black" stroke-width="0.1" stroke-dasharray="1,0" class="line1"></line></g></g><g class="group1" transform="translate(0,0)"><g class="group2" transform="translate(0,0)"><line x1="216.66666666666666" y1="237.5" x2="16.666666666666657" y2="187.50000000000006" stroke="black" stroke-width="0.1" stroke-dasharray="1,0" class="line1"></line></g><g class="group2" transform="translate(0,0)"><line x1="233.33333333333331" y1="225" x2="33.33333333333332" y2="174.9999999999999" stroke="black" stroke-width="0.1" stroke-dasharray="1,0" class="line1"></line></g><g class="group2" transform="translate(0,0)"><line x1="250" y1="212.5" x2="50" y2="162.5" stroke="black" stroke-width="0.1" stroke-dasharray="1,0" class="line1"></line></g><g class="group2" transform="translate(0,0)"><line x1="266.6666666666667" y1="199.9999999999991" x2="66.66666666666669" y2="150" stroke="black" stroke-width="0.1" stroke-dasharray="1,0" class="line1"></line></g><g class="group2" transform="translate(0,0)"><line x1="283.3333333333333" y1="187.5" x2="83.33333333333334" y2="137.49999999999955" stroke="black" stroke-width="0.1" stroke-dasharray="1,0" class="line1"></line></g></g><g class="group1" transform="translate(0,0)"><g class="group2" transform="translate(0,0)"><line x1="166.6666666666667" y1="241.66666666666606" x2="266.6666666666667" y2="166.66666666666697" stroke="black" stroke-width="0.1" stroke-dasharray="1,0" class="line1"></line></g><g class="group2" transform="translate(0,0)"><line x1="133.33333333333337" y1="233.33333333333303" x2="233.33333333333334" y2="158.33333333333394" stroke="black" stroke-width="0.1" stroke-dasharray="1,0" class="line1"></line></g><g class="group2" transform="translate(0,0)"><line x1="100" y1="225" x2="200" y2="150" stroke="black" stroke-width="0.1" stroke-dasharray="1,0" class="line1"></line></g><g class="group2" transform="translate(0,0)"><line x1="66.66666666666663" y1="216.66666666666674" x2="166.66666666666666" y2="141.66666666666606" stroke="black" stroke-width="0.1" stroke-dasharray="1,0" class="line1"></line></g><g class="group2" transform="translate(0,0)"><line x1="33.333333333333336" y1="208.33333333333337" x2="133.33333333333334" y2="133.33333333333348" stroke="black" stroke-width="0.1" stroke-dasharray="1,0" class="line1"></line></g></g><g class="group3" transform="translate(0,0)"><path d=" M 176.66666666666669 234.16666666666697 L 190 224.16666666666697 L 191.42857142857144 181.30952380952385 L 178.09523809523813 191.30952380952385" id="e_multi1_0" fill="#1b9e77" stroke="black" stroke-width="0" stroke-dasharray="1,0" fill-opacity="0.5" class="multi1"></path></g><g class="group3" transform="translate(0,0)"><path d=" M 178.09523809523813 191.30952380952385 L 191.42857142857144 181.30952380952385 L 192.1428571428572 159.88095238095138 L 178.8095238095239 169.88095238095048" id="e_multi1_1" fill="#d95f02" stroke="black" stroke-width="0" stroke-dasharray="1,0" fill-opacity="0.5" class="multi1"></path></g><g class="group3" transform="translate(0,0)"><path d=" M 178.8095238095239 169.88095238095048 L 192.1428571428572 159.88095238095138 L 193.57142857142856 117.02380952381009 L 180.23809523809527 127.02380952381009" id="e_multi1_2" fill="#7570b3" stroke="black" stroke-width="0" stroke-dasharray="1,0" fill-opacity="0.5" class="multi1"></path></g><g class="group3" transform="translate(0,0)"><path d=" M 226.6666666666667 196.66666666666606 L 240.00000000000003 186.66666666666697 L 242.07142857142858 124.52380952381009 L 228.7380952380953 134.52380952380918" id="e_multi1_3" fill="#1b9e77" stroke="black" stroke-width="0" stroke-dasharray="1,0" fill-opacity="0.5" class="multi1"></path></g><g class="group3" transform="translate(0,0)"><path d=" M 228.7380952380953 134.52380952380918 L 242.07142857142858 124.52380952381009 L 242.35714285714283 115.95238095238255 L 229.02380952380952 125.95238095238255" id="e_multi1_4" fill="#d95f02" stroke="black" stroke-width="0" stroke-dasharray="1,0" fill-opacity="0.5" class="multi1"></path></g><g class="group3" transform="translate(0,0)"><path d=" M 229.02380952380952 125.95238095238255 L 242.35714285714283 115.95238095238255 L 244.42857142857147 53.80952380952385 L 231.09523809523813 63.80952380952385" id="e_multi1_5" fill="#7570b3" stroke="black" stroke-width="0" stroke-dasharray="1,0" fill-opacity="0.5" class="multi1"></path></g><g class="group3" transform="translate(0,0)"><path d=" M 110 217.5 L 123.33333333333331 207.5 L 124.04761904761907 186.07142857142753 L 110.71428571428575 196.07142857142753" id="e_multi1_6" fill="#1b9e77" stroke="black" stroke-width="0" stroke-dasharray="1,0" fill-opacity="0.5" class="multi1"></path></g><g class="group3" transform="translate(0,0)"><path d=" M 110.71428571428575 196.07142857142753 L 124.04761904761907 186.07142857142753 L 124.40476190476188 175.35714285714312 L 111.07142857142856 185.35714285714312" id="e_multi1_7" fill="#d95f02" stroke="black" stroke-width="0" stroke-dasharray="1,0" fill-opacity="0.5" class="multi1"></path></g><g class="group3" transform="translate(0,0)"><path d=" M 111.07142857142856 185.35714285714312 L 124.40476190476188 175.35714285714312 L 125.11904761904756 153.92857142857247 L 111.78571428571425 163.92857142857247" id="e_multi1_8" fill="#7570b3" stroke="black" stroke-width="0" stroke-dasharray="1,0" fill-opacity="0.5" class="multi1"></path></g><g class="group3" transform="translate(0,0)"><path d=" M 160 180 L 173.33333333333331 170.0000000000009 L 174.76190476190476 127.14285714285688 L 161.42857142857142 137.1428571428578" id="e_multi1_9" fill="#1b9e77" stroke="black" stroke-width="0" stroke-dasharray="1,0" fill-opacity="0.5" class="multi1"></path></g><g class="group3" transform="translate(0,0)"><path d=" M 161.42857142857142 137.1428571428578 L 174.76190476190476 127.14285714285688 L 175.26190476190476 112.14285714285688 L 161.92857142857144 122.14285714285688" id="e_multi1_10" fill="#d95f02" stroke="black" stroke-width="0" stroke-dasharray="1,0" fill-opacity="0.5" class="multi1"></path></g><g class="group3" transform="translate(0,0)"><path d=" M 161.92857142857144 122.14285714285688 L 175.26190476190476 112.14285714285688 L 176.69047619047615 69.28571428571558 L 163.35714285714283 79.28571428571468" id="e_multi1_11" fill="#7570b3" stroke="black" stroke-width="0" stroke-dasharray="1,0" fill-opacity="0.5" class="multi1"></path></g><g class="group3" transform="translate(0,0)"><path d=" M 110 150.83333333333348 L 123.33333333333336 140.83333333333303 L 124.04761904761911 119.40476190476056 L 110.71428571428575 129.40476190476102" id="e_multi1_12" fill="#1b9e77" stroke="black" stroke-width="0" stroke-dasharray="1,0" fill-opacity="0.5" class="multi1"></path></g><g class="group3" transform="translate(0,0)"><path d=" M 110.71428571428575 129.40476190476102 L 124.04761904761911 119.40476190476056 L 124.83333333333336 95.83333333333303 L 111.5 105.83333333333348" id="e_multi1_13" fill="#d95f02" stroke="black" stroke-width="0" stroke-dasharray="1,0" fill-opacity="0.5" class="multi1"></path></g><g class="group3" transform="translate(0,0)"><path d=" M 111.5 105.83333333333348 L 124.83333333333336 95.83333333333303 L 125.54761904761911 74.40476190476056 L 112.21428571428575 84.40476190476102" id="e_multi1_14" fill="#7570b3" stroke="black" stroke-width="0" stroke-dasharray="1,0" fill-opacity="0.5" class="multi1"></path></g><g class="group3" transform="translate(0,0)"><path d=" M 60 188.33333333333326 L 73.33333333333336 178.33333333333303 L 74.40476190476191 146.1904761904766 L 61.07142857142856 156.19047619047637" id="e_multi1_15" fill="#1b9e77" stroke="black" stroke-width="0" stroke-dasharray="1,0" fill-opacity="0.5" class="multi1"></path></g><g class="group3" transform="translate(0,0)"><path d=" M 61.07142857142856 156.19047619047637 L 74.40476190476191 146.1904761904766 L 75.83333333333336 103.33333333333303 L 62.5 113.33333333333326" id="e_multi1_16" fill="#d95f02" stroke="black" stroke-width="0" stroke-dasharray="1,0" fill-opacity="0.5" class="multi1"></path></g><g class="group3" transform="translate(0,0)"><path d=" M 62.5 113.33333333333326 L 75.83333333333336 103.33333333333303 L 76.90476190476191 71.1904761904766 L 63.57142857142857 81.19047619047615" id="e_multi1_17" fill="#7570b3" stroke="black" stroke-width="0" stroke-dasharray="1,0" fill-opacity="0.5" class="multi1"></path></g><g class="group5" transform="translate(0,0)"><g class="group6" transform="translate(231.21880416884656,241.13803437554452)"><g class="text2_g"><text x="0" y="0" style="text-anchor: start; font-size: 10px; font-weight: normal; font-family: Arial;" transform="rotate(0,0,0)" dominant-baseline="middle" fill="black" class="text2">1</text></g></g><g class="group6" transform="translate(247.88547083551322,228.63803437554543)"><g class="text2_g"><text x="0" y="0" style="text-anchor: start; font-size: 10px; font-weight: normal; font-family: Arial;" transform="rotate(0,0,0)" dominant-baseline="middle" fill="black" class="text2">2</text></g></g><g class="group6" transform="translate(264.5521375021799,216.13803437554452)"><g class="text2_g"><text x="0" y="0" style="text-anchor: start; font-size: 10px; font-weight: normal; font-family: Arial;" transform="rotate(0,0,0)" dominant-baseline="middle" fill="black" class="text2">3</text></g></g><g class="group6" transform="translate(281.21880416884653,203.63803437554634)"><g class="text2_g"><text x="0" y="0" style="text-anchor: start; font-size: 10px; font-weight: normal; font-family: Arial;" transform="rotate(0,0,0)" dominant-baseline="middle" fill="black" class="text2">4</text></g></g><g class="group6" transform="translate(297.8854708355132,191.13803437554452)"><g class="text2_g"><text x="0" y="0" style="text-anchor: start; font-size: 10px; font-weight: normal; font-family: Arial;" transform="rotate(0,0,0)" dominant-baseline="middle" fill="black" class="text2">5</text></g></g></g><g class="group5" transform="translate(0,0)"><g class="group6" transform="translate(154.66666666666669,250.66666666666606)"><g class="text2_g"><text x="0" y="0" style="text-anchor: middle; font-size: 10px; font-weight: normal; font-family: Arial;" transform="rotate(0,0,0)" dominant-baseline="middle" fill="black" class="text2">1</text></g></g><g class="group6" transform="translate(121.33333333333336,242.33333333333303)"><g class="text2_g"><text x="0" y="0" style="text-anchor: middle; font-size: 10px; font-weight: normal; font-family: Arial;" transform="rotate(0,0,0)" dominant-baseline="middle" fill="black" class="text2">2</text></g></g><g class="group6" transform="translate(87.99999999999997,234)"><g class="text2_g"><text x="0" y="0" style="text-anchor: middle; font-size: 10px; font-weight: normal; font-family: Arial;" transform="rotate(0,0,0)" dominant-baseline="middle" fill="black" class="text2">3</text></g></g><g class="group6" transform="translate(54.66666666666659,225.66666666666697)"><g class="text2_g"><text x="0" y="0" style="text-anchor: middle; font-size: 10px; font-weight: normal; font-family: Arial;" transform="rotate(0,0,0)" dominant-baseline="middle" fill="black" class="text2">4</text></g></g><g class="group6" transform="translate(21.333333333333314,217.33333333333337)"><g class="text2_g"><text x="0" y="0" style="text-anchor: middle; font-size: 10px; font-weight: normal; font-family: Arial;" transform="rotate(0,0,0)" dominant-baseline="middle" fill="black" class="text2">5</text></g></g></g><g class="group5" transform="translate(0,0)"><g class="group6" transform="translate(315.2664232164656,157.20946294697205)"><g class="text2_g"><text x="0" y="0" style="text-anchor: start; font-size: 10px; font-weight: normal; font-family: Arial;" transform="rotate(0,0,0)" dominant-baseline="middle" fill="black" class="text2">10</text></g></g><g class="group6" transform="translate(315.98070893075135,135.7808915184014)"><g class="text2_g"><text x="0" y="0" style="text-anchor: start; font-size: 10px; font-weight: normal; font-family: Arial;" transform="rotate(0,0,0)" dominant-baseline="middle" fill="black" class="text2">20</text></g></g><g class="group6" transform="translate(316.69499464503707,114.35232008982894)"><g class="text2_g"><text x="0" y="0" style="text-anchor: start; font-size: 10px; font-weight: normal; font-family: Arial;" transform="rotate(0,0,0)" dominant-baseline="middle" fill="black" class="text2">30</text></g></g><g class="group6" transform="translate(317.40928035932274,92.9237486612601)"><g class="text2_g"><text x="0" y="0" style="text-anchor: start; font-size: 10px; font-weight: normal; font-family: Arial;" transform="rotate(0,0,0)" dominant-baseline="middle" fill="black" class="text2">40</text></g></g><g class="group6" transform="translate(318.12356607360846,71.49517723268764)"><g class="text2_g"><text x="0" y="0" style="text-anchor: start; font-size: 10px; font-weight: normal; font-family: Arial;" transform="rotate(0,0,0)" dominant-baseline="middle" fill="black" class="text2">50</text></g></g><g class="group6" transform="translate(318.8378517878942,50.06660580411699)"><g class="text2_g"><text x="0" y="0" style="text-anchor: start; font-size: 10px; font-weight: normal; font-family: Arial;" transform="rotate(0,0,0)" dominant-baseline="middle" fill="black" class="text2">60</text></g></g></g><g class="group7" transform="translate(0,0)"><line x1="216.66666666666666" y1="237.5" x2="219.57709416710262" y2="238.2276068751089" stroke="black" stroke-width="0.3" stroke-dasharray="1,0" class="line2"></line></g><g class="group7" transform="translate(0,0)"><line x1="233.33333333333331" y1="225" x2="236.24376083376927" y2="225.7276068751089" stroke="black" stroke-width="0.3" stroke-dasharray="1,0" class="line2"></line></g><g class="group7" transform="translate(0,0)"><line x1="250" y1="212.5" x2="252.91042750043596" y2="213.2276068751089" stroke="black" stroke-width="0.3" stroke-dasharray="1,0" class="line2"></line></g><g class="group7" transform="translate(0,0)"><line x1="266.6666666666667" y1="199.9999999999991" x2="269.57709416710264" y2="200.7276068751089" stroke="black" stroke-width="0.3" stroke-dasharray="1,0" class="line2"></line></g><g class="group7" transform="translate(0,0)"><line x1="283.3333333333333" y1="187.5" x2="286.2437608337693" y2="188.2276068751089" stroke="black" stroke-width="0.3" stroke-dasharray="1,0" class="line2"></line></g><g class="group7" transform="translate(0,0)"><line x1="166.6666666666667" y1="241.66666666666606" x2="164.26666666666665" y2="243.46666666666624" stroke="black" stroke-width="0.3" stroke-dasharray="1,0" class="line2"></line></g><g class="group7" transform="translate(0,0)"><line x1="133.33333333333337" y1="233.33333333333303" x2="130.93333333333337" y2="235.1333333333332" stroke="black" stroke-width="0.3" stroke-dasharray="1,0" class="line2"></line></g><g class="group7" transform="translate(0,0)"><line x1="100" y1="225" x2="97.60000000000001" y2="226.79999999999973" stroke="black" stroke-width="0.3" stroke-dasharray="1,0" class="line2"></line></g><g class="group7" transform="translate(0,0)"><line x1="66.66666666666663" y1="216.66666666666674" x2="64.26666666666662" y2="218.4666666666667" stroke="black" stroke-width="0.3" stroke-dasharray="1,0" class="line2"></line></g><g class="group7" transform="translate(0,0)"><line x1="33.333333333333336" y1="208.33333333333337" x2="30.93333333333334" y2="210.1333333333332" stroke="black" stroke-width="0.3" stroke-dasharray="1,0" class="line2"></line></g><g class="group7" transform="translate(0,0)"><line x1="300.7142857142857" y1="153.57142857142753" x2="303.6247132147217" y2="154.29903544653826" stroke="black" stroke-width="0.3" stroke-dasharray="1,0" class="line2"></line></g><g class="group7" transform="translate(0,0)"><line x1="301.42857142857144" y1="132.14285714285688" x2="304.3389989290074" y2="132.8704640179658" stroke="black" stroke-width="0.3" stroke-dasharray="1,0" class="line2"></line></g><g class="group7" transform="translate(0,0)"><line x1="302.14285714285717" y1="110.71428571428442" x2="305.0532846432931" y2="111.44189258939514" stroke="black" stroke-width="0.3" stroke-dasharray="1,0" class="line2"></line></g><g class="group7" transform="translate(0,0)"><line x1="302.85714285714283" y1="89.28571428571558" x2="305.7675703575788" y2="90.01332116082449" stroke="black" stroke-width="0.3" stroke-dasharray="1,0" class="line2"></line></g><g class="group7" transform="translate(0,0)"><line x1="303.57142857142856" y1="67.85714285714312" x2="306.4818560718645" y2="68.58474973225384" stroke="black" stroke-width="0.3" stroke-dasharray="1,0" class="line2"></line></g><g class="group7" transform="translate(0,0)"><line x1="304.2857142857143" y1="46.42857142857247" x2="307.19614178615024" y2="47.15617830368137" stroke="black" stroke-width="0.3" stroke-dasharray="1,0" class="line2"></line></g><g class="group9" transform="translate(0,0)"><g class="text3_g"><text x="298.5071250072663" y="224.62678125181992" style="text-anchor: middle; font-size: 12px; font-weight: normal; font-family: Arial;" transform="rotate(-36.86989764584402,298.5071250072663,224.62678125181992)" dominant-baseline="middle" fill="black" class="text3">a</text></g><line x1="200" y1="250" x2="300" y2="175" stroke="black" stroke-width="0.5" stroke-dasharray="1,0" class="line3"></line></g><g class="group9" transform="translate(0,0)"><g class="text3_g"><text x="60" y="255" style="text-anchor: middle; font-size: 12px; font-weight: normal; font-family: Arial;" transform="rotate(14.036243467926482,60,255)" dominant-baseline="middle" fill="black" class="text3">b</text></g><line x1="200" y1="250" x2="0" y2="200" stroke="black" stroke-width="0.5" stroke-dasharray="1,0" class="line3"></line></g><g class="group9" transform="translate(0,0)"><g class="text3_g"><text x="351.00712500726644" y="112.12678125181628" style="text-anchor: middle; font-size: 12px; font-weight: normal; font-family: Arial;" transform="rotate(-88.09084756700362,351.00712500726644,112.12678125181628)" dominant-baseline="middle" fill="black" class="text3">c</text></g><line x1="300" y1="175" x2="305" y2="25" stroke="black" stroke-width="0.5" stroke-dasharray="1,0" class="line3"></line></g></g></svg>
