<svg width="450" height="320" id="ngplotSvg"><g transform="translate(100,270)" class="group1"><g transform="translate(0,0)" class="bSlN2axis1"><g transform="translate(0,0)" class="bSlN2axis1_1"><line x1="0" y1="1" x2="200" y2="1" stroke="#c0c0c0" stroke-width="1" stroke-dasharray="1,0" class="bSlN2axis1_2"></line><g class="bSlN2axis1_3" transform="translate(17.64708,0)"><line x1="0" y1="0" x2="0" y2="5" stroke="#c0c0c0" stroke-width="1" stroke-dasharray="1,0" class="bSlN2axis1_4"></line><g class="bSlN2axis1_5_g"><text x="0" y="15" style="text-anchor: end; font-size: 12px; font-weight: normal; font-family: Arial; font-style: normal;" transform="rotate(-45,0,15)" dominant-baseline="auto" fill="black" class="bSlN2axis1_5">name1</text></g></g><g class="bSlN2axis1_3" transform="translate(58.82354000000001,0)"><line x1="0" y1="0" x2="0" y2="5" stroke="#c0c0c0" stroke-width="1" stroke-dasharray="1,0" class="bSlN2axis1_4"></line><g class="bSlN2axis1_5_g"><text x="0" y="15" style="text-anchor: end; font-size: 12px; font-weight: normal; font-family: Arial; font-style: normal;" transform="rotate(-45,0,15)" dominant-baseline="auto" fill="black" class="bSlN2axis1_5">name2</text></g></g><g class="bSlN2axis1_3" transform="translate(100.00000000000001,0)"><line x1="0" y1="0" x2="0" y2="5" stroke="#c0c0c0" stroke-width="1" stroke-dasharray="1,0" class="bSlN2axis1_4"></line><g class="bSlN2axis1_5_g"><text x="0" y="15" style="text-anchor: end; font-size: 12px; font-weight: normal; font-family: Arial; font-style: normal;" transform="rotate(-45,0,15)" dominant-baseline="auto" fill="black" class="bSlN2axis1_5">name3</text></g></g><g class="bSlN2axis1_3" transform="translate(141.17646000000002,0)"><line x1="0" y1="0" x2="0" y2="5" stroke="#c0c0c0" stroke-width="1" stroke-dasharray="1,0" class="bSlN2axis1_4"></line><g class="bSlN2axis1_5_g"><text x="0" y="15" style="text-anchor: end; font-size: 12px; font-weight: normal; font-family: Arial; font-style: normal;" transform="rotate(-45,0,15)" dominant-baseline="auto" fill="black" class="bSlN2axis1_5">name4</text></g></g><g class="bSlN2axis1_3" transform="translate(182.35292000000004,0)"><line x1="0" y1="0" x2="0" y2="5" stroke="#c0c0c0" stroke-width="1" stroke-dasharray="1,0" class="bSlN2axis1_4"></line><g class="bSlN2axis1_5_g"><text x="0" y="15" style="text-anchor: end; font-size: 12px; font-weight: normal; font-family: Arial; font-style: normal;" transform="rotate(-45,0,15)" dominant-baseline="auto" fill="black" class="bSlN2axis1_5">name5</text></g></g></g><g transform="translate(0,0)" class="bSlN2axis1_6"><line x1="0" y1="0" x2="0" y2="-220" stroke="#c0c0c0" stroke-width="1" stroke-dasharray="1,0" class="bSlN2axis1_7"></line><g class="bSlN2axis1_8" transform="translate(0,-2)"><line x1="0" y1="0" x2="-5" y2="0" stroke="#c0c0c0" stroke-width="1" stroke-dasharray="1,0" class="bSlN2axis1_9"></line><g class="bSlN2axis1_10_g"><text x="-10" y="3" style="text-anchor: end; font-size: 12px; font-weight: normal; font-family: Arial; font-style: normal;" transform="rotate(0,-10,3)" dominant-baseline="auto" fill="black" class="bSlN2axis1_10">0</text></g></g><g class="bSlN2axis1_8" transform="translate(0,-38.2962962962963)"><line x1="0" y1="0" x2="-5" y2="0" stroke="#c0c0c0" stroke-width="1" stroke-dasharray="1,0" class="bSlN2axis1_9"></line><g class="bSlN2axis1_10_g"><text x="-10" y="3" style="text-anchor: end; font-size: 12px; font-weight: normal; font-family: Arial; font-style: normal;" transform="rotate(0,-10,3)" dominant-baseline="auto" fill="black" class="bSlN2axis1_10">100</text></g></g><g class="bSlN2axis1_8" transform="translate(0,-74.5925925925926)"><line x1="0" y1="0" x2="-5" y2="0" stroke="#c0c0c0" stroke-width="1" stroke-dasharray="1,0" class="bSlN2axis1_9"></line><g class="bSlN2axis1_10_g"><text x="-10" y="3" style="text-anchor: end; font-size: 12px; font-weight: normal; font-family: Arial; font-style: normal;" transform="rotate(0,-10,3)" dominant-baseline="auto" fill="black" class="bSlN2axis1_10">200</text></g></g><g class="bSlN2axis1_8" transform="translate(0,-110.88888888888889)"><line x1="0" y1="0" x2="-5" y2="0" stroke="#c0c0c0" stroke-width="1" stroke-dasharray="1,0" class="bSlN2axis1_9"></line><g class="bSlN2axis1_10_g"><text x="-10" y="3" style="text-anchor: end; font-size: 12px; font-weight: normal; font-family: Arial; font-style: normal;" transform="rotate(0,-10,3)" dominant-baseline="auto" fill="black" class="bSlN2axis1_10">300</text></g></g><g class="bSlN2axis1_8" transform="translate(0,-128.14814814814815)"><line x1="0" y1="0" x2="-5" y2="0" stroke="#c0c0c0" stroke-width="1" stroke-dasharray="1,0" class="bSlN2axis1_9"></line><g class="bSlN2axis1_10_g"><text x="-10" y="3" style="text-anchor: end; font-size: 12px; font-weight: normal; font-family: Arial; font-style: normal;" transform="rotate(0,-10,3)" dominant-baseline="auto" fill="black" class="bSlN2axis1_10">800</text></g></g><g class="bSlN2axis1_8" transform="translate(0,-164.44444444444446)"><line x1="0" y1="0" x2="-5" y2="0" stroke="#c0c0c0" stroke-width="1" stroke-dasharray="1,0" class="bSlN2axis1_9"></line><g class="bSlN2axis1_10_g"><text x="-10" y="3" style="text-anchor: end; font-size: 12px; font-weight: normal; font-family: Arial; font-style: normal;" transform="rotate(0,-10,3)" dominant-baseline="auto" fill="black" class="bSlN2axis1_10">900</text></g></g><g class="bSlN2axis1_8" transform="translate(0,-181.7037037037037)"><line x1="0" y1="0" x2="-5" y2="0" stroke="#c0c0c0" stroke-width="1" stroke-dasharray="1,0" class="bSlN2axis1_9"></line><g class="bSlN2axis1_10_g"><text x="-10" y="3" style="text-anchor: end; font-size: 12px; font-weight: normal; font-family: Arial; font-style: normal;" transform="rotate(0,-10,3)" dominant-baseline="auto" fill="black" class="bSlN2axis1_10">1900</text></g></g><g class="bSlN2axis1_8" transform="translate(0,-218)"><line x1="0" y1="0" x2="-5" y2="0" stroke="#c0c0c0" stroke-width="1" stroke-dasharray="1,0" class="bSlN2axis1_9"></line><g class="bSlN2axis1_10_g"><text x="-10" y="3" style="text-anchor: end; font-size: 12px; font-weight: normal; font-family: Arial; font-style: normal;" transform="rotate(0,-10,3)" dominant-baseline="auto" fill="black" class="bSlN2axis1_10">2000</text></g></g><g class="text3_g"><text x="-50" y="-110" style="text-anchor: middle; font-size: 12px; font-weight: normal; font-family: Arial; font-style: normal;" transform="rotate(-90,-50,-110)" dominant-baseline="auto" fill="black" class="text3"></text></g></g><g transform="translate(0,0)" class="stakbarV1"><g class="stakbarV1_1" transform="translate(0,0)"><g transform="translate(17.64708,-35.75555555555556)" class="stakbarV1_2"><rect x="-14.7059" y="0" width="29.4118" height="33.75555555555556" rx="0" ry="0" fill="#e54b34" stroke="white" stroke-width="0" fill-opacity="1" class="stakbarV1_3"></rect><g class="text1_g"><text x="0" y="16.87777777777778" style="text-anchor: middle; font-size: 8px; font-weight: normal; font-family: Arial; font-style: normal;" transform="rotate(0,0,16.87777777777778)" dominant-baseline="auto" fill="black" class="text1">0.05</text></g><g class="text2_g"><text x="0" y="26.87777777777778" style="text-anchor: middle; font-size: 8px; font-weight: normal; font-family: Arial; font-style: normal;" transform="rotate(0,0,26.87777777777778)" dominant-baseline="auto" fill="black" class="text2">(93)</text></g></g></g><g class="stakbarV1_1" transform="translate(0,0)"><g transform="translate(17.64708,-71.68888888888888)" class="stakbarV1_2"><rect x="-14.7059" y="0" width="29.4118" height="35.93333333333332" rx="0" ry="0" fill="#4cbad4" stroke="white" stroke-width="0" fill-opacity="1" class="stakbarV1_3"></rect><g class="text1_g"><text x="0" y="17.96666666666666" style="text-anchor: middle; font-size: 8px; font-weight: normal; font-family: Arial; font-style: normal;" transform="rotate(0,0,17.96666666666666)" dominant-baseline="auto" fill="black" class="text1">0.05</text></g><g class="text2_g"><text x="0" y="27.96666666666666" style="text-anchor: middle; font-size: 8px; font-weight: normal; font-family: Arial; font-style: normal;" transform="rotate(0,0,27.96666666666666)" dominant-baseline="auto" fill="black" class="text2">(99)</text></g></g></g><g class="stakbarV1_1" transform="translate(0,0)"><g transform="translate(17.64708,-207.83703703703705)" class="stakbarV1_2"><rect x="-14.7059" y="0" width="29.4118" height="136.14814814814815" rx="0" ry="0" fill="#009f86" stroke="white" stroke-width="0" fill-opacity="1" class="stakbarV1_3"></rect><g class="text1_g"><text x="0" y="68.07407407407408" style="text-anchor: middle; font-size: 8px; font-weight: normal; font-family: Arial; font-style: normal;" transform="rotate(0,0,68.07407407407408)" dominant-baseline="auto" fill="black" class="text1">0.90</text></g><g class="text2_g"><text x="0" y="78.07407407407408" style="text-anchor: middle; font-size: 8px; font-weight: normal; font-family: Arial; font-style: normal;" transform="rotate(0,0,78.07407407407408)" dominant-baseline="auto" fill="black" class="text2">(1780)</text></g></g></g><g class="stakbarV1_1" transform="translate(0,0)"><g transform="translate(58.82354000000001,-37.2074074074074)" class="stakbarV1_2"><rect x="-14.7059" y="0" width="29.4118" height="35.2074074074074" rx="0" ry="0" fill="#e54b34" stroke="white" stroke-width="0" fill-opacity="1" class="stakbarV1_3"></rect><g class="text1_g"><text x="0" y="17.6037037037037" style="text-anchor: middle; font-size: 8px; font-weight: normal; font-family: Arial; font-style: normal;" transform="rotate(0,0,17.6037037037037)" dominant-baseline="auto" fill="black" class="text1">0.35</text></g><g class="text2_g"><text x="0" y="27.6037037037037" style="text-anchor: middle; font-size: 8px; font-weight: normal; font-family: Arial; font-style: normal;" transform="rotate(0,0,27.6037037037037)" dominant-baseline="auto" fill="black" class="text2">(97)</text></g></g></g><g class="stakbarV1_1" transform="translate(0,0)"><g transform="translate(58.82354000000001,-70.6)" class="stakbarV1_2"><rect x="-14.7059" y="0" width="29.4118" height="33.39259259259259" rx="0" ry="0" fill="#4cbad4" stroke="white" stroke-width="0" fill-opacity="1" class="stakbarV1_3"></rect><g class="text1_g"><text x="0" y="16.696296296296296" style="text-anchor: middle; font-size: 8px; font-weight: normal; font-family: Arial; font-style: normal;" transform="rotate(0,0,16.696296296296296)" dominant-baseline="auto" fill="black" class="text1">0.33</text></g><g class="text2_g"><text x="0" y="26.696296296296296" style="text-anchor: middle; font-size: 8px; font-weight: normal; font-family: Arial; font-style: normal;" transform="rotate(0,0,26.696296296296296)" dominant-baseline="auto" fill="black" class="text2">(92)</text></g></g></g><g class="stakbarV1_1" transform="translate(0,0)"><g transform="translate(58.82354000000001,-101.81481481481482)" class="stakbarV1_2"><rect x="-14.7059" y="0" width="29.4118" height="31.21481481481483" rx="0" ry="0" fill="#009f86" stroke="white" stroke-width="0" fill-opacity="1" class="stakbarV1_3"></rect><g class="text1_g"><text x="0" y="15.607407407407415" style="text-anchor: middle; font-size: 8px; font-weight: normal; font-family: Arial; font-style: normal;" transform="rotate(0,0,15.607407407407415)" dominant-baseline="auto" fill="black" class="text1">0.31</text></g><g class="text2_g"><text x="0" y="25.607407407407415" style="text-anchor: middle; font-size: 8px; font-weight: normal; font-family: Arial; font-style: normal;" transform="rotate(0,0,25.607407407407415)" dominant-baseline="auto" fill="black" class="text2">(86)</text></g></g></g><g class="stakbarV1_1" transform="translate(0,0)"><g transform="translate(100.00000000000001,-39.38518518518519)" class="stakbarV1_2"><rect x="-14.7059" y="0" width="29.4118" height="37.38518518518519" rx="0" ry="0" fill="#e54b34" stroke="white" stroke-width="0" fill-opacity="1" class="stakbarV1_3"></rect><g class="text1_g"><text x="0" y="18.692592592592597" style="text-anchor: middle; font-size: 8px; font-weight: normal; font-family: Arial; font-style: normal;" transform="rotate(0,0,18.692592592592597)" dominant-baseline="auto" fill="black" class="text1">0.36</text></g><g class="text2_g"><text x="0" y="28.692592592592597" style="text-anchor: middle; font-size: 8px; font-weight: normal; font-family: Arial; font-style: normal;" transform="rotate(0,0,28.692592592592597)" dominant-baseline="auto" fill="black" class="text2">(103)</text></g></g></g><g class="stakbarV1_1" transform="translate(0,0)"><g transform="translate(100.00000000000001,-76.4074074074074)" class="stakbarV1_2"><rect x="-14.7059" y="0" width="29.4118" height="37.02222222222221" rx="0" ry="0" fill="#4cbad4" stroke="white" stroke-width="0" fill-opacity="1" class="stakbarV1_3"></rect><g class="text1_g"><text x="0" y="18.511111111111106" style="text-anchor: middle; font-size: 8px; font-weight: normal; font-family: Arial; font-style: normal;" transform="rotate(0,0,18.511111111111106)" dominant-baseline="auto" fill="black" class="text1">0.36</text></g><g class="text2_g"><text x="0" y="28.511111111111106" style="text-anchor: middle; font-size: 8px; font-weight: normal; font-family: Arial; font-style: normal;" transform="rotate(0,0,28.511111111111106)" dominant-baseline="auto" fill="black" class="text2">(102)</text></g></g></g><g class="stakbarV1_1" transform="translate(0,0)"><g transform="translate(100.00000000000001,-105.44444444444444)" class="stakbarV1_2"><rect x="-14.7059" y="0" width="29.4118" height="29.037037037037038" rx="0" ry="0" fill="#009f86" stroke="white" stroke-width="0" fill-opacity="1" class="stakbarV1_3"></rect><g class="text1_g"><text x="0" y="14.518518518518519" style="text-anchor: middle; font-size: 8px; font-weight: normal; font-family: Arial; font-style: normal;" transform="rotate(0,0,14.518518518518519)" dominant-baseline="auto" fill="black" class="text1">0.28</text></g><g class="text2_g"><text x="0" y="24.51851851851852" style="text-anchor: middle; font-size: 8px; font-weight: normal; font-family: Arial; font-style: normal;" transform="rotate(0,0,24.51851851851852)" dominant-baseline="auto" fill="black" class="text2">(80)</text></g></g></g><g class="stakbarV1_1" transform="translate(0,0)"><g transform="translate(141.17646000000002,-20.14814814814815)" class="stakbarV1_2"><rect x="-14.7059" y="0" width="29.4118" height="18.14814814814815" rx="0" ry="0" fill="#e54b34" stroke="white" stroke-width="0" fill-opacity="1" class="stakbarV1_3"></rect><g class="text1_g"><text x="0" y="9.074074074074074" style="text-anchor: middle; font-size: 8px; font-weight: normal; font-family: Arial; font-style: normal;" transform="rotate(0,0,9.074074074074074)" dominant-baseline="auto" fill="black" class="text1">0.06</text></g><g class="text2_g"><text x="0" y="19.074074074074076" style="text-anchor: middle; font-size: 8px; font-weight: normal; font-family: Arial; font-style: normal;" transform="rotate(0,0,19.074074074074076)" dominant-baseline="auto" fill="black" class="text2">(50)</text></g></g></g><g class="stakbarV1_1" transform="translate(0,0)"><g transform="translate(141.17646000000002,-51.36296296296296)" class="stakbarV1_2"><rect x="-14.7059" y="0" width="29.4118" height="31.21481481481481" rx="0" ry="0" fill="#4cbad4" stroke="white" stroke-width="0" fill-opacity="1" class="stakbarV1_3"></rect><g class="text1_g"><text x="0" y="15.607407407407406" style="text-anchor: middle; font-size: 8px; font-weight: normal; font-family: Arial; font-style: normal;" transform="rotate(0,0,15.607407407407406)" dominant-baseline="auto" fill="black" class="text1">0.10</text></g><g class="text2_g"><text x="0" y="25.607407407407408" style="text-anchor: middle; font-size: 8px; font-weight: normal; font-family: Arial; font-style: normal;" transform="rotate(0,0,25.607407407407408)" dominant-baseline="auto" fill="black" class="text2">(86)</text></g></g></g><g class="stakbarV1_1" transform="translate(0,0)"><g transform="translate(141.17646000000002,-161.54074074074074)" class="stakbarV1_2"><rect x="-14.7059" y="0" width="29.4118" height="110.17777777777778" rx="0" ry="0" fill="#009f86" stroke="white" stroke-width="0" fill-opacity="1" class="stakbarV1_3"></rect><g class="text1_g"><text x="0" y="55.08888888888889" style="text-anchor: middle; font-size: 8px; font-weight: normal; font-family: Arial; font-style: normal;" transform="rotate(0,0,55.08888888888889)" dominant-baseline="auto" fill="black" class="text1">0.85</text></g><g class="text2_g"><text x="0" y="65.08888888888889" style="text-anchor: middle; font-size: 8px; font-weight: normal; font-family: Arial; font-style: normal;" transform="rotate(0,0,65.08888888888889)" dominant-baseline="auto" fill="black" class="text2">(756)</text></g></g></g><g class="stakbarV1_1" transform="translate(0,0)"><g transform="translate(182.35292000000004,-32.125925925925934)" class="stakbarV1_2"><rect x="-14.7059" y="0" width="29.4118" height="30.125925925925934" rx="0" ry="0" fill="#e54b34" stroke="white" stroke-width="0" fill-opacity="1" class="stakbarV1_3"></rect><g class="text1_g"><text x="0" y="15.062962962962967" style="text-anchor: middle; font-size: 8px; font-weight: normal; font-family: Arial; font-style: normal;" transform="rotate(0,0,15.062962962962967)" dominant-baseline="auto" fill="black" class="text1">0.31</text></g><g class="text2_g"><text x="0" y="25.062962962962967" style="text-anchor: middle; font-size: 8px; font-weight: normal; font-family: Arial; font-style: normal;" transform="rotate(0,0,25.062962962962967)" dominant-baseline="auto" fill="black" class="text2">(83)</text></g></g></g><g class="stakbarV1_1" transform="translate(0,0)"><g transform="translate(182.35292000000004,-70.23703703703704)" class="stakbarV1_2"><rect x="-14.7059" y="0" width="29.4118" height="38.11111111111111" rx="0" ry="0" fill="#4cbad4" stroke="white" stroke-width="0" fill-opacity="1" class="stakbarV1_3"></rect><g class="text1_g"><text x="0" y="19.055555555555554" style="text-anchor: middle; font-size: 8px; font-weight: normal; font-family: Arial; font-style: normal;" transform="rotate(0,0,19.055555555555554)" dominant-baseline="auto" fill="black" class="text1">0.39</text></g><g class="text2_g"><text x="0" y="29.055555555555554" style="text-anchor: middle; font-size: 8px; font-weight: normal; font-family: Arial; font-style: normal;" transform="rotate(0,0,29.055555555555554)" dominant-baseline="auto" fill="black" class="text2">(105)</text></g></g></g><g class="stakbarV1_1" transform="translate(0,0)"><g transform="translate(182.35292000000004,-100.72592592592592)" class="stakbarV1_2"><rect x="-14.7059" y="0" width="29.4118" height="30.48888888888888" rx="0" ry="0" fill="#009f86" stroke="white" stroke-width="0" fill-opacity="1" class="stakbarV1_3"></rect><g class="text1_g"><text x="0" y="15.24444444444444" style="text-anchor: middle; font-size: 8px; font-weight: normal; font-family: Arial; font-style: normal;" transform="rotate(0,0,15.24444444444444)" dominant-baseline="auto" fill="black" class="text1">0.31</text></g><g class="text2_g"><text x="0" y="25.24444444444444" style="text-anchor: middle; font-size: 8px; font-weight: normal; font-family: Arial; font-style: normal;" transform="rotate(0,0,25.24444444444444)" dominant-baseline="auto" fill="black" class="text2">(84)</text></g></g></g></g><g class="group5" transform="translate(0,-123.14814814814815)"><rect x="-5" y="-1" width="210" height="8" rx="0" ry="0" fill="white" stroke="black" stroke-width="0" fill-opacity="1" class="rect1"></rect></g><g class="group5" transform="translate(0,-176.7037037037037)"><rect x="-5" y="-1" width="210" height="8" rx="0" ry="0" fill="white" stroke="black" stroke-width="0" fill-opacity="1" class="rect1"></rect></g><g transform="translate(210,-220)" class="legend1"><g class="legend1_1_g"><text x="0" y="-10" style="text-anchor: start; font-size: 12px; font-weight: normal; font-family: Arial; font-style: normal;" transform="rotate(0,0,-10)" dominant-baseline="auto" fill="black" class="legend1_1"></text></g><g class="legend1_2" transform="translate(0,0)"><rect x="0" y="0" width="10" height="10" rx="0" ry="0" fill="#e54b34" stroke="" stroke-width="" fill-opacity="1" class="legend1_3"></rect><g class="legend1_4_g"><text x="12" y="5" style="text-anchor: start; font-size: 12px; font-weight: normal; font-family: Arial; font-style: normal;" transform="rotate(0,12,5)" dominant-baseline="middle" fill="black" class="legend1_4">Math</text></g></g><g class="legend1_2" transform="translate(0,18)"><rect x="0" y="0" width="10" height="10" rx="0" ry="0" fill="#4cbad4" stroke="" stroke-width="" fill-opacity="1" class="legend1_3"></rect><g class="legend1_4_g"><text x="12" y="5" style="text-anchor: start; font-size: 12px; font-weight: normal; font-family: Arial; font-style: normal;" transform="rotate(0,12,5)" dominant-baseline="middle" fill="black" class="legend1_4">English</text></g></g><g class="legend1_2" transform="translate(0,36)"><rect x="0" y="0" width="10" height="10" rx="0" ry="0" fill="#009f86" stroke="" stroke-width="" fill-opacity="1" class="legend1_3"></rect><g class="legend1_4_g"><text x="12" y="5" style="text-anchor: start; font-size: 12px; font-weight: normal; font-family: Arial; font-style: normal;" transform="rotate(0,12,5)" dominant-baseline="middle" fill="black" class="legend1_4">Physics</text></g></g></g><g class="group2" transform="translate(0,0)"><path d=" M 32.35298 -2 L 32.35298 -35.75555555555556 L 44.11764000000001 -37.2074074074074 L 44.11764000000001 -2" id="e_multi1_0" fill="#e54b34" stroke="white" stroke-width="1" stroke-dasharray="1,0" fill-opacity="0.4" class="multi1"></path></g><g class="group2" transform="translate(0,0)"><path d=" M 32.35298 -35.75555555555556 L 32.35298 -71.68888888888888 L 44.11764000000001 -70.6 L 44.11764000000001 -37.2074074074074" id="e_multi1_1" fill="#4cbad4" stroke="white" stroke-width="1" stroke-dasharray="1,0" fill-opacity="0.4" class="multi1"></path></g><g class="group2" transform="translate(0,0)"><path d=" M 32.35298 -71.68888888888888 L 32.35298 -207.83703703703705 L 44.11764000000001 -101.81481481481482 L 44.11764000000001 -70.6" id="e_multi1_2" fill="#009f86" stroke="white" stroke-width="1" stroke-dasharray="1,0" fill-opacity="0.4" class="multi1"></path></g><g class="group2" transform="translate(0,0)"><path d=" M 73.52944000000001 -2 L 73.52944000000001 -37.2074074074074 L 85.29410000000001 -39.38518518518519 L 85.29410000000001 -2" id="e_multi1_3" fill="#e54b34" stroke="white" stroke-width="1" stroke-dasharray="1,0" fill-opacity="0.4" class="multi1"></path></g><g class="group2" transform="translate(0,0)"><path d=" M 73.52944000000001 -37.2074074074074 L 73.52944000000001 -70.6 L 85.29410000000001 -76.4074074074074 L 85.29410000000001 -39.38518518518519" id="e_multi1_4" fill="#4cbad4" stroke="white" stroke-width="1" stroke-dasharray="1,0" fill-opacity="0.4" class="multi1"></path></g><g class="group2" transform="translate(0,0)"><path d=" M 73.52944000000001 -70.6 L 73.52944000000001 -101.81481481481482 L 85.29410000000001 -105.44444444444444 L 85.29410000000001 -76.4074074074074" id="e_multi1_5" fill="#009f86" stroke="white" stroke-width="1" stroke-dasharray="1,0" fill-opacity="0.4" class="multi1"></path></g><g class="group2" transform="translate(0,0)"><path d=" M 114.70590000000001 -2 L 114.70590000000001 -39.38518518518519 L 126.47056000000002 -20.14814814814815 L 126.47056000000002 -2" id="e_multi1_6" fill="#e54b34" stroke="white" stroke-width="1" stroke-dasharray="1,0" fill-opacity="0.4" class="multi1"></path></g><g class="group2" transform="translate(0,0)"><path d=" M 114.70590000000001 -39.38518518518519 L 114.70590000000001 -76.4074074074074 L 126.47056000000002 -51.36296296296296 L 126.47056000000002 -20.14814814814815" id="e_multi1_7" fill="#4cbad4" stroke="white" stroke-width="1" stroke-dasharray="1,0" fill-opacity="0.4" class="multi1"></path></g><g class="group2" transform="translate(0,0)"><path d=" M 114.70590000000001 -76.4074074074074 L 114.70590000000001 -105.44444444444444 L 126.47056000000002 -161.54074074074074 L 126.47056000000002 -51.36296296296296" id="e_multi1_8" fill="#009f86" stroke="white" stroke-width="1" stroke-dasharray="1,0" fill-opacity="0.4" class="multi1"></path></g><g class="group2" transform="translate(0,0)"><path d=" M 155.88236 -2 L 155.88236 -20.14814814814815 L 167.64702000000005 -32.125925925925934 L 167.64702000000005 -2" id="e_multi1_9" fill="#e54b34" stroke="white" stroke-width="1" stroke-dasharray="1,0" fill-opacity="0.4" class="multi1"></path></g><g class="group2" transform="translate(0,0)"><path d=" M 155.88236 -20.14814814814815 L 155.88236 -51.36296296296296 L 167.64702000000005 -70.23703703703704 L 167.64702000000005 -32.125925925925934" id="e_multi1_10" fill="#4cbad4" stroke="white" stroke-width="1" stroke-dasharray="1,0" fill-opacity="0.4" class="multi1"></path></g><g class="group2" transform="translate(0,0)"><path d=" M 155.88236 -51.36296296296296 L 155.88236 -161.54074074074074 L 167.64702000000005 -100.72592592592592 L 167.64702000000005 -70.23703703703704" id="e_multi1_11" fill="#009f86" stroke="white" stroke-width="1" stroke-dasharray="1,0" fill-opacity="0.4" class="multi1"></path></g><g class="group6" transform="translate(17.64708,0)"><g class="text4_g"><text x="0" y="-209.83703703703705" style="text-anchor: middle; font-size: 10px; font-weight: normal; font-family: Arial; font-style: normal;" transform="rotate(0,0,-209.83703703703705)" dominant-baseline="auto" fill="black" class="text4">1972</text></g></g><g class="group6" transform="translate(58.82354000000001,0)"><g class="text4_g"><text x="0" y="-103.81481481481482" style="text-anchor: middle; font-size: 10px; font-weight: normal; font-family: Arial; font-style: normal;" transform="rotate(0,0,-103.81481481481482)" dominant-baseline="auto" fill="black" class="text4">275</text></g></g><g class="group6" transform="translate(100.00000000000001,0)"><g class="text4_g"><text x="0" y="-107.44444444444444" style="text-anchor: middle; font-size: 10px; font-weight: normal; font-family: Arial; font-style: normal;" transform="rotate(0,0,-107.44444444444444)" dominant-baseline="auto" fill="black" class="text4">285</text></g></g><g class="group6" transform="translate(141.17646000000002,0)"><g class="text4_g"><text x="0" y="-163.54074074074074" style="text-anchor: middle; font-size: 10px; font-weight: normal; font-family: Arial; font-style: normal;" transform="rotate(0,0,-163.54074074074074)" dominant-baseline="auto" fill="black" class="text4">892</text></g></g><g class="group6" transform="translate(182.35292000000004,0)"><g class="text4_g"><text x="0" y="-102.72592592592592" style="text-anchor: middle; font-size: 10px; font-weight: normal; font-family: Arial; font-style: normal;" transform="rotate(0,0,-102.72592592592592)" dominant-baseline="auto" fill="black" class="text4">272</text></g></g><g transform="translate(0,0)" class="group7"><line x1="0" y1="-220" x2="200" y2="-220" stroke="#c0c0c0" stroke-width="1" stroke-dasharray="1,0" class="line_h1"></line><line x1="200" y1="0" x2="200" y2="-220" stroke="#c0c0c0" stroke-width="1" stroke-dasharray="1,0" class="line_v1"></line></g></g></g></svg>
