<svg width="550" height="450" id="ngplotSvg"><g transform="translate(100,284)" class="group1"><g transform="translate(0,0)" class="bSlN2axis1"><g transform="translate(0,0)" class="bSlN2axis1_1"><line x1="0" y1="0" x2="300" y2="0" stroke="black" stroke-width="1" stroke-dasharray="1,0" class="bSlN2axis1_2"></line><g class="bSlN2axis1_3" transform="translate(5.625,0)"><line x1="0" y1="0" x2="0" y2="5" stroke="black" stroke-width="1" stroke-dasharray="1,0" class="bSlN2axis1_4"></line><g class="bSlN2axis1_5_g"><text x="3" y="10" style="text-anchor: end; font-size: 10px; font-weight: normal; font-family: Arial;" transform="rotate(-90,3,10)" dominant-baseline="middle" fill="black" class="bSlN2axis1_5">1</text></g></g><g class="bSlN2axis1_3" transform="translate(18.75,0)"><line x1="0" y1="0" x2="0" y2="5" stroke="black" stroke-width="1" stroke-dasharray="1,0" class="bSlN2axis1_4"></line><g class="bSlN2axis1_5_g"><text x="3" y="10" style="text-anchor: end; font-size: 10px; font-weight: normal; font-family: Arial;" transform="rotate(-90,3,10)" dominant-baseline="middle" fill="black" class="bSlN2axis1_5">2</text></g></g><g class="bSlN2axis1_3" transform="translate(31.875,0)"><line x1="0" y1="0" x2="0" y2="5" stroke="black" stroke-width="1" stroke-dasharray="1,0" class="bSlN2axis1_4"></line><g class="bSlN2axis1_5_g"><text x="3" y="10" style="text-anchor: end; font-size: 10px; font-weight: normal; font-family: Arial;" transform="rotate(-90,3,10)" dominant-baseline="middle" fill="black" class="bSlN2axis1_5">3</text></g></g><g class="bSlN2axis1_3" transform="translate(45,0)"><line x1="0" y1="0" x2="0" y2="5" stroke="black" stroke-width="1" stroke-dasharray="1,0" class="bSlN2axis1_4"></line><g class="bSlN2axis1_5_g"><text x="3" y="10" style="text-anchor: end; font-size: 10px; font-weight: normal; font-family: Arial;" transform="rotate(-90,3,10)" dominant-baseline="middle" fill="black" class="bSlN2axis1_5">4</text></g></g><g class="bSlN2axis1_3" transform="translate(58.125,0)"><line x1="0" y1="0" x2="0" y2="5" stroke="black" stroke-width="1" stroke-dasharray="1,0" class="bSlN2axis1_4"></line><g class="bSlN2axis1_5_g"><text x="3" y="10" style="text-anchor: end; font-size: 10px; font-weight: normal; font-family: Arial;" transform="rotate(-90,3,10)" dominant-baseline="middle" fill="black" class="bSlN2axis1_5">5</text></g></g><g class="bSlN2axis1_3" transform="translate(71.25,0)"><line x1="0" y1="0" x2="0" y2="5" stroke="black" stroke-width="1" stroke-dasharray="1,0" class="bSlN2axis1_4"></line><g class="bSlN2axis1_5_g"><text x="3" y="10" style="text-anchor: end; font-size: 10px; font-weight: normal; font-family: Arial;" transform="rotate(-90,3,10)" dominant-baseline="middle" fill="black" class="bSlN2axis1_5">6</text></g></g><g class="bSlN2axis1_3" transform="translate(84.375,0)"><line x1="0" y1="0" x2="0" y2="5" stroke="black" stroke-width="1" stroke-dasharray="1,0" class="bSlN2axis1_4"></line><g class="bSlN2axis1_5_g"><text x="3" y="10" style="text-anchor: end; font-size: 10px; font-weight: normal; font-family: Arial;" transform="rotate(-90,3,10)" dominant-baseline="middle" fill="black" class="bSlN2axis1_5">7</text></g></g><g class="bSlN2axis1_3" transform="translate(97.5,0)"><line x1="0" y1="0" x2="0" y2="5" stroke="black" stroke-width="1" stroke-dasharray="1,0" class="bSlN2axis1_4"></line><g class="bSlN2axis1_5_g"><text x="3" y="10" style="text-anchor: end; font-size: 10px; font-weight: normal; font-family: Arial;" transform="rotate(-90,3,10)" dominant-baseline="middle" fill="black" class="bSlN2axis1_5">8</text></g></g><g class="bSlN2axis1_3" transform="translate(110.625,0)"><line x1="0" y1="0" x2="0" y2="5" stroke="black" stroke-width="1" stroke-dasharray="1,0" class="bSlN2axis1_4"></line><g class="bSlN2axis1_5_g"><text x="3" y="10" style="text-anchor: end; font-size: 10px; font-weight: normal; font-family: Arial;" transform="rotate(-90,3,10)" dominant-baseline="middle" fill="black" class="bSlN2axis1_5">9</text></g></g><g class="bSlN2axis1_3" transform="translate(123.75,0)"><line x1="0" y1="0" x2="0" y2="5" stroke="black" stroke-width="1" stroke-dasharray="1,0" class="bSlN2axis1_4"></line><g class="bSlN2axis1_5_g"><text x="3" y="10" style="text-anchor: end; font-size: 10px; font-weight: normal; font-family: Arial;" transform="rotate(-90,3,10)" dominant-baseline="middle" fill="black" class="bSlN2axis1_5">10</text></g></g><g class="bSlN2axis1_3" transform="translate(136.875,0)"><line x1="0" y1="0" x2="0" y2="5" stroke="black" stroke-width="1" stroke-dasharray="1,0" class="bSlN2axis1_4"></line><g class="bSlN2axis1_5_g"><text x="3" y="10" style="text-anchor: end; font-size: 10px; font-weight: normal; font-family: Arial;" transform="rotate(-90,3,10)" dominant-baseline="middle" fill="black" class="bSlN2axis1_5">11</text></g></g><g class="bSlN2axis1_3" transform="translate(150,0)"><line x1="0" y1="0" x2="0" y2="5" stroke="black" stroke-width="1" stroke-dasharray="1,0" class="bSlN2axis1_4"></line><g class="bSlN2axis1_5_g"><text x="3" y="10" style="text-anchor: end; font-size: 10px; font-weight: normal; font-family: Arial;" transform="rotate(-90,3,10)" dominant-baseline="middle" fill="black" class="bSlN2axis1_5">12</text></g></g><g class="bSlN2axis1_3" transform="translate(163.125,0)"><line x1="0" y1="0" x2="0" y2="5" stroke="black" stroke-width="1" stroke-dasharray="1,0" class="bSlN2axis1_4"></line><g class="bSlN2axis1_5_g"><text x="3" y="10" style="text-anchor: end; font-size: 10px; font-weight: normal; font-family: Arial;" transform="rotate(-90,3,10)" dominant-baseline="middle" fill="black" class="bSlN2axis1_5">13</text></g></g><g class="bSlN2axis1_3" transform="translate(176.25,0)"><line x1="0" y1="0" x2="0" y2="5" stroke="black" stroke-width="1" stroke-dasharray="1,0" class="bSlN2axis1_4"></line><g class="bSlN2axis1_5_g"><text x="3" y="10" style="text-anchor: end; font-size: 10px; font-weight: normal; font-family: Arial;" transform="rotate(-90,3,10)" dominant-baseline="middle" fill="black" class="bSlN2axis1_5">14</text></g></g><g class="bSlN2axis1_3" transform="translate(189.375,0)"><line x1="0" y1="0" x2="0" y2="5" stroke="black" stroke-width="1" stroke-dasharray="1,0" class="bSlN2axis1_4"></line><g class="bSlN2axis1_5_g"><text x="3" y="10" style="text-anchor: end; font-size: 10px; font-weight: normal; font-family: Arial;" transform="rotate(-90,3,10)" dominant-baseline="middle" fill="black" class="bSlN2axis1_5">15</text></g></g><g class="bSlN2axis1_3" transform="translate(202.5,0)"><line x1="0" y1="0" x2="0" y2="5" stroke="black" stroke-width="1" stroke-dasharray="1,0" class="bSlN2axis1_4"></line><g class="bSlN2axis1_5_g"><text x="3" y="10" style="text-anchor: end; font-size: 10px; font-weight: normal; font-family: Arial;" transform="rotate(-90,3,10)" dominant-baseline="middle" fill="black" class="bSlN2axis1_5">16</text></g></g><g class="bSlN2axis1_3" transform="translate(215.625,0)"><line x1="0" y1="0" x2="0" y2="5" stroke="black" stroke-width="1" stroke-dasharray="1,0" class="bSlN2axis1_4"></line><g class="bSlN2axis1_5_g"><text x="3" y="10" style="text-anchor: end; font-size: 10px; font-weight: normal; font-family: Arial;" transform="rotate(-90,3,10)" dominant-baseline="middle" fill="black" class="bSlN2axis1_5">17</text></g></g><g class="bSlN2axis1_3" transform="translate(228.75,0)"><line x1="0" y1="0" x2="0" y2="5" stroke="black" stroke-width="1" stroke-dasharray="1,0" class="bSlN2axis1_4"></line><g class="bSlN2axis1_5_g"><text x="3" y="10" style="text-anchor: end; font-size: 10px; font-weight: normal; font-family: Arial;" transform="rotate(-90,3,10)" dominant-baseline="middle" fill="black" class="bSlN2axis1_5">18</text></g></g><g class="bSlN2axis1_3" transform="translate(241.875,0)"><line x1="0" y1="0" x2="0" y2="5" stroke="black" stroke-width="1" stroke-dasharray="1,0" class="bSlN2axis1_4"></line><g class="bSlN2axis1_5_g"><text x="3" y="10" style="text-anchor: end; font-size: 10px; font-weight: normal; font-family: Arial;" transform="rotate(-90,3,10)" dominant-baseline="middle" fill="black" class="bSlN2axis1_5">19</text></g></g><g class="bSlN2axis1_3" transform="translate(255,0)"><line x1="0" y1="0" x2="0" y2="5" stroke="black" stroke-width="1" stroke-dasharray="1,0" class="bSlN2axis1_4"></line><g class="bSlN2axis1_5_g"><text x="3" y="10" style="text-anchor: end; font-size: 10px; font-weight: normal; font-family: Arial;" transform="rotate(-90,3,10)" dominant-baseline="middle" fill="black" class="bSlN2axis1_5">20</text></g></g><g class="bSlN2axis1_3" transform="translate(268.125,0)"><line x1="0" y1="0" x2="0" y2="5" stroke="black" stroke-width="1" stroke-dasharray="1,0" class="bSlN2axis1_4"></line><g class="bSlN2axis1_5_g"><text x="3" y="10" style="text-anchor: end; font-size: 10px; font-weight: normal; font-family: Arial;" transform="rotate(-90,3,10)" dominant-baseline="middle" fill="black" class="bSlN2axis1_5">A</text></g></g><g class="bSlN2axis1_3" transform="translate(281.25,0)"><line x1="0" y1="0" x2="0" y2="5" stroke="black" stroke-width="1" stroke-dasharray="1,0" class="bSlN2axis1_4"></line><g class="bSlN2axis1_5_g"><text x="3" y="10" style="text-anchor: end; font-size: 10px; font-weight: normal; font-family: Arial;" transform="rotate(-90,3,10)" dominant-baseline="middle" fill="black" class="bSlN2axis1_5">B</text></g></g><g class="bSlN2axis1_3" transform="translate(294.375,0)"><line x1="0" y1="0" x2="0" y2="5" stroke="black" stroke-width="1" stroke-dasharray="1,0" class="bSlN2axis1_4"></line><g class="bSlN2axis1_5_g"><text x="3" y="10" style="text-anchor: end; font-size: 10px; font-weight: normal; font-family: Arial;" transform="rotate(-90,3,10)" dominant-baseline="middle" fill="black" class="bSlN2axis1_5">C</text></g></g><g class="text1_g"><text x="150" y="40" style="text-anchor: middle; font-size: 12px; font-weight: normal; font-family: Arial;" transform="rotate(0,150,40)" dominant-baseline="auto" fill="black" class="text1"></text></g></g><g transform="translate(0,0)" class="bSlN2axis1_6"><line x1="0" y1="0" x2="0" y2="-220" stroke="black" stroke-width="1" stroke-dasharray="1,0" class="bSlN2axis1_7"></line><g class="bSlN2axis1_8" transform="translate(0,0)"><line x1="0" y1="0" x2="-5" y2="0" stroke="black" stroke-width="1" stroke-dasharray="1,0" class="bSlN2axis1_9"></line><g class="bSlN2axis1_10_g"><text x="-10" y="3" style="text-anchor: end; font-size: 10px; font-weight: normal; font-family: Arial;" transform="rotate(0,-10,3)" dominant-baseline="auto" fill="black" class="bSlN2axis1_10">0</text></g></g><g class="bSlN2axis1_8" transform="translate(0,-55)"><line x1="0" y1="0" x2="-5" y2="0" stroke="black" stroke-width="1" stroke-dasharray="1,0" class="bSlN2axis1_9"></line><g class="bSlN2axis1_10_g"><text x="-10" y="3" style="text-anchor: end; font-size: 10px; font-weight: normal; font-family: Arial;" transform="rotate(0,-10,3)" dominant-baseline="auto" fill="black" class="bSlN2axis1_10">4</text></g></g><g class="bSlN2axis1_8" transform="translate(0,-110)"><line x1="0" y1="0" x2="-5" y2="0" stroke="black" stroke-width="1" stroke-dasharray="1,0" class="bSlN2axis1_9"></line><g class="bSlN2axis1_10_g"><text x="-10" y="3" style="text-anchor: end; font-size: 10px; font-weight: normal; font-family: Arial;" transform="rotate(0,-10,3)" dominant-baseline="auto" fill="black" class="bSlN2axis1_10">8</text></g></g><g class="bSlN2axis1_8" transform="translate(0,-165)"><line x1="0" y1="0" x2="-5" y2="0" stroke="black" stroke-width="1" stroke-dasharray="1,0" class="bSlN2axis1_9"></line><g class="bSlN2axis1_10_g"><text x="-10" y="3" style="text-anchor: end; font-size: 10px; font-weight: normal; font-family: Arial;" transform="rotate(0,-10,3)" dominant-baseline="auto" fill="black" class="bSlN2axis1_10">12</text></g></g><g class="bSlN2axis1_8" transform="translate(0,-220)"><line x1="0" y1="0" x2="-5" y2="0" stroke="black" stroke-width="1" stroke-dasharray="1,0" class="bSlN2axis1_9"></line><g class="bSlN2axis1_10_g"><text x="-10" y="3" style="text-anchor: end; font-size: 10px; font-weight: normal; font-family: Arial;" transform="rotate(0,-10,3)" dominant-baseline="auto" fill="black" class="bSlN2axis1_10">16</text></g></g><g class="text3_g"><text x="-29" y="-110" style="text-anchor: middle; font-size: 12px; font-weight: normal; font-family: Arial;" transform="rotate(-90,-29,-110)" dominant-baseline="auto" fill="black" class="text3"></text></g></g><g class="group3" transform="translate(0,0)"><g class="group2" transform="translate(5.625,0)"><rect x="-4.6875" y="-1.9985075" width="9.3750" height="1.9985075" rx="" ry="" fill="#e64b35" stroke="" stroke-width="1" fill-opacity="0.7" class="rect1"></rect></g><g class="group2" transform="translate(18.75,0)"><rect x="-4.6875" y="-7.489099749999999" width="9.3750" height="5.49059225" rx="" ry="" fill="#e64b35" stroke="" stroke-width="1" fill-opacity="0.7" class="rect1"></rect></g><g class="group2" transform="translate(31.875,0)"><rect x="-4.6875" y="-11.65676325" width="9.3750" height="4.1676635" rx="" ry="" fill="#e64b35" stroke="" stroke-width="1" fill-opacity="0.7" class="rect1"></rect></g><g class="group2" transform="translate(58.125,0)"><rect x="-4.6875" y="-15.949020999999998" width="9.3750" height="4.29225775" rx="" ry="" fill="#e64b35" stroke="" stroke-width="1" fill-opacity="0.7" class="rect1"></rect></g><g class="group2" transform="translate(71.25,0)"><rect x="-4.6875" y="-18.999209625" width="9.3750" height="3.050188625" rx="" ry="" fill="#e64b35" stroke="" stroke-width="1" fill-opacity="0.7" class="rect1"></rect></g><g class="group2" transform="translate(84.375,0)"><rect x="-4.6875" y="-23.388754125" width="9.3750" height="4.3895445" rx="" ry="" fill="#e64b35" stroke="" stroke-width="1" fill-opacity="0.7" class="rect1"></rect></g><g class="group2" transform="translate(97.5,0)"><rect x="-4.6875" y="-23.822264124999997" width="9.3750" height="0.43351" rx="" ry="" fill="#e64b35" stroke="" stroke-width="1" fill-opacity="0.7" class="rect1"></rect></g><g class="group2" transform="translate(110.625,0)"><rect x="-4.6875" y="-26.655740375" width="9.3750" height="2.83347625" rx="" ry="" fill="#e64b35" stroke="" stroke-width="1" fill-opacity="0.7" class="rect1"></rect></g><g class="group2" transform="translate(123.75,0)"><rect x="-4.6875" y="-28.53667575" width="9.3750" height="1.8809353750000002" rx="" ry="" fill="#e64b35" stroke="" stroke-width="1" fill-opacity="0.7" class="rect1"></rect></g><g class="group2" transform="translate(136.875,0)"><rect x="-4.6875" y="-28.712197250000003" width="9.3750" height="0.17552150000000002" rx="" ry="" fill="#e64b35" stroke="" stroke-width="1" fill-opacity="0.7" class="rect1"></rect></g><g class="group2" transform="translate(150,0)"><rect x="-4.6875" y="-32.55384275" width="9.3750" height="3.8416455" rx="" ry="" fill="#e64b35" stroke="" stroke-width="1" fill-opacity="0.7" class="rect1"></rect></g><g class="group2" transform="translate(163.125,0)"><rect x="-4.6875" y="-35.619034" width="9.3750" height="3.0651912500000003" rx="" ry="" fill="#e64b35" stroke="" stroke-width="1" fill-opacity="0.7" class="rect1"></rect></g><g class="group2" transform="translate(176.25,0)"><rect x="-4.6875" y="-38.045001500000005" width="9.3750" height="2.4259675" rx="" ry="" fill="#e64b35" stroke="" stroke-width="1" fill-opacity="0.7" class="rect1"></rect></g><g class="group2" transform="translate(189.375,0)"><rect x="-4.6875" y="-39.986024375" width="9.3750" height="1.9410228749999998" rx="" ry="" fill="#e64b35" stroke="" stroke-width="1" fill-opacity="0.7" class="rect1"></rect></g><g class="group2" transform="translate(202.5,0)"><rect x="-4.6875" y="-43.349413250000005" width="9.3750" height="3.363388875" rx="" ry="" fill="#e64b35" stroke="" stroke-width="1" fill-opacity="0.7" class="rect1"></rect></g><g class="group2" transform="translate(215.625,0)"><rect x="-4.6875" y="-48.138138125000005" width="9.3750" height="4.788724875" rx="" ry="" fill="#e64b35" stroke="" stroke-width="1" fill-opacity="0.7" class="rect1"></rect></g><g class="group2" transform="translate(228.75,0)"><rect x="-4.6875" y="-53.79706612500001" width="9.3750" height="5.6589279999999995" rx="" ry="" fill="#e64b35" stroke="" stroke-width="1" fill-opacity="0.7" class="rect1"></rect></g><g class="group2" transform="translate(241.875,0)"><rect x="-4.6875" y="-56.34156000000001" width="9.3750" height="2.544493875" rx="" ry="" fill="#e64b35" stroke="" stroke-width="1" fill-opacity="0.7" class="rect1"></rect></g><g class="group2" transform="translate(255,0)"><rect x="-4.6875" y="-58.382869875000004" width="9.3750" height="2.041309875" rx="" ry="" fill="#e64b35" stroke="" stroke-width="1" fill-opacity="0.7" class="rect1"></rect></g><g class="group2" transform="translate(268.125,0)"><rect x="-4.6875" y="-58.382869875000004" width="9.3750" height="0" rx="" ry="" fill="#e64b35" stroke="" stroke-width="1" fill-opacity="0.7" class="rect1"></rect></g><g class="group4" transform="translate(0,0)"><line x1="5.625" y1="-1.9985075" x2="18.75" y2="-1.9985075" stroke="black" stroke-width="0.5" stroke-dasharray="1,1" class="line_h1"></line></g><g class="group4" transform="translate(0,0)"><line x1="18.75" y1="-7.489099749999999" x2="31.875" y2="-7.489099749999999" stroke="black" stroke-width="0.5" stroke-dasharray="1,1" class="line_h1"></line></g><g class="group4" transform="translate(0,0)"><line x1="31.875" y1="-11.65676325" x2="58.125" y2="-11.65676325" stroke="black" stroke-width="0.5" stroke-dasharray="1,1" class="line_h1"></line></g><g class="group4" transform="translate(0,0)"><line x1="58.125" y1="-15.949020999999998" x2="71.25" y2="-15.949020999999998" stroke="black" stroke-width="0.5" stroke-dasharray="1,1" class="line_h1"></line></g><g class="group4" transform="translate(0,0)"><line x1="71.25" y1="-18.999209625" x2="84.375" y2="-18.999209625" stroke="black" stroke-width="0.5" stroke-dasharray="1,1" class="line_h1"></line></g><g class="group4" transform="translate(0,0)"><line x1="84.375" y1="-23.388754125" x2="97.5" y2="-23.388754125" stroke="black" stroke-width="0.5" stroke-dasharray="1,1" class="line_h1"></line></g><g class="group4" transform="translate(0,0)"><line x1="97.5" y1="-23.822264124999997" x2="110.625" y2="-23.822264124999997" stroke="black" stroke-width="0.5" stroke-dasharray="1,1" class="line_h1"></line></g><g class="group4" transform="translate(0,0)"><line x1="110.625" y1="-26.655740375" x2="123.75" y2="-26.655740375" stroke="black" stroke-width="0.5" stroke-dasharray="1,1" class="line_h1"></line></g><g class="group4" transform="translate(0,0)"><line x1="123.75" y1="-28.53667575" x2="136.875" y2="-28.53667575" stroke="black" stroke-width="0.5" stroke-dasharray="1,1" class="line_h1"></line></g><g class="group4" transform="translate(0,0)"><line x1="136.875" y1="-28.712197250000003" x2="150" y2="-28.712197250000003" stroke="black" stroke-width="0.5" stroke-dasharray="1,1" class="line_h1"></line></g><g class="group4" transform="translate(0,0)"><line x1="150" y1="-32.55384275" x2="163.125" y2="-32.55384275" stroke="black" stroke-width="0.5" stroke-dasharray="1,1" class="line_h1"></line></g><g class="group4" transform="translate(0,0)"><line x1="163.125" y1="-35.619034" x2="176.25" y2="-35.619034" stroke="black" stroke-width="0.5" stroke-dasharray="1,1" class="line_h1"></line></g><g class="group4" transform="translate(0,0)"><line x1="176.25" y1="-38.045001500000005" x2="189.375" y2="-38.045001500000005" stroke="black" stroke-width="0.5" stroke-dasharray="1,1" class="line_h1"></line></g><g class="group4" transform="translate(0,0)"><line x1="189.375" y1="-39.986024375" x2="202.5" y2="-39.986024375" stroke="black" stroke-width="0.5" stroke-dasharray="1,1" class="line_h1"></line></g><g class="group4" transform="translate(0,0)"><line x1="202.5" y1="-43.349413250000005" x2="215.625" y2="-43.349413250000005" stroke="black" stroke-width="0.5" stroke-dasharray="1,1" class="line_h1"></line></g><g class="group4" transform="translate(0,0)"><line x1="215.625" y1="-48.138138125000005" x2="228.75" y2="-48.138138125000005" stroke="black" stroke-width="0.5" stroke-dasharray="1,1" class="line_h1"></line></g><g class="group4" transform="translate(0,0)"><line x1="228.75" y1="-53.79706612500001" x2="241.875" y2="-53.79706612500001" stroke="black" stroke-width="0.5" stroke-dasharray="1,1" class="line_h1"></line></g><g class="group4" transform="translate(0,0)"><line x1="241.875" y1="-56.34156000000001" x2="255" y2="-56.34156000000001" stroke="black" stroke-width="0.5" stroke-dasharray="1,1" class="line_h1"></line></g><g class="group4" transform="translate(0,0)"><line x1="255" y1="-58.382869875000004" x2="268.125" y2="-58.382869875000004" stroke="black" stroke-width="0.5" stroke-dasharray="1,1" class="line_h1"></line></g><rect x="263.4375" y="-58.382869875000004" width="9.3750" height="58.382869875000004" rx="" ry="" fill="#e64b35" stroke="" stroke-width="1" fill-opacity="0.7" class="rect2"></rect></g><g class="group3" transform="translate(0,0)"><g class="group2" transform="translate(5.625,0)"><rect x="-4.6875" y="-8.59375" width="9.3750" height="8.59375" rx="" ry="" fill="#4dbbd5" stroke="" stroke-width="1" fill-opacity="0.7" class="rect1"></rect></g><g class="group2" transform="translate(18.75,0)"><rect x="-4.6875" y="-25.78125" width="9.3750" height="17.1875" rx="" ry="" fill="#4dbbd5" stroke="" stroke-width="1" fill-opacity="0.7" class="rect1"></rect></g><g class="group2" transform="translate(31.875,0)"><rect x="-4.6875" y="-42.96875" width="9.3750" height="17.1875" rx="" ry="" fill="#4dbbd5" stroke="" stroke-width="1" fill-opacity="0.7" class="rect1"></rect></g><g class="group2" transform="translate(45,0)"><rect x="-4.6875" y="-60.15625" width="9.3750" height="17.1875" rx="" ry="" fill="#4dbbd5" stroke="" stroke-width="1" fill-opacity="0.7" class="rect1"></rect></g><g class="group2" transform="translate(58.125,0)"><rect x="-4.6875" y="-77.34375" width="9.3750" height="17.1875" rx="" ry="" fill="#4dbbd5" stroke="" stroke-width="1" fill-opacity="0.7" class="rect1"></rect></g><g class="group2" transform="translate(71.25,0)"><rect x="-4.6875" y="-94.53125" width="9.3750" height="17.1875" rx="" ry="" fill="#4dbbd5" stroke="" stroke-width="1" fill-opacity="0.7" class="rect1"></rect></g><g class="group2" transform="translate(84.375,0)"><rect x="-4.6875" y="-111.71875" width="9.3750" height="17.1875" rx="" ry="" fill="#4dbbd5" stroke="" stroke-width="1" fill-opacity="0.7" class="rect1"></rect></g><g class="group2" transform="translate(97.5,0)"><rect x="-4.6875" y="-128.90739582875" width="9.3750" height="17.18864582875" rx="" ry="" fill="#4dbbd5" stroke="" stroke-width="1" fill-opacity="0.7" class="rect1"></rect></g><g class="group2" transform="translate(110.625,0)"><rect x="-4.6875" y="-146.0971875" width="9.3750" height="17.18979167125" rx="" ry="" fill="#4dbbd5" stroke="" stroke-width="1" fill-opacity="0.7" class="rect1"></rect></g><g class="group2" transform="translate(123.75,0)"><rect x="-4.6875" y="-163.28812499999998" width="9.3750" height="17.1909375" rx="" ry="" fill="#4dbbd5" stroke="" stroke-width="1" fill-opacity="0.7" class="rect1"></rect></g><g class="group2" transform="translate(136.875,0)"><rect x="-4.6875" y="-180.48020832875" width="9.3750" height="17.192083328749998" rx="" ry="" fill="#4dbbd5" stroke="" stroke-width="1" fill-opacity="0.7" class="rect1"></rect></g><g class="group2" transform="translate(150,0)"><rect x="-4.6875" y="-197.67343749999998" width="9.3750" height="17.19322917125" rx="" ry="" fill="#4dbbd5" stroke="" stroke-width="1" fill-opacity="0.7" class="rect1"></rect></g><g class="group2" transform="translate(281.25,0)"><rect x="-4.6875" y="-197.67343749999998" width="9.3750" height="0" rx="" ry="" fill="#4dbbd5" stroke="" stroke-width="1" fill-opacity="0.7" class="rect1"></rect></g><g class="group4" transform="translate(0,0)"><line x1="5.625" y1="-8.59375" x2="18.75" y2="-8.59375" stroke="black" stroke-width="0.5" stroke-dasharray="1,1" class="line_h1"></line></g><g class="group4" transform="translate(0,0)"><line x1="18.75" y1="-25.78125" x2="31.875" y2="-25.78125" stroke="black" stroke-width="0.5" stroke-dasharray="1,1" class="line_h1"></line></g><g class="group4" transform="translate(0,0)"><line x1="31.875" y1="-42.96875" x2="45" y2="-42.96875" stroke="black" stroke-width="0.5" stroke-dasharray="1,1" class="line_h1"></line></g><g class="group4" transform="translate(0,0)"><line x1="45" y1="-60.15625" x2="58.125" y2="-60.15625" stroke="black" stroke-width="0.5" stroke-dasharray="1,1" class="line_h1"></line></g><g class="group4" transform="translate(0,0)"><line x1="58.125" y1="-77.34375" x2="71.25" y2="-77.34375" stroke="black" stroke-width="0.5" stroke-dasharray="1,1" class="line_h1"></line></g><g class="group4" transform="translate(0,0)"><line x1="71.25" y1="-94.53125" x2="84.375" y2="-94.53125" stroke="black" stroke-width="0.5" stroke-dasharray="1,1" class="line_h1"></line></g><g class="group4" transform="translate(0,0)"><line x1="84.375" y1="-111.71875" x2="97.5" y2="-111.71875" stroke="black" stroke-width="0.5" stroke-dasharray="1,1" class="line_h1"></line></g><g class="group4" transform="translate(0,0)"><line x1="97.5" y1="-128.90739582875" x2="110.625" y2="-128.90739582875" stroke="black" stroke-width="0.5" stroke-dasharray="1,1" class="line_h1"></line></g><g class="group4" transform="translate(0,0)"><line x1="110.625" y1="-146.0971875" x2="123.75" y2="-146.0971875" stroke="black" stroke-width="0.5" stroke-dasharray="1,1" class="line_h1"></line></g><g class="group4" transform="translate(0,0)"><line x1="123.75" y1="-163.28812499999998" x2="136.875" y2="-163.28812499999998" stroke="black" stroke-width="0.5" stroke-dasharray="1,1" class="line_h1"></line></g><g class="group4" transform="translate(0,0)"><line x1="136.875" y1="-180.48020832875" x2="150" y2="-180.48020832875" stroke="black" stroke-width="0.5" stroke-dasharray="1,1" class="line_h1"></line></g><g class="group4" transform="translate(0,0)"><line x1="150" y1="-197.67343749999998" x2="281.25" y2="-197.67343749999998" stroke="black" stroke-width="0.5" stroke-dasharray="1,1" class="line_h1"></line></g><rect x="276.5625" y="-197.67343749999998" width="9.3750" height="197.67343749999998" rx="" ry="" fill="#4dbbd5" stroke="" stroke-width="1" fill-opacity="0.7" class="rect2"></rect></g><g class="group3" transform="translate(0,0)"><g class="group2" transform="translate(163.125,0)"><rect x="-4.6875" y="-17.1875" width="9.3750" height="17.1875" rx="" ry="" fill="#00a087" stroke="" stroke-width="1" fill-opacity="0.7" class="rect1"></rect></g><g class="group2" transform="translate(176.25,0)"><rect x="-4.6875" y="-34.375" width="9.3750" height="17.1875" rx="" ry="" fill="#00a087" stroke="" stroke-width="1" fill-opacity="0.7" class="rect1"></rect></g><g class="group2" transform="translate(189.375,0)"><rect x="-4.6875" y="-51.5625" width="9.3750" height="17.1875" rx="" ry="" fill="#00a087" stroke="" stroke-width="1" fill-opacity="0.7" class="rect1"></rect></g><g class="group2" transform="translate(202.5,0)"><rect x="-4.6875" y="-68.75" width="9.3750" height="17.1875" rx="" ry="" fill="#00a087" stroke="" stroke-width="1" fill-opacity="0.7" class="rect1"></rect></g><g class="group2" transform="translate(294.375,0)"><rect x="-4.6875" y="-68.75" width="9.3750" height="0" rx="" ry="" fill="#00a087" stroke="" stroke-width="1" fill-opacity="0.7" class="rect1"></rect></g><g class="group4" transform="translate(0,0)"><line x1="163.125" y1="-17.1875" x2="176.25" y2="-17.1875" stroke="black" stroke-width="0.5" stroke-dasharray="1,1" class="line_h1"></line></g><g class="group4" transform="translate(0,0)"><line x1="176.25" y1="-34.375" x2="189.375" y2="-34.375" stroke="black" stroke-width="0.5" stroke-dasharray="1,1" class="line_h1"></line></g><g class="group4" transform="translate(0,0)"><line x1="189.375" y1="-51.5625" x2="202.5" y2="-51.5625" stroke="black" stroke-width="0.5" stroke-dasharray="1,1" class="line_h1"></line></g><g class="group4" transform="translate(0,0)"><line x1="202.5" y1="-68.75" x2="294.375" y2="-68.75" stroke="black" stroke-width="0.5" stroke-dasharray="1,1" class="line_h1"></line></g><rect x="289.6875" y="-68.75" width="9.3750" height="68.75" rx="" ry="" fill="#00a087" stroke="" stroke-width="1" fill-opacity="0.7" class="rect2"></rect></g></g><g transform="translate(310,-220)" class="legend1"><g class="legend1_2" transform="translate(0,0)"><rect x="0" y="0" width="10" height="10" rx="0" ry="0" fill="#e64b35" stroke="" stroke-width="" fill-opacity="0.7" class="legend1_3"></rect><g class="legend1_4_g"><text x="14" y="5" style="text-anchor: start; font-size: 10px; font-weight: normal; font-family: Arial;" transform="rotate(0,14,5)" dominant-baseline="middle" fill="black" class="legend1_4">a</text></g></g><g class="legend1_2" transform="translate(0,13)"><rect x="0" y="0" width="10" height="10" rx="0" ry="0" fill="#4dbbd5" stroke="" stroke-width="" fill-opacity="0.7" class="legend1_3"></rect><g class="legend1_4_g"><text x="14" y="5" style="text-anchor: start; font-size: 10px; font-weight: normal; font-family: Arial;" transform="rotate(0,14,5)" dominant-baseline="middle" fill="black" class="legend1_4">b</text></g></g><g class="legend1_2" transform="translate(0,26)"><rect x="0" y="0" width="10" height="10" rx="0" ry="0" fill="#00a087" stroke="" stroke-width="" fill-opacity="0.7" class="legend1_3"></rect><g class="legend1_4_g"><text x="14" y="5" style="text-anchor: start; font-size: 10px; font-weight: normal; font-family: Arial;" transform="rotate(0,14,5)" dominant-baseline="middle" fill="black" class="legend1_4">c</text></g></g></g></g></svg>
