<svg width="450" height="450" id="ngplotSvg"><g transform="translate(136,200)" class="group1"><g transform="translate(0,0)" class="bSlN2axis1"><g class="group2" transform="translate(33.75,0)"><rect x="-18.75" y="-62.299999995" width="37.5000" height="62.299999995" rx="0" ry="0" fill="rgb(131, 69, 106)" stroke="" stroke-width="1" fill-opacity="1" class="rect1"></rect><g transform="translate(0,-62.299999995)" class="gong1"><line x1="-9.375" y1="-8.86313136" x2="9.375" y2="-8.86313136" stroke="black" stroke-width="1" stroke-dasharray="1,0" class="gong1_1"></line><line x1="0" y1="-8.86313136" x2="0" y2="0" stroke="black" stroke-width="1" stroke-dasharray="1,0" class="gong1_2"></line></g></g><g class="group2" transform="translate(86.25,0)"><rect x="-18.75" y="-42.712500000000006" width="37.5000" height="42.712500000000006" rx="0" ry="0" fill="rgb(105, 75, 127)" stroke="" stroke-width="1" fill-opacity="1" class="rect1"></rect><g transform="translate(0,-42.712500000000006)" class="gong1"><line x1="-9.375" y1="-10.212078270000001" x2="9.375" y2="-10.212078270000001" stroke="black" stroke-width="1" stroke-dasharray="1,0" class="gong1_1"></line><line x1="0" y1="-10.212078270000001" x2="0" y2="0" stroke="black" stroke-width="1" stroke-dasharray="1,0" class="gong1_2"></line></g></g><g transform="translate(0,0)" class="bSlN2axis1_1"><line x1="0" y1="0" x2="120" y2="0" stroke="black" stroke-width="2" stroke-dasharray="1,0" class="bSlN2axis1_2"></line><g class="bSlN2axis1_3" transform="translate(33.75,0)"><line x1="0" y1="0" x2="0" y2="5" stroke="black" stroke-width="2" stroke-dasharray="1,0" class="bSlN2axis1_4"></line><g class="bSlN2axis1_5_g"><text x="0" y="20" style="text-anchor: middle; font-size: 12px; font-weight: bold; font-family: Arial;" transform="rotate(0,0,20)" dominant-baseline="auto" fill="black" class="bSlN2axis1_5">G1</text></g></g><g class="bSlN2axis1_3" transform="translate(86.25,0)"><line x1="0" y1="0" x2="0" y2="5" stroke="black" stroke-width="2" stroke-dasharray="1,0" class="bSlN2axis1_4"></line><g class="bSlN2axis1_5_g"><text x="0" y="20" style="text-anchor: middle; font-size: 12px; font-weight: bold; font-family: Arial;" transform="rotate(0,0,20)" dominant-baseline="auto" fill="black" class="bSlN2axis1_5">G2</text></g></g><g class="text2_g"><text x="60" y="40" style="text-anchor: middle; font-size: 12px; font-weight: normal; font-family: Arial;" transform="rotate(0,60,40)" dominant-baseline="auto" fill="black" class="text2"></text></g></g><g transform="translate(0,0)" class="bSlN2axis1_6"><line x1="0" y1="0" x2="0" y2="-120" stroke="black" stroke-width="2" stroke-dasharray="1,0" class="bSlN2axis1_7"></line><g class="bSlN2axis1_8" transform="translate(0,0)"><line x1="0" y1="0" x2="-5" y2="0" stroke="black" stroke-width="2" stroke-dasharray="1,0" class="bSlN2axis1_9"></line><g class="bSlN2axis1_10_g"><text x="-10" y="3" style="text-anchor: end; font-size: 12px; font-weight: bold; font-family: Arial;" transform="rotate(0,-10,3)" dominant-baseline="auto" fill="black" class="bSlN2axis1_10">0.0</text></g></g><g class="bSlN2axis1_8" transform="translate(0,-30)"><line x1="0" y1="0" x2="-5" y2="0" stroke="black" stroke-width="2" stroke-dasharray="1,0" class="bSlN2axis1_9"></line><g class="bSlN2axis1_10_g"><text x="-10" y="3" style="text-anchor: end; font-size: 12px; font-weight: bold; font-family: Arial;" transform="rotate(0,-10,3)" dominant-baseline="auto" fill="black" class="bSlN2axis1_10">2.0</text></g></g><g class="bSlN2axis1_8" transform="translate(0,-60)"><line x1="0" y1="0" x2="-5" y2="0" stroke="black" stroke-width="2" stroke-dasharray="1,0" class="bSlN2axis1_9"></line><g class="bSlN2axis1_10_g"><text x="-10" y="3" style="text-anchor: end; font-size: 12px; font-weight: bold; font-family: Arial;" transform="rotate(0,-10,3)" dominant-baseline="auto" fill="black" class="bSlN2axis1_10">4.0</text></g></g><g class="bSlN2axis1_8" transform="translate(0,-90)"><line x1="0" y1="0" x2="-5" y2="0" stroke="black" stroke-width="2" stroke-dasharray="1,0" class="bSlN2axis1_9"></line><g class="bSlN2axis1_10_g"><text x="-10" y="3" style="text-anchor: end; font-size: 12px; font-weight: bold; font-family: Arial;" transform="rotate(0,-10,3)" dominant-baseline="auto" fill="black" class="bSlN2axis1_10">6.0</text></g></g><g class="bSlN2axis1_8" transform="translate(0,-120)"><line x1="0" y1="0" x2="-5" y2="0" stroke="black" stroke-width="2" stroke-dasharray="1,0" class="bSlN2axis1_9"></line><g class="bSlN2axis1_10_g"><text x="-10" y="3" style="text-anchor: end; font-size: 12px; font-weight: bold; font-family: Arial;" transform="rotate(0,-10,3)" dominant-baseline="auto" fill="black" class="bSlN2axis1_10">8.0</text></g></g><g class="text1_g"><text x="-40" y="-60" style="text-anchor: middle; font-size: 12px; font-weight: bold; font-family: Arial;" transform="rotate(-90,-40,-60)" dominant-baseline="auto" fill="black" class="text1">YYYYYYYY</text></g></g><g transform="translate(0,-120)" class="group4"><g class="downLink1" transform="translate(0,0)" height="4"><line x1="86.25" y1="0" x2="86.25" y2="-4" stroke="black" stroke-width="2" stroke-dasharray="1,0" class="downLink1_1"></line><line x1="86.25" y1="-4" x2="33.75" y2="-4" stroke="black" stroke-width="2" stroke-dasharray="1,0" class="downLink1_2"></line><line x1="33.75" y1="0" x2="33.75" y2="-4" stroke="black" stroke-width="2" stroke-dasharray="1,0" class="downLink1_3"></line><g class="downLink1_4_g"><text x="60" y="-3" style="text-anchor: middle; font-size: 12px; font-weight: bold; font-family: Arial;" transform="rotate(0,60,-3)" dominant-baseline="auto" fill="black" class="downLink1_4">**</text></g></g></g></g></g></svg>
