<svg width="400" height="280" id="ngplotSvg"><g transform="translate(100,230)" class="bSlN2axis1"><g transform="translate(0,0)" class="bSlN2axis1_1"><line x1="0" y1="0" x2="200" y2="0" stroke="black" stroke-width="1" stroke-dasharray="1,0" class="bSlN2axis1_2"></line><g class="bSlN2axis1_3" transform="translate(29.99997,0)"><line x1="0" y1="0" x2="0" y2="3" stroke="black" stroke-width="1" stroke-dasharray="1,0" class="bSlN2axis1_4"></line><g class="bSlN2axis1_5_g"><text x="0" y="12" style="text-anchor: middle; font-size: 12px; font-weight: normal; font-family: Arial; font-style: normal;" transform="rotate(0,0,12)" dominant-baseline="middle" fill="black" class="bSlN2axis1_5">a</text></g></g><g class="bSlN2axis1_3" transform="translate(66.6667,0)"><line x1="0" y1="0" x2="0" y2="3" stroke="black" stroke-width="1" stroke-dasharray="1,0" class="bSlN2axis1_4"></line><g class="bSlN2axis1_5_g"><text x="0" y="12" style="text-anchor: middle; font-size: 12px; font-weight: normal; font-family: Arial; font-style: normal;" transform="rotate(0,0,12)" dominant-baseline="middle" fill="black" class="bSlN2axis1_5">b</text></g></g><g class="bSlN2axis1_3" transform="translate(133.3333,0)"><line x1="0" y1="0" x2="0" y2="3" stroke="black" stroke-width="1" stroke-dasharray="1,0" class="bSlN2axis1_4"></line><g class="bSlN2axis1_5_g"><text x="0" y="12" style="text-anchor: middle; font-size: 12px; font-weight: normal; font-family: Arial; font-style: normal;" transform="rotate(0,0,12)" dominant-baseline="middle" fill="black" class="bSlN2axis1_5">c</text></g></g><g class="bSlN2axis1_3" transform="translate(170.00003,0)"><line x1="0" y1="0" x2="0" y2="3" stroke="black" stroke-width="1" stroke-dasharray="1,0" class="bSlN2axis1_4"></line><g class="bSlN2axis1_5_g"><text x="0" y="12" style="text-anchor: middle; font-size: 12px; font-weight: normal; font-family: Arial; font-style: normal;" transform="rotate(0,0,12)" dominant-baseline="middle" fill="black" class="bSlN2axis1_5">d</text></g></g></g><g transform="translate(0,0)" class="bSlN2axis1_6"><line x1="0" y1="0" x2="0" y2="-180" stroke="black" stroke-width="1" stroke-dasharray="1,0" class="bSlN2axis1_7"></line><g class="bSlN2axis1_8" transform="translate(0,0)"><line x1="0" y1="0" x2="-3" y2="0" stroke="black" stroke-width="1" stroke-dasharray="1,0" class="bSlN2axis1_9"></line><g class="bSlN2axis1_10_g"><text x="-7" y="0" style="text-anchor: end; font-size: 12px; font-weight: normal; font-family: Arial; font-style: normal;" transform="rotate(0,-7,0)" dominant-baseline="middle" fill="black" class="bSlN2axis1_10">0</text></g></g><g class="bSlN2axis1_8" transform="translate(0,-45)"><line x1="0" y1="0" x2="-3" y2="0" stroke="black" stroke-width="1" stroke-dasharray="1,0" class="bSlN2axis1_9"></line><g class="bSlN2axis1_10_g"><text x="-7" y="0" style="text-anchor: end; font-size: 12px; font-weight: normal; font-family: Arial; font-style: normal;" transform="rotate(0,-7,0)" dominant-baseline="middle" fill="black" class="bSlN2axis1_10">3</text></g></g><g class="bSlN2axis1_8" transform="translate(0,-90)"><line x1="0" y1="0" x2="-3" y2="0" stroke="black" stroke-width="1" stroke-dasharray="1,0" class="bSlN2axis1_9"></line><g class="bSlN2axis1_10_g"><text x="-7" y="0" style="text-anchor: end; font-size: 12px; font-weight: normal; font-family: Arial; font-style: normal;" transform="rotate(0,-7,0)" dominant-baseline="middle" fill="black" class="bSlN2axis1_10">6</text></g></g><g class="bSlN2axis1_8" transform="translate(0,-135)"><line x1="0" y1="0" x2="-3" y2="0" stroke="black" stroke-width="1" stroke-dasharray="1,0" class="bSlN2axis1_9"></line><g class="bSlN2axis1_10_g"><text x="-7" y="0" style="text-anchor: end; font-size: 12px; font-weight: normal; font-family: Arial; font-style: normal;" transform="rotate(0,-7,0)" dominant-baseline="middle" fill="black" class="bSlN2axis1_10">9</text></g></g><g class="bSlN2axis1_8" transform="translate(0,-180)"><line x1="0" y1="0" x2="-3" y2="0" stroke="black" stroke-width="1" stroke-dasharray="1,0" class="bSlN2axis1_9"></line><g class="bSlN2axis1_10_g"><text x="-7" y="0" style="text-anchor: end; font-size: 12px; font-weight: normal; font-family: Arial; font-style: normal;" transform="rotate(0,-7,0)" dominant-baseline="middle" fill="black" class="bSlN2axis1_10">12</text></g></g></g><g class="areaV2" transform="translate(29.99997,0)"><path d="M0.183,-15L0.367,-30L1.833,-45L3.667,-60L5.5,-75L3.667,-90L1.833,-105L0.733,-120L0.367,-135L0.183,-150L-0.183,-150L-0.367,-135L-0.733,-120L-1.833,-105L-3.667,-90L-5.5,-75L-3.667,-60L-1.833,-45L-0.367,-30L-0.183,-15Z" id="e_areaV2_1_0" fill="#e54b34" stroke="black" stroke-width="0.5" datum="[object Object],[object Object],[object Object],[object Object],[object Object],[object Object],[object Object],[object Object],[object Object],[object Object]" stroke-dasharray="1,0" fill-opacity="1" class="areaV2_1"></path></g><g class="areaV2" transform="translate(66.6667,0)"><path d="M0.183,-15L0.367,-30L1.833,-45L3.667,-60L5.5,-75L3.667,-90L1.833,-105L0.733,-120L0.367,-135L0.183,-150L-0.183,-150L-0.367,-135L-0.733,-120L-1.833,-105L-3.667,-90L-5.5,-75L-3.667,-60L-1.833,-45L-0.367,-30L-0.183,-15Z" id="e_areaV2_1_1" fill="#e54b34" stroke="black" stroke-width="0.5" datum="[object Object],[object Object],[object Object],[object Object],[object Object],[object Object],[object Object],[object Object],[object Object],[object Object]" stroke-dasharray="1,0" fill-opacity="1" class="areaV2_1"></path></g><g class="areaV2" transform="translate(133.3333,0)"><path d="M0.183,-15L0.367,-30L1.833,-45L3.667,-60L5.5,-75L3.667,-90L1.833,-105L0.733,-120L0.367,-135L0.183,-150L-0.183,-150L-0.367,-135L-0.733,-120L-1.833,-105L-3.667,-90L-5.5,-75L-3.667,-60L-1.833,-45L-0.367,-30L-0.183,-15Z" id="e_areaV2_1_2" fill="#4cbad4" stroke="black" stroke-width="0.5" datum="[object Object],[object Object],[object Object],[object Object],[object Object],[object Object],[object Object],[object Object],[object Object],[object Object]" stroke-dasharray="1,0" fill-opacity="1" class="areaV2_1"></path></g><g class="areaV2" transform="translate(170.00003,0)"><path d="M0.183,-15L0.367,-30L1.833,-45L3.667,-60L5.5,-75L3.667,-90L1.833,-105L0.733,-120L0.367,-135L0.183,-150L-0.183,-150L-0.367,-135L-0.733,-120L-1.833,-105L-3.667,-90L-5.5,-75L-3.667,-60L-1.833,-45L-0.367,-30L-0.183,-15Z" id="e_areaV2_1_3" fill="#4cbad4" stroke="black" stroke-width="0.5" datum="[object Object],[object Object],[object Object],[object Object],[object Object],[object Object],[object Object],[object Object],[object Object],[object Object]" stroke-dasharray="1,0" fill-opacity="1" class="areaV2_1"></path></g><g transform="translate(210,-180)" class="legend1"><g class="legend1_1_g"><text x="0" y="-10" style="text-anchor: start; font-size: 12px; font-weight: normal; font-family: Arial; font-style: normal;" transform="rotate(0,0,-10)" dominant-baseline="auto" fill="black" class="legend1_1"></text></g><g class="legend1_2" transform="translate(0,0)"><rect x="0" y="0" width="10" height="10" rx="0" ry="0" fill="#e54b34" stroke="" stroke-width="0" fill-opacity="1" class="legend1_3"></rect><g class="legend1_4_g"><text x="14" y="5" style="text-anchor: start; font-size: 12px; font-weight: normal; font-family: Arial; font-style: normal;" transform="rotate(0,14,5)" dominant-baseline="middle" fill="black" class="legend1_4">group1</text></g></g><g class="legend1_2" transform="translate(0,13)"><rect x="0" y="0" width="10" height="10" rx="0" ry="0" fill="#4cbad4" stroke="" stroke-width="0" fill-opacity="1" class="legend1_3"></rect><g class="legend1_4_g"><text x="14" y="5" style="text-anchor: start; font-size: 12px; font-weight: normal; font-family: Arial; font-style: normal;" transform="rotate(0,14,5)" dominant-baseline="middle" fill="black" class="legend1_4">group2</text></g></g></g></g></svg>
