<svg width="450" height="450" id="ngplotSvg"><g transform="translate(100,280)" class="group1"><g transform="translate(25,0)" class="bNlN2axis1"><g transform="translate(0,0)" class="bNlN2axis1_1"><line x1="0" y1="0" x2="240" y2="0" stroke="black" stroke-width="1" stroke-dasharray="1,0" class="bNlN2axis1_2"></line><g class="bNlN2axis1_3" transform="translate(20,0)"><line x1="0" y1="0" x2="0" y2="5" stroke="black" stroke-width="1" stroke-dasharray="1,0" class="bNlN2axis1_4"></line><g class="bNlN2axis1_5_g"><text x="0" y="20" style="text-anchor: middle; font-size: 12px; font-weight: normal; font-family: Arial; font-style: normal;" transform="rotate(0,0,20)" dominant-baseline="auto" fill="black" class="bNlN2axis1_5">10</text></g></g><g class="bNlN2axis1_3" transform="translate(53.33333333333333,0)"><line x1="0" y1="0" x2="0" y2="5" stroke="black" stroke-width="1" stroke-dasharray="1,0" class="bNlN2axis1_4"></line><g class="bNlN2axis1_5_g"><text x="0" y="20" style="text-anchor: middle; font-size: 12px; font-weight: normal; font-family: Arial; font-style: normal;" transform="rotate(0,0,20)" dominant-baseline="auto" fill="black" class="bNlN2axis1_5">12</text></g></g><g class="bNlN2axis1_3" transform="translate(86.66666666666666,0)"><line x1="0" y1="0" x2="0" y2="5" stroke="black" stroke-width="1" stroke-dasharray="1,0" class="bNlN2axis1_4"></line><g class="bNlN2axis1_5_g"><text x="0" y="20" style="text-anchor: middle; font-size: 12px; font-weight: normal; font-family: Arial; font-style: normal;" transform="rotate(0,0,20)" dominant-baseline="auto" fill="black" class="bNlN2axis1_5">14</text></g></g><g class="bNlN2axis1_3" transform="translate(120,0)"><line x1="0" y1="0" x2="0" y2="5" stroke="black" stroke-width="1" stroke-dasharray="1,0" class="bNlN2axis1_4"></line><g class="bNlN2axis1_5_g"><text x="0" y="20" style="text-anchor: middle; font-size: 12px; font-weight: normal; font-family: Arial; font-style: normal;" transform="rotate(0,0,20)" dominant-baseline="auto" fill="black" class="bNlN2axis1_5">16</text></g></g><g class="bNlN2axis1_3" transform="translate(153.33333333333331,0)"><line x1="0" y1="0" x2="0" y2="5" stroke="black" stroke-width="1" stroke-dasharray="1,0" class="bNlN2axis1_4"></line><g class="bNlN2axis1_5_g"><text x="0" y="20" style="text-anchor: middle; font-size: 12px; font-weight: normal; font-family: Arial; font-style: normal;" transform="rotate(0,0,20)" dominant-baseline="auto" fill="black" class="bNlN2axis1_5">18</text></g></g><g class="bNlN2axis1_3" transform="translate(186.66666666666669,0)"><line x1="0" y1="0" x2="0" y2="5" stroke="black" stroke-width="1" stroke-dasharray="1,0" class="bNlN2axis1_4"></line><g class="bNlN2axis1_5_g"><text x="0" y="20" style="text-anchor: middle; font-size: 12px; font-weight: normal; font-family: Arial; font-style: normal;" transform="rotate(0,0,20)" dominant-baseline="auto" fill="black" class="bNlN2axis1_5">20</text></g></g><g class="bNlN2axis1_3" transform="translate(220,0)"><line x1="0" y1="0" x2="0" y2="5" stroke="black" stroke-width="1" stroke-dasharray="1,0" class="bNlN2axis1_4"></line><g class="bNlN2axis1_5_g"><text x="0" y="20" style="text-anchor: middle; font-size: 12px; font-weight: normal; font-family: Arial; font-style: normal;" transform="rotate(0,0,20)" dominant-baseline="auto" fill="black" class="bNlN2axis1_5">22</text></g></g></g><g transform="translate(0,0)" class="bNlN2axis1_6"><line x1="0" y1="0" x2="0" y2="-220" stroke="black" stroke-width="1" stroke-dasharray="1,0" class="bNlN2axis1_7"></line><g class="bNlN2axis1_8" transform="translate(0,-9.999999999999982)"><line x1="0" y1="0" x2="-5" y2="0" stroke="black" stroke-width="1" stroke-dasharray="1,0" class="bNlN2axis1_9"></line><g class="bNlN2axis1_10_g"><text x="-10" y="3" style="text-anchor: end; font-size: 12px; font-weight: normal; font-family: Arial; font-style: normal;" transform="rotate(0,-10,3)" dominant-baseline="auto" fill="black" class="bNlN2axis1_10">1.2</text></g></g><g class="bNlN2axis1_8" transform="translate(0,-49.99999999999998)"><line x1="0" y1="0" x2="-5" y2="0" stroke="black" stroke-width="1" stroke-dasharray="1,0" class="bNlN2axis1_9"></line><g class="bNlN2axis1_10_g"><text x="-10" y="3" style="text-anchor: end; font-size: 12px; font-weight: normal; font-family: Arial; font-style: normal;" transform="rotate(0,-10,3)" dominant-baseline="auto" fill="black" class="bNlN2axis1_10">1.7</text></g></g><g class="bNlN2axis1_8" transform="translate(0,-90)"><line x1="0" y1="0" x2="-5" y2="0" stroke="black" stroke-width="1" stroke-dasharray="1,0" class="bNlN2axis1_9"></line><g class="bNlN2axis1_10_g"><text x="-10" y="3" style="text-anchor: end; font-size: 12px; font-weight: normal; font-family: Arial; font-style: normal;" transform="rotate(0,-10,3)" dominant-baseline="auto" fill="black" class="bNlN2axis1_10">2.2</text></g></g><g class="bNlN2axis1_8" transform="translate(0,-130)"><line x1="0" y1="0" x2="-5" y2="0" stroke="black" stroke-width="1" stroke-dasharray="1,0" class="bNlN2axis1_9"></line><g class="bNlN2axis1_10_g"><text x="-10" y="3" style="text-anchor: end; font-size: 12px; font-weight: normal; font-family: Arial; font-style: normal;" transform="rotate(0,-10,3)" dominant-baseline="auto" fill="black" class="bNlN2axis1_10">2.7</text></g></g><g class="bNlN2axis1_8" transform="translate(0,-170)"><line x1="0" y1="0" x2="-5" y2="0" stroke="black" stroke-width="1" stroke-dasharray="1,0" class="bNlN2axis1_9"></line><g class="bNlN2axis1_10_g"><text x="-10" y="3" style="text-anchor: end; font-size: 12px; font-weight: normal; font-family: Arial; font-style: normal;" transform="rotate(0,-10,3)" dominant-baseline="auto" fill="black" class="bNlN2axis1_10">3.2</text></g></g><g class="bNlN2axis1_8" transform="translate(0,-210)"><line x1="0" y1="0" x2="-5" y2="0" stroke="black" stroke-width="1" stroke-dasharray="1,0" class="bNlN2axis1_9"></line><g class="bNlN2axis1_10_g"><text x="-10" y="3" style="text-anchor: end; font-size: 12px; font-weight: normal; font-family: Arial; font-style: normal;" transform="rotate(0,-10,3)" dominant-baseline="auto" fill="black" class="bNlN2axis1_10">3.7</text></g></g></g><g class="group2" transform="translate(106.66666666666666,-82)"><circle cx="0" cy="0" r="2" stroke="black" stroke-width="0" stroke-dasharray="1,1" fill="#ee2b2b" fill-opacity="1" class="dot1"></circle></g><g class="group2" transform="translate(133.33333333333334,-97.99999999999997)"><circle cx="0" cy="0" r="2" stroke="black" stroke-width="0" stroke-dasharray="1,1" fill="#ee2b2b" fill-opacity="1" class="dot1"></circle></g><g class="group2" transform="translate(101.66666666666667,-73.99999999999999)"><circle cx="0" cy="0" r="2" stroke="black" stroke-width="0" stroke-dasharray="1,1" fill="#ee2b2b" fill-opacity="1" class="dot1"></circle></g><g class="group2" transform="translate(141.66666666666669,-105.99999999999997)"><circle cx="0" cy="0" r="2" stroke="black" stroke-width="0" stroke-dasharray="1,1" fill="#ee2b2b" fill-opacity="1" class="dot1"></circle></g><g class="group2" transform="translate(114.99999999999999,-90)"><circle cx="0" cy="0" r="2" stroke="black" stroke-width="0" stroke-dasharray="1,1" fill="#ee2b2b" fill-opacity="1" class="dot1"></circle></g><g class="group2" transform="translate(161.66666666666669,-137.99999999999997)"><circle cx="0" cy="0" r="2" stroke="black" stroke-width="0" stroke-dasharray="1,1" fill="#2b65ee" fill-opacity="1" class="dot1"></circle></g><g class="group2" transform="translate(173.33333333333331,-154)"><circle cx="0" cy="0" r="2" stroke="black" stroke-width="0" stroke-dasharray="1,1" fill="#2b65ee" fill-opacity="1" class="dot1"></circle></g><g class="group2" transform="translate(150,-130)"><circle cx="0" cy="0" r="2" stroke="black" stroke-width="0" stroke-dasharray="1,1" fill="#2b65ee" fill-opacity="1" class="dot1"></circle></g><g class="group2" transform="translate(188.33333333333334,-170)"><circle cx="0" cy="0" r="2" stroke="black" stroke-width="0" stroke-dasharray="1,1" fill="#2b65ee" fill-opacity="1" class="dot1"></circle></g><g class="group2" transform="translate(168.33333333333331,-145.99999999999997)"><circle cx="0" cy="0" r="2" stroke="black" stroke-width="0" stroke-dasharray="1,1" fill="#2b65ee" fill-opacity="1" class="dot1"></circle></g><g class="group2" transform="translate(58.33333333333334,-49.99999999999998)"><circle cx="0" cy="0" r="2" stroke="black" stroke-width="0" stroke-dasharray="1,1" fill="#2bee41" fill-opacity="1" class="dot1"></circle></g><g class="group2" transform="translate(50.000000000000014,-41.99999999999999)"><circle cx="0" cy="0" r="2" stroke="black" stroke-width="0" stroke-dasharray="1,1" fill="#2bee41" fill-opacity="1" class="dot1"></circle></g><g class="group2" transform="translate(71.66666666666666,-57.999999999999986)"><circle cx="0" cy="0" r="2" stroke="black" stroke-width="0" stroke-dasharray="1,1" fill="#2bee41" fill-opacity="1" class="dot1"></circle></g><g class="group2" transform="translate(64.99999999999999,-49.99999999999998)"><circle cx="0" cy="0" r="2" stroke="black" stroke-width="0" stroke-dasharray="1,1" fill="#2bee41" fill-opacity="1" class="dot1"></circle></g><g class="group2" transform="translate(45,-33.999999999999986)"><circle cx="0" cy="0" r="2" stroke="black" stroke-width="0" stroke-dasharray="1,1" fill="#2bee41" fill-opacity="1" class="dot1"></circle></g><g class="group2" transform="translate(121.66666666666669,-97.99999999999997)"><circle cx="0" cy="0" r="2" stroke="black" stroke-width="0" stroke-dasharray="1,1" fill="#ee2b2b" fill-opacity="1" class="dot1"></circle></g><g class="group2" transform="translate(178.33333333333331,-162)"><circle cx="0" cy="0" r="2" stroke="black" stroke-width="0" stroke-dasharray="1,1" fill="#2b65ee" fill-opacity="1" class="dot1"></circle></g><g class="group2" transform="translate(68.33333333333334,-57.999999999999986)"><circle cx="0" cy="0" r="2" stroke="black" stroke-width="0" stroke-dasharray="1,1" fill="#2bee41" fill-opacity="1" class="dot1"></circle></g><g class="group6" transform="translate(0,0)"><ellipse cx="120" cy="-91.33331999999999" rx="40.98018302826432" ry="7.363099100318481" stroke="#ee2b2b" stroke-width="0.5" stroke-dasharray="1,0" fill="none" fill-opacity="1" transform="rotate(-36.151003117662825,120,-91.33331999999999)" class="ellipse1"></ellipse></g><g class="group6" transform="translate(0,0)"><ellipse cx="170" cy="-150" rx="42.774173678154206" ry="4.54159361704679" stroke="#2b65ee" stroke-width="0.5" stroke-dasharray="1,0" fill="none" fill-opacity="1" transform="rotate(-48.01704684603,170,-150)" class="ellipse1"></ellipse></g><g class="group6" transform="translate(0,0)"><ellipse cx="59.722220833333324" cy="-48.66663999999999" rx="29.87031175089435" ry="4.937662545451664" stroke="#2bee41" stroke-width="0.5" stroke-dasharray="1,0" fill="none" fill-opacity="1" transform="rotate(-40.63793377313326,59.722220833333324,-48.66663999999999)" class="ellipse1"></ellipse></g><g class="text2_g"><text x="-40" y="-110" style="text-anchor: middle; font-size: 12px; font-weight: normal; font-family: Arial; font-style: normal;" transform="rotate(-90,-40,-110)" dominant-baseline="middle" fill="black" class="text2">stem_diameter</text></g><g transform="translate(0,0)" class="borderTR1"><line x1="0" y1="-220" x2="240" y2="-220" stroke="black" stroke-width="1" stroke-dasharray="1,0" class="borderTR1_1"></line><line x1="240" y1="0" x2="240" y2="-220" stroke="black" stroke-width="1" stroke-dasharray="1,0" class="borderTR1_2"></line></g><g class="text3_g"><text x="120" y="40" style="text-anchor: middle; font-size: 12px; font-weight: normal; font-family: Arial; font-style: normal;" transform="rotate(0,120,40)" dominant-baseline="middle" fill="black" class="text3">height</text></g></g><g transform="translate(280,-200)" class="group4"><g class="dotLegend1" transform="translate(0,0)"><circle cx="0" cy="0" r="3" stroke="" stroke-width="" stroke-dasharray="" fill="#ee2b2b" fill-opacity="1" class="dotLegend1_1"></circle><g class="dotLegend1_2_g"><text x="10" y="0" style="text-anchor: start; font-size: 12px; font-weight: normal; font-family: Arial; font-style: normal;" transform="rotate(0,10,0)" dominant-baseline="middle" fill="black" class="dotLegend1_2">A</text></g></g><g class="dotLegend1" transform="translate(0,20)"><circle cx="0" cy="0" r="3" stroke="" stroke-width="" stroke-dasharray="" fill="#2b65ee" fill-opacity="1" class="dotLegend1_1"></circle><g class="dotLegend1_2_g"><text x="10" y="0" style="text-anchor: start; font-size: 12px; font-weight: normal; font-family: Arial; font-style: normal;" transform="rotate(0,10,0)" dominant-baseline="middle" fill="black" class="dotLegend1_2">B</text></g></g><g class="dotLegend1" transform="translate(0,40)"><circle cx="0" cy="0" r="3" stroke="" stroke-width="" stroke-dasharray="" fill="#2bee41" fill-opacity="1" class="dotLegend1_1"></circle><g class="dotLegend1_2_g"><text x="10" y="0" style="text-anchor: start; font-size: 12px; font-weight: normal; font-family: Arial; font-style: normal;" transform="rotate(0,10,0)" dominant-baseline="middle" fill="black" class="dotLegend1_2">C</text></g></g><g class="text4_g"><text x="0" y="-16" style="text-anchor: start; font-size: 12px; font-weight: normal; font-family: Arial; font-style: normal;" transform="rotate(0,0,-16)" dominant-baseline="auto" fill="black" class="text4"></text></g></g></g></svg>
