<svg width="450" height="450" id="ngplotSvg"><g transform="translate(100,300)" class="group1"><g transform="translate(0,0)" class="bNlN2axis1"><g transform="translate(0,0)" class="bNlN2axis1_1"><line x1="0" y1="0" x2="240" y2="0" stroke="black" stroke-width="1" stroke-dasharray="1,0" class="bNlN2axis1_2"></line><g class="bNlN2axis1_3" transform="translate(20,0)"><line x1="0" y1="0" x2="0" y2="5" stroke="black" stroke-width="1" stroke-dasharray="1,0" class="bNlN2axis1_4"></line><g class="bNlN2axis1_5_g"><text x="0" y="20" style="text-anchor: middle; font-size: 12px; font-weight: normal; font-family: Arial;" transform="rotate(0,0,20)" dominant-baseline="auto" fill="black" class="bNlN2axis1_5">2</text></g></g><g class="bNlN2axis1_3" transform="translate(60,0)"><line x1="0" y1="0" x2="0" y2="5" stroke="black" stroke-width="1" stroke-dasharray="1,0" class="bNlN2axis1_4"></line><g class="bNlN2axis1_5_g"><text x="0" y="20" style="text-anchor: middle; font-size: 12px; font-weight: normal; font-family: Arial;" transform="rotate(0,0,20)" dominant-baseline="auto" fill="black" class="bNlN2axis1_5">12</text></g></g><g class="bNlN2axis1_3" transform="translate(100,0)"><line x1="0" y1="0" x2="0" y2="5" stroke="black" stroke-width="1" stroke-dasharray="1,0" class="bNlN2axis1_4"></line><g class="bNlN2axis1_5_g"><text x="0" y="20" style="text-anchor: middle; font-size: 12px; font-weight: normal; font-family: Arial;" transform="rotate(0,0,20)" dominant-baseline="auto" fill="black" class="bNlN2axis1_5">22</text></g></g><g class="bNlN2axis1_3" transform="translate(140,0)"><line x1="0" y1="0" x2="0" y2="5" stroke="black" stroke-width="1" stroke-dasharray="1,0" class="bNlN2axis1_4"></line><g class="bNlN2axis1_5_g"><text x="0" y="20" style="text-anchor: middle; font-size: 12px; font-weight: normal; font-family: Arial;" transform="rotate(0,0,20)" dominant-baseline="auto" fill="black" class="bNlN2axis1_5">32</text></g></g><g class="bNlN2axis1_3" transform="translate(180,0)"><line x1="0" y1="0" x2="0" y2="5" stroke="black" stroke-width="1" stroke-dasharray="1,0" class="bNlN2axis1_4"></line><g class="bNlN2axis1_5_g"><text x="0" y="20" style="text-anchor: middle; font-size: 12px; font-weight: normal; font-family: Arial;" transform="rotate(0,0,20)" dominant-baseline="auto" fill="black" class="bNlN2axis1_5">42</text></g></g><g class="bNlN2axis1_3" transform="translate(220,0)"><line x1="0" y1="0" x2="0" y2="5" stroke="black" stroke-width="1" stroke-dasharray="1,0" class="bNlN2axis1_4"></line><g class="bNlN2axis1_5_g"><text x="0" y="20" style="text-anchor: middle; font-size: 12px; font-weight: normal; font-family: Arial;" transform="rotate(0,0,20)" dominant-baseline="auto" fill="black" class="bNlN2axis1_5">52</text></g></g></g><g transform="translate(0,0)" class="bNlN2axis1_6"><line x1="0" y1="0" x2="0" y2="-220" stroke="black" stroke-width="1" stroke-dasharray="1,0" class="bNlN2axis1_7"></line><g class="bNlN2axis1_8" transform="translate(0,-20)"><line x1="0" y1="0" x2="-5" y2="0" stroke="black" stroke-width="1" stroke-dasharray="1,0" class="bNlN2axis1_9"></line><g class="bNlN2axis1_10_g"><text x="-10" y="3" style="text-anchor: end; font-size: 12px; font-weight: normal; font-family: Arial;" transform="rotate(0,-10,3)" dominant-baseline="auto" fill="black" class="bNlN2axis1_10">0</text></g></g><g class="bNlN2axis1_8" transform="translate(0,-65)"><line x1="0" y1="0" x2="-5" y2="0" stroke="black" stroke-width="1" stroke-dasharray="1,0" class="bNlN2axis1_9"></line><g class="bNlN2axis1_10_g"><text x="-10" y="3" style="text-anchor: end; font-size: 12px; font-weight: normal; font-family: Arial;" transform="rotate(0,-10,3)" dominant-baseline="auto" fill="black" class="bNlN2axis1_10">5</text></g></g><g class="bNlN2axis1_8" transform="translate(0,-110)"><line x1="0" y1="0" x2="-5" y2="0" stroke="black" stroke-width="1" stroke-dasharray="1,0" class="bNlN2axis1_9"></line><g class="bNlN2axis1_10_g"><text x="-10" y="3" style="text-anchor: end; font-size: 12px; font-weight: normal; font-family: Arial;" transform="rotate(0,-10,3)" dominant-baseline="auto" fill="black" class="bNlN2axis1_10">10</text></g></g><g class="bNlN2axis1_8" transform="translate(0,-155)"><line x1="0" y1="0" x2="-5" y2="0" stroke="black" stroke-width="1" stroke-dasharray="1,0" class="bNlN2axis1_9"></line><g class="bNlN2axis1_10_g"><text x="-10" y="3" style="text-anchor: end; font-size: 12px; font-weight: normal; font-family: Arial;" transform="rotate(0,-10,3)" dominant-baseline="auto" fill="black" class="bNlN2axis1_10">15</text></g></g><g class="bNlN2axis1_8" transform="translate(0,-200)"><line x1="0" y1="0" x2="-5" y2="0" stroke="black" stroke-width="1" stroke-dasharray="1,0" class="bNlN2axis1_9"></line><g class="bNlN2axis1_10_g"><text x="-10" y="3" style="text-anchor: end; font-size: 12px; font-weight: normal; font-family: Arial;" transform="rotate(0,-10,3)" dominant-baseline="auto" fill="black" class="bNlN2axis1_10">20</text></g></g></g><g class="group2" transform="translate(0,-29)"><line x1="68" y1="0" x2="116" y2="0" stroke="#cac4c4" stroke-width="1" stroke-dasharray="1,0" class="line_h3"></line><g class="group5" transform="translate(68,0)"><circle cx="0" cy="0" r="2" stroke="" stroke-width="1" stroke-dasharray="" fill="#0066ff" fill-opacity="1" class="dot1"></circle></g><g class="group5" transform="translate(76,0)"><circle cx="0" cy="0" r="2" stroke="" stroke-width="1" stroke-dasharray="" fill="#0066ff" fill-opacity="1" class="dot1"></circle></g><g class="group5" transform="translate(88.00000000000001,0)"><circle cx="0" cy="0" r="2" stroke="" stroke-width="1" stroke-dasharray="" fill="#0066ff" fill-opacity="1" class="dot1"></circle></g><g class="group5" transform="translate(116,0)"><circle cx="0" cy="0" r="2" stroke="" stroke-width="1" stroke-dasharray="" fill="#0066ff" fill-opacity="1" class="dot1"></circle></g><g class="group5" transform="translate(12,0)"><circle cx="0" cy="0" r="0" stroke="" stroke-width="1" stroke-dasharray="" fill="#0066ff" fill-opacity="1" class="dot1"></circle></g><g class="group5" transform="translate(12,0)"><circle cx="0" cy="0" r="0" stroke="" stroke-width="1" stroke-dasharray="" fill="#0066ff" fill-opacity="1" class="dot1"></circle></g><g class="group5" transform="translate(12,0)"><circle cx="0" cy="0" r="0" stroke="" stroke-width="1" stroke-dasharray="" fill="#0066ff" fill-opacity="1" class="dot1"></circle></g><g class="group5" transform="translate(12,0)"><circle cx="0" cy="0" r="0" stroke="" stroke-width="1" stroke-dasharray="" fill="#0066ff" fill-opacity="1" class="dot1"></circle></g></g><g class="group2" transform="translate(0,-38)"><line x1="44" y1="0" x2="148" y2="0" stroke="#cac4c4" stroke-width="1" stroke-dasharray="1,0" class="line_h3"></line><g class="group5" transform="translate(44,0)"><circle cx="0" cy="0" r="2" stroke="" stroke-width="1" stroke-dasharray="" fill="#0066ff" fill-opacity="1" class="dot1"></circle></g><g class="group5" transform="translate(12,0)"><circle cx="0" cy="0" r="0" stroke="" stroke-width="1" stroke-dasharray="" fill="#0066ff" fill-opacity="1" class="dot1"></circle></g><g class="group5" transform="translate(72,0)"><circle cx="0" cy="0" r="2" stroke="" stroke-width="1" stroke-dasharray="" fill="#0066ff" fill-opacity="1" class="dot1"></circle></g><g class="group5" transform="translate(88.00000000000001,0)"><circle cx="0" cy="0" r="2" stroke="" stroke-width="1" stroke-dasharray="" fill="#0066ff" fill-opacity="1" class="dot1"></circle></g><g class="group5" transform="translate(108,0)"><circle cx="0" cy="0" r="2" stroke="" stroke-width="1" stroke-dasharray="" fill="#0066ff" fill-opacity="1" class="dot1"></circle></g><g class="group5" transform="translate(124,0)"><circle cx="0" cy="0" r="2" stroke="" stroke-width="1" stroke-dasharray="" fill="#0066ff" fill-opacity="1" class="dot1"></circle></g><g class="group5" transform="translate(148,0)"><circle cx="0" cy="0" r="2" stroke="" stroke-width="1" stroke-dasharray="" fill="#0066ff" fill-opacity="1" class="dot1"></circle></g><g class="group5" transform="translate(12,0)"><circle cx="0" cy="0" r="0" stroke="" stroke-width="1" stroke-dasharray="" fill="#0066ff" fill-opacity="1" class="dot1"></circle></g></g><g class="group2" transform="translate(0,-47)"><line x1="92" y1="0" x2="112" y2="0" stroke="#cac4c4" stroke-width="1" stroke-dasharray="1,0" class="line_h3"></line><g class="group5" transform="translate(92,0)"><circle cx="0" cy="0" r="2" stroke="" stroke-width="1" stroke-dasharray="" fill="#0066ff" fill-opacity="1" class="dot1"></circle></g><g class="group5" transform="translate(112,0)"><circle cx="0" cy="0" r="2" stroke="" stroke-width="1" stroke-dasharray="" fill="#0066ff" fill-opacity="1" class="dot1"></circle></g><g class="group5" transform="translate(12,0)"><circle cx="0" cy="0" r="0" stroke="" stroke-width="1" stroke-dasharray="" fill="#0066ff" fill-opacity="1" class="dot1"></circle></g><g class="group5" transform="translate(12,0)"><circle cx="0" cy="0" r="0" stroke="" stroke-width="1" stroke-dasharray="" fill="#0066ff" fill-opacity="1" class="dot1"></circle></g><g class="group5" transform="translate(12,0)"><circle cx="0" cy="0" r="0" stroke="" stroke-width="1" stroke-dasharray="" fill="#0066ff" fill-opacity="1" class="dot1"></circle></g><g class="group5" transform="translate(12,0)"><circle cx="0" cy="0" r="0" stroke="" stroke-width="1" stroke-dasharray="" fill="#0066ff" fill-opacity="1" class="dot1"></circle></g><g class="group5" transform="translate(12,0)"><circle cx="0" cy="0" r="0" stroke="" stroke-width="1" stroke-dasharray="" fill="#0066ff" fill-opacity="1" class="dot1"></circle></g><g class="group5" transform="translate(12,0)"><circle cx="0" cy="0" r="0" stroke="" stroke-width="1" stroke-dasharray="" fill="#0066ff" fill-opacity="1" class="dot1"></circle></g></g><g class="group2" transform="translate(0,-56)"><line x1="40" y1="0" x2="152.00000000000003" y2="0" stroke="#cac4c4" stroke-width="1" stroke-dasharray="1,0" class="line_h3"></line><g class="group5" transform="translate(40,0)"><circle cx="0" cy="0" r="2" stroke="" stroke-width="1" stroke-dasharray="" fill="#0066ff" fill-opacity="1" class="dot1"></circle></g><g class="group5" transform="translate(48,0)"><circle cx="0" cy="0" r="2" stroke="" stroke-width="1" stroke-dasharray="" fill="#0066ff" fill-opacity="1" class="dot1"></circle></g><g class="group5" transform="translate(68,0)"><circle cx="0" cy="0" r="2" stroke="" stroke-width="1" stroke-dasharray="" fill="#0066ff" fill-opacity="1" class="dot1"></circle></g><g class="group5" transform="translate(80,0)"><circle cx="0" cy="0" r="2" stroke="" stroke-width="1" stroke-dasharray="" fill="#0066ff" fill-opacity="1" class="dot1"></circle></g><g class="group5" transform="translate(104,0)"><circle cx="0" cy="0" r="2" stroke="" stroke-width="1" stroke-dasharray="" fill="#0066ff" fill-opacity="1" class="dot1"></circle></g><g class="group5" transform="translate(152.00000000000003,0)"><circle cx="0" cy="0" r="2" stroke="" stroke-width="1" stroke-dasharray="" fill="#0066ff" fill-opacity="1" class="dot1"></circle></g><g class="group5" transform="translate(12,0)"><circle cx="0" cy="0" r="0" stroke="" stroke-width="1" stroke-dasharray="" fill="#0066ff" fill-opacity="1" class="dot1"></circle></g><g class="group5" transform="translate(12,0)"><circle cx="0" cy="0" r="0" stroke="" stroke-width="1" stroke-dasharray="" fill="#0066ff" fill-opacity="1" class="dot1"></circle></g></g><g class="group2" transform="translate(0,-65)"><line x1="68" y1="0" x2="132.00000000000003" y2="0" stroke="#cac4c4" stroke-width="1" stroke-dasharray="1,0" class="line_h3"></line><g class="group5" transform="translate(68,0)"><circle cx="0" cy="0" r="2" stroke="" stroke-width="1" stroke-dasharray="" fill="#0066ff" fill-opacity="1" class="dot1"></circle></g><g class="group5" transform="translate(92,0)"><circle cx="0" cy="0" r="2" stroke="" stroke-width="1" stroke-dasharray="" fill="#0066ff" fill-opacity="1" class="dot1"></circle></g><g class="group5" transform="translate(132.00000000000003,0)"><circle cx="0" cy="0" r="2" stroke="" stroke-width="1" stroke-dasharray="" fill="#0066ff" fill-opacity="1" class="dot1"></circle></g><g class="group5" transform="translate(12,0)"><circle cx="0" cy="0" r="0" stroke="" stroke-width="1" stroke-dasharray="" fill="#0066ff" fill-opacity="1" class="dot1"></circle></g><g class="group5" transform="translate(12,0)"><circle cx="0" cy="0" r="0" stroke="" stroke-width="1" stroke-dasharray="" fill="#0066ff" fill-opacity="1" class="dot1"></circle></g><g class="group5" transform="translate(12,0)"><circle cx="0" cy="0" r="0" stroke="" stroke-width="1" stroke-dasharray="" fill="#0066ff" fill-opacity="1" class="dot1"></circle></g><g class="group5" transform="translate(12,0)"><circle cx="0" cy="0" r="0" stroke="" stroke-width="1" stroke-dasharray="" fill="#0066ff" fill-opacity="1" class="dot1"></circle></g><g class="group5" transform="translate(12,0)"><circle cx="0" cy="0" r="0" stroke="" stroke-width="1" stroke-dasharray="" fill="#0066ff" fill-opacity="1" class="dot1"></circle></g></g><g class="group2" transform="translate(0,-74)"><line x1="68" y1="0" x2="96" y2="0" stroke="#cac4c4" stroke-width="1" stroke-dasharray="1,0" class="line_h3"></line><g class="group5" transform="translate(68,0)"><circle cx="0" cy="0" r="2" stroke="" stroke-width="1" stroke-dasharray="" fill="#0066ff" fill-opacity="1" class="dot1"></circle></g><g class="group5" transform="translate(96,0)"><circle cx="0" cy="0" r="2" stroke="" stroke-width="1" stroke-dasharray="" fill="#0066ff" fill-opacity="1" class="dot1"></circle></g><g class="group5" transform="translate(12,0)"><circle cx="0" cy="0" r="0" stroke="" stroke-width="1" stroke-dasharray="" fill="#0066ff" fill-opacity="1" class="dot1"></circle></g><g class="group5" transform="translate(12,0)"><circle cx="0" cy="0" r="0" stroke="" stroke-width="1" stroke-dasharray="" fill="#0066ff" fill-opacity="1" class="dot1"></circle></g><g class="group5" transform="translate(12,0)"><circle cx="0" cy="0" r="0" stroke="" stroke-width="1" stroke-dasharray="" fill="#0066ff" fill-opacity="1" class="dot1"></circle></g><g class="group5" transform="translate(12,0)"><circle cx="0" cy="0" r="0" stroke="" stroke-width="1" stroke-dasharray="" fill="#0066ff" fill-opacity="1" class="dot1"></circle></g><g class="group5" transform="translate(12,0)"><circle cx="0" cy="0" r="0" stroke="" stroke-width="1" stroke-dasharray="" fill="#0066ff" fill-opacity="1" class="dot1"></circle></g><g class="group5" transform="translate(12,0)"><circle cx="0" cy="0" r="0" stroke="" stroke-width="1" stroke-dasharray="" fill="#0066ff" fill-opacity="1" class="dot1"></circle></g></g><g class="group2" transform="translate(0,-83)"><line x1="60" y1="0" x2="164" y2="0" stroke="#cac4c4" stroke-width="1" stroke-dasharray="1,0" class="line_h3"></line><g class="group5" transform="translate(60,0)"><circle cx="0" cy="0" r="2" stroke="" stroke-width="1" stroke-dasharray="" fill="#0066ff" fill-opacity="1" class="dot1"></circle></g><g class="group5" transform="translate(80,0)"><circle cx="0" cy="0" r="2" stroke="" stroke-width="1" stroke-dasharray="" fill="#0066ff" fill-opacity="1" class="dot1"></circle></g><g class="group5" transform="translate(92,0)"><circle cx="0" cy="0" r="2" stroke="" stroke-width="1" stroke-dasharray="" fill="#0066ff" fill-opacity="1" class="dot1"></circle></g><g class="group5" transform="translate(136,0)"><circle cx="0" cy="0" r="2" stroke="" stroke-width="1" stroke-dasharray="" fill="#0066ff" fill-opacity="1" class="dot1"></circle></g><g class="group5" transform="translate(164,0)"><circle cx="0" cy="0" r="2" stroke="" stroke-width="1" stroke-dasharray="" fill="#0066ff" fill-opacity="1" class="dot1"></circle></g><g class="group5" transform="translate(12,0)"><circle cx="0" cy="0" r="0" stroke="" stroke-width="1" stroke-dasharray="" fill="#0066ff" fill-opacity="1" class="dot1"></circle></g><g class="group5" transform="translate(12,0)"><circle cx="0" cy="0" r="0" stroke="" stroke-width="1" stroke-dasharray="" fill="#0066ff" fill-opacity="1" class="dot1"></circle></g><g class="group5" transform="translate(12,0)"><circle cx="0" cy="0" r="0" stroke="" stroke-width="1" stroke-dasharray="" fill="#0066ff" fill-opacity="1" class="dot1"></circle></g></g><g class="group2" transform="translate(0,-92)"><line x1="40" y1="0" x2="72" y2="0" stroke="#cac4c4" stroke-width="1" stroke-dasharray="1,0" class="line_h3"></line><g class="group5" transform="translate(40,0)"><circle cx="0" cy="0" r="2" stroke="" stroke-width="1" stroke-dasharray="" fill="red" fill-opacity="1" class="dot1"></circle></g><g class="group5" transform="translate(52,0)"><circle cx="0" cy="0" r="2" stroke="" stroke-width="1" stroke-dasharray="" fill="red" fill-opacity="1" class="dot1"></circle></g><g class="group5" transform="translate(60,0)"><circle cx="0" cy="0" r="2" stroke="" stroke-width="1" stroke-dasharray="" fill="red" fill-opacity="1" class="dot1"></circle></g><g class="group5" transform="translate(72,0)"><circle cx="0" cy="0" r="2" stroke="" stroke-width="1" stroke-dasharray="" fill="red" fill-opacity="1" class="dot1"></circle></g><g class="group5" transform="translate(12,0)"><circle cx="0" cy="0" r="0" stroke="" stroke-width="1" stroke-dasharray="" fill="red" fill-opacity="1" class="dot1"></circle></g><g class="group5" transform="translate(12,0)"><circle cx="0" cy="0" r="0" stroke="" stroke-width="1" stroke-dasharray="" fill="red" fill-opacity="1" class="dot1"></circle></g><g class="group5" transform="translate(12,0)"><circle cx="0" cy="0" r="0" stroke="" stroke-width="1" stroke-dasharray="" fill="red" fill-opacity="1" class="dot1"></circle></g><g class="group5" transform="translate(12,0)"><circle cx="0" cy="0" r="0" stroke="" stroke-width="1" stroke-dasharray="" fill="red" fill-opacity="1" class="dot1"></circle></g></g><g class="group2" transform="translate(0,-101)"><line x1="56" y1="0" x2="108" y2="0" stroke="#cac4c4" stroke-width="1" stroke-dasharray="1,0" class="line_h3"></line><g class="group5" transform="translate(56,0)"><circle cx="0" cy="0" r="2" stroke="" stroke-width="1" stroke-dasharray="" fill="red" fill-opacity="1" class="dot1"></circle></g><g class="group5" transform="translate(72,0)"><circle cx="0" cy="0" r="2" stroke="" stroke-width="1" stroke-dasharray="" fill="red" fill-opacity="1" class="dot1"></circle></g><g class="group5" transform="translate(88.00000000000001,0)"><circle cx="0" cy="0" r="2" stroke="" stroke-width="1" stroke-dasharray="" fill="red" fill-opacity="1" class="dot1"></circle></g><g class="group5" transform="translate(108,0)"><circle cx="0" cy="0" r="2" stroke="" stroke-width="1" stroke-dasharray="" fill="red" fill-opacity="1" class="dot1"></circle></g><g class="group5" transform="translate(12,0)"><circle cx="0" cy="0" r="0" stroke="" stroke-width="1" stroke-dasharray="" fill="red" fill-opacity="1" class="dot1"></circle></g><g class="group5" transform="translate(12,0)"><circle cx="0" cy="0" r="0" stroke="" stroke-width="1" stroke-dasharray="" fill="red" fill-opacity="1" class="dot1"></circle></g><g class="group5" transform="translate(12,0)"><circle cx="0" cy="0" r="0" stroke="" stroke-width="1" stroke-dasharray="" fill="red" fill-opacity="1" class="dot1"></circle></g><g class="group5" transform="translate(12,0)"><circle cx="0" cy="0" r="0" stroke="" stroke-width="1" stroke-dasharray="" fill="red" fill-opacity="1" class="dot1"></circle></g></g><g class="group2" transform="translate(0,-110)"><line x1="44" y1="0" x2="144" y2="0" stroke="#cac4c4" stroke-width="1" stroke-dasharray="1,0" class="line_h3"></line><g class="group5" transform="translate(44,0)"><circle cx="0" cy="0" r="2" stroke="" stroke-width="1" stroke-dasharray="" fill="red" fill-opacity="1" class="dot1"></circle></g><g class="group5" transform="translate(52,0)"><circle cx="0" cy="0" r="2" stroke="" stroke-width="1" stroke-dasharray="" fill="red" fill-opacity="1" class="dot1"></circle></g><g class="group5" transform="translate(68,0)"><circle cx="0" cy="0" r="2" stroke="" stroke-width="1" stroke-dasharray="" fill="red" fill-opacity="1" class="dot1"></circle></g><g class="group5" transform="translate(112,0)"><circle cx="0" cy="0" r="2" stroke="" stroke-width="1" stroke-dasharray="" fill="red" fill-opacity="1" class="dot1"></circle></g><g class="group5" transform="translate(120,0)"><circle cx="0" cy="0" r="2" stroke="" stroke-width="1" stroke-dasharray="" fill="red" fill-opacity="1" class="dot1"></circle></g><g class="group5" transform="translate(132.00000000000003,0)"><circle cx="0" cy="0" r="2" stroke="" stroke-width="1" stroke-dasharray="" fill="red" fill-opacity="1" class="dot1"></circle></g><g class="group5" transform="translate(144,0)"><circle cx="0" cy="0" r="2" stroke="" stroke-width="1" stroke-dasharray="" fill="red" fill-opacity="1" class="dot1"></circle></g><g class="group5" transform="translate(12,0)"><circle cx="0" cy="0" r="0" stroke="" stroke-width="1" stroke-dasharray="" fill="red" fill-opacity="1" class="dot1"></circle></g></g><g class="group2" transform="translate(0,-119.00000000000001)"><line x1="56" y1="0" x2="124" y2="0" stroke="#cac4c4" stroke-width="1" stroke-dasharray="1,0" class="line_h3"></line><g class="group5" transform="translate(56,0)"><circle cx="0" cy="0" r="2" stroke="" stroke-width="1" stroke-dasharray="" fill="red" fill-opacity="1" class="dot1"></circle></g><g class="group5" transform="translate(68,0)"><circle cx="0" cy="0" r="2" stroke="" stroke-width="1" stroke-dasharray="" fill="red" fill-opacity="1" class="dot1"></circle></g><g class="group5" transform="translate(88.00000000000001,0)"><circle cx="0" cy="0" r="2" stroke="" stroke-width="1" stroke-dasharray="" fill="red" fill-opacity="1" class="dot1"></circle></g><g class="group5" transform="translate(124,0)"><circle cx="0" cy="0" r="2" stroke="" stroke-width="1" stroke-dasharray="" fill="red" fill-opacity="1" class="dot1"></circle></g><g class="group5" transform="translate(12,0)"><circle cx="0" cy="0" r="0" stroke="" stroke-width="1" stroke-dasharray="" fill="red" fill-opacity="1" class="dot1"></circle></g><g class="group5" transform="translate(12,0)"><circle cx="0" cy="0" r="0" stroke="" stroke-width="1" stroke-dasharray="" fill="red" fill-opacity="1" class="dot1"></circle></g><g class="group5" transform="translate(12,0)"><circle cx="0" cy="0" r="0" stroke="" stroke-width="1" stroke-dasharray="" fill="red" fill-opacity="1" class="dot1"></circle></g><g class="group5" transform="translate(12,0)"><circle cx="0" cy="0" r="0" stroke="" stroke-width="1" stroke-dasharray="" fill="red" fill-opacity="1" class="dot1"></circle></g></g><g class="group2" transform="translate(0,-128)"><line x1="88.00000000000001" y1="0" x2="180" y2="0" stroke="#cac4c4" stroke-width="1" stroke-dasharray="1,0" class="line_h3"></line><g class="group5" transform="translate(88.00000000000001,0)"><circle cx="0" cy="0" r="2" stroke="" stroke-width="1" stroke-dasharray="" fill="red" fill-opacity="1" class="dot1"></circle></g><g class="group5" transform="translate(104,0)"><circle cx="0" cy="0" r="2" stroke="" stroke-width="1" stroke-dasharray="" fill="red" fill-opacity="1" class="dot1"></circle></g><g class="group5" transform="translate(116,0)"><circle cx="0" cy="0" r="2" stroke="" stroke-width="1" stroke-dasharray="" fill="red" fill-opacity="1" class="dot1"></circle></g><g class="group5" transform="translate(132.00000000000003,0)"><circle cx="0" cy="0" r="2" stroke="" stroke-width="1" stroke-dasharray="" fill="red" fill-opacity="1" class="dot1"></circle></g><g class="group5" transform="translate(156.00000000000003,0)"><circle cx="0" cy="0" r="2" stroke="" stroke-width="1" stroke-dasharray="" fill="red" fill-opacity="1" class="dot1"></circle></g><g class="group5" transform="translate(180,0)"><circle cx="0" cy="0" r="2" stroke="" stroke-width="1" stroke-dasharray="" fill="red" fill-opacity="1" class="dot1"></circle></g><g class="group5" transform="translate(12,0)"><circle cx="0" cy="0" r="0" stroke="" stroke-width="1" stroke-dasharray="" fill="red" fill-opacity="1" class="dot1"></circle></g><g class="group5" transform="translate(12,0)"><circle cx="0" cy="0" r="0" stroke="" stroke-width="1" stroke-dasharray="" fill="red" fill-opacity="1" class="dot1"></circle></g></g><g class="group2" transform="translate(0,-137)"><line x1="60" y1="0" x2="180" y2="0" stroke="#cac4c4" stroke-width="1" stroke-dasharray="1,0" class="line_h3"></line><g class="group5" transform="translate(60,0)"><circle cx="0" cy="0" r="2" stroke="" stroke-width="1" stroke-dasharray="" fill="red" fill-opacity="1" class="dot1"></circle></g><g class="group5" transform="translate(76,0)"><circle cx="0" cy="0" r="2" stroke="" stroke-width="1" stroke-dasharray="" fill="red" fill-opacity="1" class="dot1"></circle></g><g class="group5" transform="translate(132.00000000000003,0)"><circle cx="0" cy="0" r="2" stroke="" stroke-width="1" stroke-dasharray="" fill="red" fill-opacity="1" class="dot1"></circle></g><g class="group5" transform="translate(152.00000000000003,0)"><circle cx="0" cy="0" r="2" stroke="" stroke-width="1" stroke-dasharray="" fill="red" fill-opacity="1" class="dot1"></circle></g><g class="group5" transform="translate(180,0)"><circle cx="0" cy="0" r="2" stroke="" stroke-width="1" stroke-dasharray="" fill="red" fill-opacity="1" class="dot1"></circle></g><g class="group5" transform="translate(12,0)"><circle cx="0" cy="0" r="0" stroke="" stroke-width="1" stroke-dasharray="" fill="red" fill-opacity="1" class="dot1"></circle></g><g class="group5" transform="translate(12,0)"><circle cx="0" cy="0" r="0" stroke="" stroke-width="1" stroke-dasharray="" fill="red" fill-opacity="1" class="dot1"></circle></g><g class="group5" transform="translate(12,0)"><circle cx="0" cy="0" r="0" stroke="" stroke-width="1" stroke-dasharray="" fill="red" fill-opacity="1" class="dot1"></circle></g></g><g class="group2" transform="translate(0,-146)"><line x1="52" y1="0" x2="136" y2="0" stroke="#cac4c4" stroke-width="1" stroke-dasharray="1,0" class="line_h3"></line><g class="group5" transform="translate(52,0)"><circle cx="0" cy="0" r="2" stroke="" stroke-width="1" stroke-dasharray="" fill="red" fill-opacity="1" class="dot1"></circle></g><g class="group5" transform="translate(64,0)"><circle cx="0" cy="0" r="2" stroke="" stroke-width="1" stroke-dasharray="" fill="red" fill-opacity="1" class="dot1"></circle></g><g class="group5" transform="translate(80,0)"><circle cx="0" cy="0" r="2" stroke="" stroke-width="1" stroke-dasharray="" fill="red" fill-opacity="1" class="dot1"></circle></g><g class="group5" transform="translate(136,0)"><circle cx="0" cy="0" r="2" stroke="" stroke-width="1" stroke-dasharray="" fill="red" fill-opacity="1" class="dot1"></circle></g><g class="group5" transform="translate(12,0)"><circle cx="0" cy="0" r="0" stroke="" stroke-width="1" stroke-dasharray="" fill="red" fill-opacity="1" class="dot1"></circle></g><g class="group5" transform="translate(12,0)"><circle cx="0" cy="0" r="0" stroke="" stroke-width="1" stroke-dasharray="" fill="red" fill-opacity="1" class="dot1"></circle></g><g class="group5" transform="translate(12,0)"><circle cx="0" cy="0" r="0" stroke="" stroke-width="1" stroke-dasharray="" fill="red" fill-opacity="1" class="dot1"></circle></g><g class="group5" transform="translate(12,0)"><circle cx="0" cy="0" r="0" stroke="" stroke-width="1" stroke-dasharray="" fill="red" fill-opacity="1" class="dot1"></circle></g></g><g class="group2" transform="translate(0,-155)"><line x1="44" y1="0" x2="192" y2="0" stroke="#cac4c4" stroke-width="1" stroke-dasharray="1,0" class="line_h3"></line><g class="group5" transform="translate(44,0)"><circle cx="0" cy="0" r="2" stroke="" stroke-width="1" stroke-dasharray="" fill="#ffcc00" fill-opacity="1" class="dot1"></circle></g><g class="group5" transform="translate(64,0)"><circle cx="0" cy="0" r="2" stroke="" stroke-width="1" stroke-dasharray="" fill="#ffcc00" fill-opacity="1" class="dot1"></circle></g><g class="group5" transform="translate(92,0)"><circle cx="0" cy="0" r="2" stroke="" stroke-width="1" stroke-dasharray="" fill="#ffcc00" fill-opacity="1" class="dot1"></circle></g><g class="group5" transform="translate(104,0)"><circle cx="0" cy="0" r="2" stroke="" stroke-width="1" stroke-dasharray="" fill="#ffcc00" fill-opacity="1" class="dot1"></circle></g><g class="group5" transform="translate(108,0)"><circle cx="0" cy="0" r="2" stroke="" stroke-width="1" stroke-dasharray="" fill="#ffcc00" fill-opacity="1" class="dot1"></circle></g><g class="group5" transform="translate(132.00000000000003,0)"><circle cx="0" cy="0" r="2" stroke="" stroke-width="1" stroke-dasharray="" fill="#ffcc00" fill-opacity="1" class="dot1"></circle></g><g class="group5" transform="translate(160,0)"><circle cx="0" cy="0" r="2" stroke="" stroke-width="1" stroke-dasharray="" fill="#ffcc00" fill-opacity="1" class="dot1"></circle></g><g class="group5" transform="translate(192,0)"><circle cx="0" cy="0" r="2" stroke="" stroke-width="1" stroke-dasharray="" fill="#ffcc00" fill-opacity="1" class="dot1"></circle></g></g><g class="group2" transform="translate(0,-164)"><line x1="48" y1="0" x2="92" y2="0" stroke="#cac4c4" stroke-width="1" stroke-dasharray="1,0" class="line_h3"></line><g class="group5" transform="translate(48,0)"><circle cx="0" cy="0" r="2" stroke="" stroke-width="1" stroke-dasharray="" fill="#ffcc00" fill-opacity="1" class="dot1"></circle></g><g class="group5" transform="translate(68,0)"><circle cx="0" cy="0" r="2" stroke="" stroke-width="1" stroke-dasharray="" fill="#ffcc00" fill-opacity="1" class="dot1"></circle></g><g class="group5" transform="translate(92,0)"><circle cx="0" cy="0" r="2" stroke="" stroke-width="1" stroke-dasharray="" fill="#ffcc00" fill-opacity="1" class="dot1"></circle></g><g class="group5" transform="translate(12,0)"><circle cx="0" cy="0" r="0" stroke="" stroke-width="1" stroke-dasharray="" fill="#ffcc00" fill-opacity="1" class="dot1"></circle></g><g class="group5" transform="translate(12,0)"><circle cx="0" cy="0" r="0" stroke="" stroke-width="1" stroke-dasharray="" fill="#ffcc00" fill-opacity="1" class="dot1"></circle></g><g class="group5" transform="translate(12,0)"><circle cx="0" cy="0" r="0" stroke="" stroke-width="1" stroke-dasharray="" fill="#ffcc00" fill-opacity="1" class="dot1"></circle></g><g class="group5" transform="translate(12,0)"><circle cx="0" cy="0" r="0" stroke="" stroke-width="1" stroke-dasharray="" fill="#ffcc00" fill-opacity="1" class="dot1"></circle></g><g class="group5" transform="translate(12,0)"><circle cx="0" cy="0" r="0" stroke="" stroke-width="1" stroke-dasharray="" fill="#ffcc00" fill-opacity="1" class="dot1"></circle></g></g><g class="group2" transform="translate(0,-173)"><line x1="44" y1="0" x2="96" y2="0" stroke="#cac4c4" stroke-width="1" stroke-dasharray="1,0" class="line_h3"></line><g class="group5" transform="translate(44,0)"><circle cx="0" cy="0" r="2" stroke="" stroke-width="1" stroke-dasharray="" fill="#ffcc00" fill-opacity="1" class="dot1"></circle></g><g class="group5" transform="translate(60,0)"><circle cx="0" cy="0" r="2" stroke="" stroke-width="1" stroke-dasharray="" fill="#ffcc00" fill-opacity="1" class="dot1"></circle></g><g class="group5" transform="translate(76,0)"><circle cx="0" cy="0" r="2" stroke="" stroke-width="1" stroke-dasharray="" fill="#ffcc00" fill-opacity="1" class="dot1"></circle></g><g class="group5" transform="translate(96,0)"><circle cx="0" cy="0" r="2" stroke="" stroke-width="1" stroke-dasharray="" fill="#ffcc00" fill-opacity="1" class="dot1"></circle></g><g class="group5" transform="translate(12,0)"><circle cx="0" cy="0" r="0" stroke="" stroke-width="1" stroke-dasharray="" fill="#ffcc00" fill-opacity="1" class="dot1"></circle></g><g class="group5" transform="translate(12,0)"><circle cx="0" cy="0" r="0" stroke="" stroke-width="1" stroke-dasharray="" fill="#ffcc00" fill-opacity="1" class="dot1"></circle></g><g class="group5" transform="translate(12,0)"><circle cx="0" cy="0" r="0" stroke="" stroke-width="1" stroke-dasharray="" fill="#ffcc00" fill-opacity="1" class="dot1"></circle></g><g class="group5" transform="translate(12,0)"><circle cx="0" cy="0" r="0" stroke="" stroke-width="1" stroke-dasharray="" fill="#ffcc00" fill-opacity="1" class="dot1"></circle></g></g><g class="group2" transform="translate(0,-182)"><line x1="52" y1="0" x2="120" y2="0" stroke="#cac4c4" stroke-width="1" stroke-dasharray="1,0" class="line_h3"></line><g class="group5" transform="translate(52,0)"><circle cx="0" cy="0" r="2" stroke="" stroke-width="1" stroke-dasharray="" fill="#ffcc00" fill-opacity="1" class="dot1"></circle></g><g class="group5" transform="translate(64,0)"><circle cx="0" cy="0" r="2" stroke="" stroke-width="1" stroke-dasharray="" fill="#ffcc00" fill-opacity="1" class="dot1"></circle></g><g class="group5" transform="translate(120,0)"><circle cx="0" cy="0" r="2" stroke="" stroke-width="1" stroke-dasharray="" fill="#ffcc00" fill-opacity="1" class="dot1"></circle></g><g class="group5" transform="translate(12,0)"><circle cx="0" cy="0" r="0" stroke="" stroke-width="1" stroke-dasharray="" fill="#ffcc00" fill-opacity="1" class="dot1"></circle></g><g class="group5" transform="translate(12,0)"><circle cx="0" cy="0" r="0" stroke="" stroke-width="1" stroke-dasharray="" fill="#ffcc00" fill-opacity="1" class="dot1"></circle></g><g class="group5" transform="translate(12,0)"><circle cx="0" cy="0" r="0" stroke="" stroke-width="1" stroke-dasharray="" fill="#ffcc00" fill-opacity="1" class="dot1"></circle></g><g class="group5" transform="translate(12,0)"><circle cx="0" cy="0" r="0" stroke="" stroke-width="1" stroke-dasharray="" fill="#ffcc00" fill-opacity="1" class="dot1"></circle></g><g class="group5" transform="translate(12,0)"><circle cx="0" cy="0" r="0" stroke="" stroke-width="1" stroke-dasharray="" fill="#ffcc00" fill-opacity="1" class="dot1"></circle></g></g><g class="group2" transform="translate(0,-191)"><line x1="56" y1="0" x2="156.00000000000003" y2="0" stroke="#cac4c4" stroke-width="1" stroke-dasharray="1,0" class="line_h3"></line><g class="group5" transform="translate(56,0)"><circle cx="0" cy="0" r="2" stroke="" stroke-width="1" stroke-dasharray="" fill="#ffcc00" fill-opacity="1" class="dot1"></circle></g><g class="group5" transform="translate(84,0)"><circle cx="0" cy="0" r="2" stroke="" stroke-width="1" stroke-dasharray="" fill="#ffcc00" fill-opacity="1" class="dot1"></circle></g><g class="group5" transform="translate(132.00000000000003,0)"><circle cx="0" cy="0" r="2" stroke="" stroke-width="1" stroke-dasharray="" fill="#ffcc00" fill-opacity="1" class="dot1"></circle></g><g class="group5" transform="translate(156.00000000000003,0)"><circle cx="0" cy="0" r="2" stroke="" stroke-width="1" stroke-dasharray="" fill="#ffcc00" fill-opacity="1" class="dot1"></circle></g><g class="group5" transform="translate(12,0)"><circle cx="0" cy="0" r="0" stroke="" stroke-width="1" stroke-dasharray="" fill="#ffcc00" fill-opacity="1" class="dot1"></circle></g><g class="group5" transform="translate(12,0)"><circle cx="0" cy="0" r="0" stroke="" stroke-width="1" stroke-dasharray="" fill="#ffcc00" fill-opacity="1" class="dot1"></circle></g><g class="group5" transform="translate(12,0)"><circle cx="0" cy="0" r="0" stroke="" stroke-width="1" stroke-dasharray="" fill="#ffcc00" fill-opacity="1" class="dot1"></circle></g><g class="group5" transform="translate(12,0)"><circle cx="0" cy="0" r="0" stroke="" stroke-width="1" stroke-dasharray="" fill="#ffcc00" fill-opacity="1" class="dot1"></circle></g></g><line x1="0" y1="-220" x2="240" y2="-220" stroke="black" stroke-width="1" stroke-dasharray="1,0" class="line_h2"></line><line x1="240" y1="0" x2="240" y2="-220" stroke="black" stroke-width="1" stroke-dasharray="1,0" class="line_v3"></line><g class="text2_g"><text x="-40" y="-110" style="text-anchor: middle; font-size: 12px; font-weight: bold; font-family: Arial;" transform="rotate(-90,-40,-110)" dominant-baseline="auto" fill="black" class="text2"></text></g><g class="text3_g"><text x="120" y="40" style="text-anchor: middle; font-size: 12px; font-weight: bold; font-family: Arial;" transform="rotate(0,120,40)" dominant-baseline="auto" fill="black" class="text3"></text></g></g><g transform="translate(260,-220)" class="legend1"><g class="legend1_2" transform="translate(0,10)"><g class="legend1_4_g"><text x="10" y="5" style="text-anchor: start; font-size: 12px; font-weight: normal; font-family: Arial;" transform="rotate(0,10,5)" dominant-baseline="middle" fill="black" class="legend1_4">a</text></g><circle cx="0" cy="5" r="3" stroke="" stroke-width="1" stroke-dasharray="1,0" fill="#0066ff" fill-opacity="1" class="circle1"></circle></g><g class="legend1_2" transform="translate(0,23)"><g class="legend1_4_g"><text x="10" y="5" style="text-anchor: start; font-size: 12px; font-weight: normal; font-family: Arial;" transform="rotate(0,10,5)" dominant-baseline="middle" fill="black" class="legend1_4">b</text></g><circle cx="0" cy="5" r="3" stroke="" stroke-width="1" stroke-dasharray="1,0" fill="red" fill-opacity="1" class="circle1"></circle></g><g class="legend1_2" transform="translate(0,36)"><g class="legend1_4_g"><text x="10" y="5" style="text-anchor: start; font-size: 12px; font-weight: normal; font-family: Arial;" transform="rotate(0,10,5)" dominant-baseline="middle" fill="black" class="legend1_4">c</text></g><circle cx="0" cy="5" r="3" stroke="" stroke-width="1" stroke-dasharray="1,0" fill="#ffcc00" fill-opacity="1" class="circle1"></circle></g></g></g></svg>
