<svg width="467" height="330" id="ngplotSvg"><g transform="translate(60,0)" class="group1"><g transform="translate(0,230)" class="bSlN2axis1"><g transform="translate(0,0)" class="bSlN2axis1_1"><line x1="0" y1="0" x2="300" y2="0" stroke="black" stroke-width="1" stroke-dasharray="1,0" class="bSlN2axis1_2"></line><g class="bSlN2axis1_3" transform="translate(8.65386,0)"><line x1="0" y1="0" x2="0" y2="1" stroke="black" stroke-width="1" stroke-dasharray="1,0" class="bSlN2axis1_4"></line><g class="bSlN2axis1_5_g"><text x="5" y="10" style="text-anchor: end; font-size: 12px; font-weight: normal; font-family: Arial; font-style: normal;" transform="rotate(-45,5,10)" dominant-baseline="auto" fill="black" class="bSlN2axis1_5">FAS</text></g></g><g class="bSlN2axis1_3" transform="translate(28.84616571428571,0)"><line x1="0" y1="0" x2="0" y2="1" stroke="black" stroke-width="1" stroke-dasharray="1,0" class="bSlN2axis1_4"></line><g class="bSlN2axis1_5_g"><text x="5" y="10" style="text-anchor: end; font-size: 12px; font-weight: normal; font-family: Arial; font-style: normal;" transform="rotate(-45,5,10)" dominant-baseline="auto" fill="black" class="bSlN2axis1_5">FASLG</text></g></g><g class="bSlN2axis1_3" transform="translate(49.03847142857143,0)"><line x1="0" y1="0" x2="0" y2="1" stroke="black" stroke-width="1" stroke-dasharray="1,0" class="bSlN2axis1_4"></line><g class="bSlN2axis1_5_g"><text x="5" y="10" style="text-anchor: end; font-size: 12px; font-weight: normal; font-family: Arial; font-style: normal;" transform="rotate(-45,5,10)" dominant-baseline="auto" fill="black" class="bSlN2axis1_5">TP53</text></g></g><g class="bSlN2axis1_3" transform="translate(69.23077714285714,0)"><line x1="0" y1="0" x2="0" y2="1" stroke="black" stroke-width="1" stroke-dasharray="1,0" class="bSlN2axis1_4"></line><g class="bSlN2axis1_5_g"><text x="5" y="10" style="text-anchor: end; font-size: 12px; font-weight: normal; font-family: Arial; font-style: normal;" transform="rotate(-45,5,10)" dominant-baseline="auto" fill="black" class="bSlN2axis1_5">XIAP</text></g></g><g class="bSlN2axis1_3" transform="translate(89.42308285714284,0)"><line x1="0" y1="0" x2="0" y2="1" stroke="black" stroke-width="1" stroke-dasharray="1,0" class="bSlN2axis1_4"></line><g class="bSlN2axis1_5_g"><text x="5" y="10" style="text-anchor: end; font-size: 12px; font-weight: normal; font-family: Arial; font-style: normal;" transform="rotate(-45,5,10)" dominant-baseline="auto" fill="black" class="bSlN2axis1_5">CDKN1A</text></g></g><g class="bSlN2axis1_3" transform="translate(109.61538857142855,0)"><line x1="0" y1="0" x2="0" y2="1" stroke="black" stroke-width="1" stroke-dasharray="1,0" class="bSlN2axis1_4"></line><g class="bSlN2axis1_5_g"><text x="5" y="10" style="text-anchor: end; font-size: 12px; font-weight: normal; font-family: Arial; font-style: normal;" transform="rotate(-45,5,10)" dominant-baseline="auto" fill="black" class="bSlN2axis1_5">E2F1</text></g></g><g class="bSlN2axis1_3" transform="translate(129.80769428571426,0)"><line x1="0" y1="0" x2="0" y2="1" stroke="black" stroke-width="1" stroke-dasharray="1,0" class="bSlN2axis1_4"></line><g class="bSlN2axis1_5_g"><text x="5" y="10" style="text-anchor: end; font-size: 12px; font-weight: normal; font-family: Arial; font-style: normal;" transform="rotate(-45,5,10)" dominant-baseline="auto" fill="black" class="bSlN2axis1_5">MYC</text></g></g><g class="bSlN2axis1_3" transform="translate(149.99999999999997,0)"><line x1="0" y1="0" x2="0" y2="1" stroke="black" stroke-width="1" stroke-dasharray="1,0" class="bSlN2axis1_4"></line><g class="bSlN2axis1_5_g"><text x="5" y="10" style="text-anchor: end; font-size: 12px; font-weight: normal; font-family: Arial; font-style: normal;" transform="rotate(-45,5,10)" dominant-baseline="auto" fill="black" class="bSlN2axis1_5">PCNA</text></g></g><g class="bSlN2axis1_3" transform="translate(170.19230571428568,0)"><line x1="0" y1="0" x2="0" y2="1" stroke="black" stroke-width="1" stroke-dasharray="1,0" class="bSlN2axis1_4"></line><g class="bSlN2axis1_5_g"><text x="5" y="10" style="text-anchor: end; font-size: 12px; font-weight: normal; font-family: Arial; font-style: normal;" transform="rotate(-45,5,10)" dominant-baseline="auto" fill="black" class="bSlN2axis1_5">RB1</text></g></g><g class="bSlN2axis1_3" transform="translate(190.3846114285714,0)"><line x1="0" y1="0" x2="0" y2="1" stroke="black" stroke-width="1" stroke-dasharray="1,0" class="bSlN2axis1_4"></line><g class="bSlN2axis1_5_g"><text x="5" y="10" style="text-anchor: end; font-size: 12px; font-weight: normal; font-family: Arial; font-style: normal;" transform="rotate(-45,5,10)" dominant-baseline="auto" fill="black" class="bSlN2axis1_5">EGFR</text></g></g><g class="bSlN2axis1_3" transform="translate(210.5769171428571,0)"><line x1="0" y1="0" x2="0" y2="1" stroke="black" stroke-width="1" stroke-dasharray="1,0" class="bSlN2axis1_4"></line><g class="bSlN2axis1_5_g"><text x="5" y="10" style="text-anchor: end; font-size: 12px; font-weight: normal; font-family: Arial; font-style: normal;" transform="rotate(-45,5,10)" dominant-baseline="auto" fill="black" class="bSlN2axis1_5">GRB2</text></g></g><g class="bSlN2axis1_3" transform="translate(230.7692228571428,0)"><line x1="0" y1="0" x2="0" y2="1" stroke="black" stroke-width="1" stroke-dasharray="1,0" class="bSlN2axis1_4"></line><g class="bSlN2axis1_5_g"><text x="5" y="10" style="text-anchor: end; font-size: 12px; font-weight: normal; font-family: Arial; font-style: normal;" transform="rotate(-45,5,10)" dominant-baseline="auto" fill="black" class="bSlN2axis1_5">HRAS</text></g></g><g class="bSlN2axis1_3" transform="translate(250.96152857142852,0)"><line x1="0" y1="0" x2="0" y2="1" stroke="black" stroke-width="1" stroke-dasharray="1,0" class="bSlN2axis1_4"></line><g class="bSlN2axis1_5_g"><text x="5" y="10" style="text-anchor: end; font-size: 12px; font-weight: normal; font-family: Arial; font-style: normal;" transform="rotate(-45,5,10)" dominant-baseline="auto" fill="black" class="bSlN2axis1_5">MAP2K1</text></g></g><g class="bSlN2axis1_3" transform="translate(271.15383428571425,0)"><line x1="0" y1="0" x2="0" y2="1" stroke="black" stroke-width="1" stroke-dasharray="1,0" class="bSlN2axis1_4"></line><g class="bSlN2axis1_5_g"><text x="5" y="10" style="text-anchor: end; font-size: 12px; font-weight: normal; font-family: Arial; font-style: normal;" transform="rotate(-45,5,10)" dominant-baseline="auto" fill="black" class="bSlN2axis1_5">MAPK1</text></g></g><g class="bSlN2axis1_3" transform="translate(291.34614,0)"><line x1="0" y1="0" x2="0" y2="1" stroke="black" stroke-width="1" stroke-dasharray="1,0" class="bSlN2axis1_4"></line><g class="bSlN2axis1_5_g"><text x="5" y="10" style="text-anchor: end; font-size: 12px; font-weight: normal; font-family: Arial; font-style: normal;" transform="rotate(-45,5,10)" dominant-baseline="auto" fill="black" class="bSlN2axis1_5">MAPK3</text></g></g></g><g transform="translate(0,0)" class="bSlN2axis1_6"><line x1="0" y1="0" x2="0" y2="-180" stroke="black" stroke-width="1" stroke-dasharray="1,0" class="bSlN2axis1_7"></line><g class="bSlN2axis1_8" transform="translate(0,0)"><line x1="0" y1="0" x2="-3" y2="0" stroke="black" stroke-width="1" stroke-dasharray="1,0" class="bSlN2axis1_9"></line><g class="bSlN2axis1_10_g"><text x="-7" y="3" style="text-anchor: end; font-size: 12px; font-weight: normal; font-family: Arial; font-style: normal;" transform="rotate(0,-7,3)" dominant-baseline="auto" fill="black" class="bSlN2axis1_10">-20</text></g></g><g class="bSlN2axis1_8" transform="translate(0,-30)"><line x1="0" y1="0" x2="-3" y2="0" stroke="black" stroke-width="1" stroke-dasharray="1,0" class="bSlN2axis1_9"></line><g class="bSlN2axis1_10_g"><text x="-7" y="3" style="text-anchor: end; font-size: 12px; font-weight: normal; font-family: Arial; font-style: normal;" transform="rotate(0,-7,3)" dominant-baseline="auto" fill="black" class="bSlN2axis1_10">-10</text></g></g><g class="bSlN2axis1_8" transform="translate(0,-60)"><line x1="0" y1="0" x2="-3" y2="0" stroke="black" stroke-width="1" stroke-dasharray="1,0" class="bSlN2axis1_9"></line><g class="bSlN2axis1_10_g"><text x="-7" y="3" style="text-anchor: end; font-size: 12px; font-weight: normal; font-family: Arial; font-style: normal;" transform="rotate(0,-7,3)" dominant-baseline="auto" fill="black" class="bSlN2axis1_10">0</text></g></g><g class="bSlN2axis1_8" transform="translate(0,-90)"><line x1="0" y1="0" x2="-3" y2="0" stroke="black" stroke-width="1" stroke-dasharray="1,0" class="bSlN2axis1_9"></line><g class="bSlN2axis1_10_g"><text x="-7" y="3" style="text-anchor: end; font-size: 12px; font-weight: normal; font-family: Arial; font-style: normal;" transform="rotate(0,-7,3)" dominant-baseline="auto" fill="black" class="bSlN2axis1_10">10</text></g></g><g class="bSlN2axis1_8" transform="translate(0,-120)"><line x1="0" y1="0" x2="-3" y2="0" stroke="black" stroke-width="1" stroke-dasharray="1,0" class="bSlN2axis1_9"></line><g class="bSlN2axis1_10_g"><text x="-7" y="3" style="text-anchor: end; font-size: 12px; font-weight: normal; font-family: Arial; font-style: normal;" transform="rotate(0,-7,3)" dominant-baseline="auto" fill="black" class="bSlN2axis1_10">20</text></g></g><g class="bSlN2axis1_8" transform="translate(0,-150)"><line x1="0" y1="0" x2="-3" y2="0" stroke="black" stroke-width="1" stroke-dasharray="1,0" class="bSlN2axis1_9"></line><g class="bSlN2axis1_10_g"><text x="-7" y="3" style="text-anchor: end; font-size: 12px; font-weight: normal; font-family: Arial; font-style: normal;" transform="rotate(0,-7,3)" dominant-baseline="auto" fill="black" class="bSlN2axis1_10">30</text></g></g><g class="bSlN2axis1_8" transform="translate(0,-180)"><line x1="0" y1="0" x2="-3" y2="0" stroke="black" stroke-width="1" stroke-dasharray="1,0" class="bSlN2axis1_9"></line><g class="bSlN2axis1_10_g"><text x="-7" y="3" style="text-anchor: end; font-size: 12px; font-weight: normal; font-family: Arial; font-style: normal;" transform="rotate(0,-7,3)" dominant-baseline="auto" fill="black" class="bSlN2axis1_10">40</text></g></g></g><g class="group3" transform="translate(8.65386,0)"><line x1="0" y1="-60" x2="0" y2="-76.19999999999999" stroke="#f8766d" stroke-width="1" stroke-dasharray="1,0" class="line_v1"></line><circle cx="0" cy="-76.19999999999999" r="4.809999999999999" stroke="" stroke-width="0" stroke-dasharray="1,0" fill="#f8766d" fill-opacity="1" class="circle1"></circle></g><g class="group3" transform="translate(28.84616571428571,0)"><line x1="0" y1="-60" x2="0" y2="-48.599999999999994" stroke="#f8766d" stroke-width="1" stroke-dasharray="1,0" class="line_v1"></line><circle cx="0" cy="-48.599999999999994" r="4.57" stroke="" stroke-width="0" stroke-dasharray="1,0" fill="#f8766d" fill-opacity="1" class="circle1"></circle></g><g class="group3" transform="translate(49.03847142857143,0)"><line x1="0" y1="-60" x2="0" y2="-120.3" stroke="#f8766d" stroke-width="1" stroke-dasharray="1,0" class="line_v1"></line><circle cx="0" cy="-120.3" r="7.015000000000001" stroke="" stroke-width="0" stroke-dasharray="1,0" fill="#f8766d" fill-opacity="1" class="circle1"></circle></g><g class="group3" transform="translate(69.23077714285714,0)"><line x1="0" y1="-60" x2="0" y2="-80.69999999999999" stroke="#f8766d" stroke-width="1" stroke-dasharray="1,0" class="line_v1"></line><circle cx="0" cy="-80.69999999999999" r="5.035" stroke="" stroke-width="0" stroke-dasharray="1,0" fill="#f8766d" fill-opacity="1" class="circle1"></circle></g><g class="group3" transform="translate(89.42308285714284,0)"><line x1="0" y1="-60" x2="0" y2="-82.5" stroke="#bb9d00" stroke-width="1" stroke-dasharray="1,0" class="line_v1"></line><circle cx="0" cy="-82.5" r="5.125" stroke="" stroke-width="0" stroke-dasharray="1,0" fill="#bb9d00" fill-opacity="1" class="circle1"></circle></g><g class="group3" transform="translate(109.61538857142855,0)"><line x1="0" y1="-60" x2="0" y2="-9.599999999999998" stroke="#bb9d00" stroke-width="1" stroke-dasharray="1,0" class="line_v1"></line><circle cx="0" cy="-9.599999999999998" r="6.52" stroke="" stroke-width="0" stroke-dasharray="1,0" fill="#bb9d00" fill-opacity="1" class="circle1"></circle></g><g class="group3" transform="translate(129.80769428571426,0)"><line x1="0" y1="-60" x2="0" y2="-150.6" stroke="#bb9d00" stroke-width="1" stroke-dasharray="1,0" class="line_v1"></line><circle cx="0" cy="-150.6" r="8.530000000000001" stroke="" stroke-width="0" stroke-dasharray="1,0" fill="#bb9d00" fill-opacity="1" class="circle1"></circle></g><g class="group3" transform="translate(149.99999999999997,0)"><line x1="0" y1="-60" x2="0" y2="-145.8" stroke="#bb9d00" stroke-width="1" stroke-dasharray="1,0" class="line_v1"></line><circle cx="0" cy="-145.8" r="8.290000000000001" stroke="" stroke-width="0" stroke-dasharray="1,0" fill="#bb9d00" fill-opacity="1" class="circle1"></circle></g><g class="group3" transform="translate(170.19230571428568,0)"><line x1="0" y1="-60" x2="0" y2="-87.9" stroke="#bb9d00" stroke-width="1" stroke-dasharray="1,0" class="line_v1"></line><circle cx="0" cy="-87.9" r="5.3950000000000005" stroke="" stroke-width="0" stroke-dasharray="1,0" fill="#bb9d00" fill-opacity="1" class="circle1"></circle></g><g class="group3" transform="translate(190.3846114285714,0)"><line x1="0" y1="-60" x2="0" y2="-90" stroke="#00b81f" stroke-width="1" stroke-dasharray="1,0" class="line_v1"></line><circle cx="0" cy="-90" r="5.5" stroke="" stroke-width="0" stroke-dasharray="1,0" fill="#00b81f" fill-opacity="1" class="circle1"></circle></g><g class="group3" transform="translate(210.5769171428571,0)"><line x1="0" y1="-60" x2="0" y2="-86.69999999999999" stroke="#00b81f" stroke-width="1" stroke-dasharray="1,0" class="line_v1"></line><circle cx="0" cy="-86.69999999999999" r="5.335" stroke="" stroke-width="0" stroke-dasharray="1,0" fill="#00b81f" fill-opacity="1" class="circle1"></circle></g><g class="group3" transform="translate(230.7692228571428,0)"><line x1="0" y1="-60" x2="0" y2="-93.60000000000001" stroke="#00b81f" stroke-width="1" stroke-dasharray="1,0" class="line_v1"></line><circle cx="0" cy="-93.60000000000001" r="5.68" stroke="" stroke-width="0" stroke-dasharray="1,0" fill="#00b81f" fill-opacity="1" class="circle1"></circle></g><g class="group3" transform="translate(250.96152857142852,0)"><line x1="0" y1="-60" x2="0" y2="-100.5" stroke="#00b81f" stroke-width="1" stroke-dasharray="1,0" class="line_v1"></line><circle cx="0" cy="-100.5" r="6.025" stroke="" stroke-width="0" stroke-dasharray="1,0" fill="#00b81f" fill-opacity="1" class="circle1"></circle></g><g class="group3" transform="translate(271.15383428571425,0)"><line x1="0" y1="-60" x2="0" y2="-105" stroke="#00b81f" stroke-width="1" stroke-dasharray="1,0" class="line_v1"></line><circle cx="0" cy="-105" r="6.250000000000001" stroke="" stroke-width="0" stroke-dasharray="1,0" fill="#00b81f" fill-opacity="1" class="circle1"></circle></g><g class="group3" transform="translate(291.34614,0)"><line x1="0" y1="-60" x2="0" y2="-104.39999999999999" stroke="#00b81f" stroke-width="1" stroke-dasharray="1,0" class="line_v1"></line><circle cx="0" cy="-104.39999999999999" r="6.22" stroke="" stroke-width="0" stroke-dasharray="1,0" fill="#00b81f" fill-opacity="1" class="circle1"></circle></g><g transform="translate(320,-180)" class="legend2"><g class="legend2_1_g"><text x="0" y="-15" style="text-anchor: start; font-size: 12px; font-weight: normal; font-family: Arial; font-style: normal;" transform="rotate(0,0,-15)" dominant-baseline="auto" fill="black" class="legend2_1"></text></g><g class="legend2_2" transform="translate(0,0)"><g class="legend2_4_g"><text x="9" y="1" style="text-anchor: start; font-size: 12px; font-weight: normal; font-family: Arial; font-style: normal;" transform="rotate(0,9,1)" dominant-baseline="middle" fill="black" class="legend2_4">Apoptosis</text></g><line x1="-7" y1="0" x2="7" y2="0" stroke="#f8766d" stroke-width="1" stroke-dasharray="1,0" class="line_h1"></line><circle cx="0" cy="0" r="5" stroke="black" stroke-width="0" stroke-dasharray="1,0" fill="#f8766d" fill-opacity="1" class="circle2"></circle></g><g class="legend2_2" transform="translate(0,15)"><g class="legend2_4_g"><text x="9" y="1" style="text-anchor: start; font-size: 12px; font-weight: normal; font-family: Arial; font-style: normal;" transform="rotate(0,9,1)" dominant-baseline="middle" fill="black" class="legend2_4">Cell Cycle</text></g><line x1="-7" y1="0" x2="7" y2="0" stroke="#bb9d00" stroke-width="1" stroke-dasharray="1,0" class="line_h1"></line><circle cx="0" cy="0" r="5" stroke="black" stroke-width="0" stroke-dasharray="1,0" fill="#bb9d00" fill-opacity="1" class="circle2"></circle></g><g class="legend2_2" transform="translate(0,30)"><g class="legend2_4_g"><text x="9" y="1" style="text-anchor: start; font-size: 12px; font-weight: normal; font-family: Arial; font-style: normal;" transform="rotate(0,9,1)" dominant-baseline="middle" fill="black" class="legend2_4">MAPK</text></g><line x1="-7" y1="0" x2="7" y2="0" stroke="#00b81f" stroke-width="1" stroke-dasharray="1,0" class="line_h1"></line><circle cx="0" cy="0" r="5" stroke="black" stroke-width="0" stroke-dasharray="1,0" fill="#00b81f" fill-opacity="1" class="circle2"></circle></g></g></g></g></svg>
