<svg width="500" height="450" id="ngplotSvg"><defs class="gradient1_defs"><linearGradient id="gradient1_0" x1="0%" y1="0%" x2="100%" y2="0%" class="gradient1_0"><stop offset="0%" style="stop-color:#c42121;stop-opacity:1" class="gradient1_0s1"></stop><stop offset="100%" style="stop-color:#224cc9;stop-opacity:1" class="gradient1_0s2"></stop></linearGradient></defs><g transform="translate(96,84)" class="group4"><g class="group8" transform="translate(0,0)"><path d="M200,250L0,200L100,125L300,175" id="e_path1_0" fill="#eae6e6" stroke="red" stroke-width="0" datum="1,0.6000000000000001,0,1,5.1,0,6,5.1,0,6,0.6000000000000001,0" stroke-dasharray="1,0" fill-opacity="0.7" class="path1"></path></g><g class="group8" transform="translate(0,0)"><path d="M300,175L100,125L105,-25L305,25" id="e_path1_1" fill="#eae6e6" stroke="red" stroke-width="0" datum="6,0.6000000000000001,0,6,5.1,0,6,5.1,50,6,0.6000000000000001,50" stroke-dasharray="1,0" fill-opacity="0.7" class="path1"></path></g><g class="group8" transform="translate(0,0)"><path d="M0,200L5,50L105,-25L100,125" id="e_path1_2" fill="#eae6e6" stroke="red" stroke-width="0" datum="1,5.1,0,1,5.1,50,6,5.1,50,6,5.1,0" stroke-dasharray="1,0" fill-opacity="0.7" class="path1"></path></g><g class="group1" transform="translate(0,0)"><g class="group2" transform="translate(0,0)"><line x1="260" y1="165" x2="265" y2="15" stroke="black" stroke-width="0.1" stroke-dasharray="1,0" class="line1"></line></g><g class="group2" transform="translate(0,0)"><line x1="220" y1="155" x2="225" y2="5" stroke="black" stroke-width="0.1" stroke-dasharray="1,0" class="line1"></line></g><g class="group2" transform="translate(0,0)"><line x1="180" y1="145" x2="185" y2="-5" stroke="black" stroke-width="0.1" stroke-dasharray="1,0" class="line1"></line></g><g class="group2" transform="translate(0,0)"><line x1="140" y1="135" x2="145" y2="-15" stroke="black" stroke-width="0.1" stroke-dasharray="1,0" class="line1"></line></g></g><g class="group1" transform="translate(0,0)"><g class="group2" transform="translate(0,0)"><line x1="301" y1="145" x2="101" y2="95" stroke="black" stroke-width="0.1" stroke-dasharray="1,0" class="line1"></line></g><g class="group2" transform="translate(0,0)"><line x1="302" y1="115" x2="102" y2="65" stroke="black" stroke-width="0.1" stroke-dasharray="1,0" class="line1"></line></g><g class="group2" transform="translate(0,0)"><line x1="303" y1="85" x2="103" y2="35" stroke="black" stroke-width="0.1" stroke-dasharray="1,0" class="line1"></line></g><g class="group2" transform="translate(0,0)"><line x1="304" y1="55" x2="104" y2="5" stroke="black" stroke-width="0.1" stroke-dasharray="1,0" class="line1"></line></g></g><g class="group1" transform="translate(0,0)"><g class="group2" transform="translate(0,0)"><line x1="19.999999999999996" y1="185.0000000000001" x2="25" y2="35" stroke="black" stroke-width="0.1" stroke-dasharray="1,0" class="line1"></line></g><g class="group2" transform="translate(0,0)"><line x1="40" y1="170" x2="44.99999999999999" y2="20.000000000000227" stroke="black" stroke-width="0.1" stroke-dasharray="1,0" class="line1"></line></g><g class="group2" transform="translate(0,0)"><line x1="60" y1="155" x2="65" y2="5" stroke="black" stroke-width="0.1" stroke-dasharray="1,0" class="line1"></line></g><g class="group2" transform="translate(0,0)"><line x1="79.99999999999999" y1="140.00000000000045" x2="85" y2="-10" stroke="black" stroke-width="0.1" stroke-dasharray="1,0" class="line1"></line></g></g><g class="group1" transform="translate(0,0)"><g class="group2" transform="translate(0,0)"><line x1="0.9999999999999997" y1="170" x2="101" y2="95" stroke="black" stroke-width="0.1" stroke-dasharray="1,0" class="line1"></line></g><g class="group2" transform="translate(0,0)"><line x1="2.0000000000000004" y1="140" x2="102" y2="65" stroke="black" stroke-width="0.1" stroke-dasharray="1,0" class="line1"></line></g><g class="group2" transform="translate(0,0)"><line x1="3" y1="110" x2="103" y2="35" stroke="black" stroke-width="0.1" stroke-dasharray="1,0" class="line1"></line></g><g class="group2" transform="translate(0,0)"><line x1="4" y1="80" x2="104" y2="5" stroke="black" stroke-width="0.1" stroke-dasharray="1,0" class="line1"></line></g></g><g class="group1" transform="translate(0,0)"><g class="group2" transform="translate(0,0)"><line x1="220" y1="235" x2="19.999999999999996" y2="185.0000000000001" stroke="black" stroke-width="0.1" stroke-dasharray="1,0" class="line1"></line></g><g class="group2" transform="translate(0,0)"><line x1="240" y1="220" x2="40" y2="170" stroke="black" stroke-width="0.1" stroke-dasharray="1,0" class="line1"></line></g><g class="group2" transform="translate(0,0)"><line x1="260" y1="205" x2="60" y2="155" stroke="black" stroke-width="0.1" stroke-dasharray="1,0" class="line1"></line></g><g class="group2" transform="translate(0,0)"><line x1="280" y1="190" x2="79.99999999999999" y2="140.00000000000045" stroke="black" stroke-width="0.1" stroke-dasharray="1,0" class="line1"></line></g></g><g class="group1" transform="translate(0,0)"><g class="group2" transform="translate(0,0)"><line x1="160" y1="240" x2="260" y2="165" stroke="black" stroke-width="0.1" stroke-dasharray="1,0" class="line1"></line></g><g class="group2" transform="translate(0,0)"><line x1="120.00000000000001" y1="229.99999999999955" x2="220" y2="155" stroke="black" stroke-width="0.1" stroke-dasharray="1,0" class="line1"></line></g><g class="group2" transform="translate(0,0)"><line x1="79.99999999999999" y1="220.00000000000045" x2="180" y2="145" stroke="black" stroke-width="0.1" stroke-dasharray="1,0" class="line1"></line></g><g class="group2" transform="translate(0,0)"><line x1="39.99999999999999" y1="210.00000000000023" x2="140" y2="135" stroke="black" stroke-width="0.1" stroke-dasharray="1,0" class="line1"></line></g></g><g class="group3" transform="translate(48.888888888888914,212.22222222222217)"><circle cx="0" cy="0" r="2" stroke="black" stroke-width="1" stroke-dasharray="1,0" fill="black" fill-opacity="1" class="dot1"></circle><g class="text1_g"><text x="0" y="-8" style="text-anchor: middle; font-size: 12px; font-weight: normal; font-family: Arial;" transform="rotate(0,0,-8)" dominant-baseline="middle" fill="black" class="text1">name1</text></g></g><g class="group3" transform="translate(160.67777777777783,132.44444444444252)"><circle cx="0" cy="0" r="2" stroke="black" stroke-width="1" stroke-dasharray="1,0" fill="black" fill-opacity="1" class="dot1"></circle><g class="text1_g"><text x="0" y="-8" style="text-anchor: middle; font-size: 12px; font-weight: normal; font-family: Arial;" transform="rotate(0,0,-8)" dominant-baseline="middle" fill="black" class="text1">name2</text></g></g><g class="group3" transform="translate(158.77777777777777,189.44444444444434)"><circle cx="0" cy="0" r="2" stroke="black" stroke-width="1" stroke-dasharray="1,0" fill="black" fill-opacity="1" class="dot1"></circle><g class="text1_g"><text x="0" y="-8" style="text-anchor: middle; font-size: 12px; font-weight: normal; font-family: Arial;" transform="rotate(0,0,-8)" dominant-baseline="middle" fill="black" class="text1">name3</text></g></g><g class="group3" transform="translate(264.22222222222223,125.55555555555566)"><circle cx="0" cy="0" r="2" stroke="black" stroke-width="1" stroke-dasharray="1,0" fill="black" fill-opacity="1" class="dot1"></circle><g class="text1_g"><text x="0" y="-8" style="text-anchor: middle; font-size: 12px; font-weight: normal; font-family: Arial;" transform="rotate(0,0,-8)" dominant-baseline="middle" fill="black" class="text1">name4</text></g></g><g class="group3" transform="translate(221.77777777777777,54.44444444444434)"><circle cx="0" cy="0" r="2" stroke="black" stroke-width="1" stroke-dasharray="1,0" fill="black" fill-opacity="1" class="dot1"></circle><g class="text1_g"><text x="0" y="-8" style="text-anchor: middle; font-size: 12px; font-weight: normal; font-family: Arial;" transform="rotate(0,0,-8)" dominant-baseline="middle" fill="black" class="text1">name5</text></g></g><g class="group5" transform="translate(0,0)"><g class="group6" transform="translate(234.55213750218005,238.63803437554452)"><g class="text2_g"><text x="0" y="0" style="text-anchor: start; font-size: 10px; font-weight: normal; font-family: Arial;" transform="rotate(0,0,0)" dominant-baseline="middle" fill="black" class="text2">2</text></g></g><g class="group6" transform="translate(254.55213750218005,223.63803437554452)"><g class="text2_g"><text x="0" y="0" style="text-anchor: start; font-size: 10px; font-weight: normal; font-family: Arial;" transform="rotate(0,0,0)" dominant-baseline="middle" fill="black" class="text2">3</text></g></g><g class="group6" transform="translate(274.55213750217996,208.63803437554634)"><g class="text2_g"><text x="0" y="0" style="text-anchor: start; font-size: 10px; font-weight: normal; font-family: Arial;" transform="rotate(0,0,0)" dominant-baseline="middle" fill="black" class="text2">4</text></g></g><g class="group6" transform="translate(294.55213750218,193.63803437554452)"><g class="text2_g"><text x="0" y="0" style="text-anchor: start; font-size: 10px; font-weight: normal; font-family: Arial;" transform="rotate(0,0,0)" dominant-baseline="middle" fill="black" class="text2">5</text></g></g></g><g class="group5" transform="translate(0,0)"><g class="group6" transform="translate(147.99999999999997,249)"><g class="text2_g"><text x="0" y="0" style="text-anchor: middle; font-size: 10px; font-weight: normal; font-family: Arial;" transform="rotate(0,0,0)" dominant-baseline="middle" fill="black" class="text2">1.5</text></g></g><g class="group6" transform="translate(107.99999999999997,239)"><g class="text2_g"><text x="0" y="0" style="text-anchor: middle; font-size: 10px; font-weight: normal; font-family: Arial;" transform="rotate(0,0,0)" dominant-baseline="middle" fill="black" class="text2">2.4</text></g></g><g class="group6" transform="translate(67.99999999999997,229)"><g class="text2_g"><text x="0" y="0" style="text-anchor: middle; font-size: 10px; font-weight: normal; font-family: Arial;" transform="rotate(0,0,0)" dominant-baseline="middle" fill="black" class="text2">3.3</text></g></g><g class="group6" transform="translate(27.999999999999968,219)"><g class="text2_g"><text x="0" y="0" style="text-anchor: middle; font-size: 10px; font-weight: normal; font-family: Arial;" transform="rotate(0,0,0)" dominant-baseline="middle" fill="black" class="text2">4.2</text></g></g></g><g class="group5" transform="translate(0,0)"><g class="group6" transform="translate(315.55213750218,148.63803437554452)"><g class="text2_g"><text x="0" y="0" style="text-anchor: start; font-size: 10px; font-weight: normal; font-family: Arial;" transform="rotate(0,0,0)" dominant-baseline="middle" fill="black" class="text2">10</text></g></g><g class="group6" transform="translate(316.55213750218,118.63803437554452)"><g class="text2_g"><text x="0" y="0" style="text-anchor: start; font-size: 10px; font-weight: normal; font-family: Arial;" transform="rotate(0,0,0)" dominant-baseline="middle" fill="black" class="text2">20</text></g></g><g class="group6" transform="translate(317.55213750218,88.63803437554452)"><g class="text2_g"><text x="0" y="0" style="text-anchor: start; font-size: 10px; font-weight: normal; font-family: Arial;" transform="rotate(0,0,0)" dominant-baseline="middle" fill="black" class="text2">30</text></g></g><g class="group6" transform="translate(318.55213750218,58.63803437554452)"><g class="text2_g"><text x="0" y="0" style="text-anchor: start; font-size: 10px; font-weight: normal; font-family: Arial;" transform="rotate(0,0,0)" dominant-baseline="middle" fill="black" class="text2">40</text></g></g></g><g class="group7" transform="translate(0,0)"><line x1="220" y1="235" x2="222.91042750043596" y2="235.7276068751089" stroke="black" stroke-width="0.3" stroke-dasharray="1,0" class="line2"></line></g><g class="group7" transform="translate(0,0)"><line x1="240" y1="220" x2="242.91042750043593" y2="220.7276068751098" stroke="black" stroke-width="0.3" stroke-dasharray="1,0" class="line2"></line></g><g class="group7" transform="translate(0,0)"><line x1="260" y1="205" x2="262.91042750043596" y2="205.7276068751089" stroke="black" stroke-width="0.3" stroke-dasharray="1,0" class="line2"></line></g><g class="group7" transform="translate(0,0)"><line x1="280" y1="190" x2="282.91042750043596" y2="190.7276068751089" stroke="black" stroke-width="0.3" stroke-dasharray="1,0" class="line2"></line></g><g class="group7" transform="translate(0,0)"><line x1="160" y1="240" x2="157.60000000000002" y2="241.79999999999927" stroke="black" stroke-width="0.3" stroke-dasharray="1,0" class="line2"></line></g><g class="group7" transform="translate(0,0)"><line x1="120.00000000000001" y1="229.99999999999955" x2="117.60000000000001" y2="231.79999999999973" stroke="black" stroke-width="0.3" stroke-dasharray="1,0" class="line2"></line></g><g class="group7" transform="translate(0,0)"><line x1="79.99999999999999" y1="220.00000000000045" x2="77.60000000000001" y2="221.79999999999973" stroke="black" stroke-width="0.3" stroke-dasharray="1,0" class="line2"></line></g><g class="group7" transform="translate(0,0)"><line x1="39.99999999999999" y1="210.00000000000023" x2="37.599999999999994" y2="211.79999999999995" stroke="black" stroke-width="0.3" stroke-dasharray="1,0" class="line2"></line></g><g class="group7" transform="translate(0,0)"><line x1="301" y1="145" x2="303.91042750043596" y2="145.7276068751089" stroke="black" stroke-width="0.3" stroke-dasharray="1,0" class="line2"></line></g><g class="group7" transform="translate(0,0)"><line x1="302" y1="115" x2="304.91042750043596" y2="115.7276068751089" stroke="black" stroke-width="0.3" stroke-dasharray="1,0" class="line2"></line></g><g class="group7" transform="translate(0,0)"><line x1="303" y1="85" x2="305.91042750043596" y2="85.7276068751089" stroke="black" stroke-width="0.3" stroke-dasharray="1,0" class="line2"></line></g><g class="group7" transform="translate(0,0)"><line x1="304" y1="55" x2="306.91042750043596" y2="55.727606875108904" stroke="black" stroke-width="0.3" stroke-dasharray="1,0" class="line2"></line></g><g class="group9" transform="translate(0,0)"><g class="text3_g"><text x="298.50712500726723" y="224.62678125180173" style="text-anchor: start; font-size: 12px; font-weight: normal; font-family: Arial;" transform="rotate(-36.86989764584402,298.50712500726723,224.62678125180173)" dominant-baseline="middle" fill="black" class="text3">aaaa</text></g><line x1="200" y1="250" x2="300" y2="175" stroke="black" stroke-width="0.5" stroke-dasharray="1,0" class="line3"></line></g><g class="group9" transform="translate(0,0)"><g class="text3_g"><text x="60" y="255" style="text-anchor: start; font-size: 12px; font-weight: normal; font-family: Arial;" transform="rotate(14.036243467926482,60,255)" dominant-baseline="middle" fill="black" class="text3">bbbb</text></g><line x1="200" y1="250" x2="0" y2="200" stroke="black" stroke-width="0.5" stroke-dasharray="1,0" class="line3"></line></g><g class="group9" transform="translate(0,0)"><g class="text3_g"><text x="351.0071250072668" y="112.12678125181628" style="text-anchor: start; font-size: 12px; font-weight: normal; font-family: Arial;" transform="rotate(-88.09084756700362,351.0071250072668,112.12678125181628)" dominant-baseline="middle" fill="black" class="text3">cccc</text></g><line x1="300" y1="175" x2="305" y2="25" stroke="black" stroke-width="0.5" stroke-dasharray="1,0" class="line3"></line></g></g></svg>
