<svg width="470" height="270" id="ngplotSvg"><g transform="translate(100,220)" class="group1"><g transform="translate(0,0)" class="bNlN2axis1"><g transform="translate(0,0)" class="bNlN2axis1_1"><line x1="0" y1="0" x2="270" y2="0" stroke="black" stroke-width="1" stroke-dasharray="1,0" class="bNlN2axis1_2"></line><g class="bNlN2axis1_3" transform="translate(0,0)"><line x1="0" y1="0" x2="0" y2="5" stroke="black" stroke-width="1" stroke-dasharray="1,0" class="bNlN2axis1_4"></line><g class="bNlN2axis1_5_g"><text x="0" y="20" style="text-anchor: middle; font-size: 12px; font-weight: normal; font-family: Arial; font-style: normal;" transform="rotate(0,0,20)" dominant-baseline="auto" fill="black" class="bNlN2axis1_5">0</text></g></g><g class="bNlN2axis1_3" transform="translate(54,0)"><line x1="0" y1="0" x2="0" y2="5" stroke="black" stroke-width="1" stroke-dasharray="1,0" class="bNlN2axis1_4"></line><g class="bNlN2axis1_5_g"><text x="0" y="20" style="text-anchor: middle; font-size: 12px; font-weight: normal; font-family: Arial; font-style: normal;" transform="rotate(0,0,20)" dominant-baseline="auto" fill="black" class="bNlN2axis1_5">10</text></g></g><g class="bNlN2axis1_3" transform="translate(108,0)"><line x1="0" y1="0" x2="0" y2="5" stroke="black" stroke-width="1" stroke-dasharray="1,0" class="bNlN2axis1_4"></line><g class="bNlN2axis1_5_g"><text x="0" y="20" style="text-anchor: middle; font-size: 12px; font-weight: normal; font-family: Arial; font-style: normal;" transform="rotate(0,0,20)" dominant-baseline="auto" fill="black" class="bNlN2axis1_5">20</text></g></g><g class="bNlN2axis1_3" transform="translate(162,0)"><line x1="0" y1="0" x2="0" y2="5" stroke="black" stroke-width="1" stroke-dasharray="1,0" class="bNlN2axis1_4"></line><g class="bNlN2axis1_5_g"><text x="0" y="20" style="text-anchor: middle; font-size: 12px; font-weight: normal; font-family: Arial; font-style: normal;" transform="rotate(0,0,20)" dominant-baseline="auto" fill="black" class="bNlN2axis1_5">30</text></g></g><g class="bNlN2axis1_3" transform="translate(216,0)"><line x1="0" y1="0" x2="0" y2="5" stroke="black" stroke-width="1" stroke-dasharray="1,0" class="bNlN2axis1_4"></line><g class="bNlN2axis1_5_g"><text x="0" y="20" style="text-anchor: middle; font-size: 12px; font-weight: normal; font-family: Arial; font-style: normal;" transform="rotate(0,0,20)" dominant-baseline="auto" fill="black" class="bNlN2axis1_5">40</text></g></g><g class="bNlN2axis1_3" transform="translate(270,0)"><line x1="0" y1="0" x2="0" y2="5" stroke="black" stroke-width="1" stroke-dasharray="1,0" class="bNlN2axis1_4"></line><g class="bNlN2axis1_5_g"><text x="0" y="20" style="text-anchor: middle; font-size: 12px; font-weight: normal; font-family: Arial; font-style: normal;" transform="rotate(0,0,20)" dominant-baseline="auto" fill="black" class="bNlN2axis1_5">50</text></g></g><g class="text1_g"><text x="135" y="40" style="text-anchor: middle; font-size: 12px; font-weight: normal; font-family: Arial; font-style: normal;" transform="rotate(0,135,40)" dominant-baseline="auto" fill="black" class="text1">Time</text></g></g><g transform="translate(0,0)" class="bNlN2axis1_6"><line x1="0" y1="0" x2="0" y2="-170" stroke="black" stroke-width="1" stroke-dasharray="1,0" class="bNlN2axis1_7"></line><g class="bNlN2axis1_8" transform="translate(0,0)"><line x1="0" y1="0" x2="-5" y2="0" stroke="black" stroke-width="1" stroke-dasharray="1,0" class="bNlN2axis1_9"></line><g class="bNlN2axis1_10_g"><text x="-10" y="3" style="text-anchor: end; font-size: 12px; font-weight: normal; font-family: Arial; font-style: normal;" transform="rotate(0,-10,3)" dominant-baseline="auto" fill="black" class="bNlN2axis1_10">0</text></g></g><g class="bNlN2axis1_8" transform="translate(0,-34)"><line x1="0" y1="0" x2="-5" y2="0" stroke="black" stroke-width="1" stroke-dasharray="1,0" class="bNlN2axis1_9"></line><g class="bNlN2axis1_10_g"><text x="-10" y="3" style="text-anchor: end; font-size: 12px; font-weight: normal; font-family: Arial; font-style: normal;" transform="rotate(0,-10,3)" dominant-baseline="auto" fill="black" class="bNlN2axis1_10">6</text></g></g><g class="bNlN2axis1_8" transform="translate(0,-68)"><line x1="0" y1="0" x2="-5" y2="0" stroke="black" stroke-width="1" stroke-dasharray="1,0" class="bNlN2axis1_9"></line><g class="bNlN2axis1_10_g"><text x="-10" y="3" style="text-anchor: end; font-size: 12px; font-weight: normal; font-family: Arial; font-style: normal;" transform="rotate(0,-10,3)" dominant-baseline="auto" fill="black" class="bNlN2axis1_10">12</text></g></g><g class="bNlN2axis1_8" transform="translate(0,-102)"><line x1="0" y1="0" x2="-5" y2="0" stroke="black" stroke-width="1" stroke-dasharray="1,0" class="bNlN2axis1_9"></line><g class="bNlN2axis1_10_g"><text x="-10" y="3" style="text-anchor: end; font-size: 12px; font-weight: normal; font-family: Arial; font-style: normal;" transform="rotate(0,-10,3)" dominant-baseline="auto" fill="black" class="bNlN2axis1_10">18</text></g></g><g class="bNlN2axis1_8" transform="translate(0,-136)"><line x1="0" y1="0" x2="-5" y2="0" stroke="black" stroke-width="1" stroke-dasharray="1,0" class="bNlN2axis1_9"></line><g class="bNlN2axis1_10_g"><text x="-10" y="3" style="text-anchor: end; font-size: 12px; font-weight: normal; font-family: Arial; font-style: normal;" transform="rotate(0,-10,3)" dominant-baseline="auto" fill="black" class="bNlN2axis1_10">24</text></g></g><g class="bNlN2axis1_8" transform="translate(0,-170)"><line x1="0" y1="0" x2="-5" y2="0" stroke="black" stroke-width="1" stroke-dasharray="1,0" class="bNlN2axis1_9"></line><g class="bNlN2axis1_10_g"><text x="-10" y="3" style="text-anchor: end; font-size: 12px; font-weight: normal; font-family: Arial; font-style: normal;" transform="rotate(0,-10,3)" dominant-baseline="auto" fill="black" class="bNlN2axis1_10">30</text></g></g><g class="text2_g"><text x="-37" y="-85" style="text-anchor: middle; font-size: 12px; font-weight: normal; font-family: Arial; font-style: normal;" transform="rotate(-90,-37,-85)" dominant-baseline="auto" fill="black" class="text2">Value</text></g></g><g class="pathLine1" transform="translate(0,0)"><path d="M5.4,-2.297C5.4,-2.297,9,-21.256,10.8,-25.048C12.6,-28.84,14.4,-23.31,16.2,-25.048C18,-26.785,19.8,-33.735,21.6,-35.473C23.4,-37.21,25.2,-29.707,27,-35.473C28.8,-41.239,30.6,-64.304,32.4,-70.07C34.2,-75.836,36,-70.07,37.8,-70.07C39.6,-70.07,41.4,-69.37,43.2,-70.07C45,-70.77,46.8,-72.361,48.6,-74.27C50.4,-76.18,52.2,-80.319,54,-81.529C55.8,-82.738,57.6,-78.523,59.4,-81.529C61.2,-84.534,63,-96.557,64.8,-99.563C66.6,-102.569,68.4,-99.563,70.2,-99.563C72,-99.563,73.8,-99.563,75.6,-99.563C77.4,-99.563,79.2,-99.563,81,-99.563C82.8,-99.563,84.6,-99.563,86.4,-99.563C88.2,-99.563,90,-99.563,91.8,-99.563C93.6,-99.563,95.4,-99.563,97.2,-99.563C99,-99.563,100.8,-99.563,102.6,-99.563C104.4,-99.563,106.2,-99.504,108,-99.563C109.8,-99.622,111.6,-99.859,113.4,-99.919C115.2,-99.978,117,-99.919,118.8,-99.919C120.6,-99.919,122.4,-99.919,124.2,-99.919C126,-99.919,127.8,-99.919,129.6,-99.919C131.4,-99.919,133.2,-99.919,135,-99.919C136.8,-99.919,138.6,-99.919,140.4,-99.919C142.2,-99.919,144,-99.919,145.8,-99.919C147.6,-99.919,149.4,-99.919,151.2,-99.919C153,-99.919,154.8,-99.919,156.6,-99.919C158.4,-99.919,160.2,-99.919,162,-99.919C163.8,-99.919,165.6,-99.893,167.4,-99.919C169.2,-99.944,171,-100.047,172.8,-100.072C174.6,-100.098,176.4,-93.081,178.2,-100.072C180,-107.064,181.8,-135.031,183.6,-142.023C185.4,-149.015,187.2,-142.023,189,-142.023C190.8,-142.023,192.6,-142.023,194.4,-142.023C196.2,-142.023,198,-142.023,199.8,-142.023C201.6,-142.023,203.4,-142.023,205.2,-142.023C207,-142.023,208.8,-142.023,210.6,-142.023C212.4,-142.023,214.2,-142.023,216,-142.023C217.8,-142.023,219.6,-142.023,221.4,-142.023C223.2,-142.023,225,-142.023,226.8,-142.023C228.6,-142.023,230.4,-142.023,232.2,-142.023C234,-142.023,235.8,-142.023,237.6,-142.023C239.4,-142.023,241.2,-141.909,243,-142.023C244.8,-142.137,246.6,-142.592,248.4,-142.706C250.2,-142.819,252,-142.706,253.8,-142.706C255.6,-142.706,257.4,-142.706,259.2,-142.706C261,-142.706,262.8,-142.706,264.6,-142.706C266.4,-142.706,270,-142.706,270,-142.706" transform="translate(undefined,undefined)" id="e_pathLine1_1_0" fill="none" stroke="#6623e1" stroke-width="0.5" datum="[object Object],[object Object],[object Object],[object Object],[object Object],[object Object],[object Object],[object Object],[object Object],[object Object],[object Object],[object Object],[object Object],[object Object],[object Object],[object Object],[object Object],[object Object],[object Object],[object Object],[object Object],[object Object],[object Object],[object Object],[object Object],[object Object],[object Object],[object Object],[object Object],[object Object],[object Object],[object Object],[object Object],[object Object],[object Object],[object Object],[object Object],[object Object],[object Object],[object Object],[object Object],[object Object],[object Object],[object Object],[object Object],[object Object],[object Object],[object Object],[object Object],[object Object]" stroke-dasharray="1,0" fill-opacity="1" class="pathLine1_1"></path></g><g class="pathLine1" transform="translate(0,0)"><path d="M5.4,-24.893C5.4,-24.893,9,-23.642,10.8,-25.029C12.6,-26.415,14.4,-28.763,16.2,-33.21C18,-37.656,19.8,-48.35,21.6,-51.707C23.4,-55.063,25.2,-52.779,27,-53.35C28.8,-53.922,30.6,-54.755,32.4,-55.134C34.2,-55.513,36,-55.541,37.8,-55.622C39.6,-55.703,41.4,-55.622,43.2,-55.622C45,-55.622,46.8,-55.622,48.6,-55.622C50.4,-55.622,52.2,-53.76,54,-55.622C55.8,-57.483,57.6,-64.623,59.4,-66.791C61.2,-68.959,63,-60.64,64.8,-68.632C66.6,-76.623,68.4,-105.559,70.2,-114.74C72,-123.921,73.8,-122.221,75.6,-123.717C77.4,-125.214,79.2,-123.717,81,-123.717C82.8,-123.717,84.6,-123.893,86.4,-123.717C88.2,-123.542,90,-122.839,91.8,-122.663C93.6,-122.488,95.4,-122.663,97.2,-122.663C99,-122.663,100.8,-122.663,102.6,-122.663C104.4,-122.663,106.2,-122.689,108,-122.663C109.8,-122.638,111.6,-122.538,113.4,-122.512C115.2,-122.487,117,-122.512,118.8,-122.512C120.6,-122.512,122.4,-122.512,124.2,-122.512C126,-122.512,127.8,-122.512,129.6,-122.512C131.4,-122.512,133.2,-122.512,135,-122.512C136.8,-122.512,138.6,-127.237,140.4,-122.512C142.2,-117.788,144,-98.37,145.8,-94.164C147.6,-89.958,149.4,-96.756,151.2,-97.275C153,-97.793,154.8,-97.275,156.6,-97.275C158.4,-97.275,160.2,-96.845,162,-97.275C163.8,-97.704,165.6,-99.423,167.4,-99.853C169.2,-100.283,171,-99.853,172.8,-99.853C174.6,-99.853,176.4,-99.853,178.2,-99.853C180,-99.853,181.8,-99.853,183.6,-99.853C185.4,-99.853,187.2,-99.416,189,-99.853C190.8,-100.29,192.6,-102.04,194.4,-102.477C196.2,-102.915,198,-102.477,199.8,-102.477C201.6,-102.477,203.4,-102.477,205.2,-102.477C207,-102.477,208.8,-104.199,210.6,-102.477C212.4,-100.756,214.2,-93.969,216,-92.148C217.8,-90.327,219.6,-91.651,221.4,-91.552C223.2,-91.452,225,-91.552,226.8,-91.552C228.6,-91.552,230.4,-91.552,232.2,-91.552C234,-91.552,235.8,-92.313,237.6,-91.552C239.4,-90.791,241.2,-87.796,243,-86.986C244.8,-86.176,246.6,-87.45,248.4,-86.694C250.2,-85.939,252,-83.16,253.8,-82.454C255.6,-81.747,257.4,-83.63,259.2,-82.454C261,-81.277,262.8,-72.206,264.6,-75.393C266.4,-78.58,270,-101.576,270,-101.576" transform="translate(undefined,undefined)" id="e_pathLine1_1_1" fill="none" stroke="#dd1313" stroke-width="0.5" datum="[object Object],[object Object],[object Object],[object Object],[object Object],[object Object],[object Object],[object Object],[object Object],[object Object],[object Object],[object Object],[object Object],[object Object],[object Object],[object Object],[object Object],[object Object],[object Object],[object Object],[object Object],[object Object],[object Object],[object Object],[object Object],[object Object],[object Object],[object Object],[object Object],[object Object],[object Object],[object Object],[object Object],[object Object],[object Object],[object Object],[object Object],[object Object],[object Object],[object Object],[object Object],[object Object],[object Object],[object Object],[object Object],[object Object],[object Object],[object Object],[object Object],[object Object]" stroke-dasharray="1,0" fill-opacity="1" class="pathLine1_1"></path></g><g class="group2" transform="translate(0,0)"><circle cx="5.4" cy="-2.2970674153333333" r="1" stroke="#6623e1" stroke-width="0.5" stroke-dasharray="1,0" fill="white" fill-opacity="1" class="circle1"></circle></g><g class="group2" transform="translate(0,0)"><circle cx="10.8" cy="-25.047845089666666" r="1" stroke="#6623e1" stroke-width="0.5" stroke-dasharray="1,0" fill="white" fill-opacity="1" class="circle1"></circle></g><g class="group2" transform="translate(0,0)"><circle cx="16.2" cy="-25.047845089666666" r="1" stroke="#6623e1" stroke-width="0.5" stroke-dasharray="1,0" fill="white" fill-opacity="1" class="circle1"></circle></g><g class="group2" transform="translate(0,0)"><circle cx="21.6" cy="-35.47291851633333" r="1" stroke="#6623e1" stroke-width="0.5" stroke-dasharray="1,0" fill="white" fill-opacity="1" class="circle1"></circle></g><g class="group2" transform="translate(0,0)"><circle cx="27" cy="-35.47291851633333" r="1" stroke="#6623e1" stroke-width="0.5" stroke-dasharray="1,0" fill="white" fill-opacity="1" class="circle1"></circle></g><g class="group2" transform="translate(0,0)"><circle cx="32.4" cy="-70.07001168666666" r="1" stroke="#6623e1" stroke-width="0.5" stroke-dasharray="1,0" fill="white" fill-opacity="1" class="circle1"></circle></g><g class="group2" transform="translate(0,0)"><circle cx="37.800000000000004" cy="-70.07001168666666" r="1" stroke="#6623e1" stroke-width="0.5" stroke-dasharray="1,0" fill="white" fill-opacity="1" class="circle1"></circle></g><g class="group2" transform="translate(0,0)"><circle cx="43.2" cy="-70.07001168666666" r="1" stroke="#6623e1" stroke-width="0.5" stroke-dasharray="1,0" fill="white" fill-opacity="1" class="circle1"></circle></g><g class="group2" transform="translate(0,0)"><circle cx="48.6" cy="-74.27040925666667" r="1" stroke="#6623e1" stroke-width="0.5" stroke-dasharray="1,0" fill="white" fill-opacity="1" class="circle1"></circle></g><g class="group2" transform="translate(0,0)"><circle cx="54" cy="-81.52864862" r="1" stroke="#6623e1" stroke-width="0.5" stroke-dasharray="1,0" fill="white" fill-opacity="1" class="circle1"></circle></g><g class="group2" transform="translate(0,0)"><circle cx="59.4" cy="-81.52864862" r="1" stroke="#6623e1" stroke-width="0.5" stroke-dasharray="1,0" fill="white" fill-opacity="1" class="circle1"></circle></g><g class="group2" transform="translate(0,0)"><circle cx="64.8" cy="-99.56303707999999" r="1" stroke="#6623e1" stroke-width="0.5" stroke-dasharray="1,0" fill="white" fill-opacity="1" class="circle1"></circle></g><g class="group2" transform="translate(0,0)"><circle cx="70.2" cy="-99.56303707999999" r="1" stroke="#6623e1" stroke-width="0.5" stroke-dasharray="1,0" fill="white" fill-opacity="1" class="circle1"></circle></g><g class="group2" transform="translate(0,0)"><circle cx="75.60000000000001" cy="-99.56303707999999" r="1" stroke="#6623e1" stroke-width="0.5" stroke-dasharray="1,0" fill="white" fill-opacity="1" class="circle1"></circle></g><g class="group2" transform="translate(0,0)"><circle cx="81" cy="-99.56303707999999" r="1" stroke="#6623e1" stroke-width="0.5" stroke-dasharray="1,0" fill="white" fill-opacity="1" class="circle1"></circle></g><g class="group2" transform="translate(0,0)"><circle cx="86.4" cy="-99.56303707999999" r="1" stroke="#6623e1" stroke-width="0.5" stroke-dasharray="1,0" fill="white" fill-opacity="1" class="circle1"></circle></g><g class="group2" transform="translate(0,0)"><circle cx="91.80000000000001" cy="-99.56303707999999" r="1" stroke="#6623e1" stroke-width="0.5" stroke-dasharray="1,0" fill="white" fill-opacity="1" class="circle1"></circle></g><g class="group2" transform="translate(0,0)"><circle cx="97.2" cy="-99.56303707999999" r="1" stroke="#6623e1" stroke-width="0.5" stroke-dasharray="1,0" fill="white" fill-opacity="1" class="circle1"></circle></g><g class="group2" transform="translate(0,0)"><circle cx="102.6" cy="-99.56303707999999" r="1" stroke="#6623e1" stroke-width="0.5" stroke-dasharray="1,0" fill="white" fill-opacity="1" class="circle1"></circle></g><g class="group2" transform="translate(0,0)"><circle cx="108" cy="-99.56303707999999" r="1" stroke="#6623e1" stroke-width="0.5" stroke-dasharray="1,0" fill="white" fill-opacity="1" class="circle1"></circle></g><g class="group2" transform="translate(0,0)"><circle cx="113.39999999999999" cy="-99.91853932333332" r="1" stroke="#6623e1" stroke-width="0.5" stroke-dasharray="1,0" fill="white" fill-opacity="1" class="circle1"></circle></g><g class="group2" transform="translate(0,0)"><circle cx="118.8" cy="-99.91853932333332" r="1" stroke="#6623e1" stroke-width="0.5" stroke-dasharray="1,0" fill="white" fill-opacity="1" class="circle1"></circle></g><g class="group2" transform="translate(0,0)"><circle cx="124.2" cy="-99.91853932333332" r="1" stroke="#6623e1" stroke-width="0.5" stroke-dasharray="1,0" fill="white" fill-opacity="1" class="circle1"></circle></g><g class="group2" transform="translate(0,0)"><circle cx="129.6" cy="-99.91853932333332" r="1" stroke="#6623e1" stroke-width="0.5" stroke-dasharray="1,0" fill="white" fill-opacity="1" class="circle1"></circle></g><g class="group2" transform="translate(0,0)"><circle cx="135" cy="-99.91853932333332" r="1" stroke="#6623e1" stroke-width="0.5" stroke-dasharray="1,0" fill="white" fill-opacity="1" class="circle1"></circle></g><g class="group2" transform="translate(0,0)"><circle cx="140.4" cy="-99.91853932333332" r="1" stroke="#6623e1" stroke-width="0.5" stroke-dasharray="1,0" fill="white" fill-opacity="1" class="circle1"></circle></g><g class="group2" transform="translate(0,0)"><circle cx="145.8" cy="-99.91853932333332" r="1" stroke="#6623e1" stroke-width="0.5" stroke-dasharray="1,0" fill="white" fill-opacity="1" class="circle1"></circle></g><g class="group2" transform="translate(0,0)"><circle cx="151.20000000000002" cy="-99.91853932333332" r="1" stroke="#6623e1" stroke-width="0.5" stroke-dasharray="1,0" fill="white" fill-opacity="1" class="circle1"></circle></g><g class="group2" transform="translate(0,0)"><circle cx="156.6" cy="-99.91853932333332" r="1" stroke="#6623e1" stroke-width="0.5" stroke-dasharray="1,0" fill="white" fill-opacity="1" class="circle1"></circle></g><g class="group2" transform="translate(0,0)"><circle cx="162" cy="-99.91853932333332" r="1" stroke="#6623e1" stroke-width="0.5" stroke-dasharray="1,0" fill="white" fill-opacity="1" class="circle1"></circle></g><g class="group2" transform="translate(0,0)"><circle cx="167.4" cy="-99.91853932333332" r="1" stroke="#6623e1" stroke-width="0.5" stroke-dasharray="1,0" fill="white" fill-opacity="1" class="circle1"></circle></g><g class="group2" transform="translate(0,0)"><circle cx="172.8" cy="-100.07245188333334" r="1" stroke="#6623e1" stroke-width="0.5" stroke-dasharray="1,0" fill="white" fill-opacity="1" class="circle1"></circle></g><g class="group2" transform="translate(0,0)"><circle cx="178.20000000000002" cy="-100.07245188333334" r="1" stroke="#6623e1" stroke-width="0.5" stroke-dasharray="1,0" fill="white" fill-opacity="1" class="circle1"></circle></g><g class="group2" transform="translate(0,0)"><circle cx="183.60000000000002" cy="-142.02320069666666" r="1" stroke="#6623e1" stroke-width="0.5" stroke-dasharray="1,0" fill="white" fill-opacity="1" class="circle1"></circle></g><g class="group2" transform="translate(0,0)"><circle cx="189" cy="-142.02320069666666" r="1" stroke="#6623e1" stroke-width="0.5" stroke-dasharray="1,0" fill="white" fill-opacity="1" class="circle1"></circle></g><g class="group2" transform="translate(0,0)"><circle cx="194.4" cy="-142.02320069666666" r="1" stroke="#6623e1" stroke-width="0.5" stroke-dasharray="1,0" fill="white" fill-opacity="1" class="circle1"></circle></g><g class="group2" transform="translate(0,0)"><circle cx="199.8" cy="-142.02320069666666" r="1" stroke="#6623e1" stroke-width="0.5" stroke-dasharray="1,0" fill="white" fill-opacity="1" class="circle1"></circle></g><g class="group2" transform="translate(0,0)"><circle cx="205.2" cy="-142.02320069666666" r="1" stroke="#6623e1" stroke-width="0.5" stroke-dasharray="1,0" fill="white" fill-opacity="1" class="circle1"></circle></g><g class="group2" transform="translate(0,0)"><circle cx="210.6" cy="-142.02320069666666" r="1" stroke="#6623e1" stroke-width="0.5" stroke-dasharray="1,0" fill="white" fill-opacity="1" class="circle1"></circle></g><g class="group2" transform="translate(0,0)"><circle cx="216" cy="-142.02320069666666" r="1" stroke="#6623e1" stroke-width="0.5" stroke-dasharray="1,0" fill="white" fill-opacity="1" class="circle1"></circle></g><g class="group2" transform="translate(0,0)"><circle cx="221.39999999999998" cy="-142.02320069666666" r="1" stroke="#6623e1" stroke-width="0.5" stroke-dasharray="1,0" fill="white" fill-opacity="1" class="circle1"></circle></g><g class="group2" transform="translate(0,0)"><circle cx="226.79999999999998" cy="-142.02320069666666" r="1" stroke="#6623e1" stroke-width="0.5" stroke-dasharray="1,0" fill="white" fill-opacity="1" class="circle1"></circle></g><g class="group2" transform="translate(0,0)"><circle cx="232.2" cy="-142.02320069666666" r="1" stroke="#6623e1" stroke-width="0.5" stroke-dasharray="1,0" fill="white" fill-opacity="1" class="circle1"></circle></g><g class="group2" transform="translate(0,0)"><circle cx="237.6" cy="-142.02320069666666" r="1" stroke="#6623e1" stroke-width="0.5" stroke-dasharray="1,0" fill="white" fill-opacity="1" class="circle1"></circle></g><g class="group2" transform="translate(0,0)"><circle cx="243" cy="-142.02320069666666" r="1" stroke="#6623e1" stroke-width="0.5" stroke-dasharray="1,0" fill="white" fill-opacity="1" class="circle1"></circle></g><g class="group2" transform="translate(0,0)"><circle cx="248.4" cy="-142.70568190333336" r="1" stroke="#6623e1" stroke-width="0.5" stroke-dasharray="1,0" fill="white" fill-opacity="1" class="circle1"></circle></g><g class="group2" transform="translate(0,0)"><circle cx="253.79999999999998" cy="-142.70568190333336" r="1" stroke="#6623e1" stroke-width="0.5" stroke-dasharray="1,0" fill="white" fill-opacity="1" class="circle1"></circle></g><g class="group2" transform="translate(0,0)"><circle cx="259.2" cy="-142.70568190333336" r="1" stroke="#6623e1" stroke-width="0.5" stroke-dasharray="1,0" fill="white" fill-opacity="1" class="circle1"></circle></g><g class="group2" transform="translate(0,0)"><circle cx="264.6" cy="-142.70568190333336" r="1" stroke="#6623e1" stroke-width="0.5" stroke-dasharray="1,0" fill="white" fill-opacity="1" class="circle1"></circle></g><g class="group2" transform="translate(0,0)"><circle cx="270" cy="-142.70568190333336" r="1" stroke="#6623e1" stroke-width="0.5" stroke-dasharray="1,0" fill="white" fill-opacity="1" class="circle1"></circle></g><g class="group2" transform="translate(0,0)"><circle cx="5.4" cy="-24.89324333266667" r="1" stroke="#dd1313" stroke-width="0.5" stroke-dasharray="1,0" fill="white" fill-opacity="1" class="circle1"></circle></g><g class="group2" transform="translate(0,0)"><circle cx="10.8" cy="-25.028553943000002" r="1" stroke="#dd1313" stroke-width="0.5" stroke-dasharray="1,0" fill="white" fill-opacity="1" class="circle1"></circle></g><g class="group2" transform="translate(0,0)"><circle cx="16.2" cy="-33.20960834666666" r="1" stroke="#dd1313" stroke-width="0.5" stroke-dasharray="1,0" fill="white" fill-opacity="1" class="circle1"></circle></g><g class="group2" transform="translate(0,0)"><circle cx="21.6" cy="-51.70656391666667" r="1" stroke="#dd1313" stroke-width="0.5" stroke-dasharray="1,0" fill="white" fill-opacity="1" class="circle1"></circle></g><g class="group2" transform="translate(0,0)"><circle cx="27" cy="-53.35033756699999" r="1" stroke="#dd1313" stroke-width="0.5" stroke-dasharray="1,0" fill="white" fill-opacity="1" class="circle1"></circle></g><g class="group2" transform="translate(0,0)"><circle cx="32.4" cy="-55.13394068833334" r="1" stroke="#dd1313" stroke-width="0.5" stroke-dasharray="1,0" fill="white" fill-opacity="1" class="circle1"></circle></g><g class="group2" transform="translate(0,0)"><circle cx="37.800000000000004" cy="-55.621827042999996" r="1" stroke="#dd1313" stroke-width="0.5" stroke-dasharray="1,0" fill="white" fill-opacity="1" class="circle1"></circle></g><g class="group2" transform="translate(0,0)"><circle cx="43.2" cy="-55.621827042999996" r="1" stroke="#dd1313" stroke-width="0.5" stroke-dasharray="1,0" fill="white" fill-opacity="1" class="circle1"></circle></g><g class="group2" transform="translate(0,0)"><circle cx="48.6" cy="-55.621827042999996" r="1" stroke="#dd1313" stroke-width="0.5" stroke-dasharray="1,0" fill="white" fill-opacity="1" class="circle1"></circle></g><g class="group2" transform="translate(0,0)"><circle cx="54" cy="-55.621827042999996" r="1" stroke="#dd1313" stroke-width="0.5" stroke-dasharray="1,0" fill="white" fill-opacity="1" class="circle1"></circle></g><g class="group2" transform="translate(0,0)"><circle cx="59.4" cy="-66.79111334" r="1" stroke="#dd1313" stroke-width="0.5" stroke-dasharray="1,0" fill="white" fill-opacity="1" class="circle1"></circle></g><g class="group2" transform="translate(0,0)"><circle cx="64.8" cy="-68.63178426" r="1" stroke="#dd1313" stroke-width="0.5" stroke-dasharray="1,0" fill="white" fill-opacity="1" class="circle1"></circle></g><g class="group2" transform="translate(0,0)"><circle cx="70.2" cy="-114.74010231666665" r="1" stroke="#dd1313" stroke-width="0.5" stroke-dasharray="1,0" fill="white" fill-opacity="1" class="circle1"></circle></g><g class="group2" transform="translate(0,0)"><circle cx="75.60000000000001" cy="-123.71738355000001" r="1" stroke="#dd1313" stroke-width="0.5" stroke-dasharray="1,0" fill="white" fill-opacity="1" class="circle1"></circle></g><g class="group2" transform="translate(0,0)"><circle cx="81" cy="-123.71738355000001" r="1" stroke="#dd1313" stroke-width="0.5" stroke-dasharray="1,0" fill="white" fill-opacity="1" class="circle1"></circle></g><g class="group2" transform="translate(0,0)"><circle cx="86.4" cy="-123.71738355000001" r="1" stroke="#dd1313" stroke-width="0.5" stroke-dasharray="1,0" fill="white" fill-opacity="1" class="circle1"></circle></g><g class="group2" transform="translate(0,0)"><circle cx="91.80000000000001" cy="-122.66341868333333" r="1" stroke="#dd1313" stroke-width="0.5" stroke-dasharray="1,0" fill="white" fill-opacity="1" class="circle1"></circle></g><g class="group2" transform="translate(0,0)"><circle cx="97.2" cy="-122.66341868333333" r="1" stroke="#dd1313" stroke-width="0.5" stroke-dasharray="1,0" fill="white" fill-opacity="1" class="circle1"></circle></g><g class="group2" transform="translate(0,0)"><circle cx="102.6" cy="-122.66341868333333" r="1" stroke="#dd1313" stroke-width="0.5" stroke-dasharray="1,0" fill="white" fill-opacity="1" class="circle1"></circle></g><g class="group2" transform="translate(0,0)"><circle cx="108" cy="-122.66341868333333" r="1" stroke="#dd1313" stroke-width="0.5" stroke-dasharray="1,0" fill="white" fill-opacity="1" class="circle1"></circle></g><g class="group2" transform="translate(0,0)"><circle cx="113.39999999999999" cy="-122.51238830333334" r="1" stroke="#dd1313" stroke-width="0.5" stroke-dasharray="1,0" fill="white" fill-opacity="1" class="circle1"></circle></g><g class="group2" transform="translate(0,0)"><circle cx="118.8" cy="-122.51238830333334" r="1" stroke="#dd1313" stroke-width="0.5" stroke-dasharray="1,0" fill="white" fill-opacity="1" class="circle1"></circle></g><g class="group2" transform="translate(0,0)"><circle cx="124.2" cy="-122.51238830333334" r="1" stroke="#dd1313" stroke-width="0.5" stroke-dasharray="1,0" fill="white" fill-opacity="1" class="circle1"></circle></g><g class="group2" transform="translate(0,0)"><circle cx="129.6" cy="-122.51238830333334" r="1" stroke="#dd1313" stroke-width="0.5" stroke-dasharray="1,0" fill="white" fill-opacity="1" class="circle1"></circle></g><g class="group2" transform="translate(0,0)"><circle cx="135" cy="-122.51238830333334" r="1" stroke="#dd1313" stroke-width="0.5" stroke-dasharray="1,0" fill="white" fill-opacity="1" class="circle1"></circle></g><g class="group2" transform="translate(0,0)"><circle cx="140.4" cy="-122.51238830333334" r="1" stroke="#dd1313" stroke-width="0.5" stroke-dasharray="1,0" fill="white" fill-opacity="1" class="circle1"></circle></g><g class="group2" transform="translate(0,0)"><circle cx="145.8" cy="-94.16422235666667" r="1" stroke="#dd1313" stroke-width="0.5" stroke-dasharray="1,0" fill="white" fill-opacity="1" class="circle1"></circle></g><g class="group2" transform="translate(0,0)"><circle cx="151.20000000000002" cy="-97.27477072333333" r="1" stroke="#dd1313" stroke-width="0.5" stroke-dasharray="1,0" fill="white" fill-opacity="1" class="circle1"></circle></g><g class="group2" transform="translate(0,0)"><circle cx="156.6" cy="-97.27477072333333" r="1" stroke="#dd1313" stroke-width="0.5" stroke-dasharray="1,0" fill="white" fill-opacity="1" class="circle1"></circle></g><g class="group2" transform="translate(0,0)"><circle cx="162" cy="-97.27477072333333" r="1" stroke="#dd1313" stroke-width="0.5" stroke-dasharray="1,0" fill="white" fill-opacity="1" class="circle1"></circle></g><g class="group2" transform="translate(0,0)"><circle cx="167.4" cy="-99.85304087333331" r="1" stroke="#dd1313" stroke-width="0.5" stroke-dasharray="1,0" fill="white" fill-opacity="1" class="circle1"></circle></g><g class="group2" transform="translate(0,0)"><circle cx="172.8" cy="-99.85304087333331" r="1" stroke="#dd1313" stroke-width="0.5" stroke-dasharray="1,0" fill="white" fill-opacity="1" class="circle1"></circle></g><g class="group2" transform="translate(0,0)"><circle cx="178.20000000000002" cy="-99.85304087333331" r="1" stroke="#dd1313" stroke-width="0.5" stroke-dasharray="1,0" fill="white" fill-opacity="1" class="circle1"></circle></g><g class="group2" transform="translate(0,0)"><circle cx="183.60000000000002" cy="-99.85304087333331" r="1" stroke="#dd1313" stroke-width="0.5" stroke-dasharray="1,0" fill="white" fill-opacity="1" class="circle1"></circle></g><g class="group2" transform="translate(0,0)"><circle cx="189" cy="-99.85304087333331" r="1" stroke="#dd1313" stroke-width="0.5" stroke-dasharray="1,0" fill="white" fill-opacity="1" class="circle1"></circle></g><g class="group2" transform="translate(0,0)"><circle cx="194.4" cy="-102.47740085666668" r="1" stroke="#dd1313" stroke-width="0.5" stroke-dasharray="1,0" fill="white" fill-opacity="1" class="circle1"></circle></g><g class="group2" transform="translate(0,0)"><circle cx="199.8" cy="-102.47740085666668" r="1" stroke="#dd1313" stroke-width="0.5" stroke-dasharray="1,0" fill="white" fill-opacity="1" class="circle1"></circle></g><g class="group2" transform="translate(0,0)"><circle cx="205.2" cy="-102.47740085666668" r="1" stroke="#dd1313" stroke-width="0.5" stroke-dasharray="1,0" fill="white" fill-opacity="1" class="circle1"></circle></g><g class="group2" transform="translate(0,0)"><circle cx="210.6" cy="-102.47740085666668" r="1" stroke="#dd1313" stroke-width="0.5" stroke-dasharray="1,0" fill="white" fill-opacity="1" class="circle1"></circle></g><g class="group2" transform="translate(0,0)"><circle cx="216" cy="-92.14757746666666" r="1" stroke="#dd1313" stroke-width="0.5" stroke-dasharray="1,0" fill="white" fill-opacity="1" class="circle1"></circle></g><g class="group2" transform="translate(0,0)"><circle cx="221.39999999999998" cy="-91.55174594" r="1" stroke="#dd1313" stroke-width="0.5" stroke-dasharray="1,0" fill="white" fill-opacity="1" class="circle1"></circle></g><g class="group2" transform="translate(0,0)"><circle cx="226.79999999999998" cy="-91.55174594" r="1" stroke="#dd1313" stroke-width="0.5" stroke-dasharray="1,0" fill="white" fill-opacity="1" class="circle1"></circle></g><g class="group2" transform="translate(0,0)"><circle cx="232.2" cy="-91.55174594" r="1" stroke="#dd1313" stroke-width="0.5" stroke-dasharray="1,0" fill="white" fill-opacity="1" class="circle1"></circle></g><g class="group2" transform="translate(0,0)"><circle cx="237.6" cy="-91.55174594" r="1" stroke="#dd1313" stroke-width="0.5" stroke-dasharray="1,0" fill="white" fill-opacity="1" class="circle1"></circle></g><g class="group2" transform="translate(0,0)"><circle cx="243" cy="-86.98601174000001" r="1" stroke="#dd1313" stroke-width="0.5" stroke-dasharray="1,0" fill="white" fill-opacity="1" class="circle1"></circle></g><g class="group2" transform="translate(0,0)"><circle cx="248.4" cy="-86.69423371333335" r="1" stroke="#dd1313" stroke-width="0.5" stroke-dasharray="1,0" fill="white" fill-opacity="1" class="circle1"></circle></g><g class="group2" transform="translate(0,0)"><circle cx="253.79999999999998" cy="-82.45368792333333" r="1" stroke="#dd1313" stroke-width="0.5" stroke-dasharray="1,0" fill="white" fill-opacity="1" class="circle1"></circle></g><g class="group2" transform="translate(0,0)"><circle cx="259.2" cy="-82.45368792333333" r="1" stroke="#dd1313" stroke-width="0.5" stroke-dasharray="1,0" fill="white" fill-opacity="1" class="circle1"></circle></g><g class="group2" transform="translate(0,0)"><circle cx="264.6" cy="-75.39330152999999" r="1" stroke="#dd1313" stroke-width="0.5" stroke-dasharray="1,0" fill="white" fill-opacity="1" class="circle1"></circle></g><g class="group2" transform="translate(0,0)"><circle cx="270" cy="-101.57603535666667" r="1" stroke="#dd1313" stroke-width="0.5" stroke-dasharray="1,0" fill="white" fill-opacity="1" class="circle1"></circle></g></g><g transform="translate(290,-100)" class="legend2"><g class="legend2_2" transform="translate(0,0)"><g class="legend2_4_g"><text x="20" y="0" style="text-anchor: start; font-size: 12px; font-weight: normal; font-family: Arial; font-style: normal;" transform="rotate(0,20,0)" dominant-baseline="middle" fill="black" class="legend2_4">Group1</text></g><line x1="0" y1="0" x2="18" y2="0" stroke="#6623e1" stroke-width="1" stroke-dasharray="1,0" class="line_h2"></line><circle cx="9" cy="0" r="2" stroke="#6623e1" stroke-width="1" stroke-dasharray="1,0" fill="white" fill-opacity="1" class="dot1"></circle></g><g class="legend2_2" transform="translate(0,23)"><g class="legend2_4_g"><text x="20" y="0" style="text-anchor: start; font-size: 12px; font-weight: normal; font-family: Arial; font-style: normal;" transform="rotate(0,20,0)" dominant-baseline="middle" fill="black" class="legend2_4">Group3</text></g><line x1="0" y1="0" x2="18" y2="0" stroke="#dd1313" stroke-width="1" stroke-dasharray="1,0" class="line_h2"></line><circle cx="9" cy="0" r="2" stroke="#dd1313" stroke-width="1" stroke-dasharray="1,0" fill="white" fill-opacity="1" class="dot1"></circle></g></g></g></svg>
