<svg width="480" height="400" id="ngplotSvg"><g transform="translate(250,200)" class="group1"><g class="group2" transform="translate(0,0)"><path d="M0,0L0,0L0,0L0,0L0,0L0,0L0,0L0,0" id="e_path1_0" fill="none" stroke="#0073c2" stroke-width="0.3" datum="0,0,0,0,0,0,0,0,0,0,0,0,0,0,0,0,0,0,0,0,0,0,0,0,0,0,0,0,0,0,0,0,0,0,0,0,0,0,0,0,0,0,0,0,0,0,0,0,0,0,0,0,0,0,0,0,0,0,0,0,0,0,0,0" stroke-dasharray="1,0" fill-opacity="0.2" class="path1"></path><g class="text2_g"><text x="0" y="13" style="text-anchor: middle; font-size: 10px; font-weight: normal; font-family: Arial; font-style: normal;" transform="rotate(0,0,13)" dominant-baseline="auto" fill="black" class="text2">0</text></g></g><g class="group2" transform="translate(0,0)"><path d="M0,-35L27.354,-21.835L34.13,7.757L15.229,31.513L-15.129,31.561L-34.105,7.866L-27.424,-21.747L-0.111,-35" id="e_path1_1" fill="none" stroke="#efc000" stroke-width="0.3" datum="20,20,20,20,20,20,20,20,20,20,20,20,20,20,20,20,20,20,20,20,20,20,20,20,20,20,20,20,20,20,20,20,20,20,20,20,20,20,20,20,20,20,20,20,20,20,20,20,20,20,20,20,20,20,20,20,20,20,20,20,20,20,20,20" stroke-dasharray="1,0" fill-opacity="0.2" class="path1"></path><g class="text2_g"><text x="0" y="-22" style="text-anchor: middle; font-size: 10px; font-weight: normal; font-family: Arial; font-style: normal;" transform="rotate(0,0,-22)" dominant-baseline="auto" fill="black" class="text2">20</text></g></g><g class="group2" transform="translate(0,0)"><path d="M0,-70L54.708,-43.669L68.259,15.514L30.458,63.026L-30.257,63.123L-68.209,15.732L-54.847,-43.495L-0.223,-70" id="e_path1_2" fill="none" stroke="#868686" stroke-width="0.3" datum="40,40,40,40,40,40,40,40,40,40,40,40,40,40,40,40,40,40,40,40,40,40,40,40,40,40,40,40,40,40,40,40,40,40,40,40,40,40,40,40,40,40,40,40,40,40,40,40,40,40,40,40,40,40,40,40,40,40,40,40,40,40,40,40" stroke-dasharray="1,0" fill-opacity="0.2" class="path1"></path><g class="text2_g"><text x="0" y="-57" style="text-anchor: middle; font-size: 10px; font-weight: normal; font-family: Arial; font-style: normal;" transform="rotate(0,0,-57)" dominant-baseline="auto" fill="black" class="text2">40</text></g></g><g class="group2" transform="translate(0,0)"><path d="M0,-105L82.063,-65.504L102.389,23.272L45.687,94.539L-45.386,94.684L-102.314,23.598L-82.271,-65.242L-0.334,-104.999" id="e_path1_3" fill="none" stroke="#cd534c" stroke-width="0.3" datum="60,60,60,60,60,60,60,60,60,60,60,60,60,60,60,60,60,60,60,60,60,60,60,60,60,60,60,60,60,60,60,60,60,60,60,60,60,60,60,60,60,60,60,60,60,60,60,60,60,60,60,60,60,60,60,60,60,60,60,60,60,60,60,60" stroke-dasharray="1,0" fill-opacity="0.2" class="path1"></path><g class="text2_g"><text x="0" y="-92" style="text-anchor: middle; font-size: 10px; font-weight: normal; font-family: Arial; font-style: normal;" transform="rotate(0,0,-92)" dominant-baseline="auto" fill="black" class="text2">60</text></g></g><g class="group2" transform="translate(0,0)"><path d="M0,-140L109.417,-87.338L136.518,31.029L60.916,126.053L-60.514,126.246L-136.419,31.463L-109.694,-86.989L-0.446,-139.999" id="e_path1_4" fill="none" stroke="#7aa6dc" stroke-width="0.3" datum="80,80,80,80,80,80,80,80,80,80,80,80,80,80,80,80,80,80,80,80,80,80,80,80,80,80,80,80,80,80,80,80,80,80,80,80,80,80,80,80,80,80,80,80,80,80,80,80,80,80,80,80,80,80,80,80,80,80,80,80,80,80,80,80" stroke-dasharray="1,0" fill-opacity="0.2" class="path1"></path><g class="text2_g"><text x="0" y="-127" style="text-anchor: middle; font-size: 10px; font-weight: normal; font-family: Arial; font-style: normal;" transform="rotate(0,0,-127)" dominant-baseline="auto" fill="black" class="text2">80</text></g></g><path d="M0,-140L109.417,-87.338L136.518,31.029L60.916,126.053L-60.514,126.246L-136.419,31.463L-109.694,-86.989L-0.446,-139.999" id="e_path3" fill="none" stroke="black" stroke-width="0" datum=",,,,,,,,,,,,,,,,,,,,,,,,,,,,,,,,,,,,,,,,,,,,,,,,,,,,,,,,,,,,,,," stroke-dasharray="1,0" fill-opacity="0.5" class="path3"></path><g class="group3" transform="translate(0,0)"><line x1="0" y1="0" x2="0" y2="-140" stroke="#c9c5c5" stroke-width="1" stroke-dasharray="1,0" class="line1"></line><g class="text1_g"><text x="0" y="-148" style="text-anchor: middle; font-size: 12px; font-weight: normal; font-family: Arial; font-style: normal;" transform="rotate(0,0,-148)" dominant-baseline="middle" fill="black" class="text1">a</text></g></g><g class="group3" transform="translate(0,0)"><line x1="0" y1="0" x2="109.41667608375798" y2="-87.33837068998932" stroke="#c9c5c5" stroke-width="1" stroke-dasharray="1,0" class="line1"></line><g class="text1_g"><text x="115.66905757425843" y="-92.32913472941728" style="text-anchor: middle; font-size: 12px; font-weight: normal; font-family: Arial; font-style: normal;" transform="rotate(51.40249933459387,115.66905757425843,-92.32913472941728)" dominant-baseline="middle" fill="black" class="text1">b</text></g></g><g class="group3" transform="translate(0,0)"><line x1="0" y1="0" x2="136.51820307813918" y2="31.028700074543075" stroke="#c9c5c5" stroke-width="1" stroke-dasharray="1,0" class="line1"></line><g class="text1_g"><text x="144.31924325403284" y="32.80176865023125" style="text-anchor: middle; font-size: 12px; font-weight: normal; font-family: Arial; font-style: normal;" transform="rotate(282.80499866918774,144.31924325403284,32.80176865023125)" dominant-baseline="middle" fill="black" class="text1">ccc</text></g></g><g class="group3" transform="translate(0,0)"><line x1="0" y1="0" x2="60.91585857866713" y2="126.05260082054566" stroke="#c9c5c5" stroke-width="1" stroke-dasharray="1,0" class="line1"></line><g class="text1_g"><text x="64.3967647831624" y="133.2556065817197" style="text-anchor: middle; font-size: 12px; font-weight: normal; font-family: Arial; font-style: normal;" transform="rotate(334.20749800378155,64.3967647831624,133.2556065817197)" dominant-baseline="middle" fill="black" class="text1">d</text></g></g><g class="group3" transform="translate(0,0)"><line x1="0" y1="0" x2="-60.51403397181634" y2="126.24599673834358" stroke="#c9c5c5" stroke-width="1" stroke-dasharray="1,0" class="line1"></line><g class="text1_g"><text x="-63.971978770205844" y="133.46005369482037" style="text-anchor: middle; font-size: 12px; font-weight: normal; font-family: Arial; font-style: normal;" transform="rotate(385.6099973383755,-63.971978770205844,133.46005369482037)" dominant-baseline="middle" fill="black" class="text1">e</text></g></g><g class="group3" transform="translate(0,0)"><line x1="0" y1="0" x2="-136.41867473548288" y2="31.46339434032067" stroke="#c9c5c5" stroke-width="1" stroke-dasharray="1,0" class="line1"></line><g class="text1_g"><text x="-144.21402757751048" y="33.26130258833899" style="text-anchor: middle; font-size: 12px; font-weight: normal; font-family: Arial; font-style: normal;" transform="rotate(437.0124966729693,-144.21402757751048,33.26130258833899)" dominant-baseline="middle" fill="black" class="text1">f</text></g></g><g class="group3" transform="translate(0,0)"><line x1="0" y1="0" x2="-109.6943200722507" y2="-86.98940248034019" stroke="#c9c5c5" stroke-width="1" stroke-dasharray="1,0" class="line1"></line><g class="text1_g"><text x="-115.96256693352217" y="-91.96022547921677" style="text-anchor: middle; font-size: 12px; font-weight: normal; font-family: Arial; font-style: normal;" transform="rotate(308.4149960075631,-115.96256693352217,-91.96022547921677)" dominant-baseline="middle" fill="black" class="text1">g</text></g></g><g class="group3" transform="translate(0,0)"><line x1="0" y1="0" x2="-0.44594225103931867" y2="-139.99928976787254" stroke="#c9c5c5" stroke-width="1" stroke-dasharray="1,0" class="line1"></line><g class="text1_g"><text x="-0.47142466538442257" y="-147.99924918317953" style="text-anchor: middle; font-size: 12px; font-weight: normal; font-family: Arial; font-style: normal;" transform="rotate(359.81749534215703,-0.47142466538442257,-147.99924918317953)" dominant-baseline="middle" fill="black" class="text1"></text></g></g><g class="group4" transform="translate(0,0)"><path d="M0,-35L39.664,-31.66L59.727,13.575L50.256,103.993L-38.578,80.482L-107.43,24.777L-30.166,-23.922L-0.111,-35" id="e_path2_0" fill="none" stroke="#f8766d" stroke-width="2" datum="[object Object],[object Object],[object Object],[object Object],[object Object],[object Object],[object Object],[object Object]" stroke-dasharray="1,0" fill-opacity="0.5" class="path2"></path><g class="group5" transform="translate(0,-35)"><circle cx="0" cy="0" r="3" stroke="black" stroke-width="0" stroke-dasharray="1,0" fill="#f8766d" fill-opacity="1" class="dot1"></circle></g><g class="group5" transform="translate(39.66354508036227,-31.660159375121125)"><circle cx="0" cy="0" r="3" stroke="black" stroke-width="0" stroke-dasharray="1,0" fill="#f8766d" fill-opacity="1" class="dot1"></circle></g><g class="group5" transform="translate(59.72671384668589,13.575056282612595)"><circle cx="0" cy="0" r="3" stroke="black" stroke-width="0" stroke-dasharray="1,0" fill="#f8766d" fill-opacity="1" class="dot1"></circle></g><g class="group5" transform="translate(50.25558332740042,103.99339567695014)"><circle cx="0" cy="0" r="3" stroke="black" stroke-width="0" stroke-dasharray="1,0" fill="#f8766d" fill-opacity="1" class="dot1"></circle></g><g class="group5" transform="translate(-38.57769665703292,80.48182292069403)"><circle cx="0" cy="0" r="3" stroke="black" stroke-width="0" stroke-dasharray="1,0" fill="#f8766d" fill-opacity="1" class="dot1"></circle></g><g class="group5" transform="translate(-107.4297063541928,24.77742304300243)"><circle cx="0" cy="0" r="3" stroke="black" stroke-width="0" stroke-dasharray="1,0" fill="#f8766d" fill-opacity="1" class="dot1"></circle></g><g class="group5" transform="translate(-30.16593801986892,-23.922085682093577)"><circle cx="0" cy="0" r="3" stroke="black" stroke-width="0" stroke-dasharray="1,0" fill="#f8766d" fill-opacity="1" class="dot1"></circle></g></g><g class="group4" transform="translate(0,0)"><path d="M0,-87.5L53.341,-42.577L127.986,29.089L12.183,25.211L-31.013,64.701L-39.22,9.046L-85.013,-67.417L-0.279,-87.5" id="e_path2_1" fill="none" stroke="#bb9d00" stroke-width="2" datum="[object Object],[object Object],[object Object],[object Object],[object Object],[object Object],[object Object],[object Object]" stroke-dasharray="1,0" fill-opacity="0.5" class="path2"></path><g class="group5" transform="translate(0,-87.5)"><circle cx="0" cy="0" r="3" stroke="black" stroke-width="0" stroke-dasharray="1,0" fill="#bb9d00" fill-opacity="1" class="dot1"></circle></g><g class="group5" transform="translate(53.340629590832016,-42.577455711369794)"><circle cx="0" cy="0" r="3" stroke="black" stroke-width="0" stroke-dasharray="1,0" fill="#bb9d00" fill-opacity="1" class="dot1"></circle></g><g class="group5" transform="translate(127.98581538575547,29.089406319884134)"><circle cx="0" cy="0" r="3" stroke="black" stroke-width="0" stroke-dasharray="1,0" fill="#bb9d00" fill-opacity="1" class="dot1"></circle></g><g class="group5" transform="translate(12.183171715733437,25.210520164109127)"><circle cx="0" cy="0" r="3" stroke="black" stroke-width="0" stroke-dasharray="1,0" fill="#bb9d00" fill-opacity="1" class="dot1"></circle></g><g class="group5" transform="translate(-31.013442410555875,64.7010733284011)"><circle cx="0" cy="0" r="3" stroke="black" stroke-width="0" stroke-dasharray="1,0" fill="#bb9d00" fill-opacity="1" class="dot1"></circle></g><g class="group5" transform="translate(-39.22036898645134,9.045725872842157)"><circle cx="0" cy="0" r="3" stroke="black" stroke-width="0" stroke-dasharray="1,0" fill="#bb9d00" fill-opacity="1" class="dot1"></circle></g><g class="group5" transform="translate(-85.01309805599423,-67.41678692226373)"><circle cx="0" cy="0" r="3" stroke="black" stroke-width="0" stroke-dasharray="1,0" fill="#bb9d00" fill-opacity="1" class="dot1"></circle></g></g><g transform="translate(170,0)" class="legendCL1"><g class="legendCL1_1_g"><text x="0" y="-10" style="text-anchor: start; font-size: 12px; font-weight: normal; font-family: Arial; font-style: normal;" transform="rotate(0,0,-10)" dominant-baseline="auto" fill="black" class="legendCL1_1"></text></g><g class="legendCL1_2" transform="translate(0,0)"><line x1="-6" y1="0" x2="6" y2="0" stroke="#f8766d" stroke-width="1" stroke-dasharray="1,0" class="legendCL1_3"></line><circle cx="0" cy="0" r="4" stroke="black" stroke-width="0" stroke-dasharray="1,0" fill="#f8766d" fill-opacity="1" class="legendCL1_4"></circle><g class="legendCL1_5_g"><text x="12" y="0" style="text-anchor: start; font-size: 12px; font-weight: normal; font-family: Arial; font-style: normal;" transform="rotate(0,12,0)" dominant-baseline="middle" fill="black" class="legendCL1_5">aaaaa</text></g></g><g class="legendCL1_2" transform="translate(0,17)"><line x1="-6" y1="0" x2="6" y2="0" stroke="#bb9d00" stroke-width="1" stroke-dasharray="1,0" class="legendCL1_3"></line><circle cx="0" cy="0" r="4" stroke="black" stroke-width="0" stroke-dasharray="1,0" fill="#bb9d00" fill-opacity="1" class="legendCL1_4"></circle><g class="legendCL1_5_g"><text x="12" y="0" style="text-anchor: start; font-size: 12px; font-weight: normal; font-family: Arial; font-style: normal;" transform="rotate(0,12,0)" dominant-baseline="middle" fill="black" class="legendCL1_5">bbbbb</text></g></g></g></g><defs class="gradient1_defs"><radialGradient id="gradient1_0" cx="50%" cy="50%" r="100%" fx="50%" fy="50%" class="gradient1_0"><stop offset="0%" style="stop-color:#f5f5f5;stop-opacity:1" class="gradient1_0s1"></stop><stop offset="100%" style="stop-color:#8ac6f4;stop-opacity:1" class="gradient1_0s2"></stop></radialGradient></defs></svg>
