<svg width="450" height="450" id="ngplotSvg"><g class="group7" transform="translate(100,300)"><path d="M0,-230A230,230,0,0,1,35.962,-227.171L12.508,-79.016A80,80,0,0,0,0,-80Z" transform="translate(0,0)" fill="#0073c2" stroke="black" stroke-width="0" stroke-dasharray="1,0" fill-opacity="0.1" class="arc3"></path><path d="M0,-235A235,235,0,0,1,36.744,-232.11L36.587,-231.122A234,234,0,0,0,0,-234Z" transform="translate(0,0)" fill="#0073c2" stroke="black" stroke-width="0" stroke-dasharray="1,0" fill-opacity="1" class="arc4"></path><g class="text4_g"><text x="18.820656495937392" y="-239.2609096552588" style="text-anchor: start; font-size: 10px; font-weight: normal; font-family: Arial;" transform="rotate(-85.5,18.820656495937392,-239.2609096552588)" dominant-baseline="middle" fill="black" class="text4">name1</text></g></g><g class="group7" transform="translate(100,300)"><path d="M35.962,-227.171A230,230,0,0,1,71.039,-218.754L24.709,-76.088A80,80,0,0,0,12.508,-79.016Z" transform="translate(0,0)" fill="#efc000" stroke="black" stroke-width="0" stroke-dasharray="1,0" fill-opacity="0.1" class="arc3"></path><path d="M36.744,-232.11A235,235,0,0,1,72.583,-223.51L72.275,-222.559A234,234,0,0,0,36.587,-231.122Z" transform="translate(0,0)" fill="#efc000" stroke="black" stroke-width="0" stroke-dasharray="1,0" fill-opacity="1" class="arc4"></path><g class="text4_g"><text x="55.99901125378795" y="-233.37547158730743" style="text-anchor: start; font-size: 10px; font-weight: normal; font-family: Arial;" transform="rotate(-76.5,55.99901125378795,-233.37547158730743)" dominant-baseline="middle" fill="black" class="text4">name2</text></g></g><g class="group7" transform="translate(100,300)"><path d="M71.039,-218.754A230,230,0,0,1,104.369,-204.956L36.302,-71.289A80,80,0,0,0,24.709,-76.088Z" transform="translate(0,0)" fill="#cd534c" stroke="black" stroke-width="0" stroke-dasharray="1,0" fill-opacity="0.1" class="arc3"></path><path d="M72.583,-223.51A235,235,0,0,1,106.638,-209.412L106.184,-208.521A234,234,0,0,0,72.275,-222.559Z" transform="translate(0,0)" fill="#cd534c" stroke="black" stroke-width="0" stroke-dasharray="1,0" fill-opacity="1" class="arc4"></path><g class="text4_g"><text x="91.79987934624232" y="-221.74936787286532" style="text-anchor: start; font-size: 10px; font-weight: normal; font-family: Arial;" transform="rotate(-67.5,91.79987934624232,-221.74936787286532)" dominant-baseline="middle" fill="black" class="text4">name3</text></g></g><g class="group7" transform="translate(100,300)"><path d="M104.369,-204.956A230,230,0,0,1,135.131,-186.117L47.002,-64.736A80,80,0,0,0,36.302,-71.289Z" transform="translate(0,0)" fill="#7aa6dc" stroke="black" stroke-width="0" stroke-dasharray="1,0" fill-opacity="0.1" class="arc3"></path><path d="M106.638,-209.412A235,235,0,0,1,138.069,-190.163L137.481,-189.354A234,234,0,0,0,106.184,-208.521Z" transform="translate(0,0)" fill="#7aa6dc" stroke="black" stroke-width="0" stroke-dasharray="1,0" fill-opacity="1" class="arc4"></path><g class="text4_g"><text x="125.34261632435714" y="-204.6685821834045" style="text-anchor: start; font-size: 10px; font-weight: normal; font-family: Arial;" transform="rotate(-58.5,125.34261632435714,-204.6685821834045)" dominant-baseline="middle" fill="black" class="text4">name4</text></g></g><g class="group7" transform="translate(100,300)"><path d="M135.131,-186.117A230,230,0,0,1,162.57,-162.699L56.546,-56.591A80,80,0,0,0,47.002,-64.736Z" transform="translate(0,0)" fill="#003c67" stroke="black" stroke-width="0" stroke-dasharray="1,0" fill-opacity="0.1" class="arc3"></path><path d="M138.069,-190.163A235,235,0,0,1,166.104,-166.236L165.397,-165.529A234,234,0,0,0,137.481,-189.354Z" transform="translate(0,0)" fill="#003c67" stroke="black" stroke-width="0" stroke-dasharray="1,0" fill-opacity="1" class="arc4"></path><g class="text4_g"><text x="155.80212417526135" y="-182.55327469666614" style="text-anchor: start; font-size: 10px; font-weight: normal; font-family: Arial;" transform="rotate(-49.5,155.80212417526135,-182.55327469666614)" dominant-baseline="middle" fill="black" class="text4">name5</text></g></g><g class="group7" transform="translate(100,300)"><path d="M162.57,-162.699A230,230,0,0,1,186.009,-135.279L64.699,-47.054A80,80,0,0,0,56.546,-56.591Z" transform="translate(0,0)" fill="#8f7700" stroke="black" stroke-width="0" stroke-dasharray="1,0" fill-opacity="0.1" class="arc3"></path><path d="M166.104,-166.236A235,235,0,0,1,190.053,-138.22L189.244,-137.632A234,234,0,0,0,165.397,-165.529Z" transform="translate(0,0)" fill="#8f7700" stroke="black" stroke-width="0" stroke-dasharray="1,0" fill-opacity="1" class="arc4"></path><g class="text4_g"><text x="182.42914742176447" y="-155.94744682414046" style="text-anchor: start; font-size: 10px; font-weight: normal; font-family: Arial;" transform="rotate(-40.5,182.42914742176447,-155.94744682414046)" dominant-baseline="middle" fill="black" class="text4">name6</text></g></g><g class="group7" transform="translate(100,300)"><path d="M186.009,-135.279A230,230,0,0,1,204.873,-104.532L71.26,-36.359A80,80,0,0,0,64.699,-47.054Z" transform="translate(0,0)" fill="#4a6990" stroke="black" stroke-width="0" stroke-dasharray="1,0" fill-opacity="0.1" class="arc3"></path><path d="M190.053,-138.22A235,235,0,0,1,209.327,-106.804L208.436,-106.35A234,234,0,0,0,189.244,-137.632Z" transform="translate(0,0)" fill="#4a6990" stroke="black" stroke-width="0" stroke-dasharray="1,0" fill-opacity="1" class="arc4"></path><g class="text4_g"><text x="204.56870361614034" y="-125.50555964104431" style="text-anchor: start; font-size: 10px; font-weight: normal; font-family: Arial;" transform="rotate(-31.5,204.56870361614034,-125.50555964104431)" dominant-baseline="middle" fill="black" class="text4">name7</text></g></g><g class="group7" transform="translate(100,300)"><path d="M204.873,-104.532A230,230,0,0,1,218.698,-71.213L76.069,-24.77A80,80,0,0,0,71.26,-36.359Z" transform="translate(0,0)" fill="#66c2a5" stroke="black" stroke-width="0" stroke-dasharray="1,0" fill-opacity="0.1" class="arc3"></path><path d="M209.327,-106.804A235,235,0,0,1,223.452,-72.761L222.501,-72.452A234,234,0,0,0,208.436,-106.35Z" transform="translate(0,0)" fill="#66c2a5" stroke="black" stroke-width="0" stroke-dasharray="1,0" fill-opacity="1" class="arc4"></path><g class="text4_g"><text x="221.67619486723456" y="-91.97643518414839" style="text-anchor: start; font-size: 10px; font-weight: normal; font-family: Arial;" transform="rotate(-22.5,221.67619486723456,-91.97643518414839)" dominant-baseline="middle" fill="black" class="text4">name8</text></g></g><g class="group7" transform="translate(100,300)"><path d="M218.698,-71.213A230,230,0,0,1,227.142,-36.143L79.006,-12.571A80,80,0,0,0,76.069,-24.77Z" transform="translate(0,0)" fill="#fc8d62" stroke="black" stroke-width="0" stroke-dasharray="1,0" fill-opacity="0.1" class="arc3"></path><path d="M223.452,-72.761A235,235,0,0,1,232.08,-36.928L231.093,-36.771A234,234,0,0,0,222.501,-72.452Z" transform="translate(0,0)" fill="#fc8d62" stroke="black" stroke-width="0" stroke-dasharray="1,0" fill-opacity="1" class="arc4"></path><g class="text4_g"><text x="233.33080408293876" y="-56.18483661993915" style="text-anchor: start; font-size: 10px; font-weight: normal; font-family: Arial;" transform="rotate(-13.5,233.33080408293876,-56.18483661993915)" dominant-baseline="middle" fill="black" class="text4">name9</text></g></g><g class="group7" transform="translate(100,300)"><path d="M227.142,-36.143A230,230,0,0,1,230,-0.183L80,-0.064A80,80,0,0,0,79.006,-12.571Z" transform="translate(0,0)" fill="#e78ac3" stroke="black" stroke-width="0" stroke-dasharray="1,0" fill-opacity="0.1" class="arc3"></path><path d="M232.08,-36.928A235,235,0,0,1,235,-0.187L234,-0.186A234,234,0,0,0,231.093,-36.771Z" transform="translate(0,0)" fill="#e78ac3" stroke="black" stroke-width="0" stroke-dasharray="1,0" fill-opacity="1" class="arc4"></path><g class="text4_g"><text x="239.2458464017599" y="-19.011180381699187" style="text-anchor: start; font-size: 10px; font-weight: normal; font-family: Arial;" transform="rotate(-4.5,239.2458464017599,-19.011180381699187)" dominant-baseline="middle" fill="black" class="text4">name10</text></g></g><g class="group8" transform="translate(100,300)"></g><g class="group8" transform="translate(100,300)"></g><g class="group8" transform="translate(100,300)"></g><g class="group8" transform="translate(100,300)"></g><g class="group8" transform="translate(100,300)"></g><g transform="translate(100,300)" class="group5"><g transform="translate(0,0)" class="group2"><g class="group1" transform="translate(0,0)"><path d="M3.611,-229.972A230,230,0,0,1,32.391,-227.708L27.11,-190.581A192.5,192.5,0,0,0,3.022,-192.476Z" transform="translate(0,0)" fill="#0073c2" stroke="black" stroke-width="0" stroke-dasharray="1,0" fill-opacity="0.7" class="arc2"></path><g class="text2_g"><text x="17.644365464941306" y="-224.30710280180514" style="text-anchor: end; font-size: 8px; font-weight: normal; font-family: Arial;" transform="rotate(-85.5,17.644365464941306,-224.30710280180514)" dominant-baseline="middle" fill="black" class="text2">3</text></g></g><g class="group1" transform="translate(0,0)"><path d="M39.524,-226.579A230,230,0,0,1,67.596,-219.843L52.901,-172.051A180,180,0,0,0,30.932,-177.322Z" transform="translate(0,0)" fill="#efc000" stroke="black" stroke-width="0" stroke-dasharray="1,0" fill-opacity="0.7" class="arc2"></path><g class="text2_g"><text x="52.499073050426205" y="-218.78950461310072" style="text-anchor: end; font-size: 8px; font-weight: normal; font-family: Arial;" transform="rotate(-76.5,52.499073050426205,-218.78950461310072)" dominant-baseline="middle" fill="black" class="text2">4</text></g></g><g class="group1" transform="translate(0,0)"><path d="M74.465,-217.612A230,230,0,0,1,101.138,-206.57L79.152,-161.663A180,180,0,0,0,58.277,-170.305Z" transform="translate(0,0)" fill="#cd534c" stroke="black" stroke-width="0" stroke-dasharray="1,0" fill-opacity="0.7" class="arc2"></path><g class="text2_g"><text x="86.06238688710218" y="-207.89003238081122" style="text-anchor: end; font-size: 8px; font-weight: normal; font-family: Arial;" transform="rotate(-67.5,86.06238688710218,-207.89003238081122)" dominant-baseline="middle" fill="black" class="text2">4</text></g></g><g class="group1" transform="translate(0,0)"><path d="M107.574,-203.293A230,230,0,0,1,132.193,-188.215L96.271,-137.07A167.5,167.5,0,0,0,78.342,-148.05Z" transform="translate(0,0)" fill="#7aa6dc" stroke="black" stroke-width="0" stroke-dasharray="1,0" fill-opacity="0.7" class="arc2"></path><g class="text2_g"><text x="117.50870280408482" y="-191.8767957969417" style="text-anchor: end; font-size: 8px; font-weight: normal; font-family: Arial;" transform="rotate(-58.5,117.50870280408482,-191.8767957969417)" dominant-baseline="middle" fill="black" class="text2">5</text></g></g><g class="group1" transform="translate(0,0)"><path d="M138.037,-183.973A230,230,0,0,1,159.995,-165.231L107.823,-111.352A155,155,0,0,0,93.025,-123.982Z" transform="translate(0,0)" fill="#003c67" stroke="black" stroke-width="0" stroke-dasharray="1,0" fill-opacity="0.7" class="arc2"></path><g class="text2_g"><text x="146.06449141430753" y="-171.14369502812448" style="text-anchor: end; font-size: 8px; font-weight: normal; font-family: Arial;" transform="rotate(-49.5,146.06449141430753,-171.14369502812448)" dominant-baseline="middle" fill="black" class="text2">6</text></g></g><g class="group1" transform="translate(0,0)"><path d="M165.104,-160.127A230,230,0,0,1,183.863,-138.183L113.915,-85.613A142.5,142.5,0,0,0,102.293,-99.209Z" transform="translate(0,0)" fill="#8f7700" stroke="black" stroke-width="0" stroke-dasharray="1,0" fill-opacity="0.7" class="arc2"></path><g class="text2_g"><text x="171.0273257079042" y="-146.2007313976317" style="text-anchor: end; font-size: 8px; font-weight: normal; font-family: Arial;" transform="rotate(-40.5,171.0273257079042,-146.2007313976317)" dominant-baseline="middle" fill="black" class="text2">7</text></g></g><g class="group1" transform="translate(0,0)"><path d="M188.11,-132.343A230,230,0,0,1,203.207,-107.736L125.9,-66.749A142.5,142.5,0,0,0,116.547,-81.995Z" transform="translate(0,0)" fill="#4a6990" stroke="black" stroke-width="0" stroke-dasharray="1,0" fill-opacity="0.7" class="arc2"></path><g class="text2_g"><text x="191.78315964013157" y="-117.66146216347904" style="text-anchor: end; font-size: 8px; font-weight: normal; font-family: Arial;" transform="rotate(-31.5,191.78315964013157,-117.66146216347904)" dominant-baseline="middle" fill="black" class="text2">7</text></g></g><g class="group1" transform="translate(0,0)"><path d="M206.489,-101.303A230,230,0,0,1,217.553,-74.638L122.965,-42.187A130,130,0,0,0,116.711,-57.258Z" transform="translate(0,0)" fill="#66c2a5" stroke="black" stroke-width="0" stroke-dasharray="1,0" fill-opacity="0.7" class="arc2"></path><g class="text2_g"><text x="207.8214326880324" y="-86.22790798513911" style="text-anchor: end; font-size: 8px; font-weight: normal; font-family: Arial;" transform="rotate(-22.5,207.8214326880324,-86.22790798513911)" dominant-baseline="middle" fill="black" class="text2">8</text></g></g><g class="group1" transform="translate(0,0)"><path d="M219.789,-67.771A230,230,0,0,1,226.547,-39.704L115.736,-20.284A117.5,117.5,0,0,0,112.283,-34.622Z" transform="translate(0,0)" fill="#fc8d62" stroke="black" stroke-width="0" stroke-dasharray="1,0" fill-opacity="0.7" class="arc2"></path><g class="text2_g"><text x="218.74762882775508" y="-52.67328433119295" style="text-anchor: end; font-size: 8px; font-weight: normal; font-family: Arial;" transform="rotate(-13.5,218.74762882775508,-52.67328433119295)" dominant-baseline="middle" fill="black" class="text2">9</text></g></g><g class="group1" transform="translate(0,0)"><path d="M227.682,-32.572A230,230,0,0,1,229.969,-3.794L79.989,-1.32A80,80,0,0,0,79.194,-11.329Z" transform="translate(0,0)" fill="#e78ac3" stroke="black" stroke-width="0" stroke-dasharray="1,0" fill-opacity="0.7" class="arc2"></path><g class="text2_g"><text x="224.29298100164993" y="-17.82298160784299" style="text-anchor: end; font-size: 8px; font-weight: normal; font-family: Arial;" transform="rotate(-4.5,224.29298100164993,-17.82298160784299)" dominant-baseline="middle" fill="black" class="text2">12</text></g></g><g class="text3_g"><text x="0" y="0" style="text-anchor: middle; font-size: 12px; font-weight: normal; font-family: Arial;" transform="rotate(0,0,0)" dominant-baseline="middle" fill="black" class="text3"></text></g></g><g transform="translate(0,0)" class="group3"><g class="group4" transform="translate(230,0)"><line x1="0" y1="0" x2="0" y2="2" stroke="black" stroke-width="0.3" stroke-dasharray="1,0" class="line_h1"></line><g class="text1_g"><text x="0" y="8" style="text-anchor: middle; font-size: 10px; font-weight: normal; font-family: Arial;" transform="rotate(0,0,8)" dominant-baseline="middle" fill="black" class="text1">0</text></g></g><g class="group4" transform="translate(192.5,0)"><line x1="0" y1="0" x2="0" y2="2" stroke="black" stroke-width="0.3" stroke-dasharray="1,0" class="line_h1"></line><g class="text1_g"><text x="0" y="8" style="text-anchor: middle; font-size: 10px; font-weight: normal; font-family: Arial;" transform="rotate(0,0,8)" dominant-baseline="middle" fill="black" class="text1">3</text></g></g><g class="group4" transform="translate(155,0)"><line x1="0" y1="0" x2="0" y2="2" stroke="black" stroke-width="0.3" stroke-dasharray="1,0" class="line_h1"></line><g class="text1_g"><text x="0" y="8" style="text-anchor: middle; font-size: 10px; font-weight: normal; font-family: Arial;" transform="rotate(0,0,8)" dominant-baseline="middle" fill="black" class="text1">6</text></g></g><g class="group4" transform="translate(117.5,0)"><line x1="0" y1="0" x2="0" y2="2" stroke="black" stroke-width="0.3" stroke-dasharray="1,0" class="line_h1"></line><g class="text1_g"><text x="0" y="8" style="text-anchor: middle; font-size: 10px; font-weight: normal; font-family: Arial;" transform="rotate(0,0,8)" dominant-baseline="middle" fill="black" class="text1">9</text></g></g><g class="group4" transform="translate(80,0)"><line x1="0" y1="0" x2="0" y2="2" stroke="black" stroke-width="0.3" stroke-dasharray="1,0" class="line_h1"></line><g class="text1_g"><text x="0" y="8" style="text-anchor: middle; font-size: 10px; font-weight: normal; font-family: Arial;" transform="rotate(0,0,8)" dominant-baseline="middle" fill="black" class="text1">12</text></g></g></g></g></svg>
