<svg width="530" height="450" id="ngplotSvg"><g transform="translate(80,40)" class="group1"><g transform="translate(0,200)" class="bSlN2axis1"><g transform="translate(0,0)" class="bSlN2axis1_1"><line x1="0" y1="0" x2="300" y2="0" stroke="black" stroke-width="1" stroke-dasharray="1,0" class="bSlN2axis1_2"></line><g class="bSlN2axis1_3" transform="translate(45,0)"><line x1="0" y1="0" x2="0" y2="5" stroke="black" stroke-width="1" stroke-dasharray="1,0" class="bSlN2axis1_4"></line><g class="bSlN2axis1_5_g"><text x="2" y="12" style="text-anchor: end; font-size: 12px; font-weight: normal; font-family: Arial;" transform="rotate(-45,2,12)" dominant-baseline="auto" fill="black" class="bSlN2axis1_5">yangJiaZ</text></g></g><g class="bSlN2axis1_3" transform="translate(150,0)"><line x1="0" y1="0" x2="0" y2="5" stroke="black" stroke-width="1" stroke-dasharray="1,0" class="bSlN2axis1_4"></line><g class="bSlN2axis1_5_g"><text x="2" y="12" style="text-anchor: end; font-size: 12px; font-weight: normal; font-family: Arial;" transform="rotate(-45,2,12)" dominant-baseline="auto" fill="black" class="bSlN2axis1_5">ganTang</text></g></g><g class="bSlN2axis1_3" transform="translate(255,0)"><line x1="0" y1="0" x2="0" y2="5" stroke="black" stroke-width="1" stroke-dasharray="1,0" class="bSlN2axis1_4"></line><g class="bSlN2axis1_5_g"><text x="2" y="12" style="text-anchor: end; font-size: 12px; font-weight: normal; font-family: Arial;" transform="rotate(-45,2,12)" dominant-baseline="auto" fill="black" class="bSlN2axis1_5">taQian</text></g></g><g class="text1_g"><text x="150" y="50" style="text-anchor: middle; font-size: 12px; font-weight: normal; font-family: Arial;" transform="rotate(0,150,50)" dominant-baseline="auto" fill="black" class="text1"></text></g></g><g transform="translate(0,0)" class="bSlN2axis1_6"><line x1="0" y1="0" x2="0" y2="-160" stroke="black" stroke-width="1" stroke-dasharray="1,0" class="bSlN2axis1_7"></line><g class="bSlN2axis1_8" transform="translate(0,0)"><line x1="0" y1="0" x2="-5" y2="0" stroke="black" stroke-width="1" stroke-dasharray="1,0" class="bSlN2axis1_9"></line><g class="bSlN2axis1_10_g"><text x="-10" y="0" style="text-anchor: end; font-size: 12px; font-weight: normal; font-family: Arial;" transform="rotate(0,-10,0)" dominant-baseline="middle" fill="black" class="bSlN2axis1_10">0</text></g></g><g class="bSlN2axis1_8" transform="translate(0,-40)"><line x1="0" y1="0" x2="-5" y2="0" stroke="black" stroke-width="1" stroke-dasharray="1,0" class="bSlN2axis1_9"></line><g class="bSlN2axis1_10_g"><text x="-10" y="0" style="text-anchor: end; font-size: 12px; font-weight: normal; font-family: Arial;" transform="rotate(0,-10,0)" dominant-baseline="middle" fill="black" class="bSlN2axis1_10">30</text></g></g><g class="bSlN2axis1_8" transform="translate(0,-80)"><line x1="0" y1="0" x2="-5" y2="0" stroke="black" stroke-width="1" stroke-dasharray="1,0" class="bSlN2axis1_9"></line><g class="bSlN2axis1_10_g"><text x="-10" y="0" style="text-anchor: end; font-size: 12px; font-weight: normal; font-family: Arial;" transform="rotate(0,-10,0)" dominant-baseline="middle" fill="black" class="bSlN2axis1_10">60</text></g></g><g class="bSlN2axis1_8" transform="translate(0,-120)"><line x1="0" y1="0" x2="-5" y2="0" stroke="black" stroke-width="1" stroke-dasharray="1,0" class="bSlN2axis1_9"></line><g class="bSlN2axis1_10_g"><text x="-10" y="0" style="text-anchor: end; font-size: 12px; font-weight: normal; font-family: Arial;" transform="rotate(0,-10,0)" dominant-baseline="middle" fill="black" class="bSlN2axis1_10">90</text></g></g><g class="bSlN2axis1_8" transform="translate(0,-160)"><line x1="0" y1="0" x2="-5" y2="0" stroke="black" stroke-width="1" stroke-dasharray="1,0" class="bSlN2axis1_9"></line><g class="bSlN2axis1_10_g"><text x="-10" y="0" style="text-anchor: end; font-size: 12px; font-weight: normal; font-family: Arial;" transform="rotate(0,-10,0)" dominant-baseline="middle" fill="black" class="bSlN2axis1_10">120</text></g></g><g class="text2_g"><text x="-40" y="-80" style="text-anchor: middle; font-size: 12px; font-weight: normal; font-family: Arial;" transform="rotate(-90,-40,-80)" dominant-baseline="auto" fill="black" class="text2"></text></g></g><g class="group2" transform="translate(45,0)"><g class="group3" transform="translate(-33.1730725,-142.66666666666669)"><rect x="0" y="0" width="14.423075" height="142.66666666666669" rx="0" ry="0" fill="#1f78b4" stroke="black" stroke-width="0" fill-opacity="1" class="rect1"></rect></g><g class="group3" transform="translate(-15.865382500000003,-124)"><rect x="0" y="0" width="14.423075" height="124" rx="0" ry="0" fill="#e04535" stroke="black" stroke-width="0" fill-opacity="1" class="rect1"></rect></g><g class="group3" transform="translate(1.4423074999999983,-106.66666666666666)"><rect x="0" y="0" width="14.423075" height="106.66666666666666" rx="0" ry="0" fill="#e49e22" stroke="black" stroke-width="0" fill-opacity="1" class="rect1"></rect></g><g class="group3" transform="translate(18.7499975,-118.66666666666667)"><rect x="0" y="0" width="14.423075" height="118.66666666666667" rx="0" ry="0" fill="#7d288d" stroke="black" stroke-width="0" fill-opacity="1" class="rect1"></rect></g></g><g class="group2" transform="translate(150,0)"><g class="group3" transform="translate(-33.1730725,-97.33333333333333)"><rect x="0" y="0" width="14.423075" height="97.33333333333333" rx="0" ry="0" fill="#1f78b4" stroke="black" stroke-width="0" fill-opacity="1" class="rect1"></rect></g><g class="group3" transform="translate(-15.865382500000003,-129.33333333333334)"><rect x="0" y="0" width="14.423075" height="129.33333333333334" rx="0" ry="0" fill="#e04535" stroke="black" stroke-width="0" fill-opacity="1" class="rect1"></rect></g><g class="group3" transform="translate(1.4423074999999983,-114.66666666666667)"><rect x="0" y="0" width="14.423075" height="114.66666666666667" rx="0" ry="0" fill="#e49e22" stroke="black" stroke-width="0" fill-opacity="1" class="rect1"></rect></g><g class="group3" transform="translate(18.7499975,-88)"><rect x="0" y="0" width="14.423075" height="88" rx="0" ry="0" fill="#7d288d" stroke="black" stroke-width="0" fill-opacity="1" class="rect1"></rect></g></g><g class="group2" transform="translate(255,0)"><g class="group3" transform="translate(-33.1730725,-114.66666666666667)"><rect x="0" y="0" width="14.423075" height="114.66666666666667" rx="0" ry="0" fill="#1f78b4" stroke="black" stroke-width="0" fill-opacity="1" class="rect1"></rect></g><g class="group3" transform="translate(-15.865382500000003,-137.33333333333331)"><rect x="0" y="0" width="14.423075" height="137.33333333333331" rx="0" ry="0" fill="#e04535" stroke="black" stroke-width="0" fill-opacity="1" class="rect1"></rect></g><g class="group3" transform="translate(1.4423074999999983,-106.66666666666666)"><rect x="0" y="0" width="14.423075" height="106.66666666666666" rx="0" ry="0" fill="#e49e22" stroke="black" stroke-width="0" fill-opacity="1" class="rect1"></rect></g><g class="group3" transform="translate(18.7499975,-88)"><rect x="0" y="0" width="14.423075" height="88" rx="0" ry="0" fill="#7d288d" stroke="black" stroke-width="0" fill-opacity="1" class="rect1"></rect></g></g><g class="pathLine1" transform="translate(0,0)"><path d="M19.038,-142.667L124.038,-97.333L229.038,-114.667" fill="none" stroke="#1f78b4" stroke-width="1" datum="[object Object],[object Object],[object Object]" stroke-dasharray="1,0" fill-opacity="1" class="pathLine1_1"></path></g><g class="pathLine1" transform="translate(0,0)"><path d="M36.346,-124L141.346,-129.333L246.346,-137.333" fill="none" stroke="#e04535" stroke-width="1" datum="[object Object],[object Object],[object Object]" stroke-dasharray="1,0" fill-opacity="1" class="pathLine1_1"></path></g><g class="pathLine1" transform="translate(0,0)"><path d="M53.654,-106.667L158.654,-114.667L263.654,-106.667" fill="none" stroke="#e49e22" stroke-width="1" datum="[object Object],[object Object],[object Object]" stroke-dasharray="1,0" fill-opacity="1" class="pathLine1_1"></path></g><g class="pathLine1" transform="translate(0,0)"><path d="M70.962,-118.667L175.962,-88L280.962,-88" fill="none" stroke="#7d288d" stroke-width="1" datum="[object Object],[object Object],[object Object]" stroke-dasharray="1,0" fill-opacity="1" class="pathLine1_1"></path></g></g><g transform="translate(0,0)" class="legend1"><g class="legend1_2" transform="translate(0,0)"><rect x="0" y="0" width="10" height="10" fill="#1f78b4" stroke="" stroke-width="" fill-opacity="1" class="legend1_3"></rect><g class="legend1_4_g"><text x="14" y="5" style="text-anchor: start; font-size: 10px; font-weight: normal; font-family: Arial;" transform="rotate(0,14,5)" dominant-baseline="middle" fill="black" class="legend1_4">Chinese</text></g></g><g class="legend1_2" transform="translate(70,0)"><rect x="0" y="0" width="10" height="10" fill="#e04535" stroke="" stroke-width="" fill-opacity="1" class="legend1_3"></rect><g class="legend1_4_g"><text x="14" y="5" style="text-anchor: start; font-size: 10px; font-weight: normal; font-family: Arial;" transform="rotate(0,14,5)" dominant-baseline="middle" fill="black" class="legend1_4">Math</text></g></g><g class="legend1_2" transform="translate(140,0)"><rect x="0" y="0" width="10" height="10" fill="#e49e22" stroke="" stroke-width="" fill-opacity="1" class="legend1_3"></rect><g class="legend1_4_g"><text x="14" y="5" style="text-anchor: start; font-size: 10px; font-weight: normal; font-family: Arial;" transform="rotate(0,14,5)" dominant-baseline="middle" fill="black" class="legend1_4">Physics</text></g></g><g class="legend1_2" transform="translate(210,0)"><rect x="0" y="0" width="10" height="10" fill="#7d288d" stroke="" stroke-width="" fill-opacity="1" class="legend1_3"></rect><g class="legend1_4_g"><text x="14" y="5" style="text-anchor: start; font-size: 10px; font-weight: normal; font-family: Arial;" transform="rotate(0,14,5)" dominant-baseline="middle" fill="black" class="legend1_4">Chemistry</text></g></g></g></g></svg>
