<svg width="450" height="450" id="ngplotSvg"><g class="group7" transform="translate(200,200)"><path d="M0,-125A125,125,0,0,1,67.55,-105.176L13.51,-21.035A25,25,0,0,0,0,-25Z" transform="translate(0,0)" id="e_arc3_0" fill="#c5cae9" stroke="black" stroke-width="0" stroke-dasharray="1,0" fill-opacity="0.2" class="arc3"></path><path d="M0,-130A130,130,0,0,1,70.252,-109.383L69.711,-108.542A129,129,0,0,0,0,-129Z" transform="translate(0,0)" id="e_arc4_0" fill="#c5cae9" stroke="black" stroke-width="0" stroke-dasharray="1,0" fill-opacity="1" class="arc4"></path><g class="text4_g"><text x="38.859921226653505" y="-132.41565814607532" style="text-anchor: middle; font-size: 10px; font-weight: normal; font-family: Arial; font-style: normal;" transform="rotate(16.355340697370764,38.859921226653505,-132.41565814607532)" dominant-baseline="middle" fill="black" class="text4">name1</text></g></g><g class="group7" transform="translate(200,200)"><path d="M67.55,-105.176A125,125,0,0,1,113.674,-51.993L22.735,-10.399A25,25,0,0,0,13.51,-21.035Z" transform="translate(0,0)" id="e_arc3_1" fill="#3f51b4" stroke="black" stroke-width="0" stroke-dasharray="1,0" fill-opacity="0.2" class="arc3"></path><path d="M70.252,-109.383A130,130,0,0,1,118.221,-54.072L117.311,-53.656A129,129,0,0,0,69.711,-108.542Z" transform="translate(0,0)" id="e_arc4_1" fill="#3f51b4" stroke="black" stroke-width="0" stroke-dasharray="1,0" fill-opacity="1" class="arc4"></path><g class="text4_g"><text x="104.2541779647901" y="-90.41607366439816" style="text-anchor: middle; font-size: 10px; font-weight: normal; font-family: Arial; font-style: normal;" transform="rotate(49.06602209211235,104.2541779647901,-90.41607366439816)" dominant-baseline="middle" fill="black" class="text4">name2</text></g></g><g class="group7" transform="translate(200,200)"><path d="M113.674,-51.993A125,125,0,0,1,123.743,17.682L24.749,3.536A25,25,0,0,0,22.735,-10.399Z" transform="translate(0,0)" id="e_arc3_2" fill="#c5cae9" stroke="black" stroke-width="0" stroke-dasharray="1,0" fill-opacity="0.2" class="arc3"></path><path d="M118.221,-54.072A130,130,0,0,1,128.693,18.389L127.703,18.248A129,129,0,0,0,117.311,-53.656Z" transform="translate(0,0)" id="e_arc4_2" fill="#c5cae9" stroke="black" stroke-width="0" stroke-dasharray="1,0" fill-opacity="1" class="arc4"></path><g class="text4_g"><text x="136.5811055342744" y="-19.738328476226123" style="text-anchor: middle; font-size: 10px; font-weight: normal; font-family: Arial; font-style: normal;" transform="rotate(81.77670348685388,136.5811055342744,-19.738328476226123)" dominant-baseline="middle" fill="black" class="text4">name3</text></g></g><g class="group7" transform="translate(200,200)"><path d="M123.743,17.682A125,125,0,0,1,94.563,81.748L18.913,16.35A25,25,0,0,0,24.749,3.536Z" transform="translate(0,0)" id="e_arc3_3" fill="#3f51b4" stroke="black" stroke-width="0" stroke-dasharray="1,0" fill-opacity="0.2" class="arc3"></path><path d="M128.693,18.389A130,130,0,0,1,98.346,85.018L97.589,84.364A129,129,0,0,0,127.703,18.248Z" transform="translate(0,0)" id="e_arc4_3" fill="#3f51b4" stroke="black" stroke-width="0" stroke-dasharray="1,0" fill-opacity="1" class="arc4"></path><g class="text4_g"><text x="125.58725245892343" y="57.200017655754515" style="text-anchor: middle; font-size: 10px; font-weight: normal; font-family: Arial; font-style: normal;" transform="rotate(294.4873848815954,125.58725245892343,57.200017655754515)" dominant-baseline="middle" fill="black" class="text4">name4</text></g></g><g class="group7" transform="translate(200,200)"><path d="M94.563,81.748A125,125,0,0,1,35.39,119.886L7.078,23.977A25,25,0,0,0,18.913,16.35Z" transform="translate(0,0)" id="e_arc3_4" fill="#c5cae9" stroke="black" stroke-width="0" stroke-dasharray="1,0" fill-opacity="0.2" class="arc3"></path><path d="M98.346,85.018A130,130,0,0,1,36.806,124.681L36.523,123.722A129,129,0,0,0,97.589,84.364Z" transform="translate(0,0)" id="e_arc4_4" fill="#c5cae9" stroke="black" stroke-width="0" stroke-dasharray="1,0" fill-opacity="1" class="arc4"></path><g class="text4_g"><text x="74.75964789738836" y="115.99566822195781" style="text-anchor: middle; font-size: 10px; font-weight: normal; font-family: Arial; font-style: normal;" transform="rotate(327.19806627633693,74.75964789738836,115.99566822195781)" dominant-baseline="middle" fill="black" class="text4">name5</text></g></g><g class="group7" transform="translate(200,200)"><path d="M35.39,119.886A125,125,0,0,1,-35.008,119.998L-7.002,24A25,25,0,0,0,7.078,23.977Z" transform="translate(0,0)" id="e_arc3_5" fill="#3f51b4" stroke="black" stroke-width="0" stroke-dasharray="1,0" fill-opacity="0.2" class="arc3"></path><path d="M36.806,124.681A130,130,0,0,1,-36.408,124.798L-36.128,123.838A129,129,0,0,0,36.523,123.722Z" transform="translate(0,0)" id="e_arc4_5" fill="#3f51b4" stroke="black" stroke-width="0" stroke-dasharray="1,0" fill-opacity="1" class="arc4"></path><g class="text4_g"><text x="0.2197861024751823" y="137.99982497840045" style="text-anchor: middle; font-size: 10px; font-weight: normal; font-family: Arial; font-style: normal;" transform="rotate(359.9087476710786,0.2197861024751823,137.99982497840045)" dominant-baseline="middle" fill="black" class="text4">name6</text></g></g><g class="group7" transform="translate(200,200)"><path d="M-35.008,119.998A125,125,0,0,1,-94.303,82.049L-18.861,16.41A25,25,0,0,0,-7.002,24Z" transform="translate(0,0)" id="e_arc3_6" fill="#c5cae9" stroke="black" stroke-width="0" stroke-dasharray="1,0" fill-opacity="0.2" class="arc3"></path><path d="M-36.408,124.798A130,130,0,0,1,-98.075,85.331L-97.32,84.674A129,129,0,0,0,-36.128,123.838Z" transform="translate(0,0)" id="e_arc4_6" fill="#c5cae9" stroke="black" stroke-width="0" stroke-dasharray="1,0" fill-opacity="1" class="arc4"></path><g class="text4_g"><text x="-74.38978742523491" y="116.23321180638675" style="text-anchor: middle; font-size: 10px; font-weight: normal; font-family: Arial; font-style: normal;" transform="rotate(392.61942906582,-74.38978742523491,116.23321180638675)" dominant-baseline="middle" fill="black" class="text4">name7</text></g></g><g class="group7" transform="translate(200,200)"><path d="M-94.303,82.049A125,125,0,0,1,-123.686,18.076L-24.737,3.615A25,25,0,0,0,-18.861,16.41Z" transform="translate(0,0)" id="e_arc3_7" fill="#3f51b4" stroke="black" stroke-width="0" stroke-dasharray="1,0" fill-opacity="0.2" class="arc3"></path><path d="M-98.075,85.331A130,130,0,0,1,-128.634,18.799L-127.644,18.654A129,129,0,0,0,-97.32,84.674Z" transform="translate(0,0)" id="e_arc4_7" fill="#3f51b4" stroke="black" stroke-width="0" stroke-dasharray="1,0" fill-opacity="1" class="arc4"></path><g class="text4_g"><text x="-125.40441602510631" y="57.59976077556277" style="text-anchor: middle; font-size: 10px; font-weight: normal; font-family: Arial; font-style: normal;" transform="rotate(425.3301104605615,-125.40441602510631,57.59976077556277)" dominant-baseline="middle" fill="black" class="text4">name8</text></g></g><g class="group7" transform="translate(200,200)"><path d="M-123.686,18.076A125,125,0,0,1,-113.839,-51.63L-22.768,-10.326A25,25,0,0,0,-24.737,3.615Z" transform="translate(0,0)" id="e_arc3_8" fill="#c5cae9" stroke="black" stroke-width="0" stroke-dasharray="1,0" fill-opacity="0.2" class="arc3"></path><path d="M-128.634,18.799A130,130,0,0,1,-118.393,-53.696L-117.482,-53.283A129,129,0,0,0,-127.644,18.654Z" transform="translate(0,0)" id="e_arc4_8" fill="#c5cae9" stroke="black" stroke-width="0" stroke-dasharray="1,0" fill-opacity="1" class="arc4"></path><g class="text4_g"><text x="-136.6432851795836" y="-19.30317630160878" style="text-anchor: middle; font-size: 10px; font-weight: normal; font-family: Arial; font-style: normal;" transform="rotate(278.04079185530315,-136.6432851795836,-19.30317630160878)" dominant-baseline="middle" fill="black" class="text4">name9</text></g></g><g class="group7" transform="translate(200,200)"><path d="M-113.839,-51.63A125,125,0,0,1,-67.884,-104.961L-13.577,-20.992A25,25,0,0,0,-22.768,-10.326Z" transform="translate(0,0)" id="e_arc3_9" fill="#3f51b4" stroke="black" stroke-width="0" stroke-dasharray="1,0" fill-opacity="0.2" class="arc3"></path><path d="M-118.393,-53.696A130,130,0,0,1,-70.6,-109.159L-70.057,-108.319A129,129,0,0,0,-117.482,-53.283Z" transform="translate(0,0)" id="e_arc4_9" fill="#3f51b4" stroke="black" stroke-width="0" stroke-dasharray="1,0" fill-opacity="1" class="arc4"></path><g class="text4_g"><text x="-104.54165155588599" y="-90.08353395581081" style="text-anchor: middle; font-size: 10px; font-weight: normal; font-family: Arial; font-style: normal;" transform="rotate(310.7514732500447,-104.54165155588599,-90.08353395581081)" dominant-baseline="middle" fill="black" class="text4">name10</text></g></g><g class="group7" transform="translate(200,200)"><path d="M-67.884,-104.961A125,125,0,0,1,-0.398,-124.999L-0.08,-25A25,25,0,0,0,-13.577,-20.992Z" transform="translate(0,0)" id="e_arc3_10" fill="#c5cae9" stroke="black" stroke-width="0" stroke-dasharray="1,0" fill-opacity="0.2" class="arc3"></path><path d="M-70.6,-109.159A130,130,0,0,1,-0.414,-129.999L-0.411,-128.999A129,129,0,0,0,-70.057,-108.319Z" transform="translate(0,0)" id="e_arc4_10" fill="#c5cae9" stroke="black" stroke-width="0" stroke-dasharray="1,0" fill-opacity="1" class="arc4"></path><g class="text4_g"><text x="-39.281507920239086" y="-132.29120581320663" style="text-anchor: middle; font-size: 10px; font-weight: normal; font-family: Arial; font-style: normal;" transform="rotate(343.4621546447862,-39.281507920239086,-132.29120581320663)" dominant-baseline="middle" fill="black" class="text4">name11</text></g></g><g class="group8" transform="translate(200,200)"><circle cx="0" cy="0" r="25" stroke="black" stroke-width="0.3" stroke-dasharray="1,1" fill="none" fill-opacity="1" class="circle2"></circle></g><g class="group8" transform="translate(200,200)"><circle cx="0" cy="0" r="50" stroke="black" stroke-width="0.3" stroke-dasharray="1,1" fill="none" fill-opacity="1" class="circle2"></circle></g><g class="group8" transform="translate(200,200)"><circle cx="0" cy="0" r="75" stroke="black" stroke-width="0.3" stroke-dasharray="1,1" fill="none" fill-opacity="1" class="circle2"></circle></g><g class="group8" transform="translate(200,200)"><circle cx="0" cy="0" r="100" stroke="black" stroke-width="0.3" stroke-dasharray="1,1" fill="none" fill-opacity="1" class="circle2"></circle></g><g class="group8" transform="translate(200,200)"><circle cx="0" cy="0" r="125" stroke="black" stroke-width="0.3" stroke-dasharray="1,1" fill="none" fill-opacity="1" class="circle2"></circle></g><g transform="translate(200,200)" class="group5"><g transform="translate(0,0)" class="group2"><g class="group1" transform="translate(0,0)"><path d="M5.23,-91.517A91.667,91.667,0,0,1,45.055,-79.83L12.288,-21.772A25,25,0,0,0,1.426,-24.959Z" transform="translate(0,0)" id="e_arc2_0" fill="rgb(113, 126, 200)" stroke="black" stroke-width="0" stroke-dasharray="1,0" fill-opacity="1" class="arc2"></path><g class="text2_g"><text x="27.220717767462595" y="-92.75492961923149" style="text-anchor: middle; font-size: 10px; font-weight: normal; font-family: Arial; font-style: normal;" transform="rotate(16.355340697370764,27.220717767462595,-92.75492961923149)" dominant-baseline="middle" fill="black" class="text2">8</text></g></g><g class="group1" transform="translate(0,0)"><path d="M58.753,-80.92A100,100,0,0,1,88.418,-46.715L22.104,-11.679A25,25,0,0,0,14.688,-20.23Z" transform="translate(0,0)" id="e_arc2_1" fill="rgb(97, 111, 193)" stroke="black" stroke-width="0" stroke-dasharray="1,0" fill-opacity="1" class="arc2"></path><g class="text2_g"><text x="79.32383106016638" y="-68.79483865769426" style="text-anchor: middle; font-size: 10px; font-weight: normal; font-family: Arial; font-style: normal;" transform="rotate(49.06602209211235,79.32383106016638,-68.79483865769426)" dominant-baseline="middle" fill="black" class="text2">9</text></g></g><g class="group1" transform="translate(0,0)"><path d="M77.637,-30.281A83.333,83.333,0,0,1,83.034,7.062L24.91,2.118A25,25,0,0,0,23.291,-9.084Z" transform="translate(0,0)" id="e_arc2_2" fill="rgb(130, 142, 207)" stroke="black" stroke-width="0" stroke-dasharray="1,0" fill-opacity="1" class="arc2"></path><g class="text2_g"><text x="87.42510378401623" y="-12.63443730966165" style="text-anchor: middle; font-size: 10px; font-weight: normal; font-family: Arial; font-style: normal;" transform="rotate(81.77670348685388,87.42510378401623,-12.63443730966165)" dominant-baseline="middle" fill="black" class="text2">7</text></g></g><g class="group1" transform="translate(0,0)"><path d="M106.195,21.419A108.333,108.333,0,0,1,85.864,66.057L19.815,15.244A25,25,0,0,0,24.507,4.943Z" transform="translate(0,0)" id="e_arc2_3" fill="rgb(80, 96, 187)" stroke="black" stroke-width="0" stroke-dasharray="1,0" fill-opacity="1" class="arc2"></path><g class="text2_g"><text x="103.13928945901925" y="46.975859910523035" style="text-anchor: middle; font-size: 10px; font-weight: normal; font-family: Arial; font-style: normal;" transform="rotate(294.4873848815954,103.13928945901925,46.975859910523035)" dominant-baseline="middle" fill="black" class="text2">10</text></g></g><g class="group1" transform="translate(0,0)"><path d="M47.864,46.406A66.667,66.667,0,0,1,22.492,62.758L8.435,23.534A25,25,0,0,0,17.949,17.402Z" transform="translate(0,0)" id="e_arc2_4" fill="rgb(164, 172, 220)" stroke="black" stroke-width="0" stroke-dasharray="1,0" fill-opacity="1" class="arc2"></path><g class="text2_g"><text x="38.8244548259384" y="60.23929629884283" style="text-anchor: middle; font-size: 10px; font-weight: normal; font-family: Arial; font-style: normal;" transform="rotate(327.19806627633693,38.8244548259384,60.23929629884283)" dominant-baseline="middle" fill="black" class="text2">5</text></g></g><g class="group1" transform="translate(0,0)"><path d="M18.995,81.14A83.333,83.333,0,0,1,-18.736,81.2L-5.621,24.36A25,25,0,0,0,5.698,24.342Z" transform="translate(0,0)" id="e_arc2_5" fill="rgb(130, 142, 207)" stroke="black" stroke-width="0" stroke-dasharray="1,0" fill-opacity="1" class="arc2"></path><g class="text2_g"><text x="0.1406843409563365" y="88.33322130259933" style="text-anchor: middle; font-size: 10px; font-weight: normal; font-family: Arial; font-style: normal;" transform="rotate(359.9087476710786,0.1406843409563365,88.33322130259933)" dominant-baseline="middle" fill="black" class="text2">7</text></g></g><g class="group1" transform="translate(0,0)"><path d="M-30.652,86.39A91.667,91.667,0,0,1,-65.609,64.017L-17.893,17.459A25,25,0,0,0,-8.36,23.561Z" transform="translate(0,0)" id="e_arc2_6" fill="rgb(113, 126, 200)" stroke="black" stroke-width="0" stroke-dasharray="1,0" fill-opacity="1" class="arc2"></path><g class="text2_g"><text x="-52.10878829303894" y="81.4193995745221" style="text-anchor: middle; font-size: 10px; font-weight: normal; font-family: Arial; font-style: normal;" transform="rotate(392.61942906582,-52.10878829303894,81.4193995745221)" dominant-baseline="middle" fill="black" class="text2">8</text></g></g><g class="group1" transform="translate(0,0)"><path d="M-52.71,40.818A66.667,66.667,0,0,1,-65.308,13.389L-24.491,5.021A25,25,0,0,0,-19.766,15.307Z" transform="translate(0,0)" id="e_arc2_7" fill="rgb(164, 172, 220)" stroke="black" stroke-width="0" stroke-dasharray="1,0" fill-opacity="1" class="arc2"></path><g class="text2_g"><text x="-65.12548175216874" y="29.91291924334782" style="text-anchor: middle; font-size: 10px; font-weight: normal; font-family: Arial; font-style: normal;" transform="rotate(425.3301104605615,-65.12548175216874,29.91291924334782)" dominant-baseline="middle" fill="black" class="text2">5</text></g></g><g class="group1" transform="translate(0,0)"><path d="M-107.914,9.524A108.333,108.333,0,0,1,-101.053,-39.044L-23.32,-9.01A25,25,0,0,0,-24.903,2.198Z" transform="translate(0,0)" id="e_arc2_8" fill="rgb(80, 96, 187)" stroke="black" stroke-width="0" stroke-dasharray="1,0" fill-opacity="1" class="arc2"></path><g class="text2_g"><text x="-112.21912309434403" y="-15.852850102770496" style="text-anchor: middle; font-size: 10px; font-weight: normal; font-family: Arial; font-style: normal;" transform="rotate(278.04079185530315,-112.21912309434403,-15.852850102770496)" dominant-baseline="middle" fill="black" class="text2">10</text></g></g><g class="group1" transform="translate(0,0)"><path d="M-59.044,-30.956A66.667,66.667,0,0,1,-39.34,-53.822L-14.753,-20.183A25,25,0,0,0,-22.141,-11.608Z" transform="translate(0,0)" id="e_arc2_9" fill="rgb(164, 172, 220)" stroke="black" stroke-width="0" stroke-dasharray="1,0" fill-opacity="1" class="arc2"></path><g class="text2_g"><text x="-54.290954310423885" y="-46.782511595409" style="text-anchor: middle; font-size: 10px; font-weight: normal; font-family: Arial; font-style: normal;" transform="rotate(310.7514732500447,-54.290954310423885,-46.782511595409)" dominant-baseline="middle" fill="black" class="text2">5</text></g></g><g class="group1" transform="translate(0,0)"><path d="M-41.19,-72.442A83.333,83.333,0,0,1,-5.02,-83.182L-1.506,-24.955A25,25,0,0,0,-12.357,-21.733Z" transform="translate(0,0)" id="e_arc2_10" fill="rgb(130, 142, 207)" stroke="black" stroke-width="0" stroke-dasharray="1,0" fill-opacity="1" class="arc2"></path><g class="text2_g"><text x="-25.143960383727922" y="-84.67915347946801" style="text-anchor: middle; font-size: 10px; font-weight: normal; font-family: Arial; font-style: normal;" transform="rotate(343.4621546447862,-25.143960383727922,-84.67915347946801)" dominant-baseline="middle" fill="black" class="text2">7</text></g></g><circle cx="0" cy="0" r="25" stroke="black" stroke-width="0.2" stroke-dasharray="1,0" fill="none" fill-opacity="1" class="circle1"></circle><g class="text3_g"><text x="0" y="0" style="text-anchor: middle; font-size: 12px; font-weight: normal; font-family: Arial; font-style: normal;" transform="rotate(0,0,0)" dominant-baseline="middle" fill="black" class="text3">value</text></g></g><g transform="translate(0,0)" class="group3"><g class="group4" transform="translate(0,-25)"></g><g class="group4" transform="translate(0,-50)"></g><g class="group4" transform="translate(0,-75)"></g><g class="group4" transform="translate(0,-100)"></g><g class="group4" transform="translate(0,-125)"></g></g></g></svg>
