<svg width="350" height="260" id="ngplotSvg"><g transform="translate(100,210)" class="group1"><g transform="translate(0,0)" class="bSlN2axis1"><g transform="translate(0,0)" class="bSlN2axis1_1"><line x1="0" y1="0" x2="200" y2="0" stroke="black" stroke-width="1" stroke-dasharray="1,0" stroke-opacity="1" class="bSlN2axis1_2"></line><g class="bSlN2axis1_3" transform="translate(20,0)"><line x1="0" y1="0" x2="0" y2="-5" stroke="black" stroke-width="1" stroke-dasharray="1,0" class="bSlN2axis1_4"></line><g class="bSlN2axis1_5_g"><text x="0" y="8" style="text-anchor: end; font-size: 10px; font-weight: normal; font-family: Arial; font-style: normal;" transform="rotate(-45,0,8)" dominant-baseline="middle" fill="black" class="bSlN2axis1_5">sample1</text></g></g><g class="bSlN2axis1_3" transform="translate(60,0)"><line x1="0" y1="0" x2="0" y2="-5" stroke="black" stroke-width="1" stroke-dasharray="1,0" class="bSlN2axis1_4"></line><g class="bSlN2axis1_5_g"><text x="0" y="8" style="text-anchor: end; font-size: 10px; font-weight: normal; font-family: Arial; font-style: normal;" transform="rotate(-45,0,8)" dominant-baseline="middle" fill="black" class="bSlN2axis1_5">sample2</text></g></g><g class="bSlN2axis1_3" transform="translate(100,0)"><line x1="0" y1="0" x2="0" y2="-5" stroke="black" stroke-width="1" stroke-dasharray="1,0" class="bSlN2axis1_4"></line><g class="bSlN2axis1_5_g"><text x="0" y="8" style="text-anchor: end; font-size: 10px; font-weight: normal; font-family: Arial; font-style: normal;" transform="rotate(-45,0,8)" dominant-baseline="middle" fill="black" class="bSlN2axis1_5">sample3</text></g></g><g class="bSlN2axis1_3" transform="translate(140,0)"><line x1="0" y1="0" x2="0" y2="-5" stroke="black" stroke-width="1" stroke-dasharray="1,0" class="bSlN2axis1_4"></line><g class="bSlN2axis1_5_g"><text x="0" y="8" style="text-anchor: end; font-size: 10px; font-weight: normal; font-family: Arial; font-style: normal;" transform="rotate(-45,0,8)" dominant-baseline="middle" fill="black" class="bSlN2axis1_5">sample4</text></g></g><g class="bSlN2axis1_3" transform="translate(180,0)"><line x1="0" y1="0" x2="0" y2="-5" stroke="black" stroke-width="1" stroke-dasharray="1,0" class="bSlN2axis1_4"></line><g class="bSlN2axis1_5_g"><text x="0" y="8" style="text-anchor: end; font-size: 10px; font-weight: normal; font-family: Arial; font-style: normal;" transform="rotate(-45,0,8)" dominant-baseline="middle" fill="black" class="bSlN2axis1_5">sample5</text></g></g><g class="text3_g"><text x="100" y="30" style="text-anchor: middle; font-size: 7.5pt; font-weight: normal; font-family: Arial; font-style: normal;" transform="rotate(0,100,30)" dominant-baseline="auto" fill="black" class="text3"></text></g></g><g transform="translate(0,0)" class="bSlN2axis1_6"><line x1="0" y1="0" x2="0" y2="-160" stroke="black" stroke-width="1" stroke-dasharray="1,0" stroke-opacity="1" class="bSlN2axis1_7"></line><g class="bSlN2axis1_8" transform="translate(0,0)"><line x1="0" y1="0" x2="5" y2="0" stroke="black" stroke-width="1" stroke-dasharray="1,0" class="bSlN2axis1_9"></line><g class="bSlN2axis1_10_g"><text x="-7" y="0" style="text-anchor: end; font-size: 10px; font-weight: normal; font-family: Arial; font-style: normal;" transform="rotate(0,-7,0)" dominant-baseline="middle" fill="black" class="bSlN2axis1_10">5.5</text></g></g><g class="bSlN2axis1_8" transform="translate(0,-32.00000000000001)"><line x1="0" y1="0" x2="3" y2="0" stroke="black" stroke-width="1" stroke-dasharray="1,0" class="bSlN2axis1_9"></line><g class="bSlN2axis1_10_g"><text x="-7" y="0" style="text-anchor: end; font-size: 10px; font-weight: normal; font-family: Arial; font-style: normal;" transform="rotate(0,-7,0)" dominant-baseline="middle" fill="black" class="bSlN2axis1_10"></text></g></g><g class="bSlN2axis1_8" transform="translate(0,-64.00000000000001)"><line x1="0" y1="0" x2="5" y2="0" stroke="black" stroke-width="1" stroke-dasharray="1,0" class="bSlN2axis1_9"></line><g class="bSlN2axis1_10_g"><text x="-7" y="0" style="text-anchor: end; font-size: 10px; font-weight: normal; font-family: Arial; font-style: normal;" transform="rotate(0,-7,0)" dominant-baseline="middle" fill="black" class="bSlN2axis1_10">6.9</text></g></g><g class="bSlN2axis1_8" transform="translate(0,-95.99999999999997)"><line x1="0" y1="0" x2="3" y2="0" stroke="black" stroke-width="1" stroke-dasharray="1,0" class="bSlN2axis1_9"></line><g class="bSlN2axis1_10_g"><text x="-7" y="0" style="text-anchor: end; font-size: 10px; font-weight: normal; font-family: Arial; font-style: normal;" transform="rotate(0,-7,0)" dominant-baseline="middle" fill="black" class="bSlN2axis1_10"></text></g></g><g class="bSlN2axis1_8" transform="translate(0,-128.00000000000003)"><line x1="0" y1="0" x2="5" y2="0" stroke="black" stroke-width="1" stroke-dasharray="1,0" class="bSlN2axis1_9"></line><g class="bSlN2axis1_10_g"><text x="-7" y="0" style="text-anchor: end; font-size: 10px; font-weight: normal; font-family: Arial; font-style: normal;" transform="rotate(0,-7,0)" dominant-baseline="middle" fill="black" class="bSlN2axis1_10">8.3</text></g></g><g class="bSlN2axis1_8" transform="translate(0,-160)"><line x1="0" y1="0" x2="3" y2="0" stroke="black" stroke-width="1" stroke-dasharray="1,0" class="bSlN2axis1_9"></line><g class="bSlN2axis1_10_g"><text x="-7" y="0" style="text-anchor: end; font-size: 10px; font-weight: normal; font-family: Arial; font-style: normal;" transform="rotate(0,-7,0)" dominant-baseline="middle" fill="black" class="bSlN2axis1_10"></text></g></g><g class="text5_g"><text x="-26" y="-80" style="text-anchor: middle; font-size: 7.5pt; font-weight: normal; font-family: Arial; font-style: normal;" transform="rotate(-90,-26,-80)" dominant-baseline="auto" fill="black" class="text5">yyy</text></g></g><g transform="translate(0,0)" class="group2"><g class="gong1" transform="translate(20,-105.14285714285714)"><line x1="-3" y1="-5.942857142857144" x2="3" y2="-5.942857142857144" stroke="black" stroke-width="0.5pt" stroke-dasharray="1,0" class="gong1_1"></line><line x1="0" y1="-5.942857142857144" x2="0" y2="0" stroke="black" stroke-width="0.5pt" stroke-dasharray="1,0" class="gong1_2"></line><line x1="0" y1="0" x2="0" y2="5.942857142857144" stroke="black" stroke-width="0.5pt" stroke-dasharray="1,0" class="gong1_3"></line><line x1="-3" y1="5.942857142857144" x2="3" y2="5.942857142857144" stroke="black" stroke-width="0.5pt" stroke-dasharray="1,0" class="gong1_4"></line><rect x="-1" y="-1" width="2" height="2" rx="" ry="" fill="black" stroke="" stroke-width="1" fill-opacity="1" class="rect1"></rect><g class="text2_g"><text x="0" y="-15.942857142857143" style="text-anchor: middle; font-size: 12px; font-weight: normal; font-family: Arial; font-style: normal;" transform="rotate(0,0,-15.942857142857143)" dominant-baseline="auto" fill="black" class="text2">c</text></g></g><g class="gong1" transform="translate(60,-90.05714285714285)"><line x1="-3" y1="-7.314285714285716" x2="3" y2="-7.314285714285716" stroke="black" stroke-width="0.5pt" stroke-dasharray="1,0" class="gong1_1"></line><line x1="0" y1="-7.314285714285716" x2="0" y2="0" stroke="black" stroke-width="0.5pt" stroke-dasharray="1,0" class="gong1_2"></line><line x1="0" y1="0" x2="0" y2="7.314285714285716" stroke="black" stroke-width="0.5pt" stroke-dasharray="1,0" class="gong1_3"></line><line x1="-3" y1="7.314285714285716" x2="3" y2="7.314285714285716" stroke="black" stroke-width="0.5pt" stroke-dasharray="1,0" class="gong1_4"></line><rect x="-1" y="-1" width="2" height="2" rx="" ry="" fill="black" stroke="" stroke-width="1" fill-opacity="1" class="rect1"></rect><g class="text2_g"><text x="0" y="-17.314285714285717" style="text-anchor: middle; font-size: 12px; font-weight: normal; font-family: Arial; font-style: normal;" transform="rotate(0,0,-17.314285714285717)" dominant-baseline="auto" fill="black" class="text2">d</text></g></g><g class="gong1" transform="translate(100,-138.97142857142853)"><line x1="-3" y1="-10.971428571428573" x2="3" y2="-10.971428571428573" stroke="black" stroke-width="0.5pt" stroke-dasharray="1,0" class="gong1_1"></line><line x1="0" y1="-10.971428571428573" x2="0" y2="0" stroke="black" stroke-width="0.5pt" stroke-dasharray="1,0" class="gong1_2"></line><line x1="0" y1="0" x2="0" y2="10.971428571428573" stroke="black" stroke-width="0.5pt" stroke-dasharray="1,0" class="gong1_3"></line><line x1="-3" y1="10.971428571428573" x2="3" y2="10.971428571428573" stroke="black" stroke-width="0.5pt" stroke-dasharray="1,0" class="gong1_4"></line><rect x="-1" y="-1" width="2" height="2" rx="" ry="" fill="black" stroke="" stroke-width="1" fill-opacity="1" class="rect1"></rect><g class="text2_g"><text x="0" y="-20.971428571428575" style="text-anchor: middle; font-size: 12px; font-weight: normal; font-family: Arial; font-style: normal;" transform="rotate(0,0,-20.971428571428575)" dominant-baseline="auto" fill="black" class="text2">a</text></g></g><g class="gong1" transform="translate(140,-117.4857142857143)"><line x1="-3" y1="-7.314285714285716" x2="3" y2="-7.314285714285716" stroke="black" stroke-width="0.5pt" stroke-dasharray="1,0" class="gong1_1"></line><line x1="0" y1="-7.314285714285716" x2="0" y2="0" stroke="black" stroke-width="0.5pt" stroke-dasharray="1,0" class="gong1_2"></line><line x1="0" y1="0" x2="0" y2="7.314285714285716" stroke="black" stroke-width="0.5pt" stroke-dasharray="1,0" class="gong1_3"></line><line x1="-3" y1="7.314285714285716" x2="3" y2="7.314285714285716" stroke="black" stroke-width="0.5pt" stroke-dasharray="1,0" class="gong1_4"></line><rect x="-1" y="-1" width="2" height="2" rx="" ry="" fill="black" stroke="" stroke-width="1" fill-opacity="1" class="rect1"></rect><g class="text2_g"><text x="0" y="-17.314285714285717" style="text-anchor: middle; font-size: 12px; font-weight: normal; font-family: Arial; font-style: normal;" transform="rotate(0,0,-17.314285714285717)" dominant-baseline="auto" fill="black" class="text2">b</text></g></g><g class="gong1" transform="translate(180,-106.97142857142856)"><line x1="-3" y1="-10.514285714285716" x2="3" y2="-10.514285714285716" stroke="black" stroke-width="0.5pt" stroke-dasharray="1,0" class="gong1_1"></line><line x1="0" y1="-10.514285714285716" x2="0" y2="0" stroke="black" stroke-width="0.5pt" stroke-dasharray="1,0" class="gong1_2"></line><line x1="0" y1="0" x2="0" y2="10.514285714285716" stroke="black" stroke-width="0.5pt" stroke-dasharray="1,0" class="gong1_3"></line><line x1="-3" y1="10.514285714285716" x2="3" y2="10.514285714285716" stroke="black" stroke-width="0.5pt" stroke-dasharray="1,0" class="gong1_4"></line><rect x="-1" y="-1" width="2" height="2" rx="" ry="" fill="black" stroke="" stroke-width="1" fill-opacity="1" class="rect1"></rect><g class="text2_g"><text x="0" y="-20.514285714285716" style="text-anchor: middle; font-size: 12px; font-weight: normal; font-family: Arial; font-style: normal;" transform="rotate(0,0,-20.514285714285716)" dominant-baseline="auto" fill="black" class="text2">c</text></g></g></g><g transform="translate(0,0)" class="pathLine1"><path d="M20,-105.143L60,-90.057L100,-138.971L140,-117.486L180,-106.971" id="e_pathLine1_1" fill="none" stroke="black" stroke-width="0.5pt" datum="[object Object],[object Object],[object Object],[object Object],[object Object]" stroke-dasharray="1,0" fill-opacity="1" class="pathLine1_1"></path></g></g></g></svg>
