<svg width="450" height="450" id="ngplotSvg"><g class="group9" transform="translate(240,200)"><g transform="translate(20,20)" class="group10"><g class="group7" transform="translate(0,0)"><path d="M0,-110A110,110,0,0,1,42.075,-101.635L11.475,-27.719A30,30,0,0,0,0,-30Z" transform="translate(0,0)" id="e_arc3_0" fill="#0073c2" stroke="black" stroke-width="0" stroke-dasharray="1,0" fill-opacity="0.1" class="arc3"></path><path d="M0,-111A111,111,0,0,1,42.457,-102.559L42.075,-101.635A110,110,0,0,0,0,-110Z" transform="translate(0,0)" id="e_arc4_0" fill="#0073c2" stroke="black" stroke-width="0" stroke-dasharray="1,0" fill-opacity="1" class="arc4"></path><g class="text4_g"><text x="22.61915237059092" y="-113.77334462006463" style="text-anchor: start; font-size: 12px; font-weight: normal; font-family: Arial; font-style: normal;" transform="rotate(281.2442967294424,22.61915237059092,-113.77334462006463)" dominant-baseline="middle" fill="black" class="text4">name1</text></g></g><g class="group7" transform="translate(0,0)"><path d="M42.075,-101.635A110,110,0,0,1,77.751,-77.813L21.205,-21.222A30,30,0,0,0,11.475,-27.719Z" transform="translate(0,0)" id="e_arc3_1" fill="#efc000" stroke="black" stroke-width="0" stroke-dasharray="1,0" fill-opacity="0.1" class="arc3"></path><path d="M42.457,-102.559A111,111,0,0,1,78.458,-78.52L77.751,-77.813A110,110,0,0,0,42.075,-101.635Z" transform="translate(0,0)" id="e_arc4_1" fill="#efc000" stroke="black" stroke-width="0" stroke-dasharray="1,0" fill-opacity="1" class="arc4"></path><g class="text4_g"><text x="64.41734187057892" y="-96.46971579894365" style="text-anchor: start; font-size: 12px; font-weight: normal; font-family: Arial; font-style: normal;" transform="rotate(303.73289018832725,64.41734187057892,-96.46971579894365)" dominant-baseline="middle" fill="black" class="text4">name2</text></g></g><g class="group7" transform="translate(0,0)"><path d="M77.751,-77.813A110,110,0,0,1,101.602,-42.156L27.71,-11.497A30,30,0,0,0,21.205,-21.222Z" transform="translate(0,0)" id="e_arc3_2" fill="#cd534c" stroke="black" stroke-width="0" stroke-dasharray="1,0" fill-opacity="0.1" class="arc3"></path><path d="M78.458,-78.52A111,111,0,0,1,102.525,-42.539L101.602,-42.156A110,110,0,0,0,77.751,-77.813Z" transform="translate(0,0)" id="e_arc4_2" fill="#cd534c" stroke="black" stroke-width="0" stroke-dasharray="1,0" fill-opacity="1" class="arc4"></path><g class="text4_g"><text x="96.41838796150188" y="-64.49414285735807" style="text-anchor: start; font-size: 12px; font-weight: normal; font-family: Arial; font-style: normal;" transform="rotate(326.22148364721204,96.41838796150188,-64.49414285735807)" dominant-baseline="middle" fill="black" class="text4">name3</text></g></g><g class="group7" transform="translate(0,0)"><path d="M101.602,-42.156A110,110,0,0,1,110,-0.088L30,-0.024A30,30,0,0,0,27.71,-11.497Z" transform="translate(0,0)" id="e_arc3_3" fill="#7aa6dc" stroke="black" stroke-width="0" stroke-dasharray="1,0" fill-opacity="0.1" class="arc3"></path><path d="M102.525,-42.539A111,111,0,0,1,111,-0.088L110,-0.088A110,110,0,0,0,101.602,-42.156Z" transform="translate(0,0)" id="e_arc4_3" fill="#7aa6dc" stroke="black" stroke-width="0" stroke-dasharray="1,0" fill-opacity="1" class="arc4"></path><g class="text4_g"><text x="113.75529631095215" y="-22.7097459520682" style="text-anchor: start; font-size: 12px; font-weight: normal; font-family: Arial; font-style: normal;" transform="rotate(348.71007710609683,113.75529631095215,-22.7097459520682)" dominant-baseline="middle" fill="black" class="text4">name4</text></g></g><g class="group7" transform="translate(0,0)"><path d="M110,-0.088A110,110,0,0,1,101.669,41.994L27.728,11.453A30,30,0,0,0,30,-0.024Z" transform="translate(0,0)" id="e_arc3_4" fill="#003c67" stroke="black" stroke-width="0" stroke-dasharray="1,0" fill-opacity="0.1" class="arc3"></path><path d="M111,-0.088A111,111,0,0,1,102.593,42.376L101.669,41.994A110,110,0,0,0,110,-0.088Z" transform="translate(0,0)" id="e_arc4_4" fill="#003c67" stroke="black" stroke-width="0" stroke-dasharray="1,0" fill-opacity="1" class="arc4"></path><g class="text4_g"><text x="113.79132078136584" y="22.528544445487363" style="text-anchor: start; font-size: 12px; font-weight: normal; font-family: Arial; font-style: normal;" transform="rotate(11.198670564981626,113.79132078136584,22.528544445487363)" dominant-baseline="middle" fill="black" class="text4">name5</text></g></g><g class="group7" transform="translate(0,0)"><path d="M101.669,41.994A110,110,0,0,1,77.875,77.689L21.239,21.188A30,30,0,0,0,27.728,11.453Z" transform="translate(0,0)" id="e_arc3_5" fill="#8f7700" stroke="black" stroke-width="0" stroke-dasharray="1,0" fill-opacity="0.1" class="arc3"></path><path d="M102.593,42.376A111,111,0,0,1,78.583,78.395L77.875,77.689A110,110,0,0,0,101.669,41.994Z" transform="translate(0,0)" id="e_arc4_5" fill="#8f7700" stroke="black" stroke-width="0" stroke-dasharray="1,0" fill-opacity="1" class="arc4"></path><g class="text4_g"><text x="96.52098246143383" y="64.34050003442296" style="text-anchor: start; font-size: 12px; font-weight: normal; font-family: Arial; font-style: normal;" transform="rotate(33.687264023866476,96.52098246143383,64.34050003442296)" dominant-baseline="middle" fill="black" class="text4">name6</text></g></g><g class="group7" transform="translate(0,0)"><path d="M77.875,77.689A110,110,0,0,1,42.237,101.568L11.519,27.7A30,30,0,0,0,21.239,21.188Z" transform="translate(0,0)" id="e_arc3_6" fill="#3b3b3b" stroke="black" stroke-width="0" stroke-dasharray="1,0" fill-opacity="0.1" class="arc3"></path><path d="M78.583,78.395A111,111,0,0,1,42.621,102.491L42.237,101.568A110,110,0,0,0,77.875,77.689Z" transform="translate(0,0)" id="e_arc4_6" fill="#3b3b3b" stroke="black" stroke-width="0" stroke-dasharray="1,0" fill-opacity="1" class="arc4"></path><g class="text4_g"><text x="64.57090294605811" y="96.36699898165733" style="text-anchor: start; font-size: 12px; font-weight: normal; font-family: Arial; font-style: normal;" transform="rotate(56.175857482751326,64.57090294605811,96.36699898165733)" dominant-baseline="middle" fill="black" class="text4">name7</text></g></g><g class="group7" transform="translate(0,0)"><path d="M42.237,101.568A110,110,0,0,1,0.175,110L0.048,30A30,30,0,0,0,11.519,27.7Z" transform="translate(0,0)" id="e_arc3_7" fill="#4a6990" stroke="black" stroke-width="0" stroke-dasharray="1,0" fill-opacity="0.1" class="arc3"></path><path d="M42.621,102.491A111,111,0,0,1,0.177,111L0.175,110A110,110,0,0,0,42.237,101.568Z" transform="translate(0,0)" id="e_arc4_7" fill="#4a6990" stroke="black" stroke-width="0" stroke-dasharray="1,0" fill-opacity="1" class="arc4"></path><g class="text4_g"><text x="22.800325132470505" y="113.73717586547345" style="text-anchor: start; font-size: 12px; font-weight: normal; font-family: Arial; font-style: normal;" transform="rotate(78.66445094163612,22.800325132470505,113.73717586547345)" dominant-baseline="middle" fill="black" class="text4">name8</text></g></g></g><g transform="translate(20,20)" class="group5"><g transform="translate(0,0)" class="group2"><g class="group1" transform="translate(0,0)"><path d="M4.316,-109.915A110,110,0,0,1,38.054,-103.208L21.449,-58.172A62,62,0,0,0,2.433,-61.952Z" transform="translate(0,0)" id="e_arc2_0" fill="#0073c2" stroke="black" stroke-width="0" stroke-dasharray="1,0" fill-opacity="0.7" class="arc2"></path></g><g class="group1" transform="translate(0,0)"><path d="M46.031,-99.906A110,110,0,0,1,74.638,-80.804L25.784,-27.914A38,38,0,0,0,15.902,-34.513Z" transform="translate(0,0)" id="e_arc2_1" fill="#efc000" stroke="black" stroke-width="0" stroke-dasharray="1,0" fill-opacity="0.7" class="arc2"></path></g><g class="group1" transform="translate(0,0)"><path d="M80.744,-74.702A110,110,0,0,1,99.869,-46.11L41.763,-19.282A46,46,0,0,0,33.766,-31.239Z" transform="translate(0,0)" id="e_arc2_2" fill="#cd534c" stroke="black" stroke-width="0" stroke-dasharray="1,0" fill-opacity="0.7" class="arc2"></path></g><g class="group1" transform="translate(0,0)"><path d="M103.178,-38.137A110,110,0,0,1,109.912,-4.404L101.918,-4.084A102,102,0,0,0,95.674,-35.363Z" transform="translate(0,0)" id="e_arc2_3" fill="#7aa6dc" stroke="black" stroke-width="0" stroke-dasharray="1,0" fill-opacity="0.7" class="arc2"></path></g><g class="group1" transform="translate(0,0)"><path d="M109.919,4.229A110,110,0,0,1,103.238,37.972L65.697,24.164A70,70,0,0,0,69.948,2.691Z" transform="translate(0,0)" id="e_arc2_4" fill="#003c67" stroke="black" stroke-width="0" stroke-dasharray="1,0" fill-opacity="0.7" class="arc2"></path></g><g class="group1" transform="translate(0,0)"><path d="M99.942,45.951A110,110,0,0,1,80.863,74.573L45.577,42.032A62,62,0,0,0,56.331,25.9Z" transform="translate(0,0)" id="e_arc2_5" fill="#8f7700" stroke="black" stroke-width="0" stroke-dasharray="1,0" fill-opacity="0.7" class="arc2"></path></g><g class="group1" transform="translate(0,0)"><path d="M74.766,80.685A110,110,0,0,1,46.19,99.832L19.316,41.748A46,46,0,0,0,31.266,33.741Z" transform="translate(0,0)" id="e_arc2_6" fill="#3b3b3b" stroke="black" stroke-width="0" stroke-dasharray="1,0" fill-opacity="0.7" class="arc2"></path></g><g class="group1" transform="translate(0,0)"><path d="M38.219,103.147A110,110,0,0,1,4.491,109.908L2.532,61.948A62,62,0,0,0,21.541,58.137Z" transform="translate(0,0)" id="e_arc2_7" fill="#4a6990" stroke="black" stroke-width="0" stroke-dasharray="1,0" fill-opacity="0.7" class="arc2"></path></g><g class="text3_g"><text x="0" y="0" style="text-anchor: middle; font-size: 12px; font-weight: normal; font-family: Arial; font-style: normal;" transform="rotate(0,0,0)" dominant-baseline="middle" fill="black" class="text3">a</text></g></g><g transform="translate(0,0)" class="group3"></g></g></g><g class="group9" transform="translate(240,200)"><g transform="translate(-20,20)" class="group10"><g class="group7" transform="translate(0,0)"><path d="M-0.35,-109.999A110,110,0,0,0,-42.398,-101.501L-11.563,-27.682A30,30,0,0,1,-0.096,-30Z" transform="translate(0,0)" id="e_arc3_0" fill="#0073c2" stroke="black" stroke-width="0" stroke-dasharray="1,0" fill-opacity="0.1" class="arc3"></path><path d="M-0.354,-110.999A111,111,0,0,0,-42.784,-102.423L-42.398,-101.501A110,110,0,0,1,-0.35,-109.999Z" transform="translate(0,0)" id="e_arc4_0" fill="#0073c2" stroke="black" stroke-width="0" stroke-dasharray="1,0" fill-opacity="1" class="arc4"></path><g class="text4_g"><text x="-22.981440060301168" y="-113.70071861142648" style="text-anchor: end; font-size: 12px; font-weight: normal; font-family: Arial; font-style: normal;" transform="rotate(438.5731986127146,-22.981440060301168,-113.70071861142648)" dominant-baseline="middle" fill="black" class="text4">name1</text></g></g><g class="group7" transform="translate(0,0)"><path d="M-42.398,-101.501A110,110,0,0,0,-77.998,-77.565L-21.272,-21.154A30,30,0,0,1,-11.563,-27.682Z" transform="translate(0,0)" id="e_arc3_1" fill="#efc000" stroke="black" stroke-width="0" stroke-dasharray="1,0" fill-opacity="0.1" class="arc3"></path><path d="M-42.784,-102.423A111,111,0,0,0,-78.707,-78.27L-77.998,-77.565A110,110,0,0,1,-42.398,-101.501Z" transform="translate(0,0)" id="e_arc4_1" fill="#efc000" stroke="black" stroke-width="0" stroke-dasharray="1,0" fill-opacity="1" class="arc4"></path><g class="text4_g"><text x="-64.72430023454137" y="-96.2640377251492" style="text-anchor: end; font-size: 12px; font-weight: normal; font-family: Arial; font-style: normal;" transform="rotate(416.0846051538298,-64.72430023454137,-96.2640377251492)" dominant-baseline="middle" fill="black" class="text4">name2</text></g></g><g class="group7" transform="translate(0,0)"><path d="M-77.998,-77.565A110,110,0,0,0,-101.735,-41.832L-27.746,-11.409A30,30,0,0,1,-21.272,-21.154Z" transform="translate(0,0)" id="e_arc3_2" fill="#cd534c" stroke="black" stroke-width="0" stroke-dasharray="1,0" fill-opacity="0.1" class="arc3"></path><path d="M-78.707,-78.27A111,111,0,0,0,-102.66,-42.212L-101.735,-41.832A110,110,0,0,1,-77.998,-77.565Z" transform="translate(0,0)" id="e_arc4_2" fill="#cd534c" stroke="black" stroke-width="0" stroke-dasharray="1,0" fill-opacity="1" class="arc4"></path><g class="text4_g"><text x="-96.62333213155797" y="-64.18669400891929" style="text-anchor: end; font-size: 12px; font-weight: normal; font-family: Arial; font-style: normal;" transform="rotate(393.596011694945,-96.62333213155797,-64.18669400891929)" dominant-baseline="middle" fill="black" class="text4">name3</text></g></g><g class="group7" transform="translate(0,0)"><path d="M-101.735,-41.832A110,110,0,0,0,-110,0.263L-30,0.072A30,30,0,0,1,-27.746,-11.409Z" transform="translate(0,0)" id="e_arc3_3" fill="#7aa6dc" stroke="black" stroke-width="0" stroke-dasharray="1,0" fill-opacity="0.1" class="arc3"></path><path d="M-102.66,-42.212A111,111,0,0,0,-111,0.265L-110,0.263A110,110,0,0,1,-101.735,-41.832Z" transform="translate(0,0)" id="e_arc4_3" fill="#7aa6dc" stroke="black" stroke-width="0" stroke-dasharray="1,0" fill-opacity="1" class="arc4"></path><g class="text4_g"><text x="-113.82705661498277" y="-22.34728579424151" style="text-anchor: end; font-size: 12px; font-weight: normal; font-family: Arial; font-style: normal;" transform="rotate(371.1074182360601,-113.82705661498277,-22.34728579424151)" dominant-baseline="middle" fill="black" class="text4">name4</text></g></g><g class="group7" transform="translate(0,0)"><path d="M-110,0.263A110,110,0,0,0,-101.534,42.318L-27.691,11.541A30,30,0,0,1,-30,0.072Z" transform="translate(0,0)" id="e_arc3_4" fill="#003c67" stroke="black" stroke-width="0" stroke-dasharray="1,0" fill-opacity="0.1" class="arc3"></path><path d="M-111,0.265A111,111,0,0,0,-102.457,42.702L-101.534,42.318A110,110,0,0,1,-110,0.263Z" transform="translate(0,0)" id="e_arc4_4" fill="#003c67" stroke="black" stroke-width="0" stroke-dasharray="1,0" fill-opacity="1" class="arc4"></path><g class="text4_g"><text x="-113.71898329511936" y="22.890889854358313" style="text-anchor: end; font-size: 12px; font-weight: normal; font-family: Arial; font-style: normal;" transform="rotate(348.6188247771754,-113.71898329511936,22.890889854358313)" dominant-baseline="middle" fill="black" class="text4">name5</text></g></g><g class="group7" transform="translate(0,0)"><path d="M-101.534,42.318A110,110,0,0,0,-77.627,77.936L-21.171,21.255A30,30,0,0,1,-27.691,11.541Z" transform="translate(0,0)" id="e_arc3_5" fill="#8f7700" stroke="black" stroke-width="0" stroke-dasharray="1,0" fill-opacity="0.1" class="arc3"></path><path d="M-102.457,42.702A111,111,0,0,0,-78.332,78.645L-77.627,77.936A110,110,0,0,1,-101.534,42.318Z" transform="translate(0,0)" id="e_arc4_5" fill="#8f7700" stroke="black" stroke-width="0" stroke-dasharray="1,0" fill-opacity="1" class="arc4"></path><g class="text4_g"><text x="-96.31554889199764" y="64.64762208800269" style="text-anchor: end; font-size: 12px; font-weight: normal; font-family: Arial; font-style: normal;" transform="rotate(326.1302313182905,-96.31554889199764,64.64762208800269)" dominant-baseline="middle" fill="black" class="text4">name6</text></g></g><g class="group7" transform="translate(0,0)"><path d="M-77.627,77.936A110,110,0,0,0,-41.913,101.702L-11.431,27.737A30,30,0,0,1,-21.171,21.255Z" transform="translate(0,0)" id="e_arc3_6" fill="#3b3b3b" stroke="black" stroke-width="0" stroke-dasharray="1,0" fill-opacity="0.1" class="arc3"></path><path d="M-78.332,78.645A111,111,0,0,0,-42.294,102.627L-41.913,101.702A110,110,0,0,1,-77.627,77.936Z" transform="translate(0,0)" id="e_arc4_6" fill="#3b3b3b" stroke="black" stroke-width="0" stroke-dasharray="1,0" fill-opacity="1" class="arc4"></path><g class="text4_g"><text x="-64.26361739761838" y="96.57218791646238" style="text-anchor: end; font-size: 12px; font-weight: normal; font-family: Arial; font-style: normal;" transform="rotate(303.6416378594057,-64.26361739761838,96.57218791646238)" dominant-baseline="middle" fill="black" class="text4">name7</text></g></g><g class="group7" transform="translate(0,0)"><path d="M-41.913,101.702A110,110,0,0,0,0.175,110L0.048,30A30,30,0,0,1,-11.431,27.737Z" transform="translate(0,0)" id="e_arc3_7" fill="#4a6990" stroke="black" stroke-width="0" stroke-dasharray="1,0" fill-opacity="0.1" class="arc3"></path><path d="M-42.294,102.627A111,111,0,0,0,0.177,111L0.175,110A110,110,0,0,1,-41.913,101.702Z" transform="translate(0,0)" id="e_arc4_7" fill="#4a6990" stroke="black" stroke-width="0" stroke-dasharray="1,0" fill-opacity="1" class="arc4"></path><g class="text4_g"><text x="-22.437922234215236" y="113.80922478345641" style="text-anchor: end; font-size: 12px; font-weight: normal; font-family: Arial; font-style: normal;" transform="rotate(281.1530444005209,-22.437922234215236,113.80922478345641)" dominant-baseline="middle" fill="black" class="text4">name8</text></g></g></g><g transform="translate(-20,20)" class="group5"><g transform="translate(0,0)" class="group2"><g class="group1" transform="translate(0,0)"><path d="M-4.666,-109.901A110,110,0,0,0,-38.383,-103.086L-35.591,-95.589A102,102,0,0,1,-4.327,-101.908Z" transform="translate(0,0)" id="e_arc2_0" fill="#0073c2" stroke="black" stroke-width="0" stroke-dasharray="1,0" fill-opacity="0.7" class="arc2"></path></g><g class="group1" transform="translate(0,0)"><path d="M-46.349,-99.759A110,110,0,0,0,-74.895,-80.566L-47.66,-51.269A70,70,0,0,1,-29.495,-63.483Z" transform="translate(0,0)" id="e_arc2_1" fill="#efc000" stroke="black" stroke-width="0" stroke-dasharray="1,0" fill-opacity="0.7" class="arc2"></path></g><g class="group1" transform="translate(0,0)"><path d="M-80.982,-74.444A110,110,0,0,0,-100.016,-45.792L-49.099,-22.48A54,54,0,0,1,-39.755,-36.545Z" transform="translate(0,0)" id="e_arc2_2" fill="#cd534c" stroke="black" stroke-width="0" stroke-dasharray="1,0" fill-opacity="0.7" class="arc2"></path></g><g class="group1" transform="translate(0,0)"><path d="M-103.298,-37.808A110,110,0,0,0,-109.925,-4.054L-53.963,-1.99A54,54,0,0,1,-50.71,-18.56Z" transform="translate(0,0)" id="e_arc2_3" fill="#7aa6dc" stroke="black" stroke-width="0" stroke-dasharray="1,0" fill-opacity="0.7" class="arc2"></path></g><g class="group1" transform="translate(0,0)"><path d="M-109.905,4.579A110,110,0,0,0,-103.117,38.301L-50.621,18.802A54,54,0,0,1,-53.953,2.248Z" transform="translate(0,0)" id="e_arc2_4" fill="#003c67" stroke="black" stroke-width="0" stroke-dasharray="1,0" fill-opacity="0.7" class="arc2"></path></g><g class="group1" transform="translate(0,0)"><path d="M-99.796,46.269A110,110,0,0,0,-80.625,74.83L-27.852,25.85A38,38,0,0,1,-34.475,15.984Z" transform="translate(0,0)" id="e_arc2_5" fill="#8f7700" stroke="black" stroke-width="0" stroke-dasharray="1,0" fill-opacity="0.7" class="arc2"></path></g><g class="group1" transform="translate(0,0)"><path d="M-74.509,80.922A110,110,0,0,0,-45.872,99.979L-15.847,34.538A38,38,0,0,1,-25.739,27.955Z" transform="translate(0,0)" id="e_arc2_6" fill="#3b3b3b" stroke="black" stroke-width="0" stroke-dasharray="1,0" fill-opacity="0.7" class="arc2"></path></g><g class="group1" transform="translate(0,0)"><path d="M-37.89,103.268A110,110,0,0,0,-4.141,109.922L-1.431,37.973A38,38,0,0,1,-13.089,35.675Z" transform="translate(0,0)" id="e_arc2_7" fill="#4a6990" stroke="black" stroke-width="0" stroke-dasharray="1,0" fill-opacity="0.7" class="arc2"></path></g><g class="text3_g"><text x="0" y="0" style="text-anchor: middle; font-size: 12px; font-weight: normal; font-family: Arial; font-style: normal;" transform="rotate(0,0,0)" dominant-baseline="middle" fill="black" class="text3">b</text></g></g><g transform="translate(0,0)" class="group3"></g></g></g></svg>
