<svg width="500" height="450" id="ngplotSvg"><g class="group7" transform="translate(260,260)"><path d="M-151,-0.12A151,151,0,0,1,-148.687,-26.326L-147.703,-26.152A150,150,0,0,0,-150,-0.119Z" transform="translate(0,0)" id="e_arc4_0" fill="#0073c2" stroke="black" stroke-width="0" stroke-dasharray="1,0" fill-opacity="1" class="arc4"></path><g class="text4_g"><text x="-155.39610336226602" y="-13.713171034590532" style="text-anchor: end; font-size: 12px; font-weight: normal; font-family: Arial; font-style: normal;" transform="rotate(365.04309137754626,-155.39610336226602,-13.713171034590532)" dominant-baseline="middle" fill="black" class="text4">name1</text></g></g><g class="group7" transform="translate(260,260)"><path d="M-148.687,-26.326A151,151,0,0,1,-141.862,-51.733L-140.922,-51.39A150,150,0,0,0,-147.703,-26.152Z" transform="translate(0,0)" id="e_arc4_1" fill="#efc000" stroke="black" stroke-width="0" stroke-dasharray="1,0" fill-opacity="1" class="arc4"></path><g class="text4_g"><text x="-150.65760213414111" y="-40.475757178721636" style="text-anchor: end; font-size: 12px; font-weight: normal; font-family: Arial; font-style: normal;" transform="rotate(375.03802180371736,-150.65760213414111,-40.475757178721636)" dominant-baseline="middle" fill="black" class="text4">name2</text></g></g><g class="group7" transform="translate(260,260)"><path d="M-141.862,-51.733A151,151,0,0,1,-130.73,-75.569L-129.864,-75.069A150,150,0,0,0,-140.922,-51.39Z" transform="translate(0,0)" id="e_arc4_2" fill="#cd534c" stroke="black" stroke-width="0" stroke-dasharray="1,0" fill-opacity="1" class="arc4"></path><g class="text4_g"><text x="-141.3460743040769" y="-66.00975139194489" style="text-anchor: end; font-size: 12px; font-weight: normal; font-family: Arial; font-style: normal;" transform="rotate(385.03295222988834,-141.3460743040769,-66.00975139194489)" dominant-baseline="middle" fill="black" class="text4">name3</text></g></g><g class="group7" transform="translate(260,260)"><path d="M-130.73,-75.569A151,151,0,0,1,-115.63,-97.112L-114.864,-96.469A150,150,0,0,0,-129.864,-75.069Z" transform="translate(0,0)" id="e_arc4_3" fill="#7aa6dc" stroke="black" stroke-width="0" stroke-dasharray="1,0" fill-opacity="1" class="arc4"></path><g class="text4_g"><text x="-127.74415987077501" y="-89.54010061927494" style="text-anchor: end; font-size: 12px; font-weight: normal; font-family: Arial; font-style: normal;" transform="rotate(395.0278826560593,-127.74415987077501,-89.54010061927494)" dominant-baseline="middle" fill="black" class="text4">name4</text></g></g><g class="group7" transform="translate(260,260)"><path d="M-115.63,-97.112A151,151,0,0,1,-97.02,-115.707L-96.377,-114.941A150,150,0,0,0,-114.864,-96.469Z" transform="translate(0,0)" id="e_arc4_4" fill="#003c67" stroke="black" stroke-width="0" stroke-dasharray="1,0" fill-opacity="1" class="arc4"></path><g class="text4_g"><text x="-110.26472825243711" y="-110.35256999008314" style="text-anchor: end; font-size: 12px; font-weight: normal; font-family: Arial; font-style: normal;" transform="rotate(405.0228130822304,-110.26472825243711,-110.35256999008314)" dominant-baseline="middle" fill="black" class="text4">name5</text></g></g><g class="group7" transform="translate(260,260)"><path d="M-97.02,-115.707A151,151,0,0,1,-75.465,-130.79L-74.966,-129.924A150,150,0,0,0,-96.377,-114.941Z" transform="translate(0,0)" id="e_arc4_5" fill="#8f7700" stroke="black" stroke-width="0" stroke-dasharray="1,0" fill-opacity="1" class="arc4"></path><g class="text4_g"><text x="-89.43834614231429" y="-127.81542254097342" style="text-anchor: end; font-size: 12px; font-weight: normal; font-family: Arial; font-style: normal;" transform="rotate(415.0177435084014,-89.43834614231429,-127.81542254097342)" dominant-baseline="middle" fill="black" class="text4">name6</text></g></g><g class="group7" transform="translate(260,260)"><path d="M-75.465,-130.79A151,151,0,0,1,-51.62,-141.903L-51.278,-140.963A150,150,0,0,0,-74.966,-129.924Z" transform="translate(0,0)" id="e_arc4_6" fill="#3b3b3b" stroke="black" stroke-width="0" stroke-dasharray="1,0" fill-opacity="1" class="arc4"></path><g class="text4_g"><text x="-65.89717280792854" y="-141.39859481593868" style="text-anchor: end; font-size: 12px; font-weight: normal; font-family: Arial; font-style: normal;" transform="rotate(425.0126739345724,-65.89717280792854,-141.39859481593868)" dominant-baseline="middle" fill="black" class="text4">name7</text></g></g><g class="group7" transform="translate(260,260)"><path d="M-51.62,-141.903A151,151,0,0,1,-26.208,-148.708L-26.034,-147.723A150,150,0,0,0,-51.278,-140.963Z" transform="translate(0,0)" id="e_arc4_7" fill="#4a6990" stroke="black" stroke-width="0" stroke-dasharray="1,0" fill-opacity="1" class="arc4"></path><g class="text4_g"><text x="-40.35577167239315" y="-150.68978629199017" style="text-anchor: end; font-size: 12px; font-weight: normal; font-family: Arial; font-style: normal;" transform="rotate(435.00760436074347,-40.35577167239315,-150.68978629199017)" dominant-baseline="middle" fill="black" class="text4">name8</text></g></g><g class="group7" transform="translate(260,260)"><path d="M-26.208,-148.708A151,151,0,0,1,0,-151L0,-150A150,150,0,0,0,-26.034,-147.723Z" transform="translate(0,0)" id="e_arc4_8" fill="#66c2a5" stroke="black" stroke-width="0" stroke-dasharray="1,0" fill-opacity="1" class="arc4"></path><g class="text4_g"><text x="-13.58942061872934" y="-155.40697425549232" style="text-anchor: end; font-size: 12px; font-weight: normal; font-family: Arial; font-style: normal;" transform="rotate(445.00253478691445,-13.58942061872934,-155.40697425549232)" dominant-baseline="middle" fill="black" class="text4">name9</text></g></g><g class="group7" transform="translate(260,260)"><path d="M0,-151A151,151,0,0,1,26.208,-148.708L26.034,-147.723A150,150,0,0,0,0,-150Z" transform="translate(0,0)" id="e_arc4_9" fill="#fc8d62" stroke="black" stroke-width="0" stroke-dasharray="1,0" fill-opacity="1" class="arc4"></path><g class="text4_g"><text x="13.589420618729253" y="-155.40697425549232" style="text-anchor: start; font-size: 12px; font-weight: normal; font-family: Arial; font-style: normal;" transform="rotate(274.9974652130855,13.589420618729253,-155.40697425549232)" dominant-baseline="middle" fill="black" class="text4">name10</text></g></g><g class="group7" transform="translate(260,260)"><path d="M26.208,-148.708A151,151,0,0,1,51.62,-141.903L51.278,-140.963A150,150,0,0,0,26.034,-147.723Z" transform="translate(0,0)" id="e_arc4_10" fill="#e78ac3" stroke="black" stroke-width="0" stroke-dasharray="1,0" fill-opacity="1" class="arc4"></path><g class="text4_g"><text x="40.355771672393075" y="-150.6897862919902" style="text-anchor: start; font-size: 12px; font-weight: normal; font-family: Arial; font-style: normal;" transform="rotate(284.99239563925653,40.355771672393075,-150.6897862919902)" dominant-baseline="middle" fill="black" class="text4">name11</text></g></g><g class="group7" transform="translate(260,260)"><path d="M51.62,-141.903A151,151,0,0,1,75.465,-130.79L74.966,-129.924A150,150,0,0,0,51.278,-140.963Z" transform="translate(0,0)" id="e_arc4_11" fill="#a6d854" stroke="black" stroke-width="0" stroke-dasharray="1,0" fill-opacity="1" class="arc4"></path><g class="text4_g"><text x="65.89717280792847" y="-141.3985948159387" style="text-anchor: start; font-size: 12px; font-weight: normal; font-family: Arial; font-style: normal;" transform="rotate(294.98732606542757,65.89717280792847,-141.3985948159387)" dominant-baseline="middle" fill="black" class="text4">name12</text></g></g><g class="group7" transform="translate(260,260)"><path d="M75.465,-130.79A151,151,0,0,1,97.02,-115.707L96.377,-114.941A150,150,0,0,0,74.966,-129.924Z" transform="translate(0,0)" id="e_arc4_12" fill="#ffd92f" stroke="black" stroke-width="0" stroke-dasharray="1,0" fill-opacity="1" class="arc4"></path><g class="text4_g"><text x="89.43834614231422" y="-127.81542254097347" style="text-anchor: start; font-size: 12px; font-weight: normal; font-family: Arial; font-style: normal;" transform="rotate(304.9822564915986,89.43834614231422,-127.81542254097347)" dominant-baseline="middle" fill="black" class="text4">name13</text></g></g><g class="group7" transform="translate(260,260)"><path d="M97.02,-115.707A151,151,0,0,1,115.63,-97.112L114.864,-96.469A150,150,0,0,0,96.377,-114.941Z" transform="translate(0,0)" id="e_arc4_13" fill="#fccde5" stroke="black" stroke-width="0" stroke-dasharray="1,0" fill-opacity="1" class="arc4"></path><g class="text4_g"><text x="110.26472825243707" y="-110.35256999008318" style="text-anchor: start; font-size: 12px; font-weight: normal; font-family: Arial; font-style: normal;" transform="rotate(314.9771869177696,110.26472825243707,-110.35256999008318)" dominant-baseline="middle" fill="black" class="text4">name14</text></g></g><g class="group7" transform="translate(260,260)"><path d="M115.63,-97.112A151,151,0,0,1,130.73,-75.569L129.864,-75.069A150,150,0,0,0,114.864,-96.469Z" transform="translate(0,0)" id="e_arc4_14" fill="#868686" stroke="black" stroke-width="0" stroke-dasharray="1,0" fill-opacity="1" class="arc4"></path><g class="text4_g"><text x="127.74415987077495" y="-89.540100619275" style="text-anchor: start; font-size: 12px; font-weight: normal; font-family: Arial; font-style: normal;" transform="rotate(324.9721173439406,127.74415987077495,-89.540100619275)" dominant-baseline="middle" fill="black" class="text4">name15</text></g></g><g class="group7" transform="translate(260,260)"><path d="M130.73,-75.569A151,151,0,0,1,141.862,-51.733L140.922,-51.39A150,150,0,0,0,129.864,-75.069Z" transform="translate(0,0)" id="e_arc4_15" fill="#0073c2" stroke="black" stroke-width="0" stroke-dasharray="1,0" fill-opacity="1" class="arc4"></path><g class="text4_g"><text x="141.3460743040769" y="-66.00975139194493" style="text-anchor: start; font-size: 12px; font-weight: normal; font-family: Arial; font-style: normal;" transform="rotate(334.96704777011166,141.3460743040769,-66.00975139194493)" dominant-baseline="middle" fill="black" class="text4">name16</text></g></g><g class="group7" transform="translate(260,260)"><path d="M141.862,-51.733A151,151,0,0,1,148.687,-26.326L147.703,-26.152A150,150,0,0,0,140.922,-51.39Z" transform="translate(0,0)" id="e_arc4_16" fill="#efc000" stroke="black" stroke-width="0" stroke-dasharray="1,0" fill-opacity="1" class="arc4"></path><g class="text4_g"><text x="150.65760213414111" y="-40.47575717872167" style="text-anchor: start; font-size: 12px; font-weight: normal; font-family: Arial; font-style: normal;" transform="rotate(344.9619781962827,150.65760213414111,-40.47575717872167)" dominant-baseline="middle" fill="black" class="text4">name17</text></g></g><g class="group7" transform="translate(260,260)"><path d="M148.687,-26.326A151,151,0,0,1,151,-0.12L150,-0.119A150,150,0,0,0,147.703,-26.152Z" transform="translate(0,0)" id="e_arc4_17" fill="#cd534c" stroke="black" stroke-width="0" stroke-dasharray="1,0" fill-opacity="1" class="arc4"></path><g class="text4_g"><text x="155.39610336226602" y="-13.713171034590566" style="text-anchor: start; font-size: 12px; font-weight: normal; font-family: Arial; font-style: normal;" transform="rotate(354.95690862245374,155.39610336226602,-13.713171034590566)" dominant-baseline="middle" fill="black" class="text4">name18</text></g></g><g class="group8" transform="translate(260,260)"></g><g class="group8" transform="translate(260,260)"></g><g class="group8" transform="translate(260,260)"></g><g class="group8" transform="translate(260,260)"></g><g class="group8" transform="translate(260,260)"></g><g class="group8" transform="translate(260,260)"></g><g transform="translate(260,260)" class="group5"><g transform="translate(0,0)" class="group2"><g class="group1" transform="translate(0,0)"><path d="M-109.982,-2.006A110,110,0,0,1,-108.633,-17.286L-49.379,-7.857A50,50,0,0,0,-49.992,-0.912Z" transform="translate(0,0)" id="e_arc2_0" fill="#0073c2" stroke="black" stroke-width="0" stroke-dasharray="1,0" fill-opacity="1" class="arc2"></path><g class="text2_g"><text x="-144.43868581749086" y="-12.746216666766841" style="text-anchor: start; font-size: 10px; font-weight: normal; font-family: Arial; font-style: normal;" transform="rotate(365.04309137754626,-144.43868581749086,-12.746216666766841)" dominant-baseline="middle" fill="black" class="text2">6</text></g></g><g class="group1" transform="translate(0,0)"><path d="M-137.409,-26.809A140,140,0,0,1,-132.344,-45.663L-47.266,-16.308A50,50,0,0,0,-49.075,-9.575Z" transform="translate(0,0)" id="e_arc2_1" fill="#efc000" stroke="black" stroke-width="0" stroke-dasharray="1,0" fill-opacity="1" class="arc2"></path><g class="text2_g"><text x="-140.03430967596452" y="-37.62169737765793" style="text-anchor: start; font-size: 10px; font-weight: normal; font-family: Arial; font-style: normal;" transform="rotate(375.03802180371736,-140.03430967596452,-37.62169737765793)" dominant-baseline="middle" fill="black" class="text2">9</text></g></g><g class="group1" transform="translate(0,0)"><path d="M-121.337,-46.662A130,130,0,0,1,-113.667,-63.087L-43.718,-24.264A50,50,0,0,0,-46.668,-17.947Z" transform="translate(0,0)" id="e_arc2_2" fill="#cd534c" stroke="black" stroke-width="0" stroke-dasharray="1,0" fill-opacity="1" class="arc2"></path><g class="text2_g"><text x="-131.37936393648175" y="-61.35521763994878" style="text-anchor: start; font-size: 10px; font-weight: normal; font-family: Arial; font-style: normal;" transform="rotate(385.03295222988834,-131.37936393648175,-61.35521763994878)" dominant-baseline="middle" fill="black" class="text2">8</text></g></g><g class="group1" transform="translate(0,0)"><path d="M-51.414,-30.929A60,60,0,0,1,-46.612,-37.78L-38.843,-31.484A50,50,0,0,0,-42.845,-25.774Z" transform="translate(0,0)" id="e_arc2_3" fill="#7aa6dc" stroke="black" stroke-width="0" stroke-dasharray="1,0" fill-opacity="1" class="arc2"></path><g class="text2_g"><text x="-118.736558854246" y="-83.22637557560812" style="text-anchor: start; font-size: 10px; font-weight: normal; font-family: Arial; font-style: normal;" transform="rotate(395.0278826560593,-118.736558854246,-83.22637557560812)" dominant-baseline="middle" fill="black" class="text2">1</text></g></g><g class="group1" transform="translate(0,0)"><path d="M-75.443,-65.639A100,100,0,0,1,-65.579,-75.495L-32.789,-37.747A50,50,0,0,0,-37.721,-32.819Z" transform="translate(0,0)" id="e_arc2_4" fill="#003c67" stroke="black" stroke-width="0" stroke-dasharray="1,0" fill-opacity="1" class="arc2"></path><g class="text2_g"><text x="-102.48965126027808" y="-102.57129902924395" style="text-anchor: start; font-size: 10px; font-weight: normal; font-family: Arial; font-style: normal;" transform="rotate(405.0228130822304,-102.48965126027808,-102.57129902924395)" dominant-baseline="middle" fill="black" class="text2">5</text></g></g><g class="group1" transform="translate(0,0)"><path d="M-69.196,-85.51A110,110,0,0,1,-56.628,-94.304L-25.74,-42.865A50,50,0,0,0,-31.453,-38.868Z" transform="translate(0,0)" id="e_arc2_5" fill="#8f7700" stroke="black" stroke-width="0" stroke-dasharray="1,0" fill-opacity="1" class="arc2"></path><g class="text2_g"><text x="-83.13179609381777" y="-118.80279659257144" style="text-anchor: start; font-size: 10px; font-weight: normal; font-family: Arial; font-style: normal;" transform="rotate(415.0177435084014,-83.13179609381777,-118.80279659257144)" dominant-baseline="middle" fill="black" class="text2">6</text></g></g><g class="group1" transform="translate(0,0)"><path d="M-62.996,-113.717A130,130,0,0,1,-46.565,-121.374L-17.91,-46.682A50,50,0,0,0,-24.229,-43.737Z" transform="translate(0,0)" id="e_arc2_6" fill="#3b3b3b" stroke="black" stroke-width="0" stroke-dasharray="1,0" fill-opacity="1" class="arc2"></path><g class="text2_g"><text x="-61.25057728942077" y="-131.42818107891736" style="text-anchor: start; font-size: 10px; font-weight: normal; font-family: Arial; font-style: normal;" transform="rotate(425.0126739345724,-61.25057728942077,-131.42818107891736)" dominant-baseline="middle" fill="black" class="text2">8</text></g></g><g class="group1" transform="translate(0,0)"><path d="M-35.795,-104.013A110,110,0,0,1,-20.978,-107.981L-9.536,-49.082A50,50,0,0,0,-16.27,-47.279Z" transform="translate(0,0)" id="e_arc2_7" fill="#4a6990" stroke="black" stroke-width="0" stroke-dasharray="1,0" fill-opacity="1" class="arc2"></path><g class="text2_g"><text x="-37.510172387801326" y="-140.0642244380678" style="text-anchor: start; font-size: 10px; font-weight: normal; font-family: Arial; font-style: normal;" transform="rotate(435.00760436074347,-37.510172387801326,-140.0642244380678)" dominant-baseline="middle" fill="black" class="text2">6</text></g></g><g class="group1" transform="translate(0,0)"><path d="M-9.381,-59.262A60,60,0,0,1,-1.047,-59.991L-0.872,-49.992A50,50,0,0,0,-7.818,-49.385Z" transform="translate(0,0)" id="e_arc2_8" fill="#66c2a5" stroke="black" stroke-width="0" stroke-dasharray="1,0" fill-opacity="1" class="arc2"></path><g class="text2_g"><text x="-12.631192241767657" y="-144.44879017337428" style="text-anchor: start; font-size: 10px; font-weight: normal; font-family: Arial; font-style: normal;" transform="rotate(445.00253478691445,-12.631192241767657,-144.44879017337428)" dominant-baseline="middle" fill="black" class="text2">1</text></g></g><g class="group1" transform="translate(0,0)"><path d="M1.744,-99.985A100,100,0,0,1,15.636,-98.77L7.818,-49.385A50,50,0,0,0,0.872,-49.992Z" transform="translate(0,0)" id="e_arc2_9" fill="#fc8d62" stroke="black" stroke-width="0" stroke-dasharray="1,0" fill-opacity="1" class="arc2"></path><g class="text2_g"><text x="12.631192241767575" y="-144.44879017337428" style="text-anchor: end; font-size: 10px; font-weight: normal; font-family: Arial; font-style: normal;" transform="rotate(274.9974652130855,12.631192241767575,-144.44879017337428)" dominant-baseline="middle" fill="black" class="text2">5</text></g></g><g class="group1" transform="translate(0,0)"><path d="M22.886,-117.797A120,120,0,0,1,39.049,-113.469L16.27,-47.279A50,50,0,0,0,9.536,-49.082Z" transform="translate(0,0)" id="e_arc2_10" fill="#e78ac3" stroke="black" stroke-width="0" stroke-dasharray="1,0" fill-opacity="1" class="arc2"></path><g class="text2_g"><text x="37.510172387801255" y="-140.0642244380678" style="text-anchor: end; font-size: 10px; font-weight: normal; font-family: Arial; font-style: normal;" transform="rotate(284.99239563925653,37.510172387801255,-140.0642244380678)" dominant-baseline="middle" fill="black" class="text2">7</text></g></g><g class="group1" transform="translate(0,0)"><path d="M42.983,-112.038A120,120,0,0,1,58.15,-104.969L24.229,-43.737A50,50,0,0,0,17.91,-46.682Z" transform="translate(0,0)" id="e_arc2_11" fill="#a6d854" stroke="black" stroke-width="0" stroke-dasharray="1,0" fill-opacity="1" class="arc2"></path><g class="text2_g"><text x="61.25057728942069" y="-131.4281810789174" style="text-anchor: end; font-size: 10px; font-weight: normal; font-family: Arial; font-style: normal;" transform="rotate(294.98732606542757,61.25057728942069,-131.4281810789174)" dominant-baseline="middle" fill="black" class="text2">7</text></g></g><g class="group1" transform="translate(0,0)"><path d="M61.776,-102.877A120,120,0,0,1,75.486,-93.284L31.453,-38.868A50,50,0,0,0,25.74,-42.865Z" transform="translate(0,0)" id="e_arc2_12" fill="#ffd92f" stroke="black" stroke-width="0" stroke-dasharray="1,0" fill-opacity="1" class="arc2"></path><g class="text2_g"><text x="83.1317960938177" y="-118.8027965925715" style="text-anchor: end; font-size: 10px; font-weight: normal; font-family: Arial; font-style: normal;" transform="rotate(304.9822564915986,83.1317960938177,-118.8027965925715)" dominant-baseline="middle" fill="black" class="text2">7</text></g></g><g class="group1" transform="translate(0,0)"><path d="M91.81,-105.693A140,140,0,0,1,105.62,-91.894L37.721,-32.819A50,50,0,0,0,32.789,-37.747Z" transform="translate(0,0)" id="e_arc2_13" fill="#fccde5" stroke="black" stroke-width="0" stroke-dasharray="1,0" fill-opacity="1" class="arc2"></path><g class="text2_g"><text x="102.48965126027805" y="-102.57129902924399" style="text-anchor: end; font-size: 10px; font-weight: normal; font-family: Arial; font-style: normal;" transform="rotate(314.9771869177696,102.48965126027805,-102.57129902924399)" dominant-baseline="middle" fill="black" class="text2">9</text></g></g><g class="group1" transform="translate(0,0)"><path d="M108.761,-88.154A140,140,0,0,1,119.966,-72.168L42.845,-25.774A50,50,0,0,0,38.843,-31.484Z" transform="translate(0,0)" id="e_arc2_14" fill="#868686" stroke="black" stroke-width="0" stroke-dasharray="1,0" fill-opacity="1" class="arc2"></path><g class="text2_g"><text x="118.73655885424594" y="-83.22637557560816" style="text-anchor: end; font-size: 10px; font-weight: normal; font-family: Arial; font-style: normal;" transform="rotate(324.9721173439406,118.73655885424594,-83.22637557560816)" dominant-baseline="middle" fill="black" class="text2">9</text></g></g><g class="group1" transform="translate(0,0)"><path d="M122.41,-67.939A140,140,0,0,1,130.671,-50.251L46.668,-17.947A50,50,0,0,0,43.718,-24.264Z" transform="translate(0,0)" id="e_arc2_15" fill="#0073c2" stroke="black" stroke-width="0" stroke-dasharray="1,0" fill-opacity="1" class="arc2"></path><g class="text2_g"><text x="131.37936393648172" y="-61.35521763994881" style="text-anchor: end; font-size: 10px; font-weight: normal; font-family: Arial; font-style: normal;" transform="rotate(334.96704777011166,131.37936393648172,-61.35521763994881)" dominant-baseline="middle" fill="black" class="text2">9</text></g></g><g class="group1" transform="translate(0,0)"><path d="M56.719,-19.57A60,60,0,0,1,58.89,-11.49L49.075,-9.575A50,50,0,0,0,47.266,-16.308Z" transform="translate(0,0)" id="e_arc2_16" fill="#efc000" stroke="black" stroke-width="0" stroke-dasharray="1,0" fill-opacity="1" class="arc2"></path><g class="text2_g"><text x="140.0343096759645" y="-37.621697377657966" style="text-anchor: end; font-size: 10px; font-weight: normal; font-family: Arial; font-style: normal;" transform="rotate(344.9619781962827,140.0343096759645,-37.621697377657966)" dominant-baseline="middle" fill="black" class="text2">1</text></g></g><g class="group1" transform="translate(0,0)"><path d="M88.882,-14.143A90,90,0,0,1,89.985,-1.642L49.992,-0.912A50,50,0,0,0,49.379,-7.857Z" transform="translate(0,0)" id="e_arc2_17" fill="#cd534c" stroke="black" stroke-width="0" stroke-dasharray="1,0" fill-opacity="1" class="arc2"></path><g class="text2_g"><text x="144.43868581749086" y="-12.746216666766873" style="text-anchor: end; font-size: 10px; font-weight: normal; font-family: Arial; font-style: normal;" transform="rotate(354.95690862245374,144.43868581749086,-12.746216666766873)" dominant-baseline="middle" fill="black" class="text2">4</text></g></g><g class="text3_g"><text x="0" y="0" style="text-anchor: middle; font-size: 12px; font-weight: normal; font-family: Arial; font-style: normal;" transform="rotate(0,0,0)" dominant-baseline="middle" fill="black" class="text3">value</text></g></g><g transform="translate(0,0)" class="group3"><g class="group4" transform="translate(-50,0)"><line x1="0" y1="0" x2="0" y2="2" stroke="black" stroke-width="0.5" stroke-dasharray="1,0" class="line_h1"></line><g class="text1_g"><text x="0" y="10" style="text-anchor: middle; font-size: 10px; font-weight: normal; font-family: Arial; font-style: normal;" transform="rotate(0,0,10)" dominant-baseline="middle" fill="black" class="text1">0</text></g></g><g class="group4" transform="translate(-70,0)"><line x1="0" y1="0" x2="0" y2="2" stroke="black" stroke-width="0.5" stroke-dasharray="1,0" class="line_h1"></line><g class="text1_g"><text x="0" y="10" style="text-anchor: middle; font-size: 10px; font-weight: normal; font-family: Arial; font-style: normal;" transform="rotate(0,0,10)" dominant-baseline="middle" fill="black" class="text1">2</text></g></g><g class="group4" transform="translate(-90,0)"><line x1="0" y1="0" x2="0" y2="2" stroke="black" stroke-width="0.5" stroke-dasharray="1,0" class="line_h1"></line><g class="text1_g"><text x="0" y="10" style="text-anchor: middle; font-size: 10px; font-weight: normal; font-family: Arial; font-style: normal;" transform="rotate(0,0,10)" dominant-baseline="middle" fill="black" class="text1">4</text></g></g><g class="group4" transform="translate(-110,0)"><line x1="0" y1="0" x2="0" y2="2" stroke="black" stroke-width="0.5" stroke-dasharray="1,0" class="line_h1"></line><g class="text1_g"><text x="0" y="10" style="text-anchor: middle; font-size: 10px; font-weight: normal; font-family: Arial; font-style: normal;" transform="rotate(0,0,10)" dominant-baseline="middle" fill="black" class="text1">6</text></g></g><g class="group4" transform="translate(-130,0)"><line x1="0" y1="0" x2="0" y2="2" stroke="black" stroke-width="0.5" stroke-dasharray="1,0" class="line_h1"></line><g class="text1_g"><text x="0" y="10" style="text-anchor: middle; font-size: 10px; font-weight: normal; font-family: Arial; font-style: normal;" transform="rotate(0,0,10)" dominant-baseline="middle" fill="black" class="text1">8</text></g></g><g class="group4" transform="translate(-150,0)"><line x1="0" y1="0" x2="0" y2="2" stroke="black" stroke-width="0.5" stroke-dasharray="1,0" class="line_h1"></line><g class="text1_g"><text x="0" y="10" style="text-anchor: middle; font-size: 10px; font-weight: normal; font-family: Arial; font-style: normal;" transform="rotate(0,0,10)" dominant-baseline="middle" fill="black" class="text1">10</text></g></g></g></g></svg>
