<svg width="430" height="430" id="ngplotSvg"><g transform="translate(215,215)" class="group2"><g class="text3_g"><text x="0" y="0" style="text-anchor: middle; font-size: 12px; font-weight: bold; font-family: Arial; font-style: normal;" transform="rotate(0,0,0)" dominant-baseline="middle" fill="black" class="text3"></text></g><g class="group4" transform="translate(0,0)"><g class="group1" transform="translate(0,0)"><path d="M0,-55A55,55,0,0,1,40.752,36.936L7.41,6.716A10,10,0,0,0,0,-10Z" transform="translate(0,0)" id="e_arc1_0" fill="#8dd3c7" stroke="black" stroke-width="0.5" stroke-dasharray="1,0" fill-opacity="1" class="arc1"></path></g><g class="group1" transform="translate(0,0)"><path d="M40.752,36.936A55,55,0,0,1,-54.735,5.391L-9.952,0.98A10,10,0,0,0,7.41,6.716Z" transform="translate(0,0)" id="e_arc1_1" fill="#ffffb3" stroke="black" stroke-width="0.5" stroke-dasharray="1,0" fill-opacity="1" class="arc1"></path></g><g class="group1" transform="translate(0,0)"><path d="M-54.735,5.391A55,55,0,0,1,0,-55L0,-10A10,10,0,0,0,-9.952,0.98Z" transform="translate(0,0)" id="e_arc1_2" fill="#bebada" stroke="black" stroke-width="0.5" stroke-dasharray="1,0" fill-opacity="1" class="arc1"></path></g></g><g class="group4" transform="translate(0,0)"><g class="group1" transform="translate(0,0)"><path d="M0,-100A100,100,0,0,1,67.156,-74.095L36.936,-40.752A55,55,0,0,0,0,-55Z" transform="translate(0,0)" id="e_arc1_0" fill="#8dd3c7" stroke="black" stroke-width="0.5" stroke-dasharray="1,0" fill-opacity="1" class="arc1"></path></g><g class="group1" transform="translate(0,0)"><path d="M67.156,-74.095A100,100,0,0,1,95.694,29.028L52.632,15.966A55,55,0,0,0,36.936,-40.752Z" transform="translate(0,0)" id="e_arc1_1" fill="#8dd3c7" stroke="black" stroke-width="0.5" stroke-dasharray="1,0" fill-opacity="1" class="arc1"></path></g><g class="group1" transform="translate(0,0)"><path d="M95.694,29.028A100,100,0,0,1,74.095,67.156L40.752,36.936A55,55,0,0,0,52.632,15.966Z" transform="translate(0,0)" id="e_arc1_2" fill="#8dd3c7" stroke="black" stroke-width="0.5" stroke-dasharray="1,0" fill-opacity="1" class="arc1"></path></g><g class="group1" transform="translate(0,0)"><path d="M74.095,67.156A100,100,0,0,1,0,100L0,55A55,55,0,0,0,40.752,36.936Z" transform="translate(0,0)" id="e_arc1_3" fill="#ffffb3" stroke="black" stroke-width="0.5" stroke-dasharray="1,0" fill-opacity="1" class="arc1"></path></g><g class="group1" transform="translate(0,0)"><path d="M0,100A100,100,0,0,1,-99.518,9.802L-54.735,5.391A55,55,0,0,0,0,55Z" transform="translate(0,0)" id="e_arc1_4" fill="#ffffb3" stroke="black" stroke-width="0.5" stroke-dasharray="1,0" fill-opacity="1" class="arc1"></path></g><g class="group1" transform="translate(0,0)"><path d="M-99.518,9.802A100,100,0,0,1,-74.095,-67.156L-40.752,-36.936A55,55,0,0,0,-54.735,5.391Z" transform="translate(0,0)" id="e_arc1_5" fill="#bebada" stroke="black" stroke-width="0.5" stroke-dasharray="1,0" fill-opacity="1" class="arc1"></path></g><g class="group1" transform="translate(0,0)"><path d="M-74.095,-67.156A100,100,0,0,1,0,-100L0,-55A55,55,0,0,0,-40.752,-36.936Z" transform="translate(0,0)" id="e_arc1_6" fill="#bebada" stroke="black" stroke-width="0.5" stroke-dasharray="1,0" fill-opacity="1" class="arc1"></path></g></g><g class="group4" transform="translate(0,0)"><g class="group1" transform="translate(0,0)"><path d="M0,-145A145,145,0,0,1,42.091,-138.756L29.028,-95.694A100,100,0,0,0,0,-100Z" transform="translate(0,0)" id="e_arc1_0" fill="#8dd3c7" stroke="black" stroke-width="0.5" stroke-dasharray="1,0" fill-opacity="1" class="arc1"></path></g><g class="group1" transform="translate(0,0)"><path d="M42.091,-138.756A145,145,0,0,1,97.376,-107.438L67.156,-74.095A100,100,0,0,0,29.028,-95.694Z" transform="translate(0,0)" id="e_arc1_1" fill="#8dd3c7" stroke="black" stroke-width="0.5" stroke-dasharray="1,0" fill-opacity="1" class="arc1"></path></g><g class="group1" transform="translate(0,0)"><path d="M97.376,-107.438A145,145,0,0,1,124.371,-74.545L85.773,-51.41A100,100,0,0,0,67.156,-74.095Z" transform="translate(0,0)" id="e_arc1_2" fill="#8dd3c7" stroke="black" stroke-width="0.5" stroke-dasharray="1,0" fill-opacity="1" class="arc1"></path></g><g class="group1" transform="translate(0,0)"><path d="M124.371,-74.545A145,145,0,0,1,144.302,-14.212L99.518,-9.802A100,100,0,0,0,85.773,-51.41Z" transform="translate(0,0)" id="e_arc1_3" fill="#8dd3c7" stroke="black" stroke-width="0.5" stroke-dasharray="1,0" fill-opacity="1" class="arc1"></path></g><g class="group1" transform="translate(0,0)"><path d="M144.302,-14.212A145,145,0,0,1,138.756,42.091L95.694,29.028A100,100,0,0,0,99.518,-9.802Z" transform="translate(0,0)" id="e_arc1_4" fill="#8dd3c7" stroke="black" stroke-width="0.5" stroke-dasharray="1,0" fill-opacity="1" class="arc1"></path></g><g class="group1" transform="translate(0,0)"><path d="M138.756,42.091A145,145,0,0,1,127.879,68.353L88.192,47.14A100,100,0,0,0,95.694,29.028Z" transform="translate(0,0)" id="e_arc1_5" fill="#8dd3c7" stroke="black" stroke-width="0.5" stroke-dasharray="1,0" fill-opacity="1" class="arc1"></path></g><g class="group1" transform="translate(0,0)"><path d="M127.879,68.353A145,145,0,0,1,107.438,97.376L74.095,67.156A100,100,0,0,0,88.192,47.14Z" transform="translate(0,0)" id="e_arc1_6" fill="#8dd3c7" stroke="black" stroke-width="0.5" stroke-dasharray="1,0" fill-opacity="1" class="arc1"></path></g><g class="group1" transform="translate(0,0)"><path d="M107.438,97.376A145,145,0,0,1,86.376,116.465L59.57,80.321A100,100,0,0,0,74.095,67.156Z" transform="translate(0,0)" id="e_arc1_7" fill="#ffffb3" stroke="black" stroke-width="0.5" stroke-dasharray="1,0" fill-opacity="1" class="arc1"></path></g><g class="group1" transform="translate(0,0)"><path d="M86.376,116.465A145,145,0,0,1,55.489,133.963L38.268,92.388A100,100,0,0,0,59.57,80.321Z" transform="translate(0,0)" id="e_arc1_8" fill="#ffffb3" stroke="black" stroke-width="0.5" stroke-dasharray="1,0" fill-opacity="1" class="arc1"></path></g><g class="group1" transform="translate(0,0)"><path d="M55.489,133.963A145,145,0,0,1,0,145L0,100A100,100,0,0,0,38.268,92.388Z" transform="translate(0,0)" id="e_arc1_9" fill="#ffffb3" stroke="black" stroke-width="0.5" stroke-dasharray="1,0" fill-opacity="1" class="arc1"></path></g><g class="group1" transform="translate(0,0)"><path d="M0,145A145,145,0,0,1,-42.091,138.756L-29.028,95.694A100,100,0,0,0,0,100Z" transform="translate(0,0)" id="e_arc1_10" fill="#ffffb3" stroke="black" stroke-width="0.5" stroke-dasharray="1,0" fill-opacity="1" class="arc1"></path></g><g class="group1" transform="translate(0,0)"><path d="M-42.091,138.756A145,145,0,0,1,-97.376,107.438L-67.156,74.095A100,100,0,0,0,-29.028,95.694Z" transform="translate(0,0)" id="e_arc1_11" fill="#ffffb3" stroke="black" stroke-width="0.5" stroke-dasharray="1,0" fill-opacity="1" class="arc1"></path></g><g class="group1" transform="translate(0,0)"><path d="M-97.376,107.438A145,145,0,0,1,-124.371,74.545L-85.773,51.41A100,100,0,0,0,-67.156,74.095Z" transform="translate(0,0)" id="e_arc1_12" fill="#ffffb3" stroke="black" stroke-width="0.5" stroke-dasharray="1,0" fill-opacity="1" class="arc1"></path></g><g class="group1" transform="translate(0,0)"><path d="M-124.371,74.545A145,145,0,0,1,-144.302,14.212L-99.518,9.802A100,100,0,0,0,-85.773,51.41Z" transform="translate(0,0)" id="e_arc1_13" fill="#ffffb3" stroke="black" stroke-width="0.5" stroke-dasharray="1,0" fill-opacity="1" class="arc1"></path></g><g class="group1" transform="translate(0,0)"><path d="M-144.302,14.212A145,145,0,0,1,-138.756,-42.091L-95.694,-29.028A100,100,0,0,0,-99.518,9.802Z" transform="translate(0,0)" id="e_arc1_14" fill="#bebada" stroke="black" stroke-width="0.5" stroke-dasharray="1,0" fill-opacity="1" class="arc1"></path></g><g class="group1" transform="translate(0,0)"><path d="M-138.756,-42.091A145,145,0,0,1,-127.879,-68.353L-88.192,-47.14A100,100,0,0,0,-95.694,-29.028Z" transform="translate(0,0)" id="e_arc1_15" fill="#bebada" stroke="black" stroke-width="0.5" stroke-dasharray="1,0" fill-opacity="1" class="arc1"></path></g><g class="group1" transform="translate(0,0)"><path d="M-127.879,-68.353A145,145,0,0,1,-107.438,-97.376L-74.095,-67.156A100,100,0,0,0,-88.192,-47.14Z" transform="translate(0,0)" id="e_arc1_16" fill="#bebada" stroke="black" stroke-width="0.5" stroke-dasharray="1,0" fill-opacity="1" class="arc1"></path></g><g class="group1" transform="translate(0,0)"><path d="M-107.438,-97.376A145,145,0,0,1,-61.995,-131.078L-42.756,-90.399A100,100,0,0,0,-74.095,-67.156Z" transform="translate(0,0)" id="e_arc1_17" fill="#bebada" stroke="black" stroke-width="0.5" stroke-dasharray="1,0" fill-opacity="1" class="arc1"></path></g><g class="group1" transform="translate(0,0)"><path d="M-61.995,-131.078A145,145,0,0,1,-35.232,-140.655L-24.298,-97.003A100,100,0,0,0,-42.756,-90.399Z" transform="translate(0,0)" id="e_arc1_18" fill="#bebada" stroke="black" stroke-width="0.5" stroke-dasharray="1,0" fill-opacity="1" class="arc1"></path></g><g class="group1" transform="translate(0,0)"><path d="M-35.232,-140.655A145,145,0,0,1,0,-145L0,-100A100,100,0,0,0,-24.298,-97.003Z" transform="translate(0,0)" id="e_arc1_19" fill="#bebada" stroke="black" stroke-width="0.5" stroke-dasharray="1,0" fill-opacity="1" class="arc1"></path></g></g><g class="group5" transform="translate(0,0)"><g class="group6" transform="translate(0,0)"><g class="text2_g"><text x="13.71314633555296" y="-6.078619710074847" style="text-anchor: start; font-size: 10px; font-weight: normal; font-family: Arial; font-style: normal;" transform="rotate(336.09375,13.71314633555296,-6.078619710074847)" dominant-baseline="middle" fill="black" class="text2">A(47)</text></g></g><g class="group6" transform="translate(0,0)"><g class="text2_g"><text x="-4.705226105983375" y="14.242922708895549" style="text-anchor: end; font-size: 10px; font-weight: normal; font-family: Arial; font-style: normal;" transform="rotate(288.28125,-4.705226105983375,14.242922708895549)" dominant-baseline="middle" fill="black" class="text2">B(47)</text></g></g><g class="group6" transform="translate(0,0)"><g class="text2_g"><text x="-11.114266880324386" y="-10.073384322705277" style="text-anchor: end; font-size: 10px; font-weight: normal; font-family: Arial; font-style: normal;" transform="rotate(402.1875,-11.114266880324386,-10.073384322705277)" dominant-baseline="middle" fill="black" class="text2">C(34)</text></g></g></g><g class="group5" transform="translate(0,0)"><g class="group6" transform="translate(0,0)"><g class="text2_g"><text x="21.593702192099297" y="-55.97956793008433" style="text-anchor: start; font-size: 10px; font-weight: normal; font-family: Arial; font-style: normal;" transform="rotate(291.09375,21.593702192099297,-55.97956793008433)" dominant-baseline="middle" fill="black" class="text2">abcde(15)</text></g></g><g class="group6" transform="translate(0,0)"><g class="text2_g"><text x="57.82656394772639" y="-16.002765448493903" style="text-anchor: start; font-size: 10px; font-weight: normal; font-family: Arial; font-style: normal;" transform="rotate(344.53125,57.82656394772639,-16.002765448493903)" dominant-baseline="middle" fill="black" class="text2">bbb(23)</text></g></g><g class="group6" transform="translate(0,0)"><g class="text2_g"><text x="52.205219466522685" y="29.57389153378704" style="text-anchor: start; font-size: 10px; font-weight: normal; font-family: Arial; font-style: normal;" transform="rotate(29.53125,52.205219466522685,29.57389153378704)" dominant-baseline="middle" fill="black" class="text2">ccc(9)</text></g></g><g class="group6" transform="translate(0,0)"><g class="text2_g"><text x="24.314478840299415" y="54.852585342211825" style="text-anchor: start; font-size: 10px; font-weight: normal; font-family: Arial; font-style: normal;" transform="rotate(66.09375,24.314478840299415,54.852585342211825)" dominant-baseline="middle" fill="black" class="text2">ddd(17)</text></g></g><g class="group6" transform="translate(0,0)"><g class="text2_g"><text x="-40.29353729082111" y="44.45706752129754" style="text-anchor: end; font-size: 10px; font-weight: normal; font-family: Arial; font-style: normal;" transform="rotate(312.1875,-40.29353729082111,44.45706752129754)" dominant-baseline="middle" fill="black" class="text2">eee(30)</text></g></g><g class="group6" transform="translate(0,0)"><g class="text2_g"><text x="-56.97169083558221" y="-18.82090442393347" style="text-anchor: end; font-size: 10px; font-weight: normal; font-family: Arial; font-style: normal;" transform="rotate(378.28125,-56.97169083558221,-18.82090442393347)" dominant-baseline="middle" fill="black" class="text2">fff(17)</text></g></g><g class="group6" transform="translate(0,0)"><g class="text2_g"><text x="-24.314478840299373" y="-54.852585342211846" style="text-anchor: end; font-size: 10px; font-weight: normal; font-family: Arial; font-style: normal;" transform="rotate(426.09375,-24.314478840299373,-54.852585342211846)" dominant-baseline="middle" fill="black" class="text2">ggg(17)</text></g></g></g><g class="group5" transform="translate(0,0)"><g class="group6" transform="translate(0,0)"><g class="text2_g"><text x="15.406699817812983" y="-103.86353354630201" style="text-anchor: start; font-size: 10px; font-weight: normal; font-family: Arial; font-style: normal;" transform="rotate(278.4375,15.406699817812983,-103.86353354630201)" dominant-baseline="middle" fill="black" class="text2">name1(6)</text></g></g><g class="group6" transform="translate(0,0)"><g class="text2_g"><text x="51.75431018412733" y="-91.3591340664147" style="text-anchor: start; font-size: 10px; font-weight: normal; font-family: Arial; font-style: normal;" transform="rotate(299.53125,51.75431018412733,-91.3591340664147)" dominant-baseline="middle" fill="black" class="text2">name2(9)</text></g></g><g class="group6" transform="translate(0,0)"><g class="text2_g"><text x="81.16609760308738" y="-66.61129483718278" style="text-anchor: start; font-size: 10px; font-weight: normal; font-family: Arial; font-style: normal;" transform="rotate(320.625,81.16609760308738,-66.61129483718278)" dominant-baseline="middle" fill="black" class="text2">name6(6)</text></g></g><g class="group6" transform="translate(0,0)"><g class="text2_g"><text x="99.70045896226887" y="-32.93658274188358" style="text-anchor: start; font-size: 10px; font-weight: normal; font-family: Arial; font-style: normal;" transform="rotate(341.71875,99.70045896226887,-32.93658274188358)" dominant-baseline="middle" fill="black" class="text2">name7(9)</text></g></g><g class="group6" transform="translate(0,0)"><g class="text2_g"><text x="104.49439630058068" y="10.291799734603876" style="text-anchor: start; font-size: 10px; font-weight: normal; font-family: Arial; font-style: normal;" transform="rotate(5.625,104.49439630058068,10.291799734603876)" dominant-baseline="middle" fill="black" class="text2">name8(8)</text></g></g><g class="group6" transform="translate(0,0)"><g class="text2_g"><text x="97.0073509136851" y="40.181760398334426" style="text-anchor: start; font-size: 10px; font-weight: normal; font-family: Arial; font-style: normal;" transform="rotate(22.5,97.0073509136851,40.181760398334426)" dominant-baseline="middle" fill="black" class="text2">name9(4)</text></g></g><g class="group6" transform="translate(0,0)"><g class="text2_g"><text x="85.84640538091628" y="60.459860098873776" style="text-anchor: start; font-size: 10px; font-weight: normal; font-family: Arial; font-style: normal;" transform="rotate(35.15625,85.84640538091628,60.459860098873776)" dominant-baseline="middle" fill="black" class="text2">name10(5)</text></g></g><g class="group6" transform="translate(0,0)"><g class="text2_g"><text x="70.51369025893692" y="77.79986816227071" style="text-anchor: start; font-size: 10px; font-weight: normal; font-family: Arial; font-style: normal;" transform="rotate(47.8125,70.51369025893692,77.79986816227071)" dominant-baseline="middle" fill="black" class="text2">name12(4)</text></g></g><g class="group6" transform="translate(0,0)"><g class="text2_g"><text x="51.75431018412729" y="91.35913406641471" style="text-anchor: start; font-size: 10px; font-weight: normal; font-family: Arial; font-style: normal;" transform="rotate(60.46875,51.75431018412729,91.35913406641471)" dominant-baseline="middle" fill="black" class="text2">name13(5)</text></g></g><g class="group6" transform="translate(0,0)"><g class="text2_g"><text x="20.484483811693405" y="102.9824544423392" style="text-anchor: start; font-size: 10px; font-weight: normal; font-family: Arial; font-style: normal;" transform="rotate(78.75000000000006,20.484483811693405,102.9824544423392)" dominant-baseline="middle" fill="black" class="text2">name11(8)</text></g></g><g class="group6" transform="translate(0,0)"><g class="text2_g"><text x="-15.406699817813019" y="103.863533546302" style="text-anchor: end; font-size: 10px; font-weight: normal; font-family: Arial; font-style: normal;" transform="rotate(278.4375,-15.406699817813019,103.863533546302)" dominant-baseline="middle" fill="black" class="text2">name14(6)</text></g></g><g class="group6" transform="translate(0,0)"><g class="text2_g"><text x="-51.75431018412732" y="91.3591340664147" style="text-anchor: end; font-size: 10px; font-weight: normal; font-family: Arial; font-style: normal;" transform="rotate(299.53125,-51.75431018412732,91.3591340664147)" dominant-baseline="middle" fill="black" class="text2">name15(9)</text></g></g><g class="group6" transform="translate(0,0)"><g class="text2_g"><text x="-81.16609760308741" y="66.61129483718274" style="text-anchor: end; font-size: 10px; font-weight: normal; font-family: Arial; font-style: normal;" transform="rotate(320.62500000000006,-81.16609760308741,66.61129483718274)" dominant-baseline="middle" fill="black" class="text2">name16(6)</text></g></g><g class="group6" transform="translate(0,0)"><g class="text2_g"><text x="-99.70045896226885" y="32.9365827418836" style="text-anchor: end; font-size: 10px; font-weight: normal; font-family: Arial; font-style: normal;" transform="rotate(341.71875,-99.70045896226885,32.9365827418836)" dominant-baseline="middle" fill="black" class="text2">name17(9)</text></g></g><g class="group6" transform="translate(0,0)"><g class="text2_g"><text x="-104.49439630058066" y="-10.29179973460391" style="text-anchor: end; font-size: 10px; font-weight: normal; font-family: Arial; font-style: normal;" transform="rotate(365.625,-104.49439630058066,-10.29179973460391)" dominant-baseline="middle" fill="black" class="text2">name18(8)</text></g></g><g class="group6" transform="translate(0,0)"><g class="text2_g"><text x="-97.0073509136851" y="-40.181760398334454" style="text-anchor: end; font-size: 10px; font-weight: normal; font-family: Arial; font-style: normal;" transform="rotate(382.5,-97.0073509136851,-40.181760398334454)" dominant-baseline="middle" fill="black" class="text2">name19(4)</text></g></g><g class="group6" transform="translate(0,0)"><g class="text2_g"><text x="-85.84640538091627" y="-60.4598600988738" style="text-anchor: end; font-size: 10px; font-weight: normal; font-family: Arial; font-style: normal;" transform="rotate(395.15625,-85.84640538091627,-60.4598600988738)" dominant-baseline="middle" fill="black" class="text2">name20(5)</text></g></g><g class="group6" transform="translate(0,0)"><g class="text2_g"><text x="-62.54842697170541" y="-84.33679080546779" style="text-anchor: end; font-size: 10px; font-weight: normal; font-family: Arial; font-style: normal;" transform="rotate(413.4375,-62.54842697170541,-84.33679080546779)" dominant-baseline="middle" fill="black" class="text2">name21(8)</text></g></g><g class="group6" transform="translate(0,0)"><g class="text2_g"><text x="-35.373434606183004" y="-98.86212684421722" style="text-anchor: end; font-size: 10px; font-weight: normal; font-family: Arial; font-style: normal;" transform="rotate(430.3125,-35.373434606183004,-98.86212684421722)" dominant-baseline="middle" fill="black" class="text2">name22(4)</text></g></g><g class="group6" transform="translate(0,0)"><g class="text2_g"><text x="-12.853120895917584" y="-104.21035113286457" style="text-anchor: end; font-size: 10px; font-weight: normal; font-family: Arial; font-style: normal;" transform="rotate(442.96875,-12.853120895917584,-104.21035113286457)" dominant-baseline="middle" fill="black" class="text2">name23(5)</text></g></g></g></g></svg>
