<svg width="400" height="280" id="ngplotSvg"><g transform="translate(100,230)" class="bSlN2axis1"><g transform="translate(0,0)" class="bSlN2axis1_1"><line x1="0" y1="0" x2="200" y2="0" stroke="black" stroke-width="1" stroke-dasharray="1,0" class="bSlN2axis1_2"></line><g class="bSlN2axis1_3" transform="translate(29.99997,0)"><line x1="0" y1="0" x2="0" y2="3" stroke="black" stroke-width="1" stroke-dasharray="1,0" class="bSlN2axis1_4"></line><g class="bSlN2axis1_5_g"><text x="0" y="12" style="text-anchor: middle; font-size: 12px; font-weight: normal; font-family: Arial; font-style: normal;" transform="rotate(0,0,12)" dominant-baseline="middle" fill="black" class="bSlN2axis1_5">a</text></g></g><g class="bSlN2axis1_3" transform="translate(76.66665666666667,0)"><line x1="0" y1="0" x2="0" y2="3" stroke="black" stroke-width="1" stroke-dasharray="1,0" class="bSlN2axis1_4"></line><g class="bSlN2axis1_5_g"><text x="0" y="12" style="text-anchor: middle; font-size: 12px; font-weight: normal; font-family: Arial; font-style: normal;" transform="rotate(0,0,12)" dominant-baseline="middle" fill="black" class="bSlN2axis1_5">b</text></g></g><g class="bSlN2axis1_3" transform="translate(123.33334333333335,0)"><line x1="0" y1="0" x2="0" y2="3" stroke="black" stroke-width="1" stroke-dasharray="1,0" class="bSlN2axis1_4"></line><g class="bSlN2axis1_5_g"><text x="0" y="12" style="text-anchor: middle; font-size: 12px; font-weight: normal; font-family: Arial; font-style: normal;" transform="rotate(0,0,12)" dominant-baseline="middle" fill="black" class="bSlN2axis1_5">c</text></g></g><g class="bSlN2axis1_3" transform="translate(170.00003,0)"><line x1="0" y1="0" x2="0" y2="3" stroke="black" stroke-width="1" stroke-dasharray="1,0" class="bSlN2axis1_4"></line><g class="bSlN2axis1_5_g"><text x="0" y="12" style="text-anchor: middle; font-size: 12px; font-weight: normal; font-family: Arial; font-style: normal;" transform="rotate(0,0,12)" dominant-baseline="middle" fill="black" class="bSlN2axis1_5">d</text></g></g></g><g transform="translate(0,0)" class="bSlN2axis1_6"><line x1="0" y1="0" x2="0" y2="-180" stroke="black" stroke-width="1" stroke-dasharray="1,0" class="bSlN2axis1_7"></line><g class="bSlN2axis1_8" transform="translate(0,0)"><line x1="0" y1="0" x2="-3" y2="0" stroke="black" stroke-width="1" stroke-dasharray="1,0" class="bSlN2axis1_9"></line><g class="bSlN2axis1_10_g"><text x="-7" y="0" style="text-anchor: end; font-size: 12px; font-weight: normal; font-family: Arial; font-style: normal;" transform="rotate(0,-7,0)" dominant-baseline="middle" fill="black" class="bSlN2axis1_10">0</text></g></g><g class="bSlN2axis1_8" transform="translate(0,-45)"><line x1="0" y1="0" x2="-3" y2="0" stroke="black" stroke-width="1" stroke-dasharray="1,0" class="bSlN2axis1_9"></line><g class="bSlN2axis1_10_g"><text x="-7" y="0" style="text-anchor: end; font-size: 12px; font-weight: normal; font-family: Arial; font-style: normal;" transform="rotate(0,-7,0)" dominant-baseline="middle" fill="black" class="bSlN2axis1_10">3</text></g></g><g class="bSlN2axis1_8" transform="translate(0,-90)"><line x1="0" y1="0" x2="-3" y2="0" stroke="black" stroke-width="1" stroke-dasharray="1,0" class="bSlN2axis1_9"></line><g class="bSlN2axis1_10_g"><text x="-7" y="0" style="text-anchor: end; font-size: 12px; font-weight: normal; font-family: Arial; font-style: normal;" transform="rotate(0,-7,0)" dominant-baseline="middle" fill="black" class="bSlN2axis1_10">6</text></g></g><g class="bSlN2axis1_8" transform="translate(0,-135)"><line x1="0" y1="0" x2="-3" y2="0" stroke="black" stroke-width="1" stroke-dasharray="1,0" class="bSlN2axis1_9"></line><g class="bSlN2axis1_10_g"><text x="-7" y="0" style="text-anchor: end; font-size: 12px; font-weight: normal; font-family: Arial; font-style: normal;" transform="rotate(0,-7,0)" dominant-baseline="middle" fill="black" class="bSlN2axis1_10">9</text></g></g><g class="bSlN2axis1_8" transform="translate(0,-180)"><line x1="0" y1="0" x2="-3" y2="0" stroke="black" stroke-width="1" stroke-dasharray="1,0" class="bSlN2axis1_9"></line><g class="bSlN2axis1_10_g"><text x="-7" y="0" style="text-anchor: end; font-size: 12px; font-weight: normal; font-family: Arial; font-style: normal;" transform="rotate(0,-7,0)" dominant-baseline="middle" fill="black" class="bSlN2axis1_10">12</text></g></g></g><g class="areaV2" transform="translate(29.99997,0)"><path d="M0.556,-15C0.556,-15,0.278,-25,1.111,-30C1.944,-35,3.889,-40,5.556,-45C7.222,-50,9.259,-55,11.111,-60C12.963,-65,16.667,-70,16.667,-75C16.667,-80,12.963,-85,11.111,-90C9.259,-95,7.037,-100,5.556,-105C4.074,-110,2.963,-115,2.222,-120C1.481,-125,1.389,-130,1.111,-135C0.833,-140,0.556,-150,0.556,-150L-0.556,-150C-0.556,-150,-0.833,-140,-1.111,-135C-1.389,-130,-1.481,-125,-2.222,-120C-2.963,-115,-4.074,-110,-5.556,-105C-7.037,-100,-9.259,-95,-11.111,-90C-12.963,-85,-16.667,-80,-16.667,-75C-16.667,-70,-12.963,-65,-11.111,-60C-9.259,-55,-7.222,-50,-5.556,-45C-3.889,-40,-1.944,-35,-1.111,-30C-0.278,-25,-0.556,-15,-0.556,-15Z" id="e_areaV2_1_0" fill="#e54b34" stroke="black" stroke-width="0.5" datum="[object Object],[object Object],[object Object],[object Object],[object Object],[object Object],[object Object],[object Object],[object Object],[object Object]" stroke-dasharray="1,0" fill-opacity="1" transform="rotate(0,0,0)" class="areaV2_1"></path></g><g class="areaV2" transform="translate(76.66665666666667,0)"><path d="M0.556,-15C0.556,-15,0.278,-25,1.111,-30C1.944,-35,3.889,-40,5.556,-45C7.222,-50,9.259,-55,11.111,-60C12.963,-65,16.667,-70,16.667,-75C16.667,-80,12.963,-85,11.111,-90C9.259,-95,7.037,-100,5.556,-105C4.074,-110,2.963,-115,2.222,-120C1.481,-125,1.389,-130,1.111,-135C0.833,-140,0.556,-150,0.556,-150L-0.556,-150C-0.556,-150,-0.833,-140,-1.111,-135C-1.389,-130,-1.481,-125,-2.222,-120C-2.963,-115,-4.074,-110,-5.556,-105C-7.037,-100,-9.259,-95,-11.111,-90C-12.963,-85,-16.667,-80,-16.667,-75C-16.667,-70,-12.963,-65,-11.111,-60C-9.259,-55,-7.222,-50,-5.556,-45C-3.889,-40,-1.944,-35,-1.111,-30C-0.278,-25,-0.556,-15,-0.556,-15Z" id="e_areaV2_1_1" fill="#4cbad4" stroke="black" stroke-width="0.5" datum="[object Object],[object Object],[object Object],[object Object],[object Object],[object Object],[object Object],[object Object],[object Object],[object Object]" stroke-dasharray="1,0" fill-opacity="1" transform="rotate(0,0,0)" class="areaV2_1"></path></g><g class="areaV2" transform="translate(123.33334333333335,0)"><path d="M0.556,-15C0.556,-15,0.278,-25,1.111,-30C1.944,-35,3.889,-40,5.556,-45C7.222,-50,9.259,-55,11.111,-60C12.963,-65,16.667,-70,16.667,-75C16.667,-80,12.963,-85,11.111,-90C9.259,-95,7.037,-100,5.556,-105C4.074,-110,2.963,-115,2.222,-120C1.481,-125,1.389,-130,1.111,-135C0.833,-140,0.556,-150,0.556,-150L-0.556,-150C-0.556,-150,-0.833,-140,-1.111,-135C-1.389,-130,-1.481,-125,-2.222,-120C-2.963,-115,-4.074,-110,-5.556,-105C-7.037,-100,-9.259,-95,-11.111,-90C-12.963,-85,-16.667,-80,-16.667,-75C-16.667,-70,-12.963,-65,-11.111,-60C-9.259,-55,-7.222,-50,-5.556,-45C-3.889,-40,-1.944,-35,-1.111,-30C-0.278,-25,-0.556,-15,-0.556,-15Z" id="e_areaV2_1_2" fill="#009f86" stroke="black" stroke-width="0.5" datum="[object Object],[object Object],[object Object],[object Object],[object Object],[object Object],[object Object],[object Object],[object Object],[object Object]" stroke-dasharray="1,0" fill-opacity="1" transform="rotate(0,0,0)" class="areaV2_1"></path></g><g class="areaV2" transform="translate(170.00003,0)"><path d="M0.556,-15C0.556,-15,0.278,-25,1.111,-30C1.944,-35,3.889,-40,5.556,-45C7.222,-50,9.259,-55,11.111,-60C12.963,-65,16.667,-70,16.667,-75C16.667,-80,12.963,-85,11.111,-90C9.259,-95,7.037,-100,5.556,-105C4.074,-110,2.963,-115,2.222,-120C1.481,-125,1.389,-130,1.111,-135C0.833,-140,0.556,-150,0.556,-150L-0.556,-150C-0.556,-150,-0.833,-140,-1.111,-135C-1.389,-130,-1.481,-125,-2.222,-120C-2.963,-115,-4.074,-110,-5.556,-105C-7.037,-100,-9.259,-95,-11.111,-90C-12.963,-85,-16.667,-80,-16.667,-75C-16.667,-70,-12.963,-65,-11.111,-60C-9.259,-55,-7.222,-50,-5.556,-45C-3.889,-40,-1.944,-35,-1.111,-30C-0.278,-25,-0.556,-15,-0.556,-15Z" id="e_areaV2_1_3" fill="#3b5387" stroke="black" stroke-width="0.5" datum="[object Object],[object Object],[object Object],[object Object],[object Object],[object Object],[object Object],[object Object],[object Object],[object Object]" stroke-dasharray="1,0" fill-opacity="1" transform="rotate(0,0,0)" class="areaV2_1"></path></g></g></svg>
