<svg width="450" height="450" id="ngplotSvg"><g class="group7" transform="translate(200,200)"><path d="M24.834,-122.508A125,125,0,0,1,83.781,-92.767L16.756,-18.553A25,25,0,0,0,4.967,-24.502Z" transform="translate(0,0)" id="e_arc3_0" fill="#fbb4ae" stroke="black" stroke-width="0" stroke-dasharray="1,0" fill-opacity="0.1" class="arc3"></path><path d="M25.827,-127.409A130,130,0,0,1,87.132,-96.478L86.462,-95.735A129,129,0,0,0,25.628,-126.429Z" transform="translate(0,0)" id="e_arc4_0" fill="#fbb4ae" stroke="black" stroke-width="0" stroke-dasharray="1,0" fill-opacity="1" class="arc4"></path><g class="text4_g"><text x="62.162521483697866" y="-123.20641591568517" style="text-anchor: middle; font-size: 10px; font-weight: normal; font-family: Arial; font-style: normal;" transform="rotate(26.772755154294828,62.162521483697866,-123.20641591568517)" dominant-baseline="middle" fill="black" class="text4">name1</text></g><line x1="56.30663177871183" y1="-111.6000144163815" x2="11.261326355742368" y2="-22.3200028832763" stroke="black" stroke-width="0.2" stroke-dasharray="1,0" class="line2"></line></g><g class="group7" transform="translate(200,200)"><path d="M83.781,-92.767A125,125,0,0,1,119.354,-37.144L23.871,-7.429A25,25,0,0,0,16.756,-18.553Z" transform="translate(0,0)" id="e_arc3_1" fill="#b3cde3" stroke="black" stroke-width="0" stroke-dasharray="1,0" fill-opacity="0.1" class="arc3"></path><path d="M87.132,-96.478A130,130,0,0,1,124.128,-38.629L123.173,-38.332A129,129,0,0,0,86.462,-95.735Z" transform="translate(0,0)" id="e_arc4_1" fill="#b3cde3" stroke="black" stroke-width="0" stroke-dasharray="1,0" fill-opacity="1" class="arc4"></path><g class="text4_g"><text x="116.25837065039545" y="-74.35046236382979" style="text-anchor: middle; font-size: 10px; font-weight: normal; font-family: Arial; font-style: normal;" transform="rotate(57.399953657651565,116.25837065039545,-74.35046236382979)" dominant-baseline="middle" fill="black" class="text4">name2</text></g><line x1="105.30649515434371" y1="-67.34643330057047" x2="21.061299030868742" y2="-13.469286660114093" stroke="black" stroke-width="0.2" stroke-dasharray="1,0" class="line2"></line></g><g class="group7" transform="translate(200,200)"><path d="M119.354,-37.144A125,125,0,0,1,121.627,28.843L24.325,5.769A25,25,0,0,0,23.871,-7.429Z" transform="translate(0,0)" id="e_arc3_2" fill="#ccebc5" stroke="black" stroke-width="0" stroke-dasharray="1,0" fill-opacity="0.1" class="arc3"></path><path d="M124.128,-38.629A130,130,0,0,1,126.492,29.996L125.519,29.766A129,129,0,0,0,123.173,-38.332Z" transform="translate(0,0)" id="e_arc4_2" fill="#ccebc5" stroke="black" stroke-width="0" stroke-dasharray="1,0" fill-opacity="1" class="arc4"></path><g class="text4_g"><text x="137.91820098053844" y="-4.750772388970303" style="text-anchor: middle; font-size: 10px; font-weight: normal; font-family: Arial; font-style: normal;" transform="rotate(88.0271521610083,137.91820098053844,-4.750772388970303)" dominant-baseline="middle" fill="black" class="text4">name3</text></g><line x1="124.92590668527033" y1="-4.303235859574549" x2="24.985181337054065" y2="-0.8606471719149099" stroke="black" stroke-width="0.2" stroke-dasharray="1,0" class="line2"></line></g><g class="group7" transform="translate(200,200)"><path d="M121.627,28.843A125,125,0,0,1,89.966,86.782L17.993,17.356A25,25,0,0,0,24.325,5.769Z" transform="translate(0,0)" id="e_arc3_3" fill="#decbe4" stroke="black" stroke-width="0" stroke-dasharray="1,0" fill-opacity="0.1" class="arc3"></path><path d="M126.492,29.996A130,130,0,0,1,93.565,90.253L92.845,89.559A129,129,0,0,0,125.519,29.766Z" transform="translate(0,0)" id="e_arc4_3" fill="#decbe4" stroke="black" stroke-width="0" stroke-dasharray="1,0" fill-opacity="1" class="arc4"></path><g class="text4_g"><text x="121.098932215435" y="66.17438036190049" style="text-anchor: middle; font-size: 10px; font-weight: normal; font-family: Arial; font-style: normal;" transform="rotate(298.65435066436504,121.098932215435,66.17438036190049)" dominant-baseline="middle" fill="black" class="text4">name4</text></g><line x1="109.6910617893433" y1="59.94056192201132" x2="21.938212357868657" y2="11.988112384402264" stroke="black" stroke-width="0.2" stroke-dasharray="1,0" class="line2"></line></g><g class="group7" transform="translate(200,200)"><path d="M89.966,86.782A125,125,0,0,1,33.205,120.509L6.641,24.102A25,25,0,0,0,17.993,17.356Z" transform="translate(0,0)" id="e_arc3_4" fill="#fed9a6" stroke="black" stroke-width="0" stroke-dasharray="1,0" fill-opacity="0.1" class="arc3"></path><path d="M93.565,90.253A130,130,0,0,1,34.533,125.329L34.267,124.365A129,129,0,0,0,92.845,89.559Z" transform="translate(0,0)" id="e_arc4_4" fill="#fed9a6" stroke="black" stroke-width="0" stroke-dasharray="1,0" fill-opacity="1" class="arc4"></path><g class="text4_g"><text x="70.49313070905976" y="118.63691888630376" style="text-anchor: middle; font-size: 10px; font-weight: normal; font-family: Arial; font-style: normal;" transform="rotate(329.2815491677218,70.49313070905976,118.63691888630376)" dominant-baseline="middle" fill="black" class="text4">name5</text></g><line x1="63.85247346835123" y1="107.46097725208674" x2="12.770494693670246" y2="21.49219545041735" stroke="black" stroke-width="0.2" stroke-dasharray="1,0" class="line2"></line></g><g class="group7" transform="translate(200,200)"><path d="M33.205,120.509A125,125,0,0,1,-32.821,120.614L-6.564,24.123A25,25,0,0,0,6.641,24.102Z" transform="translate(0,0)" id="e_arc3_5" fill="#ffffcc" stroke="black" stroke-width="0" stroke-dasharray="1,0" fill-opacity="0.1" class="arc3"></path><path d="M34.533,125.329A130,130,0,0,1,-34.134,125.439L-33.871,124.474A129,129,0,0,0,34.267,124.365Z" transform="translate(0,0)" id="e_arc4_5" fill="#ffffcc" stroke="black" stroke-width="0" stroke-dasharray="1,0" fill-opacity="1" class="arc4"></path><g class="text4_g"><text x="0.2197861024751823" y="137.99982497840045" style="text-anchor: middle; font-size: 10px; font-weight: normal; font-family: Arial; font-style: normal;" transform="rotate(359.9087476710786,0.2197861024751823,137.99982497840045)" dominant-baseline="middle" fill="black" class="text4">name6</text></g><line x1="0.19908161456085352" y1="124.99984146594244" x2="0.03981632291217071" y2="24.999968293188488" stroke="black" stroke-width="0.2" stroke-dasharray="1,0" class="line2"></line></g><g class="group7" transform="translate(200,200)"><path d="M-32.821,120.614A125,125,0,0,1,-89.689,87.068L-17.938,17.414A25,25,0,0,0,-6.564,24.123Z" transform="translate(0,0)" id="e_arc3_6" fill="#e5d8bd" stroke="black" stroke-width="0" stroke-dasharray="1,0" fill-opacity="0.1" class="arc3"></path><path d="M-34.134,125.439A130,130,0,0,1,-93.277,90.551L-92.559,89.854A129,129,0,0,0,-33.871,124.474Z" transform="translate(0,0)" id="e_arc4_6" fill="#e5d8bd" stroke="black" stroke-width="0" stroke-dasharray="1,0" fill-opacity="1" class="arc4"></path><g class="text4_g"><text x="-70.11487870084031" y="118.86085892658882" style="text-anchor: middle; font-size: 10px; font-weight: normal; font-family: Arial; font-style: normal;" transform="rotate(390.53594617443525,-70.11487870084031,118.86085892658882)" dominant-baseline="middle" fill="black" class="text4">name7</text></g><line x1="-63.50985389568868" y1="107.66382149147537" x2="-12.701970779137737" y2="21.532764298295078" stroke="black" stroke-width="0.2" stroke-dasharray="1,0" class="line2"></line></g><g class="group7" transform="translate(200,200)"><path d="M-89.689,87.068A125,125,0,0,1,-121.534,29.23L-24.307,5.846A25,25,0,0,0,-17.938,17.414Z" transform="translate(0,0)" id="e_arc3_7" fill="#fddaec" stroke="black" stroke-width="0" stroke-dasharray="1,0" fill-opacity="0.1" class="arc3"></path><path d="M-93.277,90.551A130,130,0,0,1,-126.396,30.399L-125.423,30.165A129,129,0,0,0,-92.559,89.854Z" transform="translate(0,0)" id="e_arc4_7" fill="#fddaec" stroke="black" stroke-width="0" stroke-dasharray="1,0" fill-opacity="1" class="arc4"></path><g class="text4_g"><text x="-120.88753249763516" y="66.55978129946945" style="text-anchor: middle; font-size: 10px; font-weight: normal; font-family: Arial; font-style: normal;" transform="rotate(421.16314467779193,-120.88753249763516,66.55978129946945)" dominant-baseline="middle" fill="black" class="text4">name8</text></g><line x1="-109.49957653771301" y1="60.289656974157104" x2="-21.899915307542603" y2="12.05793139483142" stroke="black" stroke-width="0.2" stroke-dasharray="1,0" class="line2"></line></g><g class="group7" transform="translate(200,200)"><path d="M-121.534,29.23A125,125,0,0,1,-119.472,-36.763L-23.894,-7.353A25,25,0,0,0,-24.307,5.846Z" transform="translate(0,0)" id="e_arc3_8" fill="#f2f2f2" stroke="black" stroke-width="0" stroke-dasharray="1,0" fill-opacity="0.1" class="arc3"></path><path d="M-126.396,30.399A130,130,0,0,1,-124.25,-38.234L-123.295,-37.94A129,129,0,0,0,-125.423,30.165Z" transform="translate(0,0)" id="e_arc4_8" fill="#f2f2f2" stroke="black" stroke-width="0" stroke-dasharray="1,0" fill-opacity="1" class="arc4"></path><g class="text4_g"><text x="-137.93263395336712" y="-4.311437195000795" style="text-anchor: middle; font-size: 10px; font-weight: normal; font-family: Arial; font-style: normal;" transform="rotate(271.7903431811487,-137.93263395336712,-4.311437195000795)" dominant-baseline="middle" fill="black" class="text4">name9</text></g><line x1="-124.93898003022385" y1="-3.905287314312314" x2="-24.987796006044768" y2="-0.7810574628624628" stroke="black" stroke-width="0.2" stroke-dasharray="1,0" class="line2"></line></g><g class="group7" transform="translate(200,200)"><path d="M-119.472,-36.763A125,125,0,0,1,-84.076,-92.5L-16.815,-18.5A25,25,0,0,0,-23.894,-7.353Z" transform="translate(0,0)" id="e_arc3_9" fill="#fbb4ae" stroke="black" stroke-width="0" stroke-dasharray="1,0" fill-opacity="0.1" class="arc3"></path><path d="M-124.25,-38.234A130,130,0,0,1,-87.439,-96.2L-86.767,-95.46A129,129,0,0,0,-123.295,-37.94Z" transform="translate(0,0)" id="e_arc4_9" fill="#fbb4ae" stroke="black" stroke-width="0" stroke-dasharray="1,0" fill-opacity="1" class="arc4"></path><g class="text4_g"><text x="-116.49460952269843" y="-73.97976718099363" style="text-anchor: middle; font-size: 10px; font-weight: normal; font-family: Arial; font-style: normal;" transform="rotate(302.4175416845055,-116.49460952269843,-73.97976718099363)" dominant-baseline="middle" fill="black" class="text4">name10</text></g><line x1="-105.52047964012539" y1="-67.01065867843627" x2="-21.104095928025078" y2="-13.402131735687254" stroke="black" stroke-width="0.2" stroke-dasharray="1,0" class="line2"></line></g><g class="group7" transform="translate(200,200)"><path d="M-84.076,-92.5A125,125,0,0,1,-25.224,-122.429L-5.045,-24.486A25,25,0,0,0,-16.815,-18.5Z" transform="translate(0,0)" id="e_arc3_10" fill="#b3cde3" stroke="black" stroke-width="0" stroke-dasharray="1,0" fill-opacity="0.1" class="arc3"></path><path d="M-87.439,-96.2A130,130,0,0,1,-26.233,-127.326L-26.031,-126.346A129,129,0,0,0,-86.767,-95.46Z" transform="translate(0,0)" id="e_arc4_10" fill="#b3cde3" stroke="black" stroke-width="0" stroke-dasharray="1,0" fill-opacity="1" class="arc4"></path><g class="text4_g"><text x="-62.554655745383954" y="-123.00778448771648" style="text-anchor: middle; font-size: 10px; font-weight: normal; font-family: Arial; font-style: normal;" transform="rotate(333.0447401878621,-62.554655745383954,-123.00778448771648)" dominant-baseline="middle" fill="black" class="text4">name11</text></g><line x1="-56.66182585632605" y1="-111.42009464467071" x2="-11.33236517126521" y2="-22.28401892893414" stroke="black" stroke-width="0.2" stroke-dasharray="1,0" class="line2"></line></g><g class="group8" transform="translate(200,200)"><circle cx="0" cy="0" r="25" stroke="black" stroke-width="0.3" stroke-dasharray="1,1" fill="none" fill-opacity="1" class="circle2"></circle></g><g class="group8" transform="translate(200,200)"><circle cx="0" cy="0" r="50" stroke="black" stroke-width="0.3" stroke-dasharray="1,1" fill="none" fill-opacity="1" class="circle2"></circle></g><g class="group8" transform="translate(200,200)"><circle cx="0" cy="0" r="75" stroke="black" stroke-width="0.3" stroke-dasharray="1,1" fill="none" fill-opacity="1" class="circle2"></circle></g><g class="group8" transform="translate(200,200)"><circle cx="0" cy="0" r="100" stroke="black" stroke-width="0.3" stroke-dasharray="1,1" fill="none" fill-opacity="1" class="circle2"></circle></g><g class="group8" transform="translate(200,200)"><circle cx="0" cy="0" r="125" stroke="black" stroke-width="0.3" stroke-dasharray="1,1" fill="none" fill-opacity="1" class="circle2"></circle></g><g transform="translate(200,200)" class="group5"><g transform="translate(0,0)" class="group2"><g class="group1" transform="translate(0,0)"><path d="M22.985,-88.738A91.667,91.667,0,0,1,57.717,-71.215L15.741,-19.422A25,25,0,0,0,6.269,-24.201Z" transform="translate(0,0)" id="e_arc2_0" fill="#fbb4ae" stroke="black" stroke-width="0" stroke-dasharray="1,0" fill-opacity="1" class="arc2"></path><g class="text2_g"><text x="18.018122169187787" y="-35.71200461324208" style="text-anchor: start; font-size: 10px; font-weight: normal; font-family: Arial; font-style: normal;" transform="rotate(296.7727551542948,18.018122169187787,-35.71200461324208)" dominant-baseline="middle" fill="black" class="text2">8</text></g></g><g class="group1" transform="translate(0,0)"><path d="M70.894,-70.526A100,100,0,0,1,93.759,-34.774L23.44,-8.694A25,25,0,0,0,17.724,-17.632Z" transform="translate(0,0)" id="e_arc2_1" fill="#b3cde3" stroke="black" stroke-width="0" stroke-dasharray="1,0" fill-opacity="1" class="arc2"></path><g class="text2_g"><text x="33.69807844938998" y="-21.550858656182548" style="text-anchor: start; font-size: 10px; font-weight: normal; font-family: Arial; font-style: normal;" transform="rotate(327.39995365765157,33.69807844938998,-21.550858656182548)" dominant-baseline="middle" fill="black" class="text2">9</text></g></g><g class="group1" transform="translate(0,0)"><path d="M80.779,-20.476A83.333,83.333,0,0,1,81.996,14.869L24.599,4.461A25,25,0,0,0,24.234,-6.143Z" transform="translate(0,0)" id="e_arc2_2" fill="#ccebc5" stroke="black" stroke-width="0" stroke-dasharray="1,0" fill-opacity="1" class="arc2"></path><g class="text2_g"><text x="39.976290139286505" y="-1.3770354750638558" style="text-anchor: start; font-size: 10px; font-weight: normal; font-family: Arial; font-style: normal;" transform="rotate(358.0271521610083,39.976290139286505,-1.3770354750638558)" dominant-baseline="middle" fill="black" class="text2">7</text></g></g><g class="group1" transform="translate(0,0)"><path d="M103.924,30.593A108.333,108.333,0,0,1,81.878,70.938L18.895,16.37A25,25,0,0,0,23.982,7.06Z" transform="translate(0,0)" id="e_arc2_3" fill="#decbe4" stroke="black" stroke-width="0" stroke-dasharray="1,0" fill-opacity="1" class="arc2"></path><g class="text2_g"><text x="35.10113977258985" y="19.18097981504362" style="text-anchor: start; font-size: 10px; font-weight: normal; font-family: Arial; font-style: normal;" transform="rotate(28.65435066436504,35.10113977258985,19.18097981504362)" dominant-baseline="middle" fill="black" class="text2">10</text></g></g><g class="group1" transform="translate(0,0)"><path d="M45.44,48.781A66.667,66.667,0,0,1,21.118,63.234L7.919,23.713A25,25,0,0,0,17.04,18.293Z" transform="translate(0,0)" id="e_arc2_4" fill="#fed9a6" stroke="black" stroke-width="0" stroke-dasharray="1,0" fill-opacity="1" class="arc2"></path><g class="text2_g"><text x="20.43279150987239" y="34.38751272066776" style="text-anchor: start; font-size: 10px; font-weight: normal; font-family: Arial; font-style: normal;" transform="rotate(59.28154916772178,20.43279150987239,34.38751272066776)" dominant-baseline="middle" fill="black" class="text2">5</text></g></g><g class="group1" transform="translate(0,0)"><path d="M17.812,81.407A83.333,83.333,0,0,1,-17.553,81.464L-5.266,24.439A25,25,0,0,0,5.344,24.422Z" transform="translate(0,0)" id="e_arc2_5" fill="#ffffcc" stroke="black" stroke-width="0" stroke-dasharray="1,0" fill-opacity="1" class="arc2"></path><g class="text2_g"><text x="0.06370611665947312" y="39.99994926910158" style="text-anchor: start; font-size: 10px; font-weight: normal; font-family: Arial; font-style: normal;" transform="rotate(89.90874767107852,0.06370611665947312,39.99994926910158)" dominant-baseline="middle" fill="black" class="text2">7</text></g></g><g class="group1" transform="translate(0,0)"><path d="M-28.76,87.038A91.667,91.667,0,0,1,-62.267,67.273L-16.982,18.347A25,25,0,0,0,-7.844,23.738Z" transform="translate(0,0)" id="e_arc2_6" fill="#e5d8bd" stroke="black" stroke-width="0" stroke-dasharray="1,0" fill-opacity="1" class="arc2"></path><g class="text2_g"><text x="-20.32315324662038" y="34.45242287727212" style="text-anchor: end; font-size: 10px; font-weight: normal; font-family: Arial; font-style: normal;" transform="rotate(300.53594617443525,-20.32315324662038,34.45242287727212)" dominant-baseline="middle" fill="black" class="text2">8</text></g></g><g class="group1" transform="translate(0,0)"><path d="M-50.247,43.814A66.667,66.667,0,0,1,-63.893,19.03L-23.96,7.136A25,25,0,0,0,-18.843,16.43Z" transform="translate(0,0)" id="e_arc2_7" fill="#fddaec" stroke="black" stroke-width="0" stroke-dasharray="1,0" fill-opacity="1" class="arc2"></path><g class="text2_g"><text x="-35.03986449206816" y="19.292690231730273" style="text-anchor: end; font-size: 10px; font-weight: normal; font-family: Arial; font-style: normal;" transform="rotate(331.163144677792,-35.03986449206816,19.292690231730273)" dominant-baseline="middle" fill="black" class="text2">5</text></g></g><g class="group1" transform="translate(0,0)"><path d="M-106.533,19.669A108.333,108.333,0,0,1,-105.096,-26.284L-24.253,-6.065A25,25,0,0,0,-24.585,4.539Z" transform="translate(0,0)" id="e_arc2_8" fill="#f2f2f2" stroke="black" stroke-width="0" stroke-dasharray="1,0" fill-opacity="1" class="arc2"></path><g class="text2_g"><text x="-39.98047360967163" y="-1.2496919405799405" style="text-anchor: end; font-size: 10px; font-weight: normal; font-family: Arial; font-style: normal;" transform="rotate(361.7903431811487,-39.98047360967163,-1.2496919405799405)" dominant-baseline="middle" fill="black" class="text2">10</text></g></g><g class="group1" transform="translate(0,0)"><path d="M-62.58,-22.983A66.667,66.667,0,0,1,-47.412,-46.867L-17.78,-17.575A25,25,0,0,0,-23.467,-8.619Z" transform="translate(0,0)" id="e_arc2_9" fill="#fbb4ae" stroke="black" stroke-width="0" stroke-dasharray="1,0" fill-opacity="1" class="arc2"></path><g class="text2_g"><text x="-33.766553484840124" y="-21.443410777099604" style="text-anchor: end; font-size: 10px; font-weight: normal; font-family: Arial; font-style: normal;" transform="rotate(392.4175416845055,-33.766553484840124,-21.443410777099604)" dominant-baseline="middle" fill="black" class="text2">5</text></g></g><g class="group1" transform="translate(0,0)"><path d="M-52.676,-64.573A83.333,83.333,0,0,1,-21.153,-80.604L-6.346,-24.181A25,25,0,0,0,-15.803,-19.372Z" transform="translate(0,0)" id="e_arc2_10" fill="#b3cde3" stroke="black" stroke-width="0" stroke-dasharray="1,0" fill-opacity="1" class="arc2"></path><g class="text2_g"><text x="-18.131784274024334" y="-35.65443028629463" style="text-anchor: end; font-size: 10px; font-weight: normal; font-family: Arial; font-style: normal;" transform="rotate(423.0447401878621,-18.131784274024334,-35.65443028629463)" dominant-baseline="middle" fill="black" class="text2">7</text></g></g><circle cx="0" cy="0" r="25" stroke="black" stroke-width="0.2" stroke-dasharray="1,0" fill="none" fill-opacity="1" class="circle1"></circle><g class="text3_g"><text x="0" y="0" style="text-anchor: middle; font-size: 12px; font-weight: normal; font-family: Arial; font-style: normal;" transform="rotate(0,0,0)" dominant-baseline="middle" fill="black" class="text3">value</text></g></g><g transform="translate(0,0)" class="group3"><g class="group4" transform="translate(0,-25)"><g class="text1_g"><text x="0" y="0" style="text-anchor: middle; font-size: 10px; font-weight: normal; font-family: Arial; font-style: normal;" transform="rotate(0,0,0)" dominant-baseline="middle" fill="black" class="text1">0</text></g></g><g class="group4" transform="translate(0,-50)"><g class="text1_g"><text x="0" y="0" style="text-anchor: middle; font-size: 10px; font-weight: normal; font-family: Arial; font-style: normal;" transform="rotate(0,0,0)" dominant-baseline="middle" fill="black" class="text1">3</text></g></g><g class="group4" transform="translate(0,-75)"><g class="text1_g"><text x="0" y="0" style="text-anchor: middle; font-size: 10px; font-weight: normal; font-family: Arial; font-style: normal;" transform="rotate(0,0,0)" dominant-baseline="middle" fill="black" class="text1">6</text></g></g><g class="group4" transform="translate(0,-100)"><g class="text1_g"><text x="0" y="0" style="text-anchor: middle; font-size: 10px; font-weight: normal; font-family: Arial; font-style: normal;" transform="rotate(0,0,0)" dominant-baseline="middle" fill="black" class="text1">9</text></g></g><g class="group4" transform="translate(0,-125)"><g class="text1_g"><text x="0" y="0" style="text-anchor: middle; font-size: 10px; font-weight: normal; font-family: Arial; font-style: normal;" transform="rotate(0,0,0)" dominant-baseline="middle" fill="black" class="text1">12</text></g></g></g></g></svg>
