<svg width="560" height="450" id="ngplotSvg"><defs class="gradient1_defs"><linearGradient id="gradient1_0" x1="0%" y1="0%" x2="100%" y2="0%" class="gradient1_0"><stop offset="0%" style="stop-color:#c42121;stop-opacity:1" class="gradient1_0s1"></stop><stop offset="100%" style="stop-color:#224cc9;stop-opacity:1" class="gradient1_0s2"></stop></linearGradient></defs><g transform="translate(0,0)" class="group1"><g transform="translate(100,140)" class="bSlN2axis1"><g transform="translate(0,0)" class="bSlN2axis1_1"><line x1="0" y1="0" x2="360" y2="0" stroke="black" stroke-width="1" stroke-dasharray="1,0" stroke-opacity="1" class="bSlN2axis1_2"></line><g class="bSlN2axis1_3" transform="translate(30,0)"><line x1="0" y1="0" x2="0" y2="3" stroke="black" stroke-width="1" stroke-dasharray="1,0" class="bSlN2axis1_4"></line><g class="bSlN2axis1_5_g"><text x="0" y="16" style="text-anchor: middle; font-size: 12px; font-weight: normal; font-family: Arial; font-style: normal;" transform="rotate(0,0,16)" dominant-baseline="middle" fill="black" class="bSlN2axis1_5">var1</text></g></g><g class="bSlN2axis1_3" transform="translate(90,0)"><line x1="0" y1="0" x2="0" y2="3" stroke="black" stroke-width="1" stroke-dasharray="1,0" class="bSlN2axis1_4"></line><g class="bSlN2axis1_5_g"><text x="0" y="16" style="text-anchor: middle; font-size: 12px; font-weight: normal; font-family: Arial; font-style: normal;" transform="rotate(0,0,16)" dominant-baseline="middle" fill="black" class="bSlN2axis1_5">var2</text></g></g><g class="bSlN2axis1_3" transform="translate(150,0)"><line x1="0" y1="0" x2="0" y2="3" stroke="black" stroke-width="1" stroke-dasharray="1,0" class="bSlN2axis1_4"></line><g class="bSlN2axis1_5_g"><text x="0" y="16" style="text-anchor: middle; font-size: 12px; font-weight: normal; font-family: Arial; font-style: normal;" transform="rotate(0,0,16)" dominant-baseline="middle" fill="black" class="bSlN2axis1_5">var3</text></g></g><g class="bSlN2axis1_3" transform="translate(210,0)"><line x1="0" y1="0" x2="0" y2="3" stroke="black" stroke-width="1" stroke-dasharray="1,0" class="bSlN2axis1_4"></line><g class="bSlN2axis1_5_g"><text x="0" y="16" style="text-anchor: middle; font-size: 12px; font-weight: normal; font-family: Arial; font-style: normal;" transform="rotate(0,0,16)" dominant-baseline="middle" fill="black" class="bSlN2axis1_5">var4</text></g></g><g class="bSlN2axis1_3" transform="translate(270,0)"><line x1="0" y1="0" x2="0" y2="3" stroke="black" stroke-width="1" stroke-dasharray="1,0" class="bSlN2axis1_4"></line><g class="bSlN2axis1_5_g"><text x="0" y="16" style="text-anchor: middle; font-size: 12px; font-weight: normal; font-family: Arial; font-style: normal;" transform="rotate(0,0,16)" dominant-baseline="middle" fill="black" class="bSlN2axis1_5">var5</text></g></g><g class="bSlN2axis1_3" transform="translate(330,0)"><line x1="0" y1="0" x2="0" y2="3" stroke="black" stroke-width="1" stroke-dasharray="1,0" class="bSlN2axis1_4"></line><g class="bSlN2axis1_5_g"><text x="0" y="16" style="text-anchor: middle; font-size: 12px; font-weight: normal; font-family: Arial; font-style: normal;" transform="rotate(0,0,16)" dominant-baseline="middle" fill="black" class="bSlN2axis1_5">var6</text></g></g></g><g transform="translate(0,0)" class="bSlN2axis1_6"><line x1="0" y1="0" x2="0" y2="-70" stroke="black" stroke-width="1" stroke-dasharray="1,0" stroke-opacity="1" class="bSlN2axis1_7"></line><g class="bSlN2axis1_8" transform="translate(0,0)"><line x1="0" y1="0" x2="-3" y2="0" stroke="black" stroke-width="1" stroke-dasharray="1,0" stroke-opacity="1" class="bSlN2axis1_9"></line><g class="bSlN2axis1_10_g"><text x="-7" y="0" style="text-anchor: end; font-size: 12px; font-weight: normal; font-family: Arial; font-style: normal;" transform="rotate(0,-7,0)" dominant-baseline="middle" fill="black" class="bSlN2axis1_10">0</text></g></g><g class="bSlN2axis1_8" transform="translate(0,-17.5)"><line x1="0" y1="0" x2="-3" y2="0" stroke="black" stroke-width="1" stroke-dasharray="1,0" stroke-opacity="1" class="bSlN2axis1_9"></line><g class="bSlN2axis1_10_g"><text x="-7" y="0" style="text-anchor: end; font-size: 12px; font-weight: normal; font-family: Arial; font-style: normal;" transform="rotate(0,-7,0)" dominant-baseline="middle" fill="black" class="bSlN2axis1_10">0.2</text></g></g><g class="bSlN2axis1_8" transform="translate(0,-35)"><line x1="0" y1="0" x2="-3" y2="0" stroke="black" stroke-width="1" stroke-dasharray="1,0" stroke-opacity="1" class="bSlN2axis1_9"></line><g class="bSlN2axis1_10_g"><text x="-7" y="0" style="text-anchor: end; font-size: 12px; font-weight: normal; font-family: Arial; font-style: normal;" transform="rotate(0,-7,0)" dominant-baseline="middle" fill="black" class="bSlN2axis1_10">0.4</text></g></g><g class="bSlN2axis1_8" transform="translate(0,-52.49999999999999)"><line x1="0" y1="0" x2="-3" y2="0" stroke="black" stroke-width="1" stroke-dasharray="1,0" stroke-opacity="1" class="bSlN2axis1_9"></line><g class="bSlN2axis1_10_g"><text x="-7" y="0" style="text-anchor: end; font-size: 12px; font-weight: normal; font-family: Arial; font-style: normal;" transform="rotate(0,-7,0)" dominant-baseline="middle" fill="black" class="bSlN2axis1_10">0.6</text></g></g><g class="bSlN2axis1_8" transform="translate(0,-70)"><line x1="0" y1="0" x2="-3" y2="0" stroke="black" stroke-width="1" stroke-dasharray="1,0" stroke-opacity="1" class="bSlN2axis1_9"></line><g class="bSlN2axis1_10_g"><text x="-7" y="0" style="text-anchor: end; font-size: 12px; font-weight: normal; font-family: Arial; font-style: normal;" transform="rotate(0,-7,0)" dominant-baseline="middle" fill="black" class="bSlN2axis1_10">0.8</text></g></g></g><g transform="translate(0,0)" class="groupLayout1"><g class="bar1" transform="translate(20,0)"><rect x="-7" y="-37.625" width="14" height="37.625" rx="0" ry="0" fill="#0073c2" stroke="black" stroke-width="0" fill-opacity="1" transform="rotate(0,-7,-37.625)" stroke-opacity="1" class="bar1_1"></rect></g><g class="bar1" transform="translate(40,0)"><rect x="-7" y="-65.625" width="14" height="65.625" rx="0" ry="0" fill="#efc000" stroke="black" stroke-width="0" fill-opacity="1" transform="rotate(0,-7,-65.625)" stroke-opacity="1" class="bar1_1"></rect></g><g class="bar1" transform="translate(80,0)"><rect x="-7" y="-26.249999999999996" width="14" height="26.249999999999996" rx="0" ry="0" fill="#0073c2" stroke="black" stroke-width="0" fill-opacity="1" transform="rotate(0,-7,-26.249999999999996)" stroke-opacity="1" class="bar1_1"></rect></g><g class="bar1" transform="translate(100,0)"><rect x="-7" y="-49.00000000000001" width="14" height="49.00000000000001" rx="0" ry="0" fill="#efc000" stroke="black" stroke-width="0" fill-opacity="1" transform="rotate(0,-7,-49.00000000000001)" stroke-opacity="1" class="bar1_1"></rect></g><g class="bar1" transform="translate(140,0)"><rect x="-7" y="-37.625" width="14" height="37.625" rx="0" ry="0" fill="#0073c2" stroke="black" stroke-width="0" fill-opacity="1" transform="rotate(0,-7,-37.625)" stroke-opacity="1" class="bar1_1"></rect></g><g class="bar1" transform="translate(160,0)"><rect x="-7" y="-48.125" width="14" height="48.125" rx="0" ry="0" fill="#efc000" stroke="black" stroke-width="0" fill-opacity="1" transform="rotate(0,-7,-48.125)" stroke-opacity="1" class="bar1_1"></rect></g><g class="bar1" transform="translate(200,0)"><rect x="-7" y="-26.249999999999996" width="14" height="26.249999999999996" rx="0" ry="0" fill="#0073c2" stroke="black" stroke-width="0" fill-opacity="1" transform="rotate(0,-7,-26.249999999999996)" stroke-opacity="1" class="bar1_1"></rect></g><g class="bar1" transform="translate(220,0)"><rect x="-7" y="-31.499999999999996" width="14" height="31.499999999999996" rx="0" ry="0" fill="#efc000" stroke="black" stroke-width="0" fill-opacity="1" transform="rotate(0,-7,-31.499999999999996)" stroke-opacity="1" class="bar1_1"></rect></g><g class="bar1" transform="translate(260,0)"><rect x="-7" y="-37.625" width="14" height="37.625" rx="0" ry="0" fill="#0073c2" stroke="black" stroke-width="0" fill-opacity="1" transform="rotate(0,-7,-37.625)" stroke-opacity="1" class="bar1_1"></rect></g><g class="bar1" transform="translate(280,0)"><rect x="-7" y="-48.125" width="14" height="48.125" rx="0" ry="0" fill="#efc000" stroke="black" stroke-width="0" fill-opacity="1" transform="rotate(0,-7,-48.125)" stroke-opacity="1" class="bar1_1"></rect></g><g class="bar1" transform="translate(320,0)"><rect x="-7" y="-26.249999999999996" width="14" height="26.249999999999996" rx="0" ry="0" fill="#0073c2" stroke="black" stroke-width="0" fill-opacity="1" transform="rotate(0,-7,-26.249999999999996)" stroke-opacity="1" class="bar1_1"></rect></g><g class="bar1" transform="translate(340,0)"><rect x="-7" y="-22.75" width="14" height="22.75" rx="0" ry="0" fill="#efc000" stroke="black" stroke-width="0" fill-opacity="1" transform="rotate(0,-7,-22.75)" stroke-opacity="1" class="bar1_1"></rect></g></g></g><g transform="translate(100,190)" class="table1"><g class="table1_1" transform="translate(30,0)"><g class="table1_2_g"><text x="0" y="0" style="text-anchor: middle; font-size: 12px; font-weight: normal; font-family: Arial; font-style: normal;" transform="rotate(0,0,0)" dominant-baseline="middle" fill="black" class="table1_2">0.43</text></g></g><g class="table1_1" transform="translate(30,30)"><g class="table1_2_g"><text x="0" y="0" style="text-anchor: middle; font-size: 12px; font-weight: normal; font-family: Arial; font-style: normal;" transform="rotate(0,0,0)" dominant-baseline="middle" fill="black" class="table1_2">0.75</text></g></g><g class="table1_1" transform="translate(90,0)"><g class="table1_2_g"><text x="0" y="0" style="text-anchor: middle; font-size: 12px; font-weight: normal; font-family: Arial; font-style: normal;" transform="rotate(0,0,0)" dominant-baseline="middle" fill="black" class="table1_2">0.3</text></g></g><g class="table1_1" transform="translate(90,30)"><g class="table1_2_g"><text x="0" y="0" style="text-anchor: middle; font-size: 12px; font-weight: normal; font-family: Arial; font-style: normal;" transform="rotate(0,0,0)" dominant-baseline="middle" fill="black" class="table1_2">0.56</text></g></g><g class="table1_1" transform="translate(150,0)"><g class="table1_2_g"><text x="0" y="0" style="text-anchor: middle; font-size: 12px; font-weight: normal; font-family: Arial; font-style: normal;" transform="rotate(0,0,0)" dominant-baseline="middle" fill="black" class="table1_2">0.43</text></g></g><g class="table1_1" transform="translate(150,30)"><g class="table1_2_g"><text x="0" y="0" style="text-anchor: middle; font-size: 12px; font-weight: normal; font-family: Arial; font-style: normal;" transform="rotate(0,0,0)" dominant-baseline="middle" fill="black" class="table1_2">0.55</text></g></g><g class="table1_1" transform="translate(210,0)"><g class="table1_2_g"><text x="0" y="0" style="text-anchor: middle; font-size: 12px; font-weight: normal; font-family: Arial; font-style: normal;" transform="rotate(0,0,0)" dominant-baseline="middle" fill="black" class="table1_2">0.3</text></g></g><g class="table1_1" transform="translate(210,30)"><g class="table1_2_g"><text x="0" y="0" style="text-anchor: middle; font-size: 12px; font-weight: normal; font-family: Arial; font-style: normal;" transform="rotate(0,0,0)" dominant-baseline="middle" fill="black" class="table1_2">0.36</text></g></g><g class="table1_1" transform="translate(270,0)"><g class="table1_2_g"><text x="0" y="0" style="text-anchor: middle; font-size: 12px; font-weight: normal; font-family: Arial; font-style: normal;" transform="rotate(0,0,0)" dominant-baseline="middle" fill="black" class="table1_2">0.43</text></g></g><g class="table1_1" transform="translate(270,30)"><g class="table1_2_g"><text x="0" y="0" style="text-anchor: middle; font-size: 12px; font-weight: normal; font-family: Arial; font-style: normal;" transform="rotate(0,0,0)" dominant-baseline="middle" fill="black" class="table1_2">0.55</text></g></g><g class="table1_1" transform="translate(330,0)"><g class="table1_2_g"><text x="0" y="0" style="text-anchor: middle; font-size: 12px; font-weight: normal; font-family: Arial; font-style: normal;" transform="rotate(0,0,0)" dominant-baseline="middle" fill="black" class="table1_2">0.3</text></g></g><g class="table1_1" transform="translate(330,30)"><g class="table1_2_g"><text x="0" y="0" style="text-anchor: middle; font-size: 12px; font-weight: normal; font-family: Arial; font-style: normal;" transform="rotate(0,0,0)" dominant-baseline="middle" fill="black" class="table1_2">0.26</text></g></g><g transform="translate(0,0)" class="gridLines1"><g class="gridLines1_1" transform="translate(0,-15)"><line x1="-40" y1="0" x2="360" y2="0" stroke="#b4b1b1" stroke-width="1" stroke-dasharray="1,0" stroke-opacity="1" class="gridLines1_2"></line></g><g class="gridLines1_1" transform="translate(0,15)"><line x1="-40" y1="0" x2="360" y2="0" stroke="#b4b1b1" stroke-width="1" stroke-dasharray="1,0" stroke-opacity="1" class="gridLines1_2"></line></g><g class="gridLines1_1" transform="translate(0,45)"><line x1="-40" y1="0" x2="360" y2="0" stroke="#b4b1b1" stroke-width="1" stroke-dasharray="1,0" stroke-opacity="1" class="gridLines1_2"></line></g><g class="gridLines1_3" transform="translate(0,0)"><line x1="0" y1="-50" x2="0" y2="45" stroke="#b4b1b1" stroke-width="1" stroke-dasharray="1,0" stroke-opacity="1" class="gridLines1_4"></line></g><g class="gridLines1_3" transform="translate(60,0)"><line x1="0" y1="-50" x2="0" y2="45" stroke="#b4b1b1" stroke-width="1" stroke-dasharray="1,0" stroke-opacity="1" class="gridLines1_4"></line></g><g class="gridLines1_3" transform="translate(120,0)"><line x1="0" y1="-50" x2="0" y2="45" stroke="#b4b1b1" stroke-width="1" stroke-dasharray="1,0" stroke-opacity="1" class="gridLines1_4"></line></g><g class="gridLines1_3" transform="translate(180,0)"><line x1="0" y1="-50" x2="0" y2="45" stroke="#b4b1b1" stroke-width="1" stroke-dasharray="1,0" stroke-opacity="1" class="gridLines1_4"></line></g><g class="gridLines1_3" transform="translate(240,0)"><line x1="0" y1="-50" x2="0" y2="45" stroke="#b4b1b1" stroke-width="1" stroke-dasharray="1,0" stroke-opacity="1" class="gridLines1_4"></line></g><g class="gridLines1_3" transform="translate(300,0)"><line x1="0" y1="-50" x2="0" y2="45" stroke="#b4b1b1" stroke-width="1" stroke-dasharray="1,0" stroke-opacity="1" class="gridLines1_4"></line></g><g class="gridLines1_3" transform="translate(360,0)"><line x1="0" y1="-50" x2="0" y2="45" stroke="#b4b1b1" stroke-width="1" stroke-dasharray="1,0" stroke-opacity="1" class="gridLines1_4"></line></g></g><g transform="translate(-40,-5)" class="legend1"><g class="legend1_1_g"><text x="0" y="-10" style="text-anchor: start; font-size: 12px; font-weight: normal; font-family: Arial; font-style: normal;" transform="rotate(0,0,-10)" dominant-baseline="auto" fill="black" class="legend1_1"></text></g><g class="legend1_2" transform="translate(0,0)"><rect x="20" y="0" width="10" height="10" rx="0" ry="0" fill="#0073c2" stroke="" stroke-width="0" fill-opacity="1" transform="rotate(0,20,0)" stroke-opacity="1" class="legend1_3"></rect><g class="legend1_4_g"><text x="15" y="5" style="text-anchor: end; font-size: 12px; font-weight: normal; font-family: Arial; font-style: normal;" transform="rotate(0,15,5)" dominant-baseline="middle" fill="black" class="legend1_4">Aaaa</text></g></g><g class="legend1_2" transform="translate(0,30)"><rect x="20" y="0" width="10" height="10" rx="0" ry="0" fill="#efc000" stroke="" stroke-width="0" fill-opacity="1" transform="rotate(0,20,0)" stroke-opacity="1" class="legend1_3"></rect><g class="legend1_4_g"><text x="15" y="5" style="text-anchor: end; font-size: 12px; font-weight: normal; font-family: Arial; font-style: normal;" transform="rotate(0,15,5)" dominant-baseline="middle" fill="black" class="legend1_4">B</text></g></g></g></g></g></svg>
