<svg width="500" height="450" id="ngplotSvg"><defs class="gradient1_defs"><linearGradient id="gradient1_0" x1="0%" y1="0%" x2="100%" y2="0%" class="gradient1_0"><stop offset="0%" style="stop-color:#c42121;stop-opacity:1" class="gradient1_0s1"></stop><stop offset="100%" style="stop-color:#224cc9;stop-opacity:1" class="gradient1_0s2"></stop></linearGradient></defs><g transform="translate(96,84)" class="group4"><g class="group8" transform="translate(0,0)"><path d="M200,250L0,200L100,125L300,175" id="e_path1_0" fill="#eae6e6" stroke="red" stroke-width="0" datum="0,0,1,0,5,1,5,5,1,5,0,1" stroke-dasharray="1,0" fill-opacity="0.7" class="path1"></path></g><g class="group8" transform="translate(0,0)"><path d="M300,175L100,125L105,-25L305,25" id="e_path1_1" fill="#eae6e6" stroke="red" stroke-width="0" datum="5,0,1,5,5,1,5,5,31,5,0,31" stroke-dasharray="1,0" fill-opacity="0.7" class="path1"></path></g><g class="group8" transform="translate(0,0)"><path d="M0,200L5,50L105,-25L100,125" id="e_path1_2" fill="#eae6e6" stroke="red" stroke-width="0" datum="0,5,1,0,5,31,5,5,31,5,5,1" stroke-dasharray="1,0" fill-opacity="0.7" class="path1"></path></g><g class="group1" transform="translate(0,0)"><g class="group2" transform="translate(0,0)"><line x1="260" y1="165" x2="265" y2="15" stroke="black" stroke-width="0.1" stroke-dasharray="1,0" class="line1"></line></g><g class="group2" transform="translate(0,0)"><line x1="220" y1="155" x2="225" y2="5" stroke="black" stroke-width="0.1" stroke-dasharray="1,0" class="line1"></line></g><g class="group2" transform="translate(0,0)"><line x1="180" y1="145" x2="185" y2="-5" stroke="black" stroke-width="0.1" stroke-dasharray="1,0" class="line1"></line></g><g class="group2" transform="translate(0,0)"><line x1="140" y1="135" x2="145" y2="-15" stroke="black" stroke-width="0.1" stroke-dasharray="1,0" class="line1"></line></g></g><g class="group1" transform="translate(0,0)"><g class="group2" transform="translate(0,0)"><line x1="301" y1="145" x2="101" y2="95" stroke="black" stroke-width="0.1" stroke-dasharray="1,0" class="line1"></line></g><g class="group2" transform="translate(0,0)"><line x1="302" y1="115" x2="102" y2="65" stroke="black" stroke-width="0.1" stroke-dasharray="1,0" class="line1"></line></g><g class="group2" transform="translate(0,0)"><line x1="303" y1="85" x2="103" y2="35" stroke="black" stroke-width="0.1" stroke-dasharray="1,0" class="line1"></line></g><g class="group2" transform="translate(0,0)"><line x1="304" y1="55" x2="104" y2="5" stroke="black" stroke-width="0.1" stroke-dasharray="1,0" class="line1"></line></g></g><g class="group1" transform="translate(0,0)"><g class="group2" transform="translate(0,0)"><line x1="19.999999999999996" y1="185.0000000000001" x2="25" y2="35" stroke="black" stroke-width="0.1" stroke-dasharray="1,0" class="line1"></line></g><g class="group2" transform="translate(0,0)"><line x1="40" y1="170" x2="44.99999999999999" y2="20.000000000000227" stroke="black" stroke-width="0.1" stroke-dasharray="1,0" class="line1"></line></g><g class="group2" transform="translate(0,0)"><line x1="60" y1="155" x2="65" y2="5" stroke="black" stroke-width="0.1" stroke-dasharray="1,0" class="line1"></line></g><g class="group2" transform="translate(0,0)"><line x1="79.99999999999999" y1="140.00000000000045" x2="85" y2="-10" stroke="black" stroke-width="0.1" stroke-dasharray="1,0" class="line1"></line></g></g><g class="group1" transform="translate(0,0)"><g class="group2" transform="translate(0,0)"><line x1="0.9999999999999997" y1="170" x2="101" y2="95" stroke="black" stroke-width="0.1" stroke-dasharray="1,0" class="line1"></line></g><g class="group2" transform="translate(0,0)"><line x1="2.0000000000000004" y1="140" x2="102" y2="65" stroke="black" stroke-width="0.1" stroke-dasharray="1,0" class="line1"></line></g><g class="group2" transform="translate(0,0)"><line x1="3" y1="110" x2="103" y2="35" stroke="black" stroke-width="0.1" stroke-dasharray="1,0" class="line1"></line></g><g class="group2" transform="translate(0,0)"><line x1="4" y1="80" x2="104" y2="5" stroke="black" stroke-width="0.1" stroke-dasharray="1,0" class="line1"></line></g></g><g class="group1" transform="translate(0,0)"><g class="group2" transform="translate(0,0)"><line x1="220" y1="235" x2="19.999999999999996" y2="185.0000000000001" stroke="black" stroke-width="0.1" stroke-dasharray="1,0" class="line1"></line></g><g class="group2" transform="translate(0,0)"><line x1="240" y1="220" x2="40" y2="170" stroke="black" stroke-width="0.1" stroke-dasharray="1,0" class="line1"></line></g><g class="group2" transform="translate(0,0)"><line x1="260" y1="205" x2="60" y2="155" stroke="black" stroke-width="0.1" stroke-dasharray="1,0" class="line1"></line></g><g class="group2" transform="translate(0,0)"><line x1="280" y1="190" x2="79.99999999999999" y2="140.00000000000045" stroke="black" stroke-width="0.1" stroke-dasharray="1,0" class="line1"></line></g></g><g class="group1" transform="translate(0,0)"><g class="group2" transform="translate(0,0)"><line x1="160" y1="240" x2="260" y2="165" stroke="black" stroke-width="0.1" stroke-dasharray="1,0" class="line1"></line></g><g class="group2" transform="translate(0,0)"><line x1="120.00000000000001" y1="229.99999999999955" x2="220" y2="155" stroke="black" stroke-width="0.1" stroke-dasharray="1,0" class="line1"></line></g><g class="group2" transform="translate(0,0)"><line x1="79.99999999999999" y1="220.00000000000045" x2="180" y2="145" stroke="black" stroke-width="0.1" stroke-dasharray="1,0" class="line1"></line></g><g class="group2" transform="translate(0,0)"><line x1="39.99999999999999" y1="210.00000000000023" x2="140" y2="135" stroke="black" stroke-width="0.1" stroke-dasharray="1,0" class="line1"></line></g></g><g class="group3" transform="translate(0,0)"><path d="M180.667,205C180.667,205,197.861,79.167,204.667,70C211.472,60.833,215.083,147.5,221.5,150C227.917,152.5,237.639,104.583,243.167,85C248.694,65.417,251.611,26.667,254.667,32.5C257.722,38.333,261.5,120,261.5,120" id="e_path2_0" fill="none" stroke="#f8766d" stroke-width="1" datum="[object Object],[object Object],[object Object],[object Object],[object Object],[object Object]" stroke-dasharray="1,0" fill-opacity="1" class="path2"></path></g><g class="group3" transform="translate(0,0)"><path d="M100.667,185C100.667,185,117.861,59.167,124.667,50C131.472,40.833,135.083,127.5,141.5,130C147.917,132.5,157.639,84.583,163.167,65C168.694,45.417,171.611,6.667,174.667,12.5C177.722,18.333,181.5,100,181.5,100" id="e_path2_1" fill="none" stroke="#bb9d00" stroke-width="1" datum="[object Object],[object Object],[object Object],[object Object],[object Object],[object Object]" stroke-dasharray="1,0" fill-opacity="1" class="path2"></path></g><g class="group3" transform="translate(0,0)"><path d="M20.667,165C20.667,165,37.861,39.167,44.667,30C51.472,20.833,55.083,107.5,61.5,110C67.917,112.5,77.639,64.583,83.167,45C88.694,25.417,91.611,-13.333,94.667,-7.5C97.722,-1.667,101.5,80,101.5,80" id="e_path2_2" fill="none" stroke="#00b81f" stroke-width="1" datum="[object Object],[object Object],[object Object],[object Object],[object Object],[object Object]" stroke-dasharray="1,0" fill-opacity="1" class="path2"></path></g><g class="group5" transform="translate(0,0)"><g class="group6" transform="translate(234.55213750218005,238.63803437554452)"><g class="text2_g"><text x="0" y="0" style="text-anchor: start; font-size: 10px; font-weight: normal; font-family: Arial;" transform="rotate(0,0,0)" dominant-baseline="middle" fill="black" class="text2">1</text></g></g><g class="group6" transform="translate(254.55213750218005,223.63803437554452)"><g class="text2_g"><text x="0" y="0" style="text-anchor: start; font-size: 10px; font-weight: normal; font-family: Arial;" transform="rotate(0,0,0)" dominant-baseline="middle" fill="black" class="text2">2</text></g></g><g class="group6" transform="translate(274.55213750217996,208.63803437554634)"><g class="text2_g"><text x="0" y="0" style="text-anchor: start; font-size: 10px; font-weight: normal; font-family: Arial;" transform="rotate(0,0,0)" dominant-baseline="middle" fill="black" class="text2">3</text></g></g><g class="group6" transform="translate(294.55213750218,193.63803437554452)"><g class="text2_g"><text x="0" y="0" style="text-anchor: start; font-size: 10px; font-weight: normal; font-family: Arial;" transform="rotate(0,0,0)" dominant-baseline="middle" fill="black" class="text2">4</text></g></g></g><g class="group5" transform="translate(0,0)"><g class="group6" transform="translate(147.99999999999997,249)"><g class="text2_g"><text x="0" y="0" style="text-anchor: middle; font-size: 10px; font-weight: normal; font-family: Arial;" transform="rotate(0,0,0)" dominant-baseline="middle" fill="black" class="text2">1</text></g></g><g class="group6" transform="translate(107.99999999999997,239)"><g class="text2_g"><text x="0" y="0" style="text-anchor: middle; font-size: 10px; font-weight: normal; font-family: Arial;" transform="rotate(0,0,0)" dominant-baseline="middle" fill="black" class="text2">2</text></g></g><g class="group6" transform="translate(67.99999999999997,229)"><g class="text2_g"><text x="0" y="0" style="text-anchor: middle; font-size: 10px; font-weight: normal; font-family: Arial;" transform="rotate(0,0,0)" dominant-baseline="middle" fill="black" class="text2">3</text></g></g><g class="group6" transform="translate(27.999999999999968,219)"><g class="text2_g"><text x="0" y="0" style="text-anchor: middle; font-size: 10px; font-weight: normal; font-family: Arial;" transform="rotate(0,0,0)" dominant-baseline="middle" fill="black" class="text2">4</text></g></g></g><g class="group5" transform="translate(0,0)"><g class="group6" transform="translate(315.55213750218,148.63803437554452)"><g class="text2_g"><text x="0" y="0" style="text-anchor: start; font-size: 10px; font-weight: normal; font-family: Arial;" transform="rotate(0,0,0)" dominant-baseline="middle" fill="black" class="text2">7</text></g></g><g class="group6" transform="translate(316.55213750218,118.63803437554452)"><g class="text2_g"><text x="0" y="0" style="text-anchor: start; font-size: 10px; font-weight: normal; font-family: Arial;" transform="rotate(0,0,0)" dominant-baseline="middle" fill="black" class="text2">13</text></g></g><g class="group6" transform="translate(317.55213750218,88.63803437554452)"><g class="text2_g"><text x="0" y="0" style="text-anchor: start; font-size: 10px; font-weight: normal; font-family: Arial;" transform="rotate(0,0,0)" dominant-baseline="middle" fill="black" class="text2">19</text></g></g><g class="group6" transform="translate(318.55213750218,58.63803437554452)"><g class="text2_g"><text x="0" y="0" style="text-anchor: start; font-size: 10px; font-weight: normal; font-family: Arial;" transform="rotate(0,0,0)" dominant-baseline="middle" fill="black" class="text2">25</text></g></g></g><g class="group7" transform="translate(0,0)"><line x1="220" y1="235" x2="222.91042750043596" y2="235.7276068751089" stroke="black" stroke-width="0.3" stroke-dasharray="1,0" class="line2"></line></g><g class="group7" transform="translate(0,0)"><line x1="240" y1="220" x2="242.91042750043593" y2="220.7276068751098" stroke="black" stroke-width="0.3" stroke-dasharray="1,0" class="line2"></line></g><g class="group7" transform="translate(0,0)"><line x1="260" y1="205" x2="262.91042750043596" y2="205.7276068751089" stroke="black" stroke-width="0.3" stroke-dasharray="1,0" class="line2"></line></g><g class="group7" transform="translate(0,0)"><line x1="280" y1="190" x2="282.91042750043596" y2="190.7276068751089" stroke="black" stroke-width="0.3" stroke-dasharray="1,0" class="line2"></line></g><g class="group7" transform="translate(0,0)"><line x1="160" y1="240" x2="157.60000000000002" y2="241.79999999999927" stroke="black" stroke-width="0.3" stroke-dasharray="1,0" class="line2"></line></g><g class="group7" transform="translate(0,0)"><line x1="120.00000000000001" y1="229.99999999999955" x2="117.60000000000001" y2="231.79999999999973" stroke="black" stroke-width="0.3" stroke-dasharray="1,0" class="line2"></line></g><g class="group7" transform="translate(0,0)"><line x1="79.99999999999999" y1="220.00000000000045" x2="77.60000000000001" y2="221.79999999999973" stroke="black" stroke-width="0.3" stroke-dasharray="1,0" class="line2"></line></g><g class="group7" transform="translate(0,0)"><line x1="39.99999999999999" y1="210.00000000000023" x2="37.599999999999994" y2="211.79999999999995" stroke="black" stroke-width="0.3" stroke-dasharray="1,0" class="line2"></line></g><g class="group7" transform="translate(0,0)"><line x1="301" y1="145" x2="303.91042750043596" y2="145.7276068751089" stroke="black" stroke-width="0.3" stroke-dasharray="1,0" class="line2"></line></g><g class="group7" transform="translate(0,0)"><line x1="302" y1="115" x2="304.91042750043596" y2="115.7276068751089" stroke="black" stroke-width="0.3" stroke-dasharray="1,0" class="line2"></line></g><g class="group7" transform="translate(0,0)"><line x1="303" y1="85" x2="305.91042750043596" y2="85.7276068751089" stroke="black" stroke-width="0.3" stroke-dasharray="1,0" class="line2"></line></g><g class="group7" transform="translate(0,0)"><line x1="304" y1="55" x2="306.91042750043596" y2="55.727606875108904" stroke="black" stroke-width="0.3" stroke-dasharray="1,0" class="line2"></line></g><g class="group9" transform="translate(0,0)"><g class="text3_g"><text x="298.5071250072667" y="224.62678125181083" style="text-anchor: middle; font-size: 12px; font-weight: normal; font-family: Arial;" transform="rotate(-36.86989764584402,298.5071250072667,224.62678125181083)" dominant-baseline="middle" fill="black" class="text3">a</text></g><line x1="200" y1="250" x2="300" y2="175" stroke="black" stroke-width="0.5" stroke-dasharray="1,0" class="line3"></line></g><g class="group9" transform="translate(0,0)"><g class="text3_g"><text x="60" y="255" style="text-anchor: middle; font-size: 12px; font-weight: normal; font-family: Arial;" transform="rotate(14.036243467926482,60,255)" dominant-baseline="middle" fill="black" class="text3">b</text></g><line x1="200" y1="250" x2="0" y2="200" stroke="black" stroke-width="0.5" stroke-dasharray="1,0" class="line3"></line></g><g class="group9" transform="translate(0,0)"><g class="text3_g"><text x="351.0071250072665" y="112.1267812518181" style="text-anchor: middle; font-size: 12px; font-weight: normal; font-family: Arial;" transform="rotate(-88.09084756700362,351.0071250072665,112.1267812518181)" dominant-baseline="middle" fill="black" class="text3">c</text></g><line x1="300" y1="175" x2="305" y2="25" stroke="black" stroke-width="0.5" stroke-dasharray="1,0" class="line3"></line></g></g></svg>
