<svg width="300" height="230" id="ngplotSvg"><g transform="translate(250,200)" class="group1"><g class="group2" transform="translate(0,0)" width="150"><path d="M-195,-0.155A195,195,0,0,1,-179.263,-76.746L0,0Z" transform="translate(0,0)" id="e_arc1_0" fill="#66c2a5" stroke="black" stroke-width="0" stroke-dasharray="1,0" fill-opacity="1" stroke-opacity="1" class="arc1"></path><g class="text1_g"><text x="-181.21415355198377" y="-37.234802972998985" style="text-anchor: start; font-size: 12px; font-weight: normal; font-family: Arial; font-style: normal;" transform="rotate(11.571428571428555,-181.21415355198377,-37.234802972998985)" dominant-baseline="middle" fill="black" class="text1">name1</text></g><g class="text2_g"><text x="-200.80487285490094" y="-41.26018707818806" style="text-anchor: middle; font-size: 12px; font-weight: normal; font-family: Arial; font-style: normal;" transform="rotate(-78.42857142857144,-200.80487285490094,-41.26018707818806)" dominant-baseline="middle" fill="black" class="text2">90</text></g></g><g class="group2" transform="translate(0,0)" width="150"><path d="M-165.473,-70.842A180,180,0,0,1,-130.052,-124.445L0,0Z" transform="translate(0,0)" id="e_arc1_1" fill="#fc8d62" stroke="black" stroke-width="0" stroke-dasharray="1,0" fill-opacity="1" stroke-opacity="1" class="arc1"></path><g class="text1_g"><text x="-141.83055777060937" y="-93.72349162551421" style="text-anchor: start; font-size: 12px; font-weight: normal; font-family: Arial; font-style: normal;" transform="rotate(33.42857142857143,-141.83055777060937,-93.72349162551421)" dominant-baseline="middle" fill="black" class="text1">name2</text></g><g class="text2_g"><text x="-158.51650574362225" y="-104.74978475792764" style="text-anchor: middle; font-size: 12px; font-weight: normal; font-family: Arial; font-style: normal;" transform="rotate(-56.57142857142857,-158.51650574362225,-104.74978475792764)" dominant-baseline="middle" fill="black" class="text2">80</text></g></g><g class="group2" transform="translate(0,0)" width="150"><path d="M-119.214,-114.074A165,165,0,0,1,-78.152,-145.318L0,0Z" transform="translate(0,0)" id="e_arc1_2" fill="#8da0cb" stroke="black" stroke-width="0" stroke-dasharray="1,0" fill-opacity="1" stroke-opacity="1" class="arc1"></path><g class="text1_g"><text x="-93.85676698229922" y="-123.35277577594428" style="text-anchor: start; font-size: 12px; font-weight: normal; font-family: Arial; font-style: normal;" transform="rotate(52.71428571428572,-93.85676698229922,-123.35277577594428)" dominant-baseline="middle" fill="black" class="text1">name3</text></g><g class="text2_g"><text x="-105.96731756066042" y="-139.26926297284032" style="text-anchor: middle; font-size: 12px; font-weight: normal; font-family: Arial; font-style: normal;" transform="rotate(-37.28571428571428,-105.96731756066042,-139.26926297284032)" dominant-baseline="middle" fill="black" class="text2">70</text></g></g><g class="group2" transform="translate(0,0)" width="150"><path d="M-71.047,-132.107A150,150,0,0,1,-33.362,-146.243L0,0Z" transform="translate(0,0)" id="e_arc1_3" fill="#e78ac3" stroke="black" stroke-width="0" stroke-dasharray="1,0" fill-opacity="1" stroke-opacity="1" class="arc1"></path><g class="text1_g"><text x="-49.168616991394956" y="-131.08183361226494" style="text-anchor: start; font-size: 12px; font-weight: normal; font-family: Arial; font-style: normal;" transform="rotate(69.42857142857143,-49.168616991394956,-131.08183361226494)" dominant-baseline="middle" fill="black" class="text1">name4</text></g><g class="text2_g"><text x="-56.19270513302281" y="-149.80780984258848" style="text-anchor: middle; font-size: 12px; font-weight: normal; font-family: Arial; font-style: normal;" transform="rotate(-20.571428571428573,-56.19270513302281,-149.80780984258848)" dominant-baseline="middle" fill="black" class="text2">60</text></g></g><g class="group2" transform="translate(0,0)" width="150"><path d="M-30.025,-131.619A135,135,0,0,1,0,-135L0,0Z" transform="translate(0,0)" id="e_arc1_4" fill="#a6d854" stroke="black" stroke-width="0" stroke-dasharray="1,0" fill-opacity="1" stroke-opacity="1" class="arc1"></path><g class="text1_g"><text x="-13.988494136177163" y="-124.21482210993234" style="text-anchor: start; font-size: 12px; font-weight: normal; font-family: Arial; font-style: normal;" transform="rotate(83.57142857142857,-13.988494136177163,-124.21482210993234)" dominant-baseline="middle" fill="black" class="text1">name5</text></g><g class="text2_g"><text x="-16.22665319796551" y="-144.0891936475215" style="text-anchor: middle; font-size: 12px; font-weight: normal; font-family: Arial; font-style: normal;" transform="rotate(-6.428571428571431,-16.22665319796551,-144.0891936475215)" dominant-baseline="middle" fill="black" class="text2">50</text></g></g></g></svg>
