<svg width="450" height="450" id="ngplotSvg"><g class="group7" transform="translate(200,200)"><path d="M29.8,-147.01A150,150,0,0,1,147.093,29.389L0,0Z" transform="translate(0,0)" id="e_arc3_0" fill="#0073c2" stroke="black" stroke-width="0" stroke-dasharray="1,0" fill-opacity="0.2" class="arc3"></path><path d="M30.794,-151.91A155,155,0,0,1,151.996,30.369L151.015,30.173A154,154,0,0,0,30.595,-150.93Z" transform="translate(0,0)" id="e_arc4_0" fill="#0073c2" stroke="black" stroke-width="0" stroke-dasharray="1,0" fill-opacity="1" class="arc4"></path><g class="text4_g"><text x="137.39860377661455" y="-91.35985814479399" style="text-anchor: middle; font-size: 12px; font-weight: normal; font-family: Arial; font-style: normal;" transform="rotate(56.40764331210191,137.39860377661455,-91.35985814479399)" dominant-baseline="middle" fill="black" class="text4">Apoptosis</text></g></g><g class="group7" transform="translate(200,200)"><path d="M147.093,29.389A150,150,0,0,1,-83.006,124.94L0,0Z" transform="translate(0,0)" id="e_arc3_1" fill="#efc000" stroke="black" stroke-width="0" stroke-dasharray="1,0" fill-opacity="0.2" class="arc3"></path><path d="M151.996,30.369A155,155,0,0,1,-85.773,129.105L-85.219,128.272A154,154,0,0,0,151.015,30.173Z" transform="translate(0,0)" id="e_arc4_1" fill="#efc000" stroke="black" stroke-width="0" stroke-dasharray="1,0" fill-opacity="1" class="arc4"></path><g class="text4_g"><text x="63.278957322151534" y="152.38363941126136" style="text-anchor: middle; font-size: 12px; font-weight: normal; font-family: Arial; font-style: normal;" transform="rotate(157.52866242038218,63.278957322151534,152.38363941126136)" dominant-baseline="middle" fill="black" class="text4">Cell Cycle</text></g></g><g class="group7" transform="translate(200,200)"><path d="M-83.006,124.94A150,150,0,0,1,-30.269,-146.914L0,0Z" transform="translate(0,0)" id="e_arc3_2" fill="#cd534c" stroke="black" stroke-width="0" stroke-dasharray="1,0" fill-opacity="0.2" class="arc3"></path><path d="M-85.773,129.105A155,155,0,0,1,-31.277,-151.811L-31.076,-150.832A154,154,0,0,0,-85.219,128.272Z" transform="translate(0,0)" id="e_arc4_2" fill="#cd534c" stroke="black" stroke-width="0" stroke-dasharray="1,0" fill-opacity="1" class="arc4"></path><g class="text4_g"><text x="-161.98028641173792" y="-31.422711753942398" style="text-anchor: middle; font-size: 12px; font-weight: normal; font-family: Arial; font-style: normal;" transform="rotate(281.1210191082803,-161.98028641173792,-31.422711753942398)" dominant-baseline="middle" fill="black" class="text4">MAPK</text></g></g><g class="group8" transform="translate(200,200)"><circle cx="0" cy="0" r="50" stroke="black" stroke-width="0.3" stroke-dasharray="1,1" fill="none" fill-opacity="1" class="circle2"></circle></g><g class="group8" transform="translate(200,200)"><circle cx="0" cy="0" r="75" stroke="black" stroke-width="0.3" stroke-dasharray="1,1" fill="none" fill-opacity="1" class="circle2"></circle></g><g class="group8" transform="translate(200,200)"><circle cx="0" cy="0" r="100" stroke="black" stroke-width="0.3" stroke-dasharray="1,1" fill="none" fill-opacity="1" class="circle2"></circle></g><g class="group8" transform="translate(200,200)"><circle cx="0" cy="0" r="125" stroke="black" stroke-width="0.3" stroke-dasharray="1,1" fill="none" fill-opacity="1" class="circle2"></circle></g><g class="group8" transform="translate(200,200)"><circle cx="0" cy="0" r="150" stroke="black" stroke-width="0.3" stroke-dasharray="1,1" fill="none" fill-opacity="1" class="circle2"></circle></g><g transform="translate(200,200)" class="group5"><g transform="translate(0,0)" class="group2"><g class="group1" transform="translate(0,0)"><path d="M18.243,-74.808A77,77,0,0,1,40.431,-65.531L26.254,-42.553A50,50,0,0,0,11.846,-48.576Z" transform="translate(0,0)" id="e_arc2_0" fill="#0073c2" stroke="black" stroke-width="0" stroke-dasharray="1,0" fill-opacity="1" class="arc2"></path><g class="text2_g"><text x="57.859648922204556" y="-138.39169421103" style="text-anchor: end; font-size: 12px; font-weight: normal; font-family: Arial; font-style: normal;" transform="rotate(292.6891286871806,57.859648922204556,-138.39169421103)" dominant-baseline="middle" fill="black" class="text2">FAS</text></g></g><g class="group1" transform="translate(0,0)"><path d="M40.718,-55.705A69,69,0,0,1,55.916,-40.427L40.519,-29.295A50,50,0,0,0,29.506,-40.366Z" transform="translate(0,0)" id="e_arc2_1" fill="#0073c2" stroke="black" stroke-width="0" stroke-dasharray="1,0" fill-opacity="1" class="arc2"></path><g class="text2_g"><text x="106.34162430280385" y="-105.78969203396576" style="text-anchor: end; font-size: 12px; font-weight: normal; font-family: Arial; font-style: normal;" transform="rotate(315.1490742563089,106.34162430280385,-105.78969203396576)" dominant-baseline="middle" fill="black" class="text2">FASLG</text></g></g><g class="group1" transform="translate(0,0)"><path d="M128.494,-78.356A150.5,150.5,0,0,1,146.399,-34.896L48.637,-11.593A50,50,0,0,0,42.689,-26.032Z" transform="translate(0,0)" id="e_arc2_2" fill="#0073c2" stroke="black" stroke-width="0" stroke-dasharray="1,0" fill-opacity="1" class="arc2"></path><g class="text2_g"><text x="138.69090186120306" y="-57.138723655032244" style="text-anchor: end; font-size: 12px; font-weight: normal; font-family: Arial; font-style: normal;" transform="rotate(337.60901982543714,138.69090186120306,-57.138723655032244)" dominant-baseline="middle" fill="black" class="text2">TP53</text></g></g><g class="group1" transform="translate(0,0)"><path d="M83.479,-13.095A84.5,84.5,0,0,1,83.447,13.296L49.377,7.867A50,50,0,0,0,49.396,-7.748Z" transform="translate(0,0)" id="e_arc2_3" fill="#0073c2" stroke="black" stroke-width="0" stroke-dasharray="1,0" fill-opacity="1" class="arc2"></path><g class="text2_g"><text x="149.99989133782427" y="0.18055093716759815" style="text-anchor: end; font-size: 12px; font-weight: normal; font-family: Arial; font-style: normal;" transform="rotate(0.0689653945654527,149.99989133782427,0.18055093716759815)" dominant-baseline="middle" fill="black" class="text2">XIAP</text></g></g><g class="group1" transform="translate(0,0)"><path d="M85.066,20.493A87.5,87.5,0,0,1,74.596,45.735L42.626,26.135A50,50,0,0,0,48.609,11.71Z" transform="translate(0,0)" id="e_arc2_4" fill="#efc000" stroke="black" stroke-width="0" stroke-dasharray="1,0" fill-opacity="1" class="arc2"></path><g class="text2_g"><text x="138.55294741413005" y="57.47243480884823" style="text-anchor: end; font-size: 12px; font-weight: normal; font-family: Arial; font-style: normal;" transform="rotate(22.528910963693704,138.55294741413005,57.47243480884823)" dominant-baseline="middle" fill="black" class="text2">CDKN1A</text></g></g><g class="group1" transform="translate(0,0)"><path d="M108.402,78.772A134,134,0,0,1,78.815,108.371L29.408,40.437A50,50,0,0,0,40.448,29.393Z" transform="translate(0,0)" id="e_arc2_5" fill="#efc000" stroke="black" stroke-width="0" stroke-dasharray="1,0" fill-opacity="1" class="arc2"></path><g class="text2_g"><text x="106.08664397188461" y="106.04538637198037" style="text-anchor: end; font-size: 12px; font-weight: normal; font-family: Arial; font-style: normal;" transform="rotate(44.988856532821956,106.08664397188461,106.04538637198037)" dominant-baseline="middle" fill="black" class="text2">E2F1</text></g></g><g class="group1" transform="translate(0,0)"><path d="M52.825,86.084A101,101,0,0,1,23.693,98.182L11.729,48.605A50,50,0,0,0,26.151,42.616Z" transform="translate(0,0)" id="e_arc2_6" fill="#efc000" stroke="black" stroke-width="0" stroke-dasharray="1,0" fill-opacity="1" class="arc2"></path><g class="text2_g"><text x="57.526324838319574" y="138.53058128296487" style="text-anchor: end; font-size: 12px; font-weight: normal; font-family: Arial; font-style: normal;" transform="rotate(67.44880210195026,57.526324838319574,138.53058128296487)" dominant-baseline="middle" fill="black" class="text2">MYC</text></g></g><g class="group1" transform="translate(0,0)"><path d="M22.556,141.21A143,143,0,0,1,-22.106,141.281L-7.729,49.399A50,50,0,0,0,7.887,49.374Z" transform="translate(0,0)" id="e_arc2_7" fill="#efc000" stroke="black" stroke-width="0" stroke-dasharray="1,0" fill-opacity="1" class="arc2"></path><g class="text2_g"><text x="0.23889793747302424" y="149.99980975913093" style="text-anchor: end; font-size: 12px; font-weight: normal; font-family: Arial; font-style: normal;" transform="rotate(89.90874767107852,0.23889793747302424,149.99980975913093)" dominant-baseline="middle" fill="black" class="text2">PCNA</text></g></g><g class="group1" transform="translate(0,0)"><path d="M-22.339,93.879A96.5,96.5,0,0,1,-50.209,82.409L-26.015,42.699A50,50,0,0,0,-11.574,48.642Z" transform="translate(0,0)" id="e_arc2_8" fill="#efc000" stroke="black" stroke-width="0" stroke-dasharray="1,0" fill-opacity="1" class="arc2"></path><g class="text2_g"><text x="-57.08477129332538" y="138.71311721098598" style="text-anchor: start; font-size: 12px; font-weight: normal; font-family: Arial; font-style: normal;" transform="rotate(292.36869324020677,-57.08477129332538,138.71311721098598)" dominant-baseline="middle" fill="black" class="text2">RB1</text></g></g><g class="group1" transform="translate(0,0)"><path d="M-58.559,81.061A100,100,0,0,1,-80.709,59.043L-40.355,29.521A50,50,0,0,0,-29.279,40.53Z" transform="translate(0,0)" id="e_arc2_9" fill="#cd534c" stroke="black" stroke-width="0" stroke-dasharray="1,0" fill-opacity="1" class="arc2"></path><g class="text2_g"><text x="-105.74831922578532" y="106.38276637182078" style="text-anchor: start; font-size: 12px; font-weight: normal; font-family: Arial; font-style: normal;" transform="rotate(314.828638809335,-105.74831922578532,106.38276637182078)" dominant-baseline="middle" fill="black" class="text2">EGFR</text></g></g><g class="group1" transform="translate(0,0)"><path d="M-80.406,49.651A94.5,94.5,0,0,1,-91.801,22.425L-48.572,11.865A50,50,0,0,0,-42.543,26.27Z" transform="translate(0,0)" id="e_arc2_10" fill="#cd534c" stroke="black" stroke-width="0" stroke-dasharray="1,0" fill-opacity="1" class="arc2"></path><g class="text2_g"><text x="-138.36917747337307" y="57.913476198050724" style="text-anchor: start; font-size: 12px; font-weight: normal; font-family: Arial; font-style: normal;" transform="rotate(337.28858437846327,-138.36917747337307,57.913476198050724)" dominant-baseline="middle" fill="black" class="text2">GRB2</text></g></g><g class="group1" transform="translate(0,0)"><path d="M-104.626,17.012A106,106,0,0,1,-104.771,-16.093L-49.42,-7.591A50,50,0,0,0,-49.352,8.025Z" transform="translate(0,0)" id="e_arc2_11" fill="#cd534c" stroke="black" stroke-width="0" stroke-dasharray="1,0" fill-opacity="1" class="arc2"></path><g class="text2_g"><text x="-149.9985552661579" y="0.658344944065929" style="text-anchor: start; font-size: 12px; font-weight: normal; font-family: Arial; font-style: normal;" transform="rotate(359.7485299475916,-149.9985552661579,0.658344944065929)" dominant-baseline="middle" fill="black" class="text2">HRAS</text></g></g><g class="group1" transform="translate(0,0)"><path d="M-114.384,-26.88A117.5,117.5,0,0,1,-100.513,-60.855L-42.772,-25.896A50,50,0,0,0,-48.674,-11.438Z" transform="translate(0,0)" id="e_arc2_12" fill="#cd534c" stroke="black" stroke-width="0" stroke-dasharray="1,0" fill-opacity="1" class="arc2"></path><g class="text2_g"><text x="-138.8722023491598" y="-56.69666140694716" style="text-anchor: start; font-size: 12px; font-weight: normal; font-family: Arial; font-style: normal;" transform="rotate(382.2084755167199,-138.8722023491598,-56.69666140694716)" dominant-baseline="middle" fill="black" class="text2">MAP2K1</text></g></g><g class="group1" transform="translate(0,0)"><path d="M-101.53,-72.915A125,125,0,0,1,-74.085,-100.68L-29.634,-40.272A50,50,0,0,0,-40.612,-29.166Z" transform="translate(0,0)" id="e_arc2_13" fill="#cd534c" stroke="black" stroke-width="0" stroke-dasharray="1,0" fill-opacity="1" class="arc2"></path><g class="text2_g"><text x="-106.67805691826318" y="-105.45042518711719" style="text-anchor: start; font-size: 12px; font-weight: normal; font-family: Arial; font-style: normal;" transform="rotate(404.6684210858482,-106.67805691826318,-105.45042518711719)" dominant-baseline="middle" fill="black" class="text2">MAPK1</text></g></g><g class="group1" transform="translate(0,0)"><path d="M-65.445,-105.323A124,124,0,0,1,-29.762,-120.375L-12.001,-48.538A50,50,0,0,0,-26.389,-42.469Z" transform="translate(0,0)" id="e_arc2_14" fill="#cd534c" stroke="black" stroke-width="0" stroke-dasharray="1,0" fill-opacity="1" class="arc2"></path><g class="text2_g"><text x="-58.30017470691916" y="-138.20669169451494" style="text-anchor: start; font-size: 12px; font-weight: normal; font-family: Arial; font-style: normal;" transform="rotate(427.1283666549764,-58.30017470691916,-138.20669169451494)" dominant-baseline="middle" fill="black" class="text2">MAPK3</text></g></g><circle cx="0" cy="0" r="50" stroke="black" stroke-width="0.2" stroke-dasharray="1,0" fill="white" fill-opacity="0.5" class="circle1"></circle><g class="text3_g"><text x="0" y="0" style="text-anchor: middle; font-size: 12px; font-weight: normal; font-family: Arial; font-style: normal;" transform="rotate(0,0,0)" dominant-baseline="middle" fill="black" class="text3">value</text></g></g><g transform="translate(0,0)" class="group3"><g class="group4" transform="translate(0,-50)"><g class="text1_g"><text x="0" y="0" style="text-anchor: middle; font-size: 10px; font-weight: normal; font-family: Arial; font-style: normal;" transform="rotate(0,0,0)" dominant-baseline="middle" fill="black" class="text1">0</text></g></g><g class="group4" transform="translate(0,-75)"><g class="text1_g"><text x="0" y="0" style="text-anchor: middle; font-size: 10px; font-weight: normal; font-family: Arial; font-style: normal;" transform="rotate(0,0,0)" dominant-baseline="middle" fill="black" class="text1">5</text></g></g><g class="group4" transform="translate(0,-100)"><g class="text1_g"><text x="0" y="0" style="text-anchor: middle; font-size: 10px; font-weight: normal; font-family: Arial; font-style: normal;" transform="rotate(0,0,0)" dominant-baseline="middle" fill="black" class="text1">10</text></g></g><g class="group4" transform="translate(0,-125)"><g class="text1_g"><text x="0" y="0" style="text-anchor: middle; font-size: 10px; font-weight: normal; font-family: Arial; font-style: normal;" transform="rotate(0,0,0)" dominant-baseline="middle" fill="black" class="text1">15</text></g></g><g class="group4" transform="translate(0,-150)"><g class="text1_g"><text x="0" y="0" style="text-anchor: middle; font-size: 10px; font-weight: normal; font-family: Arial; font-style: normal;" transform="rotate(0,0,0)" dominant-baseline="middle" fill="black" class="text1">20</text></g></g></g></g></svg>
