<svg width="500" height="450" id="ngplotSvg"><g transform="translate(250,80)" class="group1"><g class="group2" transform="translate(0,10)"><rect x="0" y="-8.3125" width="60" height="16.625" rx="0" ry="0" fill="#2c7bb6" stroke="black" stroke-width="1" fill-opacity="1" class="rect1"></rect><g class="text1_g"><text x="-4" y="0" style="text-anchor: end; font-size: 12px; font-weight: normal; font-family: Arial;" transform="rotate(0,-4,0)" dominant-baseline="middle" fill="black" class="text1">name1</text></g></g><g class="group2" transform="translate(0,33.75)"><rect x="0" y="-8.3125" width="120" height="16.625" rx="0" ry="0" fill="#2c7bb6" stroke="black" stroke-width="1" fill-opacity="1" class="rect1"></rect><g class="text1_g"><text x="-4" y="0" style="text-anchor: end; font-size: 12px; font-weight: normal; font-family: Arial;" transform="rotate(0,-4,0)" dominant-baseline="middle" fill="black" class="text1">name2</text></g></g><g class="group2" transform="translate(0,57.5)"><rect x="0" y="-8.3125" width="140" height="16.625" rx="0" ry="0" fill="#2c7bb6" stroke="black" stroke-width="1" fill-opacity="1" class="rect1"></rect><g class="text1_g"><text x="-4" y="0" style="text-anchor: end; font-size: 12px; font-weight: normal; font-family: Arial;" transform="rotate(0,-4,0)" dominant-baseline="middle" fill="black" class="text1">name3</text></g></g><g class="group2" transform="translate(0,81.25)"><rect x="0" y="-8.3125" width="150" height="16.625" rx="0" ry="0" fill="#2c7bb6" stroke="black" stroke-width="1" fill-opacity="1" class="rect1"></rect><g class="text1_g"><text x="-4" y="0" style="text-anchor: end; font-size: 12px; font-weight: normal; font-family: Arial;" transform="rotate(0,-4,0)" dominant-baseline="middle" fill="black" class="text1">name4</text></g></g><g class="group3" transform="translate(0,105)"><rect x="-18" y="-8.3125" width="18" height="16.625" rx="0" ry="0" fill="#d7191c" stroke="black" stroke-width="1" fill-opacity="1" class="rect2"></rect><g class="text2_g"><text x="4" y="0" style="text-anchor: start; font-size: 12px; font-weight: normal; font-family: Arial;" transform="rotate(0,4,0)" dominant-baseline="middle" fill="black" class="text2">name5</text></g></g><g class="group3" transform="translate(0,128.75)"><rect x="-120" y="-8.3125" width="120" height="16.625" rx="0" ry="0" fill="#d7191c" stroke="black" stroke-width="1" fill-opacity="1" class="rect2"></rect><g class="text2_g"><text x="4" y="0" style="text-anchor: start; font-size: 12px; font-weight: normal; font-family: Arial;" transform="rotate(0,4,0)" dominant-baseline="middle" fill="black" class="text2">name6</text></g></g><g class="group3" transform="translate(0,152.5)"><rect x="-140" y="-8.3125" width="140" height="16.625" rx="0" ry="0" fill="#d7191c" stroke="black" stroke-width="1" fill-opacity="1" class="rect2"></rect><g class="text2_g"><text x="4" y="0" style="text-anchor: start; font-size: 12px; font-weight: normal; font-family: Arial;" transform="rotate(0,4,0)" dominant-baseline="middle" fill="black" class="text2">name7</text></g></g><g class="group3" transform="translate(0,176.25)"><rect x="-140" y="-8.3125" width="140" height="16.625" rx="0" ry="0" fill="#d7191c" stroke="black" stroke-width="1" fill-opacity="1" class="rect2"></rect><g class="text2_g"><text x="4" y="0" style="text-anchor: start; font-size: 12px; font-weight: normal; font-family: Arial;" transform="rotate(0,4,0)" dominant-baseline="middle" fill="black" class="text2">name8</text></g></g><g transform="translate(170,0)" class="legend1"><g class="legend1_1_g"><text x="0" y="-10" style="text-anchor: start; font-size: 12px; font-weight: normal; font-family: Arial;" transform="rotate(0,0,-10)" dominant-baseline="auto" fill="black" class="legend1_1">Legend</text></g><g class="legend1_2" transform="translate(0,0)"><rect x="0" y="0" width="10" height="10" rx="0" ry="0" fill="#2c7bb6" stroke="" stroke-width="" fill-opacity="1" class="legend1_3"></rect><g class="legend1_4_g"><text x="14" y="5" style="text-anchor: start; font-size: 12px; font-weight: normal; font-family: Arial;" transform="rotate(0,14,5)" dominant-baseline="middle" fill="black" class="legend1_4">a</text></g></g><g class="legend1_2" transform="translate(0,13)"><rect x="0" y="0" width="10" height="10" rx="0" ry="0" fill="#d7191c" stroke="" stroke-width="" fill-opacity="1" class="legend1_3"></rect><g class="legend1_4_g"><text x="14" y="5" style="text-anchor: start; font-size: 12px; font-weight: normal; font-family: Arial;" transform="rotate(0,14,5)" dominant-baseline="middle" fill="black" class="legend1_4">b</text></g></g></g></g></svg>
