<svg width="450" height="450" id="ngplotSvg"><g transform="translate(0,0)" class="group1"><g transform="translate(100,230)" class="bSlS2Axis1"><g transform="translate(0,0)" class="bSlS2Axis1_1"><line x1="0" y1="0" x2="0" y2="-180" stroke="black" stroke-width="0.5" stroke-dasharray="1,0" class="bSlS2Axis1_2"></line><g class="bSlS2Axis1_3" transform="translate(0,-50.625)"><line x1="0" y1="0" x2="-3" y2="0" stroke="black" stroke-width="0.5" stroke-dasharray="1,0" class="bSlS2Axis1_4"></line><g class="bSlS2Axis1_5_g"><text x="-7" y="0" style="text-anchor: end; font-size: 12px; font-weight: normal; font-family: Arial;" transform="rotate(0,-7,0)" dominant-baseline="middle" fill="black" class="bSlS2Axis1_5">Male</text></g></g><g class="bSlS2Axis1_3" transform="translate(0,-129.375)"><line x1="0" y1="0" x2="-3" y2="0" stroke="black" stroke-width="0.5" stroke-dasharray="1,0" class="bSlS2Axis1_4"></line><g class="bSlS2Axis1_5_g"><text x="-7" y="0" style="text-anchor: end; font-size: 12px; font-weight: normal; font-family: Arial;" transform="rotate(0,-7,0)" dominant-baseline="middle" fill="black" class="bSlS2Axis1_5">Female</text></g></g></g><g transform="translate(0,0)" class="bSlS2Axis1_6"><line x1="0" y1="0" x2="200" y2="0" stroke="black" stroke-width="0.5" stroke-dasharray="1,0" class="bSlS2Axis1_7"></line><g class="bSlS2Axis1_8" transform="translate(12.5,0)"><line x1="0" y1="0" x2="0" y2="3" stroke="black" stroke-width="0.5" stroke-dasharray="1,0" class="bSlS2Axis1_9"></line><g class="bSlS2Axis1_10_g"><text x="0" y="8" style="text-anchor: end; font-size: 12px; font-weight: normal; font-family: Arial;" transform="rotate(-45,0,8)" dominant-baseline="middle" fill="black" class="bSlS2Axis1_10">yangJiaZ</text></g></g><g class="bSlS2Axis1_8" transform="translate(37.5,0)"><line x1="0" y1="0" x2="0" y2="3" stroke="black" stroke-width="0.5" stroke-dasharray="1,0" class="bSlS2Axis1_9"></line><g class="bSlS2Axis1_10_g"><text x="0" y="8" style="text-anchor: end; font-size: 12px; font-weight: normal; font-family: Arial;" transform="rotate(-45,0,8)" dominant-baseline="middle" fill="black" class="bSlS2Axis1_10">ganTang</text></g></g><g class="bSlS2Axis1_8" transform="translate(62.5,0)"><line x1="0" y1="0" x2="0" y2="3" stroke="black" stroke-width="0.5" stroke-dasharray="1,0" class="bSlS2Axis1_9"></line><g class="bSlS2Axis1_10_g"><text x="0" y="8" style="text-anchor: end; font-size: 12px; font-weight: normal; font-family: Arial;" transform="rotate(-45,0,8)" dominant-baseline="middle" fill="black" class="bSlS2Axis1_10">taQian</text></g></g><g class="bSlS2Axis1_8" transform="translate(87.5,0)"><line x1="0" y1="0" x2="0" y2="3" stroke="black" stroke-width="0.5" stroke-dasharray="1,0" class="bSlS2Axis1_9"></line><g class="bSlS2Axis1_10_g"><text x="0" y="8" style="text-anchor: end; font-size: 12px; font-weight: normal; font-family: Arial;" transform="rotate(-45,0,8)" dominant-baseline="middle" fill="black" class="bSlS2Axis1_10">baiDu</text></g></g><g class="bSlS2Axis1_8" transform="translate(112.5,0)"><line x1="0" y1="0" x2="0" y2="3" stroke="black" stroke-width="0.5" stroke-dasharray="1,0" class="bSlS2Axis1_9"></line><g class="bSlS2Axis1_10_g"><text x="0" y="8" style="text-anchor: end; font-size: 12px; font-weight: normal; font-family: Arial;" transform="rotate(-45,0,8)" dominant-baseline="middle" fill="black" class="bSlS2Axis1_10">jianTou</text></g></g><g class="bSlS2Axis1_8" transform="translate(137.5,0)"><line x1="0" y1="0" x2="0" y2="3" stroke="black" stroke-width="0.5" stroke-dasharray="1,0" class="bSlS2Axis1_9"></line><g class="bSlS2Axis1_10_g"><text x="0" y="8" style="text-anchor: end; font-size: 12px; font-weight: normal; font-family: Arial;" transform="rotate(-45,0,8)" dominant-baseline="middle" fill="black" class="bSlS2Axis1_10">zhouShang</text></g></g><g class="bSlS2Axis1_8" transform="translate(162.5,0)"><line x1="0" y1="0" x2="0" y2="3" stroke="black" stroke-width="0.5" stroke-dasharray="1,0" class="bSlS2Axis1_9"></line><g class="bSlS2Axis1_10_g"><text x="0" y="8" style="text-anchor: end; font-size: 12px; font-weight: normal; font-family: Arial;" transform="rotate(-45,0,8)" dominant-baseline="middle" fill="black" class="bSlS2Axis1_10">liLin</text></g></g><g class="bSlS2Axis1_8" transform="translate(187.5,0)"><line x1="0" y1="0" x2="0" y2="3" stroke="black" stroke-width="0.5" stroke-dasharray="1,0" class="bSlS2Axis1_9"></line><g class="bSlS2Axis1_10_g"><text x="0" y="8" style="text-anchor: end; font-size: 12px; font-weight: normal; font-family: Arial;" transform="rotate(-45,0,8)" dominant-baseline="middle" fill="black" class="bSlS2Axis1_10">duiFan</text></g></g></g><g class="group2" transform="translate(12.5,-50.625)"><g class="pie1" transform="translate(0,0)"><path d="M0,-12.5A12.5,12.5,0,0,1,9.738,7.838L0,0Z" transform="translate(0,0)" id="e_pie1_1_0" fill="#0073c2" stroke="white" stroke-width="1" stroke-dasharray="1,0" fill-opacity="1" class="pie1_1"></path></g><g class="pie1" transform="translate(0,0)"><path d="M9.738,7.838A12.5,12.5,0,0,1,-10.912,6.098L0,0Z" transform="translate(0,0)" id="e_pie1_1_1" fill="#efc000" stroke="white" stroke-width="1" stroke-dasharray="1,0" fill-opacity="1" class="pie1_1"></path></g><g class="pie1" transform="translate(0,0)"><path d="M-10.912,6.098A12.5,12.5,0,0,1,0,-12.5L0,0Z" transform="translate(0,0)" id="e_pie1_1_2" fill="#868686" stroke="white" stroke-width="1" stroke-dasharray="1,0" fill-opacity="1" class="pie1_1"></path></g></g><g class="group2" transform="translate(37.5,-50.625)"><g class="pie1" transform="translate(0,0)"><path d="M0,-12.5A12.5,12.5,0,0,1,12.298,2.236L0,0Z" transform="translate(0,0)" id="e_pie1_1_0" fill="#0073c2" stroke="white" stroke-width="1" stroke-dasharray="1,0" fill-opacity="1" class="pie1_1"></path></g><g class="pie1" transform="translate(0,0)"><path d="M12.298,2.236A12.5,12.5,0,0,1,-10.06,7.42L0,0Z" transform="translate(0,0)" id="e_pie1_1_1" fill="#efc000" stroke="white" stroke-width="1" stroke-dasharray="1,0" fill-opacity="1" class="pie1_1"></path></g><g class="pie1" transform="translate(0,0)"><path d="M-10.06,7.42A12.5,12.5,0,0,1,0,-12.5L0,0Z" transform="translate(0,0)" id="e_pie1_1_2" fill="#868686" stroke="white" stroke-width="1" stroke-dasharray="1,0" fill-opacity="1" class="pie1_1"></path></g></g><g class="group2" transform="translate(62.5,-50.625)"><g class="pie1" transform="translate(0,0)"><path d="M0,-12.5A12.5,12.5,0,0,1,11.992,3.528L0,0Z" transform="translate(0,0)" id="e_pie1_1_0" fill="#0073c2" stroke="white" stroke-width="1" stroke-dasharray="1,0" fill-opacity="1" class="pie1_1"></path></g><g class="pie1" transform="translate(0,0)"><path d="M11.992,3.528A12.5,12.5,0,0,1,-10.089,7.38L0,0Z" transform="translate(0,0)" id="e_pie1_1_1" fill="#efc000" stroke="white" stroke-width="1" stroke-dasharray="1,0" fill-opacity="1" class="pie1_1"></path></g><g class="pie1" transform="translate(0,0)"><path d="M-10.089,7.38A12.5,12.5,0,0,1,0,-12.5L0,0Z" transform="translate(0,0)" id="e_pie1_1_2" fill="#868686" stroke="white" stroke-width="1" stroke-dasharray="1,0" fill-opacity="1" class="pie1_1"></path></g></g><g class="group2" transform="translate(87.5,-50.625)"><g class="pie1" transform="translate(0,0)"><path d="M0,-12.5A12.5,12.5,0,0,1,8.098,9.522L0,0Z" transform="translate(0,0)" id="e_pie1_1_0" fill="#0073c2" stroke="white" stroke-width="1" stroke-dasharray="1,0" fill-opacity="1" class="pie1_1"></path></g><g class="pie1" transform="translate(0,0)"><path d="M8.098,9.522A12.5,12.5,0,0,1,-11.066,5.814L0,0Z" transform="translate(0,0)" id="e_pie1_1_1" fill="#efc000" stroke="white" stroke-width="1" stroke-dasharray="1,0" fill-opacity="1" class="pie1_1"></path></g><g class="pie1" transform="translate(0,0)"><path d="M-11.066,5.814A12.5,12.5,0,0,1,0,-12.5L0,0Z" transform="translate(0,0)" id="e_pie1_1_2" fill="#868686" stroke="white" stroke-width="1" stroke-dasharray="1,0" fill-opacity="1" class="pie1_1"></path></g></g><g class="group2" transform="translate(112.5,-50.625)"><g class="pie1" transform="translate(0,0)"><path d="M0,-12.5A12.5,12.5,0,0,1,9.383,8.258L0,0Z" transform="translate(0,0)" id="e_pie1_1_0" fill="#0073c2" stroke="white" stroke-width="1" stroke-dasharray="1,0" fill-opacity="1" class="pie1_1"></path></g><g class="pie1" transform="translate(0,0)"><path d="M9.383,8.258A12.5,12.5,0,0,1,-9.89,7.645L0,0Z" transform="translate(0,0)" id="e_pie1_1_1" fill="#efc000" stroke="white" stroke-width="1" stroke-dasharray="1,0" fill-opacity="1" class="pie1_1"></path></g><g class="pie1" transform="translate(0,0)"><path d="M-9.89,7.645A12.5,12.5,0,0,1,0,-12.5L0,0Z" transform="translate(0,0)" id="e_pie1_1_2" fill="#868686" stroke="white" stroke-width="1" stroke-dasharray="1,0" fill-opacity="1" class="pie1_1"></path></g></g><g class="group2" transform="translate(137.5,-50.625)"><g class="pie1" transform="translate(0,0)"><path d="M0,-12.5A12.5,12.5,0,0,1,8.492,9.173L0,0Z" transform="translate(0,0)" id="e_pie1_1_0" fill="#0073c2" stroke="white" stroke-width="1" stroke-dasharray="1,0" fill-opacity="1" class="pie1_1"></path></g><g class="pie1" transform="translate(0,0)"><path d="M8.492,9.173A12.5,12.5,0,0,1,-11.527,4.835L0,0Z" transform="translate(0,0)" id="e_pie1_1_1" fill="#efc000" stroke="white" stroke-width="1" stroke-dasharray="1,0" fill-opacity="1" class="pie1_1"></path></g><g class="pie1" transform="translate(0,0)"><path d="M-11.527,4.835A12.5,12.5,0,0,1,0,-12.5L0,0Z" transform="translate(0,0)" id="e_pie1_1_2" fill="#868686" stroke="white" stroke-width="1" stroke-dasharray="1,0" fill-opacity="1" class="pie1_1"></path></g></g><g class="group2" transform="translate(162.5,-50.625)"><g class="pie1" transform="translate(0,0)"><path d="M0,-12.5A12.5,12.5,0,0,1,11.055,5.833L0,0Z" transform="translate(0,0)" id="e_pie1_1_0" fill="#0073c2" stroke="white" stroke-width="1" stroke-dasharray="1,0" fill-opacity="1" class="pie1_1"></path></g><g class="pie1" transform="translate(0,0)"><path d="M11.055,5.833A12.5,12.5,0,0,1,-12.466,0.927L0,0Z" transform="translate(0,0)" id="e_pie1_1_1" fill="#efc000" stroke="white" stroke-width="1" stroke-dasharray="1,0" fill-opacity="1" class="pie1_1"></path></g><g class="pie1" transform="translate(0,0)"><path d="M-12.466,0.927A12.5,12.5,0,0,1,0,-12.5L0,0Z" transform="translate(0,0)" id="e_pie1_1_2" fill="#868686" stroke="white" stroke-width="1" stroke-dasharray="1,0" fill-opacity="1" class="pie1_1"></path></g></g><g class="group2" transform="translate(187.5,-50.625)"><g class="pie1" transform="translate(0,0)"><path d="M0,-12.5A12.5,12.5,0,0,1,12.055,3.306L0,0Z" transform="translate(0,0)" id="e_pie1_1_0" fill="#0073c2" stroke="white" stroke-width="1" stroke-dasharray="1,0" fill-opacity="1" class="pie1_1"></path></g><g class="pie1" transform="translate(0,0)"><path d="M12.055,3.306A12.5,12.5,0,0,1,-8.772,8.906L0,0Z" transform="translate(0,0)" id="e_pie1_1_1" fill="#efc000" stroke="white" stroke-width="1" stroke-dasharray="1,0" fill-opacity="1" class="pie1_1"></path></g><g class="pie1" transform="translate(0,0)"><path d="M-8.772,8.906A12.5,12.5,0,0,1,0,-12.5L0,0Z" transform="translate(0,0)" id="e_pie1_1_2" fill="#868686" stroke="white" stroke-width="1" stroke-dasharray="1,0" fill-opacity="1" class="pie1_1"></path></g></g><g class="group2" transform="translate(12.5,-50.625)"><g class="pie1" transform="translate(0,0)"><path d="M0,-12.5A12.5,12.5,0,0,1,11.966,3.613L0,0Z" transform="translate(0,0)" id="e_pie1_1_0" fill="#0073c2" stroke="white" stroke-width="1" stroke-dasharray="1,0" fill-opacity="1" class="pie1_1"></path></g><g class="pie1" transform="translate(0,0)"><path d="M11.966,3.613A12.5,12.5,0,0,1,-9.289,8.364L0,0Z" transform="translate(0,0)" id="e_pie1_1_1" fill="#efc000" stroke="white" stroke-width="1" stroke-dasharray="1,0" fill-opacity="1" class="pie1_1"></path></g><g class="pie1" transform="translate(0,0)"><path d="M-9.289,8.364A12.5,12.5,0,0,1,0,-12.5L0,0Z" transform="translate(0,0)" id="e_pie1_1_2" fill="#868686" stroke="white" stroke-width="1" stroke-dasharray="1,0" fill-opacity="1" class="pie1_1"></path></g></g><g class="group2" transform="translate(37.5,-50.625)"><g class="pie1" transform="translate(0,0)"><path d="M0,-12.5A12.5,12.5,0,0,1,12.074,3.235L0,0Z" transform="translate(0,0)" id="e_pie1_1_0" fill="#0073c2" stroke="white" stroke-width="1" stroke-dasharray="1,0" fill-opacity="1" class="pie1_1"></path></g><g class="pie1" transform="translate(0,0)"><path d="M12.074,3.235A12.5,12.5,0,0,1,-8.644,9.03L0,0Z" transform="translate(0,0)" id="e_pie1_1_1" fill="#efc000" stroke="white" stroke-width="1" stroke-dasharray="1,0" fill-opacity="1" class="pie1_1"></path></g><g class="pie1" transform="translate(0,0)"><path d="M-8.644,9.03A12.5,12.5,0,0,1,0,-12.5L0,0Z" transform="translate(0,0)" id="e_pie1_1_2" fill="#868686" stroke="white" stroke-width="1" stroke-dasharray="1,0" fill-opacity="1" class="pie1_1"></path></g></g><g class="group2" transform="translate(62.5,-50.625)"><g class="pie1" transform="translate(0,0)"><path d="M0,-12.5A12.5,12.5,0,0,1,9.652,7.943L0,0Z" transform="translate(0,0)" id="e_pie1_1_0" fill="#0073c2" stroke="white" stroke-width="1" stroke-dasharray="1,0" fill-opacity="1" class="pie1_1"></path></g><g class="pie1" transform="translate(0,0)"><path d="M9.652,7.943A12.5,12.5,0,0,1,-11,5.937L0,0Z" transform="translate(0,0)" id="e_pie1_1_1" fill="#efc000" stroke="white" stroke-width="1" stroke-dasharray="1,0" fill-opacity="1" class="pie1_1"></path></g><g class="pie1" transform="translate(0,0)"><path d="M-11,5.937A12.5,12.5,0,0,1,0,-12.5L0,0Z" transform="translate(0,0)" id="e_pie1_1_2" fill="#868686" stroke="white" stroke-width="1" stroke-dasharray="1,0" fill-opacity="1" class="pie1_1"></path></g></g><g class="group2" transform="translate(87.5,-50.625)"><g class="pie1" transform="translate(0,0)"><path d="M0,-12.5A12.5,12.5,0,0,1,11.659,4.508L0,0Z" transform="translate(0,0)" id="e_pie1_1_0" fill="#0073c2" stroke="white" stroke-width="1" stroke-dasharray="1,0" fill-opacity="1" class="pie1_1"></path></g><g class="pie1" transform="translate(0,0)"><path d="M11.659,4.508A12.5,12.5,0,0,1,-10.599,6.626L0,0Z" transform="translate(0,0)" id="e_pie1_1_1" fill="#efc000" stroke="white" stroke-width="1" stroke-dasharray="1,0" fill-opacity="1" class="pie1_1"></path></g><g class="pie1" transform="translate(0,0)"><path d="M-10.599,6.626A12.5,12.5,0,0,1,0,-12.5L0,0Z" transform="translate(0,0)" id="e_pie1_1_2" fill="#868686" stroke="white" stroke-width="1" stroke-dasharray="1,0" fill-opacity="1" class="pie1_1"></path></g></g><g class="group2" transform="translate(112.5,-50.625)"><g class="pie1" transform="translate(0,0)"><path d="M0,-12.5A12.5,12.5,0,0,1,9.057,8.615L0,0Z" transform="translate(0,0)" id="e_pie1_1_0" fill="#0073c2" stroke="white" stroke-width="1" stroke-dasharray="1,0" fill-opacity="1" class="pie1_1"></path></g><g class="pie1" transform="translate(0,0)"><path d="M9.057,8.615A12.5,12.5,0,0,1,-12.5,0.069L0,0Z" transform="translate(0,0)" id="e_pie1_1_1" fill="#efc000" stroke="white" stroke-width="1" stroke-dasharray="1,0" fill-opacity="1" class="pie1_1"></path></g><g class="pie1" transform="translate(0,0)"><path d="M-12.5,0.069A12.5,12.5,0,0,1,0,-12.5L0,0Z" transform="translate(0,0)" id="e_pie1_1_2" fill="#868686" stroke="white" stroke-width="1" stroke-dasharray="1,0" fill-opacity="1" class="pie1_1"></path></g></g><g class="group2" transform="translate(137.5,-50.625)"><g class="pie1" transform="translate(0,0)"><path d="M0,-12.5A12.5,12.5,0,0,1,12.457,1.032L0,0Z" transform="translate(0,0)" id="e_pie1_1_0" fill="#0073c2" stroke="white" stroke-width="1" stroke-dasharray="1,0" fill-opacity="1" class="pie1_1"></path></g><g class="pie1" transform="translate(0,0)"><path d="M12.457,1.032A12.5,12.5,0,0,1,-9.864,7.678L0,0Z" transform="translate(0,0)" id="e_pie1_1_1" fill="#efc000" stroke="white" stroke-width="1" stroke-dasharray="1,0" fill-opacity="1" class="pie1_1"></path></g><g class="pie1" transform="translate(0,0)"><path d="M-9.864,7.678A12.5,12.5,0,0,1,0,-12.5L0,0Z" transform="translate(0,0)" id="e_pie1_1_2" fill="#868686" stroke="white" stroke-width="1" stroke-dasharray="1,0" fill-opacity="1" class="pie1_1"></path></g></g><g class="group2" transform="translate(162.5,-50.625)"><g class="pie1" transform="translate(0,0)"><path d="M0,-12.5A12.5,12.5,0,0,1,11.273,5.4L0,0Z" transform="translate(0,0)" id="e_pie1_1_0" fill="#0073c2" stroke="white" stroke-width="1" stroke-dasharray="1,0" fill-opacity="1" class="pie1_1"></path></g><g class="pie1" transform="translate(0,0)"><path d="M11.273,5.4A12.5,12.5,0,0,1,-10.765,6.354L0,0Z" transform="translate(0,0)" id="e_pie1_1_1" fill="#efc000" stroke="white" stroke-width="1" stroke-dasharray="1,0" fill-opacity="1" class="pie1_1"></path></g><g class="pie1" transform="translate(0,0)"><path d="M-10.765,6.354A12.5,12.5,0,0,1,0,-12.5L0,0Z" transform="translate(0,0)" id="e_pie1_1_2" fill="#868686" stroke="white" stroke-width="1" stroke-dasharray="1,0" fill-opacity="1" class="pie1_1"></path></g></g><g class="group2" transform="translate(187.5,-50.625)"><g class="pie1" transform="translate(0,0)"><path d="M0,-12.5A12.5,12.5,0,0,1,11.144,5.662L0,0Z" transform="translate(0,0)" id="e_pie1_1_0" fill="#0073c2" stroke="white" stroke-width="1" stroke-dasharray="1,0" fill-opacity="1" class="pie1_1"></path></g><g class="pie1" transform="translate(0,0)"><path d="M11.144,5.662A12.5,12.5,0,0,1,-8.99,8.686L0,0Z" transform="translate(0,0)" id="e_pie1_1_1" fill="#efc000" stroke="white" stroke-width="1" stroke-dasharray="1,0" fill-opacity="1" class="pie1_1"></path></g><g class="pie1" transform="translate(0,0)"><path d="M-8.99,8.686A12.5,12.5,0,0,1,0,-12.5L0,0Z" transform="translate(0,0)" id="e_pie1_1_2" fill="#868686" stroke="white" stroke-width="1" stroke-dasharray="1,0" fill-opacity="1" class="pie1_1"></path></g></g><g class="group2" transform="translate(12.5,-50.625)"><g class="pie1" transform="translate(0,0)"><path d="M0,-12.5A12.5,12.5,0,0,1,11.07,5.805L0,0Z" transform="translate(0,0)" id="e_pie1_1_0" fill="#0073c2" stroke="white" stroke-width="1" stroke-dasharray="1,0" fill-opacity="1" class="pie1_1"></path></g><g class="pie1" transform="translate(0,0)"><path d="M11.07,5.805A12.5,12.5,0,0,1,-11.864,3.935L0,0Z" transform="translate(0,0)" id="e_pie1_1_1" fill="#efc000" stroke="white" stroke-width="1" stroke-dasharray="1,0" fill-opacity="1" class="pie1_1"></path></g><g class="pie1" transform="translate(0,0)"><path d="M-11.864,3.935A12.5,12.5,0,0,1,0,-12.5L0,0Z" transform="translate(0,0)" id="e_pie1_1_2" fill="#868686" stroke="white" stroke-width="1" stroke-dasharray="1,0" fill-opacity="1" class="pie1_1"></path></g></g><g class="group2" transform="translate(37.5,-50.625)"><g class="pie1" transform="translate(0,0)"><path d="M0,-12.5A12.5,12.5,0,0,1,10.7,6.463L0,0Z" transform="translate(0,0)" id="e_pie1_1_0" fill="#0073c2" stroke="white" stroke-width="1" stroke-dasharray="1,0" fill-opacity="1" class="pie1_1"></path></g><g class="pie1" transform="translate(0,0)"><path d="M10.7,6.463A12.5,12.5,0,0,1,-10.436,6.88L0,0Z" transform="translate(0,0)" id="e_pie1_1_1" fill="#efc000" stroke="white" stroke-width="1" stroke-dasharray="1,0" fill-opacity="1" class="pie1_1"></path></g><g class="pie1" transform="translate(0,0)"><path d="M-10.436,6.88A12.5,12.5,0,0,1,0,-12.5L0,0Z" transform="translate(0,0)" id="e_pie1_1_2" fill="#868686" stroke="white" stroke-width="1" stroke-dasharray="1,0" fill-opacity="1" class="pie1_1"></path></g></g><g class="group2" transform="translate(62.5,-50.625)"><g class="pie1" transform="translate(0,0)"><path d="M0,-12.5A12.5,12.5,0,0,1,11.849,3.981L0,0Z" transform="translate(0,0)" id="e_pie1_1_0" fill="#0073c2" stroke="white" stroke-width="1" stroke-dasharray="1,0" fill-opacity="1" class="pie1_1"></path></g><g class="pie1" transform="translate(0,0)"><path d="M11.849,3.981A12.5,12.5,0,0,1,-7.794,9.773L0,0Z" transform="translate(0,0)" id="e_pie1_1_1" fill="#efc000" stroke="white" stroke-width="1" stroke-dasharray="1,0" fill-opacity="1" class="pie1_1"></path></g><g class="pie1" transform="translate(0,0)"><path d="M-7.794,9.773A12.5,12.5,0,0,1,0,-12.5L0,0Z" transform="translate(0,0)" id="e_pie1_1_2" fill="#868686" stroke="white" stroke-width="1" stroke-dasharray="1,0" fill-opacity="1" class="pie1_1"></path></g></g><g class="group2" transform="translate(87.5,-50.625)"><g class="pie1" transform="translate(0,0)"><path d="M0,-12.5A12.5,12.5,0,0,1,12.296,2.25L0,0Z" transform="translate(0,0)" id="e_pie1_1_0" fill="#0073c2" stroke="white" stroke-width="1" stroke-dasharray="1,0" fill-opacity="1" class="pie1_1"></path></g><g class="pie1" transform="translate(0,0)"><path d="M12.296,2.25A12.5,12.5,0,0,1,-10.138,7.312L0,0Z" transform="translate(0,0)" id="e_pie1_1_1" fill="#efc000" stroke="white" stroke-width="1" stroke-dasharray="1,0" fill-opacity="1" class="pie1_1"></path></g><g class="pie1" transform="translate(0,0)"><path d="M-10.138,7.312A12.5,12.5,0,0,1,0,-12.5L0,0Z" transform="translate(0,0)" id="e_pie1_1_2" fill="#868686" stroke="white" stroke-width="1" stroke-dasharray="1,0" fill-opacity="1" class="pie1_1"></path></g></g><g class="group2" transform="translate(112.5,-50.625)"><g class="pie1" transform="translate(0,0)"><path d="M0,-12.5A12.5,12.5,0,0,1,12.432,1.307L0,0Z" transform="translate(0,0)" id="e_pie1_1_0" fill="#0073c2" stroke="white" stroke-width="1" stroke-dasharray="1,0" fill-opacity="1" class="pie1_1"></path></g><g class="pie1" transform="translate(0,0)"><path d="M12.432,1.307A12.5,12.5,0,0,1,-9.796,7.764L0,0Z" transform="translate(0,0)" id="e_pie1_1_1" fill="#efc000" stroke="white" stroke-width="1" stroke-dasharray="1,0" fill-opacity="1" class="pie1_1"></path></g><g class="pie1" transform="translate(0,0)"><path d="M-9.796,7.764A12.5,12.5,0,0,1,0,-12.5L0,0Z" transform="translate(0,0)" id="e_pie1_1_2" fill="#868686" stroke="white" stroke-width="1" stroke-dasharray="1,0" fill-opacity="1" class="pie1_1"></path></g></g><g class="group2" transform="translate(137.5,-50.625)"><g class="pie1" transform="translate(0,0)"><path d="M0,-12.5A12.5,12.5,0,0,1,12.357,1.884L0,0Z" transform="translate(0,0)" id="e_pie1_1_0" fill="#0073c2" stroke="white" stroke-width="1" stroke-dasharray="1,0" fill-opacity="1" class="pie1_1"></path></g><g class="pie1" transform="translate(0,0)"><path d="M12.357,1.884A12.5,12.5,0,0,1,-4.817,11.535L0,0Z" transform="translate(0,0)" id="e_pie1_1_1" fill="#efc000" stroke="white" stroke-width="1" stroke-dasharray="1,0" fill-opacity="1" class="pie1_1"></path></g><g class="pie1" transform="translate(0,0)"><path d="M-4.817,11.535A12.5,12.5,0,0,1,0,-12.5L0,0Z" transform="translate(0,0)" id="e_pie1_1_2" fill="#868686" stroke="white" stroke-width="1" stroke-dasharray="1,0" fill-opacity="1" class="pie1_1"></path></g></g><g class="group2" transform="translate(162.5,-50.625)"><g class="pie1" transform="translate(0,0)"><path d="M0,-12.5A12.5,12.5,0,0,1,10.046,7.438L0,0Z" transform="translate(0,0)" id="e_pie1_1_0" fill="#0073c2" stroke="white" stroke-width="1" stroke-dasharray="1,0" fill-opacity="1" class="pie1_1"></path></g><g class="pie1" transform="translate(0,0)"><path d="M10.046,7.438A12.5,12.5,0,0,1,-11.956,3.647L0,0Z" transform="translate(0,0)" id="e_pie1_1_1" fill="#efc000" stroke="white" stroke-width="1" stroke-dasharray="1,0" fill-opacity="1" class="pie1_1"></path></g><g class="pie1" transform="translate(0,0)"><path d="M-11.956,3.647A12.5,12.5,0,0,1,0,-12.5L0,0Z" transform="translate(0,0)" id="e_pie1_1_2" fill="#868686" stroke="white" stroke-width="1" stroke-dasharray="1,0" fill-opacity="1" class="pie1_1"></path></g></g><g class="group2" transform="translate(187.5,-50.625)"><g class="pie1" transform="translate(0,0)"><path d="M0,-12.5A12.5,12.5,0,0,1,10.825,6.25L0,0Z" transform="translate(0,0)" id="e_pie1_1_0" fill="#0073c2" stroke="white" stroke-width="1" stroke-dasharray="1,0" fill-opacity="1" class="pie1_1"></path></g><g class="pie1" transform="translate(0,0)"><path d="M10.825,6.25A12.5,12.5,0,0,1,-10.825,6.25L0,0Z" transform="translate(0,0)" id="e_pie1_1_1" fill="#efc000" stroke="white" stroke-width="1" stroke-dasharray="1,0" fill-opacity="1" class="pie1_1"></path></g><g class="pie1" transform="translate(0,0)"><path d="M-10.825,6.25A12.5,12.5,0,0,1,0,-12.5L0,0Z" transform="translate(0,0)" id="e_pie1_1_2" fill="#868686" stroke="white" stroke-width="1" stroke-dasharray="1,0" fill-opacity="1" class="pie1_1"></path></g></g><g class="group2" transform="translate(12.5,-129.375)"><g class="pie1" transform="translate(0,0)"><path d="M0,-12.5A12.5,12.5,0,0,1,11.033,5.875L0,0Z" transform="translate(0,0)" id="e_pie1_1_0" fill="#0073c2" stroke="white" stroke-width="1" stroke-dasharray="1,0" fill-opacity="1" class="pie1_1"></path></g><g class="pie1" transform="translate(0,0)"><path d="M11.033,5.875A12.5,12.5,0,0,1,-8.252,9.389L0,0Z" transform="translate(0,0)" id="e_pie1_1_1" fill="#efc000" stroke="white" stroke-width="1" stroke-dasharray="1,0" fill-opacity="1" class="pie1_1"></path></g><g class="pie1" transform="translate(0,0)"><path d="M-8.252,9.389A12.5,12.5,0,0,1,0,-12.5L0,0Z" transform="translate(0,0)" id="e_pie1_1_2" fill="#868686" stroke="white" stroke-width="1" stroke-dasharray="1,0" fill-opacity="1" class="pie1_1"></path></g></g><g class="group2" transform="translate(37.5,-129.375)"><g class="pie1" transform="translate(0,0)"><path d="M0,-12.5A12.5,12.5,0,0,1,11.542,4.799L0,0Z" transform="translate(0,0)" id="e_pie1_1_0" fill="#0073c2" stroke="white" stroke-width="1" stroke-dasharray="1,0" fill-opacity="1" class="pie1_1"></path></g><g class="pie1" transform="translate(0,0)"><path d="M11.542,4.799A12.5,12.5,0,0,1,-11.738,4.296L0,0Z" transform="translate(0,0)" id="e_pie1_1_1" fill="#efc000" stroke="white" stroke-width="1" stroke-dasharray="1,0" fill-opacity="1" class="pie1_1"></path></g><g class="pie1" transform="translate(0,0)"><path d="M-11.738,4.296A12.5,12.5,0,0,1,0,-12.5L0,0Z" transform="translate(0,0)" id="e_pie1_1_2" fill="#868686" stroke="white" stroke-width="1" stroke-dasharray="1,0" fill-opacity="1" class="pie1_1"></path></g></g><g class="group2" transform="translate(62.5,-129.375)"><g class="pie1" transform="translate(0,0)"><path d="M0,-12.5A12.5,12.5,0,0,1,11.878,3.893L0,0Z" transform="translate(0,0)" id="e_pie1_1_0" fill="#0073c2" stroke="white" stroke-width="1" stroke-dasharray="1,0" fill-opacity="1" class="pie1_1"></path></g><g class="pie1" transform="translate(0,0)"><path d="M11.878,3.893A12.5,12.5,0,0,1,-9.311,8.34L0,0Z" transform="translate(0,0)" id="e_pie1_1_1" fill="#efc000" stroke="white" stroke-width="1" stroke-dasharray="1,0" fill-opacity="1" class="pie1_1"></path></g><g class="pie1" transform="translate(0,0)"><path d="M-9.311,8.34A12.5,12.5,0,0,1,0,-12.5L0,0Z" transform="translate(0,0)" id="e_pie1_1_2" fill="#868686" stroke="white" stroke-width="1" stroke-dasharray="1,0" fill-opacity="1" class="pie1_1"></path></g></g><g class="group2" transform="translate(87.5,-129.375)"><g class="pie1" transform="translate(0,0)"><path d="M0,-12.5A12.5,12.5,0,0,1,9.381,8.261L0,0Z" transform="translate(0,0)" id="e_pie1_1_0" fill="#0073c2" stroke="white" stroke-width="1" stroke-dasharray="1,0" fill-opacity="1" class="pie1_1"></path></g><g class="pie1" transform="translate(0,0)"><path d="M9.381,8.261A12.5,12.5,0,0,1,-11.93,3.731L0,0Z" transform="translate(0,0)" id="e_pie1_1_1" fill="#efc000" stroke="white" stroke-width="1" stroke-dasharray="1,0" fill-opacity="1" class="pie1_1"></path></g><g class="pie1" transform="translate(0,0)"><path d="M-11.93,3.731A12.5,12.5,0,0,1,0,-12.5L0,0Z" transform="translate(0,0)" id="e_pie1_1_2" fill="#868686" stroke="white" stroke-width="1" stroke-dasharray="1,0" fill-opacity="1" class="pie1_1"></path></g></g><g class="group2" transform="translate(112.5,-129.375)"><g class="pie1" transform="translate(0,0)"><path d="M0,-12.5A12.5,12.5,0,0,1,8.863,8.814L0,0Z" transform="translate(0,0)" id="e_pie1_1_0" fill="#0073c2" stroke="white" stroke-width="1" stroke-dasharray="1,0" fill-opacity="1" class="pie1_1"></path></g><g class="pie1" transform="translate(0,0)"><path d="M8.863,8.814A12.5,12.5,0,0,1,-12.484,0.624L0,0Z" transform="translate(0,0)" id="e_pie1_1_1" fill="#efc000" stroke="white" stroke-width="1" stroke-dasharray="1,0" fill-opacity="1" class="pie1_1"></path></g><g class="pie1" transform="translate(0,0)"><path d="M-12.484,0.624A12.5,12.5,0,0,1,0,-12.5L0,0Z" transform="translate(0,0)" id="e_pie1_1_2" fill="#868686" stroke="white" stroke-width="1" stroke-dasharray="1,0" fill-opacity="1" class="pie1_1"></path></g></g><g class="group2" transform="translate(137.5,-129.375)"><g class="pie1" transform="translate(0,0)"><path d="M0,-12.5A12.5,12.5,0,0,1,12.25,2.487L0,0Z" transform="translate(0,0)" id="e_pie1_1_0" fill="#0073c2" stroke="white" stroke-width="1" stroke-dasharray="1,0" fill-opacity="1" class="pie1_1"></path></g><g class="pie1" transform="translate(0,0)"><path d="M12.25,2.487A12.5,12.5,0,0,1,-11.458,4.996L0,0Z" transform="translate(0,0)" id="e_pie1_1_1" fill="#efc000" stroke="white" stroke-width="1" stroke-dasharray="1,0" fill-opacity="1" class="pie1_1"></path></g><g class="pie1" transform="translate(0,0)"><path d="M-11.458,4.996A12.5,12.5,0,0,1,0,-12.5L0,0Z" transform="translate(0,0)" id="e_pie1_1_2" fill="#868686" stroke="white" stroke-width="1" stroke-dasharray="1,0" fill-opacity="1" class="pie1_1"></path></g></g><g class="group2" transform="translate(162.5,-129.375)"><g class="pie1" transform="translate(0,0)"><path d="M0,-12.5A12.5,12.5,0,0,1,10.12,7.337L0,0Z" transform="translate(0,0)" id="e_pie1_1_0" fill="#0073c2" stroke="white" stroke-width="1" stroke-dasharray="1,0" fill-opacity="1" class="pie1_1"></path></g><g class="pie1" transform="translate(0,0)"><path d="M10.12,7.337A12.5,12.5,0,0,1,-12.451,1.1L0,0Z" transform="translate(0,0)" id="e_pie1_1_1" fill="#efc000" stroke="white" stroke-width="1" stroke-dasharray="1,0" fill-opacity="1" class="pie1_1"></path></g><g class="pie1" transform="translate(0,0)"><path d="M-12.451,1.1A12.5,12.5,0,0,1,0,-12.5L0,0Z" transform="translate(0,0)" id="e_pie1_1_2" fill="#868686" stroke="white" stroke-width="1" stroke-dasharray="1,0" fill-opacity="1" class="pie1_1"></path></g></g><g class="group2" transform="translate(187.5,-129.375)"><g class="pie1" transform="translate(0,0)"><path d="M0,-12.5A12.5,12.5,0,0,1,10.017,7.478L0,0Z" transform="translate(0,0)" id="e_pie1_1_0" fill="#0073c2" stroke="white" stroke-width="1" stroke-dasharray="1,0" fill-opacity="1" class="pie1_1"></path></g><g class="pie1" transform="translate(0,0)"><path d="M10.017,7.478A12.5,12.5,0,0,1,-9.838,7.711L0,0Z" transform="translate(0,0)" id="e_pie1_1_1" fill="#efc000" stroke="white" stroke-width="1" stroke-dasharray="1,0" fill-opacity="1" class="pie1_1"></path></g><g class="pie1" transform="translate(0,0)"><path d="M-9.838,7.711A12.5,12.5,0,0,1,0,-12.5L0,0Z" transform="translate(0,0)" id="e_pie1_1_2" fill="#868686" stroke="white" stroke-width="1" stroke-dasharray="1,0" fill-opacity="1" class="pie1_1"></path></g></g><g class="group2" transform="translate(12.5,-129.375)"><g class="pie1" transform="translate(0,0)"><path d="M0,-12.5A12.5,12.5,0,0,1,12.066,3.265L0,0Z" transform="translate(0,0)" id="e_pie1_1_0" fill="#0073c2" stroke="white" stroke-width="1" stroke-dasharray="1,0" fill-opacity="1" class="pie1_1"></path></g><g class="pie1" transform="translate(0,0)"><path d="M12.066,3.265A12.5,12.5,0,0,1,-10.002,7.498L0,0Z" transform="translate(0,0)" id="e_pie1_1_1" fill="#efc000" stroke="white" stroke-width="1" stroke-dasharray="1,0" fill-opacity="1" class="pie1_1"></path></g><g class="pie1" transform="translate(0,0)"><path d="M-10.002,7.498A12.5,12.5,0,0,1,0,-12.5L0,0Z" transform="translate(0,0)" id="e_pie1_1_2" fill="#868686" stroke="white" stroke-width="1" stroke-dasharray="1,0" fill-opacity="1" class="pie1_1"></path></g></g><g class="group2" transform="translate(37.5,-129.375)"><g class="pie1" transform="translate(0,0)"><path d="M0,-12.5A12.5,12.5,0,0,1,11.003,5.933L0,0Z" transform="translate(0,0)" id="e_pie1_1_0" fill="#0073c2" stroke="white" stroke-width="1" stroke-dasharray="1,0" fill-opacity="1" class="pie1_1"></path></g><g class="pie1" transform="translate(0,0)"><path d="M11.003,5.933A12.5,12.5,0,0,1,-11.17,5.61L0,0Z" transform="translate(0,0)" id="e_pie1_1_1" fill="#efc000" stroke="white" stroke-width="1" stroke-dasharray="1,0" fill-opacity="1" class="pie1_1"></path></g><g class="pie1" transform="translate(0,0)"><path d="M-11.17,5.61A12.5,12.5,0,0,1,0,-12.5L0,0Z" transform="translate(0,0)" id="e_pie1_1_2" fill="#868686" stroke="white" stroke-width="1" stroke-dasharray="1,0" fill-opacity="1" class="pie1_1"></path></g></g><g class="group2" transform="translate(62.5,-129.375)"><g class="pie1" transform="translate(0,0)"><path d="M0,-12.5A12.5,12.5,0,0,1,11.177,5.597L0,0Z" transform="translate(0,0)" id="e_pie1_1_0" fill="#0073c2" stroke="white" stroke-width="1" stroke-dasharray="1,0" fill-opacity="1" class="pie1_1"></path></g><g class="pie1" transform="translate(0,0)"><path d="M11.177,5.597A12.5,12.5,0,0,1,-11.316,5.311L0,0Z" transform="translate(0,0)" id="e_pie1_1_1" fill="#efc000" stroke="white" stroke-width="1" stroke-dasharray="1,0" fill-opacity="1" class="pie1_1"></path></g><g class="pie1" transform="translate(0,0)"><path d="M-11.316,5.311A12.5,12.5,0,0,1,0,-12.5L0,0Z" transform="translate(0,0)" id="e_pie1_1_2" fill="#868686" stroke="white" stroke-width="1" stroke-dasharray="1,0" fill-opacity="1" class="pie1_1"></path></g></g><g class="group2" transform="translate(87.5,-129.375)"><g class="pie1" transform="translate(0,0)"><path d="M0,-12.5A12.5,12.5,0,0,1,12.053,3.312L0,0Z" transform="translate(0,0)" id="e_pie1_1_0" fill="#0073c2" stroke="white" stroke-width="1" stroke-dasharray="1,0" fill-opacity="1" class="pie1_1"></path></g><g class="pie1" transform="translate(0,0)"><path d="M12.053,3.312A12.5,12.5,0,0,1,-10.981,5.971L0,0Z" transform="translate(0,0)" id="e_pie1_1_1" fill="#efc000" stroke="white" stroke-width="1" stroke-dasharray="1,0" fill-opacity="1" class="pie1_1"></path></g><g class="pie1" transform="translate(0,0)"><path d="M-10.981,5.971A12.5,12.5,0,0,1,0,-12.5L0,0Z" transform="translate(0,0)" id="e_pie1_1_2" fill="#868686" stroke="white" stroke-width="1" stroke-dasharray="1,0" fill-opacity="1" class="pie1_1"></path></g></g><g class="group2" transform="translate(112.5,-129.375)"><g class="pie1" transform="translate(0,0)"><path d="M0,-12.5A12.5,12.5,0,0,1,9.638,7.959L0,0Z" transform="translate(0,0)" id="e_pie1_1_0" fill="#0073c2" stroke="white" stroke-width="1" stroke-dasharray="1,0" fill-opacity="1" class="pie1_1"></path></g><g class="pie1" transform="translate(0,0)"><path d="M9.638,7.959A12.5,12.5,0,0,1,-10.87,6.171L0,0Z" transform="translate(0,0)" id="e_pie1_1_1" fill="#efc000" stroke="white" stroke-width="1" stroke-dasharray="1,0" fill-opacity="1" class="pie1_1"></path></g><g class="pie1" transform="translate(0,0)"><path d="M-10.87,6.171A12.5,12.5,0,0,1,0,-12.5L0,0Z" transform="translate(0,0)" id="e_pie1_1_2" fill="#868686" stroke="white" stroke-width="1" stroke-dasharray="1,0" fill-opacity="1" class="pie1_1"></path></g></g><g class="group2" transform="translate(137.5,-129.375)"><g class="pie1" transform="translate(0,0)"><path d="M0,-12.5A12.5,12.5,0,0,1,8.925,8.752L0,0Z" transform="translate(0,0)" id="e_pie1_1_0" fill="#0073c2" stroke="white" stroke-width="1" stroke-dasharray="1,0" fill-opacity="1" class="pie1_1"></path></g><g class="pie1" transform="translate(0,0)"><path d="M8.925,8.752A12.5,12.5,0,0,1,-12.012,3.458L0,0Z" transform="translate(0,0)" id="e_pie1_1_1" fill="#efc000" stroke="white" stroke-width="1" stroke-dasharray="1,0" fill-opacity="1" class="pie1_1"></path></g><g class="pie1" transform="translate(0,0)"><path d="M-12.012,3.458A12.5,12.5,0,0,1,0,-12.5L0,0Z" transform="translate(0,0)" id="e_pie1_1_2" fill="#868686" stroke="white" stroke-width="1" stroke-dasharray="1,0" fill-opacity="1" class="pie1_1"></path></g></g><g class="group2" transform="translate(162.5,-129.375)"><g class="pie1" transform="translate(0,0)"><path d="M0,-12.5A12.5,12.5,0,0,1,9.498,8.126L0,0Z" transform="translate(0,0)" id="e_pie1_1_0" fill="#0073c2" stroke="white" stroke-width="1" stroke-dasharray="1,0" fill-opacity="1" class="pie1_1"></path></g><g class="pie1" transform="translate(0,0)"><path d="M9.498,8.126A12.5,12.5,0,0,1,-12.187,2.782L0,0Z" transform="translate(0,0)" id="e_pie1_1_1" fill="#efc000" stroke="white" stroke-width="1" stroke-dasharray="1,0" fill-opacity="1" class="pie1_1"></path></g><g class="pie1" transform="translate(0,0)"><path d="M-12.187,2.782A12.5,12.5,0,0,1,0,-12.5L0,0Z" transform="translate(0,0)" id="e_pie1_1_2" fill="#868686" stroke="white" stroke-width="1" stroke-dasharray="1,0" fill-opacity="1" class="pie1_1"></path></g></g><g class="group2" transform="translate(187.5,-129.375)"><g class="pie1" transform="translate(0,0)"><path d="M0,-12.5A12.5,12.5,0,0,1,11.911,3.793L0,0Z" transform="translate(0,0)" id="e_pie1_1_0" fill="#0073c2" stroke="white" stroke-width="1" stroke-dasharray="1,0" fill-opacity="1" class="pie1_1"></path></g><g class="pie1" transform="translate(0,0)"><path d="M11.911,3.793A12.5,12.5,0,0,1,-10.825,6.25L0,0Z" transform="translate(0,0)" id="e_pie1_1_1" fill="#efc000" stroke="white" stroke-width="1" stroke-dasharray="1,0" fill-opacity="1" class="pie1_1"></path></g><g class="pie1" transform="translate(0,0)"><path d="M-10.825,6.25A12.5,12.5,0,0,1,0,-12.5L0,0Z" transform="translate(0,0)" id="e_pie1_1_2" fill="#868686" stroke="white" stroke-width="1" stroke-dasharray="1,0" fill-opacity="1" class="pie1_1"></path></g></g><g transform="translate(0,0)" class="borderTR1"><line x1="0" y1="-180" x2="200" y2="-180" stroke="black" stroke-width="0.5" stroke-dasharray="1,0" class="borderTR1_1"></line><line x1="200" y1="0" x2="200" y2="-180" stroke="black" stroke-width="0.5" stroke-dasharray="1,0" class="borderTR1_2"></line></g><g transform="translate(220,-130)" class="legendArc1"><g class="legendArc1_1_g"><text x="0" y="-30" style="text-anchor: start; font-size: 12px; font-weight: normal; font-family: Arial;" transform="rotate(0,0,-30)" dominant-baseline="auto" fill="black" class="legendArc1_1"></text></g><g class="legendArc1_2" transform="translate(0,0)"><g class="legendArc1_3_g"><text x="15" y="-15" style="text-anchor: start; font-size: 12px; font-weight: normal; font-family: Arial;" transform="rotate(0,15,-15)" dominant-baseline="middle" fill="black" class="legendArc1_3">Chinese</text></g><path d="M-9.589,-17.552A20,20,0,0,1,9.589,-17.552L4.794,-8.776A10,10,0,0,0,-4.794,-8.776Z" transform="translate(0,0)" id="e_legendArc1_4_0" fill="#0073c2" stroke="black" stroke-width="0" stroke-dasharray="1,0" fill-opacity="1" class="legendArc1_4"></path></g><g class="legendArc1_2" transform="translate(0,23)"><g class="legendArc1_3_g"><text x="15" y="-15" style="text-anchor: start; font-size: 12px; font-weight: normal; font-family: Arial;" transform="rotate(0,15,-15)" dominant-baseline="middle" fill="black" class="legendArc1_3">Math</text></g><path d="M-9.589,-17.552A20,20,0,0,1,9.589,-17.552L4.794,-8.776A10,10,0,0,0,-4.794,-8.776Z" transform="translate(0,0)" id="e_legendArc1_4_1" fill="#efc000" stroke="black" stroke-width="0" stroke-dasharray="1,0" fill-opacity="1" class="legendArc1_4"></path></g><g class="legendArc1_2" transform="translate(0,46)"><g class="legendArc1_3_g"><text x="15" y="-15" style="text-anchor: start; font-size: 12px; font-weight: normal; font-family: Arial;" transform="rotate(0,15,-15)" dominant-baseline="middle" fill="black" class="legendArc1_3">English</text></g><path d="M-9.589,-17.552A20,20,0,0,1,9.589,-17.552L4.794,-8.776A10,10,0,0,0,-4.794,-8.776Z" transform="translate(0,0)" id="e_legendArc1_4_2" fill="#868686" stroke="black" stroke-width="0" stroke-dasharray="1,0" fill-opacity="1" class="legendArc1_4"></path></g></g></g></g></svg>
