<svg width="550" height="340" id="ngplotSvg"><g transform="translate(100,0)" class="group1"><g transform="translate(33,240)" class="bSlN2axis1"><g transform="translate(0,0)" class="bSlN2axis1_1"><line x1="0" y1="0" x2="300" y2="0" stroke="black" stroke-width="1" stroke-dasharray="1,0" class="bSlN2axis1_2"></line><g class="bSlN2axis1_3" transform="translate(13.04346,0)"><line x1="0" y1="0" x2="0" y2="5" stroke="black" stroke-width="1" stroke-dasharray="1,0" class="bSlN2axis1_4"></line><g class="bSlN2axis1_5_g"><text x="2" y="10" style="text-anchor: end; font-size: 12px; font-weight: normal; font-style: normal; font-family: Arial;" transform="rotate(-45,2,10)" dominant-baseline="middle" fill="black" class="bSlN2axis1_5">name1</text></g></g><g class="bSlN2axis1_3" transform="translate(43.47824666666667,0)"><line x1="0" y1="0" x2="0" y2="5" stroke="black" stroke-width="1" stroke-dasharray="1,0" class="bSlN2axis1_4"></line><g class="bSlN2axis1_5_g"><text x="2" y="10" style="text-anchor: end; font-size: 12px; font-weight: normal; font-style: normal; font-family: Arial;" transform="rotate(-45,2,10)" dominant-baseline="middle" fill="black" class="bSlN2axis1_5">name2</text></g></g><g class="bSlN2axis1_3" transform="translate(73.91303333333335,0)"><line x1="0" y1="0" x2="0" y2="5" stroke="black" stroke-width="1" stroke-dasharray="1,0" class="bSlN2axis1_4"></line><g class="bSlN2axis1_5_g"><text x="2" y="10" style="text-anchor: end; font-size: 12px; font-weight: normal; font-style: normal; font-family: Arial;" transform="rotate(-45,2,10)" dominant-baseline="middle" fill="black" class="bSlN2axis1_5">name3</text></g></g><g class="bSlN2axis1_3" transform="translate(104.34782000000001,0)"><line x1="0" y1="0" x2="0" y2="5" stroke="black" stroke-width="1" stroke-dasharray="1,0" class="bSlN2axis1_4"></line><g class="bSlN2axis1_5_g"><text x="2" y="10" style="text-anchor: end; font-size: 12px; font-weight: normal; font-style: normal; font-family: Arial;" transform="rotate(-45,2,10)" dominant-baseline="middle" fill="black" class="bSlN2axis1_5">name4</text></g></g><g class="bSlN2axis1_3" transform="translate(134.78260666666668,0)"><line x1="0" y1="0" x2="0" y2="5" stroke="black" stroke-width="1" stroke-dasharray="1,0" class="bSlN2axis1_4"></line><g class="bSlN2axis1_5_g"><text x="2" y="10" style="text-anchor: end; font-size: 12px; font-weight: normal; font-style: normal; font-family: Arial;" transform="rotate(-45,2,10)" dominant-baseline="middle" fill="black" class="bSlN2axis1_5">name5</text></g></g><g class="bSlN2axis1_3" transform="translate(165.21739333333335,0)"><line x1="0" y1="0" x2="0" y2="5" stroke="black" stroke-width="1" stroke-dasharray="1,0" class="bSlN2axis1_4"></line><g class="bSlN2axis1_5_g"><text x="2" y="10" style="text-anchor: end; font-size: 12px; font-weight: normal; font-style: normal; font-family: Arial;" transform="rotate(-45,2,10)" dominant-baseline="middle" fill="black" class="bSlN2axis1_5">name6</text></g></g><g class="bSlN2axis1_3" transform="translate(195.65218000000002,0)"><line x1="0" y1="0" x2="0" y2="5" stroke="black" stroke-width="1" stroke-dasharray="1,0" class="bSlN2axis1_4"></line><g class="bSlN2axis1_5_g"><text x="2" y="10" style="text-anchor: end; font-size: 12px; font-weight: normal; font-style: normal; font-family: Arial;" transform="rotate(-45,2,10)" dominant-baseline="middle" fill="black" class="bSlN2axis1_5">name7</text></g></g><g class="bSlN2axis1_3" transform="translate(226.08696666666668,0)"><line x1="0" y1="0" x2="0" y2="5" stroke="black" stroke-width="1" stroke-dasharray="1,0" class="bSlN2axis1_4"></line><g class="bSlN2axis1_5_g"><text x="2" y="10" style="text-anchor: end; font-size: 12px; font-weight: normal; font-style: normal; font-family: Arial;" transform="rotate(-45,2,10)" dominant-baseline="middle" fill="black" class="bSlN2axis1_5">name8</text></g></g><g class="bSlN2axis1_3" transform="translate(256.5217533333334,0)"><line x1="0" y1="0" x2="0" y2="5" stroke="black" stroke-width="1" stroke-dasharray="1,0" class="bSlN2axis1_4"></line><g class="bSlN2axis1_5_g"><text x="2" y="10" style="text-anchor: end; font-size: 12px; font-weight: normal; font-style: normal; font-family: Arial;" transform="rotate(-45,2,10)" dominant-baseline="middle" fill="black" class="bSlN2axis1_5">name9</text></g></g><g class="bSlN2axis1_3" transform="translate(286.9565400000001,0)"><line x1="0" y1="0" x2="0" y2="5" stroke="black" stroke-width="1" stroke-dasharray="1,0" class="bSlN2axis1_4"></line><g class="bSlN2axis1_5_g"><text x="2" y="10" style="text-anchor: end; font-size: 12px; font-weight: normal; font-style: normal; font-family: Arial;" transform="rotate(-45,2,10)" dominant-baseline="middle" fill="black" class="bSlN2axis1_5">name10</text></g></g><g class="text2_g"><text x="150" y="55" style="text-anchor: middle; font-size: 12px; font-weight: normal; font-style: normal; font-family: Arial;" transform="rotate(0,150,55)" dominant-baseline="auto" fill="black" class="text2"></text></g></g><g transform="translate(0,0)" class="bSlN2axis1_6"><line x1="0" y1="0" x2="0" y2="-160" stroke="black" stroke-width="1" stroke-dasharray="1,0" class="bSlN2axis1_7"></line><g class="bSlN2axis1_8" transform="translate(0,0)"><line x1="0" y1="0" x2="-5" y2="0" stroke="black" stroke-width="1" stroke-dasharray="1,0" class="bSlN2axis1_9"></line><g class="bSlN2axis1_10_g"><text x="-10" y="3" style="text-anchor: end; font-size: 12px; font-weight: normal; font-style: normal; font-family: Arial;" transform="rotate(0,-10,3)" dominant-baseline="auto" fill="black" class="bSlN2axis1_10">0</text></g></g><g class="bSlN2axis1_8" transform="translate(0,-32)"><line x1="0" y1="0" x2="-5" y2="0" stroke="black" stroke-width="1" stroke-dasharray="1,0" class="bSlN2axis1_9"></line><g class="bSlN2axis1_10_g"><text x="-10" y="3" style="text-anchor: end; font-size: 12px; font-weight: normal; font-style: normal; font-family: Arial;" transform="rotate(0,-10,3)" dominant-baseline="auto" fill="black" class="bSlN2axis1_10">20</text></g></g><g class="bSlN2axis1_8" transform="translate(0,-64)"><line x1="0" y1="0" x2="-5" y2="0" stroke="black" stroke-width="1" stroke-dasharray="1,0" class="bSlN2axis1_9"></line><g class="bSlN2axis1_10_g"><text x="-10" y="3" style="text-anchor: end; font-size: 12px; font-weight: normal; font-style: normal; font-family: Arial;" transform="rotate(0,-10,3)" dominant-baseline="auto" fill="black" class="bSlN2axis1_10">40</text></g></g><g class="bSlN2axis1_8" transform="translate(0,-96)"><line x1="0" y1="0" x2="-5" y2="0" stroke="black" stroke-width="1" stroke-dasharray="1,0" class="bSlN2axis1_9"></line><g class="bSlN2axis1_10_g"><text x="-10" y="3" style="text-anchor: end; font-size: 12px; font-weight: normal; font-style: normal; font-family: Arial;" transform="rotate(0,-10,3)" dominant-baseline="auto" fill="black" class="bSlN2axis1_10">60</text></g></g><g class="bSlN2axis1_8" transform="translate(0,-128)"><line x1="0" y1="0" x2="-5" y2="0" stroke="black" stroke-width="1" stroke-dasharray="1,0" class="bSlN2axis1_9"></line><g class="bSlN2axis1_10_g"><text x="-10" y="3" style="text-anchor: end; font-size: 12px; font-weight: normal; font-style: normal; font-family: Arial;" transform="rotate(0,-10,3)" dominant-baseline="auto" fill="black" class="bSlN2axis1_10">80</text></g></g><g class="bSlN2axis1_8" transform="translate(0,-160)"><line x1="0" y1="0" x2="-5" y2="0" stroke="black" stroke-width="1" stroke-dasharray="1,0" class="bSlN2axis1_9"></line><g class="bSlN2axis1_10_g"><text x="-10" y="3" style="text-anchor: end; font-size: 12px; font-weight: normal; font-style: normal; font-family: Arial;" transform="rotate(0,-10,3)" dominant-baseline="auto" fill="black" class="bSlN2axis1_10">100</text></g></g><g class="text1_g"><text x="-40" y="-80" style="text-anchor: middle; font-size: 12px; font-weight: normal; font-style: normal; font-family: Arial;" transform="rotate(-90,-40,-80)" dominant-baseline="auto" fill="black" class="text1"></text></g></g><g class="group2" transform="translate(13.04346,0)"><rect x="-10.86955" y="-8" width="21.7391" height="8" rx="0" ry="0" fill="rgb(55, 88, 167)" stroke="black" stroke-width="1" fill-opacity="1" class="rect1"></rect></g><g class="group2" transform="translate(43.47824666666667,0)"><rect x="-10.86955" y="-25.6" width="21.7391" height="25.6" rx="0" ry="0" fill="rgb(73, 83, 153)" stroke="black" stroke-width="1" fill-opacity="1" class="rect1"></rect></g><g class="group2" transform="translate(73.91303333333335,0)"><rect x="-10.86955" y="-44.800000000000004" width="21.7391" height="44.800000000000004" rx="0" ry="0" fill="rgb(92, 79, 137)" stroke="black" stroke-width="1" fill-opacity="1" class="rect1"></rect></g><g class="group2" transform="translate(104.34782000000001,0)"><rect x="-10.86955" y="-54.400000000000006" width="21.7391" height="54.400000000000006" rx="0" ry="0" fill="rgb(102, 76, 129)" stroke="black" stroke-width="1" fill-opacity="1" class="rect1"></rect></g><g class="group2" transform="translate(134.78260666666668,0)"><rect x="-10.86955" y="-64" width="21.7391" height="64" rx="0" ry="0" fill="rgb(112, 74, 122)" stroke="black" stroke-width="1" fill-opacity="1" class="rect1"></rect></g><g class="group2" transform="translate(165.21739333333335,0)"><rect x="-10.86955" y="-94.39999999999999" width="21.7391" height="94.39999999999999" rx="0" ry="0" fill="rgb(143, 66, 97)" stroke="black" stroke-width="1" fill-opacity="1" class="rect1"></rect></g><g class="group2" transform="translate(195.65218000000002,0)"><rect x="-10.86955" y="-102.4" width="21.7391" height="102.4" rx="0" ry="0" fill="rgb(151, 64, 90)" stroke="black" stroke-width="1" fill-opacity="1" class="rect1"></rect></g><g class="group2" transform="translate(226.08696666666668,0)"><rect x="-10.86955" y="-112" width="21.7391" height="112" rx="0" ry="0" fill="rgb(160, 61, 82)" stroke="black" stroke-width="1" fill-opacity="1" class="rect1"></rect></g><g class="group2" transform="translate(256.5217533333334,0)"><rect x="-10.86955" y="-137.6" width="21.7391" height="137.6" rx="0" ry="0" fill="rgb(186, 55, 61)" stroke="black" stroke-width="1" fill-opacity="1" class="rect1"></rect></g><g class="group2" transform="translate(286.9565400000001,0)"><rect x="-10.86955" y="-155.2" width="21.7391" height="155.2" rx="0" ry="0" fill="rgb(204, 50, 47)" stroke="black" stroke-width="1" fill-opacity="1" class="rect1"></rect></g></g></g></svg>
