<svg width="450" height="450" id="ngplotSvg"><g transform="translate(185,185)" class="group1"><g class="group2" transform="translate(0,0)"><path d="M0,-56A56,56,0,1,1,-56,0.134L-40,0.096A40,40,0,1,0,0,-40Z" transform="translate(0,0)" id="e_arc2_0" fill="#f5efef" stroke="black" stroke-width="0.3" stroke-dasharray="1,0" fill-opacity="0.5" class="arc2"></path><g class="group3" transform="translate(0,0)"><path d="M0,-43.2A43.2,43.2,0,1,1,-6.687,42.679L-6.191,39.518A40,40,0,1,0,0,-40Z" transform="translate(0,0)" id="e_arc1_0" fill="#e54b34" stroke="white" stroke-width="0.2" stroke-dasharray="1,0" fill-opacity="1" class="arc1"></path></g><g class="group3" transform="translate(0,0)"><path d="M0,-46.4A46.4,46.4,0,0,1,44.143,14.296L41.098,13.31A43.2,43.2,0,0,0,0,-43.2Z" transform="translate(0,0)" id="e_arc1_1" fill="#4cbad4" stroke="white" stroke-width="0.2" stroke-dasharray="1,0" fill-opacity="1" class="arc1"></path></g><g class="group3" transform="translate(0,0)"><path d="M0,-49.6A49.6,49.6,0,0,1,35.114,35.031L32.849,32.771A46.4,46.4,0,0,0,0,-46.4Z" transform="translate(0,0)" id="e_arc1_2" fill="#009f86" stroke="white" stroke-width="0.2" stroke-dasharray="1,0" fill-opacity="1" class="arc1"></path></g><g class="group3" transform="translate(0,0)"><path d="M0,-52.8A52.8,52.8,0,0,1,42.701,-31.055L40.113,-29.173A49.6,49.6,0,0,0,0,-49.6Z" transform="translate(0,0)" id="e_arc1_3" fill="#3b5387" stroke="white" stroke-width="0.2" stroke-dasharray="1,0" fill-opacity="1" class="arc1"></path></g><g class="group3" transform="translate(0,0)"><path d="M0,-56A56,56,0,1,1,-32.829,45.368L-30.953,42.775A52.8,52.8,0,1,0,0,-52.8Z" transform="translate(0,0)" id="e_arc1_4" fill="#f29a7f" stroke="white" stroke-width="0.2" stroke-dasharray="1,0" fill-opacity="1" class="arc1"></path></g><g class="text1_g"><text x="-3" y="-48" style="text-anchor: end; font-size: 12px; font-weight: normal; font-family: Arial; font-style: normal;" transform="rotate(0,-3,-48)" dominant-baseline="middle" fill="black" class="text1">sample1</text></g></g><g class="group2" transform="translate(0,0)"><path d="M0,-77A77,77,0,1,1,-77,0.184L-61,0.146A61,61,0,1,0,0,-61Z" transform="translate(0,0)" id="e_arc2_1" fill="#f5efef" stroke="black" stroke-width="0.3" stroke-dasharray="1,0" fill-opacity="0.5" class="arc2"></path><g class="group3" transform="translate(0,0)"><path d="M0,-64.2A64.2,64.2,0,1,1,-61.61,18.05L-58.54,17.15A61,61,0,1,0,0,-61Z" transform="translate(0,0)" id="e_arc1_0" fill="#e54b34" stroke="white" stroke-width="0.2" stroke-dasharray="1,0" fill-opacity="1" class="arc1"></path></g><g class="group3" transform="translate(0,0)"><path d="M0,-67.4A67.4,67.4,0,0,1,8.55,66.856L8.144,63.681A64.2,64.2,0,0,0,0,-64.2Z" transform="translate(0,0)" id="e_arc1_1" fill="#4cbad4" stroke="white" stroke-width="0.2" stroke-dasharray="1,0" fill-opacity="1" class="arc1"></path></g><g class="group3" transform="translate(0,0)"><path d="M0,-70.6A70.6,70.6,0,1,1,-41.388,57.196L-39.512,54.603A67.4,67.4,0,1,0,0,-67.4Z" transform="translate(0,0)" id="e_arc1_2" fill="#009f86" stroke="white" stroke-width="0.2" stroke-dasharray="1,0" fill-opacity="1" class="arc1"></path></g><g class="group3" transform="translate(0,0)"><path d="M0,-73.8A73.8,73.8,0,0,1,59.685,-43.407L57.097,-41.525A70.6,70.6,0,0,0,0,-70.6Z" transform="translate(0,0)" id="e_arc1_3" fill="#3b5387" stroke="white" stroke-width="0.2" stroke-dasharray="1,0" fill-opacity="1" class="arc1"></path></g><g class="group3" transform="translate(0,0)"><path d="M0,-77A77,77,0,0,1,37.185,67.426L35.64,64.624A73.8,73.8,0,0,0,0,-73.8Z" transform="translate(0,0)" id="e_arc1_4" fill="#f29a7f" stroke="white" stroke-width="0.2" stroke-dasharray="1,0" fill-opacity="1" class="arc1"></path></g><g class="text1_g"><text x="-3" y="-69" style="text-anchor: end; font-size: 12px; font-weight: normal; font-family: Arial; font-style: normal;" transform="rotate(0,-3,-69)" dominant-baseline="middle" fill="black" class="text1">sample2</text></g></g><g class="group2" transform="translate(0,0)"><path d="M0,-98A98,98,0,1,1,-98,0.234L-82,0.196A82,82,0,1,0,0,-82Z" transform="translate(0,0)" id="e_arc2_2" fill="#f5efef" stroke="black" stroke-width="0.3" stroke-dasharray="1,0" fill-opacity="0.5" class="arc2"></path><g class="group3" transform="translate(0,0)"><path d="M0,-85.2A85.2,85.2,0,0,1,2.81,85.154L2.705,81.955A82,82,0,0,0,0,-82Z" transform="translate(0,0)" id="e_arc1_0" fill="#e54b34" stroke="white" stroke-width="0.2" stroke-dasharray="1,0" fill-opacity="1" class="arc1"></path></g><g class="group3" transform="translate(0,0)"><path d="M0,-88.4A88.4,88.4,0,0,1,56.433,68.043L54.39,65.58A85.2,85.2,0,0,0,0,-85.2Z" transform="translate(0,0)" id="e_arc1_1" fill="#4cbad4" stroke="white" stroke-width="0.2" stroke-dasharray="1,0" fill-opacity="1" class="arc1"></path></g><g class="group3" transform="translate(0,0)"><path d="M0,-91.6A91.6,91.6,0,0,1,80.316,44.044L77.51,42.506A88.4,88.4,0,0,0,0,-88.4Z" transform="translate(0,0)" id="e_arc1_2" fill="#009f86" stroke="white" stroke-width="0.2" stroke-dasharray="1,0" fill-opacity="1" class="arc1"></path></g><g class="group3" transform="translate(0,0)"><path d="M0,-94.8A94.8,94.8,0,1,1,-84.375,43.22L-81.527,41.761A91.6,91.6,0,1,0,0,-91.6Z" transform="translate(0,0)" id="e_arc1_3" fill="#3b5387" stroke="white" stroke-width="0.2" stroke-dasharray="1,0" fill-opacity="1" class="arc1"></path></g><g class="group3" transform="translate(0,0)"><path d="M0,-98A98,98,0,0,1,30.417,93.16L29.424,90.118A94.8,94.8,0,0,0,0,-94.8Z" transform="translate(0,0)" id="e_arc1_4" fill="#f29a7f" stroke="white" stroke-width="0.2" stroke-dasharray="1,0" fill-opacity="1" class="arc1"></path></g><g class="text1_g"><text x="-3" y="-90" style="text-anchor: end; font-size: 12px; font-weight: normal; font-family: Arial; font-style: normal;" transform="rotate(0,-3,-90)" dominant-baseline="middle" fill="black" class="text1">sample3</text></g></g><g class="group2" transform="translate(0,0)"><path d="M0,-119A119,119,0,1,1,-119,0.284L-103,0.246A103,103,0,1,0,0,-103Z" transform="translate(0,0)" id="e_arc2_3" fill="#f5efef" stroke="black" stroke-width="0.3" stroke-dasharray="1,0" fill-opacity="0.5" class="arc2"></path><g class="group3" transform="translate(0,0)"><path d="M0,-106.2A106.2,106.2,0,1,1,-106.2,0.254L-103,0.246A103,103,0,1,0,0,-103Z" transform="translate(0,0)" id="e_arc1_0" fill="#e54b34" stroke="white" stroke-width="0.2" stroke-dasharray="1,0" fill-opacity="1" class="arc1"></path></g><g class="group3" transform="translate(0,0)"><path d="M0,-109.4A109.4,109.4,0,1,1,-64.134,88.629L-62.258,86.037A106.2,106.2,0,1,0,0,-106.2Z" transform="translate(0,0)" id="e_arc1_1" fill="#4cbad4" stroke="white" stroke-width="0.2" stroke-dasharray="1,0" fill-opacity="1" class="arc1"></path></g><g class="group3" transform="translate(0,0)"><path d="M0,-112.6A112.6,112.6,0,1,1,-66.01,91.222L-64.134,88.629A109.4,109.4,0,1,0,0,-109.4Z" transform="translate(0,0)" id="e_arc1_2" fill="#009f86" stroke="white" stroke-width="0.2" stroke-dasharray="1,0" fill-opacity="1" class="arc1"></path></g><g class="group3" transform="translate(0,0)"><path d="M0,-115.8A115.8,115.8,0,0,1,81.981,81.785L79.715,79.525A112.6,112.6,0,0,0,0,-112.6Z" transform="translate(0,0)" id="e_arc1_3" fill="#3b5387" stroke="white" stroke-width="0.2" stroke-dasharray="1,0" fill-opacity="1" class="arc1"></path></g><g class="group3" transform="translate(0,0)"><path d="M0,-119A119,119,0,0,1,117.522,-18.7L114.361,-18.197A115.8,115.8,0,0,0,0,-115.8Z" transform="translate(0,0)" id="e_arc1_4" fill="#f29a7f" stroke="white" stroke-width="0.2" stroke-dasharray="1,0" fill-opacity="1" class="arc1"></path></g><g class="text1_g"><text x="-3" y="-111" style="text-anchor: end; font-size: 12px; font-weight: normal; font-family: Arial; font-style: normal;" transform="rotate(0,-3,-111)" dominant-baseline="middle" fill="black" class="text1">sample4</text></g></g><g class="group2" transform="translate(0,0)"><path d="M0,-140A140,140,0,1,1,-140,0.334L-124,0.296A124,124,0,1,0,0,-124Z" transform="translate(0,0)" id="e_arc2_4" fill="#f5efef" stroke="black" stroke-width="0.3" stroke-dasharray="1,0" fill-opacity="0.5" class="arc2"></path><g class="group3" transform="translate(0,0)"><path d="M0,-127.2A127.2,127.2,0,1,1,-127.2,0.304L-124,0.296A124,124,0,1,0,0,-124Z" transform="translate(0,0)" id="e_arc1_0" fill="#e54b34" stroke="white" stroke-width="0.2" stroke-dasharray="1,0" fill-opacity="1" class="arc1"></path></g><g class="group3" transform="translate(0,0)"><path d="M0,-130.4A130.4,130.4,0,0,1,124.056,40.177L121.012,39.191A127.2,127.2,0,0,0,0,-127.2Z" transform="translate(0,0)" id="e_arc1_1" fill="#4cbad4" stroke="white" stroke-width="0.2" stroke-dasharray="1,0" fill-opacity="1" class="arc1"></path></g><g class="group3" transform="translate(0,0)"><path d="M0,-133.6A133.6,133.6,0,0,1,41.467,127.002L40.474,123.96A130.4,130.4,0,0,0,0,-130.4Z" transform="translate(0,0)" id="e_arc1_2" fill="#009f86" stroke="white" stroke-width="0.2" stroke-dasharray="1,0" fill-opacity="1" class="arc1"></path></g><g class="group3" transform="translate(0,0)"><path d="M0,-136.8A136.8,136.8,0,0,1,130.145,42.149L127.101,41.163A133.6,133.6,0,0,0,0,-133.6Z" transform="translate(0,0)" id="e_arc1_3" fill="#3b5387" stroke="white" stroke-width="0.2" stroke-dasharray="1,0" fill-opacity="1" class="arc1"></path></g><g class="group3" transform="translate(0,0)"><path d="M0,-140A140,140,0,0,1,113.223,-82.344L110.635,-80.462A136.8,136.8,0,0,0,0,-136.8Z" transform="translate(0,0)" id="e_arc1_4" fill="#f29a7f" stroke="white" stroke-width="0.2" stroke-dasharray="1,0" fill-opacity="1" class="arc1"></path></g><g class="text1_g"><text x="-3" y="-132" style="text-anchor: end; font-size: 12px; font-weight: normal; font-family: Arial; font-style: normal;" transform="rotate(0,-3,-132)" dominant-baseline="middle" fill="black" class="text1">sample5</text></g></g><g transform="translate(145,0)" class="legend1"><g class="legend1_1_g"><text x="0" y="-10" style="text-anchor: start; font-size: 12px; font-weight: normal; font-family: Arial; font-style: normal;" transform="rotate(0,0,-10)" dominant-baseline="auto" fill="black" class="legend1_1"></text></g><g class="legend1_2" transform="translate(0,0)"><rect x="0" y="0" width="10" height="10" fill="#e54b34" stroke="" stroke-width="" fill-opacity="1" class="legend1_3"></rect><g class="legend1_4_g"><text x="14" y="5" style="text-anchor: start; font-size: 12px; font-weight: normal; font-family: Arial; font-style: normal;" transform="rotate(0,14,5)" dominant-baseline="middle" fill="black" class="legend1_4">var1</text></g></g><g class="legend1_2" transform="translate(0,13)"><rect x="0" y="0" width="10" height="10" fill="#4cbad4" stroke="" stroke-width="" fill-opacity="1" class="legend1_3"></rect><g class="legend1_4_g"><text x="14" y="5" style="text-anchor: start; font-size: 12px; font-weight: normal; font-family: Arial; font-style: normal;" transform="rotate(0,14,5)" dominant-baseline="middle" fill="black" class="legend1_4">var2</text></g></g><g class="legend1_2" transform="translate(0,26)"><rect x="0" y="0" width="10" height="10" fill="#009f86" stroke="" stroke-width="" fill-opacity="1" class="legend1_3"></rect><g class="legend1_4_g"><text x="14" y="5" style="text-anchor: start; font-size: 12px; font-weight: normal; font-family: Arial; font-style: normal;" transform="rotate(0,14,5)" dominant-baseline="middle" fill="black" class="legend1_4">var3</text></g></g><g class="legend1_2" transform="translate(0,39)"><rect x="0" y="0" width="10" height="10" fill="#3b5387" stroke="" stroke-width="" fill-opacity="1" class="legend1_3"></rect><g class="legend1_4_g"><text x="14" y="5" style="text-anchor: start; font-size: 12px; font-weight: normal; font-family: Arial; font-style: normal;" transform="rotate(0,14,5)" dominant-baseline="middle" fill="black" class="legend1_4">var4</text></g></g><g class="legend1_2" transform="translate(0,52)"><rect x="0" y="0" width="10" height="10" fill="#f29a7f" stroke="" stroke-width="" fill-opacity="1" class="legend1_3"></rect><g class="legend1_4_g"><text x="14" y="5" style="text-anchor: start; font-size: 12px; font-weight: normal; font-family: Arial; font-style: normal;" transform="rotate(0,14,5)" dominant-baseline="middle" fill="black" class="legend1_4">var5</text></g></g></g></g></svg>
