<svg width="540" height="450" id="ngplotSvg"><g transform="translate(0,0)" class="group11"><g class="group7" transform="translate(220,220)"></g><g class="group7" transform="translate(220,220)"></g><g transform="translate(220,220)" class="group5"><g transform="translate(0,0)" class="group2"><g class="group1" transform="translate(0,0)"><path d="M15.536,-76.437A78,78,0,0,1,23.297,-74.44L19.116,-61.079A64,64,0,0,0,12.747,-62.718Z" transform="translate(0,0)" id="e_arc2_0" fill="#b5333b" stroke="black" stroke-width="0" stroke-dasharray="1,0" fill-opacity="1" class="arc2"></path><g class="text5_g"><text x="20.43922723667804" y="-79.41182525271307" style="text-anchor: start; font-size: 10px; font-weight: normal; font-family: Arial; font-style: normal;" transform="rotate(-75.55901883724081,20.43922723667804,-79.41182525271307)" dominant-baseline="middle" fill="black" class="text5">name1</text></g></g><g class="group1" transform="translate(0,0)"><path d="M23.374,-74.415A78,78,0,0,1,30.887,-71.624L25.897,-60.054A65.4,65.4,0,0,0,19.599,-62.394Z" transform="translate(0,0)" id="e_arc2_1" fill="#b5333b" stroke="black" stroke-width="0" stroke-dasharray="1,0" fill-opacity="1" class="arc2"></path><g class="text5_g"><text x="28.559658326637045" y="-76.86576556742118" style="text-anchor: start; font-size: 10px; font-weight: normal; font-family: Arial; font-style: normal;" transform="rotate(-69.60699281745494,28.559658326637045,-76.86576556742118)" dominant-baseline="middle" fill="black" class="text5">name3</text></g></g><g class="group1" transform="translate(0,0)"><path d="M30.961,-71.592A78,78,0,0,1,38.144,-68.037L32.667,-58.268A66.8,66.8,0,0,0,26.515,-61.312Z" transform="translate(0,0)" id="e_arc2_2" fill="#b5333b" stroke="black" stroke-width="0" stroke-dasharray="1,0" fill-opacity="1" class="arc2"></path><g class="text5_g"><text x="36.37247496348875" y="-73.49178909939792" style="text-anchor: start; font-size: 10px; font-weight: normal; font-family: Arial; font-style: normal;" transform="rotate(-63.65496679766906,36.37247496348875,-73.49178909939792)" dominant-baseline="middle" fill="black" class="text5">name5</text></g></g><g class="group1" transform="translate(0,0)"><path d="M38.214,-67.997A78,78,0,0,1,44.99,-63.717L39.337,-55.712A68.2,68.2,0,0,0,33.413,-59.454Z" transform="translate(0,0)" id="e_arc2_3" fill="#b5333b" stroke="black" stroke-width="0" stroke-dasharray="1,0" fill-opacity="1" class="arc2"></path><g class="text5_g"><text x="43.79352574424766" y="-69.32623675700215" style="text-anchor: start; font-size: 10px; font-weight: normal; font-family: Arial; font-style: normal;" transform="rotate(-57.702940777883185,43.79352574424766,-69.32623675700215)" dominant-baseline="middle" fill="black" class="text5">name7</text></g></g><g class="group1" transform="translate(0,0)"><path d="M45.056,-63.671A78,78,0,0,1,51.352,-58.711L45.361,-51.862A68.9,68.9,0,0,0,39.8,-56.242Z" transform="translate(0,0)" id="e_arc2_4" fill="#b5333b" stroke="black" stroke-width="0" stroke-dasharray="1,0" fill-opacity="1" class="arc2"></path><g class="text5_g"><text x="50.7428789536497" y="-64.41397546724822" style="text-anchor: start; font-size: 10px; font-weight: normal; font-family: Arial; font-style: normal;" transform="rotate(-51.7509147580973,50.7428789536497,-64.41397546724822)" dominant-baseline="middle" fill="black" class="text5">name8</text></g></g><g class="group1" transform="translate(0,0)"><path d="M51.413,-58.658A78,78,0,0,1,57.16,-53.073L51.517,-47.834A70.3,70.3,0,0,0,46.337,-52.867Z" transform="translate(0,0)" id="e_arc2_5" fill="#b5333b" stroke="black" stroke-width="0" stroke-dasharray="1,0" fill-opacity="1" class="arc2"></path><g class="text5_g"><text x="57.145683504104426" y="-58.80791491669065" style="text-anchor: start; font-size: 10px; font-weight: normal; font-family: Arial; font-style: normal;" transform="rotate(-45.798888738311426,57.145683504104426,-58.80791491669065)" dominant-baseline="middle" fill="black" class="text5">name10</text></g></g><g class="group1" transform="translate(0,0)"><path d="M57.215,-53.013A78,78,0,0,1,62.353,-46.863L56.757,-42.657A71,71,0,0,0,52.08,-48.256Z" transform="translate(0,0)" id="e_arc2_6" fill="#b5333b" stroke="black" stroke-width="0" stroke-dasharray="1,0" fill-opacity="1" class="arc2"></path><g class="text5_g"><text x="62.9329751524961" y="-52.56843766420407" style="text-anchor: start; font-size: 10px; font-weight: normal; font-family: Arial; font-style: normal;" transform="rotate(-39.84686271852555,62.9329751524961,-52.56843766420407)" dominant-baseline="middle" fill="black" class="text5">name11</text></g></g><g class="group1" transform="translate(0,0)"><path d="M62.402,-46.798A78,78,0,0,1,66.874,-40.148L62.073,-37.265A72.4,72.4,0,0,0,57.921,-43.438Z" transform="translate(0,0)" id="e_arc2_7" fill="#b5333b" stroke="black" stroke-width="0" stroke-dasharray="1,0" fill-opacity="1" class="arc2"></path><g class="text5_g"><text x="68.04241931011808" y="-45.76274876388076" style="text-anchor: start; font-size: 10px; font-weight: normal; font-family: Arial; font-style: normal;" transform="rotate(-33.89483669873966,68.04241931011808,-45.76274876388076)" dominant-baseline="middle" fill="black" class="text5">name13</text></g></g><g class="group1" transform="translate(0,0)"><path d="M66.916,-40.078A78,78,0,0,1,70.675,-33.001L66.235,-30.928A73.1,73.1,0,0,0,62.712,-37.561Z" transform="translate(0,0)" id="e_arc2_8" fill="#b5333b" stroke="black" stroke-width="0" stroke-dasharray="1,0" fill-opacity="1" class="arc2"></path><g class="text5_g"><text x="72.41898244497736" y="-38.464151903221016" style="text-anchor: start; font-size: 10px; font-weight: normal; font-family: Arial; font-style: normal;" transform="rotate(-27.942810678953784,72.41898244497736,-38.464151903221016)" dominant-baseline="middle" fill="black" class="text5">name14</text></g></g><g class="group1" transform="translate(0,0)"><path d="M70.709,-32.927A78,78,0,0,1,73.715,-25.498L70.407,-24.354A74.5,74.5,0,0,0,67.536,-31.45Z" transform="translate(0,0)" id="e_arc2_9" fill="#b5333b" stroke="black" stroke-width="0" stroke-dasharray="1,0" fill-opacity="1" class="arc2"></path><g class="text5_g"><text x="76.01552484483291" y="-30.75125985329041" style="text-anchor: start; font-size: 10px; font-weight: normal; font-family: Arial; font-style: normal;" transform="rotate(-21.9907846591679,76.01552484483291,-30.75125985329041)" dominant-baseline="middle" fill="black" class="text5">name16</text></g></g><g class="group1" transform="translate(0,0)"><path d="M73.741,-25.421A78,78,0,0,1,75.96,-17.721L73.234,-17.084A75.2,75.2,0,0,0,71.094,-24.509Z" transform="translate(0,0)" id="e_arc2_10" fill="#b5333b" stroke="black" stroke-width="0" stroke-dasharray="1,0" fill-opacity="1" class="arc2"></path><g class="text5_g"><text x="78.79330835635126" y="-22.707147735040298" style="text-anchor: start; font-size: 10px; font-weight: normal; font-family: Arial; font-style: normal;" transform="rotate(-16.038758639382024,78.79330835635126,-22.707147735040298)" dominant-baseline="middle" fill="black" class="text5">name17</text></g></g><g class="group1" transform="translate(0,0)"><path d="M75.979,-17.642A78,78,0,0,1,77.388,-9.752L75.304,-9.49A75.9,75.9,0,0,0,73.933,-17.167Z" transform="translate(0,0)" id="e_arc2_11" fill="#b5333b" stroke="black" stroke-width="0" stroke-dasharray="1,0" fill-opacity="1" class="arc2"></path><g class="text5_g"><text x="80.72241363154957" y="-14.418458221911969" style="text-anchor: start; font-size: 10px; font-weight: normal; font-family: Arial; font-style: normal;" transform="rotate(-10.086732619596148,80.72241363154957,-14.418458221911969)" dominant-baseline="middle" fill="black" class="text5">name18</text></g></g><g class="group1" transform="translate(0,0)"><path d="M77.398,-9.672A78,78,0,0,1,77.982,-1.679L77.282,-1.664A77.3,77.3,0,0,0,76.703,-9.585Z" transform="translate(0,0)" id="e_arc2_12" fill="#b5333b" stroke="black" stroke-width="0" stroke-dasharray="1,0" fill-opacity="1" class="arc2"></path><g class="text5_g"><text x="81.7820623873885" y="-5.97446831653605" style="text-anchor: start; font-size: 10px; font-weight: normal; font-family: Arial; font-style: normal;" transform="rotate(-4.134706599810272,81.7820623873885,-5.97446831653605)" dominant-baseline="middle" fill="black" class="text5">name20</text></g></g><g class="group1" transform="translate(0,0)"><path d="M78.683,-1.612A78.7,78.7,0,0,1,78.434,6.47L77.736,6.412A78,78,0,0,0,77.984,-1.598Z" transform="translate(0,0)" id="e_arc2_13" fill="#b5333b" stroke="black" stroke-width="0" stroke-dasharray="1,0" fill-opacity="1" class="arc2"></path><g class="text5_g"><text x="82.66050692510026" y="2.5555028635184653" style="text-anchor: start; font-size: 10px; font-weight: normal; font-family: Arial; font-style: normal;" transform="rotate(1.8173194199756182,82.66050692510026,2.5555028635184653)" dominant-baseline="middle" fill="black" class="text5">name22</text></g></g><g class="group1" transform="translate(0,0)"><path d="M80.52,6.726A80.8,80.8,0,0,1,79.404,14.953L76.653,14.435A78,78,0,0,0,77.729,6.493Z" transform="translate(0,0)" id="e_arc2_14" fill="#b5333b" stroke="black" stroke-width="0" stroke-dasharray="1,0" fill-opacity="1" class="arc2"></path><g class="text5_g"><text x="84.03144775008946" y="11.39103985700978" style="text-anchor: start; font-size: 10px; font-weight: normal; font-family: Arial; font-style: normal;" transform="rotate(7.769345439761494,84.03144775008946,11.39103985700978)" dominant-baseline="middle" fill="black" class="text5">name25</text></g></g><g class="group1" transform="translate(0,0)"><path d="M80.077,15.165A81.5,81.5,0,0,1,78.098,23.302L74.744,22.301A78,78,0,0,0,76.638,14.514Z" transform="translate(0,0)" id="e_arc2_15" fill="#b5333b" stroke="black" stroke-width="0" stroke-dasharray="1,0" fill-opacity="1" class="arc2"></path><g class="text5_g"><text x="83.07846807727888" y="20.204408972611716" style="text-anchor: start; font-size: 10px; font-weight: normal; font-family: Arial; font-style: normal;" transform="rotate(13.72137145954737,83.07846807727888,20.204408972611716)" dominant-baseline="middle" fill="black" class="text5">name26</text></g></g><g class="group1" transform="translate(0,0)"><path d="M80.756,24.186A84.3,84.3,0,0,1,77.848,32.345L72.03,29.928A78,78,0,0,0,74.721,22.379Z" transform="translate(0,0)" id="e_arc2_16" fill="#b5333b" stroke="black" stroke-width="0" stroke-dasharray="1,0" fill-opacity="1" class="arc2"></path><g class="text5_g"><text x="83.17446811580531" y="29.646211455308826" style="text-anchor: start; font-size: 10px; font-weight: normal; font-family: Arial; font-style: normal;" transform="rotate(19.673397479333246,83.17446811580531,29.646211455308826)" dominant-baseline="middle" fill="black" class="text5">name30</text></g></g><g class="group1" transform="translate(0,0)"><path d="M78.46,32.695A85,85,0,0,1,74.691,40.574L68.54,37.232A78,78,0,0,0,71.999,30.003Z" transform="translate(0,0)" id="e_arc2_17" fill="#b5333b" stroke="black" stroke-width="0" stroke-dasharray="1,0" fill-opacity="1" class="arc2"></path><g class="text5_g"><text x="80.2853602153409" y="38.4091256746747" style="text-anchor: start; font-size: 10px; font-weight: normal; font-family: Arial; font-style: normal;" transform="rotate(25.625423499119123,80.2853602153409,38.4091256746747)" dominant-baseline="middle" fill="black" class="text5">name31</text></g></g><g class="group1" transform="translate(0,0)"><path d="M75.264,40.986A85.7,85.7,0,0,1,70.661,48.492L64.312,44.135A78,78,0,0,0,68.502,37.303Z" transform="translate(0,0)" id="e_arc2_18" fill="#b5333b" stroke="black" stroke-width="0" stroke-dasharray="1,0" fill-opacity="1" class="arc2"></path><g class="text5_g"><text x="76.46888316586616" y="46.88923018524736" style="text-anchor: start; font-size: 10px; font-weight: normal; font-family: Arial; font-style: normal;" transform="rotate(31.577449518905,76.46888316586616,46.88923018524736)" dominant-baseline="middle" fill="black" class="text5">name32</text></g></g><g class="group1" transform="translate(0,0)"><path d="M71.187,48.962A86.4,86.4,0,0,1,65.788,56.009L59.392,50.563A78,78,0,0,0,64.266,44.202Z" transform="translate(0,0)" id="e_arc2_19" fill="#b5333b" stroke="black" stroke-width="0" stroke-dasharray="1,0" fill-opacity="1" class="arc2"></path><g class="text5_g"><text x="71.75291509791371" y="54.98799118854576" style="text-anchor: start; font-size: 10px; font-weight: normal; font-family: Arial; font-style: normal;" transform="rotate(37.529475538690875,71.75291509791371,54.98799118854576)" dominant-baseline="middle" fill="black" class="text5">name33</text></g></g><g class="group1" transform="translate(0,0)"><path d="M67.859,57.894A89.2,89.2,0,0,1,61.561,64.552L53.831,56.447A78,78,0,0,0,59.339,50.625Z" transform="translate(0,0)" id="e_arc2_20" fill="#b5333b" stroke="black" stroke-width="0" stroke-dasharray="1,0" fill-opacity="1" class="arc2"></path><g class="text5_g"><text x="67.70129790331352" y="64.05290205921038" style="text-anchor: start; font-size: 10px; font-weight: normal; font-family: Arial; font-style: normal;" transform="rotate(43.481501558476765,67.70129790331352,64.05290205921038)" dominant-baseline="middle" fill="black" class="text5">name27</text></g></g><g class="group1" transform="translate(0,0)"><path d="M61.976,65.123A89.9,89.9,0,0,1,54.967,71.138L47.691,61.722A78,78,0,0,0,53.772,56.502Z" transform="translate(0,0)" id="e_arc2_21" fill="#b5333b" stroke="black" stroke-width="0" stroke-dasharray="1,0" fill-opacity="1" class="arc2"></path><g class="text5_g"><text x="61.15392501677729" y="71.25592926235949" style="text-anchor: start; font-size: 10px; font-weight: normal; font-family: Arial; font-style: normal;" transform="rotate(49.43352757826264,61.15392501677729,71.25592926235949)" dominant-baseline="middle" fill="black" class="text5">name28</text></g></g><g class="group1" transform="translate(0,0)"><path d="M55.32,71.75A90.6,90.6,0,0,1,47.666,77.047L41.037,66.332A78,78,0,0,0,47.627,61.771Z" transform="translate(0,0)" id="e_arc2_22" fill="#b5333b" stroke="black" stroke-width="0" stroke-dasharray="1,0" fill-opacity="1" class="arc2"></path><g class="text5_g"><text x="53.837757182873624" y="77.78596211089723" style="text-anchor: start; font-size: 10px; font-weight: normal; font-family: Arial; font-style: normal;" transform="rotate(55.38555359804852,53.837757182873624,77.78596211089723)" dominant-baseline="middle" fill="black" class="text5">name29</text></g></g><g class="group1" transform="translate(0,0)"><path d="M50.527,81.862A96.2,96.2,0,0,1,41.861,86.615L33.941,70.228A78,78,0,0,0,40.968,66.375Z" transform="translate(0,0)" id="e_arc2_23" fill="#b5333b" stroke="black" stroke-width="0" stroke-dasharray="1,0" fill-opacity="1" class="arc2"></path><g class="text5_g"><text x="48.178426021862556" y="87.85715261750701" style="text-anchor: start; font-size: 10px; font-weight: normal; font-family: Arial; font-style: normal;" transform="rotate(61.33757961783439,48.178426021862556,87.85715261750701)" dominant-baseline="middle" fill="black" class="text5">name35</text></g></g><g class="group1" transform="translate(0,0)"><path d="M45.418,94.225A104.6,104.6,0,0,1,35.51,98.388L26.48,73.368A78,78,0,0,0,33.868,70.263Z" transform="translate(0,0)" id="e_arc2_24" fill="#b5333b" stroke="black" stroke-width="0" stroke-dasharray="1,0" fill-opacity="1" class="arc2"></path><g class="text5_g"><text x="42.06695206550443" y="100.12158380648279" style="text-anchor: start; font-size: 10px; font-weight: normal; font-family: Arial; font-style: normal;" transform="rotate(67.28960563762027,42.06695206550443,100.12158380648279)" dominant-baseline="middle" fill="black" class="text5">name37</text></g></g><g class="group1" transform="translate(0,0)"><path d="M37.54,104.353A110.9,110.9,0,0,1,26.634,107.654L18.733,75.717A78,78,0,0,0,26.403,73.395Z" transform="translate(0,0)" id="e_arc2_25" fill="#b5333b" stroke="black" stroke-width="0" stroke-dasharray="1,0" fill-opacity="1" class="arc2"></path><g class="text5_g"><text x="33.288696170378635" y="109.97214514265065" style="text-anchor: start; font-size: 10px; font-weight: normal; font-family: Arial; font-style: normal;" transform="rotate(73.24163165740615,33.288696170378635,109.97214514265065)" dominant-baseline="middle" fill="black" class="text5">name36</text></g></g><g class="group1" transform="translate(0,0)"><path d="M26.857,109.041A112.3,112.3,0,0,1,15.527,111.221L10.785,77.251A78,78,0,0,0,18.654,75.736Z" transform="translate(0,0)" id="e_arc2_26" fill="#b5333b" stroke="black" stroke-width="0" stroke-dasharray="1,0" fill-opacity="1" class="arc2"></path><g class="text5_g"><text x="21.976086034748846" y="114.2048232019704" style="text-anchor: start; font-size: 10px; font-weight: normal; font-family: Arial; font-style: normal;" transform="rotate(79.19365767719202,21.976086034748846,114.2048232019704)" dominant-baseline="middle" fill="black" class="text5">name38</text></g></g><g class="group1" transform="translate(0,0)"><path d="M-39.805,105.009A112.3,112.3,0,0,1,-50.37,100.37L-34.986,69.714A78,78,0,0,0,-27.647,72.936Z" transform="translate(0,0)" id="e_arc2_27" fill="#4798ac" stroke="black" stroke-width="0" stroke-dasharray="1,0" fill-opacity="1" class="arc2"></path><g class="text5_g"><text x="-46.75541432722829" y="106.48765764673958" style="text-anchor: end; font-size: 10px; font-weight: normal; font-family: Arial; font-style: normal;" transform="rotate(293.8081040791435,-46.75541432722829,106.48765764673958)" dominant-baseline="middle" fill="black" class="text5">name58</text></g></g><g class="group1" transform="translate(0,0)"><path d="M-47.013,93.439A104.6,104.6,0,0,1,-56.353,88.122L-42.022,65.712A78,78,0,0,0,-35.058,69.677Z" transform="translate(0,0)" id="e_arc2_28" fill="#4798ac" stroke="black" stroke-width="0" stroke-dasharray="1,0" fill-opacity="1" class="arc2"></path><g class="text5_g"><text x="-53.7307135313352" y="94.37674726018902" style="text-anchor: end; font-size: 10px; font-weight: normal; font-family: Arial; font-style: normal;" transform="rotate(299.7601300989294,-53.7307135313352,94.37674726018902)" dominant-baseline="middle" fill="black" class="text5">name57</text></g></g><g class="group1" transform="translate(0,0)"><path d="M-56.067,87.474A103.9,103.9,0,0,1,-64.747,81.259L-48.607,61.003A78,78,0,0,0,-42.091,65.669Z" transform="translate(0,0)" id="e_arc2_29" fill="#4798ac" stroke="black" stroke-width="0" stroke-dasharray="1,0" fill-opacity="1" class="arc2"></path><g class="text5_g"><text x="-62.8153547255732" y="87.73050330814483" style="text-anchor: end; font-size: 10px; font-weight: normal; font-family: Arial; font-style: normal;" transform="rotate(305.71215611871526,-62.8153547255732,87.73050330814483)" dominant-baseline="middle" fill="black" class="text5">name56</text></g></g><g class="group1" transform="translate(0,0)"><path d="M-60.026,75.175A96.2,96.2,0,0,1,-67.423,68.619L-54.668,55.637A78,78,0,0,0,-48.67,60.953Z" transform="translate(0,0)" id="e_arc2_30" fill="#4798ac" stroke="black" stroke-width="0" stroke-dasharray="1,0" fill-opacity="1" class="arc2"></path><g class="text5_g"><text x="-66.46235900811519" y="74.98529745941141" style="text-anchor: end; font-size: 10px; font-weight: normal; font-family: Arial; font-style: normal;" transform="rotate(311.66418213850113,-66.46235900811519,74.98529745941141)" dominant-baseline="middle" fill="black" class="text5">name55</text></g></g><g class="group1" transform="translate(0,0)"><path d="M-62.092,63.062A88.5,88.5,0,0,1,-68.235,56.358L-60.14,49.671A78,78,0,0,0,-54.725,55.58Z" transform="translate(0,0)" id="e_arc2_31" fill="#4798ac" stroke="black" stroke-width="0" stroke-dasharray="1,0" fill-opacity="1" class="arc2"></path><g class="text5_g"><text x="-68.19904413443585" y="62.4911224027003" style="text-anchor: end; font-size: 10px; font-weight: normal; font-family: Arial; font-style: normal;" transform="rotate(317.616208158287,-68.19904413443585,62.4911224027003)" dominant-baseline="middle" fill="black" class="text5">name54</text></g></g><g class="group1" transform="translate(0,0)"><path d="M-62.352,51.39A80.8,80.8,0,0,1,-67.296,44.72L-64.964,43.171A78,78,0,0,0,-60.191,49.609Z" transform="translate(0,0)" id="e_arc2_32" fill="#4798ac" stroke="black" stroke-width="0" stroke-dasharray="1,0" fill-opacity="1" class="arc2"></path><g class="text5_g"><text x="-68.12286356537633" y="50.50064811121855" style="text-anchor: end; font-size: 10px; font-weight: normal; font-family: Arial; font-style: normal;" transform="rotate(323.5682341780729,-68.12286356537633,50.50064811121855)" dominant-baseline="middle" fill="black" class="text5">name53</text></g></g><g class="group1" transform="translate(0,0)"><path d="M-66.759,44.264A80.1,80.1,0,0,1,-70.948,37.18L-69.088,36.205A78,78,0,0,0,-65.009,43.103Z" transform="translate(0,0)" id="e_arc2_33" fill="#4798ac" stroke="black" stroke-width="0" stroke-dasharray="1,0" fill-opacity="1" class="arc2"></path><g class="text5_g"><text x="-72.38753296789012" y="42.81185666170787" style="text-anchor: end; font-size: 10px; font-weight: normal; font-family: Arial; font-style: normal;" transform="rotate(329.52026019785876,-72.38753296789012,42.81185666170787)" dominant-baseline="middle" fill="black" class="text5">name52</text></g></g><g class="group1" transform="translate(0,0)"><path d="M-70.367,36.782A79.4,79.4,0,0,1,-73.769,29.367L-72.469,28.85A78,78,0,0,0,-69.126,36.133Z" transform="translate(0,0)" id="e_arc2_34" fill="#4798ac" stroke="black" stroke-width="0" stroke-dasharray="1,0" fill-opacity="1" class="arc2"></path><g class="text5_g"><text x="-75.79865558746602" y="34.78683387623408" style="text-anchor: end; font-size: 10px; font-weight: normal; font-family: Arial; font-style: normal;" transform="rotate(335.47228621764464,-75.79865558746602,34.78683387623408)" dominant-baseline="middle" fill="black" class="text5">name51</text></g></g><g class="group1" transform="translate(0,0)"><path d="M-73.149,29.033A78.7,78.7,0,0,1,-75.742,21.373L-75.068,21.183A78,78,0,0,0,-72.499,28.774Z" transform="translate(0,0)" id="e_arc2_35" fill="#4798ac" stroke="black" stroke-width="0" stroke-dasharray="1,0" fill-opacity="1" class="arc2"></path><g class="text5_g"><text x="-78.3328325121126" y="26.518999804466876" style="text-anchor: end; font-size: 10px; font-weight: normal; font-family: Arial; font-style: normal;" transform="rotate(341.4243122374305,-78.3328325121126,26.518999804466876)" dominant-baseline="middle" fill="black" class="text5">name50</text></g></g><g class="group1" transform="translate(0,0)"><path d="M-75.09,21.105A78,78,0,0,1,-76.86,13.289A78,78,0,0,0,-75.09,21.105Z" transform="translate(0,0)" id="e_arc2_36" fill="#4798ac" stroke="black" stroke-width="0" stroke-dasharray="1,0" fill-opacity="1" class="arc2"></path><g class="text5_g"><text x="-79.97676224844776" y="18.1029693767421" style="text-anchor: end; font-size: 10px; font-weight: normal; font-family: Arial; font-style: normal;" transform="rotate(347.3763382572164,-79.97676224844776,18.1029693767421)" dominant-baseline="middle" fill="black" class="text5">name49</text></g></g><g class="group1" transform="translate(0,0)"><path d="M-76.873,13.209A78,78,0,0,1,-77.823,5.251L-77.125,5.204A77.3,77.3,0,0,0,-76.184,13.091Z" transform="translate(0,0)" id="e_arc2_37" fill="#4798ac" stroke="black" stroke-width="0" stroke-dasharray="1,0" fill-opacity="1" class="arc2"></path><g class="text5_g"><text x="-81.42230169202212" y="9.716418433421465" style="text-anchor: end; font-size: 10px; font-weight: normal; font-family: Arial; font-style: normal;" transform="rotate(353.32836427700227,-81.42230169202212,9.716418433421465)" dominant-baseline="middle" fill="black" class="text5">name48</text></g></g><g class="group1" transform="translate(0,0)"><path d="M-77.828,5.171A78,78,0,0,1,-77.948,-2.843L-76.549,-2.792A76.6,76.6,0,0,0,-76.432,5.078Z" transform="translate(0,0)" id="e_arc2_38" fill="#4798ac" stroke="black" stroke-width="0" stroke-dasharray="1,0" fill-opacity="1" class="arc2"></path><g class="text5_g"><text x="-81.99084616180268" y="1.2252125005916996" style="text-anchor: end; font-size: 10px; font-weight: normal; font-family: Arial; font-style: normal;" transform="rotate(359.2803902967882,-81.99084616180268,1.2252125005916996)" dominant-baseline="middle" fill="black" class="text5">name47</text></g></g><g class="group1" transform="translate(0,0)"><path d="M-77.945,-2.924A78,78,0,0,1,-77.234,-10.906L-75.154,-10.613A75.9,75.9,0,0,0,-75.847,-2.845Z" transform="translate(0,0)" id="e_arc2_39" fill="#4798ac" stroke="black" stroke-width="0" stroke-dasharray="1,0" fill-opacity="1" class="arc2"></path><g class="text5_g"><text x="-81.67627189768916" y="-7.279190126295089" style="text-anchor: end; font-size: 10px; font-weight: normal; font-family: Arial; font-style: normal;" transform="rotate(365.232416316574,-81.67627189768916,-7.279190126295089)" dominant-baseline="middle" fill="black" class="text5">name46</text></g></g><g class="group1" transform="translate(0,0)"><path d="M-77.222,-10.986A78,78,0,0,1,-75.687,-18.852L-72.97,-18.176A75.2,75.2,0,0,0,-74.45,-10.592Z" transform="translate(0,0)" id="e_arc2_40" fill="#4798ac" stroke="black" stroke-width="0" stroke-dasharray="1,0" fill-opacity="1" class="arc2"></path><g class="text5_g"><text x="-80.48196716116249" y="-15.705189010946771" style="text-anchor: end; font-size: 10px; font-weight: normal; font-family: Arial; font-style: normal;" transform="rotate(371.18444233635995,-80.48196716116249,-15.705189010946771)" dominant-baseline="middle" fill="black" class="text5">name45</text></g></g><g class="group1" transform="translate(0,0)"><path d="M-75.668,-18.931A78,78,0,0,1,-73.326,-26.595L-70.036,-25.402A74.5,74.5,0,0,0,-72.272,-18.081Z" transform="translate(0,0)" id="e_arc2_41" fill="#4798ac" stroke="black" stroke-width="0" stroke-dasharray="1,0" fill-opacity="1" class="arc2"></path><g class="text5_g"><text x="-78.42079574051341" y="-23.962028199313043" style="text-anchor: end; font-size: 10px; font-weight: normal; font-family: Arial; font-style: normal;" transform="rotate(377.1364683561458,-78.42079574051341,-23.962028199313043)" dominant-baseline="middle" fill="black" class="text5">name44</text></g></g><g class="group1" transform="translate(0,0)"><path d="M-73.298,-26.671A78,78,0,0,1,-70.175,-34.052L-66.396,-32.218A73.8,73.8,0,0,0,-69.351,-25.235Z" transform="translate(0,0)" id="e_arc2_42" fill="#4798ac" stroke="black" stroke-width="0" stroke-dasharray="1,0" fill-opacity="1" class="arc2"></path><g class="text5_g"><text x="-75.51495839571153" y="-31.960773746797116" style="text-anchor: end; font-size: 10px; font-weight: normal; font-family: Arial; font-style: normal;" transform="rotate(383.0884943759317,-75.51495839571153,-31.960773746797116)" dominant-baseline="middle" fill="black" class="text5">name43</text></g></g><g class="group1" transform="translate(0,0)"><path d="M-70.139,-34.125A78,78,0,0,1,-66.267,-41.142L-62.105,-38.557A73.1,73.1,0,0,0,-65.733,-31.981Z" transform="translate(0,0)" id="e_arc2_43" fill="#4798ac" stroke="black" stroke-width="0" stroke-dasharray="1,0" fill-opacity="1" class="arc2"></path><g class="text5_g"><text x="-71.79575373528421" y="-39.6152716207074" style="text-anchor: end; font-size: 10px; font-weight: normal; font-family: Arial; font-style: normal;" transform="rotate(389.0405203957176,-71.79575373528421,-39.6152716207074)" dominant-baseline="middle" fill="black" class="text5">name42</text></g></g><g class="group1" transform="translate(0,0)"><path d="M-66.225,-41.21A78,78,0,0,1,-61.647,-47.788L-57.221,-44.357A72.4,72.4,0,0,0,-61.47,-38.252Z" transform="translate(0,0)" id="e_arc2_44" fill="#4798ac" stroke="black" stroke-width="0" stroke-dasharray="1,0" fill-opacity="1" class="arc2"></path><g class="text5_g"><text x="-67.30324110078678" y="-46.84307566043637" style="text-anchor: end; font-size: 10px; font-weight: normal; font-family: Arial; font-style: normal;" transform="rotate(394.99254641550345,-67.30324110078678,-46.84307566043637)" dominant-baseline="middle" fill="black" class="text5">name41</text></g></g><g class="group1" transform="translate(0,0)"><path d="M-61.597,-47.852A78,78,0,0,1,-56.362,-53.92L-51.809,-49.565A71.7,71.7,0,0,0,-56.622,-43.987Z" transform="translate(0,0)" id="e_arc2_45" fill="#4798ac" stroke="black" stroke-width="0" stroke-dasharray="1,0" fill-opacity="1" class="arc2"></path><g class="text5_g"><text x="-62.0858090899165" y="-53.566335600360425" style="text-anchor: end; font-size: 10px; font-weight: normal; font-family: Arial; font-style: normal;" transform="rotate(400.94457243528933,-62.0858090899165,-53.566335600360425)" dominant-baseline="middle" fill="black" class="text5">name40</text></g></g><g class="group1" transform="translate(0,0)"><path d="M-56.306,-53.979A78,78,0,0,1,-50.47,-59.471L-45.94,-54.134A71,71,0,0,0,-51.253,-49.134Z" transform="translate(0,0)" id="e_arc2_46" fill="#4798ac" stroke="black" stroke-width="0" stroke-dasharray="1,0" fill-opacity="1" class="arc2"></path><g class="text5_g"><text x="-56.199654365682896" y="-59.71263559061667" style="text-anchor: end; font-size: 10px; font-weight: normal; font-family: Arial; font-style: normal;" transform="rotate(406.8965984550752,-56.199654365682896,-59.71263559061667)" dominant-baseline="middle" fill="black" class="text5">name39</text></g></g><g class="text3_g"><text x="0" y="0" style="text-anchor: middle; font-size: 12px; font-weight: normal; font-family: Arial; font-style: normal;" transform="rotate(0,0,0)" dominant-baseline="middle" fill="black" class="text3"></text></g></g><g transform="translate(0,0)" class="group3"><line x1="0" y1="-50" x2="0" y2="-120" stroke="black" stroke-width="1" stroke-dasharray="1,0" class="line_v1"></line><g class="group4" transform="translate(0,-50)"><line x1="0" y1="0" x2="-3" y2="0" stroke="black" stroke-width="1" stroke-dasharray="1,0" class="line_h1"></line><g class="text1_g"><text x="-6" y="0" style="text-anchor: end; font-size: 10px; font-weight: normal; font-family: Arial; font-style: normal;" transform="rotate(0,-6,0)" dominant-baseline="middle" fill="black" class="text1">-40</text></g></g><g class="group4" transform="translate(0,-64)"><line x1="0" y1="0" x2="-3" y2="0" stroke="black" stroke-width="1" stroke-dasharray="1,0" class="line_h1"></line><g class="text1_g"><text x="-6" y="0" style="text-anchor: end; font-size: 10px; font-weight: normal; font-family: Arial; font-style: normal;" transform="rotate(0,-6,0)" dominant-baseline="middle" fill="black" class="text1">-20</text></g></g><g class="group4" transform="translate(0,-78)"><line x1="0" y1="0" x2="-3" y2="0" stroke="black" stroke-width="1" stroke-dasharray="1,0" class="line_h1"></line><g class="text1_g"><text x="-6" y="0" style="text-anchor: end; font-size: 10px; font-weight: normal; font-family: Arial; font-style: normal;" transform="rotate(0,-6,0)" dominant-baseline="middle" fill="black" class="text1">0</text></g></g><g class="group4" transform="translate(0,-92)"><line x1="0" y1="0" x2="-3" y2="0" stroke="black" stroke-width="1" stroke-dasharray="1,0" class="line_h1"></line><g class="text1_g"><text x="-6" y="0" style="text-anchor: end; font-size: 10px; font-weight: normal; font-family: Arial; font-style: normal;" transform="rotate(0,-6,0)" dominant-baseline="middle" fill="black" class="text1">20</text></g></g><g class="group4" transform="translate(0,-106)"><line x1="0" y1="0" x2="-3" y2="0" stroke="black" stroke-width="1" stroke-dasharray="1,0" class="line_h1"></line><g class="text1_g"><text x="-6" y="0" style="text-anchor: end; font-size: 10px; font-weight: normal; font-family: Arial; font-style: normal;" transform="rotate(0,-6,0)" dominant-baseline="middle" fill="black" class="text1">40</text></g></g><g class="group4" transform="translate(0,-120)"><line x1="0" y1="0" x2="-3" y2="0" stroke="black" stroke-width="1" stroke-dasharray="1,0" class="line_h1"></line><g class="text1_g"><text x="-6" y="0" style="text-anchor: end; font-size: 10px; font-weight: normal; font-family: Arial; font-style: normal;" transform="rotate(0,-6,0)" dominant-baseline="middle" fill="black" class="text1">60</text></g></g><g class="text6_g"><text x="6" y="-85" style="text-anchor: start; font-size: 12px; font-weight: normal; font-family: Arial; font-style: normal;" transform="rotate(-90,6,-85)" dominant-baseline="middle" fill="black" class="text6">xxx</text></g></g></g><g class="group10" transform="translate(220,220)"><g transform="translate(0,0)" class="pathtext1"><g class="pathtext1_1_g"><text x="0" y="0" style="text-anchor: middle; font-size: 12px; font-weight: normal; font-family: Arial; font-style: normal;" transform="rotate(0,0,0)" dominant-baseline="middle" fill="#b5333b" class="pathtext1_1_t"><textPath href="#e_pathtext1_2_0" dy="0" startOffset="50%" class="pathtext1_1">Before Treatment</textPath></text></g><path d=" M -35.86780454497613 -34.83533546735828 A 50 50 0 1 1 -37.951163775633106 32.5531744700125" id="e_pathtext1_2_0" fill="none" stroke="black" stroke-width="0" stroke-dasharray="1,0" fill-opacity="1" transform="rotate(0,0,0)" class="pathtext1_2"></path></g></g><g class="group10" transform="translate(220,220)"><g transform="translate(0,0)" class="pathtext1"><g class="pathtext1_1_g"><text x="0" y="0" style="text-anchor: middle; font-size: 12px; font-weight: normal; font-family: Arial; font-style: normal;" transform="rotate(0,0,0)" dominant-baseline="middle" fill="#4798ac" class="pathtext1_1_t"><textPath href="#e_pathtext1_2_1" dy="0" startOffset="50%" class="pathtext1_1">After Treatment</textPath></text></g><path d=" M 29.787069206363565 40.15881606939263 A 50 50 0 1 1 14.623783621493489 -47.81364818325139" id="e_pathtext1_2_1" fill="none" stroke="black" stroke-width="0" stroke-dasharray="1,0" fill-opacity="1" transform="rotate(0,0,0)" class="pathtext1_2"></path></g></g></g></svg>
