<svg width="450" height="450" id="ngplotSvg"><g transform="translate(240,200)" class="cSlN2Axis1"><g class="group2" transform="translate(0,0)"><g class="text1_g"><text x="125.53517672638993" y="-72.56665490618984" style="text-anchor: middle; font-size: 12px; font-weight: bold; font-family: Arial; font-style: normal;" transform="rotate(59.96958255702617,125.53517672638993,-72.56665490618984)" dominant-baseline="auto" fill="#f8766d" class="text1">aaaa</text></g></g><g class="group2" transform="translate(0,0)"><g class="text1_g"><text x="0.23093467289065447" y="144.99981610049323" style="text-anchor: middle; font-size: 12px; font-weight: bold; font-family: Arial; font-style: normal;" transform="rotate(359.90874767107846,0.23093467289065447,144.99981610049323)" dominant-baseline="auto" fill="#bb9d00" class="text1">bbbb</text></g></g><g class="group2" transform="translate(0,0)"><g class="text1_g"><text x="-125.76568657155867" y="-72.16641934573494" style="text-anchor: middle; font-size: 12px; font-weight: bold; font-family: Arial; font-style: normal;" transform="rotate(299.8479127851308,-125.76568657155867,-72.16641934573494)" dominant-baseline="auto" fill="#00b81f" class="text1">cccc</text></g></g><g class="group1" transform="translate(0,0)"><circle cx="0" cy="0" r="20" stroke="black" stroke-width="0.1" stroke-dasharray="1,0" fill="none" fill-opacity="1" class="circle1"></circle></g><g class="group1" transform="translate(0,0)"><circle cx="0" cy="0" r="45" stroke="black" stroke-width="0.1" stroke-dasharray="1,0" fill="none" fill-opacity="1" class="circle1"></circle></g><g class="group1" transform="translate(0,0)"><circle cx="0" cy="0" r="70" stroke="black" stroke-width="0.1" stroke-dasharray="1,0" fill="none" fill-opacity="1" class="circle1"></circle></g><g class="group1" transform="translate(0,0)"><circle cx="0" cy="0" r="95" stroke="black" stroke-width="0.1" stroke-dasharray="1,0" fill="none" fill-opacity="1" class="circle1"></circle></g><g class="group1" transform="translate(0,0)"><circle cx="0" cy="0" r="120" stroke="black" stroke-width="0.1" stroke-dasharray="1,0" fill="none" fill-opacity="1" class="circle1"></circle></g><g transform="translate(0,0)" class="cSlN2Axis1_1"><circle cx="0" cy="0" r="20" stroke="black" stroke-width="0.2" stroke-dasharray="1,0" fill="none" fill-opacity="1" class="cSlN2Axis1_2"></circle><g class="cSlN2Axis1_3" transform="translate(0,0)"><g class="cSlN2Axis1_5_g"><text x="64.97011334360332" y="-112.60055227271019" style="text-anchor: middle; font-size: 12px; font-weight: normal; font-family: Arial; font-style: normal;" transform="rotate(29.984791278513057,64.97011334360332,-112.60055227271019)" dominant-baseline="middle" fill="black" class="cSlN2Axis1_5">name1</text></g></g><g class="cSlN2Axis1_3" transform="translate(0,0)"><g class="cSlN2Axis1_5_g"><text x="129.9999587811385" y="-0.1035224723953531" style="text-anchor: middle; font-size: 12px; font-weight: normal; font-family: Arial; font-style: normal;" transform="rotate(89.95437383553923,129.9999587811385,-0.1035224723953531)" dominant-baseline="middle" fill="black" class="cSlN2Axis1_5">name2</text></g></g><g class="cSlN2Axis1_3" transform="translate(0,0)"><g class="cSlN2Axis1_5_g"><text x="65.14936454177297" y="112.49693462402952" style="text-anchor: middle; font-size: 12px; font-weight: normal; font-family: Arial; font-style: normal;" transform="rotate(329.9239563925654,65.14936454177297,112.49693462402952)" dominant-baseline="middle" fill="black" class="cSlN2Axis1_5">name1</text></g></g><g class="cSlN2Axis1_3" transform="translate(0,0)"><g class="cSlN2Axis1_5_g"><text x="-64.79069734582261" y="112.7038843050319" style="text-anchor: middle; font-size: 12px; font-weight: normal; font-family: Arial; font-style: normal;" transform="rotate(389.89353894959163,-64.79069734582261,112.7038843050319)" dominant-baseline="middle" fill="black" class="cSlN2Axis1_5">name2</text></g></g><g class="cSlN2Axis1_3" transform="translate(0,0)"><g class="cSlN2Axis1_5_g"><text x="-129.99962903040333" y="0.3105671545966" style="text-anchor: middle; font-size: 12px; font-weight: normal; font-family: Arial; font-style: normal;" transform="rotate(449.86312150661774,-129.99962903040333,0.3105671545966)" dominant-baseline="middle" fill="black" class="cSlN2Axis1_5">name1</text></g></g><g class="cSlN2Axis1_3" transform="translate(0,0)"><g class="cSlN2Axis1_5_g"><text x="-65.3284504856529" y="-112.39303162182074" style="text-anchor: middle; font-size: 12px; font-weight: normal; font-family: Arial; font-style: normal;" transform="rotate(329.83270406364386,-65.3284504856529,-112.39303162182074)" dominant-baseline="middle" fill="black" class="cSlN2Axis1_5">name2</text></g></g><g class="cSlN2Axis1_6_g"><text x="0" y="0" style="text-anchor: middle; font-size: 12px; font-weight: normal; font-family: Arial; font-style: normal;" transform="rotate(0,0,0)" dominant-baseline="middle" fill="black" class="cSlN2Axis1_6"></text></g></g><g transform="translate(0,0)" class="cSlN2Axis1_7"><g class="cSlN2Axis1_9" transform="translate(0,-20)"><line x1="10" y1="0" x2="-10" y2="0" stroke="black" stroke-width="0.2" stroke-dasharray="1,0" class="cSlN2Axis1_10"></line><g class="cSlN2Axis1_11_g"><text x="0" y="0" style="text-anchor: middle; font-size: 10px; font-weight: normal; font-family: Arial; font-style: normal;" transform="rotate(0,0,0)" dominant-baseline="middle" fill="black" class="cSlN2Axis1_11">0</text></g></g><g class="cSlN2Axis1_9" transform="translate(0,-45)"><line x1="10" y1="0" x2="-10" y2="0" stroke="black" stroke-width="0.2" stroke-dasharray="1,0" class="cSlN2Axis1_10"></line><g class="cSlN2Axis1_11_g"><text x="0" y="0" style="text-anchor: middle; font-size: 10px; font-weight: normal; font-family: Arial; font-style: normal;" transform="rotate(0,0,0)" dominant-baseline="middle" fill="black" class="cSlN2Axis1_11">20</text></g></g><g class="cSlN2Axis1_9" transform="translate(0,-70)"><line x1="10" y1="0" x2="-10" y2="0" stroke="black" stroke-width="0.2" stroke-dasharray="1,0" class="cSlN2Axis1_10"></line><g class="cSlN2Axis1_11_g"><text x="0" y="0" style="text-anchor: middle; font-size: 10px; font-weight: normal; font-family: Arial; font-style: normal;" transform="rotate(0,0,0)" dominant-baseline="middle" fill="black" class="cSlN2Axis1_11">40</text></g></g><g class="cSlN2Axis1_9" transform="translate(0,-95)"><line x1="10" y1="0" x2="-10" y2="0" stroke="black" stroke-width="0.2" stroke-dasharray="1,0" class="cSlN2Axis1_10"></line><g class="cSlN2Axis1_11_g"><text x="0" y="0" style="text-anchor: middle; font-size: 10px; font-weight: normal; font-family: Arial; font-style: normal;" transform="rotate(0,0,0)" dominant-baseline="middle" fill="black" class="cSlN2Axis1_11">60</text></g></g><g class="cSlN2Axis1_9" transform="translate(0,-120)"><line x1="10" y1="0" x2="-10" y2="0" stroke="black" stroke-width="0.2" stroke-dasharray="1,0" class="cSlN2Axis1_10"></line><g class="cSlN2Axis1_11_g"><text x="0" y="0" style="text-anchor: middle; font-size: 10px; font-weight: normal; font-family: Arial; font-style: normal;" transform="rotate(0,0,0)" dominant-baseline="middle" fill="black" class="cSlN2Axis1_11">80</text></g></g></g><g class="box1" transform="translate(0,0)"><path d="M24.834,-92.732A96,96,0,0,1,67.855,-67.909L67.148,-67.202A95,95,0,0,0,24.576,-91.766Z" transform="translate(0,0)" id="e_arc1_0" fill="black" stroke="black" stroke-width="0" stroke-dasharray="1,0" fill-opacity="1" class="arc1"></path><line x1="47.47815975109473" y1="-82.28501896851898" x2="36.8580450699288" y2="-63.879159462402896" stroke="black" stroke-width="1" stroke-dasharray="1,0" class="line2"></line><path d="M19.078,-71.24A73.75,73.75,0,0,1,52.128,-52.17L25.622,-25.643A36.25,36.25,0,0,0,9.378,-35.016Z" transform="translate(0,0)" id="e_arc2_0" fill="#f8766d" stroke="black" stroke-width="1" stroke-dasharray="1,0" fill-opacity="1" class="arc2"></path><line x1="18.116666220812462" y1="-31.39823092219803" x2="16.24252833590083" y2="-28.150138068177547" stroke="black" stroke-width="1" stroke-dasharray="1,0" class="line3"></line><path d="M8.666,-32.36A33.5,33.5,0,0,1,23.679,-23.698L22.972,-22.99A32.5,32.5,0,0,0,8.407,-31.394Z" transform="translate(0,0)" id="e_arc3_0" fill="black" stroke="black" stroke-width="0" stroke-dasharray="1,0" fill-opacity="1" class="arc3"></path><path d="M16.104,-60.131A62.25,62.25,0,0,1,44,-44.035L43.293,-43.328A61.25,61.25,0,0,0,15.845,-59.165Z" transform="translate(0,0)" id="e_arc4_0" fill="black" stroke="black" stroke-width="0" stroke-dasharray="1,0" fill-opacity="1" class="arc4"></path><g class="xSameDots1" transform="translate(0,0)"><circle cx="53.72528603413351" cy="-93.11199514858727" r="2" stroke="#141414" stroke-width="0" stroke-dasharray="1,0" fill="#f8766d" fill-opacity="1" class="xSameDots1_1"></circle></g><g class="xSameDots1" transform="translate(0,0)"><circle cx="64.94161520019797" cy="-90.32800847571818" r="2" stroke="#141414" stroke-width="0" stroke-dasharray="1,0" fill="#f8766d" fill-opacity="1" class="xSameDots1_1"></circle></g><g class="xSameDots1" transform="translate(0,0)"><circle cx="44.161194778229834" cy="-98.01040187530732" r="2" stroke="#141414" stroke-width="0" stroke-dasharray="1,0" fill="#f8766d" fill-opacity="1" class="xSameDots1_1"></circle></g><g class="xSameDots1" transform="translate(0,0)"><circle cx="35.347342931451756" cy="-105.48520203178428" r="2" stroke="#141414" stroke-width="0" stroke-dasharray="1,0" fill="#f8766d" fill-opacity="1" class="xSameDots1_1"></circle></g><g class="xSameDots1" transform="translate(0,0)"><circle cx="56.848849175652894" cy="-98.52548323862142" r="2" stroke="#141414" stroke-width="0" stroke-dasharray="1,0" fill="#f8766d" fill-opacity="1" class="xSameDots1_1"></circle></g><g class="xSameDots1" transform="translate(0,0)"><circle cx="15.323302462968062" cy="-21.3133503144953" r="2" stroke="#141414" stroke-width="0" stroke-dasharray="1,0" fill="#f8766d" fill-opacity="1" class="xSameDots1_1"></circle></g><g class="xSameDots1" transform="translate(0,0)"><circle cx="10.270045297262751" cy="-22.79311671518775" r="2" stroke="#141414" stroke-width="0" stroke-dasharray="1,0" fill="#f8766d" fill-opacity="1" class="xSameDots1_1"></circle></g><g class="xSameDots1" transform="translate(0,0)"><circle cx="11.869539937773682" cy="-20.571254742129746" r="2" stroke="#141414" stroke-width="0" stroke-dasharray="1,0" fill="#f8766d" fill-opacity="1" class="xSameDots1_1"></circle></g></g><g class="box1" transform="translate(0,0)"><path d="M96.334,-25.881A99.75,99.75,0,0,1,96.375,25.728L95.409,25.47A98.75,98.75,0,0,0,95.368,-25.622Z" transform="translate(0,0)" id="e_arc1_1" fill="black" stroke="black" stroke-width="0" stroke-dasharray="1,0" fill-opacity="1" class="arc1"></path><line x1="98.74996868951867" y1="-0.07863726268493168" x2="84.99997304920595" y2="-0.06768777041234626" stroke="black" stroke-width="1" stroke-dasharray="1,0" class="line2"></line><path d="M82.089,-22.054A85,85,0,0,1,82.124,21.923L42.27,11.284A43.75,43.75,0,0,0,42.252,-11.351Z" transform="translate(0,0)" id="e_arc2_1" fill="#f8766d" stroke="black" stroke-width="1" stroke-dasharray="1,0" fill-opacity="1" class="arc2"></path><line x1="43.749986128267764" y1="-0.03483929359458999" x2="39.99998731727339" y2="-0.031853068429339416" stroke="black" stroke-width="1" stroke-dasharray="1,0" class="line3"></line><path d="M39.596,-10.638A41,41,0,0,1,39.613,10.575L38.647,10.317A40,40,0,0,0,38.63,-10.378Z" transform="translate(0,0)" id="e_arc3_1" fill="black" stroke="black" stroke-width="0" stroke-dasharray="1,0" fill-opacity="1" class="arc3"></path><path d="M58.911,-15.827A61,61,0,0,1,58.936,15.733L57.97,15.475A60,60,0,0,0,57.945,-15.568Z" transform="translate(0,0)" id="e_arc4_1" fill="black" stroke="black" stroke-width="0" stroke-dasharray="1,0" fill-opacity="1" class="arc4"></path><g class="xSameDots1" transform="translate(0,0)"><circle cx="107.49996591517223" cy="-0.08560512140384968" r="2" stroke="#141414" stroke-width="0" stroke-dasharray="1,0" fill="#f8766d" fill-opacity="1" class="xSameDots1_1"></circle></g><g class="xSameDots1" transform="translate(0,0)"><circle cx="110.70302266638255" cy="11.01831532160849" r="2" stroke="#141414" stroke-width="0" stroke-dasharray="1,0" fill="#f8766d" fill-opacity="1" class="xSameDots1_1"></circle></g><g class="xSameDots1" transform="translate(0,0)"><circle cx="106.95436760108994" cy="-10.817266339095186" r="2" stroke="#141414" stroke-width="0" stroke-dasharray="1,0" fill="#f8766d" fill-opacity="1" class="xSameDots1_1"></circle></g><g class="xSameDots1" transform="translate(0,0)"><circle cx="109.01477183059583" cy="-22.188781460980003" r="2" stroke="#141414" stroke-width="0" stroke-dasharray="1,0" fill="#f8766d" fill-opacity="1" class="xSameDots1_1"></circle></g><g class="xSameDots1" transform="translate(0,0)"><circle cx="113.74996393349619" cy="-0.09058216334593397" r="2" stroke="#141414" stroke-width="0" stroke-dasharray="1,0" fill="#f8766d" fill-opacity="1" class="xSameDots1_1"></circle></g><g class="xSameDots1" transform="translate(0,0)"><circle cx="26.12093793251723" cy="2.5998272107166103" r="2" stroke="#141414" stroke-width="0" stroke-dasharray="1,0" fill="#f8766d" fill-opacity="1" class="xSameDots1_1"></circle></g><g class="xSameDots1" transform="translate(0,0)"><circle cx="24.87310874443952" cy="-2.5156433346732987" r="2" stroke="#141414" stroke-width="0" stroke-dasharray="1,0" fill="#f8766d" fill-opacity="1" class="xSameDots1_1"></circle></g><g class="xSameDots1" transform="translate(0,0)"><circle cx="23.74999246963107" cy="-0.018912759379920277" r="2" stroke="#141414" stroke-width="0" stroke-dasharray="1,0" fill="#f8766d" fill-opacity="1" class="xSameDots1_1"></circle></g></g><g class="box1" transform="translate(0,0)"><path d="M73.273,73.098A103.5,103.5,0,0,1,26.934,99.934L26.673,98.969A102.5,102.5,0,0,0,72.565,72.392Z" transform="translate(0,0)" id="e_arc1_2" fill="black" stroke="black" stroke-width="0" stroke-dasharray="1,0" fill-opacity="1" class="arc1"></path><line x1="51.36776819639792" y1="88.69950614586944" x2="39.46548044357401" y2="68.1471815510948" stroke="black" stroke-width="1" stroke-dasharray="1,0" class="line2"></line><path d="M55.751,55.618A78.75,78.75,0,0,1,20.493,76.037L10.084,37.415A38.75,38.75,0,0,0,27.433,27.368Z" transform="translate(0,0)" id="e_arc2_2" fill="#bb9d00" stroke="black" stroke-width="1" stroke-dasharray="1,0" fill-opacity="1" class="arc2"></path><line x1="19.419522123028482" y1="33.53274012831649" x2="13.781596345375052" y2="23.797428478160093" stroke="black" stroke-width="1" stroke-dasharray="1,0" class="line3"></line><path d="M20.177,20.128A28.5,28.5,0,0,1,7.417,27.518L7.156,26.553A27.5,27.5,0,0,0,19.469,19.422Z" transform="translate(0,0)" id="e_arc3_2" fill="black" stroke="black" stroke-width="0" stroke-dasharray="1,0" fill-opacity="1" class="arc3"></path><path d="M34.336,34.254A48.5,48.5,0,0,1,12.621,46.829L12.361,45.863A47.5,47.5,0,0,0,33.628,33.547Z" transform="translate(0,0)" id="e_arc4_2" fill="black" stroke="black" stroke-width="0" stroke-dasharray="1,0" fill-opacity="1" class="arc4"></path><g class="xSameDots1" transform="translate(0,0)"><circle cx="53.87351298646611" cy="93.02631132371673" r="2" stroke="#141414" stroke-width="0" stroke-dasharray="1,0" fill="#bb9d00" fill-opacity="1" class="xSameDots1_1"></circle></g><g class="xSameDots1" transform="translate(0,0)"><circle cx="45.86318539157433" cy="101.35645379421126" r="2" stroke="#141414" stroke-width="0" stroke-dasharray="1,0" fill="#bb9d00" fill-opacity="1" class="xSameDots1_1"></circle></g><g class="xSameDots1" transform="translate(0,0)"><circle cx="62.89150431719177" cy="87.18319037934234" r="2" stroke="#141414" stroke-width="0" stroke-dasharray="1,0" fill="#bb9d00" fill-opacity="1" class="xSameDots1_1"></circle></g><g class="xSameDots1" transform="translate(0,0)"><circle cx="73.76765468382926" cy="83.2760206929181" r="2" stroke="#141414" stroke-width="0" stroke-dasharray="1,0" fill="#bb9d00" fill-opacity="1" class="xSameDots1_1"></circle></g><g class="xSameDots1" transform="translate(0,0)"><circle cx="57.00569397405135" cy="98.43481779602584" r="2" stroke="#141414" stroke-width="0" stroke-dasharray="1,0" fill="#bb9d00" fill-opacity="1" class="xSameDots1_1"></circle></g><g class="xSameDots1" transform="translate(0,0)"><circle cx="10.821650485652372" cy="23.915567749195915" r="2" stroke="#141414" stroke-width="0" stroke-dasharray="1,0" fill="#bb9d00" fill-opacity="1" class="xSameDots1_1"></circle></g><g class="xSameDots1" transform="translate(0,0)"><circle cx="14.625931236556225" cy="20.27516055333543" r="2" stroke="#141414" stroke-width="0" stroke-dasharray="1,0" fill="#bb9d00" fill-opacity="1" class="xSameDots1_1"></circle></g><g class="xSameDots1" transform="translate(0,0)"><circle cx="11.902287752823907" cy="20.552324594774625" r="2" stroke="#141414" stroke-width="0" stroke-dasharray="1,0" fill="#bb9d00" fill-opacity="1" class="xSameDots1_1"></circle></g></g><g class="box1" transform="translate(0,0)"><path d="M-25.329,95.188A98.5,98.5,0,0,1,-69.511,69.789L-68.806,69.08A97.5,97.5,0,0,0,-25.072,94.221Z" transform="translate(0,0)" id="e_arc1_3" fill="black" stroke="black" stroke-width="0" stroke-dasharray="1,0" fill-opacity="1" class="arc1"></path><line x1="-48.59302300936695" y1="84.52791322877393" x2="-42.36314826457632" y2="73.69100127636702" stroke="black" stroke-width="1" stroke-dasharray="1,0" class="line2"></line><path d="M-21.858,82.142A85,85,0,0,1,-59.984,60.224L-30.874,30.997A43.75,43.75,0,0,0,-11.25,42.279Z" transform="translate(0,0)" id="e_arc2_3" fill="#bb9d00" stroke="black" stroke-width="1" stroke-dasharray="1,0" fill-opacity="1" class="arc2"></path><line x1="-21.804561606767223" y1="37.9291918334242" x2="-13.705724438539397" y2="23.84120629529521" stroke="black" stroke-width="1" stroke-dasharray="1,0" class="line3"></line><path d="M-7.329,27.542A28.5,28.5,0,0,1,-20.112,20.193L-19.407,19.484A27.5,27.5,0,0,0,-7.072,26.575Z" transform="translate(0,0)" id="e_arc3_3" fill="black" stroke="black" stroke-width="0" stroke-dasharray="1,0" fill-opacity="1" class="arc3"></path><path d="M-18.258,68.612A71,71,0,0,1,-50.105,50.304L-49.399,49.596A70,70,0,0,0,-18.001,67.646Z" transform="translate(0,0)" id="e_arc4_3" fill="black" stroke="black" stroke-width="0" stroke-dasharray="1,0" fill-opacity="1" class="arc4"></path><g class="xSameDots1" transform="translate(0,0)"><circle cx="-53.576922805199466" cy="93.19744279069945" r="2" stroke="#141414" stroke-width="0" stroke-dasharray="1,0" fill="#bb9d00" fill-opacity="1" class="xSameDots1_1"></circle></g><g class="xSameDots1" transform="translate(0,0)"><circle cx="-64.79767167039657" cy="90.4313233680426" r="2" stroke="#141414" stroke-width="0" stroke-dasharray="1,0" fill="#bb9d00" fill-opacity="1" class="xSameDots1_1"></circle></g><g class="xSameDots1" transform="translate(0,0)"><circle cx="-44.00504221740988" cy="98.08061102707289" r="2" stroke="#141414" stroke-width="0" stroke-dasharray="1,0" fill="#bb9d00" fill-opacity="1" class="xSameDots1_1"></circle></g><g class="xSameDots1" transform="translate(0,0)"><circle cx="-35.17929678672799" cy="105.54136429661742" r="2" stroke="#141414" stroke-width="0" stroke-dasharray="1,0" fill="#bb9d00" fill-opacity="1" class="xSameDots1_1"></circle></g><g class="xSameDots1" transform="translate(0,0)"><circle cx="-56.69186017759478" cy="98.61589876690292" r="2" stroke="#141414" stroke-width="0" stroke-dasharray="1,0" fill="#bb9d00" fill-opacity="1" class="xSameDots1_1"></circle></g><g class="xSameDots1" transform="translate(0,0)"><circle cx="-15.289338259307055" cy="21.337727985717915" r="2" stroke="#141414" stroke-width="0" stroke-dasharray="1,0" fill="#bb9d00" fill-opacity="1" class="xSameDots1_1"></circle></g><g class="xSameDots1" transform="translate(0,0)"><circle cx="-10.233730748234855" cy="22.809444424900676" r="2" stroke="#141414" stroke-width="0" stroke-dasharray="1,0" fill="#bb9d00" fill-opacity="1" class="xSameDots1_1"></circle></g><g class="xSameDots1" transform="translate(0,0)"><circle cx="-11.836762015102208" cy="20.590132709573137" r="2" stroke="#141414" stroke-width="0" stroke-dasharray="1,0" fill="#bb9d00" fill-opacity="1" class="xSameDots1_1"></circle></g></g><g class="box1" transform="translate(0,0)"><path d="M-102.326,27.666A106,106,0,0,1,-102.457,-27.177L-101.49,-26.92A105,105,0,0,0,-101.361,27.405Z" transform="translate(0,0)" id="e_arc1_4" fill="black" stroke="black" stroke-width="0" stroke-dasharray="1,0" fill-opacity="1" class="arc1"></path><line x1="-104.99970037071039" y1="0.25084270178956153" x2="-83.74976100997138" y2="0.20007691690357884" stroke="black" stroke-width="1" stroke-dasharray="1,0" class="line2"></line><path d="M-80.847,21.859A83.75,83.75,0,0,1,-80.951,-21.472L-36.247,-9.614A37.5,37.5,0,0,0,-36.2,9.787Z" transform="translate(0,0)" id="e_arc2_4" fill="#00b81f" stroke="black" stroke-width="1" stroke-dasharray="1,0" fill-opacity="1" class="arc2"></path><line x1="-37.499892989539426" y1="0.0895866792105577" x2="-24.999928659692948" y2="0.05972445280703847" stroke="black" stroke-width="1" stroke-dasharray="1,0" class="line3"></line><path d="M-25.099,6.786A26,26,0,0,1,-25.131,-6.666L-24.164,-6.41A25,25,0,0,0,-24.133,6.525Z" transform="translate(0,0)" id="e_arc3_4" fill="black" stroke="black" stroke-width="0" stroke-dasharray="1,0" fill-opacity="1" class="arc3"></path><path d="M-57.679,15.595A59.75,59.75,0,0,1,-57.753,-15.319L-56.786,-15.062A58.75,58.75,0,0,0,-56.714,15.334Z" transform="translate(0,0)" id="e_arc4_4" fill="black" stroke="black" stroke-width="0" stroke-dasharray="1,0" fill-opacity="1" class="arc4"></path><g class="xSameDots1" transform="translate(0,0)"><circle cx="-107.49969323667968" cy="0.2568151470702654" r="2" stroke="#141414" stroke-width="0" stroke-dasharray="1,0" fill="#00b81f" fill-opacity="1" class="xSameDots1_1"></circle></g><g class="xSameDots1" transform="translate(0,0)"><circle cx="-110.72043061681936" cy="-10.841989855469038" r="2" stroke="#141414" stroke-width="0" stroke-dasharray="1,0" fill="#00b81f" fill-opacity="1" class="xSameDots1_1"></circle></g><g class="xSameDots1" transform="translate(0,0)"><circle cx="-106.93700380302762" cy="10.987593805345021" r="2" stroke="#141414" stroke-width="0" stroke-dasharray="1,0" fill="#00b81f" fill-opacity="1" class="xSameDots1_1"></circle></g><g class="xSameDots1" transform="translate(0,0)"><circle cx="-108.97929454265581" cy="22.362376013855716" r="2" stroke="#141414" stroke-width="0" stroke-dasharray="1,0" fill="#00b81f" fill-opacity="1" class="xSameDots1_1"></circle></g><g class="xSameDots1" transform="translate(0,0)"><circle cx="-113.74967540160291" cy="0.27174626027202503" r="2" stroke="#141414" stroke-width="0" stroke-dasharray="1,0" fill="#00b81f" fill-opacity="1" class="xSameDots1_1"></circle></g><g class="xSameDots1" transform="translate(0,0)"><circle cx="-26.125045426440522" cy="-2.5582223254477503" r="2" stroke="#141414" stroke-width="0" stroke-dasharray="1,0" fill="#00b81f" fill-opacity="1" class="xSameDots1_1"></circle></g><g class="xSameDots1" transform="translate(0,0)"><circle cx="-24.86907065186689" cy="2.5552543733360515" r="2" stroke="#141414" stroke-width="0" stroke-dasharray="1,0" fill="#00b81f" fill-opacity="1" class="xSameDots1_1"></circle></g><g class="xSameDots1" transform="translate(0,0)"><circle cx="-23.749932226708303" cy="0.05673823016668654" r="2" stroke="#141414" stroke-width="0" stroke-dasharray="1,0" fill="#00b81f" fill-opacity="1" class="xSameDots1_1"></circle></g></g><g class="box1" transform="translate(0,0)"><path d="M-75.162,-74.744A106,106,0,0,1,-27.747,-102.304L-27.485,-101.339A105,105,0,0,0,-74.453,-74.039Z" transform="translate(0,0)" id="e_arc1_5" fill="black" stroke="black" stroke-width="0" stroke-dasharray="1,0" fill-opacity="1" class="arc1"></path><line x1="-52.76528693071965" y1="-90.7789870791629" x2="-42.08659790902638" y2="-72.40704921790375" stroke="black" stroke-width="1" stroke-dasharray="1,0" class="line2"></line><path d="M-59.385,-59.055A83.75,83.75,0,0,1,-21.923,-80.83L-9.816,-36.192A37.5,37.5,0,0,0,-26.59,-26.442Z" transform="translate(0,0)" id="e_arc2_5" fill="#00b81f" stroke="black" stroke-width="1" stroke-dasharray="1,0" fill-opacity="1" class="arc2"></path><line x1="-18.844745332399874" y1="-32.42106681398675" x2="-12.563163554933249" y2="-21.614044542657833" stroke="black" stroke-width="1" stroke-dasharray="1,0" class="line3"></line><path d="M-18.436,-18.333A26,26,0,0,1,-6.806,-25.093L-6.544,-24.128A25,25,0,0,0,-17.727,-17.628Z" transform="translate(0,0)" id="e_arc3_5" fill="black" stroke="black" stroke-width="0" stroke-dasharray="1,0" fill-opacity="1" class="arc3"></path><path d="M-42.367,-42.132A59.75,59.75,0,0,1,-15.641,-57.667L-15.379,-56.701A58.75,58.75,0,0,0,-41.658,-41.427Z" transform="translate(0,0)" id="e_arc4_5" fill="black" stroke="black" stroke-width="0" stroke-dasharray="1,0" fill-opacity="1" class="arc4"></path><g class="xSameDots1" transform="translate(0,0)"><circle cx="-54.02160328621297" cy="-92.94039153342868" r="2" stroke="#141414" stroke-width="0" stroke-dasharray="1,0" fill="#00b81f" fill-opacity="1" class="xSameDots1_1"></circle></g><g class="xSameDots1" transform="translate(0,0)"><circle cx="-46.024552876299516" cy="-101.28328111063894" r="2" stroke="#141414" stroke-width="0" stroke-dasharray="1,0" fill="#00b81f" fill-opacity="1" class="xSameDots1_1"></circle></g><g class="xSameDots1" transform="translate(0,0)"><circle cx="-63.03027711605508" cy="-87.08291546952998" r="2" stroke="#141414" stroke-width="0" stroke-dasharray="1,0" fill="#00b81f" fill-opacity="1" class="xSameDots1_1"></circle></g><g class="xSameDots1" transform="translate(0,0)"><circle cx="-73.90019092357434" cy="-83.15842880585984" r="2" stroke="#141414" stroke-width="0" stroke-dasharray="1,0" fill="#00b81f" fill-opacity="1" class="xSameDots1_1"></circle></g><g class="xSameDots1" transform="translate(0,0)"><circle cx="-57.16239417494628" cy="-98.34390266909314" r="2" stroke="#141414" stroke-width="0" stroke-dasharray="1,0" fill="#00b81f" fill-opacity="1" class="xSameDots1_1"></circle></g><g class="xSameDots1" transform="translate(0,0)"><circle cx="-10.85972595957629" cy="-23.898302284532782" r="2" stroke="#141414" stroke-width="0" stroke-dasharray="1,0" fill="#00b81f" fill-opacity="1" class="xSameDots1_1"></circle></g><g class="xSameDots1" transform="translate(0,0)"><circle cx="-14.658203980477927" cy="-20.251840806867435" r="2" stroke="#141414" stroke-width="0" stroke-dasharray="1,0" fill="#00b81f" fill-opacity="1" class="xSameDots1_1"></circle></g><g class="xSameDots1" transform="translate(0,0)"><circle cx="-11.935005377186586" cy="-20.533342315524944" r="2" stroke="#141414" stroke-width="0" stroke-dasharray="1,0" fill="#00b81f" fill-opacity="1" class="xSameDots1_1"></circle></g></g></g></svg>
