<svg width="650" height="650" id="ngplotSvg"><g transform="translate(80,80)" class="group1"><g class="group2" transform="translate(0,0)"><g class="group5" transform="translate(20,0)"><circle cx="10" cy="10" r="2.32197868" stroke="black" stroke-width="0" stroke-dasharray="1,0" fill="#4a6990" fill-opacity="1" class="circle1"></circle></g></g><g class="group2" transform="translate(0,0)"><g class="group5" transform="translate(40,0)"><circle cx="10" cy="10" r="5.40868589" stroke="black" stroke-width="0" stroke-dasharray="1,0" fill="#4a6990" fill-opacity="1" class="circle1"></circle></g><g class="group5" transform="translate(40,20)"><circle cx="10" cy="10" r="5.239326760000001" stroke="black" stroke-width="0" stroke-dasharray="1,0" fill="#4a6990" fill-opacity="1" class="circle1"></circle></g><g class="group5" transform="translate(60,40)"><circle cx="10" cy="10" r="6.13315233" stroke="black" stroke-width="0" stroke-dasharray="1,0" fill="#4a6990" fill-opacity="1" class="circle1"></circle></g></g><g class="group2" transform="translate(0,0)"><g class="group5" transform="translate(80,0)"><circle cx="10" cy="10" r="3.3898361" stroke="black" stroke-width="0" stroke-dasharray="1,0" fill="#4a6990" fill-opacity="1" class="circle1"></circle></g><g class="group5" transform="translate(80,20)"><circle cx="10" cy="10" r="4.248675169999999" stroke="black" stroke-width="0" stroke-dasharray="1,0" fill="#4a6990" fill-opacity="1" class="circle1"></circle></g><g class="group5" transform="translate(80,40)"><circle cx="10" cy="10" r="4.95421292" stroke="black" stroke-width="0" stroke-dasharray="1,0" fill="#4a6990" fill-opacity="1" class="circle1"></circle></g><g class="group5" transform="translate(80,60)"><circle cx="10" cy="10" r="3.7358632000000003" stroke="black" stroke-width="0" stroke-dasharray="1,0" fill="#4a6990" fill-opacity="1" class="circle1"></circle></g></g><g class="group2" transform="translate(0,0)"><g class="group5" transform="translate(60,0)"><circle cx="10" cy="10" r="2.5927276900000003" stroke="black" stroke-width="0" stroke-dasharray="1,0" fill="#4a6990" fill-opacity="1" class="circle1"></circle></g><g class="group5" transform="translate(60,20)"><circle cx="10" cy="10" r="1.78182787" stroke="black" stroke-width="0" stroke-dasharray="1,0" fill="#4a6990" fill-opacity="1" class="circle1"></circle></g></g><g class="group2" transform="translate(0,0)"><g class="group5" transform="translate(100,0)"><circle cx="10" cy="10" r="5.3115416" stroke="black" stroke-width="0" stroke-dasharray="1,0" fill="#4a6990" fill-opacity="1" class="circle1"></circle></g><g class="group5" transform="translate(100,20)"><circle cx="10" cy="10" r="4.43814936" stroke="black" stroke-width="0" stroke-dasharray="1,0" fill="#4a6990" fill-opacity="1" class="circle1"></circle></g><g class="group5" transform="translate(100,40)"><circle cx="10" cy="10" r="6.76059763" stroke="black" stroke-width="0" stroke-dasharray="1,0" fill="#4a6990" fill-opacity="1" class="circle1"></circle></g><g class="group5" transform="translate(100,60)"><circle cx="10" cy="10" r="5.40048979" stroke="black" stroke-width="0" stroke-dasharray="1,0" fill="#4a6990" fill-opacity="1" class="circle1"></circle></g><g class="group5" transform="translate(100,80)"><circle cx="10" cy="10" r="5.41915822" stroke="black" stroke-width="0" stroke-dasharray="1,0" fill="#4a6990" fill-opacity="1" class="circle1"></circle></g></g><g class="group2" transform="translate(0,0)"><g class="group5" transform="translate(120,0)"><circle cx="10" cy="10" r="6.244267949999999" stroke="black" stroke-width="0" stroke-dasharray="1,0" fill="#4a6990" fill-opacity="1" class="circle1"></circle></g><g class="group5" transform="translate(120,20)"><circle cx="10" cy="10" r="5.16956799" stroke="black" stroke-width="0" stroke-dasharray="1,0" fill="#4a6990" fill-opacity="1" class="circle1"></circle></g><g class="group5" transform="translate(120,40)"><circle cx="10" cy="10" r="7.6065890000000005" stroke="black" stroke-width="0" stroke-dasharray="1,0" fill="#4a6990" fill-opacity="1" class="circle1"></circle></g><g class="group5" transform="translate(120,60)"><circle cx="10" cy="10" r="6.33199897" stroke="black" stroke-width="0" stroke-dasharray="1,0" fill="#4a6990" fill-opacity="1" class="circle1"></circle></g><g class="group5" transform="translate(120,80)"><circle cx="10" cy="10" r="6.74270252" stroke="black" stroke-width="0" stroke-dasharray="1,0" fill="#4a6990" fill-opacity="1" class="circle1"></circle></g><g class="group5" transform="translate(120,100)"><circle cx="10" cy="10" r="8.38580327" stroke="black" stroke-width="0" stroke-dasharray="1,0" fill="#4a6990" fill-opacity="1" class="circle1"></circle></g></g><g class="group2" transform="translate(0,0)"><g class="group5" transform="translate(140,0)"><circle cx="10" cy="10" r="4.6657512699999995" stroke="black" stroke-width="0" stroke-dasharray="1,0" fill="#4a6990" fill-opacity="1" class="circle1"></circle></g><g class="group5" transform="translate(140,20)"><circle cx="10" cy="10" r="4.7766641100000005" stroke="black" stroke-width="0" stroke-dasharray="1,0" fill="#4a6990" fill-opacity="1" class="circle1"></circle></g><g class="group5" transform="translate(140,40)"><circle cx="10" cy="10" r="6.467338219999999" stroke="black" stroke-width="0" stroke-dasharray="1,0" fill="#4a6990" fill-opacity="1" class="circle1"></circle></g><g class="group5" transform="translate(140,60)"><circle cx="10" cy="10" r="4.72491718" stroke="black" stroke-width="0" stroke-dasharray="1,0" fill="#4a6990" fill-opacity="1" class="circle1"></circle></g><g class="group5" transform="translate(140,80)"><circle cx="10" cy="10" r="3.2035516200000003" stroke="black" stroke-width="0" stroke-dasharray="1,0" fill="#4a6990" fill-opacity="1" class="circle1"></circle></g><g class="group5" transform="translate(140,100)"><circle cx="10" cy="10" r="5.9188139799999995" stroke="black" stroke-width="0" stroke-dasharray="1,0" fill="#4a6990" fill-opacity="1" class="circle1"></circle></g><g class="group5" transform="translate(140,120)"><circle cx="10" cy="10" r="6.18000095" stroke="black" stroke-width="0" stroke-dasharray="1,0" fill="#4a6990" fill-opacity="1" class="circle1"></circle></g></g><g class="group2" transform="translate(0,0)"><g class="group5" transform="translate(160,0)"><circle cx="10" cy="10" r="6.1307586" stroke="black" stroke-width="0" stroke-dasharray="1,0" fill="#4a6990" fill-opacity="1" class="circle1"></circle></g><g class="group5" transform="translate(160,20)"><circle cx="10" cy="10" r="5.079473989999999" stroke="black" stroke-width="0" stroke-dasharray="1,0" fill="#4a6990" fill-opacity="1" class="circle1"></circle></g><g class="group5" transform="translate(160,40)"><circle cx="10" cy="10" r="7.51990634" stroke="black" stroke-width="0" stroke-dasharray="1,0" fill="#efc000" fill-opacity="1" class="circle1"></circle></g><g class="group5" transform="translate(160,60)"><circle cx="10" cy="10" r="6.170186800000001" stroke="black" stroke-width="0" stroke-dasharray="1,0" fill="#4a6990" fill-opacity="1" class="circle1"></circle></g><g class="group5" transform="translate(160,80)"><circle cx="10" cy="10" r="6.5984022499999995" stroke="black" stroke-width="0" stroke-dasharray="1,0" fill="#efc000" fill-opacity="1" class="circle1"></circle></g><g class="group5" transform="translate(160,100)"><circle cx="10" cy="10" r="8.216293049999999" stroke="black" stroke-width="0" stroke-dasharray="1,0" fill="#efc000" fill-opacity="1" class="circle1"></circle></g><g class="group5" transform="translate(160,120)"><circle cx="10" cy="10" r="9.262916220000001" stroke="black" stroke-width="0" stroke-dasharray="1,0" fill="#efc000" fill-opacity="1" class="circle1"></circle></g><g class="group5" transform="translate(160,140)"><circle cx="10" cy="10" r="5.86850712" stroke="black" stroke-width="0" stroke-dasharray="1,0" fill="#efc000" fill-opacity="1" class="circle1"></circle></g></g><g class="group2" transform="translate(0,0)"><g class="group5" transform="translate(180,0)"><circle cx="10" cy="10" r="5.437946729999999" stroke="black" stroke-width="0" stroke-dasharray="1,0" fill="#efc000" fill-opacity="1" class="circle1"></circle></g><g class="group5" transform="translate(180,20)"><circle cx="10" cy="10" r="5.025540299999999" stroke="black" stroke-width="0" stroke-dasharray="1,0" fill="#efc000" fill-opacity="1" class="circle1"></circle></g><g class="group5" transform="translate(180,40)"><circle cx="10" cy="10" r="7.624533169999999" stroke="black" stroke-width="0" stroke-dasharray="1,0" fill="#efc000" fill-opacity="1" class="circle1"></circle></g><g class="group5" transform="translate(180,60)"><circle cx="10" cy="10" r="6.338396309999999" stroke="black" stroke-width="0" stroke-dasharray="1,0" fill="#efc000" fill-opacity="1" class="circle1"></circle></g><g class="group5" transform="translate(180,80)"><circle cx="10" cy="10" r="6.7516018099999995" stroke="black" stroke-width="0" stroke-dasharray="1,0" fill="#efc000" fill-opacity="1" class="circle1"></circle></g><g class="group5" transform="translate(180,100)"><circle cx="10" cy="10" r="7.32930789" stroke="black" stroke-width="0" stroke-dasharray="1,0" fill="#efc000" fill-opacity="1" class="circle1"></circle></g><g class="group5" transform="translate(180,120)"><circle cx="10" cy="10" r="8.88646916" stroke="black" stroke-width="0" stroke-dasharray="1,0" fill="#efc000" fill-opacity="1" class="circle1"></circle></g><g class="group5" transform="translate(180,140)"><circle cx="10" cy="10" r="6.540399799999999" stroke="black" stroke-width="0" stroke-dasharray="1,0" fill="#efc000" fill-opacity="1" class="circle1"></circle></g><g class="group5" transform="translate(180,160)"><circle cx="10" cy="10" r="9.08708744" stroke="black" stroke-width="0" stroke-dasharray="1,0" fill="#efc000" fill-opacity="1" class="circle1"></circle></g></g><g class="group2" transform="translate(0,0)"><g class="group5" transform="translate(200,0)"><circle cx="10" cy="10" r="3.28914947" stroke="black" stroke-width="0" stroke-dasharray="1,0" fill="#efc000" fill-opacity="1" class="circle1"></circle></g><g class="group5" transform="translate(200,20)"><circle cx="10" cy="10" r="3.14779109" stroke="black" stroke-width="0" stroke-dasharray="1,0" fill="#efc000" fill-opacity="1" class="circle1"></circle></g><g class="group5" transform="translate(200,40)"><circle cx="10" cy="10" r="4.68899767" stroke="black" stroke-width="0" stroke-dasharray="1,0" fill="#efc000" fill-opacity="1" class="circle1"></circle></g><g class="group5" transform="translate(200,60)"><circle cx="10" cy="10" r="4.00633982" stroke="black" stroke-width="0" stroke-dasharray="1,0" fill="#efc000" fill-opacity="1" class="circle1"></circle></g><g class="group5" transform="translate(200,80)"><circle cx="10" cy="10" r="3.5734221799999997" stroke="black" stroke-width="0" stroke-dasharray="1,0" fill="#efc000" fill-opacity="1" class="circle1"></circle></g><g class="group5" transform="translate(200,100)"><circle cx="10" cy="10" r="3.89178068" stroke="black" stroke-width="0" stroke-dasharray="1,0" fill="#efc000" fill-opacity="1" class="circle1"></circle></g><g class="group5" transform="translate(200,120)"><circle cx="10" cy="10" r="5.36709376" stroke="black" stroke-width="0" stroke-dasharray="1,0" fill="#efc000" fill-opacity="1" class="circle1"></circle></g><g class="group5" transform="translate(200,140)"><circle cx="10" cy="10" r="2.79919719" stroke="black" stroke-width="0" stroke-dasharray="1,0" fill="#efc000" fill-opacity="1" class="circle1"></circle></g><g class="group5" transform="translate(200,160)"><circle cx="10" cy="10" r="4.16765337" stroke="black" stroke-width="0" stroke-dasharray="1,0" fill="#efc000" fill-opacity="1" class="circle1"></circle></g><g class="group5" transform="translate(200,180)"><circle cx="10" cy="10" r="4.22316614" stroke="black" stroke-width="0" stroke-dasharray="1,0" fill="#efc000" fill-opacity="1" class="circle1"></circle></g></g><g class="group2" transform="translate(0,0)"><g class="group5" transform="translate(220,0)"><circle cx="10" cy="10" r="5.96222865" stroke="black" stroke-width="0" stroke-dasharray="1,0" fill="#efc000" fill-opacity="1" class="circle1"></circle></g><g class="group5" transform="translate(220,20)"><circle cx="10" cy="10" r="3.28900647" stroke="black" stroke-width="0" stroke-dasharray="1,0" fill="#efc000" fill-opacity="1" class="circle1"></circle></g><g class="group5" transform="translate(220,40)"><circle cx="10" cy="10" r="6.04427473" stroke="black" stroke-width="0" stroke-dasharray="1,0" fill="#efc000" fill-opacity="1" class="circle1"></circle></g><g class="group5" transform="translate(220,60)"><circle cx="10" cy="10" r="5.37722873" stroke="black" stroke-width="0" stroke-dasharray="1,0" fill="#efc000" fill-opacity="1" class="circle1"></circle></g><g class="group5" transform="translate(220,80)"><circle cx="10" cy="10" r="4.64290002" stroke="black" stroke-width="0" stroke-dasharray="1,0" fill="#efc000" fill-opacity="1" class="circle1"></circle></g><g class="group5" transform="translate(220,100)"><circle cx="10" cy="10" r="6.214284169999999" stroke="black" stroke-width="0" stroke-dasharray="1,0" fill="#efc000" fill-opacity="1" class="circle1"></circle></g><g class="group5" transform="translate(220,120)"><circle cx="10" cy="10" r="7.52371604" stroke="black" stroke-width="0" stroke-dasharray="1,0" fill="#efc000" fill-opacity="1" class="circle1"></circle></g><g class="group5" transform="translate(220,140)"><circle cx="10" cy="10" r="4.57474989" stroke="black" stroke-width="0" stroke-dasharray="1,0" fill="#efc000" fill-opacity="1" class="circle1"></circle></g><g class="group5" transform="translate(220,160)"><circle cx="10" cy="10" r="7.43912939" stroke="black" stroke-width="0" stroke-dasharray="1,0" fill="#efc000" fill-opacity="1" class="circle1"></circle></g><g class="group5" transform="translate(220,180)"><circle cx="10" cy="10" r="6.66957316" stroke="black" stroke-width="0" stroke-dasharray="1,0" fill="#efc000" fill-opacity="1" class="circle1"></circle></g><g class="group5" transform="translate(220,200)"><circle cx="10" cy="10" r="2.66199233" stroke="black" stroke-width="0" stroke-dasharray="1,0" fill="#efc000" fill-opacity="1" class="circle1"></circle></g></g><g class="group2" transform="translate(0,0)"><g class="group5" transform="translate(240,0)"><circle cx="10" cy="10" r="4.97316626" stroke="black" stroke-width="0" stroke-dasharray="1,0" fill="#efc000" fill-opacity="1" class="circle1"></circle></g><g class="group5" transform="translate(240,20)"><circle cx="10" cy="10" r="5.43367948" stroke="black" stroke-width="0" stroke-dasharray="1,0" fill="#efc000" fill-opacity="1" class="circle1"></circle></g><g class="group5" transform="translate(240,40)"><circle cx="10" cy="10" r="6.85323251" stroke="black" stroke-width="0" stroke-dasharray="1,0" fill="#efc000" fill-opacity="1" class="circle1"></circle></g><g class="group5" transform="translate(240,60)"><circle cx="10" cy="10" r="6.29739646" stroke="black" stroke-width="0" stroke-dasharray="1,0" fill="#efc000" fill-opacity="1" class="circle1"></circle></g><g class="group5" transform="translate(240,80)"><circle cx="10" cy="10" r="6.14299124" stroke="black" stroke-width="0" stroke-dasharray="1,0" fill="#efc000" fill-opacity="1" class="circle1"></circle></g><g class="group5" transform="translate(240,100)"><circle cx="10" cy="10" r="7.26098355" stroke="black" stroke-width="0" stroke-dasharray="1,0" fill="#efc000" fill-opacity="1" class="circle1"></circle></g><g class="group5" transform="translate(240,120)"><circle cx="10" cy="10" r="8.3331254" stroke="black" stroke-width="0" stroke-dasharray="1,0" fill="#efc000" fill-opacity="1" class="circle1"></circle></g><g class="group5" transform="translate(240,140)"><circle cx="10" cy="10" r="5.50987739" stroke="black" stroke-width="0" stroke-dasharray="1,0" fill="#7aa6dc" fill-opacity="1" class="circle1"></circle></g><g class="group5" transform="translate(240,160)"><circle cx="10" cy="10" r="8.35858347" stroke="black" stroke-width="0" stroke-dasharray="1,0" fill="#7aa6dc" fill-opacity="1" class="circle1"></circle></g><g class="group5" transform="translate(240,180)"><circle cx="10" cy="10" r="8.30203508" stroke="black" stroke-width="0" stroke-dasharray="1,0" fill="#7aa6dc" fill-opacity="1" class="circle1"></circle></g><g class="group5" transform="translate(240,200)"><circle cx="10" cy="10" r="3.29099754" stroke="black" stroke-width="0" stroke-dasharray="1,0" fill="#7aa6dc" fill-opacity="1" class="circle1"></circle></g><g class="group5" transform="translate(240,220)"><circle cx="10" cy="10" r="6.626002519999999" stroke="black" stroke-width="0" stroke-dasharray="1,0" fill="#7aa6dc" fill-opacity="1" class="circle1"></circle></g></g><g class="group2" transform="translate(0,0)"><g class="group5" transform="translate(260,0)"><circle cx="10" cy="10" r="4.0123606" stroke="black" stroke-width="0" stroke-dasharray="1,0" fill="#7aa6dc" fill-opacity="1" class="circle1"></circle></g><g class="group5" transform="translate(260,20)"><circle cx="10" cy="10" r="4.2478894799999996" stroke="black" stroke-width="0" stroke-dasharray="1,0" fill="#7aa6dc" fill-opacity="1" class="circle1"></circle></g><g class="group5" transform="translate(260,40)"><circle cx="10" cy="10" r="6.25895736" stroke="black" stroke-width="0" stroke-dasharray="1,0" fill="#7aa6dc" fill-opacity="1" class="circle1"></circle></g><g class="group5" transform="translate(260,60)"><circle cx="10" cy="10" r="6.7914875100000005" stroke="black" stroke-width="0" stroke-dasharray="1,0" fill="#7aa6dc" fill-opacity="1" class="circle1"></circle></g><g class="group5" transform="translate(260,80)"><circle cx="10" cy="10" r="4.14033161" stroke="black" stroke-width="0" stroke-dasharray="1,0" fill="#7aa6dc" fill-opacity="1" class="circle1"></circle></g><g class="group5" transform="translate(260,100)"><circle cx="10" cy="10" r="5.39302879" stroke="black" stroke-width="0" stroke-dasharray="1,0" fill="#7aa6dc" fill-opacity="1" class="circle1"></circle></g><g class="group5" transform="translate(260,120)"><circle cx="10" cy="10" r="7.36303455" stroke="black" stroke-width="0" stroke-dasharray="1,0" fill="#7aa6dc" fill-opacity="1" class="circle1"></circle></g><g class="group5" transform="translate(260,140)"><circle cx="10" cy="10" r="5.8141915399999995" stroke="black" stroke-width="0" stroke-dasharray="1,0" fill="#7aa6dc" fill-opacity="1" class="circle1"></circle></g><g class="group5" transform="translate(260,160)"><circle cx="10" cy="10" r="6.62811595" stroke="black" stroke-width="0" stroke-dasharray="1,0" fill="#7aa6dc" fill-opacity="1" class="circle1"></circle></g><g class="group5" transform="translate(260,180)"><circle cx="10" cy="10" r="7.53211115" stroke="black" stroke-width="0" stroke-dasharray="1,0" fill="#7aa6dc" fill-opacity="1" class="circle1"></circle></g><g class="group5" transform="translate(260,200)"><circle cx="10" cy="10" r="3.95349418" stroke="black" stroke-width="0" stroke-dasharray="1,0" fill="#7aa6dc" fill-opacity="1" class="circle1"></circle></g><g class="group5" transform="translate(260,220)"><circle cx="10" cy="10" r="6.106205930000001" stroke="black" stroke-width="0" stroke-dasharray="1,0" fill="#7aa6dc" fill-opacity="1" class="circle1"></circle></g><g class="group5" transform="translate(260,240)"><circle cx="10" cy="10" r="5.9671535" stroke="black" stroke-width="0" stroke-dasharray="1,0" fill="#7aa6dc" fill-opacity="1" class="circle1"></circle></g></g><g class="group2" transform="translate(0,0)"><g class="group5" transform="translate(280,0)"><circle cx="10" cy="10" r="3.1032684" stroke="black" stroke-width="0" stroke-dasharray="1,0" fill="#7aa6dc" fill-opacity="1" class="circle1"></circle></g><g class="group5" transform="translate(280,20)"><circle cx="10" cy="10" r="5.48755436" stroke="black" stroke-width="0" stroke-dasharray="1,0" fill="#7aa6dc" fill-opacity="1" class="circle1"></circle></g><g class="group5" transform="translate(280,40)"><circle cx="10" cy="10" r="6.12733353" stroke="black" stroke-width="0" stroke-dasharray="1,0" fill="#7aa6dc" fill-opacity="1" class="circle1"></circle></g><g class="group5" transform="translate(280,60)"><circle cx="10" cy="10" r="5.66297639" stroke="black" stroke-width="0" stroke-dasharray="1,0" fill="#7aa6dc" fill-opacity="1" class="circle1"></circle></g><g class="group5" transform="translate(280,80)"><circle cx="10" cy="10" r="3.6549707700000003" stroke="black" stroke-width="0" stroke-dasharray="1,0" fill="#7aa6dc" fill-opacity="1" class="circle1"></circle></g><g class="group5" transform="translate(280,100)"><circle cx="10" cy="10" r="4.98105947" stroke="black" stroke-width="0" stroke-dasharray="1,0" fill="#7aa6dc" fill-opacity="1" class="circle1"></circle></g><g class="group5" transform="translate(280,120)"><circle cx="10" cy="10" r="5.725213030000001" stroke="black" stroke-width="0" stroke-dasharray="1,0" fill="#7aa6dc" fill-opacity="1" class="circle1"></circle></g><g class="group5" transform="translate(280,140)"><circle cx="10" cy="10" r="5.45278402" stroke="black" stroke-width="0" stroke-dasharray="1,0" fill="#7aa6dc" fill-opacity="1" class="circle1"></circle></g><g class="group5" transform="translate(280,160)"><circle cx="10" cy="10" r="5.9769958899999995" stroke="black" stroke-width="0" stroke-dasharray="1,0" fill="#7aa6dc" fill-opacity="1" class="circle1"></circle></g><g class="group5" transform="translate(280,180)"><circle cx="10" cy="10" r="6.4402863" stroke="black" stroke-width="0" stroke-dasharray="1,0" fill="#7aa6dc" fill-opacity="1" class="circle1"></circle></g><g class="group5" transform="translate(280,200)"><circle cx="10" cy="10" r="4.23676985" stroke="black" stroke-width="0" stroke-dasharray="1,0" fill="#7aa6dc" fill-opacity="1" class="circle1"></circle></g><g class="group5" transform="translate(280,220)"><circle cx="10" cy="10" r="3.61619735" stroke="black" stroke-width="0" stroke-dasharray="1,0" fill="#7aa6dc" fill-opacity="1" class="circle1"></circle></g><g class="group5" transform="translate(280,240)"><circle cx="10" cy="10" r="5.0424451800000005" stroke="black" stroke-width="0" stroke-dasharray="1,0" fill="#7aa6dc" fill-opacity="1" class="circle1"></circle></g><g class="group5" transform="translate(280,260)"><circle cx="10" cy="10" r="5.9207555" stroke="black" stroke-width="0" stroke-dasharray="1,0" fill="#7aa6dc" fill-opacity="1" class="circle1"></circle></g></g><g class="group2" transform="translate(0,0)"><g class="group5" transform="translate(300,0)"><circle cx="10" cy="10" r="2.8478005299999998" stroke="black" stroke-width="0" stroke-dasharray="1,0" fill="#7aa6dc" fill-opacity="1" class="circle1"></circle></g><g class="group5" transform="translate(300,20)"><circle cx="10" cy="10" r="1.9695010199999998" stroke="black" stroke-width="0" stroke-dasharray="1,0" fill="#7aa6dc" fill-opacity="1" class="circle1"></circle></g><g class="group5" transform="translate(300,40)"><circle cx="10" cy="10" r="3.36047808" stroke="black" stroke-width="0" stroke-dasharray="1,0" fill="#7aa6dc" fill-opacity="1" class="circle1"></circle></g><g class="group5" transform="translate(300,60)"><circle cx="10" cy="10" r="3.0259136800000004" stroke="black" stroke-width="0" stroke-dasharray="1,0" fill="#7aa6dc" fill-opacity="1" class="circle1"></circle></g><g class="group5" transform="translate(300,80)"><circle cx="10" cy="10" r="5.253706070000001" stroke="black" stroke-width="0" stroke-dasharray="1,0" fill="#7aa6dc" fill-opacity="1" class="circle1"></circle></g><g class="group5" transform="translate(300,100)"><circle cx="10" cy="10" r="4.48112435" stroke="black" stroke-width="0" stroke-dasharray="1,0" fill="#7aa6dc" fill-opacity="1" class="circle1"></circle></g><g class="group5" transform="translate(300,120)"><circle cx="10" cy="10" r="5.34396204" stroke="black" stroke-width="0" stroke-dasharray="1,0" fill="#7aa6dc" fill-opacity="1" class="circle1"></circle></g><g class="group5" transform="translate(300,140)"><circle cx="10" cy="10" r="3.0490124400000003" stroke="black" stroke-width="0" stroke-dasharray="1,0" fill="#7aa6dc" fill-opacity="1" class="circle1"></circle></g><g class="group5" transform="translate(300,160)"><circle cx="10" cy="10" r="5.977611769999999" stroke="black" stroke-width="0" stroke-dasharray="1,0" fill="#7aa6dc" fill-opacity="1" class="circle1"></circle></g><g class="group5" transform="translate(300,180)"><circle cx="10" cy="10" r="5.56997011" stroke="black" stroke-width="0" stroke-dasharray="1,0" fill="#7aa6dc" fill-opacity="1" class="circle1"></circle></g><g class="group5" transform="translate(300,200)"><circle cx="10" cy="10" r="2.10276061" stroke="black" stroke-width="0" stroke-dasharray="1,0" fill="#7aa6dc" fill-opacity="1" class="circle1"></circle></g><g class="group5" transform="translate(300,220)"><circle cx="10" cy="10" r="4.03702858" stroke="black" stroke-width="0" stroke-dasharray="1,0" fill="#7aa6dc" fill-opacity="1" class="circle1"></circle></g><g class="group5" transform="translate(300,240)"><circle cx="10" cy="10" r="4.6923879" stroke="black" stroke-width="0" stroke-dasharray="1,0" fill="#7aa6dc" fill-opacity="1" class="circle1"></circle></g><g class="group5" transform="translate(300,260)"><circle cx="10" cy="10" r="5.03323327" stroke="black" stroke-width="0" stroke-dasharray="1,0" fill="#7aa6dc" fill-opacity="1" class="circle1"></circle></g><g class="group5" transform="translate(300,280)"><circle cx="10" cy="10" r="3.4896584" stroke="black" stroke-width="0" stroke-dasharray="1,0" fill="#7aa6dc" fill-opacity="1" class="circle1"></circle></g></g><g transform="translate(0,-5)" class="textsH1"><g class="textsH1_1" transform="translate(20,0)"><g class="textsH1_2_g"><text x="10" y="0" style="text-anchor: start; font-size: 10px; font-weight: normal; font-family: Arial;" transform="rotate(-45,10,0)" dominant-baseline="auto" fill="black" class="textsH1_2">var1</text></g></g><g class="textsH1_1" transform="translate(40,0)"><g class="textsH1_2_g"><text x="10" y="0" style="text-anchor: start; font-size: 10px; font-weight: normal; font-family: Arial;" transform="rotate(-45,10,0)" dominant-baseline="auto" fill="black" class="textsH1_2">var4</text></g></g><g class="textsH1_1" transform="translate(60,0)"><g class="textsH1_2_g"><text x="10" y="0" style="text-anchor: start; font-size: 10px; font-weight: normal; font-family: Arial;" transform="rotate(-45,10,0)" dominant-baseline="auto" fill="black" class="textsH1_2">var3</text></g></g><g class="textsH1_1" transform="translate(80,0)"><g class="textsH1_2_g"><text x="10" y="0" style="text-anchor: start; font-size: 10px; font-weight: normal; font-family: Arial;" transform="rotate(-45,10,0)" dominant-baseline="auto" fill="black" class="textsH1_2">var5</text></g></g><g class="textsH1_1" transform="translate(100,0)"><g class="textsH1_2_g"><text x="10" y="0" style="text-anchor: start; font-size: 10px; font-weight: normal; font-family: Arial;" transform="rotate(-45,10,0)" dominant-baseline="auto" fill="black" class="textsH1_2">var6</text></g></g><g class="textsH1_1" transform="translate(120,0)"><g class="textsH1_2_g"><text x="10" y="0" style="text-anchor: start; font-size: 10px; font-weight: normal; font-family: Arial;" transform="rotate(-45,10,0)" dominant-baseline="auto" fill="black" class="textsH1_2">var7</text></g></g><g class="textsH1_1" transform="translate(140,0)"><g class="textsH1_2_g"><text x="10" y="0" style="text-anchor: start; font-size: 10px; font-weight: normal; font-family: Arial;" transform="rotate(-45,10,0)" dominant-baseline="auto" fill="black" class="textsH1_2">var8</text></g></g><g class="textsH1_1" transform="translate(160,0)"><g class="textsH1_2_g"><text x="10" y="0" style="text-anchor: start; font-size: 10px; font-weight: normal; font-family: Arial;" transform="rotate(-45,10,0)" dominant-baseline="auto" fill="black" class="textsH1_2">var9</text></g></g><g class="textsH1_1" transform="translate(180,0)"><g class="textsH1_2_g"><text x="10" y="0" style="text-anchor: start; font-size: 10px; font-weight: normal; font-family: Arial;" transform="rotate(-45,10,0)" dominant-baseline="auto" fill="black" class="textsH1_2">var10</text></g></g><g class="textsH1_1" transform="translate(200,0)"><g class="textsH1_2_g"><text x="10" y="0" style="text-anchor: start; font-size: 10px; font-weight: normal; font-family: Arial;" transform="rotate(-45,10,0)" dominant-baseline="auto" fill="black" class="textsH1_2">var11</text></g></g><g class="textsH1_1" transform="translate(220,0)"><g class="textsH1_2_g"><text x="10" y="0" style="text-anchor: start; font-size: 10px; font-weight: normal; font-family: Arial;" transform="rotate(-45,10,0)" dominant-baseline="auto" fill="black" class="textsH1_2">var12</text></g></g><g class="textsH1_1" transform="translate(240,0)"><g class="textsH1_2_g"><text x="10" y="0" style="text-anchor: start; font-size: 10px; font-weight: normal; font-family: Arial;" transform="rotate(-45,10,0)" dominant-baseline="auto" fill="black" class="textsH1_2">var13</text></g></g><g class="textsH1_1" transform="translate(260,0)"><g class="textsH1_2_g"><text x="10" y="0" style="text-anchor: start; font-size: 10px; font-weight: normal; font-family: Arial;" transform="rotate(-45,10,0)" dominant-baseline="auto" fill="black" class="textsH1_2">var14</text></g></g><g class="textsH1_1" transform="translate(280,0)"><g class="textsH1_2_g"><text x="10" y="0" style="text-anchor: start; font-size: 10px; font-weight: normal; font-family: Arial;" transform="rotate(-45,10,0)" dominant-baseline="auto" fill="black" class="textsH1_2">var15</text></g></g><g class="textsH1_1" transform="translate(300,0)"><g class="textsH1_2_g"><text x="10" y="0" style="text-anchor: start; font-size: 10px; font-weight: normal; font-family: Arial;" transform="rotate(-45,10,0)" dominant-baseline="auto" fill="black" class="textsH1_2">var16</text></g></g></g><g transform="translate(0,0)" class="gridLines1"><g class="gridLines1_1" transform="translate(0,0)"><line x1="20" y1="0" x2="320" y2="0" stroke="black" stroke-width="0.5" stroke-dasharray="1,0" class="gridLines1_2"></line></g><g class="gridLines1_1" transform="translate(0,20)"><line x1="20" y1="0" x2="320" y2="0" stroke="black" stroke-width="0.5" stroke-dasharray="1,0" class="gridLines1_2"></line></g><g class="gridLines1_1" transform="translate(0,40)"><line x1="40" y1="0" x2="320" y2="0" stroke="black" stroke-width="0.5" stroke-dasharray="1,0" class="gridLines1_2"></line></g><g class="gridLines1_1" transform="translate(0,60)"><line x1="60" y1="0" x2="320" y2="0" stroke="black" stroke-width="0.5" stroke-dasharray="1,0" class="gridLines1_2"></line></g><g class="gridLines1_1" transform="translate(0,80)"><line x1="80" y1="0" x2="320" y2="0" stroke="black" stroke-width="0.5" stroke-dasharray="1,0" class="gridLines1_2"></line></g><g class="gridLines1_1" transform="translate(0,100)"><line x1="100" y1="0" x2="320" y2="0" stroke="black" stroke-width="0.5" stroke-dasharray="1,0" class="gridLines1_2"></line></g><g class="gridLines1_1" transform="translate(0,120)"><line x1="120" y1="0" x2="320" y2="0" stroke="black" stroke-width="0.5" stroke-dasharray="1,0" class="gridLines1_2"></line></g><g class="gridLines1_1" transform="translate(0,140)"><line x1="140" y1="0" x2="320" y2="0" stroke="black" stroke-width="0.5" stroke-dasharray="1,0" class="gridLines1_2"></line></g><g class="gridLines1_1" transform="translate(0,160)"><line x1="160" y1="0" x2="320" y2="0" stroke="black" stroke-width="0.5" stroke-dasharray="1,0" class="gridLines1_2"></line></g><g class="gridLines1_1" transform="translate(0,180)"><line x1="180" y1="0" x2="320" y2="0" stroke="black" stroke-width="0.5" stroke-dasharray="1,0" class="gridLines1_2"></line></g><g class="gridLines1_1" transform="translate(0,200)"><line x1="200" y1="0" x2="320" y2="0" stroke="black" stroke-width="0.5" stroke-dasharray="1,0" class="gridLines1_2"></line></g><g class="gridLines1_1" transform="translate(0,220)"><line x1="220" y1="0" x2="320" y2="0" stroke="black" stroke-width="0.5" stroke-dasharray="1,0" class="gridLines1_2"></line></g><g class="gridLines1_1" transform="translate(0,240)"><line x1="240" y1="0" x2="320" y2="0" stroke="black" stroke-width="0.5" stroke-dasharray="1,0" class="gridLines1_2"></line></g><g class="gridLines1_1" transform="translate(0,260)"><line x1="260" y1="0" x2="320" y2="0" stroke="black" stroke-width="0.5" stroke-dasharray="1,0" class="gridLines1_2"></line></g><g class="gridLines1_1" transform="translate(0,280)"><line x1="280" y1="0" x2="320" y2="0" stroke="black" stroke-width="0.5" stroke-dasharray="1,0" class="gridLines1_2"></line></g><g class="gridLines1_1" transform="translate(0,300)"><line x1="300" y1="0" x2="320" y2="0" stroke="black" stroke-width="0.5" stroke-dasharray="1,0" class="gridLines1_2"></line></g><g class="gridLines1_1" transform="translate(0,320)"><line x1="320" y1="0" x2="320" y2="0" stroke="black" stroke-width="0.5" stroke-dasharray="1,0" class="gridLines1_2"></line></g><g class="gridLines1_3" transform="translate(0,0)"><line x1="0" y1="0" x2="0" y2="0" stroke="black" stroke-width="0.5" stroke-dasharray="1,0" class="gridLines1_4"></line></g><g class="gridLines1_3" transform="translate(20,0)"><line x1="0" y1="0" x2="0" y2="20" stroke="black" stroke-width="0.5" stroke-dasharray="1,0" class="gridLines1_4"></line></g><g class="gridLines1_3" transform="translate(40,0)"><line x1="0" y1="0" x2="0" y2="40" stroke="black" stroke-width="0.5" stroke-dasharray="1,0" class="gridLines1_4"></line></g><g class="gridLines1_3" transform="translate(60,0)"><line x1="0" y1="0" x2="0" y2="60" stroke="black" stroke-width="0.5" stroke-dasharray="1,0" class="gridLines1_4"></line></g><g class="gridLines1_3" transform="translate(80,0)"><line x1="0" y1="0" x2="0" y2="80" stroke="black" stroke-width="0.5" stroke-dasharray="1,0" class="gridLines1_4"></line></g><g class="gridLines1_3" transform="translate(100,0)"><line x1="0" y1="0" x2="0" y2="100" stroke="black" stroke-width="0.5" stroke-dasharray="1,0" class="gridLines1_4"></line></g><g class="gridLines1_3" transform="translate(120,0)"><line x1="0" y1="0" x2="0" y2="120" stroke="black" stroke-width="0.5" stroke-dasharray="1,0" class="gridLines1_4"></line></g><g class="gridLines1_3" transform="translate(140,0)"><line x1="0" y1="0" x2="0" y2="140" stroke="black" stroke-width="0.5" stroke-dasharray="1,0" class="gridLines1_4"></line></g><g class="gridLines1_3" transform="translate(160,0)"><line x1="0" y1="0" x2="0" y2="160" stroke="black" stroke-width="0.5" stroke-dasharray="1,0" class="gridLines1_4"></line></g><g class="gridLines1_3" transform="translate(180,0)"><line x1="0" y1="0" x2="0" y2="180" stroke="black" stroke-width="0.5" stroke-dasharray="1,0" class="gridLines1_4"></line></g><g class="gridLines1_3" transform="translate(200,0)"><line x1="0" y1="0" x2="0" y2="200" stroke="black" stroke-width="0.5" stroke-dasharray="1,0" class="gridLines1_4"></line></g><g class="gridLines1_3" transform="translate(220,0)"><line x1="0" y1="0" x2="0" y2="220" stroke="black" stroke-width="0.5" stroke-dasharray="1,0" class="gridLines1_4"></line></g><g class="gridLines1_3" transform="translate(240,0)"><line x1="0" y1="0" x2="0" y2="240" stroke="black" stroke-width="0.5" stroke-dasharray="1,0" class="gridLines1_4"></line></g><g class="gridLines1_3" transform="translate(260,0)"><line x1="0" y1="0" x2="0" y2="260" stroke="black" stroke-width="0.5" stroke-dasharray="1,0" class="gridLines1_4"></line></g><g class="gridLines1_3" transform="translate(280,0)"><line x1="0" y1="0" x2="0" y2="280" stroke="black" stroke-width="0.5" stroke-dasharray="1,0" class="gridLines1_4"></line></g><g class="gridLines1_3" transform="translate(300,0)"><line x1="0" y1="0" x2="0" y2="300" stroke="black" stroke-width="0.5" stroke-dasharray="1,0" class="gridLines1_4"></line></g><g class="gridLines1_3" transform="translate(320,0)"><line x1="0" y1="0" x2="0" y2="300" stroke="black" stroke-width="0.5" stroke-dasharray="1,0" class="gridLines1_4"></line></g></g><g transform="translate(0,0)" class="textsV1"><g class="textsV1_1" transform="translate(15,0)"><g class="textsV1_2_g"><text x="0" y="10" style="text-anchor: end; font-size: 10px; font-weight: normal; font-family: Arial;" transform="rotate(0,0,10)" dominant-baseline="middle" fill="black" class="textsV1_2">var2</text></g></g><g class="textsV1_1" transform="translate(35,20)"><g class="textsV1_2_g"><text x="0" y="10" style="text-anchor: end; font-size: 10px; font-weight: normal; font-family: Arial;" transform="rotate(0,0,10)" dominant-baseline="middle" fill="black" class="textsV1_2">var1</text></g></g><g class="textsV1_1" transform="translate(55,40)"><g class="textsV1_2_g"><text x="0" y="10" style="text-anchor: end; font-size: 10px; font-weight: normal; font-family: Arial;" transform="rotate(0,0,10)" dominant-baseline="middle" fill="black" class="textsV1_2">var4</text></g></g><g class="textsV1_1" transform="translate(75,60)"><g class="textsV1_2_g"><text x="0" y="10" style="text-anchor: end; font-size: 10px; font-weight: normal; font-family: Arial;" transform="rotate(0,0,10)" dominant-baseline="middle" fill="black" class="textsV1_2">var3</text></g></g><g class="textsV1_1" transform="translate(95,80)"><g class="textsV1_2_g"><text x="0" y="10" style="text-anchor: end; font-size: 10px; font-weight: normal; font-family: Arial;" transform="rotate(0,0,10)" dominant-baseline="middle" fill="black" class="textsV1_2">var5</text></g></g><g class="textsV1_1" transform="translate(115,100)"><g class="textsV1_2_g"><text x="0" y="10" style="text-anchor: end; font-size: 10px; font-weight: normal; font-family: Arial;" transform="rotate(0,0,10)" dominant-baseline="middle" fill="black" class="textsV1_2">var6</text></g></g><g class="textsV1_1" transform="translate(135,120)"><g class="textsV1_2_g"><text x="0" y="10" style="text-anchor: end; font-size: 10px; font-weight: normal; font-family: Arial;" transform="rotate(0,0,10)" dominant-baseline="middle" fill="black" class="textsV1_2">var7</text></g></g><g class="textsV1_1" transform="translate(155,140)"><g class="textsV1_2_g"><text x="0" y="10" style="text-anchor: end; font-size: 10px; font-weight: normal; font-family: Arial;" transform="rotate(0,0,10)" dominant-baseline="middle" fill="black" class="textsV1_2">var8</text></g></g><g class="textsV1_1" transform="translate(175,160)"><g class="textsV1_2_g"><text x="0" y="10" style="text-anchor: end; font-size: 10px; font-weight: normal; font-family: Arial;" transform="rotate(0,0,10)" dominant-baseline="middle" fill="black" class="textsV1_2">var9</text></g></g><g class="textsV1_1" transform="translate(195,180)"><g class="textsV1_2_g"><text x="0" y="10" style="text-anchor: end; font-size: 10px; font-weight: normal; font-family: Arial;" transform="rotate(0,0,10)" dominant-baseline="middle" fill="black" class="textsV1_2">var10</text></g></g><g class="textsV1_1" transform="translate(215,200)"><g class="textsV1_2_g"><text x="0" y="10" style="text-anchor: end; font-size: 10px; font-weight: normal; font-family: Arial;" transform="rotate(0,0,10)" dominant-baseline="middle" fill="black" class="textsV1_2">var11</text></g></g><g class="textsV1_1" transform="translate(235,220)"><g class="textsV1_2_g"><text x="0" y="10" style="text-anchor: end; font-size: 10px; font-weight: normal; font-family: Arial;" transform="rotate(0,0,10)" dominant-baseline="middle" fill="black" class="textsV1_2">var12</text></g></g><g class="textsV1_1" transform="translate(255,240)"><g class="textsV1_2_g"><text x="0" y="10" style="text-anchor: end; font-size: 10px; font-weight: normal; font-family: Arial;" transform="rotate(0,0,10)" dominant-baseline="middle" fill="black" class="textsV1_2">var13</text></g></g><g class="textsV1_1" transform="translate(275,260)"><g class="textsV1_2_g"><text x="0" y="10" style="text-anchor: end; font-size: 10px; font-weight: normal; font-family: Arial;" transform="rotate(0,0,10)" dominant-baseline="middle" fill="black" class="textsV1_2">var14</text></g></g><g class="textsV1_1" transform="translate(295,280)"><g class="textsV1_2_g"><text x="0" y="10" style="text-anchor: end; font-size: 10px; font-weight: normal; font-family: Arial;" transform="rotate(0,0,10)" dominant-baseline="middle" fill="black" class="textsV1_2">var15</text></g></g><g class="textsV1_1" transform="translate(315,300)"><g class="textsV1_2_g"><text x="0" y="10" style="text-anchor: end; font-size: 10px; font-weight: normal; font-family: Arial;" transform="rotate(0,0,10)" dominant-baseline="middle" fill="black" class="textsV1_2">var16</text></g></g></g><g transform="translate(340,0)" class="dotLegend1"><g class="dotLegend1_1" transform="translate(0,0)"><g class="dotLegend1_3_g"><text x="20" y="0" style="text-anchor: start; font-size: 0px; font-weight: normal; font-family: Arial;" transform="rotate(0,20,0)" dominant-baseline="middle" fill="black" class="dotLegend1_3">0</text></g><circle cx="0" cy="0" r="0" stroke="black" stroke-width="1" stroke-dasharray="1,0" fill="black" fill-opacity="1" class="circle2"></circle></g><g class="dotLegend1_1" transform="translate(0,20)"><g class="dotLegend1_3_g"><text x="20" y="0" style="text-anchor: start; font-size: 12px; font-weight: normal; font-family: Arial;" transform="rotate(0,20,0)" dominant-baseline="middle" fill="black" class="dotLegend1_3">0.2</text></g><circle cx="0" cy="0" r="2" stroke="black" stroke-width="1" stroke-dasharray="1,0" fill="black" fill-opacity="1" class="circle2"></circle></g><g class="dotLegend1_1" transform="translate(0,40)"><g class="dotLegend1_3_g"><text x="20" y="0" style="text-anchor: start; font-size: 12px; font-weight: normal; font-family: Arial;" transform="rotate(0,20,0)" dominant-baseline="middle" fill="black" class="dotLegend1_3">0.4</text></g><circle cx="0" cy="0" r="4" stroke="black" stroke-width="1" stroke-dasharray="1,0" fill="black" fill-opacity="1" class="circle2"></circle></g><g class="dotLegend1_1" transform="translate(0,60)"><g class="dotLegend1_3_g"><text x="20" y="0" style="text-anchor: start; font-size: 12px; font-weight: normal; font-family: Arial;" transform="rotate(0,20,0)" dominant-baseline="middle" fill="black" class="dotLegend1_3">0.6</text></g><circle cx="0" cy="0" r="6" stroke="black" stroke-width="1" stroke-dasharray="1,0" fill="black" fill-opacity="1" class="circle2"></circle></g><g class="dotLegend1_1" transform="translate(0,80)"><g class="dotLegend1_3_g"><text x="20" y="0" style="text-anchor: start; font-size: 12px; font-weight: normal; font-family: Arial;" transform="rotate(0,20,0)" dominant-baseline="middle" fill="black" class="dotLegend1_3">0.8</text></g><circle cx="0" cy="0" r="8" stroke="black" stroke-width="1" stroke-dasharray="1,0" fill="black" fill-opacity="1" class="circle2"></circle></g></g><g transform="translate(340,180)" class="legendCL1"><g class="legendCL1_1_g"><text x="0" y="-10" style="text-anchor: start; font-size: 12px; font-weight: normal; font-family: Arial;" transform="rotate(0,0,-10)" dominant-baseline="auto" fill="black" class="legendCL1_1"></text></g><g class="legendCL1_2" transform="translate(0,0)"><circle cx="0" cy="0" r="4" stroke="black" stroke-width="0" stroke-dasharray="1,0" fill="#4a6990" fill-opacity="1" class="legendCL1_4"></circle><g class="legendCL1_5_g"><text x="12" y="0" style="text-anchor: start; font-size: 12px; font-weight: normal; font-family: Arial;" transform="rotate(0,12,0)" dominant-baseline="middle" fill="black" class="legendCL1_5">a</text></g></g><g class="legendCL1_2" transform="translate(0,17)"><circle cx="0" cy="0" r="4" stroke="black" stroke-width="0" stroke-dasharray="1,0" fill="#efc000" fill-opacity="1" class="legendCL1_4"></circle><g class="legendCL1_5_g"><text x="12" y="0" style="text-anchor: start; font-size: 12px; font-weight: normal; font-family: Arial;" transform="rotate(0,12,0)" dominant-baseline="middle" fill="black" class="legendCL1_5">b</text></g></g><g class="legendCL1_2" transform="translate(0,34)"><circle cx="0" cy="0" r="4" stroke="black" stroke-width="0" stroke-dasharray="1,0" fill="#7aa6dc" fill-opacity="1" class="legendCL1_4"></circle><g class="legendCL1_5_g"><text x="12" y="0" style="text-anchor: start; font-size: 12px; font-weight: normal; font-family: Arial;" transform="rotate(0,12,0)" dominant-baseline="middle" fill="black" class="legendCL1_5">c</text></g></g></g></g></svg>
