<svg width="490" height="310" id="ngplotSvg"><g transform="translate(100,210)" class="group1"><g transform="translate(0,0)" class="bottomAxisS2"><line x1="0" y1="0" x2="240" y2="0" stroke="black" stroke-width="1" stroke-dasharray="1,0" class="bottomAxisS2_1"></line><g class="bottomAxisS2_2" transform="translate(17.56098,0)"><line x1="0" y1="0" x2="0" y2="3" stroke="black" stroke-width="1" stroke-dasharray="1,0" class="bottomAxisS2_3"></line><g class="bottomAxisS2_4_g"><text x="2" y="10" style="text-anchor: end; font-size: 12px; font-weight: normal; font-family: Arial; font-style: normal;" transform="rotate(-45,2,10)" dominant-baseline="middle" fill="black" class="bottomAxisS2_4">name1</text></g></g><g class="bottomAxisS2_2" transform="translate(58.536588,0)"><line x1="0" y1="0" x2="0" y2="3" stroke="black" stroke-width="1" stroke-dasharray="1,0" class="bottomAxisS2_3"></line><g class="bottomAxisS2_4_g"><text x="2" y="10" style="text-anchor: end; font-size: 12px; font-weight: normal; font-family: Arial; font-style: normal;" transform="rotate(-45,2,10)" dominant-baseline="middle" fill="black" class="bottomAxisS2_4">name2</text></g></g><g class="bottomAxisS2_2" transform="translate(99.512196,0)"><line x1="0" y1="0" x2="0" y2="3" stroke="black" stroke-width="1" stroke-dasharray="1,0" class="bottomAxisS2_3"></line><g class="bottomAxisS2_4_g"><text x="2" y="10" style="text-anchor: end; font-size: 12px; font-weight: normal; font-family: Arial; font-style: normal;" transform="rotate(-45,2,10)" dominant-baseline="middle" fill="black" class="bottomAxisS2_4">name3</text></g></g><g class="bottomAxisS2_2" transform="translate(140.487804,0)"><line x1="0" y1="0" x2="0" y2="3" stroke="black" stroke-width="1" stroke-dasharray="1,0" class="bottomAxisS2_3"></line><g class="bottomAxisS2_4_g"><text x="2" y="10" style="text-anchor: end; font-size: 12px; font-weight: normal; font-family: Arial; font-style: normal;" transform="rotate(-45,2,10)" dominant-baseline="middle" fill="black" class="bottomAxisS2_4">name4</text></g></g><g class="bottomAxisS2_2" transform="translate(181.463412,0)"><line x1="0" y1="0" x2="0" y2="3" stroke="black" stroke-width="1" stroke-dasharray="1,0" class="bottomAxisS2_3"></line><g class="bottomAxisS2_4_g"><text x="2" y="10" style="text-anchor: end; font-size: 12px; font-weight: normal; font-family: Arial; font-style: normal;" transform="rotate(-45,2,10)" dominant-baseline="middle" fill="black" class="bottomAxisS2_4">name5</text></g></g><g class="bottomAxisS2_2" transform="translate(222.43902,0)"><line x1="0" y1="0" x2="0" y2="3" stroke="black" stroke-width="1" stroke-dasharray="1,0" class="bottomAxisS2_3"></line><g class="bottomAxisS2_4_g"><text x="2" y="10" style="text-anchor: end; font-size: 12px; font-weight: normal; font-family: Arial; font-style: normal;" transform="rotate(-45,2,10)" dominant-baseline="middle" fill="black" class="bottomAxisS2_4">name6</text></g></g></g><g transform="translate(0,0)" class="leftAxisN2"><line x1="0" y1="0" x2="0" y2="-160" stroke="black" stroke-width="1" stroke-dasharray="1,0" stroke-opacity="1" class="leftAxisN2_1"></line><g class="leftAxisN2_2" transform="translate(0,0)"><line x1="0" y1="0" x2="-3" y2="0" stroke="black" stroke-width="1" stroke-dasharray="1,0" class="leftAxisN2_3"></line><g class="leftAxisN2_4_g"><text x="-5" y="0" style="text-anchor: end; font-size: 12px; font-weight: normal; font-family: Arial; font-style: normal;" transform="rotate(0,-5,0)" dominant-baseline="middle" fill="black" class="leftAxisN2_4">0</text></g></g><g class="leftAxisN2_2" transform="translate(0,-32)"><line x1="0" y1="0" x2="-3" y2="0" stroke="black" stroke-width="1" stroke-dasharray="1,0" class="leftAxisN2_3"></line><g class="leftAxisN2_4_g"><text x="-5" y="0" style="text-anchor: end; font-size: 12px; font-weight: normal; font-family: Arial; font-style: normal;" transform="rotate(0,-5,0)" dominant-baseline="middle" fill="black" class="leftAxisN2_4">20</text></g></g><g class="leftAxisN2_2" transform="translate(0,-64)"><line x1="0" y1="0" x2="-3" y2="0" stroke="black" stroke-width="1" stroke-dasharray="1,0" class="leftAxisN2_3"></line><g class="leftAxisN2_4_g"><text x="-5" y="0" style="text-anchor: end; font-size: 12px; font-weight: normal; font-family: Arial; font-style: normal;" transform="rotate(0,-5,0)" dominant-baseline="middle" fill="black" class="leftAxisN2_4">40</text></g></g><g class="leftAxisN2_2" transform="translate(0,-96)"><line x1="0" y1="0" x2="-3" y2="0" stroke="black" stroke-width="1" stroke-dasharray="1,0" class="leftAxisN2_3"></line><g class="leftAxisN2_4_g"><text x="-5" y="0" style="text-anchor: end; font-size: 12px; font-weight: normal; font-family: Arial; font-style: normal;" transform="rotate(0,-5,0)" dominant-baseline="middle" fill="black" class="leftAxisN2_4">60</text></g></g><g class="leftAxisN2_2" transform="translate(0,-128)"><line x1="0" y1="0" x2="-3" y2="0" stroke="black" stroke-width="1" stroke-dasharray="1,0" class="leftAxisN2_3"></line><g class="leftAxisN2_4_g"><text x="-5" y="0" style="text-anchor: end; font-size: 12px; font-weight: normal; font-family: Arial; font-style: normal;" transform="rotate(0,-5,0)" dominant-baseline="middle" fill="black" class="leftAxisN2_4">80</text></g></g><g class="leftAxisN2_2" transform="translate(0,-160)"><line x1="0" y1="0" x2="-3" y2="0" stroke="black" stroke-width="1" stroke-dasharray="1,0" class="leftAxisN2_3"></line><g class="leftAxisN2_4_g"><text x="-5" y="0" style="text-anchor: end; font-size: 12px; font-weight: normal; font-family: Arial; font-style: normal;" transform="rotate(0,-5,0)" dominant-baseline="middle" fill="black" class="leftAxisN2_4">100</text></g></g><g class="text1_g"><text x="-40" y="-80" style="text-anchor: middle; font-size: 12px; font-weight: normal; font-family: Arial; font-style: normal;" transform="rotate(-90,-40,-80)" dominant-baseline="middle" fill="black" class="text1">score</text></g></g><g class="group2" transform="translate(17.56098,0)"><rect x="-10.34485" y="-152" width="20.6897" height="152" rx="0" ry="0" fill="#f1af81" stroke="black" stroke-width="1" fill-opacity="1" transform="rotate(0,-10.34485,-152)" stroke-opacity="1" class="rect2"></rect></g><g class="group2" transform="translate(58.536588,0)"><rect x="-10.34485" y="-137.6" width="20.6897" height="137.6" rx="0" ry="0" fill="#a6cd8b" stroke="black" stroke-width="1" fill-opacity="1" transform="rotate(0,-10.34485,-137.6)" stroke-opacity="1" class="rect2"></rect></g><g class="group2" transform="translate(99.512196,0)"><rect x="-10.34485" y="-144" width="20.6897" height="144" rx="0" ry="0" fill="#3a62a8" stroke="black" stroke-width="1" fill-opacity="1" transform="rotate(0,-10.34485,-144)" stroke-opacity="1" class="rect2"></rect></g><g class="group2" transform="translate(140.487804,0)"><rect x="-10.34485" y="-89.60000000000001" width="20.6897" height="89.60000000000001" rx="0" ry="0" fill="#f3807b" stroke="black" stroke-width="1" fill-opacity="1" transform="rotate(0,-10.34485,-89.60000000000001)" stroke-opacity="1" class="rect2"></rect></g><g class="group2" transform="translate(181.463412,0)"><rect x="-10.34485" y="-134.4" width="20.6897" height="134.4" rx="0" ry="0" fill="#f5c9ab" stroke="black" stroke-width="1" fill-opacity="1" transform="rotate(0,-10.34485,-134.4)" stroke-opacity="1" class="rect2"></rect></g><g class="group2" transform="translate(222.43902,0)"><rect x="-10.34485" y="-139.2" width="20.6897" height="139.2" rx="0" ry="0" fill="#e0ca86" stroke="black" stroke-width="1" fill-opacity="1" transform="rotate(0,-10.34485,-139.2)" stroke-opacity="1" class="rect2"></rect></g></g></svg>
