<svg width="490" height="400" id="ngplotSvg"><g transform="translate(80,300)" class="group1"><g transform="translate(0,0)" class="bSlN2axis1"><g transform="translate(0,0)" class="bSlN2axis1_1"><line x1="0" y1="0" x2="260" y2="0" stroke="black" stroke-width="1" stroke-dasharray="1,0" class="bSlN2axis1_2"></line><g class="bSlN2axis1_3" transform="translate(28.888859999999998,0)"><line x1="0" y1="0" x2="0" y2="5" stroke="black" stroke-width="1" stroke-dasharray="1,0" class="bSlN2axis1_4"></line><g class="bSlN2axis1_5_g"><text x="2" y="13" style="text-anchor: end; font-size: 12px; font-weight: normal; font-family: Arial; font-style: normal;" transform="rotate(-45,2,13)" dominant-baseline="auto" fill="black" class="bSlN2axis1_5">day1</text></g></g><g class="bSlN2axis1_3" transform="translate(96.29628666666666,0)"><line x1="0" y1="0" x2="0" y2="5" stroke="black" stroke-width="1" stroke-dasharray="1,0" class="bSlN2axis1_4"></line><g class="bSlN2axis1_5_g"><text x="2" y="13" style="text-anchor: end; font-size: 12px; font-weight: normal; font-family: Arial; font-style: normal;" transform="rotate(-45,2,13)" dominant-baseline="auto" fill="black" class="bSlN2axis1_5">day2</text></g></g><g class="bSlN2axis1_3" transform="translate(163.70371333333333,0)"><line x1="0" y1="0" x2="0" y2="5" stroke="black" stroke-width="1" stroke-dasharray="1,0" class="bSlN2axis1_4"></line><g class="bSlN2axis1_5_g"><text x="2" y="13" style="text-anchor: end; font-size: 12px; font-weight: normal; font-family: Arial; font-style: normal;" transform="rotate(-45,2,13)" dominant-baseline="auto" fill="black" class="bSlN2axis1_5">day3</text></g></g><g class="bSlN2axis1_3" transform="translate(231.11113999999998,0)"><line x1="0" y1="0" x2="0" y2="5" stroke="black" stroke-width="1" stroke-dasharray="1,0" class="bSlN2axis1_4"></line><g class="bSlN2axis1_5_g"><text x="2" y="13" style="text-anchor: end; font-size: 12px; font-weight: normal; font-family: Arial; font-style: normal;" transform="rotate(-45,2,13)" dominant-baseline="auto" fill="black" class="bSlN2axis1_5">day4</text></g></g></g><g transform="translate(0,0)" class="bSlN2axis1_6"><line x1="0" y1="0" x2="0" y2="-220" stroke="black" stroke-width="1" stroke-dasharray="1,0" stroke-opacity="1" class="bSlN2axis1_7"></line><g class="bSlN2axis1_8" transform="translate(0,-10)"><line x1="0" y1="0" x2="-5" y2="0" stroke="black" stroke-width="1" stroke-dasharray="1,0" class="bSlN2axis1_9"></line><g class="bSlN2axis1_10_g"><text x="-10" y="0" style="text-anchor: end; font-size: 12px; font-weight: normal; font-family: Arial; font-style: normal;" transform="rotate(0,-10,0)" dominant-baseline="middle" fill="black" class="bSlN2axis1_10">-30</text></g></g><g class="bSlN2axis1_8" transform="translate(0,-52)"><line x1="0" y1="0" x2="-5" y2="0" stroke="black" stroke-width="1" stroke-dasharray="1,0" class="bSlN2axis1_9"></line><g class="bSlN2axis1_10_g"><text x="-10" y="0" style="text-anchor: end; font-size: 12px; font-weight: normal; font-family: Arial; font-style: normal;" transform="rotate(0,-10,0)" dominant-baseline="middle" fill="black" class="bSlN2axis1_10">-20</text></g></g><g class="bSlN2axis1_8" transform="translate(0,-94)"><line x1="0" y1="0" x2="-5" y2="0" stroke="black" stroke-width="1" stroke-dasharray="1,0" class="bSlN2axis1_9"></line><g class="bSlN2axis1_10_g"><text x="-10" y="0" style="text-anchor: end; font-size: 12px; font-weight: normal; font-family: Arial; font-style: normal;" transform="rotate(0,-10,0)" dominant-baseline="middle" fill="black" class="bSlN2axis1_10">-10</text></g></g><g class="bSlN2axis1_8" transform="translate(0,-136)"><line x1="0" y1="0" x2="-5" y2="0" stroke="black" stroke-width="1" stroke-dasharray="1,0" class="bSlN2axis1_9"></line><g class="bSlN2axis1_10_g"><text x="-10" y="0" style="text-anchor: end; font-size: 12px; font-weight: normal; font-family: Arial; font-style: normal;" transform="rotate(0,-10,0)" dominant-baseline="middle" fill="black" class="bSlN2axis1_10">0</text></g></g><g class="bSlN2axis1_8" transform="translate(0,-178)"><line x1="0" y1="0" x2="-5" y2="0" stroke="black" stroke-width="1" stroke-dasharray="1,0" class="bSlN2axis1_9"></line><g class="bSlN2axis1_10_g"><text x="-10" y="0" style="text-anchor: end; font-size: 12px; font-weight: normal; font-family: Arial; font-style: normal;" transform="rotate(0,-10,0)" dominant-baseline="middle" fill="black" class="bSlN2axis1_10">10</text></g></g><g class="bSlN2axis1_8" transform="translate(0,-220)"><line x1="0" y1="0" x2="-5" y2="0" stroke="black" stroke-width="1" stroke-dasharray="1,0" class="bSlN2axis1_9"></line><g class="bSlN2axis1_10_g"><text x="-10" y="0" style="text-anchor: end; font-size: 12px; font-weight: normal; font-family: Arial; font-style: normal;" transform="rotate(0,-10,0)" dominant-baseline="middle" fill="black" class="bSlN2axis1_10">20</text></g></g></g><line x1="0" y1="-136" x2="260" y2="-136" stroke="black" stroke-width="1" stroke-dasharray="1,0" class="line_h1"></line><g transform="translate(0,-136)" class="group4"><g class="varsBarV1" transform="translate(28.888859999999998,0)"><g class="varsBarV1_1" transform="translate(-8.125,0)"><rect x="-8.125" y="-83.99999999999977" width="16.25" height="83.99999999999977" rx="0" ry="0" fill="#f94746" stroke="black" stroke-width="1" fill-opacity="1" class="varsBarV1_2"></rect></g><g class="varsBarV1_1" transform="translate(8.125,0)"><rect x="-8.125" y="0" width="16.25" height="62.99999999999983" rx="0" ry="0" fill="#525859" stroke="black" stroke-width="1" fill-opacity="1" class="varsBarV1_2"></rect></g></g><g class="varsBarV1" transform="translate(96.29628666666666,0)"><g class="varsBarV1_1" transform="translate(-8.125,0)"><rect x="-8.125" y="-41.999999999999886" width="16.25" height="41.999999999999886" rx="0" ry="0" fill="#f94746" stroke="black" stroke-width="1" fill-opacity="1" class="varsBarV1_2"></rect></g><g class="varsBarV1_1" transform="translate(8.125,0)"><rect x="-8.125" y="0" width="16.25" height="41.999999999999886" rx="0" ry="0" fill="#525859" stroke="black" stroke-width="1" fill-opacity="1" class="varsBarV1_2"></rect></g></g><g class="varsBarV1" transform="translate(163.70371333333333,0)"><g class="varsBarV1_1" transform="translate(-8.125,0)"><rect x="-8.125" y="0" width="16.25" height="20.999999999999943" rx="0" ry="0" fill="#f94746" stroke="black" stroke-width="1" fill-opacity="1" class="varsBarV1_2"></rect></g><g class="varsBarV1_1" transform="translate(8.125,0)"><rect x="-8.125" y="0" width="16.25" height="88.19999999999976" rx="0" ry="0" fill="#525859" stroke="black" stroke-width="1" fill-opacity="1" class="varsBarV1_2"></rect></g></g><g class="varsBarV1" transform="translate(231.11113999999998,0)"><g class="varsBarV1_1" transform="translate(-8.125,0)"><rect x="-8.125" y="-83.99999999999977" width="16.25" height="83.99999999999977" rx="0" ry="0" fill="#f94746" stroke="black" stroke-width="1" fill-opacity="1" class="varsBarV1_2"></rect></g><g class="varsBarV1_1" transform="translate(8.125,0)"><rect x="-8.125" y="0" width="16.25" height="20.999999999999943" rx="0" ry="0" fill="#525859" stroke="black" stroke-width="1" fill-opacity="1" class="varsBarV1_2"></rect></g></g></g></g></g></svg>
