<svg width="550" height="450" id="ngplotSvg"><g transform="translate(100,0)" class="group1"><g transform="translate(0,200)" class="bSlN2axis1"><g transform="translate(0,0)" class="bSlN2axis1_1"><line x1="0" y1="0" x2="300" y2="0" stroke="black" stroke-width="1" stroke-dasharray="1,0" class="bSlN2axis1_2"></line><g class="bSlN2axis1_3" transform="translate(33.33336,0)"><line x1="0" y1="0" x2="0" y2="5" stroke="black" stroke-width="1" stroke-dasharray="1,0" class="bSlN2axis1_4"></line><g class="bSlN2axis1_5_g"><text x="2" y="12" style="text-anchor: end; font-size: 12px; font-weight: normal; font-family: Arial;" transform="rotate(-45,2,12)" dominant-baseline="auto" fill="black" class="bSlN2axis1_5">A</text></g></g><g class="bSlN2axis1_3" transform="translate(111.11112000000001,0)"><line x1="0" y1="0" x2="0" y2="5" stroke="black" stroke-width="1" stroke-dasharray="1,0" class="bSlN2axis1_4"></line><g class="bSlN2axis1_5_g"><text x="2" y="12" style="text-anchor: end; font-size: 12px; font-weight: normal; font-family: Arial;" transform="rotate(-45,2,12)" dominant-baseline="auto" fill="black" class="bSlN2axis1_5">B</text></g></g><g class="bSlN2axis1_3" transform="translate(188.88888000000003,0)"><line x1="0" y1="0" x2="0" y2="5" stroke="black" stroke-width="1" stroke-dasharray="1,0" class="bSlN2axis1_4"></line><g class="bSlN2axis1_5_g"><text x="2" y="12" style="text-anchor: end; font-size: 12px; font-weight: normal; font-family: Arial;" transform="rotate(-45,2,12)" dominant-baseline="auto" fill="black" class="bSlN2axis1_5">C</text></g></g><g class="bSlN2axis1_3" transform="translate(266.66664000000003,0)"><line x1="0" y1="0" x2="0" y2="5" stroke="black" stroke-width="1" stroke-dasharray="1,0" class="bSlN2axis1_4"></line><g class="bSlN2axis1_5_g"><text x="2" y="12" style="text-anchor: end; font-size: 12px; font-weight: normal; font-family: Arial;" transform="rotate(-45,2,12)" dominant-baseline="auto" fill="black" class="bSlN2axis1_5">D</text></g></g><g class="text1_g"><text x="150" y="50" style="text-anchor: middle; font-size: 12px; font-weight: normal; font-family: Arial;" transform="rotate(0,150,50)" dominant-baseline="auto" fill="black" class="text1"></text></g></g><g transform="translate(0,0)" class="bSlN2axis1_6"><line x1="0" y1="0" x2="0" y2="-160" stroke="black" stroke-width="1" stroke-dasharray="1,0" class="bSlN2axis1_7"></line><g class="bSlN2axis1_8" transform="translate(0,0)"><line x1="0" y1="0" x2="-5" y2="0" stroke="black" stroke-width="1" stroke-dasharray="1,0" class="bSlN2axis1_9"></line><g class="bSlN2axis1_10_g"><text x="-10" y="3" style="text-anchor: end; font-size: 12px; font-weight: normal; font-family: Arial;" transform="rotate(0,-10,3)" dominant-baseline="auto" fill="black" class="bSlN2axis1_10">0</text></g></g><g class="bSlN2axis1_8" transform="translate(0,-32)"><line x1="0" y1="0" x2="-5" y2="0" stroke="black" stroke-width="1" stroke-dasharray="1,0" class="bSlN2axis1_9"></line><g class="bSlN2axis1_10_g"><text x="-10" y="3" style="text-anchor: end; font-size: 12px; font-weight: normal; font-family: Arial;" transform="rotate(0,-10,3)" dominant-baseline="auto" fill="black" class="bSlN2axis1_10">2</text></g></g><g class="bSlN2axis1_8" transform="translate(0,-64)"><line x1="0" y1="0" x2="-5" y2="0" stroke="black" stroke-width="1" stroke-dasharray="1,0" class="bSlN2axis1_9"></line><g class="bSlN2axis1_10_g"><text x="-10" y="3" style="text-anchor: end; font-size: 12px; font-weight: normal; font-family: Arial;" transform="rotate(0,-10,3)" dominant-baseline="auto" fill="black" class="bSlN2axis1_10">4</text></g></g><g class="bSlN2axis1_8" transform="translate(0,-96)"><line x1="0" y1="0" x2="-5" y2="0" stroke="black" stroke-width="1" stroke-dasharray="1,0" class="bSlN2axis1_9"></line><g class="bSlN2axis1_10_g"><text x="-10" y="3" style="text-anchor: end; font-size: 12px; font-weight: normal; font-family: Arial;" transform="rotate(0,-10,3)" dominant-baseline="auto" fill="black" class="bSlN2axis1_10">6</text></g></g><g class="bSlN2axis1_8" transform="translate(0,-128)"><line x1="0" y1="0" x2="-5" y2="0" stroke="black" stroke-width="1" stroke-dasharray="1,0" class="bSlN2axis1_9"></line><g class="bSlN2axis1_10_g"><text x="-10" y="3" style="text-anchor: end; font-size: 12px; font-weight: normal; font-family: Arial;" transform="rotate(0,-10,3)" dominant-baseline="auto" fill="black" class="bSlN2axis1_10">8</text></g></g><g class="bSlN2axis1_8" transform="translate(0,-160)"><line x1="0" y1="0" x2="-5" y2="0" stroke="black" stroke-width="1" stroke-dasharray="1,0" class="bSlN2axis1_9"></line><g class="bSlN2axis1_10_g"><text x="-10" y="3" style="text-anchor: end; font-size: 12px; font-weight: normal; font-family: Arial;" transform="rotate(0,-10,3)" dominant-baseline="auto" fill="black" class="bSlN2axis1_10">10</text></g></g><g class="text2_g"><text x="-40" y="-80" style="text-anchor: middle; font-size: 12px; font-weight: normal; font-family: Arial;" transform="rotate(-90,-40,-80)" dominant-baseline="auto" fill="black" class="text2"></text></g></g><g class="group2" transform="translate(33.33336,0)"><g class="group3" transform="translate(0,-32)" width="6"><circle cx="0" cy="0" r="3" stroke="black" stroke-width="0" stroke-dasharray="1,0" fill="#1f78b4" fill-opacity="1" class="circle1"></circle></g><g class="group3" transform="translate(0,-16)" width="6"><circle cx="0" cy="0" r="3" stroke="black" stroke-width="0" stroke-dasharray="1,0" fill="#e04535" fill-opacity="1" class="circle1"></circle></g><g class="group3" transform="translate(0,-96)" width="6"><circle cx="0" cy="0" r="3" stroke="black" stroke-width="0" stroke-dasharray="1,0" fill="#e49e22" fill-opacity="1" class="circle1"></circle></g></g><g class="group2" transform="translate(111.11112000000001,0)"><g class="group3" transform="translate(0,-16)" width="6"><circle cx="0" cy="0" r="3" stroke="black" stroke-width="0" stroke-dasharray="1,0" fill="#1f78b4" fill-opacity="1" class="circle1"></circle></g><g class="group3" transform="translate(0,-96)" width="6"><circle cx="0" cy="0" r="3" stroke="black" stroke-width="0" stroke-dasharray="1,0" fill="#e04535" fill-opacity="1" class="circle1"></circle></g><g class="group3" transform="translate(0,-144)" width="6"><circle cx="0" cy="0" r="3" stroke="black" stroke-width="0" stroke-dasharray="1,0" fill="#e49e22" fill-opacity="1" class="circle1"></circle></g></g><g class="group2" transform="translate(188.88888000000003,0)"><g class="group3" transform="translate(0,-32)" width="6"><circle cx="0" cy="0" r="3" stroke="black" stroke-width="0" stroke-dasharray="1,0" fill="#1f78b4" fill-opacity="1" class="circle1"></circle></g><g class="group3" transform="translate(0,-96)" width="6"><circle cx="0" cy="0" r="3" stroke="black" stroke-width="0" stroke-dasharray="1,0" fill="#e04535" fill-opacity="1" class="circle1"></circle></g><g class="group3" transform="translate(0,-128)" width="6"><circle cx="0" cy="0" r="3" stroke="black" stroke-width="0" stroke-dasharray="1,0" fill="#e49e22" fill-opacity="1" class="circle1"></circle></g></g><g class="group2" transform="translate(266.66664000000003,0)"><g class="group3" transform="translate(0,-144)" width="6"><circle cx="0" cy="0" r="3" stroke="black" stroke-width="0" stroke-dasharray="1,0" fill="#1f78b4" fill-opacity="1" class="circle1"></circle></g><g class="group3" transform="translate(0,-96)" width="6"><circle cx="0" cy="0" r="3" stroke="black" stroke-width="0" stroke-dasharray="1,0" fill="#e04535" fill-opacity="1" class="circle1"></circle></g><g class="group3" transform="translate(0,-16)" width="6"><circle cx="0" cy="0" r="3" stroke="black" stroke-width="0" stroke-dasharray="1,0" fill="#e49e22" fill-opacity="1" class="circle1"></circle></g></g></g><g transform="translate(330,30)" class="legend1"><g class="legend1_2" transform="translate(0,0)"><rect x="0" y="0" width="10" height="10" fill="#1f78b4" stroke="" stroke-width="" fill-opacity="1" class="legend1_3"></rect><g class="legend1_4_g"><text x="14" y="5" style="text-anchor: start; font-size: 10px; font-weight: normal; font-family: Arial;" transform="rotate(0,14,5)" dominant-baseline="middle" fill="black" class="legend1_4">Handball</text></g></g><g class="legend1_2" transform="translate(0,13)"><rect x="0" y="0" width="10" height="10" fill="#e04535" stroke="" stroke-width="" fill-opacity="1" class="legend1_3"></rect><g class="legend1_4_g"><text x="14" y="5" style="text-anchor: start; font-size: 10px; font-weight: normal; font-family: Arial;" transform="rotate(0,14,5)" dominant-baseline="middle" fill="black" class="legend1_4">Bowling</text></g></g><g class="legend1_2" transform="translate(0,26)"><rect x="0" y="0" width="10" height="10" fill="#e49e22" stroke="" stroke-width="" fill-opacity="1" class="legend1_3"></rect><g class="legend1_4_g"><text x="14" y="5" style="text-anchor: start; font-size: 10px; font-weight: normal; font-family: Arial;" transform="rotate(0,14,5)" dominant-baseline="middle" fill="black" class="legend1_4">Sailing</text></g></g></g></g></svg>
