<svg width="450" height="450" id="ngplotSvg"><g transform="translate(240,240)" class="group1"><g class="group2" transform="translate(0,0)" width="100"><path d="M-150,-0.119A150,150,0,0,1,-100.328,-111.509L-33.443,-37.17A50,50,0,0,0,-50,-0.04Z" transform="translate(0,0)" id="e_arc1_0" fill="#66c2a5" stroke="black" stroke-width="0" stroke-dasharray="1,0" fill-opacity="1" class="arc1"></path><g class="text1_g"><text x="-127.86308901446048" y="-57.017808338098654" style="text-anchor: start; font-size: 12px; font-weight: normal; font-family: Arial; font-style: normal;" transform="rotate(384.0334591872712,-127.86308901446048,-57.017808338098654)" dominant-baseline="middle" fill="black" class="text1">name2</text></g><g class="text2_g"><text x="-146.12924458795484" y="-65.1632095292556" style="text-anchor: middle; font-size: 12px; font-weight: normal; font-family: Arial; font-style: normal;" transform="rotate(-66.00000000000001,-146.12924458795484,-65.1632095292556)" dominant-baseline="middle" fill="black" class="text2">80</text></g></g><g class="group2" transform="translate(0,0)" width="100"><path d="M-91.967,-102.217A137.5,137.5,0,0,1,0,-137.5L0,-50A50,50,0,0,0,-33.443,-37.17Z" transform="translate(0,0)" id="e_arc1_1" fill="#fc8d62" stroke="black" stroke-width="0" stroke-dasharray="1,0" fill-opacity="1" class="arc1"></path><g class="text1_g"><text x="-45.669795583904666" y="-119.03999231907049" style="text-anchor: start; font-size: 12px; font-weight: normal; font-family: Arial; font-style: normal;" transform="rotate(429.0106461050409,-45.669795583904666,-119.03999231907049)" dominant-baseline="middle" fill="black" class="text1">name3</text></g><g class="text2_g"><text x="-52.83368508726226" y="-137.7129322906894" style="text-anchor: middle; font-size: 12px; font-weight: normal; font-family: Arial; font-style: normal;" transform="rotate(-21.000000000000004,-52.83368508726226,-137.7129322906894)" dominant-baseline="middle" fill="black" class="text2">70</text></g></g><g class="group2" transform="translate(0,0)" width="100"><path d="M0,-125A125,125,0,0,1,73.441,-101.151L29.376,-40.46A50,50,0,0,0,0,-50Z" transform="translate(0,0)" id="e_arc1_2" fill="#8da0cb" stroke="black" stroke-width="0" stroke-dasharray="1,0" fill-opacity="1" class="arc1"></path><g class="text1_g"><text x="35.51953481137719" y="-109.37715779258193" style="text-anchor: end; font-size: 12px; font-weight: normal; font-family: Arial; font-style: normal;" transform="rotate(287.9908747671078,35.51953481137719,-109.37715779258193)" dominant-baseline="middle" fill="black" class="text1">name4</text></g><g class="text2_g"><text x="41.69684521335583" y="-128.39927219129183" style="text-anchor: middle; font-size: 12px; font-weight: normal; font-family: Arial; font-style: normal;" transform="rotate(17.999999999999996,41.69684521335583,-128.39927219129183)" dominant-baseline="middle" fill="black" class="text2">60</text></g></g><g class="group2" transform="translate(0,0)" width="100"><path d="M66.097,-91.035A112.5,112.5,0,0,1,102.747,-45.818L45.665,-20.364A50,50,0,0,0,29.376,-40.46Z" transform="translate(0,0)" id="e_arc1_3" fill="#e78ac3" stroke="black" stroke-width="0" stroke-dasharray="1,0" fill-opacity="1" class="arc1"></path><g class="text1_g"><text x="79.6283447859979" y="-64.54127909053432" style="text-anchor: end; font-size: 12px; font-weight: normal; font-family: Arial; font-style: normal;" transform="rotate(320.97414517347227,79.6283447859979,-64.54127909053432)" dominant-baseline="middle" fill="black" class="text1">name5</text></g><g class="text2_g"><text x="95.16558279302187" y="-77.13469940088248" style="text-anchor: middle; font-size: 12px; font-weight: normal; font-family: Arial; font-style: normal;" transform="rotate(50.99999999999999,95.16558279302187,-77.13469940088248)" dominant-baseline="middle" fill="black" class="text2">50</text></g></g><g class="group2" transform="translate(0,0)" width="100"><path d="M91.331,-40.727A100,100,0,0,1,100,-0.08L50,-0.04A50,50,0,0,0,45.665,-20.364Z" transform="translate(0,0)" id="e_arc1_4" fill="#a6d854" stroke="black" stroke-width="0" stroke-dasharray="1,0" fill-opacity="1" class="arc1"></path><g class="text1_g"><text x="88.02034898091067" y="-18.77280387365452" style="text-anchor: end; font-size: 12px; font-weight: normal; font-family: Arial; font-style: normal;" transform="rotate(347.96045732413404,88.02034898091067,-18.77280387365452)" dominant-baseline="middle" fill="black" class="text1">name1</text></g><g class="text2_g"><text x="107.58042653222415" y="-22.94453806779997" style="text-anchor: middle; font-size: 12px; font-weight: normal; font-family: Arial; font-style: normal;" transform="rotate(78,107.58042653222415,-22.94453806779997)" dominant-baseline="middle" fill="black" class="text2">40</text></g></g></g></svg>
