<svg width="450" height="450" id="ngplotSvg"><g class="group7" transform="translate(300,300)"><path d="M-220,-0.175A220,220,0,0,1,-215.743,-43.07L0,0Z" transform="translate(0,0)" fill="#0073c2" stroke="black" stroke-width="0" stroke-dasharray="1,0" fill-opacity="0.1" class="arc3"></path><path d="M-225,-0.179A225,225,0,0,1,-220.646,-44.049L-219.665,-43.853A224,224,0,0,0,-224,-0.178Z" transform="translate(0,0)" fill="#0073c2" stroke="black" stroke-width="0" stroke-dasharray="1,0" fill-opacity="1" class="arc4"></path><g class="text4_g"><text x="-228.87559302625243" y="-22.714817121898026" style="text-anchor: end; font-size: 10px; font-weight: normal; font-family: Arial;" transform="rotate(5.625,-228.87559302625243,-22.714817121898026)" dominant-baseline="middle" fill="black" class="text4">name1</text></g></g><g class="group7" transform="translate(300,300)"><path d="M-215.743,-43.07A220,220,0,0,1,-203.203,-84.312L0,0Z" transform="translate(0,0)" fill="#efc000" stroke="black" stroke-width="0" stroke-dasharray="1,0" fill-opacity="0.1" class="arc3"></path><path d="M-220.646,-44.049A225,225,0,0,1,-207.821,-86.228L-206.898,-85.845A224,224,0,0,0,-219.665,-43.853Z" transform="translate(0,0)" fill="#efc000" stroke="black" stroke-width="0" stroke-dasharray="1,0" fill-opacity="1" class="arc4"></path><g class="text4_g"><text x="-220.05303285299277" y="-66.90786749104836" style="text-anchor: end; font-size: 10px; font-weight: normal; font-family: Arial;" transform="rotate(16.875,-220.05303285299277,-66.90786749104836)" dominant-baseline="middle" fill="black" class="text4">name2</text></g></g><g class="group7" transform="translate(300,300)"><path d="M-203.203,-84.312A220,220,0,0,1,-182.862,-122.316L0,0Z" transform="translate(0,0)" fill="#cd534c" stroke="black" stroke-width="0" stroke-dasharray="1,0" fill-opacity="0.1" class="arc3"></path><path d="M-207.821,-86.228A225,225,0,0,1,-187.018,-125.096L-186.187,-124.54A224,224,0,0,0,-206.898,-85.845Z" transform="translate(0,0)" fill="#cd534c" stroke="black" stroke-width="0" stroke-dasharray="1,0" fill-opacity="1" class="arc4"></path><g class="text4_g"><text x="-202.7825025164019" y="-108.53228401349274" style="text-anchor: end; font-size: 10px; font-weight: normal; font-family: Arial;" transform="rotate(28.125000000000007,-202.7825025164019,-108.53228401349274)" dominant-baseline="middle" fill="black" class="text4">name3</text></g></g><g class="group7" transform="translate(300,300)"><path d="M-182.862,-122.316A220,220,0,0,1,-155.502,-155.625L0,0Z" transform="translate(0,0)" fill="#7aa6dc" stroke="black" stroke-width="0" stroke-dasharray="1,0" fill-opacity="0.1" class="arc3"></path><path d="M-187.018,-125.096A225,225,0,0,1,-159.036,-159.162L-158.329,-158.455A224,224,0,0,0,-186.187,-124.54Z" transform="translate(0,0)" fill="#7aa6dc" stroke="black" stroke-width="0" stroke-dasharray="1,0" fill-opacity="1" class="arc4"></path><g class="text4_g"><text x="-177.72702821110582" y="-145.99007994808687" style="text-anchor: end; font-size: 10px; font-weight: normal; font-family: Arial;" transform="rotate(39.37500000000001,-177.72702821110582,-145.99007994808687)" dominant-baseline="middle" fill="black" class="text4">name4</text></g></g><g class="group7" transform="translate(300,300)"><path d="M-155.502,-155.625A220,220,0,0,1,-122.171,-182.96L0,0Z" transform="translate(0,0)" fill="#003c67" stroke="black" stroke-width="0" stroke-dasharray="1,0" fill-opacity="0.1" class="arc3"></path><path d="M-159.036,-159.162A225,225,0,0,1,-124.947,-187.118L-124.392,-186.286A224,224,0,0,0,-158.329,-158.455Z" transform="translate(0,0)" fill="#003c67" stroke="black" stroke-width="0" stroke-dasharray="1,0" fill-opacity="1" class="arc4"></path><g class="text4_g"><text x="-145.84850487949626" y="-177.84322765968784" style="text-anchor: end; font-size: 10px; font-weight: normal; font-family: Arial;" transform="rotate(50.62500000000001,-145.84850487949626,-177.84322765968784)" dominant-baseline="middle" fill="black" class="text4">name5</text></g></g><g class="group7" transform="translate(300,300)"><path d="M-122.171,-182.96A220,220,0,0,1,-84.15,-203.27L0,0Z" transform="translate(0,0)" fill="#8f7700" stroke="black" stroke-width="0" stroke-dasharray="1,0" fill-opacity="0.1" class="arc3"></path><path d="M-124.947,-187.118A225,225,0,0,1,-86.062,-207.89L-85.68,-206.966A224,224,0,0,0,-124.392,-186.286Z" transform="translate(0,0)" fill="#8f7700" stroke="black" stroke-width="0" stroke-dasharray="1,0" fill-opacity="1" class="arc4"></path><g class="text4_g"><text x="-108.37076847813738" y="-202.86886537726272" style="text-anchor: end; font-size: 10px; font-weight: normal; font-family: Arial;" transform="rotate(61.875000000000014,-108.37076847813738,-202.86886537726272)" dominant-baseline="middle" fill="black" class="text4">name6</text></g></g><g class="group7" transform="translate(300,300)"><path d="M-84.15,-203.27A220,220,0,0,1,-42.898,-215.777L0,0Z" transform="translate(0,0)" fill="#4a6990" stroke="black" stroke-width="0" stroke-dasharray="1,0" fill-opacity="0.1" class="arc3"></path><path d="M-86.062,-207.89A225,225,0,0,1,-43.873,-220.681L-43.678,-219.7A224,224,0,0,0,-85.68,-206.966Z" transform="translate(0,0)" fill="#4a6990" stroke="black" stroke-width="0" stroke-dasharray="1,0" fill-opacity="1" class="arc4"></path><g class="text4_g"><text x="-66.73261216885481" y="-220.1062436032227" style="text-anchor: end; font-size: 10px; font-weight: normal; font-family: Arial;" transform="rotate(73.12500000000001,-66.73261216885481,-220.1062436032227)" dominant-baseline="middle" fill="black" class="text4">name7</text></g></g><g class="group7" transform="translate(300,300)"><path d="M-42.898,-215.777A220,220,0,0,1,0,-220L0,0Z" transform="translate(0,0)" fill="#66c2a5" stroke="black" stroke-width="0" stroke-dasharray="1,0" fill-opacity="0.1" class="arc3"></path><path d="M-43.873,-220.681A225,225,0,0,1,0,-225L0,-224A224,224,0,0,0,-43.678,-219.7Z" transform="translate(0,0)" fill="#66c2a5" stroke="black" stroke-width="0" stroke-dasharray="1,0" fill-opacity="1" class="arc4"></path><g class="text4_g"><text x="-22.53255017159087" y="-228.89360887269163" style="text-anchor: end; font-size: 10px; font-weight: normal; font-family: Arial;" transform="rotate(84.37500000000001,-22.53255017159087,-228.89360887269163)" dominant-baseline="middle" fill="black" class="text4">name8</text></g></g><g class="group8" transform="translate(300,300)"></g><g class="group8" transform="translate(300,300)"></g><g class="group8" transform="translate(300,300)"></g><g class="group8" transform="translate(300,300)"></g><g class="group8" transform="translate(300,300)"></g><g transform="translate(300,300)" class="group5"><g transform="translate(0,0)" class="group2"><g class="group1" transform="translate(0,0)"><path d="M-219.954,-4.492A220,220,0,0,1,-216.546,-38.828L-19.686,-3.53A20,20,0,0,0,-19.996,-0.408Z" transform="translate(0,0)" fill="#0073c2" stroke="black" stroke-width="0" stroke-dasharray="1,0" fill-opacity="0.7" class="arc2"></path><g class="text2_g"><text x="-213.94892391584466" y="-21.2334160052525" style="text-anchor: start; font-size: 8px; font-weight: normal; font-family: Arial;" transform="rotate(5.625,-213.94892391584466,-21.2334160052525)" dominant-baseline="middle" fill="black" class="text2">40</text></g></g><g class="group1" transform="translate(0,0)"><path d="M-214.856,-47.296A220,220,0,0,1,-204.819,-80.308L-162.924,-63.881A175,175,0,0,0,-170.908,-37.621Z" transform="translate(0,0)" fill="#efc000" stroke="black" stroke-width="0" stroke-dasharray="1,0" fill-opacity="0.7" class="arc2"></path><g class="text2_g"><text x="-205.70174810171062" y="-62.5443109155452" style="text-anchor: start; font-size: 8px; font-weight: normal; font-family: Arial;" transform="rotate(16.875,-205.70174810171062,-62.5443109155452)" dominant-baseline="middle" fill="black" class="text2">9</text></g></g><g class="group1" transform="translate(0,0)"><path d="M-201.51,-88.283A220,220,0,0,1,-185.228,-118.704L-151.55,-97.122A180,180,0,0,0,-164.871,-72.232Z" transform="translate(0,0)" fill="#cd534c" stroke="black" stroke-width="0" stroke-dasharray="1,0" fill-opacity="0.7" class="arc2"></path><g class="text2_g"><text x="-189.55755670011482" y="-101.45409157783018" style="text-anchor: start; font-size: 8px; font-weight: normal; font-family: Arial;" transform="rotate(28.125000000000007,-189.55755670011482,-101.45409157783018)" dominant-baseline="middle" fill="black" class="text2">8</text></g></g><g class="group1" transform="translate(0,0)"><path d="M-180.427,-125.881A220,220,0,0,1,-158.526,-152.544L-154.923,-149.077A215,215,0,0,0,-176.326,-123.02Z" transform="translate(0,0)" fill="#7aa6dc" stroke="black" stroke-width="0" stroke-dasharray="1,0" fill-opacity="0.7" class="arc2"></path><g class="text2_g"><text x="-166.13613506690328" y="-136.46898777755945" style="text-anchor: start; font-size: 8px; font-weight: normal; font-family: Arial;" transform="rotate(39.37500000000001,-166.13613506690328,-136.46898777755945)" dominant-baseline="middle" fill="black" class="text2">1</text></g></g><g class="group1" transform="translate(0,0)"><path d="M-152.418,-158.647A220,220,0,0,1,-125.738,-180.527L-111.449,-160.013A195,195,0,0,0,-135.097,-140.619Z" transform="translate(0,0)" fill="#003c67" stroke="black" stroke-width="0" stroke-dasharray="1,0" fill-opacity="0.7" class="arc2"></path><g class="text2_g"><text x="-136.33664586561608" y="-166.24475629057775" style="text-anchor: start; font-size: 8px; font-weight: normal; font-family: Arial;" transform="rotate(50.62500000000001,-136.33664586561608,-166.24475629057775)" dominant-baseline="middle" fill="black" class="text2">5</text></g></g><g class="group1" transform="translate(0,0)"><path d="M-118.557,-185.322A220,220,0,0,1,-88.123,-201.58L-76.106,-174.092A190,190,0,0,0,-102.39,-160.051Z" transform="translate(0,0)" fill="#8f7700" stroke="black" stroke-width="0" stroke-dasharray="1,0" fill-opacity="0.7" class="arc2"></path><g class="text2_g"><text x="-101.30310966434581" y="-189.6382872004847" style="text-anchor: start; font-size: 8px; font-weight: normal; font-family: Arial;" transform="rotate(61.875000000000014,-101.30310966434581,-189.6382872004847)" dominant-baseline="middle" fill="black" class="text2">6</text></g></g><g class="group1" transform="translate(0,0)"><path d="M-80.145,-204.882A220,220,0,0,1,-47.124,-214.894L-38.556,-175.822A180,180,0,0,0,-65.573,-167.631Z" transform="translate(0,0)" fill="#4a6990" stroke="black" stroke-width="0" stroke-dasharray="1,0" fill-opacity="0.7" class="arc2"></path><g class="text2_g"><text x="-62.38048528827733" y="-205.75148858562122" style="text-anchor: start; font-size: 8px; font-weight: normal; font-family: Arial;" transform="rotate(73.12500000000001,-62.38048528827733,-205.75148858562122)" dominant-baseline="middle" fill="black" class="text2">8</text></g></g><g class="group1" transform="translate(0,0)"><path d="M-38.656,-216.577A220,220,0,0,1,-4.317,-219.958L-3.729,-189.963A190,190,0,0,0,-33.385,-187.044Z" transform="translate(0,0)" fill="#66c2a5" stroke="black" stroke-width="0" stroke-dasharray="1,0" fill-opacity="0.7" class="arc2"></path><g class="text2_g"><text x="-21.063036029965378" y="-213.96576481577696" style="text-anchor: start; font-size: 8px; font-weight: normal; font-family: Arial;" transform="rotate(84.37500000000001,-21.063036029965378,-213.96576481577696)" dominant-baseline="middle" fill="black" class="text2">6</text></g></g><g class="text3_g"><text x="0" y="0" style="text-anchor: middle; font-size: 12px; font-weight: normal; font-family: Arial;" transform="rotate(0,0,0)" dominant-baseline="middle" fill="black" class="text3"></text></g></g><g transform="translate(0,0)" class="group3"><g class="group4" transform="translate(-220,0)"><line x1="0" y1="0" x2="0" y2="2" stroke="black" stroke-width="0.3" stroke-dasharray="1,0" class="line_h1"></line><g class="text1_g"><text x="0" y="8" style="text-anchor: middle; font-size: 10px; font-weight: normal; font-family: Arial;" transform="rotate(0,0,8)" dominant-baseline="middle" fill="black" class="text1">0</text></g></g><g class="group4" transform="translate(-170,0)"><line x1="0" y1="0" x2="0" y2="2" stroke="black" stroke-width="0.3" stroke-dasharray="1,0" class="line_h1"></line><g class="text1_g"><text x="0" y="8" style="text-anchor: middle; font-size: 10px; font-weight: normal; font-family: Arial;" transform="rotate(0,0,8)" dominant-baseline="middle" fill="black" class="text1">10</text></g></g><g class="group4" transform="translate(-120,0)"><line x1="0" y1="0" x2="0" y2="2" stroke="black" stroke-width="0.3" stroke-dasharray="1,0" class="line_h1"></line><g class="text1_g"><text x="0" y="8" style="text-anchor: middle; font-size: 10px; font-weight: normal; font-family: Arial;" transform="rotate(0,0,8)" dominant-baseline="middle" fill="black" class="text1">20</text></g></g><g class="group4" transform="translate(-70,0)"><line x1="0" y1="0" x2="0" y2="2" stroke="black" stroke-width="0.3" stroke-dasharray="1,0" class="line_h1"></line><g class="text1_g"><text x="0" y="8" style="text-anchor: middle; font-size: 10px; font-weight: normal; font-family: Arial;" transform="rotate(0,0,8)" dominant-baseline="middle" fill="black" class="text1">30</text></g></g><g class="group4" transform="translate(-20,0)"><line x1="0" y1="0" x2="0" y2="2" stroke="black" stroke-width="0.3" stroke-dasharray="1,0" class="line_h1"></line><g class="text1_g"><text x="0" y="8" style="text-anchor: middle; font-size: 10px; font-weight: normal; font-family: Arial;" transform="rotate(0,0,8)" dominant-baseline="middle" fill="black" class="text1">40</text></g></g></g></g></svg>
