<svg width="550" height="450" id="ngplotSvg"><defs class="gradient1_defs"><linearGradient id="gradient1_0" x1="0%" y1="0%" x2="100%" y2="0%" class="gradient1_0"><stop offset="0%" style="stop-color:#c42121;stop-opacity:1" class="gradient1_0s1"></stop><stop offset="100%" style="stop-color:#224cc9;stop-opacity:1" class="gradient1_0s2"></stop></linearGradient></defs><g transform="translate(240,240)" class="group1"><g transform="translate(0,0)" class="cSlN2Axis1"><g transform="translate(0,0)" class="cSlN2Axis1_1"><g class="cSlN2Axis1_2" transform="translate(0,0)"><g class="cSlN2Axis1_3_g"><text x="65.7282899024816" y="-145.8759469772016" style="text-anchor: middle; font-size: 12px; font-weight: normal; font-family: Arial; font-style: normal;" transform="rotate(24.255213327204842,65.7282899024816,-145.8759469772016)" dominant-baseline="middle" fill="black" class="cSlN2Axis1_3">name1</text></g><line x1="0" y1="0" x2="62.852677219248044" y2="-139.49387429694903" stroke="black" stroke-width="0.2" stroke-dasharray="1,0" stroke-opacity="1" class="cSlN2Axis1_4"></line></g><g class="cSlN2Axis1_2" transform="translate(0,0)"><g class="cSlN2Axis1_3_g"><text x="159.18789596441295" y="-16.100117341909076" style="text-anchor: middle; font-size: 12px; font-weight: normal; font-family: Arial; font-style: normal;" transform="rotate(84.22479588423101,159.18789596441295,-16.100117341909076)" dominant-baseline="middle" fill="black" class="cSlN2Axis1_3">name2</text></g><line x1="0" y1="0" x2="152.2234255159699" y2="-15.395737208200554" stroke="black" stroke-width="0.2" stroke-dasharray="1,0" stroke-opacity="1" class="cSlN2Axis1_4"></line></g><g class="cSlN2Axis1_2" transform="translate(0,0)"><g class="cSlN2Axis1_3_g"><text x="93.60595991395984" y="129.76102754134675" style="text-anchor: middle; font-size: 12px; font-weight: normal; font-family: Arial; font-style: normal;" transform="rotate(324.1943784412572,93.60595991395984,129.76102754134675)" dominant-baseline="middle" fill="black" class="cSlN2Axis1_3">name3</text></g><line x1="0" y1="0" x2="89.5106991677241" y2="124.08398258641282" stroke="black" stroke-width="0.2" stroke-dasharray="1,0" stroke-opacity="1" class="cSlN2Axis1_4"></line></g><g class="cSlN2Axis1_2" transform="translate(0,0)"><g class="cSlN2Axis1_3_g"><text x="-65.49587678870313" y="145.9804443193643" style="text-anchor: middle; font-size: 12px; font-weight: normal; font-family: Arial; font-style: normal;" transform="rotate(384.1639609982833,-65.49587678870313,145.9804443193643)" dominant-baseline="middle" fill="black" class="cSlN2Axis1_3">name4</text></g><line x1="0" y1="0" x2="-62.63043217919737" y2="139.5937998803921" stroke="black" stroke-width="0.2" stroke-dasharray="1,0" stroke-opacity="1" class="cSlN2Axis1_4"></line></g><g class="cSlN2Axis1_2" transform="translate(0,0)"><g class="cSlN2Axis1_3_g"><text x="-159.16205217194806" y="16.353627989350873" style="text-anchor: middle; font-size: 12px; font-weight: normal; font-family: Arial; font-style: normal;" transform="rotate(444.1335435553094,-159.16205217194806,16.353627989350873)" dominant-baseline="middle" fill="black" class="cSlN2Axis1_3">name5</text></g><line x1="0" y1="0" x2="-152.19871238942534" y2="15.63815676481677" stroke="black" stroke-width="0.2" stroke-dasharray="1,0" stroke-opacity="1" class="cSlN2Axis1_4"></line></g><g class="cSlN2Axis1_2" transform="translate(0,0)"><g class="cSlN2Axis1_3_g"><text x="-93.81250547505886" y="-129.6117811639515" style="text-anchor: middle; font-size: 12px; font-weight: normal; font-family: Arial; font-style: normal;" transform="rotate(324.10312611233564,-93.81250547505886,-129.6117811639515)" dominant-baseline="middle" fill="black" class="cSlN2Axis1_3">name6</text></g><line x1="0" y1="0" x2="-89.70820836052503" y2="-123.94126573802862" stroke="black" stroke-width="0.2" stroke-dasharray="1,0" stroke-opacity="1" class="cSlN2Axis1_4"></line></g></g><g transform="translate(0,0)" class="cSlN2Axis1_5"></g></g><g class="arcHeightVar1" transform="translate(0,0)"><path d="M0,-71.333A71.333,71.333,0,0,1,53.434,-47.257L0,0Z" transform="translate(0,0)" id="e_arcHeightVar1_1_0" fill="#0073c2" stroke="black" stroke-width="0" stroke-dasharray="1,0" fill-opacity="1" stroke-opacity="1" class="arcHeightVar1_1"></path></g><g class="arcHeightVar1" transform="translate(0,0)"><path d="M42.134,-24.356A48.667,48.667,0,0,1,46.157,15.426L0,0Z" transform="translate(0,0)" id="e_arcHeightVar1_1_1" fill="#efc000" stroke="black" stroke-width="0" stroke-dasharray="1,0" fill-opacity="1" stroke-opacity="1" class="arcHeightVar1_1"></path></g><g class="arcHeightVar1" transform="translate(0,0)"><path d="M49.683,28.614A57.333,57.333,0,0,1,11.48,56.172L0,0Z" transform="translate(0,0)" id="e_arcHeightVar1_1_2" fill="#868686" stroke="black" stroke-width="0" stroke-dasharray="1,0" fill-opacity="1" stroke-opacity="1" class="arcHeightVar1_1"></path></g><g class="arcHeightVar1" transform="translate(0,0)"><path d="M0.108,68A68,68,0,0,1,-50.865,45.13L0,0Z" transform="translate(0,0)" id="e_arcHeightVar1_1_3" fill="#cd534c" stroke="black" stroke-width="0" stroke-dasharray="1,0" fill-opacity="1" stroke-opacity="1" class="arcHeightVar1_1"></path></g><g class="arcHeightVar1" transform="translate(0,0)"><path d="M-62.277,36.132A72,72,0,0,1,-68.324,-22.713L0,0Z" transform="translate(0,0)" id="e_arcHeightVar1_1_4" fill="#7aa6dc" stroke="black" stroke-width="0" stroke-dasharray="1,0" fill-opacity="1" stroke-opacity="1" class="arcHeightVar1_1"></path></g><g class="arcHeightVar1" transform="translate(0,0)"><path d="M-58.402,-33.512A67.333,67.333,0,0,1,-13.587,-65.948L0,0Z" transform="translate(0,0)" id="e_arcHeightVar1_1_5" fill="#003c67" stroke="black" stroke-width="0" stroke-dasharray="1,0" fill-opacity="1" stroke-opacity="1" class="arcHeightVar1_1"></path></g><g transform="translate(180,0)" class="colorLegendV1"><g class="colorLegendV1_1" transform="translate(0,59.25)"><rect x="0" y="0" width="14" height="0.75" rx="0" ry="0" fill="rgb(198, 33, 128)" stroke="rgb(198, 33, 128)" stroke-width="1" fill-opacity="1" class="colorLegendV1_2"></rect></g><g class="colorLegendV1_1" transform="translate(0,58.5)"><rect x="0" y="0" width="14" height="0.75" rx="0" ry="0" fill="rgb(200, 38, 131)" stroke="rgb(200, 38, 131)" stroke-width="1" fill-opacity="1" class="colorLegendV1_2"></rect></g><g class="colorLegendV1_1" transform="translate(0,57.75)"><rect x="0" y="0" width="14" height="0.75" rx="0" ry="0" fill="rgb(201, 43, 134)" stroke="rgb(201, 43, 134)" stroke-width="1" fill-opacity="1" class="colorLegendV1_2"></rect></g><g class="colorLegendV1_1" transform="translate(0,57)"><rect x="0" y="0" width="14" height="0.75" rx="0" ry="0" fill="rgb(202, 49, 137)" stroke="rgb(202, 49, 137)" stroke-width="1" fill-opacity="1" class="colorLegendV1_2"></rect></g><g class="colorLegendV1_1" transform="translate(0,56.25)"><rect x="0" y="0" width="14" height="0.75" rx="0" ry="0" fill="rgb(203, 55, 140)" stroke="rgb(203, 55, 140)" stroke-width="1" fill-opacity="1" class="colorLegendV1_2"></rect></g><g class="colorLegendV1_1" transform="translate(0,55.5)"><rect x="0" y="0" width="14" height="0.75" rx="0" ry="0" fill="rgb(205, 60, 143)" stroke="rgb(205, 60, 143)" stroke-width="1" fill-opacity="1" class="colorLegendV1_2"></rect></g><g class="colorLegendV1_1" transform="translate(0,54.75)"><rect x="0" y="0" width="14" height="0.75" rx="0" ry="0" fill="rgb(206, 66, 146)" stroke="rgb(206, 66, 146)" stroke-width="1" fill-opacity="1" class="colorLegendV1_2"></rect></g><g class="colorLegendV1_1" transform="translate(0,54)"><rect x="0" y="0" width="14" height="0.75" rx="0" ry="0" fill="rgb(207, 71, 149)" stroke="rgb(207, 71, 149)" stroke-width="1" fill-opacity="1" class="colorLegendV1_2"></rect></g><g class="colorLegendV1_1" transform="translate(0,53.25)"><rect x="0" y="0" width="14" height="0.75" rx="0" ry="0" fill="rgb(208, 77, 152)" stroke="rgb(208, 77, 152)" stroke-width="1" fill-opacity="1" class="colorLegendV1_2"></rect></g><g class="colorLegendV1_1" transform="translate(0,52.5)"><rect x="0" y="0" width="14" height="0.75" rx="0" ry="0" fill="rgb(210, 82, 156)" stroke="rgb(210, 82, 156)" stroke-width="1" fill-opacity="1" class="colorLegendV1_2"></rect></g><g class="colorLegendV1_1" transform="translate(0,51.75)"><rect x="0" y="0" width="14" height="0.75" rx="0" ry="0" fill="rgb(211, 88, 159)" stroke="rgb(211, 88, 159)" stroke-width="1" fill-opacity="1" class="colorLegendV1_2"></rect></g><g class="colorLegendV1_1" transform="translate(0,51)"><rect x="0" y="0" width="14" height="0.75" rx="0" ry="0" fill="rgb(212, 93, 162)" stroke="rgb(212, 93, 162)" stroke-width="1" fill-opacity="1" class="colorLegendV1_2"></rect></g><g class="colorLegendV1_1" transform="translate(0,50.25)"><rect x="0" y="0" width="14" height="0.75" rx="0" ry="0" fill="rgb(213, 98, 165)" stroke="rgb(213, 98, 165)" stroke-width="1" fill-opacity="1" class="colorLegendV1_2"></rect></g><g class="colorLegendV1_1" transform="translate(0,49.5)"><rect x="0" y="0" width="14" height="0.75" rx="0" ry="0" fill="rgb(215, 104, 168)" stroke="rgb(215, 104, 168)" stroke-width="1" fill-opacity="1" class="colorLegendV1_2"></rect></g><g class="colorLegendV1_1" transform="translate(0,48.75)"><rect x="0" y="0" width="14" height="0.75" rx="0" ry="0" fill="rgb(216, 110, 171)" stroke="rgb(216, 110, 171)" stroke-width="1" fill-opacity="1" class="colorLegendV1_2"></rect></g><g class="colorLegendV1_1" transform="translate(0,48)"><rect x="0" y="0" width="14" height="0.75" rx="0" ry="0" fill="rgb(217, 115, 174)" stroke="rgb(217, 115, 174)" stroke-width="1" fill-opacity="1" class="colorLegendV1_2"></rect></g><g class="colorLegendV1_1" transform="translate(0,47.25)"><rect x="0" y="0" width="14" height="0.75" rx="0" ry="0" fill="rgb(218, 121, 177)" stroke="rgb(218, 121, 177)" stroke-width="1" fill-opacity="1" class="colorLegendV1_2"></rect></g><g class="colorLegendV1_1" transform="translate(0,46.5)"><rect x="0" y="0" width="14" height="0.75" rx="0" ry="0" fill="rgb(220, 126, 180)" stroke="rgb(220, 126, 180)" stroke-width="1" fill-opacity="1" class="colorLegendV1_2"></rect></g><g class="colorLegendV1_1" transform="translate(0,45.75)"><rect x="0" y="0" width="14" height="0.75" rx="0" ry="0" fill="rgb(221, 132, 183)" stroke="rgb(221, 132, 183)" stroke-width="1" fill-opacity="1" class="colorLegendV1_2"></rect></g><g class="colorLegendV1_1" transform="translate(0,44.25)"><rect x="0" y="0" width="14" height="0.75" rx="0" ry="0" fill="rgb(223, 143, 189)" stroke="rgb(223, 143, 189)" stroke-width="1" fill-opacity="1" class="colorLegendV1_2"></rect></g><g class="colorLegendV1_1" transform="translate(0,43.5)"><rect x="0" y="0" width="14" height="0.75" rx="0" ry="0" fill="rgb(225, 148, 192)" stroke="rgb(225, 148, 192)" stroke-width="1" fill-opacity="1" class="colorLegendV1_2"></rect></g><g class="colorLegendV1_1" transform="translate(0,42.75)"><rect x="0" y="0" width="14" height="0.75" rx="0" ry="0" fill="rgb(226, 154, 195)" stroke="rgb(226, 154, 195)" stroke-width="1" fill-opacity="1" class="colorLegendV1_2"></rect></g><g class="colorLegendV1_1" transform="translate(0,42)"><rect x="0" y="0" width="14" height="0.75" rx="0" ry="0" fill="rgb(227, 159, 198)" stroke="rgb(227, 159, 198)" stroke-width="1" fill-opacity="1" class="colorLegendV1_2"></rect></g><g class="colorLegendV1_1" transform="translate(0,41.25)"><rect x="0" y="0" width="14" height="0.75" rx="0" ry="0" fill="rgb(228, 165, 201)" stroke="rgb(228, 165, 201)" stroke-width="1" fill-opacity="1" class="colorLegendV1_2"></rect></g><g class="colorLegendV1_1" transform="translate(0,40.5)"><rect x="0" y="0" width="14" height="0.75" rx="0" ry="0" fill="rgb(230, 170, 204)" stroke="rgb(230, 170, 204)" stroke-width="1" fill-opacity="1" class="colorLegendV1_2"></rect></g><g class="colorLegendV1_1" transform="translate(0,39.75)"><rect x="0" y="0" width="14" height="0.75" rx="0" ry="0" fill="rgb(231, 176, 207)" stroke="rgb(231, 176, 207)" stroke-width="1" fill-opacity="1" class="colorLegendV1_2"></rect></g><g class="colorLegendV1_1" transform="translate(0,39)"><rect x="0" y="0" width="14" height="0.75" rx="0" ry="0" fill="rgb(232, 181, 210)" stroke="rgb(232, 181, 210)" stroke-width="1" fill-opacity="1" class="colorLegendV1_2"></rect></g><g class="colorLegendV1_1" transform="translate(0,38.25)"><rect x="0" y="0" width="14" height="0.75" rx="0" ry="0" fill="rgb(233, 187, 213)" stroke="rgb(233, 187, 213)" stroke-width="1" fill-opacity="1" class="colorLegendV1_2"></rect></g><g class="colorLegendV1_1" transform="translate(0,37.5)"><rect x="0" y="0" width="14" height="0.75" rx="0" ry="0" fill="rgb(235, 192, 217)" stroke="rgb(235, 192, 217)" stroke-width="1" fill-opacity="1" class="colorLegendV1_2"></rect></g><g class="colorLegendV1_1" transform="translate(0,36.75)"><rect x="0" y="0" width="14" height="0.75" rx="0" ry="0" fill="rgb(236, 198, 220)" stroke="rgb(236, 198, 220)" stroke-width="1" fill-opacity="1" class="colorLegendV1_2"></rect></g><g class="colorLegendV1_1" transform="translate(0,36)"><rect x="0" y="0" width="14" height="0.75" rx="0" ry="0" fill="rgb(237, 203, 223)" stroke="rgb(237, 203, 223)" stroke-width="1" fill-opacity="1" class="colorLegendV1_2"></rect></g><g class="colorLegendV1_1" transform="translate(0,35.25)"><rect x="0" y="0" width="14" height="0.75" rx="0" ry="0" fill="rgb(238, 209, 226)" stroke="rgb(238, 209, 226)" stroke-width="1" fill-opacity="1" class="colorLegendV1_2"></rect></g><g class="colorLegendV1_1" transform="translate(0,34.5)"><rect x="0" y="0" width="14" height="0.75" rx="0" ry="0" fill="rgb(240, 214, 229)" stroke="rgb(240, 214, 229)" stroke-width="1" fill-opacity="1" class="colorLegendV1_2"></rect></g><g class="colorLegendV1_1" transform="translate(0,33.75)"><rect x="0" y="0" width="14" height="0.75" rx="0" ry="0" fill="rgb(241, 220, 232)" stroke="rgb(241, 220, 232)" stroke-width="1" fill-opacity="1" class="colorLegendV1_2"></rect></g><g class="colorLegendV1_1" transform="translate(0,33)"><rect x="0" y="0" width="14" height="0.75" rx="0" ry="0" fill="rgb(242, 225, 235)" stroke="rgb(242, 225, 235)" stroke-width="1" fill-opacity="1" class="colorLegendV1_2"></rect></g><g class="colorLegendV1_1" transform="translate(0,32.25)"><rect x="0" y="0" width="14" height="0.75" rx="0" ry="0" fill="rgb(243, 231, 238)" stroke="rgb(243, 231, 238)" stroke-width="1" fill-opacity="1" class="colorLegendV1_2"></rect></g><g class="colorLegendV1_1" transform="translate(0,31.5)"><rect x="0" y="0" width="14" height="0.75" rx="0" ry="0" fill="rgb(245, 236, 241)" stroke="rgb(245, 236, 241)" stroke-width="1" fill-opacity="1" class="colorLegendV1_2"></rect></g><g class="colorLegendV1_1" transform="translate(0,30.749999999999996)"><rect x="0" y="0" width="14" height="0.75" rx="0" ry="0" fill="rgb(246, 242, 244)" stroke="rgb(246, 242, 244)" stroke-width="1" fill-opacity="1" class="colorLegendV1_2"></rect></g><g class="colorLegendV1_1" transform="translate(0,29.250000000000004)"><rect x="0" y="0" width="14" height="0.75" rx="0" ry="0" fill="rgb(244, 246, 242)" stroke="rgb(244, 246, 242)" stroke-width="1" fill-opacity="1" class="colorLegendV1_2"></rect></g><g class="colorLegendV1_1" transform="translate(0,28.5)"><rect x="0" y="0" width="14" height="0.75" rx="0" ry="0" fill="rgb(241, 244, 238)" stroke="rgb(241, 244, 238)" stroke-width="1" fill-opacity="1" class="colorLegendV1_2"></rect></g><g class="colorLegendV1_1" transform="translate(0,27.75)"><rect x="0" y="0" width="14" height="0.75" rx="0" ry="0" fill="rgb(238, 243, 233)" stroke="rgb(238, 243, 233)" stroke-width="1" fill-opacity="1" class="colorLegendV1_2"></rect></g><g class="colorLegendV1_1" transform="translate(0,26.999999999999996)"><rect x="0" y="0" width="14" height="0.75" rx="0" ry="0" fill="rgb(235, 241, 229)" stroke="rgb(235, 241, 229)" stroke-width="1" fill-opacity="1" class="colorLegendV1_2"></rect></g><g class="colorLegendV1_1" transform="translate(0,26.25)"><rect x="0" y="0" width="14" height="0.75" rx="0" ry="0" fill="rgb(232, 240, 224)" stroke="rgb(232, 240, 224)" stroke-width="1" fill-opacity="1" class="colorLegendV1_2"></rect></g><g class="colorLegendV1_1" transform="translate(0,25.500000000000004)"><rect x="0" y="0" width="14" height="0.75" rx="0" ry="0" fill="rgb(229, 238, 220)" stroke="rgb(229, 238, 220)" stroke-width="1" fill-opacity="1" class="colorLegendV1_2"></rect></g><g class="colorLegendV1_1" transform="translate(0,24.75)"><rect x="0" y="0" width="14" height="0.75" rx="0" ry="0" fill="rgb(226, 237, 215)" stroke="rgb(226, 237, 215)" stroke-width="1" fill-opacity="1" class="colorLegendV1_2"></rect></g><g class="colorLegendV1_1" transform="translate(0,24)"><rect x="0" y="0" width="14" height="0.75" rx="0" ry="0" fill="rgb(223, 235, 211)" stroke="rgb(223, 235, 211)" stroke-width="1" fill-opacity="1" class="colorLegendV1_2"></rect></g><g class="colorLegendV1_1" transform="translate(0,23.249999999999996)"><rect x="0" y="0" width="14" height="0.75" rx="0" ry="0" fill="rgb(220, 234, 206)" stroke="rgb(220, 234, 206)" stroke-width="1" fill-opacity="1" class="colorLegendV1_2"></rect></g><g class="colorLegendV1_1" transform="translate(0,22.5)"><rect x="0" y="0" width="14" height="0.75" rx="0" ry="0" fill="rgb(217, 232, 202)" stroke="rgb(217, 232, 202)" stroke-width="1" fill-opacity="1" class="colorLegendV1_2"></rect></g><g class="colorLegendV1_1" transform="translate(0,21.750000000000004)"><rect x="0" y="0" width="14" height="0.75" rx="0" ry="0" fill="rgb(214, 231, 197)" stroke="rgb(214, 231, 197)" stroke-width="1" fill-opacity="1" class="colorLegendV1_2"></rect></g><g class="colorLegendV1_1" transform="translate(0,21)"><rect x="0" y="0" width="14" height="0.75" rx="0" ry="0" fill="rgb(211, 229, 192)" stroke="rgb(211, 229, 192)" stroke-width="1" fill-opacity="1" class="colorLegendV1_2"></rect></g><g class="colorLegendV1_1" transform="translate(0,20.25)"><rect x="0" y="0" width="14" height="0.75" rx="0" ry="0" fill="rgb(208, 228, 188)" stroke="rgb(208, 228, 188)" stroke-width="1" fill-opacity="1" class="colorLegendV1_2"></rect></g><g class="colorLegendV1_1" transform="translate(0,19.499999999999996)"><rect x="0" y="0" width="14" height="0.75" rx="0" ry="0" fill="rgb(205, 226, 183)" stroke="rgb(205, 226, 183)" stroke-width="1" fill-opacity="1" class="colorLegendV1_2"></rect></g><g class="colorLegendV1_1" transform="translate(0,18.75)"><rect x="0" y="0" width="14" height="0.75" rx="0" ry="0" fill="rgb(202, 225, 179)" stroke="rgb(202, 225, 179)" stroke-width="1" fill-opacity="1" class="colorLegendV1_2"></rect></g><g class="colorLegendV1_1" transform="translate(0,18.000000000000004)"><rect x="0" y="0" width="14" height="0.75" rx="0" ry="0" fill="rgb(199, 223, 174)" stroke="rgb(199, 223, 174)" stroke-width="1" fill-opacity="1" class="colorLegendV1_2"></rect></g><g class="colorLegendV1_1" transform="translate(0,17.25)"><rect x="0" y="0" width="14" height="0.75" rx="0" ry="0" fill="rgb(196, 222, 170)" stroke="rgb(196, 222, 170)" stroke-width="1" fill-opacity="1" class="colorLegendV1_2"></rect></g><g class="colorLegendV1_1" transform="translate(0,16.5)"><rect x="0" y="0" width="14" height="0.75" rx="0" ry="0" fill="rgb(193, 220, 165)" stroke="rgb(193, 220, 165)" stroke-width="1" fill-opacity="1" class="colorLegendV1_2"></rect></g><g class="colorLegendV1_1" transform="translate(0,15.749999999999996)"><rect x="0" y="0" width="14" height="0.75" rx="0" ry="0" fill="rgb(190, 219, 161)" stroke="rgb(190, 219, 161)" stroke-width="1" fill-opacity="1" class="colorLegendV1_2"></rect></g><g class="colorLegendV1_1" transform="translate(0,14.250000000000004)"><rect x="0" y="0" width="14" height="0.75" rx="0" ry="0" fill="rgb(184, 216, 151)" stroke="rgb(184, 216, 151)" stroke-width="1" fill-opacity="1" class="colorLegendV1_2"></rect></g><g class="colorLegendV1_1" transform="translate(0,13.499999999999998)"><rect x="0" y="0" width="14" height="0.75" rx="0" ry="0" fill="rgb(181, 215, 147)" stroke="rgb(181, 215, 147)" stroke-width="1" fill-opacity="1" class="colorLegendV1_2"></rect></g><g class="colorLegendV1_1" transform="translate(0,12.750000000000002)"><rect x="0" y="0" width="14" height="0.75" rx="0" ry="0" fill="rgb(178, 213, 142)" stroke="rgb(178, 213, 142)" stroke-width="1" fill-opacity="1" class="colorLegendV1_2"></rect></g><g class="colorLegendV1_1" transform="translate(0,11.999999999999996)"><rect x="0" y="0" width="14" height="0.75" rx="0" ry="0" fill="rgb(175, 212, 138)" stroke="rgb(175, 212, 138)" stroke-width="1" fill-opacity="1" class="colorLegendV1_2"></rect></g><g class="colorLegendV1_1" transform="translate(0,11.25)"><rect x="0" y="0" width="14" height="0.75" rx="0" ry="0" fill="rgb(172, 210, 133)" stroke="rgb(172, 210, 133)" stroke-width="1" fill-opacity="1" class="colorLegendV1_2"></rect></g><g class="colorLegendV1_1" transform="translate(0,10.500000000000004)"><rect x="0" y="0" width="14" height="0.75" rx="0" ry="0" fill="rgb(169, 209, 129)" stroke="rgb(169, 209, 129)" stroke-width="1" fill-opacity="1" class="colorLegendV1_2"></rect></g><g class="colorLegendV1_1" transform="translate(0,9.749999999999998)"><rect x="0" y="0" width="14" height="0.75" rx="0" ry="0" fill="rgb(166, 207, 124)" stroke="rgb(166, 207, 124)" stroke-width="1" fill-opacity="1" class="colorLegendV1_2"></rect></g><g class="colorLegendV1_1" transform="translate(0,9.000000000000002)"><rect x="0" y="0" width="14" height="0.75" rx="0" ry="0" fill="rgb(163, 206, 120)" stroke="rgb(163, 206, 120)" stroke-width="1" fill-opacity="1" class="colorLegendV1_2"></rect></g><g class="colorLegendV1_1" transform="translate(0,8.249999999999996)"><rect x="0" y="0" width="14" height="0.75" rx="0" ry="0" fill="rgb(160, 204, 115)" stroke="rgb(160, 204, 115)" stroke-width="1" fill-opacity="1" class="colorLegendV1_2"></rect></g><g class="colorLegendV1_1" transform="translate(0,7.5)"><rect x="0" y="0" width="14" height="0.75" rx="0" ry="0" fill="rgb(157, 203, 111)" stroke="rgb(157, 203, 111)" stroke-width="1" fill-opacity="1" class="colorLegendV1_2"></rect></g><g class="colorLegendV1_1" transform="translate(0,6.750000000000003)"><rect x="0" y="0" width="14" height="0.75" rx="0" ry="0" fill="rgb(154, 201, 106)" stroke="rgb(154, 201, 106)" stroke-width="1" fill-opacity="1" class="colorLegendV1_2"></rect></g><g class="colorLegendV1_1" transform="translate(0,5.999999999999998)"><rect x="0" y="0" width="14" height="0.75" rx="0" ry="0" fill="rgb(151, 200, 101)" stroke="rgb(151, 200, 101)" stroke-width="1" fill-opacity="1" class="colorLegendV1_2"></rect></g><g class="colorLegendV1_1" transform="translate(0,5.250000000000002)"><rect x="0" y="0" width="14" height="0.75" rx="0" ry="0" fill="rgb(148, 198, 97)" stroke="rgb(148, 198, 97)" stroke-width="1" fill-opacity="1" class="colorLegendV1_2"></rect></g><g class="colorLegendV1_1" transform="translate(0,4.499999999999997)"><rect x="0" y="0" width="14" height="0.75" rx="0" ry="0" fill="rgb(145, 197, 92)" stroke="rgb(145, 197, 92)" stroke-width="1" fill-opacity="1" class="colorLegendV1_2"></rect></g><g class="colorLegendV1_1" transform="translate(0,3.75)"><rect x="0" y="0" width="14" height="0.75" rx="0" ry="0" fill="rgb(142, 195, 88)" stroke="rgb(142, 195, 88)" stroke-width="1" fill-opacity="1" class="colorLegendV1_2"></rect></g><g class="colorLegendV1_1" transform="translate(0,3.0000000000000027)"><rect x="0" y="0" width="14" height="0.75" rx="0" ry="0" fill="rgb(139, 194, 83)" stroke="rgb(139, 194, 83)" stroke-width="1" fill-opacity="1" class="colorLegendV1_2"></rect></g><g class="colorLegendV1_1" transform="translate(0,2.2499999999999987)"><rect x="0" y="0" width="14" height="0.75" rx="0" ry="0" fill="rgb(136, 192, 79)" stroke="rgb(136, 192, 79)" stroke-width="1" fill-opacity="1" class="colorLegendV1_2"></rect></g><g class="colorLegendV1_1" transform="translate(0,1.5000000000000013)"><rect x="0" y="0" width="14" height="0.75" rx="0" ry="0" fill="rgb(133, 191, 74)" stroke="rgb(133, 191, 74)" stroke-width="1" fill-opacity="1" class="colorLegendV1_2"></rect></g><g class="colorLegendV1_1" transform="translate(0,0.7499999999999973)"><rect x="0" y="0" width="14" height="0.75" rx="0" ry="0" fill="rgb(130, 189, 70)" stroke="rgb(130, 189, 70)" stroke-width="1" fill-opacity="1" class="colorLegendV1_2"></rect></g><g class="colorLegendV1_3" transform="translate(0,60)"><rect x="3" y="0" width="8" height="0.75" rx="0" ry="0" fill="rgb(197, 27, 125)" stroke="rgb(197, 27, 125)" stroke-width="1" fill-opacity="1" transform="rotate(0,3,0)" class="colorLegendV1_4"></rect><g class="colorLegendV1_5_g"><text x="20" y="0" style="text-anchor: start; font-size: 10px; font-weight: normal; font-family: Arial; font-style: normal;" transform="rotate(0,20,0)" dominant-baseline="middle" fill="black" class="colorLegendV1_5">-1</text></g><line x1="14" y1="0.375" x2="16" y2="0.375" stroke="black" stroke-width="0.5" stroke-dasharray="1,0" class="colorLegendV1_6"></line></g><g class="colorLegendV1_3" transform="translate(0,45)"><rect x="3" y="0" width="8" height="0.75" rx="0" ry="0" fill="rgb(222, 137, 186)" stroke="rgb(222, 137, 186)" stroke-width="1" fill-opacity="1" transform="rotate(0,3,0)" class="colorLegendV1_4"></rect><g class="colorLegendV1_5_g"><text x="20" y="0" style="text-anchor: start; font-size: 10px; font-weight: normal; font-family: Arial; font-style: normal;" transform="rotate(0,20,0)" dominant-baseline="middle" fill="black" class="colorLegendV1_5">-0.5</text></g><line x1="14" y1="0.375" x2="16" y2="0.375" stroke="black" stroke-width="0.5" stroke-dasharray="1,0" class="colorLegendV1_6"></line></g><g class="colorLegendV1_3" transform="translate(0,30)"><rect x="3" y="0" width="8" height="0.75" rx="0" ry="0" fill="rgb(247, 247, 247)" stroke="rgb(247, 247, 247)" stroke-width="1" fill-opacity="1" transform="rotate(0,3,0)" class="colorLegendV1_4"></rect><g class="colorLegendV1_5_g"><text x="20" y="0" style="text-anchor: start; font-size: 10px; font-weight: normal; font-family: Arial; font-style: normal;" transform="rotate(0,20,0)" dominant-baseline="middle" fill="black" class="colorLegendV1_5">0</text></g><line x1="14" y1="0.375" x2="16" y2="0.375" stroke="black" stroke-width="0.5" stroke-dasharray="1,0" class="colorLegendV1_6"></line></g><g class="colorLegendV1_3" transform="translate(0,15)"><rect x="3" y="0" width="8" height="0.75" rx="0" ry="0" fill="rgb(187, 218, 156)" stroke="rgb(187, 218, 156)" stroke-width="1" fill-opacity="1" transform="rotate(0,3,0)" class="colorLegendV1_4"></rect><g class="colorLegendV1_5_g"><text x="20" y="0" style="text-anchor: start; font-size: 10px; font-weight: normal; font-family: Arial; font-style: normal;" transform="rotate(0,20,0)" dominant-baseline="middle" fill="black" class="colorLegendV1_5">0.5</text></g><line x1="14" y1="0.375" x2="16" y2="0.375" stroke="black" stroke-width="0.5" stroke-dasharray="1,0" class="colorLegendV1_6"></line></g><g class="colorLegendV1_3" transform="translate(0,0)"><rect x="3" y="0" width="8" height="0.75" rx="0" ry="0" fill="rgb(127, 188, 65)" stroke="rgb(127, 188, 65)" stroke-width="1" fill-opacity="1" transform="rotate(0,3,0)" class="colorLegendV1_4"></rect><g class="colorLegendV1_5_g"><text x="20" y="0" style="text-anchor: start; font-size: 10px; font-weight: normal; font-family: Arial; font-style: normal;" transform="rotate(0,20,0)" dominant-baseline="middle" fill="black" class="colorLegendV1_5">1</text></g><line x1="14" y1="0.375" x2="16" y2="0.375" stroke="black" stroke-width="0.5" stroke-dasharray="1,0" class="colorLegendV1_6"></line></g><g class="colorLegendV1_7_g"><text x="7" y="0" style="text-anchor: middle; font-size: 12px; font-weight: normal; font-family: Arial; font-style: normal;" transform="rotate(0,7,0)" dominant-baseline="auto" fill="black" class="colorLegendV1_7"></text></g></g><g class="xSameDots2" transform="translate(0,0)"><g class="xSameDots2_1" transform="translate(0,0)"><circle cx="54.44571014852432" cy="-127.5888045497052" r="3" stroke="#141414" stroke-width="0" stroke-dasharray="1,0" fill="rgb(147, 198, 96)" fill-opacity="1" stroke-opacity="1" class="xSameDots2_2"></circle></g><g class="xSameDots2_1" transform="translate(0,0)"><circle cx="49.0764965179605" cy="-115.00651759584153" r="3" stroke="#141414" stroke-width="0" stroke-dasharray="1,0" fill="rgb(216, 232, 200)" fill-opacity="1" stroke-opacity="1" class="xSameDots2_2"></circle></g><g class="xSameDots2_1" transform="translate(0,0)"><circle cx="47.0041684500236" cy="-110.15019631540295" r="3" stroke="#141414" stroke-width="0" stroke-dasharray="1,0" fill="rgb(242, 245, 240)" fill-opacity="1" stroke-opacity="1" class="xSameDots2_2"></circle></g><g class="xSameDots2_1" transform="translate(0,0)"><circle cx="39.14119663692781" cy="-86.86912642492356" r="3" stroke="#141414" stroke-width="0" stroke-dasharray="1,0" fill="rgb(198, 31, 127)" fill-opacity="1" stroke-opacity="1" class="xSameDots2_2"></circle></g><g class="xSameDots2_1" transform="translate(0,0)"><circle cx="48.8032552525926" cy="-108.3128906305722" r="3" stroke="#141414" stroke-width="0" stroke-dasharray="1,0" fill="rgb(247, 247, 247)" fill-opacity="1" stroke-opacity="1" class="xSameDots2_2"></circle></g><g class="xSameDots2_1" transform="translate(0,0)"><circle cx="56.394872736329226" cy="-125.16156250643897" r="3" stroke="#141414" stroke-width="0" stroke-dasharray="1,0" fill="rgb(155, 202, 107)" fill-opacity="1" stroke-opacity="1" class="xSameDots2_2"></circle></g><g class="xSameDots2_1" transform="translate(0,0)"><circle cx="43.08489403107669" cy="-95.62168324355565" r="3" stroke="#141414" stroke-width="0" stroke-dasharray="1,0" fill="rgb(218, 119, 176)" fill-opacity="1" stroke-opacity="1" class="xSameDots2_2"></circle></g><g class="xSameDots2_1" transform="translate(0,0)"><circle cx="50.97228881937449" cy="-113.12679688081984" r="3" stroke="#141414" stroke-width="0" stroke-dasharray="1,0" fill="rgb(221, 234, 207)" fill-opacity="1" stroke-opacity="1" class="xSameDots2_2"></circle></g></g><g class="xSameDots2" transform="translate(0,0)"><g class="xSameDots2_1" transform="translate(0,0)"><circle cx="99.11246502519283" cy="-12.030996493637884" r="3" stroke="#141414" stroke-width="0" stroke-dasharray="1,0" fill="rgb(208, 73, 151)" fill-opacity="1" stroke-opacity="1" class="xSameDots2_2"></circle></g><g class="xSameDots2_1" transform="translate(0,0)"><circle cx="112.69277874258705" cy="-13.67947437858346" r="3" stroke="#141414" stroke-width="0" stroke-dasharray="1,0" fill="rgb(236, 199, 220)" fill-opacity="1" stroke-opacity="1" class="xSameDots2_2"></circle></g><g class="xSameDots2_1" transform="translate(0,0)"><circle cx="97.66177417416733" cy="-9.877421989261219" r="3" stroke="#141414" stroke-width="0" stroke-dasharray="1,0" fill="rgb(204, 58, 142)" fill-opacity="1" stroke-opacity="1" class="xSameDots2_2"></circle></g><g class="xSameDots2_1" transform="translate(0,0)"><circle cx="123.68899516434887" cy="-12.509791174663354" r="3" stroke="#141414" stroke-width="0" stroke-dasharray="1,0" fill="rgb(219, 233, 205)" fill-opacity="1" stroke-opacity="1" class="xSameDots2_2"></circle></g><g class="xSameDots2_1" transform="translate(0,0)"><circle cx="114.10653785389904" cy="-9.239503179105576" r="3" stroke="#141414" stroke-width="0" stroke-dasharray="1,0" fill="rgb(238, 207, 225)" fill-opacity="1" stroke-opacity="1" class="xSameDots2_2"></circle></g><g class="xSameDots2_1" transform="translate(0,0)"><circle cx="109.83964821544494" cy="-11.109080965917263" r="3" stroke="#141414" stroke-width="0" stroke-dasharray="1,0" fill="rgb(230, 170, 204)" fill-opacity="1" stroke-opacity="1" class="xSameDots2_2"></circle></g><g class="xSameDots2_1" transform="translate(0,0)"><circle cx="112.70503034280436" cy="-11.398883078071627" r="3" stroke="#141414" stroke-width="0" stroke-dasharray="1,0" fill="rgb(236, 196, 219)" fill-opacity="1" stroke-opacity="1" class="xSameDots2_2"></circle></g><g class="xSameDots2_1" transform="translate(0,0)"><circle cx="136.34443289351972" cy="-13.789750503345127" r="3" stroke="#141414" stroke-width="0" stroke-dasharray="1,0" fill="rgb(156, 202, 109)" fill-opacity="1" stroke-opacity="1" class="xSameDots2_2"></circle></g></g><g class="xSameDots2" transform="translate(0,0)"><g class="xSameDots2_1" transform="translate(0,0)"><circle cx="55.88275806863403" cy="77.46733344218401" r="3" stroke="#141414" stroke-width="0" stroke-dasharray="1,0" fill="rgb(199, 34, 129)" fill-opacity="1" stroke-opacity="1" class="xSameDots2_2"></circle></g><g class="xSameDots2_1" transform="translate(0,0)"><circle cx="71.99244173386582" cy="95.70551673334165" r="3" stroke="#141414" stroke-width="0" stroke-dasharray="1,0" fill="rgb(242, 245, 240)" fill-opacity="1" stroke-opacity="1" class="xSameDots2_2"></circle></g><g class="xSameDots2_1" transform="translate(0,0)"><circle cx="73.4338755525015" cy="101.79752610618652" r="3" stroke="#141414" stroke-width="0" stroke-dasharray="1,0" fill="rgb(213, 230, 196)" fill-opacity="1" stroke-opacity="1" class="xSameDots2_2"></circle></g><g class="xSameDots2_1" transform="translate(0,0)"><circle cx="69.50242523611519" cy="96.34756294944997" r="3" stroke="#141414" stroke-width="0" stroke-dasharray="1,0" fill="rgb(247, 247, 247)" fill-opacity="1" stroke-opacity="1" class="xSameDots2_2"></circle></g><g class="xSameDots2_1" transform="translate(0,0)"><circle cx="65.57097491972887" cy="90.8975997927134" r="3" stroke="#141414" stroke-width="0" stroke-dasharray="1,0" fill="rgb(233, 185, 213)" fill-opacity="1" stroke-opacity="1" class="xSameDots2_2"></circle></g><g class="xSameDots2_1" transform="translate(0,0)"><circle cx="76.60919150437424" cy="101.84294466012908" r="3" stroke="#141414" stroke-width="0" stroke-dasharray="1,0" fill="rgb(204, 226, 181)" fill-opacity="1" stroke-opacity="1" class="xSameDots2_2"></circle></g><g class="xSameDots2_1" transform="translate(0,0)"><circle cx="59.25257262553659" cy="82.13873043367249" r="3" stroke="#141414" stroke-width="0" stroke-dasharray="1,0" fill="rgb(211, 86, 158)" fill-opacity="1" stroke-opacity="1" class="xSameDots2_2"></circle></g><g class="xSameDots2_1" transform="translate(0,0)"><circle cx="67.53670007792202" cy="93.62258137108167" r="3" stroke="#141414" stroke-width="0" stroke-dasharray="1,0" fill="rgb(240, 216, 230)" fill-opacity="1" stroke-opacity="1" class="xSameDots2_2"></circle></g></g><g class="xSameDots2" transform="translate(0,0)"><g class="xSameDots2_1" transform="translate(0,0)"><circle cx="-50.788627782502296" cy="107.3962536030491" r="3" stroke="#141414" stroke-width="0" stroke-dasharray="1,0" fill="rgb(247, 247, 247)" fill-opacity="1" stroke-opacity="1" class="xSameDots2_2"></circle></g><g class="xSameDots2_1" transform="translate(0,0)"><circle cx="-46.35945257601572" cy="109.12045984531109" r="3" stroke="#141414" stroke-width="0" stroke-dasharray="1,0" fill="rgb(247, 245, 246)" fill-opacity="1" stroke-opacity="1" class="xSameDots2_2"></circle></g><g class="xSameDots2_1" transform="translate(0,0)"><circle cx="-51.676246786286775" cy="115.17857056797844" r="3" stroke="#141414" stroke-width="0" stroke-dasharray="1,0" fill="rgb(210, 229, 191)" fill-opacity="1" stroke-opacity="1" class="xSameDots2_2"></circle></g><g class="xSameDots2_1" transform="translate(0,0)"><circle cx="-57.17790043653784" cy="127.44092789080504" r="3" stroke="#141414" stroke-width="0" stroke-dasharray="1,0" fill="rgb(143, 196, 89)" fill-opacity="1" stroke-opacity="1" class="xSameDots2_2"></circle></g><g class="xSameDots2_1" transform="translate(0,0)"><circle cx="-54.899351734755456" cy="129.22159718523682" r="3" stroke="#141414" stroke-width="0" stroke-dasharray="1,0" fill="rgb(139, 194, 83)" fill-opacity="1" stroke-opacity="1" class="xSameDots2_2"></circle></g><g class="xSameDots2_1" transform="translate(0,0)"><circle cx="-39.29752607322188" cy="87.58826659161858" r="3" stroke="#141414" stroke-width="0" stroke-dasharray="1,0" fill="rgb(200, 38, 131)" fill-opacity="1" stroke-opacity="1" class="xSameDots2_2"></circle></g><g class="xSameDots2_1" transform="translate(0,0)"><circle cx="-48.04122562451375" cy="107.07665590825371" r="3" stroke="#141414" stroke-width="0" stroke-dasharray="1,0" fill="rgb(244, 234, 240)" fill-opacity="1" stroke-opacity="1" class="xSameDots2_2"></circle></g><g class="xSameDots2_1" transform="translate(0,0)"><circle cx="-40.672939485784646" cy="90.65385592232522" r="3" stroke="#141414" stroke-width="0" stroke-dasharray="1,0" fill="rgb(207, 69, 148)" fill-opacity="1" stroke-opacity="1" class="xSameDots2_2"></circle></g></g><g class="xSameDots2" transform="translate(0,0)"><g class="xSameDots2_1" transform="translate(0,0)"><circle cx="-118.89405297244522" cy="12.216160108045102" r="3" stroke="#141414" stroke-width="0" stroke-dasharray="1,0" fill="rgb(243, 245, 242)" fill-opacity="1" stroke-opacity="1" class="xSameDots2_2"></circle></g><g class="xSameDots2_1" transform="translate(0,0)"><circle cx="-114.3579344855447" cy="11.750081710348603" r="3" stroke="#141414" stroke-width="0" stroke-dasharray="1,0" fill="rgb(239, 212, 227)" fill-opacity="1" stroke-opacity="1" class="xSameDots2_2"></circle></g><g class="xSameDots2_1" transform="translate(0,0)"><circle cx="-130.83120688534132" cy="13.442682207246417" r="3" stroke="#141414" stroke-width="0" stroke-dasharray="1,0" fill="rgb(183, 216, 151)" fill-opacity="1" stroke-opacity="1" class="xSameDots2_2"></circle></g><g class="xSameDots2_1" transform="translate(0,0)"><circle cx="-140.6196730939161" cy="14.448430328591494" r="3" stroke="#141414" stroke-width="0" stroke-dasharray="1,0" fill="rgb(134, 192, 76)" fill-opacity="1" stroke-opacity="1" class="xSameDots2_2"></circle></g><g class="xSameDots2_1" transform="translate(0,0)"><circle cx="-140.30260075436598" cy="17.257746711577987" r="3" stroke="#141414" stroke-width="0" stroke-dasharray="1,0" fill="rgb(134, 192, 76)" fill-opacity="1" stroke-opacity="1" class="xSameDots2_2"></circle></g><g class="xSameDots2_1" transform="translate(0,0)"><circle cx="-106.71815598129119" cy="10.965107566859759" r="3" stroke="#141414" stroke-width="0" stroke-dasharray="1,0" fill="rgb(223, 141, 188)" fill-opacity="1" stroke-opacity="1" class="xSameDots2_2"></circle></g><g class="xSameDots2_1" transform="translate(0,0)"><circle cx="-136.79978384178938" cy="14.055943256847076" r="3" stroke="#141414" stroke-width="0" stroke-dasharray="1,0" fill="rgb(153, 201, 105)" fill-opacity="1" stroke-opacity="1" class="xSameDots2_2"></circle></g><g class="xSameDots2_1" transform="translate(0,0)"><circle cx="-136.72952942785412" cy="16.818245521979225" r="3" stroke="#141414" stroke-width="0" stroke-dasharray="1,0" fill="rgb(152, 200, 103)" fill-opacity="1" stroke-opacity="1" class="xSameDots2_2"></circle></g></g><g class="xSameDots2" transform="translate(0,0)"><g class="xSameDots2_1" transform="translate(0,0)"><circle cx="-84.87383559652358" cy="-107.89916788897999" r="3" stroke="#141414" stroke-width="0" stroke-dasharray="1,0" fill="rgb(155, 202, 107)" fill-opacity="1" stroke-opacity="1" class="xSameDots2_2"></circle></g><g class="xSameDots2_1" transform="translate(0,0)"><circle cx="-79.50609839011237" cy="-109.8459845364489" r="3" stroke="#141414" stroke-width="0" stroke-dasharray="1,0" fill="rgb(163, 206, 120)" fill-opacity="1" stroke-opacity="1" class="xSameDots2_2"></circle></g><g class="xSameDots2_1" transform="translate(0,0)"><circle cx="-82.46119231257673" cy="-113.92875564311336" r="3" stroke="#141414" stroke-width="0" stroke-dasharray="1,0" fill="rgb(138, 193, 81)" fill-opacity="1" stroke-opacity="1" class="xSameDots2_2"></circle></g><g class="xSameDots2_1" transform="translate(0,0)"><circle cx="-82.12070706166016" cy="-108.80869391594129" r="3" stroke="#141414" stroke-width="0" stroke-dasharray="1,0" fill="rgb(159, 204, 114)" fill-opacity="1" stroke-opacity="1" class="xSameDots2_2"></circle></g><g class="xSameDots2_1" transform="translate(0,0)"><circle cx="-70.50009786450674" cy="-97.40325354470956" r="3" stroke="#141414" stroke-width="0" stroke-dasharray="1,0" fill="rgb(240, 243, 236)" fill-opacity="1" stroke-opacity="1" class="xSameDots2_2"></circle></g><g class="xSameDots2_1" transform="translate(0,0)"><circle cx="-76.26956695122284" cy="-105.37437808629255" r="3" stroke="#141414" stroke-width="0" stroke-dasharray="1,0" fill="rgb(191, 219, 161)" fill-opacity="1" stroke-opacity="1" class="xSameDots2_2"></circle></g><g class="xSameDots2_1" transform="translate(0,0)"><circle cx="-67.54500394204238" cy="-93.32048243804508" r="3" stroke="#141414" stroke-width="0" stroke-dasharray="1,0" fill="rgb(240, 214, 229)" fill-opacity="1" stroke-opacity="1" class="xSameDots2_2"></circle></g><g class="xSameDots2_1" transform="translate(0,0)"><circle cx="-77.8406345528526" cy="-112.20280394183226" r="3" stroke="#141414" stroke-width="0" stroke-dasharray="1,0" fill="rgb(158, 203, 112)" fill-opacity="1" stroke-opacity="1" class="xSameDots2_2"></circle></g></g><circle cx="0" cy="0" r="118.80000000000001" stroke="black" stroke-width="0.2" stroke-dasharray="1,1" fill="none" fill-opacity="1" stroke-opacity="1" class="circle1"></circle><circle cx="0" cy="0" r="150" stroke="black" stroke-width="0.5" stroke-dasharray="1,0" fill="none" fill-opacity="1" stroke-opacity="1" class="circle2"></circle></g></svg>
