<svg width="550" height="340" id="ngplotSvg"><g transform="translate(100,0)" class="group1"><g transform="translate(0,240)" class="bSlN2axis1"><g transform="translate(0,0)" class="bSlN2axis1_1"><line x1="0" y1="0" x2="300" y2="0" stroke="black" stroke-width="1" stroke-dasharray="1,0" class="bSlN2axis1_2"></line><g class="bSlN2axis1_3" transform="translate(26.470560000000003,0)"><line x1="0" y1="0" x2="0" y2="5" stroke="black" stroke-width="1" stroke-dasharray="1,0" class="bSlN2axis1_4"></line><g class="bSlN2axis1_5_g"><text x="2" y="13" style="text-anchor: end; font-size: 12px; font-weight: normal; font-family: Arial; font-style: normal;" transform="rotate(-45,2,13)" dominant-baseline="auto" fill="black" class="bSlN2axis1_5">name1</text></g></g><g class="bSlN2axis1_3" transform="translate(88.23528,0)"><line x1="0" y1="0" x2="0" y2="5" stroke="black" stroke-width="1" stroke-dasharray="1,0" class="bSlN2axis1_4"></line><g class="bSlN2axis1_5_g"><text x="2" y="13" style="text-anchor: end; font-size: 12px; font-weight: normal; font-family: Arial; font-style: normal;" transform="rotate(-45,2,13)" dominant-baseline="auto" fill="black" class="bSlN2axis1_5">name2</text></g></g><g class="bSlN2axis1_3" transform="translate(150,0)"><line x1="0" y1="0" x2="0" y2="5" stroke="black" stroke-width="1" stroke-dasharray="1,0" class="bSlN2axis1_4"></line><g class="bSlN2axis1_5_g"><text x="2" y="13" style="text-anchor: end; font-size: 12px; font-weight: normal; font-family: Arial; font-style: normal;" transform="rotate(-45,2,13)" dominant-baseline="auto" fill="black" class="bSlN2axis1_5">name3</text></g></g><g class="bSlN2axis1_3" transform="translate(211.76472,0)"><line x1="0" y1="0" x2="0" y2="5" stroke="black" stroke-width="1" stroke-dasharray="1,0" class="bSlN2axis1_4"></line><g class="bSlN2axis1_5_g"><text x="2" y="13" style="text-anchor: end; font-size: 12px; font-weight: normal; font-family: Arial; font-style: normal;" transform="rotate(-45,2,13)" dominant-baseline="auto" fill="black" class="bSlN2axis1_5">name4</text></g></g><g class="bSlN2axis1_3" transform="translate(273.52944,0)"><line x1="0" y1="0" x2="0" y2="5" stroke="black" stroke-width="1" stroke-dasharray="1,0" class="bSlN2axis1_4"></line><g class="bSlN2axis1_5_g"><text x="2" y="13" style="text-anchor: end; font-size: 12px; font-weight: normal; font-family: Arial; font-style: normal;" transform="rotate(-45,2,13)" dominant-baseline="auto" fill="black" class="bSlN2axis1_5">name5</text></g></g></g><g transform="translate(0,0)" class="bSlN2axis1_6"><line x1="0" y1="0" x2="0" y2="-160" stroke="black" stroke-width="1" stroke-dasharray="1,0" class="bSlN2axis1_7"></line><g class="bSlN2axis1_8" transform="translate(0,-10)"><line x1="0" y1="0" x2="-5" y2="0" stroke="black" stroke-width="1" stroke-dasharray="1,0" class="bSlN2axis1_9"></line><g class="bSlN2axis1_10_g"><text x="-10" y="0" style="text-anchor: end; font-size: 12px; font-weight: normal; font-family: Arial; font-style: normal;" transform="rotate(0,-10,0)" dominant-baseline="middle" fill="black" class="bSlN2axis1_10">0</text></g></g><g class="bSlN2axis1_8" transform="translate(0,-32.04724409448819)"><line x1="0" y1="0" x2="-5" y2="0" stroke="black" stroke-width="1" stroke-dasharray="1,0" class="bSlN2axis1_9"></line><g class="bSlN2axis1_10_g"><text x="-10" y="0" style="text-anchor: end; font-size: 12px; font-weight: normal; font-family: Arial; font-style: normal;" transform="rotate(0,-10,0)" dominant-baseline="middle" fill="black" class="bSlN2axis1_10">20</text></g></g><g class="bSlN2axis1_8" transform="translate(0,-54.09448818897638)"><line x1="0" y1="0" x2="-5" y2="0" stroke="black" stroke-width="1" stroke-dasharray="1,0" class="bSlN2axis1_9"></line><g class="bSlN2axis1_10_g"><text x="-10" y="0" style="text-anchor: end; font-size: 12px; font-weight: normal; font-family: Arial; font-style: normal;" transform="rotate(0,-10,0)" dominant-baseline="middle" fill="black" class="bSlN2axis1_10">40</text></g></g><g class="bSlN2axis1_8" transform="translate(0,-71.81102362204724)"><line x1="0" y1="0" x2="-5" y2="0" stroke="black" stroke-width="1" stroke-dasharray="1,0" class="bSlN2axis1_9"></line><g class="bSlN2axis1_10_g"><text x="-10" y="0" style="text-anchor: end; font-size: 12px; font-weight: normal; font-family: Arial; font-style: normal;" transform="rotate(0,-10,0)" dominant-baseline="middle" fill="black" class="bSlN2axis1_10">220</text></g></g><g class="bSlN2axis1_8" transform="translate(0,-93.85826771653544)"><line x1="0" y1="0" x2="-5" y2="0" stroke="black" stroke-width="1" stroke-dasharray="1,0" class="bSlN2axis1_9"></line><g class="bSlN2axis1_10_g"><text x="-10" y="0" style="text-anchor: end; font-size: 12px; font-weight: normal; font-family: Arial; font-style: normal;" transform="rotate(0,-10,0)" dominant-baseline="middle" fill="black" class="bSlN2axis1_10">240</text></g></g><g class="bSlN2axis1_8" transform="translate(0,-115.90551181102362)"><line x1="0" y1="0" x2="-5" y2="0" stroke="black" stroke-width="1" stroke-dasharray="1,0" class="bSlN2axis1_9"></line><g class="bSlN2axis1_10_g"><text x="-10" y="0" style="text-anchor: end; font-size: 12px; font-weight: normal; font-family: Arial; font-style: normal;" transform="rotate(0,-10,0)" dominant-baseline="middle" fill="black" class="bSlN2axis1_10">260</text></g></g><g class="bSlN2axis1_8" transform="translate(0,-137.95275590551182)"><line x1="0" y1="0" x2="-5" y2="0" stroke="black" stroke-width="1" stroke-dasharray="1,0" class="bSlN2axis1_9"></line><g class="bSlN2axis1_10_g"><text x="-10" y="0" style="text-anchor: end; font-size: 12px; font-weight: normal; font-family: Arial; font-style: normal;" transform="rotate(0,-10,0)" dominant-baseline="middle" fill="black" class="bSlN2axis1_10">280</text></g></g><g class="bSlN2axis1_8" transform="translate(0,-160)"><line x1="0" y1="0" x2="-5" y2="0" stroke="black" stroke-width="1" stroke-dasharray="1,0" class="bSlN2axis1_9"></line><g class="bSlN2axis1_10_g"><text x="-10" y="0" style="text-anchor: end; font-size: 12px; font-weight: normal; font-family: Arial; font-style: normal;" transform="rotate(0,-10,0)" dominant-baseline="middle" fill="black" class="bSlN2axis1_10">300</text></g></g></g><g transform="translate(0,0)" class="group4"><g class="varsBarV1" transform="translate(26.470560000000003,0)"><g class="varsBarV1_1" transform="translate(0,0)"><rect x="-22.0588" y="-133.54330708661416" width="44.1176" height="133.54330708661416" rx="0" ry="0" fill="#0073c2" stroke="black" stroke-width="0" fill-opacity="1" class="varsBarV1_2"></rect></g><g class="varsBarV1_1" transform="translate(0,0)"><rect x="-16.5441" y="-50.78740157480315" width="33.0882" height="50.78740157480315" rx="0" ry="0" fill="#efc000" stroke="black" stroke-width="0" fill-opacity="1" class="varsBarV1_2"></rect></g><g class="varsBarV1_1" transform="translate(0,0)"><rect x="-11.0294" y="-28.740157480314963" width="22.0588" height="28.740157480314963" rx="0" ry="0" fill="#868686" stroke="black" stroke-width="0" fill-opacity="1" class="varsBarV1_2"></rect></g><g class="varsBarV1_1" transform="translate(0,0)"><rect x="-5.514700000000001" y="-16.61417322834646" width="11.029400000000003" height="16.61417322834646" rx="0" ry="0" fill="#cd534c" stroke="black" stroke-width="0" fill-opacity="1" class="varsBarV1_2"></rect></g></g><g class="varsBarV1" transform="translate(88.23528,0)"><g class="varsBarV1_1" transform="translate(0,0)"><rect x="-22.0588" y="-125.8267716535433" width="44.1176" height="125.8267716535433" rx="0" ry="0" fill="#0073c2" stroke="black" stroke-width="0" fill-opacity="1" class="varsBarV1_2"></rect></g><g class="varsBarV1_1" transform="translate(0,0)"><rect x="-16.5441" y="-47.480314960629926" width="33.0882" height="47.480314960629926" rx="0" ry="0" fill="#efc000" stroke="black" stroke-width="0" fill-opacity="1" class="varsBarV1_2"></rect></g><g class="varsBarV1_1" transform="translate(0,0)"><rect x="-11.0294" y="-25.433070866141733" width="22.0588" height="25.433070866141733" rx="0" ry="0" fill="#868686" stroke="black" stroke-width="0" fill-opacity="1" class="varsBarV1_2"></rect></g><g class="varsBarV1_1" transform="translate(0,0)"><rect x="-5.514700000000001" y="-19.921259842519685" width="11.029400000000003" height="19.921259842519685" rx="0" ry="0" fill="#cd534c" stroke="black" stroke-width="0" fill-opacity="1" class="varsBarV1_2"></rect></g></g><g class="varsBarV1" transform="translate(150,0)"><g class="varsBarV1_1" transform="translate(0,0)"><rect x="-22.0588" y="-148.9763779527559" width="44.1176" height="148.9763779527559" rx="0" ry="0" fill="#0073c2" stroke="black" stroke-width="0" fill-opacity="1" class="varsBarV1_2"></rect></g><g class="varsBarV1_1" transform="translate(0,0)"><rect x="-16.5441" y="-51.889763779527556" width="33.0882" height="51.889763779527556" rx="0" ry="0" fill="#efc000" stroke="black" stroke-width="0" fill-opacity="1" class="varsBarV1_2"></rect></g><g class="varsBarV1_1" transform="translate(0,0)"><rect x="-11.0294" y="-24.330708661417326" width="22.0588" height="24.330708661417326" rx="0" ry="0" fill="#868686" stroke="black" stroke-width="0" fill-opacity="1" class="varsBarV1_2"></rect></g><g class="varsBarV1_1" transform="translate(0,0)"><rect x="-5.514700000000001" y="-18.818897637795274" width="11.029400000000003" height="18.818897637795274" rx="0" ry="0" fill="#cd534c" stroke="black" stroke-width="0" fill-opacity="1" class="varsBarV1_2"></rect></g></g><g class="varsBarV1" transform="translate(211.76472,0)"><g class="varsBarV1_1" transform="translate(0,0)"><rect x="-22.0588" y="-111.49606299212599" width="44.1176" height="111.49606299212599" rx="0" ry="0" fill="#0073c2" stroke="black" stroke-width="0" fill-opacity="1" class="varsBarV1_2"></rect></g><g class="varsBarV1_1" transform="translate(0,0)"><rect x="-16.5441" y="-39.76377952755906" width="33.0882" height="39.76377952755906" rx="0" ry="0" fill="#efc000" stroke="black" stroke-width="0" fill-opacity="1" class="varsBarV1_2"></rect></g><g class="varsBarV1_1" transform="translate(0,0)"><rect x="-11.0294" y="-25.433070866141733" width="22.0588" height="25.433070866141733" rx="0" ry="0" fill="#868686" stroke="black" stroke-width="0" fill-opacity="1" class="varsBarV1_2"></rect></g><g class="varsBarV1_1" transform="translate(0,0)"><rect x="-5.514700000000001" y="-11.10236220472441" width="11.029400000000003" height="11.10236220472441" rx="0" ry="0" fill="#cd534c" stroke="black" stroke-width="0" fill-opacity="1" class="varsBarV1_2"></rect></g></g><g class="varsBarV1" transform="translate(273.52944,0)"><g class="varsBarV1_1" transform="translate(0,0)"><rect x="-22.0588" y="-144.56692913385828" width="44.1176" height="144.56692913385828" rx="0" ry="0" fill="#0073c2" stroke="black" stroke-width="0" fill-opacity="1" class="varsBarV1_2"></rect></g><g class="varsBarV1_1" transform="translate(0,0)"><rect x="-16.5441" y="-35.35433070866142" width="33.0882" height="35.35433070866142" rx="0" ry="0" fill="#efc000" stroke="black" stroke-width="0" fill-opacity="1" class="varsBarV1_2"></rect></g><g class="varsBarV1_1" transform="translate(0,0)"><rect x="-11.0294" y="-27.637795275590552" width="22.0588" height="27.637795275590552" rx="0" ry="0" fill="#868686" stroke="black" stroke-width="0" fill-opacity="1" class="varsBarV1_2"></rect></g><g class="varsBarV1_1" transform="translate(0,0)"><rect x="-5.514700000000001" y="-15.511811023622048" width="11.029400000000003" height="15.511811023622048" rx="0" ry="0" fill="#cd534c" stroke="black" stroke-width="0" fill-opacity="1" class="varsBarV1_2"></rect></g></g></g><g class="cutRect1" transform="translate(0,-61.2992125984252)" width="310"><rect x="-5" y="-5" width="310" height="10" rx="0" ry="0" fill="white" stroke="black" stroke-width="0" fill-opacity="1" class="cutRect1_1"></rect><line x1="2" y1="-3" x2="-2" y2="-7" stroke="black" stroke-width="1" stroke-dasharray="1,0" class="cutRect1_2"></line><line x1="2" y1="7" x2="-2" y2="3" stroke="black" stroke-width="1" stroke-dasharray="1,0" class="cutRect1_3"></line></g></g></g></svg>
