<svg width="502" height="510" id="ngplotSvg"><g transform="translate(110,110)" class="group1"><g class="group2" transform="translate(0,0)"><g class="pie1" transform="translate(0,0)"><path d="M0,-35A35,35,0,0,1,19.445,-29.101L0,0Z" transform="translate(0.29028467725446233,-0.9569403357322089)" id="e_pie1_1_0" fill="#f1af81" stroke="#f7f7f7" stroke-width="0" stroke-dasharray="1,0" fill-opacity="1" class="pie1_1"></path><g class="text2_g"><text x="13.062810476450805" y="-43.0623151079494" style="text-anchor: middle; font-size: 12px; font-weight: normal; font-family: Arial; font-style: normal;" transform="rotate(0,13.062810476450805,-43.0623151079494)" dominant-baseline="auto" fill="black" class="text2">3</text></g></g><g class="pie1" transform="translate(0,0)"><path d="M19.445,-29.101A35,35,0,0,1,32.336,-13.394L0,0Z" transform="translate(0.773010453362737,-0.6343932841636455)" id="e_pie1_1_1" fill="#a6cd8b" stroke="#f7f7f7" stroke-width="0" stroke-dasharray="1,0" fill-opacity="1" class="pie1_1"></path><g class="text2_g"><text x="34.78547040132317" y="-28.547697787364047" style="text-anchor: middle; font-size: 12px; font-weight: normal; font-family: Arial; font-style: normal;" transform="rotate(0,34.78547040132317,-28.547697787364047)" dominant-baseline="auto" fill="black" class="text2">3</text></g></g><g class="pie1" transform="translate(0,0)"><path d="M32.336,-13.394A35,35,0,0,1,24.749,24.749L0,0Z" transform="translate(0.9807852804032304,0.19509032201612825)" id="e_pie1_1_2" fill="#3a62a8" stroke="#f7f7f7" stroke-width="0" stroke-dasharray="1,0" fill-opacity="1" class="pie1_1"></path><g class="text2_g"><text x="44.13533761814537" y="8.779064490725771" style="text-anchor: middle; font-size: 12px; font-weight: normal; font-family: Arial; font-style: normal;" transform="rotate(0,44.13533761814537,8.779064490725771)" dominant-baseline="auto" fill="black" class="text2">6</text></g></g><g class="pie1" transform="translate(0,0)"><path d="M24.749,24.749A35,35,0,0,1,-6.828,34.327L0,0Z" transform="translate(0.29028467725446233,0.9569403357322089)" id="e_pie1_1_3" fill="#f3807b" stroke="#f7f7f7" stroke-width="0" stroke-dasharray="1,0" fill-opacity="1" class="pie1_1"></path><g class="text2_g"><text x="13.062810476450805" y="43.0623151079494" style="text-anchor: middle; font-size: 12px; font-weight: normal; font-family: Arial; font-style: normal;" transform="rotate(0,13.062810476450805,43.0623151079494)" dominant-baseline="auto" fill="black" class="text2">5</text></g></g><g class="pie1" transform="translate(0,0)"><path d="M-6.828,34.327A35,35,0,0,1,-34.327,-6.828L0,0Z" transform="translate(-0.8314696123025453,0.5555702330196022)" id="e_pie1_1_4" fill="#f5c9ab" stroke="#f7f7f7" stroke-width="0" stroke-dasharray="1,0" fill-opacity="1" class="pie1_1"></path><g class="text2_g"><text x="-37.41613255361454" y="25.000660485882097" style="text-anchor: middle; font-size: 12px; font-weight: normal; font-family: Arial; font-style: normal;" transform="rotate(0,-37.41613255361454,25.000660485882097)" dominant-baseline="auto" fill="black" class="text2">8</text></g></g><g class="pie1" transform="translate(0,0)"><path d="M-34.327,-6.828A35,35,0,0,1,0,-35L0,0Z" transform="translate(-0.6343932841636452,-0.7730104533627372)" id="e_pie1_1_5" fill="#e0ca86" stroke="#f7f7f7" stroke-width="0" stroke-dasharray="1,0" fill-opacity="1" class="pie1_1"></path><g class="text2_g"><text x="-28.547697787364033" y="-34.785470401323174" style="text-anchor: middle; font-size: 12px; font-weight: normal; font-family: Arial; font-style: normal;" transform="rotate(0,-28.547697787364033,-34.785470401323174)" dominant-baseline="auto" fill="black" class="text2">7</text></g></g><g class="text1_g"><text x="0" y="-65" style="text-anchor: middle; font-size: 12px; font-weight: bold; font-family: Arial; font-style: normal;" transform="rotate(0,0,-65)" dominant-baseline="auto" fill="black" class="text1">a</text></g></g><g class="group2" transform="translate(120,0)"><g class="pie1" transform="translate(0,0)"><path d="M0,-35A35,35,0,0,1,15.708,-31.277L0,0Z" transform="translate(0.23061587074244025,-0.9730448705798238)" id="e_pie1_1_0" fill="#f1af81" stroke="#f7f7f7" stroke-width="0" stroke-dasharray="1,0" fill-opacity="1" class="pie1_1"></path><g class="text2_g"><text x="10.377714183409811" y="-43.78701917609207" style="text-anchor: middle; font-size: 12px; font-weight: normal; font-family: Arial; font-style: normal;" transform="rotate(0,10.377714183409811,-43.78701917609207)" dominant-baseline="auto" fill="black" class="text2">2</text></g></g><g class="pie1" transform="translate(0,0)"><path d="M15.708,-31.277A35,35,0,0,1,22.498,-26.812L0,0Z" transform="translate(0.549508978070806,-0.8354878114129364)" id="e_pie1_1_1" fill="#a6cd8b" stroke="#f7f7f7" stroke-width="0" stroke-dasharray="1,0" fill-opacity="1" class="pie1_1"></path><g class="text2_g"><text x="24.72790401318627" y="-37.596951513582134" style="text-anchor: middle; font-size: 12px; font-weight: normal; font-family: Arial; font-style: normal;" transform="rotate(0,24.72790401318627,-37.596951513582134)" dominant-baseline="auto" fill="black" class="text2">1</text></g></g><g class="pie1" transform="translate(0,0)"><path d="M22.498,-26.812A35,35,0,0,1,32.138,-13.863L0,0Z" transform="translate(0.8021231927550437,-0.5971585917027862)" id="e_pie1_1_2" fill="#3a62a8" stroke="#f7f7f7" stroke-width="0" stroke-dasharray="1,0" fill-opacity="1" class="pie1_1"></path><g class="text2_g"><text x="36.09554367397697" y="-26.872136626625377" style="text-anchor: middle; font-size: 12px; font-weight: normal; font-family: Arial; font-style: normal;" transform="rotate(0,36.09554367397697,-26.872136626625377)" dominant-baseline="auto" fill="black" class="text2">2</text></g></g><g class="pie1" transform="translate(0,0)"><path d="M32.138,-13.863A35,35,0,0,1,-4.063,34.763L0,0Z" transform="translate(0.8021231927550438,0.5971585917027861)" id="e_pie1_1_3" fill="#f3807b" stroke="#f7f7f7" stroke-width="0" stroke-dasharray="1,0" fill-opacity="1" class="pie1_1"></path><g class="text2_g"><text x="36.09554367397698" y="26.872136626625373" style="text-anchor: middle; font-size: 12px; font-weight: normal; font-family: Arial; font-style: normal;" transform="rotate(0,36.09554367397698,26.872136626625373)" dominant-baseline="auto" fill="black" class="text2">9</text></g></g><g class="pie1" transform="translate(0,0)"><path d="M-4.063,34.763A35,35,0,0,1,-30.311,17.5L0,0Z" transform="translate(-0.5495089780708057,0.8354878114129367)" id="e_pie1_1_4" fill="#f5c9ab" stroke="#f7f7f7" stroke-width="0" stroke-dasharray="1,0" fill-opacity="1" class="pie1_1"></path><g class="text2_g"><text x="-24.727904013186254" y="37.596951513582155" style="text-anchor: middle; font-size: 12px; font-weight: normal; font-family: Arial; font-style: normal;" transform="rotate(0,-24.727904013186254,37.596951513582155)" dominant-baseline="auto" fill="black" class="text2">4</text></g></g><g class="pie1" transform="translate(0,0)"><path d="M-30.311,17.5A35,35,0,0,1,0,-35L0,0Z" transform="translate(-0.866025403784439,-0.4999999999999994)" id="e_pie1_1_5" fill="#e0ca86" stroke="#f7f7f7" stroke-width="0" stroke-dasharray="1,0" fill-opacity="1" class="pie1_1"></path><g class="text2_g"><text x="-38.971143170299754" y="-22.49999999999997" style="text-anchor: middle; font-size: 12px; font-weight: normal; font-family: Arial; font-style: normal;" transform="rotate(0,-38.971143170299754,-22.49999999999997)" dominant-baseline="auto" fill="black" class="text2">9</text></g></g><g class="text1_g"><text x="0" y="-65" style="text-anchor: middle; font-size: 12px; font-weight: bold; font-family: Arial; font-style: normal;" transform="rotate(0,0,-65)" dominant-baseline="auto" fill="black" class="text1">b</text></g></g><g class="group2" transform="translate(0,120)"><g class="pie1" transform="translate(0,0)"><path d="M0,-35A35,35,0,0,1,7.524,-34.182L0,0Z" transform="translate(0.10811901842394187,-0.9941379571543596)" id="e_pie1_1_0" fill="#f1af81" stroke="#f7f7f7" stroke-width="0" stroke-dasharray="1,0" fill-opacity="1" class="pie1_1"></path><g class="text2_g"><text x="4.865355829077384" y="-44.73620807194618" style="text-anchor: middle; font-size: 12px; font-weight: normal; font-family: Arial; font-style: normal;" transform="rotate(0,4.865355829077384,-44.73620807194618)" dominant-baseline="auto" fill="black" class="text2">1</text></g></g><g class="pie1" transform="translate(0,0)"><path d="M7.524,-34.182A35,35,0,0,1,34.949,-1.895L0,0Z" transform="translate(0.7621620551276366,-0.6473862847818275)" id="e_pie1_1_1" fill="#a6cd8b" stroke="#f7f7f7" stroke-width="0" stroke-dasharray="1,0" fill-opacity="1" class="pie1_1"></path><g class="text2_g"><text x="34.29729248074364" y="-29.132382815182236" style="text-anchor: middle; font-size: 12px; font-weight: normal; font-family: Arial; font-style: normal;" transform="rotate(0,34.29729248074364,-29.132382815182236)" dominant-baseline="auto" fill="black" class="text2">6</text></g></g><g class="pie1" transform="translate(0,0)"><path d="M34.949,-1.895A35,35,0,0,1,11.176,33.168L0,0Z" transform="translate(0.8276889981568906,0.5611870653623824)" id="e_pie1_1_2" fill="#3a62a8" stroke="#f7f7f7" stroke-width="0" stroke-dasharray="1,0" fill-opacity="1" class="pie1_1"></path><g class="text2_g"><text x="37.24600491706008" y="25.25341794130721" style="text-anchor: middle; font-size: 12px; font-weight: normal; font-family: Arial; font-style: normal;" transform="rotate(0,37.24600491706008,25.25341794130721)" dominant-baseline="auto" fill="black" class="text2">6</text></g></g><g class="pie1" transform="translate(0,0)"><path d="M11.176,33.168A35,35,0,0,1,-28.969,19.642L0,0Z" transform="translate(-0.31930153013598045,0.9476531711828022)" id="e_pie1_1_3" fill="#f3807b" stroke="#f7f7f7" stroke-width="0" stroke-dasharray="1,0" fill-opacity="1" class="pie1_1"></path><g class="text2_g"><text x="-14.36856885611912" y="42.6443927032261" style="text-anchor: middle; font-size: 12px; font-weight: normal; font-family: Arial; font-style: normal;" transform="rotate(0,-14.36856885611912,42.6443927032261)" dominant-baseline="auto" fill="black" class="text2">6</text></g></g><g class="pie1" transform="translate(0,0)"><path d="M-28.969,19.642A35,35,0,0,1,-33.724,-9.363L0,0Z" transform="translate(-0.9868265225415263,0.16178199655276382)" id="e_pie1_1_4" fill="#f5c9ab" stroke="#f7f7f7" stroke-width="0" stroke-dasharray="1,0" fill-opacity="1" class="pie1_1"></path><g class="text2_g"><text x="-44.40719351436868" y="7.280189844874371" style="text-anchor: middle; font-size: 12px; font-weight: normal; font-family: Arial; font-style: normal;" transform="rotate(0,-44.40719351436868,7.280189844874371)" dominant-baseline="auto" fill="black" class="text2">4</text></g></g><g class="pie1" transform="translate(0,0)"><path d="M-33.724,-9.363A35,35,0,0,1,0,-35L0,0Z" transform="translate(-0.6051742151937641,-0.7960930657056445)" id="e_pie1_1_5" fill="#e0ca86" stroke="#f7f7f7" stroke-width="0" stroke-dasharray="1,0" fill-opacity="1" class="pie1_1"></path><g class="text2_g"><text x="-27.232839683719387" y="-35.824187956754" style="text-anchor: middle; font-size: 12px; font-weight: normal; font-family: Arial; font-style: normal;" transform="rotate(0,-27.232839683719387,-35.824187956754)" dominant-baseline="auto" fill="black" class="text2">6</text></g></g><g class="text1_g"><text x="0" y="-65" style="text-anchor: middle; font-size: 12px; font-weight: bold; font-family: Arial; font-style: normal;" transform="rotate(0,0,-65)" dominant-baseline="auto" fill="black" class="text1">c</text></g></g><g class="group2" transform="translate(120,120)"><g class="pie1" transform="translate(0,0)"><path d="M0,-35A35,35,0,0,1,30.821,-16.585L0,0Z" transform="translate(0.5128992774059061,-0.8584487936018661)" id="e_pie1_1_0" fill="#f1af81" stroke="#f7f7f7" stroke-width="0" stroke-dasharray="1,0" fill-opacity="1" class="pie1_1"></path><g class="text2_g"><text x="23.080467483265775" y="-38.630195712083975" style="text-anchor: middle; font-size: 12px; font-weight: normal; font-family: Arial; font-style: normal;" transform="rotate(0,23.080467483265775,-38.630195712083975)" dominant-baseline="auto" fill="black" class="text2">6</text></g></g><g class="pie1" transform="translate(0,0)"><path d="M30.821,-16.585A35,35,0,0,1,15.186,31.534L0,0Z" transform="translate(0.9510565162951535,0.3090169943749474)" id="e_pie1_1_1" fill="#a6cd8b" stroke="#f7f7f7" stroke-width="0" stroke-dasharray="1,0" fill-opacity="1" class="pie1_1"></path><g class="text2_g"><text x="42.79754323328191" y="13.905764746872633" style="text-anchor: middle; font-size: 12px; font-weight: normal; font-family: Arial; font-style: normal;" transform="rotate(0,42.79754323328191,13.905764746872633)" dominant-baseline="auto" fill="black" class="text2">9</text></g></g><g class="pie1" transform="translate(0,0)"><path d="M15.186,31.534A35,35,0,0,1,-29.21,19.281L0,0Z" transform="translate(-0.26603684556667506,0.9639628606958534)" id="e_pie1_1_2" fill="#3a62a8" stroke="#f7f7f7" stroke-width="0" stroke-dasharray="1,0" fill-opacity="1" class="pie1_1"></path><g class="text2_g"><text x="-11.971658050500377" y="43.3783287313134" style="text-anchor: middle; font-size: 12px; font-weight: normal; font-family: Arial; font-style: normal;" transform="rotate(0,-11.971658050500377,43.3783287313134)" dominant-baseline="auto" fill="black" class="text2">8</text></g></g><g class="pie1" transform="translate(0,0)"><path d="M-29.21,19.281A35,35,0,0,1,-32.183,13.756L0,0Z" transform="translate(-0.880595531856738,0.47386866247299875)" id="e_pie1_1_3" fill="#f3807b" stroke="#f7f7f7" stroke-width="0" stroke-dasharray="1,0" fill-opacity="1" class="pie1_1"></path><g class="text2_g"><text x="-39.62679893355321" y="21.324089811284942" style="text-anchor: middle; font-size: 12px; font-weight: normal; font-family: Arial; font-style: normal;" transform="rotate(0,-39.62679893355321,21.324089811284942)" dominant-baseline="auto" fill="black" class="text2">1</text></g></g><g class="pie1" transform="translate(0,0)"><path d="M-32.183,13.756A35,35,0,0,1,-30.821,-16.585L0,0Z" transform="translate(-0.9989930665413147,-0.0448648303505148)" id="e_pie1_1_4" fill="#f5c9ab" stroke="#f7f7f7" stroke-width="0" stroke-dasharray="1,0" fill-opacity="1" class="pie1_1"></path><g class="text2_g"><text x="-44.95468799435916" y="-2.018917365773166" style="text-anchor: middle; font-size: 12px; font-weight: normal; font-family: Arial; font-style: normal;" transform="rotate(0,-44.95468799435916,-2.018917365773166)" dominant-baseline="auto" fill="black" class="text2">5</text></g></g><g class="pie1" transform="translate(0,0)"><path d="M-30.821,-16.585A35,35,0,0,1,0,-35L0,0Z" transform="translate(-0.5128992774059062,-0.858448793601866)" id="e_pie1_1_5" fill="#e0ca86" stroke="#f7f7f7" stroke-width="0" stroke-dasharray="1,0" fill-opacity="1" class="pie1_1"></path><g class="text2_g"><text x="-23.08046748326578" y="-38.63019571208397" style="text-anchor: middle; font-size: 12px; font-weight: normal; font-family: Arial; font-style: normal;" transform="rotate(0,-23.08046748326578,-38.63019571208397)" dominant-baseline="auto" fill="black" class="text2">6</text></g></g><g class="text1_g"><text x="0" y="-65" style="text-anchor: middle; font-size: 12px; font-weight: bold; font-family: Arial; font-style: normal;" transform="rotate(0,0,-65)" dominant-baseline="auto" fill="black" class="text1">d</text></g></g></g><g transform="translate(380,100)" class="legend1"><g class="legend1_1_g"><text x="0" y="-10" style="text-anchor: start; font-size: 12px; font-weight: normal; font-family: Arial; font-style: normal;" transform="rotate(0,0,-10)" dominant-baseline="auto" fill="black" class="legend1_1">legend</text></g><g class="legend1_2" transform="translate(0,0)"><rect x="0" y="0" width="10" height="10" fill="#f1af81" stroke="" stroke-width="" fill-opacity="1" class="legend1_3"></rect><g class="legend1_4_g"><text x="14" y="5" style="text-anchor: start; font-size: 12px; font-weight: normal; font-family: Arial; font-style: normal;" transform="rotate(0,14,5)" dominant-baseline="middle" fill="black" class="legend1_4">name1</text></g></g><g class="legend1_2" transform="translate(0,13)"><rect x="0" y="0" width="10" height="10" fill="#a6cd8b" stroke="" stroke-width="" fill-opacity="1" class="legend1_3"></rect><g class="legend1_4_g"><text x="14" y="5" style="text-anchor: start; font-size: 12px; font-weight: normal; font-family: Arial; font-style: normal;" transform="rotate(0,14,5)" dominant-baseline="middle" fill="black" class="legend1_4">name2</text></g></g><g class="legend1_2" transform="translate(0,26)"><rect x="0" y="0" width="10" height="10" fill="#3a62a8" stroke="" stroke-width="" fill-opacity="1" class="legend1_3"></rect><g class="legend1_4_g"><text x="14" y="5" style="text-anchor: start; font-size: 12px; font-weight: normal; font-family: Arial; font-style: normal;" transform="rotate(0,14,5)" dominant-baseline="middle" fill="black" class="legend1_4">name3</text></g></g><g class="legend1_2" transform="translate(0,39)"><rect x="0" y="0" width="10" height="10" fill="#f3807b" stroke="" stroke-width="" fill-opacity="1" class="legend1_3"></rect><g class="legend1_4_g"><text x="14" y="5" style="text-anchor: start; font-size: 12px; font-weight: normal; font-family: Arial; font-style: normal;" transform="rotate(0,14,5)" dominant-baseline="middle" fill="black" class="legend1_4">name4</text></g></g><g class="legend1_2" transform="translate(0,52)"><rect x="0" y="0" width="10" height="10" fill="#f5c9ab" stroke="" stroke-width="" fill-opacity="1" class="legend1_3"></rect><g class="legend1_4_g"><text x="14" y="5" style="text-anchor: start; font-size: 12px; font-weight: normal; font-family: Arial; font-style: normal;" transform="rotate(0,14,5)" dominant-baseline="middle" fill="black" class="legend1_4">name5</text></g></g><g class="legend1_2" transform="translate(0,65)"><rect x="0" y="0" width="10" height="10" fill="#e0ca86" stroke="" stroke-width="" fill-opacity="1" class="legend1_3"></rect><g class="legend1_4_g"><text x="14" y="5" style="text-anchor: start; font-size: 12px; font-weight: normal; font-family: Arial; font-style: normal;" transform="rotate(0,14,5)" dominant-baseline="middle" fill="black" class="legend1_4">name6</text></g></g></g></svg>
