<svg width="440" height="280" id="ngplotSvg"><g transform="translate(100,230)" class="group1"><g transform="translate(0,0)" class="bNlN2axis1"><g transform="translate(0,0)" class="bNlN2axis1_1"><line x1="0" y1="0" x2="240" y2="0" stroke="black" stroke-width="0.5" stroke-dasharray="1,0" stroke-opacity="1" class="bNlN2axis1_2"></line><g class="bNlN2axis1_3" transform="translate(0,0)"><line x1="0" y1="0" x2="0" y2="3" stroke="black" stroke-width="0.5" stroke-dasharray="1,0" class="bNlN2axis1_4"></line><g class="bNlN2axis1_5_g"><text x="0" y="13" style="text-anchor: middle; font-size: 12px; font-weight: normal; font-family: Arial; font-style: normal;" transform="rotate(0,0,13)" dominant-baseline="middle" fill="black" class="bNlN2axis1_5">0</text></g></g><g class="bNlN2axis1_3" transform="translate(48,0)"><line x1="0" y1="0" x2="0" y2="3" stroke="black" stroke-width="0.5" stroke-dasharray="1,0" class="bNlN2axis1_4"></line><g class="bNlN2axis1_5_g"><text x="0" y="13" style="text-anchor: middle; font-size: 12px; font-weight: normal; font-family: Arial; font-style: normal;" transform="rotate(0,0,13)" dominant-baseline="middle" fill="black" class="bNlN2axis1_5">20</text></g></g><g class="bNlN2axis1_3" transform="translate(96,0)"><line x1="0" y1="0" x2="0" y2="3" stroke="black" stroke-width="0.5" stroke-dasharray="1,0" class="bNlN2axis1_4"></line><g class="bNlN2axis1_5_g"><text x="0" y="13" style="text-anchor: middle; font-size: 12px; font-weight: normal; font-family: Arial; font-style: normal;" transform="rotate(0,0,13)" dominant-baseline="middle" fill="black" class="bNlN2axis1_5">40</text></g></g><g class="bNlN2axis1_3" transform="translate(144,0)"><line x1="0" y1="0" x2="0" y2="3" stroke="black" stroke-width="0.5" stroke-dasharray="1,0" class="bNlN2axis1_4"></line><g class="bNlN2axis1_5_g"><text x="0" y="13" style="text-anchor: middle; font-size: 12px; font-weight: normal; font-family: Arial; font-style: normal;" transform="rotate(0,0,13)" dominant-baseline="middle" fill="black" class="bNlN2axis1_5">60</text></g></g><g class="bNlN2axis1_3" transform="translate(192,0)"><line x1="0" y1="0" x2="0" y2="3" stroke="black" stroke-width="0.5" stroke-dasharray="1,0" class="bNlN2axis1_4"></line><g class="bNlN2axis1_5_g"><text x="0" y="13" style="text-anchor: middle; font-size: 12px; font-weight: normal; font-family: Arial; font-style: normal;" transform="rotate(0,0,13)" dominant-baseline="middle" fill="black" class="bNlN2axis1_5">80</text></g></g><g class="bNlN2axis1_3" transform="translate(240,0)"><line x1="0" y1="0" x2="0" y2="3" stroke="black" stroke-width="0.5" stroke-dasharray="1,0" class="bNlN2axis1_4"></line><g class="bNlN2axis1_5_g"><text x="0" y="13" style="text-anchor: middle; font-size: 12px; font-weight: normal; font-family: Arial; font-style: normal;" transform="rotate(0,0,13)" dominant-baseline="middle" fill="black" class="bNlN2axis1_5">100</text></g></g><g class="text1_g"><text x="120" y="40" style="text-anchor: middle; font-size: 12px; font-weight: normal; font-family: Arial; font-style: normal;" transform="rotate(0,120,40)" dominant-baseline="auto" fill="black" class="text1"></text></g></g><g transform="translate(0,0)" class="bNlN2axis1_6"><line x1="0" y1="0" x2="0" y2="-180" stroke="black" stroke-width="0.5" stroke-dasharray="1,0" stroke-opacity="1" class="bNlN2axis1_7"></line><g class="bNlN2axis1_8" transform="translate(0,0)"><line x1="0" y1="0" x2="-3" y2="0" stroke="black" stroke-width="0.5" stroke-dasharray="1,0" class="bNlN2axis1_9"></line><g class="bNlN2axis1_10_g"><text x="-7" y="0" style="text-anchor: end; font-size: 12px; font-weight: normal; font-family: Arial; font-style: normal;" transform="rotate(0,-7,0)" dominant-baseline="middle" fill="black" class="bNlN2axis1_10">0</text></g></g><g class="bNlN2axis1_8" transform="translate(0,-36)"><line x1="0" y1="0" x2="-3" y2="0" stroke="black" stroke-width="0.5" stroke-dasharray="1,0" class="bNlN2axis1_9"></line><g class="bNlN2axis1_10_g"><text x="-7" y="0" style="text-anchor: end; font-size: 12px; font-weight: normal; font-family: Arial; font-style: normal;" transform="rotate(0,-7,0)" dominant-baseline="middle" fill="black" class="bNlN2axis1_10">30</text></g></g><g class="bNlN2axis1_8" transform="translate(0,-72)"><line x1="0" y1="0" x2="-3" y2="0" stroke="black" stroke-width="0.5" stroke-dasharray="1,0" class="bNlN2axis1_9"></line><g class="bNlN2axis1_10_g"><text x="-7" y="0" style="text-anchor: end; font-size: 12px; font-weight: normal; font-family: Arial; font-style: normal;" transform="rotate(0,-7,0)" dominant-baseline="middle" fill="black" class="bNlN2axis1_10">60</text></g></g><g class="bNlN2axis1_8" transform="translate(0,-108)"><line x1="0" y1="0" x2="-3" y2="0" stroke="black" stroke-width="0.5" stroke-dasharray="1,0" class="bNlN2axis1_9"></line><g class="bNlN2axis1_10_g"><text x="-7" y="0" style="text-anchor: end; font-size: 12px; font-weight: normal; font-family: Arial; font-style: normal;" transform="rotate(0,-7,0)" dominant-baseline="middle" fill="black" class="bNlN2axis1_10">90</text></g></g><g class="bNlN2axis1_8" transform="translate(0,-144)"><line x1="0" y1="0" x2="-3" y2="0" stroke="black" stroke-width="0.5" stroke-dasharray="1,0" class="bNlN2axis1_9"></line><g class="bNlN2axis1_10_g"><text x="-7" y="0" style="text-anchor: end; font-size: 12px; font-weight: normal; font-family: Arial; font-style: normal;" transform="rotate(0,-7,0)" dominant-baseline="middle" fill="black" class="bNlN2axis1_10">120</text></g></g><g class="bNlN2axis1_8" transform="translate(0,-180)"><line x1="0" y1="0" x2="-3" y2="0" stroke="black" stroke-width="0.5" stroke-dasharray="1,0" class="bNlN2axis1_9"></line><g class="bNlN2axis1_10_g"><text x="-7" y="0" style="text-anchor: end; font-size: 12px; font-weight: normal; font-family: Arial; font-style: normal;" transform="rotate(0,-7,0)" dominant-baseline="middle" fill="black" class="bNlN2axis1_10">150</text></g></g><g class="text2_g"><text x="-40" y="-90" style="text-anchor: middle; font-size: 12px; font-weight: normal; font-family: Arial; font-style: normal;" transform="rotate(-90,-40,-90)" dominant-baseline="auto" fill="black" class="text2"></text></g></g></g><g class="group2" transform="translate(0,0)"><line x1="78.696" y1="-122.57478576" x2="217.03200000000004" y2="-159.05799276000002" stroke="#ee2b2b" stroke-width="1" stroke-dasharray="1,0" class="line1"></line></g><g class="group2" transform="translate(0,0)"><line x1="53.832" y1="-154.83221076" x2="227.28000000000003" y2="-99.108247872" stroke="#2b65ee" stroke-width="1" stroke-dasharray="1,0" class="line1"></line></g><g class="group2" transform="translate(0,0)"><line x1="75.048" y1="-37.975377564" x2="185.376" y2="-50.850840096" stroke="#2bee41" stroke-width="1" stroke-dasharray="1,0" class="line1"></line></g><g transform="translate(270,-180)" class="group3"><g class="group5" transform="translate(0,0)"><path d=" M 0 5 L -4.3 -2.5 L 4.3 -2.5 L 0 5" id="e_multi1_0" fill="#ee2b2b" stroke="black" stroke-width="0" stroke-dasharray="1,0" fill-opacity="1" transform="rotate(0,0,0)" class="multi1"></path><g class="text3_g"><text x="15" y="0" style="text-anchor: start; font-size: 12px; font-weight: normal; font-family: Arial; font-style: normal;" transform="rotate(0,15,0)" dominant-baseline="middle" fill="black" class="text3">1</text></g></g><g class="group5" transform="translate(0,15)"><path d=" M 0 -5 L -4.3 2.5 L 4.3 2.5 L 0 -5" id="e_multi1_1" fill="#2b65ee" stroke="black" stroke-width="0" stroke-dasharray="1,0" fill-opacity="1" transform="rotate(0,0,0)" class="multi1"></path><g class="text3_g"><text x="15" y="0" style="text-anchor: start; font-size: 12px; font-weight: normal; font-family: Arial; font-style: normal;" transform="rotate(0,15,0)" dominant-baseline="middle" fill="black" class="text3">2</text></g></g><g class="group5" transform="translate(0,30)"><path d=" M -3.5 -3.5 L 3.5 -3.5 L 3.5 3.5 L -3.5 3.5 L -3.5 -3.5" id="e_multi1_2" fill="#2bee41" stroke="black" stroke-width="0" stroke-dasharray="1,0" fill-opacity="1" transform="rotate(0,0,0)" class="multi1"></path><g class="text3_g"><text x="15" y="0" style="text-anchor: start; font-size: 12px; font-weight: normal; font-family: Arial; font-style: normal;" transform="rotate(0,15,0)" dominant-baseline="middle" fill="black" class="text3">3</text></g></g></g><g transform="translate(0,0)" class="group4"><g class="multiTypes1" transform="translate(206.544,-162.16799999999998)"><path d=" M 0 5 L -4.3 -2.5 L 4.3 -2.5 L 0 5" id="e_multiTypes1_1_0" fill="#ee2b2b" stroke="black" stroke-width="0" stroke-dasharray="1,0" fill-opacity="1" transform="rotate(0,0,0)" class="multiTypes1_1"></path></g><g class="multiTypes1" transform="translate(138.312,-126.75599999999999)"><path d=" M 0 5 L -4.3 -2.5 L 4.3 -2.5 L 0 5" id="e_multiTypes1_1_1" fill="#ee2b2b" stroke="black" stroke-width="0" stroke-dasharray="1,0" fill-opacity="1" transform="rotate(0,0,0)" class="multiTypes1_1"></path></g><g class="multiTypes1" transform="translate(78.696,-126.37200000000001)"><path d=" M 0 5 L -4.3 -2.5 L 4.3 -2.5 L 0 5" id="e_multiTypes1_1_2" fill="#ee2b2b" stroke="black" stroke-width="0" stroke-dasharray="1,0" fill-opacity="1" transform="rotate(0,0,0)" class="multiTypes1_1"></path></g><g class="multiTypes1" transform="translate(150.528,-143.4)"><path d=" M 0 5 L -4.3 -2.5 L 4.3 -2.5 L 0 5" id="e_multiTypes1_1_3" fill="#ee2b2b" stroke="black" stroke-width="0" stroke-dasharray="1,0" fill-opacity="1" transform="rotate(0,0,0)" class="multiTypes1_1"></path></g><g class="multiTypes1" transform="translate(206.184,-156.984)"><path d=" M 0 5 L -4.3 -2.5 L 4.3 -2.5 L 0 5" id="e_multiTypes1_1_4" fill="#ee2b2b" stroke="black" stroke-width="0" stroke-dasharray="1,0" fill-opacity="1" transform="rotate(0,0,0)" class="multiTypes1_1"></path></g><g class="multiTypes1" transform="translate(105.16799999999999,-126.912)"><path d=" M 0 5 L -4.3 -2.5 L 4.3 -2.5 L 0 5" id="e_multiTypes1_1_5" fill="#ee2b2b" stroke="black" stroke-width="0" stroke-dasharray="1,0" fill-opacity="1" transform="rotate(0,0,0)" class="multiTypes1_1"></path></g><g class="multiTypes1" transform="translate(215.664,-150.9)"><path d=" M 0 5 L -4.3 -2.5 L 4.3 -2.5 L 0 5" id="e_multiTypes1_1_6" fill="#ee2b2b" stroke="black" stroke-width="0" stroke-dasharray="1,0" fill-opacity="1" transform="rotate(0,0,0)" class="multiTypes1_1"></path></g><g class="multiTypes1" transform="translate(184.27200000000002,-157.99200000000002)"><path d=" M 0 5 L -4.3 -2.5 L 4.3 -2.5 L 0 5" id="e_multiTypes1_1_7" fill="#ee2b2b" stroke="black" stroke-width="0" stroke-dasharray="1,0" fill-opacity="1" transform="rotate(0,0,0)" class="multiTypes1_1"></path></g><g class="multiTypes1" transform="translate(217.03200000000004,-154.86)"><path d=" M 0 5 L -4.3 -2.5 L 4.3 -2.5 L 0 5" id="e_multiTypes1_1_8" fill="#ee2b2b" stroke="black" stroke-width="0" stroke-dasharray="1,0" fill-opacity="1" transform="rotate(0,0,0)" class="multiTypes1_1"></path></g><g class="multiTypes1" transform="translate(177.71999999999997,-154.956)"><path d=" M 0 5 L -4.3 -2.5 L 4.3 -2.5 L 0 5" id="e_multiTypes1_1_9" fill="#ee2b2b" stroke="black" stroke-width="0" stroke-dasharray="1,0" fill-opacity="1" transform="rotate(0,0,0)" class="multiTypes1_1"></path></g><g class="multiTypes1" transform="translate(200.88000000000002,-118.08)"><path d=" M 0 -5 L -4.3 2.5 L 4.3 2.5 L 0 -5" id="e_multiTypes1_1_10" fill="#2b65ee" stroke="black" stroke-width="0" stroke-dasharray="1,0" fill-opacity="1" transform="rotate(0,0,0)" class="multiTypes1_1"></path></g><g class="multiTypes1" transform="translate(215.64,-91.68000000000002)"><path d=" M 0 -5 L -4.3 2.5 L 4.3 2.5 L 0 -5" id="e_multiTypes1_1_11" fill="#2b65ee" stroke="black" stroke-width="0" stroke-dasharray="1,0" fill-opacity="1" transform="rotate(0,0,0)" class="multiTypes1_1"></path></g><g class="multiTypes1" transform="translate(61.848,-150.54000000000002)"><path d=" M 0 -5 L -4.3 2.5 L 4.3 2.5 L 0 -5" id="e_multiTypes1_1_12" fill="#2b65ee" stroke="black" stroke-width="0" stroke-dasharray="1,0" fill-opacity="1" transform="rotate(0,0,0)" class="multiTypes1_1"></path></g><g class="multiTypes1" transform="translate(212.736,-98.88)"><path d=" M 0 -5 L -4.3 2.5 L 4.3 2.5 L 0 -5" id="e_multiTypes1_1_13" fill="#2b65ee" stroke="black" stroke-width="0" stroke-dasharray="1,0" fill-opacity="1" transform="rotate(0,0,0)" class="multiTypes1_1"></path></g><g class="multiTypes1" transform="translate(183.36,-119.47200000000001)"><path d=" M 0 -5 L -4.3 2.5 L 4.3 2.5 L 0 -5" id="e_multiTypes1_1_14" fill="#2b65ee" stroke="black" stroke-width="0" stroke-dasharray="1,0" fill-opacity="1" transform="rotate(0,0,0)" class="multiTypes1_1"></path></g><g class="multiTypes1" transform="translate(53.832,-153.57600000000002)"><path d=" M 0 -5 L -4.3 2.5 L 4.3 2.5 L 0 -5" id="e_multiTypes1_1_15" fill="#2b65ee" stroke="black" stroke-width="0" stroke-dasharray="1,0" fill-opacity="1" transform="rotate(0,0,0)" class="multiTypes1_1"></path></g><g class="multiTypes1" transform="translate(211.32,-104.20800000000001)"><path d=" M 0 -5 L -4.3 2.5 L 4.3 2.5 L 0 -5" id="e_multiTypes1_1_16" fill="#2b65ee" stroke="black" stroke-width="0" stroke-dasharray="1,0" fill-opacity="1" transform="rotate(0,0,0)" class="multiTypes1_1"></path></g><g class="multiTypes1" transform="translate(216.72,-95.628)"><path d=" M 0 -5 L -4.3 2.5 L 4.3 2.5 L 0 -5" id="e_multiTypes1_1_17" fill="#2b65ee" stroke="black" stroke-width="0" stroke-dasharray="1,0" fill-opacity="1" transform="rotate(0,0,0)" class="multiTypes1_1"></path></g><g class="multiTypes1" transform="translate(227.28000000000003,-102.79199999999999)"><path d=" M 0 -5 L -4.3 2.5 L 4.3 2.5 L 0 -5" id="e_multiTypes1_1_18" fill="#2b65ee" stroke="black" stroke-width="0" stroke-dasharray="1,0" fill-opacity="1" transform="rotate(0,0,0)" class="multiTypes1_1"></path></g><g class="multiTypes1" transform="translate(186.552,-117.70800000000001)"><path d=" M 0 -5 L -4.3 2.5 L 4.3 2.5 L 0 -5" id="e_multiTypes1_1_19" fill="#2b65ee" stroke="black" stroke-width="0" stroke-dasharray="1,0" fill-opacity="1" transform="rotate(0,0,0)" class="multiTypes1_1"></path></g><g class="multiTypes1" transform="translate(113.44800000000001,-38.604)"><path d=" M -3.5 -3.5 L 3.5 -3.5 L 3.5 3.5 L -3.5 3.5 L -3.5 -3.5" id="e_multiTypes1_1_20" fill="#2bee41" stroke="black" stroke-width="0" stroke-dasharray="1,0" fill-opacity="1" transform="rotate(0,0,0)" class="multiTypes1_1"></path></g><g class="multiTypes1" transform="translate(182.47199999999998,-63.06)"><path d=" M -3.5 -3.5 L 3.5 -3.5 L 3.5 3.5 L -3.5 3.5 L -3.5 -3.5" id="e_multiTypes1_1_21" fill="#2bee41" stroke="black" stroke-width="0" stroke-dasharray="1,0" fill-opacity="1" transform="rotate(0,0,0)" class="multiTypes1_1"></path></g><g class="multiTypes1" transform="translate(177.09600000000003,-39.227999999999994)"><path d=" M -3.5 -3.5 L 3.5 -3.5 L 3.5 3.5 L -3.5 3.5 L -3.5 -3.5" id="e_multiTypes1_1_22" fill="#2bee41" stroke="black" stroke-width="0" stroke-dasharray="1,0" fill-opacity="1" transform="rotate(0,0,0)" class="multiTypes1_1"></path></g><g class="multiTypes1" transform="translate(113.304,-49.824000000000005)"><path d=" M -3.5 -3.5 L 3.5 -3.5 L 3.5 3.5 L -3.5 3.5 L -3.5 -3.5" id="e_multiTypes1_1_23" fill="#2bee41" stroke="black" stroke-width="0" stroke-dasharray="1,0" fill-opacity="1" transform="rotate(0,0,0)" class="multiTypes1_1"></path></g><g class="multiTypes1" transform="translate(185.376,-53.172)"><path d=" M -3.5 -3.5 L 3.5 -3.5 L 3.5 3.5 L -3.5 3.5 L -3.5 -3.5" id="e_multiTypes1_1_24" fill="#2bee41" stroke="black" stroke-width="0" stroke-dasharray="1,0" fill-opacity="1" transform="rotate(0,0,0)" class="multiTypes1_1"></path></g><g class="multiTypes1" transform="translate(179.928,-55.547999999999995)"><path d=" M -3.5 -3.5 L 3.5 -3.5 L 3.5 3.5 L -3.5 3.5 L -3.5 -3.5" id="e_multiTypes1_1_25" fill="#2bee41" stroke="black" stroke-width="0" stroke-dasharray="1,0" fill-opacity="1" transform="rotate(0,0,0)" class="multiTypes1_1"></path></g><g class="multiTypes1" transform="translate(75.048,-36.876)"><path d=" M -3.5 -3.5 L 3.5 -3.5 L 3.5 3.5 L -3.5 3.5 L -3.5 -3.5" id="e_multiTypes1_1_26" fill="#2bee41" stroke="black" stroke-width="0" stroke-dasharray="1,0" fill-opacity="1" transform="rotate(0,0,0)" class="multiTypes1_1"></path></g><g class="multiTypes1" transform="translate(169.824,-41.652)"><path d=" M -3.5 -3.5 L 3.5 -3.5 L 3.5 3.5 L -3.5 3.5 L -3.5 -3.5" id="e_multiTypes1_1_27" fill="#2bee41" stroke="black" stroke-width="0" stroke-dasharray="1,0" fill-opacity="1" transform="rotate(0,0,0)" class="multiTypes1_1"></path></g><g class="multiTypes1" transform="translate(177.288,-44.292)"><path d=" M -3.5 -3.5 L 3.5 -3.5 L 3.5 3.5 L -3.5 3.5 L -3.5 -3.5" id="e_multiTypes1_1_28" fill="#2bee41" stroke="black" stroke-width="0" stroke-dasharray="1,0" fill-opacity="1" transform="rotate(0,0,0)" class="multiTypes1_1"></path></g><g class="multiTypes1" transform="translate(137.184,-46.248000000000005)"><path d=" M -3.5 -3.5 L 3.5 -3.5 L 3.5 3.5 L -3.5 3.5 L -3.5 -3.5" id="e_multiTypes1_1_29" fill="#2bee41" stroke="black" stroke-width="0" stroke-dasharray="1,0" fill-opacity="1" transform="rotate(0,0,0)" class="multiTypes1_1"></path></g></g><g transform="translate(0,0)" class="borderTR1"><line x1="0" y1="-180" x2="240" y2="-180" stroke="black" stroke-width="0.5" stroke-dasharray="1,0" class="borderTR1_1"></line><line x1="240" y1="0" x2="240" y2="-180" stroke="black" stroke-width="0.5" stroke-dasharray="1,0" class="borderTR1_2"></line></g></g></svg>
